G04*
G04 #@! TF.GenerationSoftware,Altium Limited,Altium Designer,23.8.1 (32)*
G04*
G04 Layer_Color=8388736*
%FSLAX44Y44*%
%MOMM*%
G71*
G04*
G04 #@! TF.SameCoordinates,1253C11B-B4F6-43D5-8584-102BFB41548A*
G04*
G04*
G04 #@! TF.FilePolarity,Negative*
G04*
G01*
G75*
G04:AMPARAMS|DCode=70|XSize=1.4532mm|YSize=1.3032mm|CornerRadius=0mm|HoleSize=0mm|Usage=FLASHONLY|Rotation=93.600|XOffset=0mm|YOffset=0mm|HoleType=Round|Shape=Rectangle|*
%AMROTATEDRECTD70*
4,1,4,0.6959,-0.6843,-0.6047,-0.7661,-0.6959,0.6843,0.6047,0.7661,0.6959,-0.6843,0.0*
%
%ADD70ROTATEDRECTD70*%

G04:AMPARAMS|DCode=71|XSize=1.4532mm|YSize=1.3032mm|CornerRadius=0.3766mm|HoleSize=0mm|Usage=FLASHONLY|Rotation=93.600|XOffset=0mm|YOffset=0mm|HoleType=Round|Shape=RoundedRectangle|*
%AMROUNDEDRECTD71*
21,1,1.4532,0.5500,0,0,93.6*
21,1,0.7000,1.3032,0,0,93.6*
1,1,0.7532,0.2525,0.3666*
1,1,0.7532,0.2964,-0.3320*
1,1,0.7532,-0.2525,-0.3666*
1,1,0.7532,-0.2964,0.3320*
%
%ADD71ROUNDEDRECTD71*%
G04:AMPARAMS|DCode=72|XSize=1.4532mm|YSize=1.3032mm|CornerRadius=0mm|HoleSize=0mm|Usage=FLASHONLY|Rotation=165.600|XOffset=0mm|YOffset=0mm|HoleType=Round|Shape=Rectangle|*
%AMROTATEDRECTD72*
4,1,4,0.8658,0.4504,0.5417,-0.8118,-0.8658,-0.4504,-0.5417,0.8118,0.8658,0.4504,0.0*
%
%ADD72ROTATEDRECTD72*%

G04:AMPARAMS|DCode=73|XSize=1.4532mm|YSize=1.3032mm|CornerRadius=0.3766mm|HoleSize=0mm|Usage=FLASHONLY|Rotation=165.600|XOffset=0mm|YOffset=0mm|HoleType=Round|Shape=RoundedRectangle|*
%AMROUNDEDRECTD73*
21,1,1.4532,0.5500,0,0,165.6*
21,1,0.7000,1.3032,0,0,165.6*
1,1,0.7532,-0.2706,0.3534*
1,1,0.7532,0.4074,0.1793*
1,1,0.7532,0.2706,-0.3534*
1,1,0.7532,-0.4074,-0.1793*
%
%ADD73ROUNDEDRECTD73*%
G04:AMPARAMS|DCode=74|XSize=1.4532mm|YSize=1.3032mm|CornerRadius=0mm|HoleSize=0mm|Usage=FLASHONLY|Rotation=352.800|XOffset=0mm|YOffset=0mm|HoleType=Round|Shape=Rectangle|*
%AMROTATEDRECTD74*
4,1,4,-0.8025,-0.5554,-0.6392,0.7375,0.8025,0.5554,0.6392,-0.7375,-0.8025,-0.5554,0.0*
%
%ADD74ROTATEDRECTD74*%

G04:AMPARAMS|DCode=75|XSize=1.4532mm|YSize=1.3032mm|CornerRadius=0.3766mm|HoleSize=0mm|Usage=FLASHONLY|Rotation=352.800|XOffset=0mm|YOffset=0mm|HoleType=Round|Shape=RoundedRectangle|*
%AMROUNDEDRECTD75*
21,1,1.4532,0.5500,0,0,352.8*
21,1,0.7000,1.3032,0,0,352.8*
1,1,0.7532,0.3128,-0.3167*
1,1,0.7532,-0.3817,-0.2290*
1,1,0.7532,-0.3128,0.3167*
1,1,0.7532,0.3817,0.2290*
%
%ADD75ROUNDEDRECTD75*%
G04:AMPARAMS|DCode=76|XSize=1.4532mm|YSize=1.3032mm|CornerRadius=0.3766mm|HoleSize=0mm|Usage=FLASHONLY|Rotation=194.400|XOffset=0mm|YOffset=0mm|HoleType=Round|Shape=RoundedRectangle|*
%AMROUNDEDRECTD76*
21,1,1.4532,0.5500,0,0,194.4*
21,1,0.7000,1.3032,0,0,194.4*
1,1,0.7532,-0.4074,0.1793*
1,1,0.7532,0.2706,0.3534*
1,1,0.7532,0.4074,-0.1793*
1,1,0.7532,-0.2706,-0.3534*
%
%ADD76ROUNDEDRECTD76*%
G04:AMPARAMS|DCode=77|XSize=1.4532mm|YSize=1.3032mm|CornerRadius=0mm|HoleSize=0mm|Usage=FLASHONLY|Rotation=194.400|XOffset=0mm|YOffset=0mm|HoleType=Round|Shape=Rectangle|*
%AMROTATEDRECTD77*
4,1,4,0.5417,0.8118,0.8658,-0.4504,-0.5417,-0.8118,-0.8658,0.4504,0.5417,0.8118,0.0*
%
%ADD77ROTATEDRECTD77*%

G04:AMPARAMS|DCode=78|XSize=1.4532mm|YSize=1.3032mm|CornerRadius=0.3766mm|HoleSize=0mm|Usage=FLASHONLY|Rotation=208.800|XOffset=0mm|YOffset=0mm|HoleType=Round|Shape=RoundedRectangle|*
%AMROUNDEDRECTD78*
21,1,1.4532,0.5500,0,0,208.8*
21,1,0.7000,1.3032,0,0,208.8*
1,1,0.7532,-0.4392,0.0724*
1,1,0.7532,0.1742,0.4096*
1,1,0.7532,0.4392,-0.0724*
1,1,0.7532,-0.1742,-0.4096*
%
%ADD78ROUNDEDRECTD78*%
G04:AMPARAMS|DCode=79|XSize=1.4532mm|YSize=1.3032mm|CornerRadius=0mm|HoleSize=0mm|Usage=FLASHONLY|Rotation=208.800|XOffset=0mm|YOffset=0mm|HoleType=Round|Shape=Rectangle|*
%AMROTATEDRECTD79*
4,1,4,0.3228,0.9210,0.9506,-0.2210,-0.3228,-0.9210,-0.9506,0.2210,0.3228,0.9210,0.0*
%
%ADD79ROTATEDRECTD79*%

G04:AMPARAMS|DCode=80|XSize=1.4532mm|YSize=1.3032mm|CornerRadius=0.3766mm|HoleSize=0mm|Usage=FLASHONLY|Rotation=223.200|XOffset=0mm|YOffset=0mm|HoleType=Round|Shape=RoundedRectangle|*
%AMROUNDEDRECTD80*
21,1,1.4532,0.5500,0,0,223.2*
21,1,0.7000,1.3032,0,0,223.2*
1,1,0.7532,-0.4434,-0.0391*
1,1,0.7532,0.0669,0.4401*
1,1,0.7532,0.4434,0.0391*
1,1,0.7532,-0.0669,-0.4401*
%
%ADD80ROUNDEDRECTD80*%
G04:AMPARAMS|DCode=81|XSize=1.4532mm|YSize=1.3032mm|CornerRadius=0mm|HoleSize=0mm|Usage=FLASHONLY|Rotation=223.200|XOffset=0mm|YOffset=0mm|HoleType=Round|Shape=Rectangle|*
%AMROTATEDRECTD81*
4,1,4,0.0836,0.9724,0.9757,0.0224,-0.0836,-0.9724,-0.9757,-0.0224,0.0836,0.9724,0.0*
%
%ADD81ROTATEDRECTD81*%

G04:AMPARAMS|DCode=82|XSize=1.4532mm|YSize=1.3032mm|CornerRadius=0.3766mm|HoleSize=0mm|Usage=FLASHONLY|Rotation=237.600|XOffset=0mm|YOffset=0mm|HoleType=Round|Shape=RoundedRectangle|*
%AMROUNDEDRECTD82*
21,1,1.4532,0.5500,0,0,237.6*
21,1,0.7000,1.3032,0,0,237.6*
1,1,0.7532,-0.4197,-0.1482*
1,1,0.7532,-0.0447,0.4429*
1,1,0.7532,0.4197,0.1482*
1,1,0.7532,0.0447,-0.4429*
%
%ADD82ROUNDEDRECTD82*%
G04:AMPARAMS|DCode=83|XSize=1.4532mm|YSize=1.3032mm|CornerRadius=0mm|HoleSize=0mm|Usage=FLASHONLY|Rotation=237.600|XOffset=0mm|YOffset=0mm|HoleType=Round|Shape=Rectangle|*
%AMROTATEDRECTD83*
4,1,4,-0.1608,0.9626,0.9395,0.2643,0.1608,-0.9626,-0.9395,-0.2643,-0.1608,0.9626,0.0*
%
%ADD83ROTATEDRECTD83*%

G04:AMPARAMS|DCode=84|XSize=1.4532mm|YSize=1.3032mm|CornerRadius=0.3766mm|HoleSize=0mm|Usage=FLASHONLY|Rotation=252.000|XOffset=0mm|YOffset=0mm|HoleType=Round|Shape=RoundedRectangle|*
%AMROUNDEDRECTD84*
21,1,1.4532,0.5500,0,0,252.0*
21,1,0.7000,1.3032,0,0,252.0*
1,1,0.7532,-0.3697,-0.2479*
1,1,0.7532,-0.1534,0.4178*
1,1,0.7532,0.3697,0.2479*
1,1,0.7532,0.1534,-0.4178*
%
%ADD84ROUNDEDRECTD84*%
G04:AMPARAMS|DCode=85|XSize=1.4532mm|YSize=1.3032mm|CornerRadius=0mm|HoleSize=0mm|Usage=FLASHONLY|Rotation=252.000|XOffset=0mm|YOffset=0mm|HoleType=Round|Shape=Rectangle|*
%AMROTATEDRECTD85*
4,1,4,-0.3952,0.8924,0.8442,0.4897,0.3952,-0.8924,-0.8442,-0.4897,-0.3952,0.8924,0.0*
%
%ADD85ROTATEDRECTD85*%

G04:AMPARAMS|DCode=86|XSize=1.4532mm|YSize=1.3032mm|CornerRadius=0.3766mm|HoleSize=0mm|Usage=FLASHONLY|Rotation=266.400|XOffset=0mm|YOffset=0mm|HoleType=Round|Shape=RoundedRectangle|*
%AMROUNDEDRECTD86*
21,1,1.4532,0.5500,0,0,266.4*
21,1,0.7000,1.3032,0,0,266.4*
1,1,0.7532,-0.2964,-0.3320*
1,1,0.7532,-0.2525,0.3666*
1,1,0.7532,0.2964,0.3320*
1,1,0.7532,0.2525,-0.3666*
%
%ADD86ROUNDEDRECTD86*%
G04:AMPARAMS|DCode=87|XSize=1.4532mm|YSize=1.3032mm|CornerRadius=0mm|HoleSize=0mm|Usage=FLASHONLY|Rotation=266.400|XOffset=0mm|YOffset=0mm|HoleType=Round|Shape=Rectangle|*
%AMROTATEDRECTD87*
4,1,4,-0.6047,0.7661,0.6959,0.6843,0.6047,-0.7661,-0.6959,-0.6843,-0.6047,0.7661,0.0*
%
%ADD87ROTATEDRECTD87*%

G04:AMPARAMS|DCode=88|XSize=1.4532mm|YSize=1.3032mm|CornerRadius=0.3766mm|HoleSize=0mm|Usage=FLASHONLY|Rotation=280.800|XOffset=0mm|YOffset=0mm|HoleType=Round|Shape=RoundedRectangle|*
%AMROUNDEDRECTD88*
21,1,1.4532,0.5500,0,0,280.8*
21,1,0.7000,1.3032,0,0,280.8*
1,1,0.7532,-0.2046,-0.3953*
1,1,0.7532,-0.3357,0.2923*
1,1,0.7532,0.2046,0.3953*
1,1,0.7532,0.3357,-0.2923*
%
%ADD88ROUNDEDRECTD88*%
G04:AMPARAMS|DCode=89|XSize=1.4532mm|YSize=1.3032mm|CornerRadius=0mm|HoleSize=0mm|Usage=FLASHONLY|Rotation=280.800|XOffset=0mm|YOffset=0mm|HoleType=Round|Shape=Rectangle|*
%AMROTATEDRECTD89*
4,1,4,-0.7762,0.5916,0.5039,0.8358,0.7762,-0.5916,-0.5039,-0.8358,-0.7762,0.5916,0.0*
%
%ADD89ROTATEDRECTD89*%

G04:AMPARAMS|DCode=90|XSize=1.4532mm|YSize=1.3032mm|CornerRadius=0.3766mm|HoleSize=0mm|Usage=FLASHONLY|Rotation=295.200|XOffset=0mm|YOffset=0mm|HoleType=Round|Shape=RoundedRectangle|*
%AMROUNDEDRECTD90*
21,1,1.4532,0.5500,0,0,295.2*
21,1,0.7000,1.3032,0,0,295.2*
1,1,0.7532,-0.0998,-0.4338*
1,1,0.7532,-0.3979,0.1996*
1,1,0.7532,0.0998,0.4338*
1,1,0.7532,0.3979,-0.1996*
%
%ADD90ROUNDEDRECTD90*%
G04:AMPARAMS|DCode=91|XSize=1.4532mm|YSize=1.3032mm|CornerRadius=0mm|HoleSize=0mm|Usage=FLASHONLY|Rotation=295.200|XOffset=0mm|YOffset=0mm|HoleType=Round|Shape=Rectangle|*
%AMROTATEDRECTD91*
4,1,4,-0.8990,0.3800,0.2802,0.9349,0.8990,-0.3800,-0.2802,-0.9349,-0.8990,0.3800,0.0*
%
%ADD91ROTATEDRECTD91*%

G04:AMPARAMS|DCode=92|XSize=1.4532mm|YSize=1.3032mm|CornerRadius=0.3766mm|HoleSize=0mm|Usage=FLASHONLY|Rotation=309.600|XOffset=0mm|YOffset=0mm|HoleType=Round|Shape=RoundedRectangle|*
%AMROUNDEDRECTD92*
21,1,1.4532,0.5500,0,0,309.6*
21,1,0.7000,1.3032,0,0,309.6*
1,1,0.7532,0.0112,-0.4450*
1,1,0.7532,-0.4350,0.0944*
1,1,0.7532,-0.0112,0.4450*
1,1,0.7532,0.4350,-0.0944*
%
%ADD92ROUNDEDRECTD92*%
G04:AMPARAMS|DCode=93|XSize=1.4532mm|YSize=1.3032mm|CornerRadius=0mm|HoleSize=0mm|Usage=FLASHONLY|Rotation=309.600|XOffset=0mm|YOffset=0mm|HoleType=Round|Shape=Rectangle|*
%AMROTATEDRECTD93*
4,1,4,-0.9652,0.1445,0.0389,0.9752,0.9652,-0.1445,-0.0389,-0.9752,-0.9652,0.1445,0.0*
%
%ADD93ROTATEDRECTD93*%

G04:AMPARAMS|DCode=94|XSize=1.4532mm|YSize=1.3032mm|CornerRadius=0.3766mm|HoleSize=0mm|Usage=FLASHONLY|Rotation=324.000|XOffset=0mm|YOffset=0mm|HoleType=Round|Shape=RoundedRectangle|*
%AMROUNDEDRECTD94*
21,1,1.4532,0.5500,0,0,324.0*
21,1,0.7000,1.3032,0,0,324.0*
1,1,0.7532,0.1215,-0.4282*
1,1,0.7532,-0.4448,-0.0168*
1,1,0.7532,-0.1215,0.4282*
1,1,0.7532,0.4448,0.0168*
%
%ADD94ROUNDEDRECTD94*%
G04:AMPARAMS|DCode=95|XSize=1.4532mm|YSize=1.3032mm|CornerRadius=0mm|HoleSize=0mm|Usage=FLASHONLY|Rotation=324.000|XOffset=0mm|YOffset=0mm|HoleType=Round|Shape=Rectangle|*
%AMROTATEDRECTD95*
4,1,4,-0.9708,-0.1001,-0.2048,0.9542,0.9708,0.1001,0.2048,-0.9542,-0.9708,-0.1001,0.0*
%
%ADD95ROTATEDRECTD95*%

G04:AMPARAMS|DCode=96|XSize=1.4532mm|YSize=1.3032mm|CornerRadius=0.3766mm|HoleSize=0mm|Usage=FLASHONLY|Rotation=338.400|XOffset=0mm|YOffset=0mm|HoleType=Round|Shape=RoundedRectangle|*
%AMROUNDEDRECTD96*
21,1,1.4532,0.5500,0,0,338.4*
21,1,0.7000,1.3032,0,0,338.4*
1,1,0.7532,0.2242,-0.3845*
1,1,0.7532,-0.4267,-0.1269*
1,1,0.7532,-0.2242,0.3845*
1,1,0.7532,0.4267,0.1269*
%
%ADD96ROUNDEDRECTD96*%
G04:AMPARAMS|DCode=97|XSize=1.4532mm|YSize=1.3032mm|CornerRadius=0mm|HoleSize=0mm|Usage=FLASHONLY|Rotation=338.400|XOffset=0mm|YOffset=0mm|HoleType=Round|Shape=Rectangle|*
%AMROTATEDRECTD97*
4,1,4,-0.9155,-0.3384,-0.4357,0.8733,0.9155,0.3384,0.4357,-0.8733,-0.9155,-0.3384,0.0*
%
%ADD97ROTATEDRECTD97*%

G04:AMPARAMS|DCode=98|XSize=1.4532mm|YSize=1.3032mm|CornerRadius=0.3766mm|HoleSize=0mm|Usage=FLASHONLY|Rotation=7.200|XOffset=0mm|YOffset=0mm|HoleType=Round|Shape=RoundedRectangle|*
%AMROUNDEDRECTD98*
21,1,1.4532,0.5500,0,0,7.2*
21,1,0.7000,1.3032,0,0,7.2*
1,1,0.7532,0.3817,-0.2290*
1,1,0.7532,-0.3128,-0.3167*
1,1,0.7532,-0.3817,0.2290*
1,1,0.7532,0.3128,0.3167*
%
%ADD98ROUNDEDRECTD98*%
G04:AMPARAMS|DCode=99|XSize=1.4532mm|YSize=1.3032mm|CornerRadius=0mm|HoleSize=0mm|Usage=FLASHONLY|Rotation=7.200|XOffset=0mm|YOffset=0mm|HoleType=Round|Shape=Rectangle|*
%AMROTATEDRECTD99*
4,1,4,-0.6392,-0.7375,-0.8025,0.5554,0.6392,0.7375,0.8025,-0.5554,-0.6392,-0.7375,0.0*
%
%ADD99ROTATEDRECTD99*%

G04:AMPARAMS|DCode=100|XSize=1.4532mm|YSize=1.3032mm|CornerRadius=0.3766mm|HoleSize=0mm|Usage=FLASHONLY|Rotation=21.600|XOffset=0mm|YOffset=0mm|HoleType=Round|Shape=RoundedRectangle|*
%AMROUNDEDRECTD100*
21,1,1.4532,0.5500,0,0,21.6*
21,1,0.7000,1.3032,0,0,21.6*
1,1,0.7532,0.4267,-0.1269*
1,1,0.7532,-0.2242,-0.3845*
1,1,0.7532,-0.4267,0.1269*
1,1,0.7532,0.2242,0.3845*
%
%ADD100ROUNDEDRECTD100*%
G04:AMPARAMS|DCode=101|XSize=1.4532mm|YSize=1.3032mm|CornerRadius=0mm|HoleSize=0mm|Usage=FLASHONLY|Rotation=21.600|XOffset=0mm|YOffset=0mm|HoleType=Round|Shape=Rectangle|*
%AMROTATEDRECTD101*
4,1,4,-0.4357,-0.8733,-0.9155,0.3384,0.4357,0.8733,0.9155,-0.3384,-0.4357,-0.8733,0.0*
%
%ADD101ROTATEDRECTD101*%

G04:AMPARAMS|DCode=102|XSize=1.4532mm|YSize=1.3032mm|CornerRadius=0.3766mm|HoleSize=0mm|Usage=FLASHONLY|Rotation=36.000|XOffset=0mm|YOffset=0mm|HoleType=Round|Shape=RoundedRectangle|*
%AMROUNDEDRECTD102*
21,1,1.4532,0.5500,0,0,36.0*
21,1,0.7000,1.3032,0,0,36.0*
1,1,0.7532,0.4448,-0.0168*
1,1,0.7532,-0.1215,-0.4282*
1,1,0.7532,-0.4448,0.0168*
1,1,0.7532,0.1215,0.4282*
%
%ADD102ROUNDEDRECTD102*%
G04:AMPARAMS|DCode=103|XSize=1.4532mm|YSize=1.3032mm|CornerRadius=0mm|HoleSize=0mm|Usage=FLASHONLY|Rotation=36.000|XOffset=0mm|YOffset=0mm|HoleType=Round|Shape=Rectangle|*
%AMROTATEDRECTD103*
4,1,4,-0.2048,-0.9542,-0.9708,0.1001,0.2048,0.9542,0.9708,-0.1001,-0.2048,-0.9542,0.0*
%
%ADD103ROTATEDRECTD103*%

G04:AMPARAMS|DCode=104|XSize=1.4532mm|YSize=1.3032mm|CornerRadius=0.3766mm|HoleSize=0mm|Usage=FLASHONLY|Rotation=50.400|XOffset=0mm|YOffset=0mm|HoleType=Round|Shape=RoundedRectangle|*
%AMROUNDEDRECTD104*
21,1,1.4532,0.5500,0,0,50.4*
21,1,0.7000,1.3032,0,0,50.4*
1,1,0.7532,0.4350,0.0944*
1,1,0.7532,-0.0112,-0.4450*
1,1,0.7532,-0.4350,-0.0944*
1,1,0.7532,0.0112,0.4450*
%
%ADD104ROUNDEDRECTD104*%
G04:AMPARAMS|DCode=105|XSize=1.4532mm|YSize=1.3032mm|CornerRadius=0mm|HoleSize=0mm|Usage=FLASHONLY|Rotation=50.400|XOffset=0mm|YOffset=0mm|HoleType=Round|Shape=Rectangle|*
%AMROTATEDRECTD105*
4,1,4,0.0389,-0.9752,-0.9652,-0.1445,-0.0389,0.9752,0.9652,0.1445,0.0389,-0.9752,0.0*
%
%ADD105ROTATEDRECTD105*%

G04:AMPARAMS|DCode=106|XSize=1.4532mm|YSize=1.3032mm|CornerRadius=0.3766mm|HoleSize=0mm|Usage=FLASHONLY|Rotation=64.800|XOffset=0mm|YOffset=0mm|HoleType=Round|Shape=RoundedRectangle|*
%AMROUNDEDRECTD106*
21,1,1.4532,0.5500,0,0,64.8*
21,1,0.7000,1.3032,0,0,64.8*
1,1,0.7532,0.3979,0.1996*
1,1,0.7532,0.0998,-0.4338*
1,1,0.7532,-0.3979,-0.1996*
1,1,0.7532,-0.0998,0.4338*
%
%ADD106ROUNDEDRECTD106*%
G04:AMPARAMS|DCode=107|XSize=1.4532mm|YSize=1.3032mm|CornerRadius=0mm|HoleSize=0mm|Usage=FLASHONLY|Rotation=64.800|XOffset=0mm|YOffset=0mm|HoleType=Round|Shape=Rectangle|*
%AMROTATEDRECTD107*
4,1,4,0.2802,-0.9349,-0.8990,-0.3800,-0.2802,0.9349,0.8990,0.3800,0.2802,-0.9349,0.0*
%
%ADD107ROTATEDRECTD107*%

G04:AMPARAMS|DCode=108|XSize=1.4532mm|YSize=1.3032mm|CornerRadius=0.3766mm|HoleSize=0mm|Usage=FLASHONLY|Rotation=79.200|XOffset=0mm|YOffset=0mm|HoleType=Round|Shape=RoundedRectangle|*
%AMROUNDEDRECTD108*
21,1,1.4532,0.5500,0,0,79.2*
21,1,0.7000,1.3032,0,0,79.2*
1,1,0.7532,0.3357,0.2923*
1,1,0.7532,0.2046,-0.3953*
1,1,0.7532,-0.3357,-0.2923*
1,1,0.7532,-0.2046,0.3953*
%
%ADD108ROUNDEDRECTD108*%
G04:AMPARAMS|DCode=109|XSize=1.4532mm|YSize=1.3032mm|CornerRadius=0mm|HoleSize=0mm|Usage=FLASHONLY|Rotation=79.200|XOffset=0mm|YOffset=0mm|HoleType=Round|Shape=Rectangle|*
%AMROTATEDRECTD109*
4,1,4,0.5039,-0.8358,-0.7762,-0.5916,-0.5039,0.8358,0.7762,0.5916,0.5039,-0.8358,0.0*
%
%ADD109ROTATEDRECTD109*%

G04:AMPARAMS|DCode=110|XSize=1.4532mm|YSize=1.3032mm|CornerRadius=0.3766mm|HoleSize=0mm|Usage=FLASHONLY|Rotation=108.000|XOffset=0mm|YOffset=0mm|HoleType=Round|Shape=RoundedRectangle|*
%AMROUNDEDRECTD110*
21,1,1.4532,0.5500,0,0,108.0*
21,1,0.7000,1.3032,0,0,108.0*
1,1,0.7532,0.1534,0.4178*
1,1,0.7532,0.3697,-0.2479*
1,1,0.7532,-0.1534,-0.4178*
1,1,0.7532,-0.3697,0.2479*
%
%ADD110ROUNDEDRECTD110*%
G04:AMPARAMS|DCode=111|XSize=1.4532mm|YSize=1.3032mm|CornerRadius=0mm|HoleSize=0mm|Usage=FLASHONLY|Rotation=108.000|XOffset=0mm|YOffset=0mm|HoleType=Round|Shape=Rectangle|*
%AMROTATEDRECTD111*
4,1,4,0.8442,-0.4897,-0.3952,-0.8924,-0.8442,0.4897,0.3952,0.8924,0.8442,-0.4897,0.0*
%
%ADD111ROTATEDRECTD111*%

G04:AMPARAMS|DCode=112|XSize=1.4532mm|YSize=1.3032mm|CornerRadius=0.3766mm|HoleSize=0mm|Usage=FLASHONLY|Rotation=122.400|XOffset=0mm|YOffset=0mm|HoleType=Round|Shape=RoundedRectangle|*
%AMROUNDEDRECTD112*
21,1,1.4532,0.5500,0,0,122.4*
21,1,0.7000,1.3032,0,0,122.4*
1,1,0.7532,0.0447,0.4429*
1,1,0.7532,0.4197,-0.1482*
1,1,0.7532,-0.0447,-0.4429*
1,1,0.7532,-0.4197,0.1482*
%
%ADD112ROUNDEDRECTD112*%
G04:AMPARAMS|DCode=113|XSize=1.4532mm|YSize=1.3032mm|CornerRadius=0mm|HoleSize=0mm|Usage=FLASHONLY|Rotation=122.400|XOffset=0mm|YOffset=0mm|HoleType=Round|Shape=Rectangle|*
%AMROTATEDRECTD113*
4,1,4,0.9395,-0.2643,-0.1608,-0.9626,-0.9395,0.2643,0.1608,0.9626,0.9395,-0.2643,0.0*
%
%ADD113ROTATEDRECTD113*%

G04:AMPARAMS|DCode=114|XSize=1.4532mm|YSize=1.3032mm|CornerRadius=0.3766mm|HoleSize=0mm|Usage=FLASHONLY|Rotation=136.800|XOffset=0mm|YOffset=0mm|HoleType=Round|Shape=RoundedRectangle|*
%AMROUNDEDRECTD114*
21,1,1.4532,0.5500,0,0,136.8*
21,1,0.7000,1.3032,0,0,136.8*
1,1,0.7532,-0.0669,0.4401*
1,1,0.7532,0.4434,-0.0391*
1,1,0.7532,0.0669,-0.4401*
1,1,0.7532,-0.4434,0.0391*
%
%ADD114ROUNDEDRECTD114*%
G04:AMPARAMS|DCode=115|XSize=1.4532mm|YSize=1.3032mm|CornerRadius=0mm|HoleSize=0mm|Usage=FLASHONLY|Rotation=136.800|XOffset=0mm|YOffset=0mm|HoleType=Round|Shape=Rectangle|*
%AMROTATEDRECTD115*
4,1,4,0.9757,-0.0224,0.0836,-0.9724,-0.9757,0.0224,-0.0836,0.9724,0.9757,-0.0224,0.0*
%
%ADD115ROTATEDRECTD115*%

G04:AMPARAMS|DCode=116|XSize=1.4532mm|YSize=1.3032mm|CornerRadius=0.3766mm|HoleSize=0mm|Usage=FLASHONLY|Rotation=151.200|XOffset=0mm|YOffset=0mm|HoleType=Round|Shape=RoundedRectangle|*
%AMROUNDEDRECTD116*
21,1,1.4532,0.5500,0,0,151.2*
21,1,0.7000,1.3032,0,0,151.2*
1,1,0.7532,-0.1742,0.4096*
1,1,0.7532,0.4392,0.0724*
1,1,0.7532,0.1742,-0.4096*
1,1,0.7532,-0.4392,-0.0724*
%
%ADD116ROUNDEDRECTD116*%
G04:AMPARAMS|DCode=117|XSize=1.4532mm|YSize=1.3032mm|CornerRadius=0mm|HoleSize=0mm|Usage=FLASHONLY|Rotation=151.200|XOffset=0mm|YOffset=0mm|HoleType=Round|Shape=Rectangle|*
%AMROTATEDRECTD117*
4,1,4,0.9506,0.2210,0.3228,-0.9210,-0.9506,-0.2210,-0.3228,0.9210,0.9506,0.2210,0.0*
%
%ADD117ROTATEDRECTD117*%

G04:AMPARAMS|DCode=118|XSize=1.4532mm|YSize=1.3032mm|CornerRadius=0.3766mm|HoleSize=0mm|Usage=FLASHONLY|Rotation=180.000|XOffset=0mm|YOffset=0mm|HoleType=Round|Shape=RoundedRectangle|*
%AMROUNDEDRECTD118*
21,1,1.4532,0.5500,0,0,180.0*
21,1,0.7000,1.3032,0,0,180.0*
1,1,0.7532,-0.3500,0.2750*
1,1,0.7532,0.3500,0.2750*
1,1,0.7532,0.3500,-0.2750*
1,1,0.7532,-0.3500,-0.2750*
%
%ADD118ROUNDEDRECTD118*%
%ADD119R,1.4532X1.3032*%
%ADD120R,1.0032X1.0032*%
%ADD121P,3.8936X4X224.709*%
G04:AMPARAMS|DCode=122|XSize=0.4532mm|YSize=1.0032mm|CornerRadius=0mm|HoleSize=0mm|Usage=FLASHONLY|Rotation=179.709|XOffset=0mm|YOffset=0mm|HoleType=Round|Shape=Rectangle|*
%AMROTATEDRECTD122*
4,1,4,0.2291,0.5004,0.2241,-0.5027,-0.2291,-0.5004,-0.2241,0.5027,0.2291,0.5004,0.0*
%
%ADD122ROTATEDRECTD122*%

G04:AMPARAMS|DCode=123|XSize=0.4532mm|YSize=1.0032mm|CornerRadius=0mm|HoleSize=0mm|Usage=FLASHONLY|Rotation=269.709|XOffset=0mm|YOffset=0mm|HoleType=Round|Shape=Rectangle|*
%AMROTATEDRECTD123*
4,1,4,-0.5004,0.2291,0.5027,0.2241,0.5004,-0.2291,-0.5027,-0.2241,-0.5004,0.2291,0.0*
%
%ADD123ROTATEDRECTD123*%

%ADD124C,2.2032*%
%ADD125C,1.2032*%
%ADD126C,0.8032*%
G36*
X44678Y25959D02*
X44808Y25933D01*
X44851Y25919D01*
X44934Y25891D01*
X44934Y25891D01*
X46772Y25129D01*
X46772Y25129D01*
X46891Y25071D01*
X47002Y24997D01*
X47102Y24909D01*
X48509Y23502D01*
X48509Y23502D01*
X48597Y23402D01*
X48671Y23291D01*
X48710Y23211D01*
X48730Y23172D01*
X48730Y23172D01*
X49491Y21334D01*
X49534Y21208D01*
X49559Y21077D01*
X49568Y20945D01*
Y19950D01*
Y-50D01*
X49559Y-183D01*
X49534Y-314D01*
X49491Y-440D01*
X49432Y-559D01*
X49358Y-670D01*
X49270Y-770D01*
X49170Y-858D01*
X49059Y-932D01*
X48940Y-991D01*
X48814Y-1033D01*
X48683Y-1059D01*
X48550Y-1068D01*
X38550D01*
X38417Y-1059D01*
X38286Y-1033D01*
X38160Y-991D01*
X38041Y-932D01*
X37930Y-858D01*
X37830Y-770D01*
X37742Y-670D01*
X37668Y-559D01*
X37609Y-440D01*
X37566Y-314D01*
X37541Y-183D01*
X37532Y-50D01*
Y19950D01*
Y20945D01*
X37541Y21077D01*
X37566Y21208D01*
X37609Y21334D01*
X38370Y23172D01*
X38370Y23172D01*
X38400Y23231D01*
X38429Y23291D01*
X38454Y23328D01*
X38503Y23402D01*
X38544Y23449D01*
X38591Y23502D01*
X38591Y23502D01*
X39998Y24909D01*
X39998Y24909D01*
X40098Y24997D01*
X40209Y25071D01*
X40289Y25110D01*
X40328Y25129D01*
X40328Y25129D01*
X42166Y25891D01*
X42292Y25933D01*
X42422Y25959D01*
X42555Y25968D01*
X44545D01*
D01*
X44545D01*
X44678Y25959D01*
D02*
G37*
G36*
X64678D02*
X64808Y25933D01*
X64851Y25919D01*
X64934Y25891D01*
X64934Y25891D01*
X66772Y25129D01*
X66772Y25129D01*
X66891Y25071D01*
X67002Y24997D01*
X67102Y24909D01*
X68509Y23502D01*
X68509Y23502D01*
X68597Y23402D01*
X68671Y23291D01*
X68710Y23211D01*
X68730Y23172D01*
X68730Y23172D01*
X69491Y21334D01*
X69534Y21208D01*
X69559Y21077D01*
X69568Y20945D01*
Y19950D01*
Y-50D01*
X69559Y-183D01*
X69534Y-314D01*
X69491Y-440D01*
X69432Y-559D01*
X69358Y-670D01*
X69270Y-770D01*
X69170Y-858D01*
X69059Y-932D01*
X68940Y-991D01*
X68814Y-1033D01*
X68683Y-1059D01*
X68550Y-1068D01*
X58550D01*
X58417Y-1059D01*
X58286Y-1033D01*
X58160Y-991D01*
X58041Y-932D01*
X57930Y-858D01*
X57830Y-770D01*
X57742Y-670D01*
X57668Y-559D01*
X57609Y-440D01*
X57566Y-314D01*
X57541Y-183D01*
X57532Y-50D01*
Y19950D01*
Y20945D01*
X57541Y21077D01*
X57566Y21208D01*
X57609Y21334D01*
X58370Y23172D01*
X58370Y23172D01*
X58400Y23231D01*
X58429Y23291D01*
X58454Y23328D01*
X58503Y23402D01*
X58545Y23449D01*
X58591Y23502D01*
X58591Y23502D01*
X59998Y24909D01*
X59998Y24909D01*
X60098Y24997D01*
X60209Y25071D01*
X60289Y25110D01*
X60328Y25129D01*
X60328Y25129D01*
X62166Y25891D01*
X62292Y25933D01*
X62423Y25959D01*
X62555Y25968D01*
X64545D01*
D01*
X64545D01*
X64678Y25959D01*
D02*
G37*
G36*
X-109873Y257010D02*
X-109742Y256984D01*
X-109616Y256941D01*
X-107778Y256180D01*
X-107778Y256180D01*
X-107739Y256160D01*
X-107659Y256121D01*
X-107548Y256047D01*
X-107448Y255959D01*
X-107448Y255959D01*
X-106041Y254552D01*
X-105953Y254452D01*
X-105879Y254341D01*
X-105821Y254222D01*
X-105821Y254222D01*
X-105059Y252384D01*
X-105059Y252384D01*
X-105031Y252301D01*
X-105016Y252258D01*
X-104991Y252127D01*
X-104982Y251995D01*
Y251995D01*
D01*
Y250005D01*
X-104991Y249873D01*
X-105016Y249742D01*
X-105059Y249616D01*
X-105821Y247778D01*
X-105821Y247778D01*
X-105840Y247739D01*
X-105879Y247659D01*
X-105953Y247548D01*
X-106041Y247448D01*
X-106041Y247448D01*
X-107448Y246041D01*
X-107448Y246041D01*
X-107501Y245994D01*
X-107548Y245954D01*
X-107622Y245904D01*
X-107659Y245879D01*
X-107719Y245850D01*
X-107778Y245821D01*
X-107778Y245821D01*
X-109616Y245059D01*
X-109742Y245017D01*
X-109873Y244991D01*
X-110005Y244982D01*
X-131000D01*
X-131133Y244991D01*
X-131264Y245017D01*
X-131390Y245059D01*
X-131509Y245118D01*
X-131620Y245192D01*
X-131720Y245280D01*
X-131808Y245380D01*
X-131882Y245491D01*
X-131941Y245610D01*
X-131983Y245737D01*
X-132009Y245867D01*
X-132018Y246000D01*
Y256000D01*
X-132009Y256133D01*
X-131983Y256264D01*
X-131941Y256390D01*
X-131882Y256509D01*
X-131808Y256620D01*
X-131720Y256720D01*
X-131620Y256808D01*
X-131509Y256882D01*
X-131390Y256941D01*
X-131264Y256984D01*
X-131133Y257010D01*
X-131000Y257018D01*
X-110005D01*
X-109873Y257010D01*
D02*
G37*
G36*
Y277010D02*
X-109742Y276984D01*
X-109616Y276941D01*
X-107778Y276180D01*
X-107778Y276180D01*
X-107739Y276160D01*
X-107659Y276121D01*
X-107548Y276047D01*
X-107448Y275959D01*
X-107448Y275959D01*
X-106041Y274552D01*
X-105953Y274452D01*
X-105879Y274341D01*
X-105821Y274222D01*
X-105821Y274222D01*
X-105059Y272384D01*
X-105059Y272384D01*
X-105031Y272301D01*
X-105016Y272258D01*
X-104991Y272127D01*
X-104982Y271995D01*
Y271995D01*
D01*
Y270005D01*
X-104991Y269873D01*
X-105016Y269742D01*
X-105059Y269616D01*
X-105821Y267778D01*
X-105821Y267778D01*
X-105840Y267739D01*
X-105879Y267659D01*
X-105953Y267548D01*
X-106041Y267448D01*
X-106041Y267448D01*
X-107448Y266042D01*
X-107448Y266041D01*
X-107501Y265994D01*
X-107548Y265954D01*
X-107622Y265904D01*
X-107659Y265879D01*
X-107719Y265850D01*
X-107778Y265821D01*
X-107778Y265821D01*
X-109616Y265059D01*
X-109742Y265017D01*
X-109873Y264991D01*
X-110005Y264982D01*
X-111000D01*
X-131000Y264982D01*
X-131133Y264991D01*
X-131264Y265017D01*
X-131390Y265059D01*
X-131509Y265118D01*
X-131620Y265192D01*
X-131720Y265280D01*
X-131808Y265380D01*
X-131882Y265491D01*
X-131941Y265610D01*
X-131983Y265737D01*
X-132009Y265867D01*
X-132018Y266000D01*
Y276000D01*
X-132009Y276133D01*
X-131983Y276264D01*
X-131941Y276390D01*
X-131882Y276509D01*
X-131808Y276620D01*
X-131720Y276720D01*
X-131620Y276808D01*
X-131509Y276882D01*
X-131390Y276941D01*
X-131264Y276984D01*
X-131133Y277010D01*
X-131000Y277018D01*
X-111000Y277018D01*
X-110005D01*
X-109873Y277010D01*
D02*
G37*
G36*
X84677Y25959D02*
X84808Y25933D01*
X84851Y25919D01*
X84934Y25891D01*
X84934Y25891D01*
X86772Y25129D01*
X86772Y25129D01*
X86891Y25071D01*
X87002Y24997D01*
X87102Y24909D01*
X88509Y23502D01*
X88509Y23502D01*
X88596Y23402D01*
X88671Y23291D01*
X88710Y23211D01*
X88729Y23172D01*
X88729Y23172D01*
X89491Y21334D01*
X89534Y21208D01*
X89559Y21077D01*
X89568Y20945D01*
Y19950D01*
Y-50D01*
X89559Y-183D01*
X89534Y-314D01*
X89491Y-440D01*
X89432Y-559D01*
X89358Y-670D01*
X89270Y-770D01*
X89170Y-858D01*
X89059Y-932D01*
X88940Y-991D01*
X88813Y-1033D01*
X88683Y-1059D01*
X88550Y-1068D01*
X78550D01*
X78417Y-1059D01*
X78286Y-1033D01*
X78160Y-991D01*
X78041Y-932D01*
X77930Y-858D01*
X77830Y-770D01*
X77742Y-670D01*
X77668Y-559D01*
X77609Y-440D01*
X77566Y-314D01*
X77540Y-183D01*
X77532Y-50D01*
Y19950D01*
Y20945D01*
X77540Y21077D01*
X77566Y21208D01*
X77609Y21334D01*
X78370Y23172D01*
X78370Y23172D01*
X78400Y23231D01*
X78429Y23291D01*
X78454Y23328D01*
X78503Y23402D01*
X78544Y23449D01*
X78591Y23502D01*
X78591Y23502D01*
X79998Y24909D01*
X79998Y24909D01*
X80098Y24997D01*
X80209Y25071D01*
X80289Y25110D01*
X80328Y25129D01*
X80328Y25129D01*
X82166Y25891D01*
X82292Y25933D01*
X82423Y25959D01*
X82555Y25968D01*
X84544D01*
D01*
X84545D01*
X84677Y25959D01*
D02*
G37*
G36*
X120878D02*
X121008Y25933D01*
X121051Y25919D01*
X121134Y25891D01*
X121134Y25891D01*
X122972Y25129D01*
X122972Y25129D01*
X123091Y25071D01*
X123202Y24997D01*
X123302Y24909D01*
X124709Y23502D01*
X124709Y23502D01*
X124796Y23402D01*
X124871Y23291D01*
X124910Y23211D01*
X124930Y23172D01*
X124930Y23172D01*
X125691Y21334D01*
X125733Y21208D01*
X125759Y21077D01*
X125768Y20945D01*
Y19950D01*
Y-50D01*
X125759Y-183D01*
X125733Y-314D01*
X125691Y-440D01*
X125632Y-559D01*
X125558Y-670D01*
X125470Y-770D01*
X125370Y-858D01*
X125259Y-932D01*
X125140Y-991D01*
X125014Y-1033D01*
X124883Y-1059D01*
X124750Y-1068D01*
X114750D01*
X114617Y-1059D01*
X114487Y-1033D01*
X114360Y-991D01*
X114241Y-932D01*
X114130Y-858D01*
X114030Y-770D01*
X113942Y-670D01*
X113868Y-559D01*
X113809Y-440D01*
X113766Y-314D01*
X113741Y-183D01*
X113732Y-50D01*
X113732Y19950D01*
Y20945D01*
X113741Y21077D01*
X113766Y21208D01*
X113809Y21334D01*
X114571Y23172D01*
X114571Y23172D01*
X114600Y23231D01*
X114629Y23291D01*
X114654Y23328D01*
X114703Y23402D01*
X114744Y23449D01*
X114791Y23502D01*
X114791Y23502D01*
X116198Y24909D01*
X116198Y24909D01*
X116298Y24997D01*
X116409Y25071D01*
X116489Y25110D01*
X116528Y25129D01*
X116528Y25129D01*
X118366Y25891D01*
X118492Y25933D01*
X118623Y25959D01*
X118755Y25968D01*
X120744D01*
D01*
X120745D01*
X120878Y25959D01*
D02*
G37*
G36*
X294433Y257010D02*
X294564Y256984D01*
X294690Y256941D01*
X294809Y256882D01*
X294920Y256808D01*
X295020Y256720D01*
X295108Y256620D01*
X295182Y256509D01*
X295241Y256390D01*
X295284Y256264D01*
X295310Y256133D01*
X295318Y256000D01*
Y246000D01*
X295310Y245867D01*
X295284Y245737D01*
X295241Y245610D01*
X295182Y245491D01*
X295108Y245380D01*
X295020Y245280D01*
X294920Y245192D01*
X294809Y245118D01*
X294690Y245059D01*
X294564Y245016D01*
X294433Y244991D01*
X294300Y244982D01*
X273305D01*
X273172Y244991D01*
X273042Y245016D01*
X272916Y245059D01*
X271078Y245821D01*
X271078Y245821D01*
X271019Y245850D01*
X270959Y245879D01*
X270922Y245904D01*
X270848Y245953D01*
X270801Y245994D01*
X270748Y246041D01*
X270748Y246041D01*
X269341Y247448D01*
X269341Y247448D01*
X269253Y247548D01*
X269179Y247659D01*
X269140Y247739D01*
X269121Y247778D01*
X269120Y247778D01*
X268359Y249616D01*
X268316Y249742D01*
X268291Y249873D01*
X268282Y250005D01*
Y251994D01*
X268291Y252127D01*
X268316Y252258D01*
X268359Y252384D01*
X269120Y254222D01*
X269121Y254222D01*
X269150Y254281D01*
X269179Y254341D01*
X269204Y254378D01*
X269253Y254452D01*
X269294Y254499D01*
X269341Y254552D01*
X269341Y254552D01*
X270748Y255959D01*
X270748Y255959D01*
X270848Y256047D01*
X270959Y256121D01*
X271039Y256160D01*
X271078Y256180D01*
X271078Y256180D01*
X272916Y256941D01*
X273042Y256984D01*
X273172Y257010D01*
X273305Y257018D01*
X294300D01*
X294433Y257010D01*
D02*
G37*
G36*
Y277010D02*
X294564Y276984D01*
X294690Y276941D01*
X294809Y276882D01*
X294920Y276808D01*
X295020Y276720D01*
X295108Y276620D01*
X295182Y276509D01*
X295241Y276390D01*
X295284Y276264D01*
X295310Y276133D01*
X295318Y276000D01*
Y266000D01*
X295310Y265867D01*
X295284Y265737D01*
X295241Y265610D01*
X295182Y265491D01*
X295108Y265380D01*
X295020Y265280D01*
X294920Y265192D01*
X294809Y265118D01*
X294690Y265059D01*
X294564Y265016D01*
X294433Y264991D01*
X294300Y264982D01*
X273305D01*
X273172Y264991D01*
X273042Y265016D01*
X272916Y265059D01*
X271078Y265821D01*
X271078Y265821D01*
X271019Y265850D01*
X270959Y265879D01*
X270922Y265904D01*
X270848Y265953D01*
X270801Y265994D01*
X270748Y266041D01*
X270748Y266041D01*
X269341Y267448D01*
X269341Y267448D01*
X269253Y267548D01*
X269179Y267659D01*
X269140Y267739D01*
X269121Y267778D01*
X269120Y267778D01*
X268359Y269616D01*
X268316Y269742D01*
X268291Y269873D01*
X268282Y270005D01*
Y271995D01*
X268291Y272127D01*
X268316Y272258D01*
X268359Y272384D01*
X269120Y274222D01*
X269121Y274222D01*
X269150Y274281D01*
X269179Y274341D01*
X269204Y274378D01*
X269253Y274452D01*
X269294Y274499D01*
X269341Y274552D01*
X269341Y274552D01*
X270748Y275959D01*
X270748Y275959D01*
X270848Y276047D01*
X270959Y276121D01*
X271039Y276160D01*
X271078Y276180D01*
X271078Y276180D01*
X272916Y276941D01*
X273042Y276984D01*
X273172Y277010D01*
X273305Y277018D01*
X294300D01*
X294433Y277010D01*
D02*
G37*
G36*
X-111000Y297018D02*
X-110005D01*
X-109873Y297010D01*
X-109742Y296984D01*
X-109616Y296941D01*
X-107778Y296180D01*
X-107778Y296180D01*
X-107739Y296160D01*
X-107659Y296121D01*
X-107548Y296047D01*
X-107448Y295959D01*
X-107448Y295959D01*
X-106041Y294552D01*
X-105953Y294452D01*
X-105879Y294341D01*
X-105821Y294222D01*
X-105821Y294222D01*
X-105059Y292384D01*
X-105059Y292384D01*
X-105031Y292301D01*
X-105016Y292258D01*
X-104991Y292127D01*
X-104982Y291995D01*
Y291994D01*
D01*
Y290005D01*
X-104991Y289872D01*
X-105016Y289742D01*
X-105059Y289616D01*
X-105821Y287778D01*
X-105821Y287778D01*
X-105840Y287739D01*
X-105879Y287659D01*
X-105953Y287548D01*
X-106041Y287448D01*
X-106041Y287448D01*
X-107448Y286041D01*
X-107448Y286041D01*
X-107501Y285994D01*
X-107548Y285953D01*
X-107622Y285904D01*
X-107659Y285879D01*
X-107719Y285850D01*
X-107778Y285821D01*
X-107778Y285821D01*
X-109616Y285059D01*
X-109742Y285016D01*
X-109873Y284991D01*
X-110005Y284982D01*
X-111000D01*
X-131000Y284982D01*
X-131133Y284991D01*
X-131264Y285017D01*
X-131390Y285059D01*
X-131509Y285118D01*
X-131620Y285192D01*
X-131720Y285280D01*
X-131808Y285380D01*
X-131882Y285491D01*
X-131941Y285610D01*
X-131983Y285737D01*
X-132009Y285867D01*
X-132018Y286000D01*
Y296000D01*
X-132009Y296133D01*
X-131983Y296264D01*
X-131941Y296390D01*
X-131882Y296509D01*
X-131808Y296620D01*
X-131720Y296720D01*
X-131620Y296808D01*
X-131509Y296882D01*
X-131390Y296941D01*
X-131264Y296984D01*
X-131133Y297010D01*
X-131000Y297018D01*
X-111000Y297018D01*
D02*
G37*
G36*
X-109873Y333209D02*
X-109742Y333184D01*
X-109616Y333141D01*
X-107778Y332380D01*
X-107778Y332379D01*
X-107739Y332360D01*
X-107659Y332321D01*
X-107548Y332247D01*
X-107448Y332159D01*
X-107448Y332159D01*
X-106041Y330752D01*
X-105953Y330652D01*
X-105879Y330541D01*
X-105821Y330422D01*
X-105821Y330422D01*
X-105059Y328584D01*
X-105059Y328584D01*
X-105031Y328501D01*
X-105016Y328458D01*
X-104991Y328327D01*
X-104982Y328195D01*
Y328195D01*
D01*
Y326205D01*
X-104991Y326073D01*
X-105016Y325942D01*
X-105059Y325816D01*
X-105821Y323978D01*
X-105821Y323978D01*
X-105840Y323939D01*
X-105879Y323859D01*
X-105953Y323748D01*
X-106041Y323648D01*
X-106041Y323648D01*
X-107448Y322242D01*
X-107448Y322241D01*
X-107501Y322195D01*
X-107548Y322154D01*
X-107622Y322104D01*
X-107659Y322080D01*
X-107719Y322050D01*
X-107778Y322021D01*
X-107778Y322020D01*
X-109616Y321259D01*
X-109742Y321217D01*
X-109873Y321191D01*
X-110005Y321182D01*
X-110999D01*
X-111000Y321182D01*
X-131000Y321182D01*
X-131133Y321190D01*
X-131264Y321217D01*
X-131390Y321259D01*
X-131509Y321318D01*
X-131620Y321392D01*
X-131720Y321480D01*
X-131808Y321580D01*
X-131882Y321691D01*
X-131941Y321810D01*
X-131983Y321936D01*
X-132009Y322067D01*
X-132018Y322200D01*
Y332200D01*
X-132009Y332333D01*
X-131983Y332463D01*
X-131941Y332590D01*
X-131882Y332709D01*
X-131808Y332820D01*
X-131720Y332920D01*
X-131620Y333008D01*
X-131509Y333082D01*
X-131390Y333141D01*
X-131264Y333184D01*
X-131133Y333209D01*
X-131000Y333218D01*
X-111000Y333218D01*
X-110005D01*
X-109873Y333209D01*
D02*
G37*
G36*
X48683Y503110D02*
X48814Y503083D01*
X48940Y503041D01*
X49059Y502982D01*
X49170Y502908D01*
X49270Y502820D01*
X49358Y502720D01*
X49432Y502609D01*
X49491Y502490D01*
X49534Y502364D01*
X49559Y502233D01*
X49568Y502100D01*
Y482100D01*
Y481105D01*
X49559Y480973D01*
X49534Y480842D01*
X49491Y480716D01*
X48730Y478878D01*
X48730Y478878D01*
X48710Y478839D01*
X48671Y478759D01*
X48597Y478648D01*
X48509Y478548D01*
X48509Y478548D01*
X47102Y477141D01*
X47102Y477141D01*
X47049Y477094D01*
X47002Y477053D01*
X46928Y477004D01*
X46891Y476979D01*
X46831Y476950D01*
X46772Y476921D01*
X46772Y476920D01*
X44934Y476159D01*
X44808Y476116D01*
X44677Y476091D01*
X44545Y476082D01*
X42555D01*
X42422Y476091D01*
X42292Y476116D01*
X42166Y476159D01*
X40328Y476920D01*
X40328Y476921D01*
X40289Y476940D01*
X40209Y476979D01*
X40098Y477053D01*
X39998Y477141D01*
X39998Y477141D01*
X38591Y478548D01*
X38591Y478548D01*
X38544Y478601D01*
X38503Y478648D01*
X38454Y478722D01*
X38429Y478759D01*
X38400Y478819D01*
X38370Y478878D01*
X38370Y478878D01*
X37609Y480716D01*
X37566Y480842D01*
X37541Y480973D01*
X37532Y481105D01*
Y482100D01*
Y502100D01*
X37541Y502233D01*
X37566Y502364D01*
X37609Y502490D01*
X37668Y502609D01*
X37742Y502720D01*
X37830Y502820D01*
X37930Y502908D01*
X38041Y502982D01*
X38160Y503041D01*
X38286Y503083D01*
X38417Y503110D01*
X38550Y503118D01*
X48550D01*
X48683Y503110D01*
D02*
G37*
G36*
X68683D02*
X68814Y503083D01*
X68940Y503041D01*
X69059Y502982D01*
X69170Y502908D01*
X69270Y502820D01*
X69358Y502720D01*
X69432Y502609D01*
X69491Y502490D01*
X69534Y502364D01*
X69559Y502233D01*
X69568Y502100D01*
Y482100D01*
Y481105D01*
X69559Y480973D01*
X69534Y480842D01*
X69491Y480716D01*
X68730Y478878D01*
X68730Y478878D01*
X68710Y478839D01*
X68671Y478759D01*
X68597Y478648D01*
X68509Y478548D01*
X68509Y478548D01*
X67102Y477141D01*
X67102Y477141D01*
X67049Y477094D01*
X67002Y477053D01*
X66928Y477004D01*
X66891Y476979D01*
X66831Y476950D01*
X66772Y476921D01*
X66772Y476920D01*
X64934Y476159D01*
X64808Y476116D01*
X64677Y476091D01*
X64545Y476082D01*
X62555D01*
X62423Y476091D01*
X62292Y476116D01*
X62166Y476159D01*
X60328Y476920D01*
X60328Y476921D01*
X60289Y476940D01*
X60209Y476979D01*
X60098Y477053D01*
X59998Y477141D01*
X59998Y477141D01*
X58591Y478548D01*
X58591Y478548D01*
X58545Y478601D01*
X58503Y478648D01*
X58454Y478722D01*
X58429Y478759D01*
X58400Y478819D01*
X58370Y478878D01*
X58370Y478878D01*
X57609Y480716D01*
X57566Y480842D01*
X57541Y480973D01*
X57532Y481105D01*
Y482100D01*
Y502100D01*
X57541Y502233D01*
X57566Y502364D01*
X57609Y502490D01*
X57668Y502609D01*
X57742Y502720D01*
X57830Y502820D01*
X57930Y502908D01*
X58041Y502982D01*
X58160Y503041D01*
X58286Y503083D01*
X58417Y503110D01*
X58550Y503118D01*
X68550D01*
X68683Y503110D01*
D02*
G37*
G36*
X294433Y297010D02*
X294564Y296984D01*
X294690Y296941D01*
X294809Y296882D01*
X294920Y296808D01*
X295020Y296720D01*
X295108Y296620D01*
X295182Y296509D01*
X295241Y296390D01*
X295284Y296264D01*
X295310Y296133D01*
X295318Y296000D01*
Y286000D01*
X295310Y285867D01*
X295284Y285737D01*
X295241Y285610D01*
X295182Y285491D01*
X295108Y285380D01*
X295020Y285280D01*
X294920Y285192D01*
X294809Y285118D01*
X294690Y285059D01*
X294564Y285016D01*
X294433Y284991D01*
X294300Y284982D01*
X273305D01*
X273172Y284991D01*
X273042Y285016D01*
X272916Y285059D01*
X271078Y285821D01*
X271078Y285821D01*
X271019Y285850D01*
X270959Y285879D01*
X270922Y285904D01*
X270848Y285953D01*
X270801Y285994D01*
X270748Y286041D01*
X270748Y286041D01*
X269341Y287448D01*
X269341Y287448D01*
X269253Y287548D01*
X269179Y287659D01*
X269140Y287739D01*
X269121Y287778D01*
X269120Y287778D01*
X268359Y289616D01*
X268316Y289742D01*
X268291Y289872D01*
X268282Y290005D01*
Y291994D01*
X268291Y292127D01*
X268316Y292258D01*
X268359Y292384D01*
X269120Y294222D01*
X269121Y294222D01*
X269150Y294281D01*
X269179Y294341D01*
X269204Y294378D01*
X269253Y294452D01*
X269294Y294499D01*
X269341Y294552D01*
X269341Y294552D01*
X270748Y295959D01*
X270748Y295959D01*
X270848Y296047D01*
X270959Y296121D01*
X271039Y296160D01*
X271078Y296180D01*
X271078Y296180D01*
X272916Y296941D01*
X273042Y296984D01*
X273172Y297010D01*
X273305Y297018D01*
X294300D01*
X294433Y297010D01*
D02*
G37*
G36*
Y333209D02*
X294564Y333184D01*
X294690Y333141D01*
X294809Y333082D01*
X294920Y333008D01*
X295020Y332920D01*
X295108Y332820D01*
X295182Y332709D01*
X295241Y332590D01*
X295284Y332463D01*
X295310Y332333D01*
X295318Y332200D01*
Y322200D01*
X295310Y322067D01*
X295284Y321936D01*
X295241Y321810D01*
X295182Y321691D01*
X295108Y321580D01*
X295020Y321480D01*
X294920Y321392D01*
X294809Y321318D01*
X294690Y321259D01*
X294564Y321217D01*
X294433Y321190D01*
X294300Y321182D01*
X273305D01*
X273172Y321190D01*
X273042Y321217D01*
X272916Y321259D01*
X271078Y322020D01*
X271078Y322020D01*
X271019Y322050D01*
X270959Y322079D01*
X270922Y322104D01*
X270848Y322153D01*
X270801Y322195D01*
X270748Y322241D01*
X270748Y322241D01*
X269341Y323648D01*
X269341Y323648D01*
X269253Y323748D01*
X269179Y323859D01*
X269140Y323939D01*
X269121Y323978D01*
X269120Y323978D01*
X268359Y325816D01*
X268316Y325942D01*
X268291Y326073D01*
X268282Y326205D01*
Y328195D01*
X268291Y328327D01*
X268316Y328458D01*
X268359Y328584D01*
X269120Y330422D01*
X269121Y330422D01*
X269150Y330481D01*
X269179Y330541D01*
X269204Y330578D01*
X269253Y330652D01*
X269294Y330699D01*
X269341Y330752D01*
X269341Y330752D01*
X270748Y332159D01*
X270748Y332159D01*
X270848Y332247D01*
X270959Y332321D01*
X271039Y332360D01*
X271078Y332379D01*
X271078Y332379D01*
X272916Y333141D01*
X273042Y333184D01*
X273172Y333209D01*
X273305Y333218D01*
X294300D01*
X294433Y333209D01*
D02*
G37*
G36*
X88683Y503110D02*
X88813Y503083D01*
X88940Y503041D01*
X89059Y502982D01*
X89170Y502908D01*
X89270Y502820D01*
X89358Y502720D01*
X89432Y502609D01*
X89491Y502490D01*
X89534Y502364D01*
X89559Y502233D01*
X89568Y502100D01*
Y482100D01*
Y481105D01*
X89559Y480973D01*
X89534Y480842D01*
X89491Y480716D01*
X88729Y478878D01*
X88729Y478878D01*
X88710Y478839D01*
X88671Y478759D01*
X88596Y478648D01*
X88509Y478548D01*
X88509Y478548D01*
X87102Y477141D01*
X87102Y477141D01*
X87049Y477094D01*
X87002Y477053D01*
X86928Y477004D01*
X86891Y476979D01*
X86831Y476950D01*
X86772Y476921D01*
X86772Y476920D01*
X84934Y476159D01*
X84808Y476116D01*
X84677Y476091D01*
X84544Y476082D01*
X82555D01*
X82423Y476091D01*
X82292Y476116D01*
X82166Y476159D01*
X80328Y476920D01*
X80328Y476921D01*
X80289Y476940D01*
X80209Y476979D01*
X80098Y477053D01*
X79998Y477141D01*
X79998Y477141D01*
X78591Y478548D01*
X78591Y478548D01*
X78544Y478601D01*
X78503Y478648D01*
X78454Y478722D01*
X78429Y478759D01*
X78400Y478819D01*
X78370Y478878D01*
X78370Y478878D01*
X77609Y480716D01*
X77566Y480842D01*
X77540Y480973D01*
X77532Y481105D01*
Y482100D01*
Y502100D01*
X77540Y502233D01*
X77566Y502364D01*
X77609Y502490D01*
X77668Y502609D01*
X77742Y502720D01*
X77830Y502820D01*
X77930Y502908D01*
X78041Y502982D01*
X78160Y503041D01*
X78286Y503083D01*
X78417Y503110D01*
X78550Y503118D01*
X88550D01*
X88683Y503110D01*
D02*
G37*
G36*
X124883D02*
X125014Y503083D01*
X125140Y503041D01*
X125259Y502982D01*
X125370Y502908D01*
X125470Y502820D01*
X125558Y502720D01*
X125632Y502609D01*
X125691Y502490D01*
X125733Y502364D01*
X125759Y502233D01*
X125768Y502100D01*
Y482100D01*
Y481105D01*
X125759Y480973D01*
X125733Y480842D01*
X125691Y480716D01*
X124930Y478878D01*
X124930Y478878D01*
X124910Y478839D01*
X124871Y478759D01*
X124796Y478648D01*
X124709Y478548D01*
X124709Y478548D01*
X123302Y477141D01*
X123302Y477141D01*
X123249Y477094D01*
X123202Y477053D01*
X123128Y477004D01*
X123091Y476979D01*
X123031Y476950D01*
X122972Y476921D01*
X122972Y476920D01*
X121134Y476159D01*
X121008Y476116D01*
X120877Y476091D01*
X120744Y476082D01*
X118755D01*
X118623Y476091D01*
X118492Y476116D01*
X118366Y476159D01*
X116528Y476920D01*
X116528Y476921D01*
X116489Y476940D01*
X116409Y476979D01*
X116298Y477053D01*
X116198Y477141D01*
X116198Y477141D01*
X114791Y478548D01*
X114791Y478548D01*
X114744Y478601D01*
X114703Y478648D01*
X114654Y478722D01*
X114629Y478759D01*
X114600Y478819D01*
X114571Y478878D01*
X114571Y478878D01*
X113809Y480716D01*
X113766Y480842D01*
X113741Y480973D01*
X113732Y481105D01*
Y482100D01*
Y502100D01*
X113741Y502233D01*
X113766Y502364D01*
X113809Y502490D01*
X113868Y502609D01*
X113942Y502720D01*
X114030Y502820D01*
X114130Y502908D01*
X114241Y502982D01*
X114360Y503041D01*
X114487Y503083D01*
X114617Y503110D01*
X114750Y503118D01*
X124750D01*
X124883Y503110D01*
D02*
G37*
D70*
X91086Y146574D02*
D03*
D71*
X92562Y123120D02*
D03*
D72*
X220841Y253916D02*
D03*
D73*
X243602Y248072D02*
D03*
D74*
X-60029Y307495D02*
D03*
D75*
X-83344Y310441D02*
D03*
D76*
X243602Y331010D02*
D03*
D77*
X220841Y325166D02*
D03*
D78*
X228215Y369874D02*
D03*
D79*
X207622Y358552D02*
D03*
D80*
X203647Y403689D02*
D03*
D81*
X186516Y387603D02*
D03*
D82*
X171440Y430333D02*
D03*
D83*
X158848Y410491D02*
D03*
D84*
X133620Y448130D02*
D03*
D85*
X126358Y425780D02*
D03*
D86*
X92562Y455962D02*
D03*
D87*
X91086Y432509D02*
D03*
D88*
X50845Y453338D02*
D03*
D89*
X55249Y430254D02*
D03*
D90*
X11092Y440421D02*
D03*
D91*
X21098Y419158D02*
D03*
D92*
X-24199Y418024D02*
D03*
D93*
X-9220Y399917D02*
D03*
D94*
X-52812Y387554D02*
D03*
D95*
X-33800Y373741D02*
D03*
D96*
X-72949Y350926D02*
D03*
D97*
X-51099Y342275D02*
D03*
D98*
X-83344Y268642D02*
D03*
D99*
X-60029Y271587D02*
D03*
D100*
X-72949Y228156D02*
D03*
D101*
X-51099Y236807D02*
D03*
D102*
X-52812Y191528D02*
D03*
D103*
X-33800Y205341D02*
D03*
D104*
X-24199Y161058D02*
D03*
D105*
X-9220Y179165D02*
D03*
D106*
X11092Y138661D02*
D03*
D107*
X21098Y159925D02*
D03*
D108*
X50845Y125745D02*
D03*
D109*
X55249Y148828D02*
D03*
D110*
X133620Y130953D02*
D03*
D111*
X126358Y153302D02*
D03*
D112*
X171440Y148750D02*
D03*
D113*
X158848Y168591D02*
D03*
D114*
X203647Y175393D02*
D03*
D115*
X186516Y191480D02*
D03*
D116*
X228215Y209209D02*
D03*
D117*
X207622Y220530D02*
D03*
D118*
X248841Y289541D02*
D03*
D119*
X225341D02*
D03*
D120*
X154248Y296388D02*
D03*
X139248D02*
D03*
X154248Y312388D02*
D03*
X139248D02*
D03*
D121*
X161650Y261100D02*
D03*
D122*
X174247Y280286D02*
D03*
X169248Y280312D02*
D03*
X164248Y280337D02*
D03*
X164052Y241838D02*
D03*
X169052Y241812D02*
D03*
X174052Y241787D02*
D03*
X154248Y280388D02*
D03*
X149248Y280413D02*
D03*
X149052Y241914D02*
D03*
X154052Y241888D02*
D03*
X159248Y280362D02*
D03*
X159052Y241863D02*
D03*
D123*
X180438Y268505D02*
D03*
X180463Y273505D02*
D03*
X142964Y273695D02*
D03*
X142938Y268695D02*
D03*
X180336Y248505D02*
D03*
X180362Y253505D02*
D03*
X180387Y258505D02*
D03*
X142887Y258695D02*
D03*
X142862Y253695D02*
D03*
X142837Y248695D02*
D03*
X180412Y263505D02*
D03*
X142913Y263695D02*
D03*
D124*
X149750Y487100D02*
D03*
X13550D02*
D03*
X-116000Y221000D02*
D03*
Y357200D02*
D03*
X13550Y14950D02*
D03*
X149750D02*
D03*
X279300Y221000D02*
D03*
Y357200D02*
D03*
X107394Y94462D02*
D03*
X31650Y59100D02*
D03*
X81650D02*
D03*
X131650D02*
D03*
D125*
X43550Y502100D02*
D03*
X83550D02*
D03*
X119750D02*
D03*
X63550D02*
D03*
X-131000Y271000D02*
D03*
Y327200D02*
D03*
Y291000D02*
D03*
Y251000D02*
D03*
X63550Y-50D02*
D03*
X119750D02*
D03*
X83550D02*
D03*
X43550D02*
D03*
X294300Y271000D02*
D03*
Y327200D02*
D03*
Y291000D02*
D03*
Y251000D02*
D03*
D126*
X167178Y266572D02*
D03*
X156178Y266628D02*
D03*
X156122Y255628D02*
D03*
X167122Y255572D02*
D03*
M02*
