M48
;Layer_Color=9474304
;FILE_FORMAT=4:4
METRIC,LZ
;TYPE=PLATED
T01F00S00C0.3000
T02F00S00C1.0000
T03F00S00C1.1000
T04F00S00C2.0000
%
T01
X0003165Y001191
X0007165Y001141
Y001441
X0006965Y001691
X00083707Y0017851
X00067101Y00210958
X00041642Y00203583
X00011975Y00204785
X00021656Y00265613
X0004164Y00260152
X00002722Y00279515
X-000266Y002546
X-000627Y002451
X-00080766Y00243093
X0009965Y00235933
X0009165Y002231
X00146418Y00223393
X00164499Y0022064
X00172248Y00228388
X00180482Y00232861
X00192645Y0023924
X0019165Y002531
X00167122Y00255572
X00167178Y00266572
X00156178Y00266628
X00156122Y00255628
X00140248Y00280388
X00132248
X00148248Y00202388
X00142321Y00189881
X00222147Y00231101
X00222482Y00239339
X0025565Y002351
X00258678Y0027142
X00244746Y00302009
X00234171Y00311773
X00248248Y00348388
X0018765Y003371
X00176127Y00320447
X00176686Y00304388
X00163708Y00306388
X00186248Y00294388
X00162248Y00344388
X00140409Y00344305
X00132248Y00330824
X00130248Y00312388
X00115504Y00321108
X0011692Y00344422
X00097542Y00337094
X00040659Y00339624
X0004164Y0031893
X00048029Y00361927
X0006429Y00382858
X00088998Y00399324
X000798Y004123
X000703Y004199
Y00442497
X000798Y004446
X-00012846Y00330056
X-0000608Y003031
X-00019605Y00295018
X-00057428Y00290676
X-0008646Y00290606
X-00105845Y00374777
T02
X002943Y00251
Y00271
X0011975Y-0000005
X0008355
X0006355
X0004355
X-00131Y00251
Y00271
Y00291
Y003272
X0004355Y005021
X0006355
X0008355
X0011975
X002943Y003272
Y00291
T03
X0003165Y000591
X0008165
X0013165
X00107394Y00094462
T04
X002793Y00221
X0014975Y0001495
X0001355
X-00116Y00221
Y003572
X0001355Y004871
X0014975
X002793Y003572
M30
