G04*
G04 #@! TF.GenerationSoftware,Altium Limited,Altium Designer,23.8.1 (32)*
G04*
G04 Layer_Color=128*
%FSLAX44Y44*%
%MOMM*%
G71*
G04*
G04 #@! TF.SameCoordinates,1253C11B-B4F6-43D5-8584-102BFB41548A*
G04*
G04*
G04 #@! TF.FilePolarity,Positive*
G04*
G01*
G75*
G36*
X46382Y24189D02*
X47789Y22782D01*
X48550Y20945D01*
Y19950D01*
Y-50D01*
X38550D01*
Y19950D01*
Y20945D01*
X39311Y22782D01*
X40718Y24189D01*
X42555Y24950D01*
X44545D01*
X46382Y24189D01*
D02*
G37*
G36*
X66382D02*
X67789Y22782D01*
X68550Y20945D01*
Y19950D01*
Y-50D01*
X58550D01*
Y19950D01*
Y20945D01*
X59311Y22782D01*
X60718Y24189D01*
X62555Y24950D01*
X64545D01*
X66382Y24189D01*
D02*
G37*
G36*
X-108168Y255239D02*
X-106761Y253832D01*
X-106000Y251995D01*
Y250005D01*
X-106761Y248168D01*
X-108168Y246761D01*
X-110005Y246000D01*
X-131000D01*
Y256000D01*
X-110005D01*
X-108168Y255239D01*
D02*
G37*
G36*
Y275239D02*
X-106761Y273832D01*
X-106000Y271995D01*
Y270005D01*
X-106761Y268168D01*
X-108168Y266761D01*
X-110005Y266000D01*
X-111000D01*
X-131000Y266000D01*
Y276000D01*
X-111000Y276000D01*
X-110005D01*
X-108168Y275239D01*
D02*
G37*
G36*
X86382Y24189D02*
X87789Y22782D01*
X88550Y20945D01*
Y19950D01*
Y-50D01*
X78550D01*
Y19950D01*
Y20945D01*
X79311Y22782D01*
X80718Y24189D01*
X82555Y24950D01*
X84544D01*
X86382Y24189D01*
D02*
G37*
G36*
X122582D02*
X123989Y22782D01*
X124750Y20945D01*
Y19950D01*
Y-50D01*
X114750D01*
X114750Y19950D01*
Y20945D01*
X115511Y22782D01*
X116918Y24189D01*
X118755Y24950D01*
X120744D01*
X122582Y24189D01*
D02*
G37*
G36*
X294300Y246000D02*
X273305D01*
X271468Y246761D01*
X270061Y248168D01*
X269300Y250005D01*
Y251994D01*
X270061Y253832D01*
X271468Y255239D01*
X273305Y256000D01*
X294300D01*
Y246000D01*
D02*
G37*
G36*
Y266000D02*
X273305D01*
X271468Y266761D01*
X270061Y268168D01*
X269300Y270005D01*
Y271995D01*
X270061Y273832D01*
X271468Y275239D01*
X273305Y276000D01*
X294300D01*
Y266000D01*
D02*
G37*
G36*
X-111000Y296000D02*
X-110005D01*
X-108168Y295239D01*
X-106761Y293832D01*
X-106000Y291994D01*
Y290005D01*
X-106761Y288168D01*
X-108168Y286761D01*
X-110005Y286000D01*
X-111000D01*
X-131000Y286000D01*
Y296000D01*
X-111000Y296000D01*
D02*
G37*
G36*
X-108168Y331439D02*
X-106761Y330032D01*
X-106000Y328195D01*
Y326205D01*
X-106761Y324368D01*
X-108168Y322961D01*
X-110005Y322200D01*
X-111000D01*
Y322200D01*
X-131000Y322200D01*
Y332200D01*
X-111000Y332200D01*
X-110005D01*
X-108168Y331439D01*
D02*
G37*
G36*
X48550Y482100D02*
Y481105D01*
X47789Y479268D01*
X46382Y477861D01*
X44545Y477100D01*
X42555D01*
X40718Y477861D01*
X39311Y479268D01*
X38550Y481105D01*
Y482100D01*
Y502100D01*
X48550D01*
Y482100D01*
D02*
G37*
G36*
X68550D02*
Y481105D01*
X67789Y479268D01*
X66382Y477861D01*
X64545Y477100D01*
X62555D01*
X60718Y477861D01*
X59311Y479268D01*
X58550Y481105D01*
Y482100D01*
Y502100D01*
X68550D01*
Y482100D01*
D02*
G37*
G36*
X294300Y286000D02*
X273305D01*
X271468Y286761D01*
X270061Y288168D01*
X269300Y290005D01*
Y291994D01*
X270061Y293832D01*
X271468Y295239D01*
X273305Y296000D01*
X294300D01*
Y286000D01*
D02*
G37*
G36*
Y322200D02*
X273305D01*
X271468Y322961D01*
X270061Y324368D01*
X269300Y326205D01*
Y328195D01*
X270061Y330032D01*
X271468Y331439D01*
X273305Y332200D01*
X294300D01*
Y322200D01*
D02*
G37*
G36*
X88550Y482100D02*
Y481105D01*
X87789Y479268D01*
X86382Y477861D01*
X84544Y477100D01*
X82555D01*
X80718Y477861D01*
X79311Y479268D01*
X78550Y481105D01*
Y482100D01*
Y502100D01*
X88550D01*
Y482100D01*
D02*
G37*
G36*
X124750D02*
Y481105D01*
X123989Y479268D01*
X122582Y477861D01*
X120744Y477100D01*
X118755D01*
X116918Y477861D01*
X115511Y479268D01*
X114750Y481105D01*
Y482100D01*
Y502100D01*
X124750D01*
Y482100D01*
D02*
G37*
M02*
