G04*
G04 #@! TF.GenerationSoftware,Altium Limited,Altium Designer,23.8.1 (32)*
G04*
G04 Layer_Color=16711935*
%FSLAX44Y44*%
%MOMM*%
G71*
G04*
G04 #@! TF.SameCoordinates,569DF6A4-0AC1-4917-97B5-21C436C54E36*
G04*
G04*
G04 #@! TF.FilePolarity,Positive*
G04*
G01*
G75*
%ADD12C,0.2000*%
D12*
X35355Y0D02*
G03*
X35355Y0I-35355J0D01*
G01*
X157649Y98510D02*
G03*
X98353Y157748I-157649J-98510D01*
G01*
X98510Y183000D02*
G03*
X68510Y213000I-30000J0D01*
G01*
X-68510Y213000D02*
G03*
X-98510Y183000I0J-30000D01*
G01*
X-98466Y157677D02*
G03*
X-157649Y98510I98466J-157677D01*
G01*
X77000Y-289150D02*
G03*
X82000Y-284150I0J5000D01*
G01*
X-82000D02*
G03*
X-77000Y-289150I5000J0D01*
G01*
X82331Y-166671D02*
G03*
X157649Y-98510I-82331J166671D01*
G01*
X-157649D02*
G03*
X-82331Y-166671I157649J98510D01*
G01*
X-212649Y-68510D02*
G03*
X-182649Y-98510I30000J0D01*
G01*
X-182649Y98510D02*
G03*
X-212649Y68510I0J-30000D01*
G01*
X212649Y68510D02*
G03*
X182649Y98510I-30000J0D01*
G01*
Y-98510D02*
G03*
X212649Y-68510I0J30000D01*
G01*
X98386Y182875D02*
X98510Y183000D01*
X98353Y157748D02*
X98386Y157780D01*
Y182875D01*
X-98510Y183000D02*
X-98510Y157748D01*
X-68510Y213000D02*
X68510D01*
X-212649Y-68510D02*
Y68510D01*
X-82000Y-284150D02*
Y-172000D01*
X-77000Y-289150D02*
X77000D01*
X82000Y-284150D02*
Y-171049D01*
X-82000Y-172000D02*
Y-167002D01*
X82000Y-171049D02*
Y-167002D01*
X157649Y98510D02*
X182649D01*
X212649Y-68510D02*
Y68510D01*
X157649Y-98510D02*
X182649D01*
X-182649Y98510D02*
X-157649D01*
X-182649Y-98510D02*
X-157649D01*
M02*
