G04*
G04 #@! TF.GenerationSoftware,Altium Limited,Altium Designer,23.8.1 (32)*
G04*
G04 Layer_Color=65535*
%FSLAX44Y44*%
%MOMM*%
G71*
G04*
G04 #@! TF.SameCoordinates,569DF6A4-0AC1-4917-97B5-21C436C54E36*
G04*
G04*
G04 #@! TF.FilePolarity,Positive*
G04*
G01*
G75*
%ADD10C,0.2500*%
%ADD11C,0.1000*%
%ADD12C,0.2000*%
%ADD13C,0.1800*%
%ADD14C,0.2540*%
%ADD15C,0.3000*%
D10*
X109250Y-48500D02*
G03*
X109250Y-48500I-1250J0D01*
G01*
D11*
X-44600Y193000D02*
G03*
X-31600Y193000I6500J0D01*
G01*
X31600D02*
G03*
X44600Y193000I6500J0D01*
G01*
X-24600D02*
G03*
X-11600Y193000I6500J0D01*
G01*
X-4600D02*
G03*
X8400Y193000I6500J0D01*
G01*
X-31600Y-269150D02*
G03*
X-44600Y-269150I-6500J0D01*
G01*
X44600D02*
G03*
X31600Y-269150I-6500J0D01*
G01*
X-11600D02*
G03*
X-24600Y-269150I-6500J0D01*
G01*
X8400D02*
G03*
X-4600Y-269150I-6500J0D01*
G01*
X192650Y-31600D02*
G03*
X192650Y-44600I0J-6500D01*
G01*
Y44600D02*
G03*
X192650Y31600I0J-6500D01*
G01*
Y-11600D02*
G03*
X192650Y-24600I0J-6500D01*
G01*
Y8400D02*
G03*
X192650Y-4600I0J-6500D01*
G01*
X-192650Y-4600D02*
G03*
X-192650Y8400I0J6500D01*
G01*
Y-24600D02*
G03*
X-192650Y-11600I0J6500D01*
G01*
Y31600D02*
G03*
X-192650Y44600I0J6500D01*
G01*
Y-44600D02*
G03*
X-192650Y-31600I0J6500D01*
G01*
X-31600Y193000D02*
X-31600Y213000D01*
X-44600Y193000D02*
Y213000D01*
X44600Y193000D02*
Y213000D01*
X-11600Y193000D02*
Y213000D01*
X-24600Y193000D02*
Y213000D01*
X8400Y193000D02*
Y213000D01*
X-4600Y193000D02*
Y213000D01*
X31600Y193000D02*
Y213000D01*
X-31600Y-269150D02*
X-31600Y-289150D01*
X-44600D02*
Y-269150D01*
X44600Y-289150D02*
Y-269150D01*
X-11600Y-289150D02*
Y-269150D01*
X-24600Y-289150D02*
Y-269150D01*
X8400Y-289150D02*
Y-269150D01*
X-4600Y-289150D02*
Y-269150D01*
X31600Y-289150D02*
Y-269150D01*
X192650Y-31600D02*
X212650D01*
X192650Y-44600D02*
X212650D01*
X192650Y44600D02*
X212650D01*
X192650Y-11600D02*
X212650D01*
X192650Y-24600D02*
X212650D01*
X192650Y8400D02*
X212650D01*
X192650Y-4600D02*
X212650D01*
X192650Y31600D02*
X212650D01*
X-212650Y31600D02*
X-192650D01*
X-212650Y-4600D02*
X-192650D01*
X-212650Y8400D02*
X-192650D01*
X-212650Y-24600D02*
X-192650D01*
X-212650Y-11600D02*
X-192650D01*
X-212650Y44600D02*
X-192650D01*
X-212650Y-44600D02*
X-192650D01*
X-212650Y-31600D02*
X-192650D01*
D12*
X36209Y0D02*
G03*
X36209Y0I-36209J0D01*
G01*
X101500Y-10250D02*
Y-6000D01*
Y-50000D02*
Y-45750D01*
X97750Y-50000D02*
X101500D01*
X58500D02*
X62250D01*
X58500Y-10250D02*
Y-6000D01*
X62250Y-6000D01*
X97750D02*
X101500Y-6000D01*
X58500Y-50000D02*
Y-45750D01*
X-50000Y175500D02*
Y210500D01*
X50000Y180500D02*
Y210500D01*
Y175500D02*
Y180500D01*
X-50000Y-286650D02*
Y-251650D01*
X50000Y-286650D02*
Y-256650D01*
Y-251650D01*
X175150Y-50000D02*
X210150D01*
X180150Y50000D02*
X210150D01*
X175150D02*
X180150D01*
X-180150Y50000D02*
X-175150D01*
X-210150D02*
X-180150D01*
X-210150Y-50000D02*
X-175150D01*
X33335Y-40002D02*
Y-48332D01*
X35002Y-49998D01*
X38334D01*
X40000Y-48332D01*
Y-40002D01*
X43332Y-49998D02*
X46665D01*
X44998D01*
Y-40002D01*
X43332Y-41668D01*
X-40963Y-110874D02*
Y-120871D01*
X-35964D01*
X-34298Y-119205D01*
Y-112540D01*
X-35964Y-110874D01*
X-40963D01*
X-30966Y-112540D02*
X-29300Y-110874D01*
X-25968D01*
X-24302Y-112540D01*
Y-114206D01*
X-25968Y-115872D01*
X-24302Y-117539D01*
Y-119205D01*
X-25968Y-120871D01*
X-29300D01*
X-30966Y-119205D01*
Y-117539D01*
X-29300Y-115872D01*
X-30966Y-114206D01*
Y-112540D01*
X-29300Y-115872D02*
X-25968D01*
X-78566Y177998D02*
X-81898D01*
X-80232D01*
Y169668D01*
X-81898Y168002D01*
X-83565D01*
X-85231Y169668D01*
X-75234Y177998D02*
X-68569D01*
Y176332D01*
X-75234Y169668D01*
Y168002D01*
X177650Y88098D02*
X174318D01*
X175984D01*
Y79768D01*
X174318Y78102D01*
X172652D01*
X170986Y79768D01*
X180982Y78102D02*
X184314D01*
X182648D01*
Y88098D01*
X180982Y86432D01*
X-69871Y-249955D02*
X-73203D01*
X-71537D01*
Y-258285D01*
X-73203Y-259951D01*
X-74869D01*
X-76535Y-258285D01*
X-59874Y-249955D02*
X-63206Y-251621D01*
X-66538Y-254953D01*
Y-258285D01*
X-64872Y-259951D01*
X-61540D01*
X-59874Y-258285D01*
Y-256619D01*
X-61540Y-254953D01*
X-66538D01*
X-174316Y81898D02*
X-177648D01*
X-175982D01*
Y73568D01*
X-177648Y71902D01*
X-179314D01*
X-180981Y73568D01*
X-170984Y80232D02*
X-169318Y81898D01*
X-165986D01*
X-164319Y80232D01*
Y78566D01*
X-165986Y76900D01*
X-167652D01*
X-165986D01*
X-164319Y75234D01*
Y73568D01*
X-165986Y71902D01*
X-169318D01*
X-170984Y73568D01*
X55684Y-173102D02*
X52352D01*
X54018D01*
Y-181432D01*
X52352Y-183098D01*
X50686D01*
X49019Y-181432D01*
X65681Y-173102D02*
X59016D01*
Y-178100D01*
X62348Y-176434D01*
X64015D01*
X65681Y-178100D01*
Y-181432D01*
X64015Y-183098D01*
X60682D01*
X59016Y-181432D01*
X55684Y-193102D02*
X52352D01*
X54018D01*
Y-201432D01*
X52352Y-203098D01*
X50686D01*
X49019Y-201432D01*
X64015Y-203098D02*
Y-193102D01*
X59016Y-198100D01*
X65681D01*
X89431Y26620D02*
X87765Y28286D01*
X84433D01*
X82767Y26620D01*
Y19956D01*
X84433Y18290D01*
X87765D01*
X89431Y19956D01*
X99428Y18290D02*
X92764D01*
X99428Y24954D01*
Y26620D01*
X97762Y28286D01*
X94430D01*
X92764Y26620D01*
X91098Y10620D02*
X89432Y12286D01*
X86099D01*
X84433Y10620D01*
Y3956D01*
X86099Y2289D01*
X89432D01*
X91098Y3956D01*
X94430Y2289D02*
X97762D01*
X96096D01*
Y12286D01*
X94430Y10620D01*
D13*
X-33161Y-129209D02*
X-25280Y-130579D01*
X-17398Y-131948D01*
X-90942Y-97379D02*
X-84777Y-102478D01*
X-78613Y-107578D01*
X41099Y126490D02*
X48708Y124018D01*
X33491Y128963D02*
X41099Y126490D01*
X64510Y-116582D02*
X71265Y-112296D01*
X78020Y-108009D01*
X91476Y-96876D02*
X96953Y-91045D01*
X102429Y-85213D01*
X112695Y-71084D02*
X116549Y-64073D01*
X120403Y-57063D01*
X126832Y-40824D02*
X128821Y-33076D01*
X130811Y-25327D01*
X133012Y10D02*
X133013Y-7990D01*
X133010Y8009D02*
X133012Y10D01*
X-65296Y-116863D02*
X-57857Y-119808D01*
X-50419Y-122753D01*
X367Y-133239D02*
X8351Y-132737D01*
X16336Y-132235D01*
X33491Y-128963D02*
X41099Y-126490D01*
X48708Y-124018D01*
X-123660Y48961D02*
X-120716Y56399D01*
X-126606Y41522D02*
X-123660Y48961D01*
X-131951Y16669D02*
X-130949Y24606D01*
X-132954Y8732D02*
X-131951Y16669D01*
X-132954Y-8732D02*
X-131951Y-16669D01*
X-130948Y-24606D01*
X-129709Y-38670D02*
X-125479Y-45460D01*
X-121250Y-52251D01*
X-112019Y-71550D02*
X-107339Y-78039D01*
X-102659Y-84527D01*
X8351Y132738D02*
X16335Y132235D01*
X367Y133240D02*
X8351Y132738D01*
X-24922Y130644D02*
X-17063Y132143D01*
X-32780Y129145D02*
X-24922Y130644D01*
X-56629Y120342D02*
X-49390Y123748D01*
X-63867Y116936D02*
X-56629Y120342D01*
X-84777Y102478D02*
X-78613Y107578D01*
X-90941Y97379D02*
X-84777Y102478D01*
X-107599Y78175D02*
X-102897Y84648D01*
X-112302Y71703D02*
X-107599Y78175D01*
X128821Y33076D02*
X130811Y25327D01*
X126832Y40824D02*
X128821Y33076D01*
X116539Y64078D02*
X120393Y57067D01*
X112686Y71088D02*
X116539Y64078D01*
X96419Y91360D02*
X101922Y85553D01*
X90917Y97167D02*
X96419Y91360D01*
X71265Y112296D02*
X78020Y108009D01*
X64510Y116582D02*
X71265Y112296D01*
X57098Y708D02*
X73098D01*
X57098Y13868D02*
X73098D01*
X57098Y16708D02*
X73098D01*
X57098Y29868D02*
X73098D01*
D14*
X-64600Y-215000D02*
X66000D01*
Y-245000D02*
Y-215000D01*
X-64600Y-245000D02*
X66000D01*
X-64600D02*
Y-215000D01*
X11143Y-209638D02*
Y-179638D01*
Y-209638D02*
X40719D01*
Y-179638D01*
X11143D02*
X40719D01*
D15*
X-60065Y-190168D02*
X-55067D01*
X-52568Y-192667D01*
Y-200165D01*
X-60065D01*
X-62565Y-197666D01*
X-60065Y-195166D01*
X-52568D01*
X-45070Y-200165D02*
X-40072D01*
X-37573Y-197666D01*
Y-192667D01*
X-40072Y-190168D01*
X-45070D01*
X-47569Y-192667D01*
Y-197666D01*
X-45070Y-200165D01*
X-32574Y-190168D02*
Y-197666D01*
X-30075Y-200165D01*
X-22578D01*
Y-190168D01*
X-15080Y-187669D02*
Y-190168D01*
X-17579D01*
X-12581D01*
X-15080D01*
Y-197666D01*
X-12581Y-200165D01*
X-5083Y-190168D02*
X-2584D01*
Y-192667D01*
X-5083D01*
Y-190168D01*
Y-197666D02*
X-2584D01*
Y-200165D01*
X-5083D01*
Y-197666D01*
M02*
