M48
;Layer_Color=9474304
;FILE_FORMAT=4:4
METRIC,LZ
;TYPE=PLATED
T01F00S00C0.3000
T02F00S00C1.0000
T03F00S00C1.1000
T04F00S00C2.0000
%
T01
X-0005Y-0017
X-0001Y-00175
Y-00145
X-0001135Y-001219
X00002057Y-0011059
X-00014549Y-00078142
X-00040008Y-00085517
X-00069675Y-00084315
X-0003415Y-000345
X-0004245Y-00025905
X-0004935Y-000079
X-0010825Y-00033221
X-0014435Y-00044
X-00163052Y-00044344
X00018Y-00053167
X0001Y-00066
X00064768Y-00065707
X0007985Y-000725
X00090598Y-00060712
X00098832Y-00056239
X00110995Y-00049861
X0011Y-00036
X000855Y-000335
Y-000225
X000745
Y-000335
X00058586Y-00009141
X00049957Y-00009085
X00066598Y-00086712
X00060671Y-00099219
X00140497Y-00057999
X00140832Y-00049761
X00174Y-00054
X0017295Y-000155
X00163096Y00012909
X00152521Y00022673
X00166598Y00059288
X00106Y00048
X00094477Y00031347
X00095036Y00015288
X00082058Y00017288
X00104598Y00005288
X00080598Y00055288
X00058759Y00055205
X00050598Y00041724
X00048598Y00023288
X00033854Y00032008
X0003527Y00055322
X00015892Y00047994
X-00040991Y00050525
X-0003415Y000358
X-00033621Y00072827
X-0001736Y00093758
X00007348Y00110224
X-0000185Y001232
X-00012345Y001358
X-0001135Y00153398
X-0000185Y001555
X-0005695Y000168
X-0010185Y00008295
X-00139078Y00001576
X-0016811Y00001505
X-0018235Y000852
X-0009058Y000415
T02
X0021265Y-000381
Y-000181
X000381Y-0028915
X000019
X-000181
X-000381
X-0021265Y-000381
Y-000181
Y000019
Y000381
X-000381Y00213
X-000181
X000019
X000381
X0021265Y000381
Y000019
T03
X-0005Y-0023
X0
X0005
X00025744Y-00194638
T04
X0019765Y-000681
X000681Y-0027415
X-000681
X-0019765Y-000681
Y000681
X-000681Y00198
X000681
X0019765Y000681
M30
