G04*
G04 #@! TF.GenerationSoftware,Altium Limited,Altium Designer,23.8.1 (32)*
G04*
G04 Layer_Color=32896*
%FSLAX44Y44*%
%MOMM*%
G71*
G04*
G04 #@! TF.SameCoordinates,569DF6A4-0AC1-4917-97B5-21C436C54E36*
G04*
G04*
G04 #@! TF.FilePolarity,Positive*
G04*
G01*
G75*
%ADD12C,0.2000*%
%ADD15C,0.3000*%
%ADD127C,0.5000*%
%ADD134C,0.4000*%
G36*
X7426Y170949D02*
Y170875D01*
X7277D01*
Y170949D01*
X7351D01*
Y171023D01*
X7426D01*
Y170949D01*
D02*
G37*
G36*
X4680Y105934D02*
X4606D01*
Y106008D01*
X4680D01*
Y105934D01*
D02*
G37*
G36*
X57227Y104227D02*
X57078D01*
Y104152D01*
X56930D01*
Y104227D01*
X57004D01*
Y104301D01*
X57227D01*
Y104227D01*
D02*
G37*
G36*
X10988Y102297D02*
X10914D01*
Y102371D01*
X10988D01*
Y102297D01*
D02*
G37*
G36*
X10914Y102148D02*
X10840D01*
Y102074D01*
X10766D01*
Y102223D01*
X10840D01*
Y102297D01*
X10914D01*
Y102148D01*
D02*
G37*
G36*
X28727Y182824D02*
X28949D01*
Y182750D01*
X29098D01*
Y182676D01*
X29246D01*
Y182602D01*
X29320D01*
Y182527D01*
X29395D01*
Y182453D01*
X29469D01*
Y182379D01*
X29543D01*
Y182305D01*
X29617D01*
Y182230D01*
X29691D01*
Y182082D01*
X29766D01*
Y181934D01*
X29840D01*
Y181785D01*
X29914D01*
Y181562D01*
X29988D01*
Y181266D01*
X30062D01*
Y180820D01*
X29988D01*
Y180672D01*
X29914D01*
Y180598D01*
X29543D01*
Y179262D01*
X29840D01*
Y179188D01*
X30062D01*
Y179113D01*
X30285D01*
Y179039D01*
X30508D01*
Y178965D01*
X30730D01*
Y178891D01*
X30879D01*
Y178816D01*
X31102D01*
Y178742D01*
X31250D01*
Y178668D01*
X31398D01*
Y178594D01*
X31547D01*
Y178519D01*
X31695D01*
Y178445D01*
X31844D01*
Y178371D01*
X31918D01*
Y178297D01*
X32066D01*
Y178223D01*
X32215D01*
Y178148D01*
X32289D01*
Y178074D01*
X32438D01*
Y178000D01*
X32512D01*
Y177926D01*
X32586D01*
Y177852D01*
X32734D01*
Y177777D01*
X32809D01*
Y177703D01*
X32883D01*
Y177629D01*
X32957D01*
Y177555D01*
X33105D01*
Y177481D01*
X33180D01*
Y177406D01*
X33254D01*
Y177332D01*
X33328D01*
Y177258D01*
X33402D01*
Y177184D01*
X33477D01*
Y177109D01*
X33551D01*
Y177035D01*
X33625D01*
Y176961D01*
X33699D01*
Y176887D01*
X33773D01*
Y176812D01*
X33848D01*
Y176738D01*
X33922D01*
Y176664D01*
X33996D01*
Y176590D01*
X34070D01*
Y176441D01*
X34144D01*
Y176367D01*
X34219D01*
Y176293D01*
X34293D01*
Y176145D01*
X34367D01*
Y176070D01*
X34441D01*
Y175996D01*
X34516D01*
Y175848D01*
X34590D01*
Y175699D01*
X34664D01*
Y175625D01*
X34738D01*
Y175477D01*
X34813D01*
Y175402D01*
X34887D01*
Y175254D01*
X34961D01*
Y175105D01*
X35035D01*
Y174957D01*
X35109D01*
Y174809D01*
X35184D01*
Y174586D01*
X35258D01*
Y174438D01*
X35332D01*
Y174215D01*
X35406D01*
Y173918D01*
X35480D01*
Y173621D01*
X35555D01*
Y172953D01*
X35852D01*
Y172879D01*
X35926D01*
Y172211D01*
X35480D01*
Y171617D01*
X35555D01*
Y169910D01*
X35629D01*
Y168203D01*
X35703D01*
Y166570D01*
X35777D01*
Y164863D01*
X35852D01*
Y163453D01*
X35926D01*
Y163379D01*
X49656D01*
Y162859D01*
X49582D01*
Y162785D01*
X48840D01*
Y161375D01*
X48914D01*
Y161227D01*
X48840D01*
Y161152D01*
X47207D01*
Y159891D01*
X45500D01*
Y159816D01*
X45277D01*
Y159742D01*
X45129D01*
Y159668D01*
X45055D01*
Y159594D01*
X44981D01*
Y159520D01*
X44906D01*
Y159371D01*
X44832D01*
Y159297D01*
X44758D01*
Y159223D01*
X44684D01*
Y159074D01*
X44609D01*
Y158406D01*
X44684D01*
Y157887D01*
X44758D01*
Y157367D01*
X44832D01*
Y156848D01*
X44906D01*
Y156328D01*
X44981D01*
Y155809D01*
X45055D01*
Y155289D01*
X45129D01*
Y154769D01*
X45203D01*
Y154250D01*
X45277D01*
Y153730D01*
X45352D01*
Y153211D01*
X45426D01*
Y152691D01*
X45500D01*
Y152172D01*
X45574D01*
Y151652D01*
X45648D01*
Y151133D01*
X45723D01*
Y150613D01*
X45797D01*
Y150094D01*
X45871D01*
Y149574D01*
X45945D01*
Y149055D01*
X46020D01*
Y148684D01*
X46613D01*
Y148609D01*
X54852D01*
Y148461D01*
X54926D01*
Y148238D01*
Y148164D01*
Y147867D01*
X54109D01*
Y141633D01*
X54852D01*
Y141484D01*
X54926D01*
Y140891D01*
X54109D01*
Y140148D01*
X54926D01*
Y140000D01*
X55000D01*
Y138516D01*
X53887D01*
Y138441D01*
X53812D01*
Y138293D01*
X53738D01*
Y138145D01*
X53664D01*
Y137996D01*
X53590D01*
Y137848D01*
X53516D01*
Y137699D01*
X53441D01*
Y137551D01*
X53367D01*
Y137402D01*
X53293D01*
Y137254D01*
X53219D01*
Y137106D01*
X53144D01*
Y136957D01*
X53070D01*
Y136809D01*
X52996D01*
Y136660D01*
X52922D01*
Y136512D01*
X52848D01*
Y136363D01*
X52773D01*
Y136215D01*
X52699D01*
Y136066D01*
X52625D01*
Y135992D01*
X52551D01*
Y135844D01*
X52477D01*
Y135695D01*
X52402D01*
Y135547D01*
X52328D01*
Y135398D01*
X52254D01*
Y135250D01*
X52180D01*
Y135102D01*
X52105D01*
Y134953D01*
X52031D01*
Y134805D01*
X51957D01*
Y134656D01*
X51883D01*
Y134508D01*
X51809D01*
Y134359D01*
X51734D01*
Y134211D01*
X51660D01*
Y134062D01*
X51586D01*
Y133914D01*
X51512D01*
Y133766D01*
X51438D01*
Y133617D01*
X51363D01*
Y133469D01*
X51289D01*
Y133320D01*
X51215D01*
Y133172D01*
X51141D01*
Y133023D01*
X51066D01*
Y132875D01*
X50992D01*
Y132727D01*
X50918D01*
Y132578D01*
X50844D01*
Y132430D01*
X50770D01*
Y132281D01*
X50695D01*
Y132133D01*
X50621D01*
Y131984D01*
X50547D01*
Y131836D01*
X50473D01*
Y131687D01*
X50398D01*
Y131539D01*
X50324D01*
Y131391D01*
X50250D01*
Y131242D01*
X50176D01*
Y131094D01*
X50102D01*
Y130945D01*
X50027D01*
Y130797D01*
X49953D01*
Y130648D01*
X49879D01*
Y130500D01*
X49805D01*
Y130352D01*
X49731D01*
Y130203D01*
X49656D01*
Y130055D01*
X49582D01*
Y129906D01*
X49508D01*
Y129758D01*
X49434D01*
Y129609D01*
X49359D01*
Y129461D01*
X49285D01*
Y129312D01*
X49211D01*
Y129164D01*
X49137D01*
Y129090D01*
X49062D01*
Y128941D01*
X48988D01*
Y128793D01*
X48914D01*
Y128051D01*
X48988D01*
Y127457D01*
X49062D01*
Y126938D01*
X49137D01*
Y126418D01*
X49211D01*
Y125824D01*
X49285D01*
Y125305D01*
X49359D01*
Y124785D01*
X49434D01*
Y124191D01*
X49508D01*
Y123672D01*
X49582D01*
Y123078D01*
X49656D01*
Y122559D01*
X49731D01*
Y122039D01*
X49805D01*
Y121445D01*
X49879D01*
Y120851D01*
X49953D01*
Y120332D01*
X50027D01*
Y119738D01*
X50102D01*
Y119144D01*
X50176D01*
Y118625D01*
X50250D01*
Y118031D01*
X50324D01*
Y117437D01*
X50398D01*
Y116844D01*
X50473D01*
Y116250D01*
X50547D01*
Y115656D01*
X50621D01*
Y115063D01*
X50695D01*
Y114469D01*
X50770D01*
Y113875D01*
X50844D01*
Y113281D01*
X50918D01*
Y112613D01*
X50992D01*
Y112020D01*
X51066D01*
Y111426D01*
X51141D01*
Y110758D01*
X51215D01*
Y110164D01*
X51289D01*
Y109496D01*
X51363D01*
Y108902D01*
X51438D01*
Y108234D01*
X51512D01*
Y107641D01*
X51586D01*
Y106973D01*
X51660D01*
Y106379D01*
X51734D01*
Y105711D01*
X51809D01*
Y105117D01*
X51883D01*
Y104449D01*
X51957D01*
Y103855D01*
X52031D01*
Y103188D01*
X52105D01*
Y102594D01*
X52180D01*
Y102371D01*
X52402D01*
Y102445D01*
X52699D01*
Y102520D01*
X52922D01*
Y102594D01*
X53144D01*
Y102668D01*
X53367D01*
Y102742D01*
X53590D01*
Y102816D01*
X53812D01*
Y102891D01*
X53961D01*
Y102965D01*
X54184D01*
Y103039D01*
X54406D01*
Y103113D01*
X54555D01*
Y103188D01*
X54777D01*
Y103262D01*
X54926D01*
Y103336D01*
X55148D01*
Y103410D01*
X55297D01*
Y103484D01*
X55445D01*
Y103559D01*
X55668D01*
Y103633D01*
X55816D01*
Y103707D01*
X55965D01*
Y103781D01*
X56113D01*
Y103855D01*
X56262D01*
Y103930D01*
X56410D01*
Y104004D01*
X56633D01*
Y104078D01*
X56781D01*
Y104152D01*
X56930D01*
Y104078D01*
X56856D01*
Y104004D01*
X56707D01*
Y103930D01*
X56559D01*
Y103855D01*
X56410D01*
Y103781D01*
X56262D01*
Y103707D01*
X56113D01*
Y103633D01*
X55965D01*
Y103559D01*
X55816D01*
Y103484D01*
X55668D01*
Y103410D01*
X55594D01*
Y103336D01*
X55371D01*
Y103262D01*
X55223D01*
Y103188D01*
X55074D01*
Y103113D01*
X54926D01*
Y103039D01*
X54777D01*
Y102965D01*
X54629D01*
Y102891D01*
X54481D01*
Y102816D01*
X54332D01*
Y102742D01*
X54109D01*
Y102668D01*
X53961D01*
Y102594D01*
X53812D01*
Y102520D01*
X53590D01*
Y102445D01*
X53441D01*
Y102371D01*
X53219D01*
Y102297D01*
X53070D01*
Y102223D01*
X52848D01*
Y102148D01*
X52699D01*
Y102074D01*
X52477D01*
Y102000D01*
X52254D01*
Y101926D01*
X52031D01*
Y101852D01*
X51883D01*
Y101777D01*
X51660D01*
Y101703D01*
X51438D01*
Y101629D01*
X51141D01*
Y101555D01*
X50918D01*
Y101481D01*
X50695D01*
Y101406D01*
X50473D01*
Y101332D01*
X50176D01*
Y101258D01*
X49879D01*
Y101184D01*
X49656D01*
Y101109D01*
X49359D01*
Y101035D01*
X49062D01*
Y100961D01*
X48691D01*
Y100887D01*
X48394D01*
Y100813D01*
X48023D01*
Y100738D01*
X47578D01*
Y100664D01*
X47207D01*
Y100590D01*
X46687D01*
Y100516D01*
X46168D01*
Y100441D01*
X45574D01*
Y100367D01*
X44758D01*
Y100293D01*
X43570D01*
Y100219D01*
X40453D01*
Y100293D01*
X39488D01*
Y100367D01*
X38820D01*
Y100441D01*
X38301D01*
Y100516D01*
X37855D01*
Y100590D01*
X37484D01*
Y100664D01*
X37113D01*
Y100738D01*
X36742D01*
Y100813D01*
X36445D01*
Y100887D01*
X36148D01*
Y100961D01*
X35926D01*
Y101035D01*
X35629D01*
Y101109D01*
X35406D01*
Y101184D01*
X35184D01*
Y101258D01*
X34961D01*
Y101332D01*
X34738D01*
Y101406D01*
X34516D01*
Y101481D01*
X34293D01*
Y101555D01*
X34144D01*
Y101629D01*
X33922D01*
Y101703D01*
X33773D01*
Y101777D01*
X33551D01*
Y101852D01*
X33402D01*
Y101926D01*
X33254D01*
Y102000D01*
X33105D01*
Y102074D01*
X32883D01*
Y102148D01*
X32734D01*
Y102223D01*
X32586D01*
Y102297D01*
X32438D01*
Y102371D01*
X32289D01*
Y102445D01*
X32141D01*
Y102520D01*
X32066D01*
Y102594D01*
X31918D01*
Y102668D01*
X31769D01*
Y102742D01*
X31621D01*
Y102816D01*
X31547D01*
Y102891D01*
X31398D01*
Y102965D01*
X31250D01*
Y103039D01*
X31176D01*
Y103113D01*
X31027D01*
Y103188D01*
X30953D01*
Y103262D01*
X30805D01*
Y103336D01*
X30730D01*
Y103410D01*
X30582D01*
Y103484D01*
X30508D01*
Y103559D01*
X30359D01*
Y103633D01*
X30285D01*
Y103707D01*
X30137D01*
Y103781D01*
X30062D01*
Y103855D01*
X29914D01*
Y103930D01*
X29840D01*
Y104004D01*
X29766D01*
Y104078D01*
X29617D01*
Y104152D01*
X29543D01*
Y104227D01*
X29395D01*
Y104301D01*
X29320D01*
Y104375D01*
X29172D01*
Y104449D01*
X29023D01*
Y104523D01*
X28949D01*
Y104598D01*
X28801D01*
Y104672D01*
X28652D01*
Y104746D01*
X28504D01*
Y104820D01*
X28356D01*
Y104895D01*
X28207D01*
Y104969D01*
X28059D01*
Y105043D01*
X27910D01*
Y105117D01*
X27762D01*
Y105191D01*
X27613D01*
Y105266D01*
X27391D01*
Y105340D01*
X27242D01*
Y105414D01*
X27020D01*
Y105488D01*
X26871D01*
Y105562D01*
X26648D01*
Y105637D01*
X26426D01*
Y105711D01*
X26203D01*
Y105785D01*
X25981D01*
Y105859D01*
X25758D01*
Y105934D01*
X25535D01*
Y106008D01*
X25312D01*
Y106082D01*
X25090D01*
Y106156D01*
X24867D01*
Y106230D01*
X24570D01*
Y106305D01*
X24273D01*
Y106379D01*
X23977D01*
Y106453D01*
X23605D01*
Y106527D01*
X23234D01*
Y106602D01*
X22789D01*
Y106676D01*
X22121D01*
Y106750D01*
X19672D01*
Y106676D01*
X19078D01*
Y106602D01*
X18633D01*
Y106527D01*
X18262D01*
Y106453D01*
X17965D01*
Y106379D01*
X17668D01*
Y106305D01*
X17371D01*
Y106230D01*
X17148D01*
Y106156D01*
X16926D01*
Y106082D01*
X16703D01*
Y106008D01*
X16480D01*
Y105934D01*
X16332D01*
Y105859D01*
X16109D01*
Y105785D01*
X15961D01*
Y105711D01*
X15738D01*
Y105637D01*
X15590D01*
Y105562D01*
X15441D01*
Y105488D01*
X15293D01*
Y105414D01*
X15144D01*
Y105340D01*
X14996D01*
Y105266D01*
X14848D01*
Y105191D01*
X14699D01*
Y105117D01*
X14551D01*
Y105043D01*
X14402D01*
Y104969D01*
X14328D01*
Y104895D01*
X14180D01*
Y104820D01*
X14031D01*
Y104746D01*
X13957D01*
Y104672D01*
X13809D01*
Y104598D01*
X13734D01*
Y104523D01*
X13586D01*
Y104449D01*
X13438D01*
Y104375D01*
X13363D01*
Y104301D01*
X13289D01*
Y104227D01*
X13141D01*
Y104152D01*
X13066D01*
Y104078D01*
X12918D01*
Y104004D01*
X12844D01*
Y103930D01*
X12770D01*
Y103855D01*
X12621D01*
Y103781D01*
X12547D01*
Y103707D01*
X12473D01*
Y103633D01*
X12398D01*
Y103559D01*
X12250D01*
Y103484D01*
X12176D01*
Y103410D01*
X12102D01*
Y103336D01*
X12027D01*
Y103262D01*
X11953D01*
Y103188D01*
X11879D01*
Y103113D01*
X11731D01*
Y103039D01*
X11656D01*
Y102965D01*
X11582D01*
Y102891D01*
X11508D01*
Y102816D01*
X11434D01*
Y102742D01*
X11359D01*
Y102668D01*
X11285D01*
Y102594D01*
X11211D01*
Y102520D01*
X11137D01*
Y102445D01*
X11063D01*
Y102371D01*
X10988D01*
Y102520D01*
X11063D01*
Y102594D01*
X11137D01*
Y102668D01*
X11211D01*
Y102742D01*
X11285D01*
Y102891D01*
X11359D01*
Y102965D01*
X11434D01*
Y103039D01*
X11508D01*
Y103113D01*
X11582D01*
Y103188D01*
X11656D01*
Y103336D01*
X11731D01*
Y103410D01*
X11805D01*
Y103484D01*
X11879D01*
Y103559D01*
X11953D01*
Y103633D01*
X12027D01*
Y103707D01*
X12102D01*
Y103781D01*
X12176D01*
Y103855D01*
X12250D01*
Y103930D01*
X12324D01*
Y104004D01*
X12398D01*
Y104078D01*
X12473D01*
Y104152D01*
X12547D01*
Y104227D01*
X12621D01*
Y104301D01*
X12770D01*
Y104375D01*
X12844D01*
Y104449D01*
X12918D01*
Y104523D01*
X12992D01*
Y104598D01*
X13066D01*
Y104672D01*
X13141D01*
Y104746D01*
X13289D01*
Y104820D01*
X13363D01*
Y104895D01*
X13438D01*
Y104969D01*
X13512D01*
Y105043D01*
X13660D01*
Y105117D01*
X13734D01*
Y105191D01*
X13883D01*
Y105266D01*
X13957D01*
Y105340D01*
X14031D01*
Y105414D01*
X14180D01*
Y105488D01*
X14254D01*
Y105562D01*
X14402D01*
Y105637D01*
X14477D01*
Y105711D01*
X14625D01*
Y105785D01*
X14773D01*
Y105859D01*
X14848D01*
Y105934D01*
X14996D01*
Y106008D01*
X15070D01*
Y106230D01*
X14996D01*
Y106453D01*
X14922D01*
Y106602D01*
X14848D01*
Y106824D01*
X14773D01*
Y106973D01*
X14699D01*
Y107121D01*
X14625D01*
Y107269D01*
X14551D01*
Y107418D01*
X14477D01*
Y107566D01*
X14402D01*
Y107715D01*
X14328D01*
Y107863D01*
X14254D01*
Y108012D01*
X14180D01*
Y108086D01*
X14105D01*
Y108234D01*
X14031D01*
Y108383D01*
X13957D01*
Y108457D01*
X13883D01*
Y108605D01*
X13809D01*
Y108680D01*
X13734D01*
Y108828D01*
X13660D01*
Y108902D01*
X13586D01*
Y109051D01*
X13512D01*
Y109125D01*
X13438D01*
Y109199D01*
X13363D01*
Y109348D01*
X13289D01*
Y109422D01*
X13215D01*
Y109496D01*
X13141D01*
Y109570D01*
X13066D01*
Y109644D01*
X12992D01*
Y109793D01*
X12918D01*
Y109867D01*
X12844D01*
Y109941D01*
X12770D01*
Y110016D01*
X12695D01*
Y110090D01*
X12621D01*
Y110164D01*
X12547D01*
Y110238D01*
X12473D01*
Y110312D01*
X12398D01*
Y110387D01*
X12324D01*
Y110461D01*
X12250D01*
Y110535D01*
X12102D01*
Y110609D01*
X12027D01*
Y110684D01*
X11953D01*
Y110758D01*
X11879D01*
Y110832D01*
X11805D01*
Y110906D01*
X11656D01*
Y110981D01*
X11582D01*
Y111055D01*
X11434D01*
Y111129D01*
X11359D01*
Y111203D01*
X11285D01*
Y111277D01*
X11137D01*
Y111352D01*
X10988D01*
Y111426D01*
X10914D01*
Y111500D01*
X10766D01*
Y111574D01*
X10617D01*
Y111648D01*
X10469D01*
Y111723D01*
X10320D01*
Y111797D01*
X10172D01*
Y111871D01*
X10023D01*
Y111945D01*
X9875D01*
Y112020D01*
X9652D01*
Y112094D01*
X9504D01*
Y112168D01*
X9281D01*
Y112242D01*
X8984D01*
Y112316D01*
X8687D01*
Y112391D01*
X8316D01*
Y112465D01*
X6535D01*
Y112391D01*
X6090D01*
Y112316D01*
X5793D01*
Y112242D01*
X5570D01*
Y112168D01*
X5348D01*
Y112094D01*
X5125D01*
Y112020D01*
X4976D01*
Y111945D01*
X4754D01*
Y111871D01*
X4606D01*
Y111797D01*
X4457D01*
Y111723D01*
X4309D01*
Y111648D01*
X4234D01*
Y111574D01*
X4086D01*
Y111500D01*
X3938D01*
Y111426D01*
X3863D01*
Y111352D01*
X3715D01*
Y111277D01*
X3641D01*
Y111203D01*
X3566D01*
Y111129D01*
X3418D01*
Y111055D01*
X3344D01*
Y110981D01*
X3270D01*
Y110906D01*
X3195D01*
Y110832D01*
X3121D01*
Y110758D01*
X3047D01*
Y110684D01*
X2973D01*
Y110609D01*
X2898D01*
Y110535D01*
X2824D01*
Y110461D01*
X2750D01*
Y110387D01*
X2676D01*
Y110238D01*
X2601D01*
Y110164D01*
X2527D01*
Y110016D01*
X2453D01*
Y109941D01*
X2379D01*
Y109793D01*
X2305D01*
Y109644D01*
X2230D01*
Y109496D01*
X2156D01*
Y109273D01*
X2082D01*
Y109051D01*
X2008D01*
Y108754D01*
X1934D01*
Y108234D01*
X1859D01*
Y107789D01*
X1934D01*
Y107344D01*
X2008D01*
Y107121D01*
X2082D01*
Y106973D01*
X2156D01*
Y106824D01*
X2230D01*
Y106750D01*
X2305D01*
Y106602D01*
X2379D01*
Y106527D01*
X2453D01*
Y106453D01*
X2527D01*
Y106379D01*
X2676D01*
Y106305D01*
X2750D01*
Y106230D01*
X2898D01*
Y106156D01*
X3047D01*
Y106082D01*
X3270D01*
Y106008D01*
X3641D01*
Y105934D01*
X4531D01*
Y105859D01*
X4234D01*
Y105785D01*
X3121D01*
Y105859D01*
X2824D01*
Y105934D01*
X2601D01*
Y106008D01*
X2453D01*
Y106082D01*
X2379D01*
Y106156D01*
X2230D01*
Y106230D01*
X2156D01*
Y106305D01*
X2082D01*
Y106379D01*
X2008D01*
Y106453D01*
X1934D01*
Y106527D01*
X1859D01*
Y106602D01*
X1785D01*
Y106676D01*
X1711D01*
Y106824D01*
X1637D01*
Y106973D01*
X1562D01*
Y107121D01*
X1488D01*
Y107344D01*
X1414D01*
Y107566D01*
X1340D01*
Y109125D01*
X1414D01*
Y109496D01*
X1488D01*
Y109719D01*
X1562D01*
Y109941D01*
X1637D01*
Y110090D01*
X1711D01*
Y110238D01*
X1785D01*
Y110387D01*
X1859D01*
Y110535D01*
X1934D01*
Y110684D01*
X2008D01*
Y110758D01*
X2082D01*
Y110906D01*
X2156D01*
Y110981D01*
X2230D01*
Y111055D01*
X2305D01*
Y111129D01*
X2379D01*
Y111277D01*
X2453D01*
Y111352D01*
X2527D01*
Y111426D01*
X2601D01*
Y111500D01*
X2676D01*
Y111574D01*
X2750D01*
Y111648D01*
X2824D01*
Y111723D01*
X2898D01*
Y111797D01*
X2973D01*
Y111871D01*
X3121D01*
Y111945D01*
X3195D01*
Y112020D01*
X3270D01*
Y112094D01*
X3344D01*
Y112168D01*
X3492D01*
Y112242D01*
X3566D01*
Y112316D01*
X3715D01*
Y112391D01*
X3789D01*
Y112465D01*
X3938D01*
Y112539D01*
X4086D01*
Y112613D01*
X4160D01*
Y112688D01*
X4309D01*
Y112762D01*
X4457D01*
Y112836D01*
X4606D01*
Y112910D01*
X4828D01*
Y112984D01*
X4976D01*
Y113059D01*
X5199D01*
Y113133D01*
X5273D01*
Y113727D01*
X5348D01*
Y114691D01*
X5422D01*
Y115582D01*
X5496D01*
Y116473D01*
X5570D01*
Y117363D01*
X5645D01*
Y118180D01*
X5719D01*
Y118996D01*
X5793D01*
Y119812D01*
X5867D01*
Y120555D01*
X5941D01*
Y121297D01*
X6016D01*
Y122039D01*
X6090D01*
Y122707D01*
X6164D01*
Y123449D01*
X6238D01*
Y124117D01*
X6313D01*
Y124785D01*
X6387D01*
Y125379D01*
X6461D01*
Y126047D01*
X6535D01*
Y126641D01*
X6609D01*
Y127309D01*
X6684D01*
Y127902D01*
X6758D01*
Y128496D01*
X6832D01*
Y129164D01*
X6758D01*
Y129312D01*
X6684D01*
Y129387D01*
X6609D01*
Y129535D01*
X6535D01*
Y129609D01*
X6461D01*
Y129758D01*
X6387D01*
Y129906D01*
X6313D01*
Y129980D01*
X6238D01*
Y130129D01*
X6164D01*
Y130277D01*
X6090D01*
Y130352D01*
X6016D01*
Y130500D01*
X5941D01*
Y130648D01*
X5867D01*
Y130723D01*
X5793D01*
Y130871D01*
X5719D01*
Y131019D01*
X5645D01*
Y131094D01*
X5570D01*
Y131242D01*
X5496D01*
Y131391D01*
X5422D01*
Y131465D01*
X5348D01*
Y131613D01*
X5273D01*
Y131762D01*
X5199D01*
Y131836D01*
X5125D01*
Y131984D01*
X5051D01*
Y132133D01*
X4976D01*
Y132207D01*
X4902D01*
Y132355D01*
X4828D01*
Y132504D01*
X4754D01*
Y132652D01*
X4680D01*
Y132727D01*
X4606D01*
Y132875D01*
X4531D01*
Y133023D01*
X4457D01*
Y133098D01*
X4383D01*
Y133246D01*
X4309D01*
Y133394D01*
X4234D01*
Y133469D01*
X4160D01*
Y133617D01*
X4086D01*
Y133766D01*
X4012D01*
Y133840D01*
X3938D01*
Y133988D01*
X3863D01*
Y134137D01*
X3789D01*
Y134285D01*
X3715D01*
Y134359D01*
X3641D01*
Y134508D01*
X3566D01*
Y134656D01*
X3492D01*
Y134731D01*
X3418D01*
Y134879D01*
X3344D01*
Y135027D01*
X3270D01*
Y135176D01*
X3195D01*
Y135250D01*
X3121D01*
Y135398D01*
X3047D01*
Y135547D01*
X2973D01*
Y135621D01*
X2898D01*
Y135770D01*
X2824D01*
Y135918D01*
X2750D01*
Y136066D01*
X2676D01*
Y136141D01*
X2601D01*
Y136289D01*
X2527D01*
Y136438D01*
X2453D01*
Y136512D01*
X2379D01*
Y136660D01*
X2305D01*
Y136809D01*
X2230D01*
Y136957D01*
X2156D01*
Y137031D01*
X2082D01*
Y137180D01*
X2008D01*
Y137328D01*
X1934D01*
Y137477D01*
X1859D01*
Y137551D01*
X1785D01*
Y137699D01*
X1711D01*
Y137848D01*
X1637D01*
Y137996D01*
X1562D01*
Y138070D01*
X1488D01*
Y138219D01*
X1414D01*
Y138367D01*
X598D01*
Y140371D01*
X1266D01*
Y140816D01*
X598D01*
Y141633D01*
X523D01*
Y141781D01*
X1191D01*
Y145863D01*
X1266D01*
Y147793D01*
X598D01*
Y148609D01*
X523D01*
Y148758D01*
X9430D01*
Y149055D01*
X9504D01*
Y149574D01*
X9578D01*
Y150094D01*
X9652D01*
Y150613D01*
X9726D01*
Y151133D01*
X9801D01*
Y151727D01*
X9875D01*
Y152246D01*
X9949D01*
Y152766D01*
X10023D01*
Y153285D01*
X10098D01*
Y153805D01*
X10172D01*
Y154398D01*
X10246D01*
Y154918D01*
X10320D01*
Y155437D01*
X10395D01*
Y155957D01*
X10469D01*
Y156476D01*
X10543D01*
Y157070D01*
X10617D01*
Y157590D01*
X10691D01*
Y158109D01*
X10766D01*
Y158629D01*
X10840D01*
Y159074D01*
X10766D01*
Y159148D01*
X10691D01*
Y159297D01*
X10617D01*
Y159371D01*
X10543D01*
Y159445D01*
X10469D01*
Y159520D01*
X10395D01*
Y159594D01*
X10246D01*
Y159668D01*
X9949D01*
Y159742D01*
X8539D01*
Y159816D01*
X8465D01*
Y161004D01*
X6684D01*
Y162711D01*
X6238D01*
Y162785D01*
X6164D01*
Y162711D01*
X6090D01*
Y163453D01*
X19227D01*
Y165160D01*
X19301D01*
Y167164D01*
X19375D01*
Y168871D01*
X19449D01*
Y170355D01*
X19523D01*
Y171691D01*
X19598D01*
Y172211D01*
X19301D01*
Y172953D01*
X19523D01*
Y173027D01*
X19598D01*
Y173547D01*
X19672D01*
Y173844D01*
X19746D01*
Y174066D01*
X19820D01*
Y174289D01*
X19894D01*
Y174512D01*
X19969D01*
Y174660D01*
X20043D01*
Y174809D01*
X20117D01*
Y174957D01*
X20191D01*
Y175105D01*
X20266D01*
Y175254D01*
X20340D01*
Y175402D01*
X20414D01*
Y175551D01*
X20488D01*
Y175625D01*
X20563D01*
Y175773D01*
X20637D01*
Y175848D01*
X20711D01*
Y175996D01*
X20785D01*
Y176070D01*
X20859D01*
Y176145D01*
X20934D01*
Y176293D01*
X21008D01*
Y176367D01*
X21082D01*
Y176441D01*
X21156D01*
Y176516D01*
X21230D01*
Y176590D01*
X21305D01*
Y176664D01*
X21379D01*
Y176812D01*
X21453D01*
Y176887D01*
X21527D01*
Y176961D01*
X21602D01*
Y177035D01*
X21676D01*
Y177109D01*
X21750D01*
Y177184D01*
X21824D01*
Y177258D01*
X21973D01*
Y177332D01*
X22047D01*
Y177406D01*
X22121D01*
Y177481D01*
X22195D01*
Y177555D01*
X22269D01*
Y177629D01*
X22344D01*
Y177703D01*
X22492D01*
Y177777D01*
X22566D01*
Y177852D01*
X22641D01*
Y177926D01*
X22789D01*
Y178000D01*
X22863D01*
Y178074D01*
X22938D01*
Y178148D01*
X23086D01*
Y178223D01*
X23160D01*
Y178297D01*
X23309D01*
Y178371D01*
X23457D01*
Y178445D01*
X23531D01*
Y178519D01*
X23680D01*
Y178594D01*
X23828D01*
Y178668D01*
X23977D01*
Y178742D01*
X24125D01*
Y178816D01*
X24273D01*
Y178891D01*
X24422D01*
Y178965D01*
X24644D01*
Y179039D01*
X24793D01*
Y179113D01*
X25016D01*
Y179188D01*
X25312D01*
Y179262D01*
X25609D01*
Y179336D01*
X25758D01*
Y180523D01*
X25238D01*
Y180672D01*
X25164D01*
Y181414D01*
X25238D01*
Y181637D01*
X25312D01*
Y181859D01*
X25387D01*
Y182008D01*
X25461D01*
Y182082D01*
X25535D01*
Y182230D01*
X25609D01*
Y182305D01*
X25684D01*
Y182379D01*
X25758D01*
Y182453D01*
X25832D01*
Y182527D01*
X25906D01*
Y182602D01*
X25981D01*
Y182676D01*
X26129D01*
Y182750D01*
X26203D01*
Y182824D01*
X26426D01*
Y182898D01*
X28727D01*
Y182824D01*
D02*
G37*
%LPC*%
G36*
X28875Y182602D02*
X26500D01*
Y182527D01*
X26352D01*
Y182453D01*
X26203D01*
Y182379D01*
X26129D01*
Y182305D01*
X26055D01*
Y182230D01*
X25981D01*
Y182156D01*
X25906D01*
Y182082D01*
X25832D01*
Y181934D01*
X25758D01*
Y181859D01*
X25684D01*
Y181711D01*
X25609D01*
Y181488D01*
X25535D01*
Y180895D01*
X26426D01*
Y180820D01*
X29543D01*
Y180746D01*
X29840D01*
Y181414D01*
X29766D01*
Y181637D01*
X29691D01*
Y181785D01*
X29617D01*
Y181934D01*
X29543D01*
Y182008D01*
X29469D01*
Y182156D01*
X29395D01*
Y182230D01*
X29320D01*
Y182305D01*
X29246D01*
Y182379D01*
X29172D01*
Y182453D01*
X29023D01*
Y182527D01*
X28875D01*
Y182602D01*
D02*
G37*
G36*
X29320Y180449D02*
X27984D01*
Y180375D01*
X26129D01*
Y179559D01*
X29246D01*
Y179484D01*
X29320D01*
Y180449D01*
D02*
G37*
G36*
X28207Y179262D02*
X27613D01*
Y179188D01*
X27539D01*
Y179113D01*
X27465D01*
Y178965D01*
X27391D01*
Y178891D01*
X27316D01*
Y178816D01*
X27242D01*
Y178668D01*
X27168D01*
Y178594D01*
X27094D01*
Y178445D01*
X27020D01*
Y178371D01*
X26945D01*
Y178223D01*
X26871D01*
Y178074D01*
X26797D01*
Y178000D01*
X26723D01*
Y177852D01*
X26648D01*
Y177703D01*
X26574D01*
Y177555D01*
X26500D01*
Y177406D01*
X26426D01*
Y177258D01*
X26352D01*
Y177109D01*
X26277D01*
Y176961D01*
X26203D01*
Y176812D01*
X26129D01*
Y176590D01*
X26055D01*
Y176441D01*
X25981D01*
Y176219D01*
X25906D01*
Y175996D01*
X25832D01*
Y175773D01*
X25758D01*
Y175551D01*
X25684D01*
Y175254D01*
X25609D01*
Y174957D01*
X25535D01*
Y174660D01*
X25461D01*
Y174289D01*
X25387D01*
Y173844D01*
X25312D01*
Y173324D01*
X25238D01*
Y172953D01*
X35406D01*
Y173250D01*
X35332D01*
Y173621D01*
X35258D01*
Y173918D01*
X35184D01*
Y174215D01*
X35109D01*
Y174438D01*
X35035D01*
Y174586D01*
X34961D01*
Y174809D01*
X34887D01*
Y174957D01*
X34813D01*
Y175105D01*
X34738D01*
Y175254D01*
X34664D01*
Y175402D01*
X34590D01*
Y175551D01*
X34516D01*
Y175699D01*
X34441D01*
Y175773D01*
X34367D01*
Y175922D01*
X34293D01*
Y175996D01*
X34219D01*
Y176145D01*
X34144D01*
Y176219D01*
X34070D01*
Y176293D01*
X33996D01*
Y176367D01*
X33922D01*
Y176516D01*
X33848D01*
Y176590D01*
X33773D01*
Y176664D01*
X33699D01*
Y176738D01*
X33625D01*
Y176812D01*
X33551D01*
Y176887D01*
X33477D01*
Y176961D01*
X33402D01*
Y177035D01*
X33328D01*
Y177109D01*
X33254D01*
Y177184D01*
X33180D01*
Y177258D01*
X33105D01*
Y177332D01*
X33031D01*
Y177406D01*
X32883D01*
Y177481D01*
X32809D01*
Y177555D01*
X32734D01*
Y177629D01*
X32660D01*
Y177703D01*
X32512D01*
Y177777D01*
X32438D01*
Y177852D01*
X32363D01*
Y177926D01*
X32215D01*
Y178000D01*
X32141D01*
Y178074D01*
X31992D01*
Y178148D01*
X31918D01*
Y178223D01*
X31769D01*
Y178297D01*
X31621D01*
Y178371D01*
X31473D01*
Y178445D01*
X31324D01*
Y178519D01*
X31176D01*
Y178594D01*
X31027D01*
Y178668D01*
X30879D01*
Y178742D01*
X30656D01*
Y178816D01*
X30508D01*
Y178891D01*
X30285D01*
Y178965D01*
X29988D01*
Y179039D01*
X29691D01*
Y179113D01*
X29320D01*
Y179188D01*
X28207D01*
Y179262D01*
D02*
G37*
G36*
X27316D02*
X27020D01*
Y179188D01*
X26129D01*
Y179113D01*
X25758D01*
Y179039D01*
X25461D01*
Y178965D01*
X25238D01*
Y178891D01*
X25016D01*
Y178816D01*
X24867D01*
Y178742D01*
X24719D01*
Y178668D01*
X24496D01*
Y178594D01*
X24422D01*
Y178519D01*
X24273D01*
Y178445D01*
X24125D01*
Y178371D01*
X23977D01*
Y178297D01*
X23902D01*
Y178223D01*
X23754D01*
Y178148D01*
X23605D01*
Y178074D01*
X23531D01*
Y178000D01*
X23457D01*
Y177926D01*
X23309D01*
Y177852D01*
X23234D01*
Y177777D01*
X23160D01*
Y177703D01*
X23012D01*
Y177629D01*
X22938D01*
Y177555D01*
X22863D01*
Y177481D01*
X22789D01*
Y177406D01*
X22715D01*
Y177332D01*
X22566D01*
Y177258D01*
X22492D01*
Y177184D01*
X22418D01*
Y177109D01*
X22344D01*
Y177035D01*
X22269D01*
Y176961D01*
X22195D01*
Y176887D01*
X22121D01*
Y176812D01*
X22047D01*
Y176738D01*
X21973D01*
Y176590D01*
X21898D01*
Y176516D01*
X21824D01*
Y176441D01*
X21750D01*
Y176367D01*
X21676D01*
Y176293D01*
X21602D01*
Y176145D01*
X21527D01*
Y176070D01*
X21453D01*
Y175996D01*
X21379D01*
Y175848D01*
X21305D01*
Y175773D01*
X21230D01*
Y175625D01*
X21156D01*
Y175551D01*
X21082D01*
Y175402D01*
X21008D01*
Y175254D01*
X20934D01*
Y175180D01*
X20859D01*
Y175031D01*
X20785D01*
Y174809D01*
X20711D01*
Y174660D01*
X20637D01*
Y174512D01*
X20563D01*
Y174289D01*
X20488D01*
Y174066D01*
X20414D01*
Y173769D01*
X20340D01*
Y173324D01*
X20266D01*
Y172953D01*
X25016D01*
Y174141D01*
X25090D01*
Y174660D01*
X25164D01*
Y175105D01*
X25238D01*
Y175477D01*
X25312D01*
Y175773D01*
X25387D01*
Y175996D01*
X25461D01*
Y176219D01*
X25535D01*
Y176441D01*
X25609D01*
Y176664D01*
X25684D01*
Y176887D01*
X25758D01*
Y177035D01*
X25832D01*
Y177184D01*
X25906D01*
Y177332D01*
X25981D01*
Y177481D01*
X26055D01*
Y177629D01*
X26129D01*
Y177777D01*
X26203D01*
Y177852D01*
X26277D01*
Y178000D01*
X26352D01*
Y178148D01*
X26426D01*
Y178223D01*
X26500D01*
Y178371D01*
X26574D01*
Y178445D01*
X26648D01*
Y178519D01*
X26723D01*
Y178594D01*
X26797D01*
Y178742D01*
X26871D01*
Y178816D01*
X26945D01*
Y178891D01*
X27020D01*
Y178965D01*
X27094D01*
Y179039D01*
X27168D01*
Y179113D01*
X27242D01*
Y179188D01*
X27316D01*
Y179262D01*
D02*
G37*
G36*
X35703Y172731D02*
X35629D01*
Y172656D01*
X35703D01*
Y172731D01*
D02*
G37*
G36*
Y172508D02*
X35629D01*
Y172434D01*
X35703D01*
Y172508D01*
D02*
G37*
G36*
X35332Y172211D02*
X34664D01*
Y171691D01*
X34738D01*
Y171172D01*
X34813D01*
Y170652D01*
X34887D01*
Y170059D01*
X34961D01*
Y169539D01*
X35035D01*
Y169020D01*
X35109D01*
Y168500D01*
X35184D01*
Y167906D01*
X35258D01*
Y167387D01*
X35332D01*
Y166867D01*
X35406D01*
Y166348D01*
X35480D01*
Y165754D01*
X35555D01*
Y165160D01*
X35629D01*
Y166422D01*
X35555D01*
Y168055D01*
X35480D01*
Y169762D01*
X35406D01*
Y171469D01*
X35332D01*
Y172211D01*
D02*
G37*
G36*
X23457D02*
X20191D01*
Y171691D01*
X20266D01*
Y171098D01*
X20340D01*
Y170578D01*
X20414D01*
Y169984D01*
X20488D01*
Y169465D01*
X20563D01*
Y168871D01*
X20637D01*
Y168352D01*
X20711D01*
Y167758D01*
X20785D01*
Y167164D01*
X20859D01*
Y166644D01*
X20934D01*
Y166051D01*
X21008D01*
Y165531D01*
X21082D01*
Y164937D01*
X21156D01*
Y164715D01*
X21230D01*
Y164937D01*
X21305D01*
Y165160D01*
X21379D01*
Y165457D01*
X21453D01*
Y165680D01*
X21527D01*
Y165977D01*
X21602D01*
Y166199D01*
X21676D01*
Y166422D01*
X21750D01*
Y166719D01*
X21824D01*
Y166941D01*
X21898D01*
Y167164D01*
X21973D01*
Y167461D01*
X22047D01*
Y167684D01*
X22121D01*
Y167906D01*
X22195D01*
Y168203D01*
X22269D01*
Y168426D01*
X22344D01*
Y168648D01*
X22418D01*
Y168723D01*
Y168797D01*
Y168945D01*
X22492D01*
Y169168D01*
X22566D01*
Y169391D01*
X22641D01*
Y169688D01*
X22715D01*
Y169910D01*
X22789D01*
Y170207D01*
X22863D01*
Y170430D01*
X22938D01*
Y170652D01*
X23012D01*
Y170949D01*
X23086D01*
Y171172D01*
X23160D01*
Y171395D01*
X23234D01*
Y171691D01*
X23309D01*
Y171914D01*
X23383D01*
Y172137D01*
X23457D01*
Y172211D01*
D02*
G37*
G36*
X34590D02*
X29914D01*
Y172062D01*
X29988D01*
Y171840D01*
X30062D01*
Y171617D01*
X30137D01*
Y171395D01*
X30211D01*
Y171320D01*
Y171172D01*
X30285D01*
Y170949D01*
X30359D01*
Y170727D01*
X30434D01*
Y170504D01*
X30508D01*
Y170281D01*
X30582D01*
Y170059D01*
X30656D01*
Y169836D01*
X30730D01*
Y169613D01*
X30805D01*
Y169391D01*
X30879D01*
Y169168D01*
X30953D01*
Y168945D01*
X31027D01*
Y168648D01*
X31102D01*
Y168426D01*
X31176D01*
Y168203D01*
X31250D01*
Y167980D01*
X31324D01*
Y167758D01*
X31398D01*
Y167535D01*
X31473D01*
Y167313D01*
X31547D01*
Y167090D01*
X31621D01*
Y166867D01*
X31695D01*
Y166644D01*
X31769D01*
Y166422D01*
X31844D01*
Y166199D01*
X31918D01*
Y165977D01*
X31992D01*
Y165754D01*
X32066D01*
Y165531D01*
X32141D01*
Y165309D01*
X32215D01*
Y165086D01*
X32289D01*
Y164863D01*
X32363D01*
Y164641D01*
X32438D01*
Y164418D01*
X32512D01*
Y164195D01*
X32586D01*
Y164344D01*
X32660D01*
Y164641D01*
X32734D01*
Y164937D01*
X32809D01*
Y165234D01*
X32883D01*
Y165531D01*
X32957D01*
Y165828D01*
X33031D01*
Y166199D01*
X33105D01*
Y166496D01*
X33180D01*
Y166793D01*
X33254D01*
Y167090D01*
X33328D01*
Y167387D01*
X33402D01*
Y167684D01*
X33477D01*
Y167980D01*
X33551D01*
Y168277D01*
X33625D01*
Y168574D01*
X33699D01*
Y168871D01*
X33773D01*
Y169168D01*
X33848D01*
Y169465D01*
X33922D01*
Y169762D01*
X33996D01*
Y170059D01*
X34070D01*
Y170355D01*
X34144D01*
Y170652D01*
X34219D01*
Y170949D01*
X34293D01*
Y171246D01*
X34367D01*
Y171543D01*
X34441D01*
Y171840D01*
X34516D01*
Y172137D01*
X34590D01*
Y172211D01*
D02*
G37*
G36*
X29617D02*
X23680D01*
Y172137D01*
X23754D01*
Y171914D01*
X23828D01*
Y171691D01*
X23902D01*
Y171469D01*
X23977D01*
Y171246D01*
X24051D01*
Y171023D01*
X24125D01*
Y170801D01*
X24199D01*
Y170727D01*
Y170652D01*
Y170578D01*
X24273D01*
Y170355D01*
X24348D01*
Y170133D01*
X24422D01*
Y169910D01*
X24496D01*
Y169688D01*
X24570D01*
Y169465D01*
X24644D01*
Y169242D01*
X24719D01*
Y169020D01*
X24793D01*
Y168797D01*
X24867D01*
Y168648D01*
X24941D01*
Y168426D01*
X25016D01*
Y168203D01*
X25090D01*
Y167980D01*
X25164D01*
Y167758D01*
X25238D01*
Y167535D01*
X25312D01*
Y167313D01*
X25387D01*
Y167090D01*
X25461D01*
Y166867D01*
X25535D01*
Y166644D01*
X25609D01*
Y166422D01*
X25684D01*
Y166199D01*
X25758D01*
Y165977D01*
X25832D01*
Y165754D01*
X25906D01*
Y165531D01*
X25981D01*
Y165309D01*
X26055D01*
Y165086D01*
X26129D01*
Y164863D01*
X26203D01*
Y164641D01*
X26277D01*
Y164418D01*
X26352D01*
Y164195D01*
X26426D01*
Y164047D01*
X26500D01*
Y164270D01*
X26574D01*
Y164418D01*
X26648D01*
Y164641D01*
X26723D01*
Y164789D01*
X26797D01*
Y165012D01*
X26871D01*
Y165234D01*
X26945D01*
Y165383D01*
X27020D01*
Y165606D01*
X27094D01*
Y165754D01*
X27168D01*
Y165977D01*
X27242D01*
Y166199D01*
X27316D01*
Y166348D01*
X27391D01*
Y166570D01*
X27465D01*
Y166719D01*
X27539D01*
Y166941D01*
X27613D01*
Y167090D01*
X27687D01*
Y167313D01*
X27762D01*
Y167535D01*
X27836D01*
Y167684D01*
X27910D01*
Y167906D01*
X27984D01*
Y168055D01*
X28059D01*
Y168277D01*
X28133D01*
Y168500D01*
X28207D01*
Y168648D01*
X28281D01*
Y168871D01*
X28356D01*
Y169020D01*
X28430D01*
Y169242D01*
X28504D01*
Y169465D01*
X28578D01*
Y169613D01*
X28652D01*
Y169836D01*
X28727D01*
Y169984D01*
X28801D01*
Y170207D01*
X28875D01*
Y170355D01*
X28949D01*
Y170578D01*
X29023D01*
Y170801D01*
X29098D01*
Y170949D01*
X29172D01*
Y171172D01*
X29246D01*
Y171320D01*
X29320D01*
Y171543D01*
X29395D01*
Y171766D01*
X29469D01*
Y171914D01*
X29543D01*
Y172137D01*
X29617D01*
Y172211D01*
D02*
G37*
G36*
X29766Y171617D02*
X29691D01*
Y171395D01*
X29617D01*
Y171172D01*
X29543D01*
Y171023D01*
X29469D01*
Y170801D01*
X29395D01*
Y170652D01*
X29320D01*
Y170430D01*
X29246D01*
Y170207D01*
X29172D01*
Y170059D01*
X29098D01*
Y169836D01*
X29023D01*
Y169688D01*
X28949D01*
Y169465D01*
X28875D01*
Y169242D01*
X28801D01*
Y169094D01*
X28727D01*
Y168871D01*
X28652D01*
Y168723D01*
X28578D01*
Y168500D01*
X28504D01*
Y168352D01*
X28430D01*
Y168129D01*
X28356D01*
Y167906D01*
X28281D01*
Y167758D01*
X28207D01*
Y167535D01*
X28133D01*
Y167387D01*
X28059D01*
Y167164D01*
X27984D01*
Y166941D01*
X27910D01*
Y166793D01*
X27836D01*
Y166570D01*
X27762D01*
Y166422D01*
X27687D01*
Y166199D01*
X27613D01*
Y165977D01*
X27539D01*
Y165828D01*
X27465D01*
Y165606D01*
X27391D01*
Y165457D01*
X27316D01*
Y165234D01*
X27242D01*
Y165086D01*
X27168D01*
Y164863D01*
X27094D01*
Y164641D01*
X27020D01*
Y164492D01*
X26945D01*
Y164270D01*
X26871D01*
Y164121D01*
X26797D01*
Y163898D01*
X26723D01*
Y163676D01*
X26648D01*
Y163602D01*
X33402D01*
Y163527D01*
X35629D01*
Y164121D01*
X35555D01*
Y164641D01*
X35480D01*
Y165160D01*
X35406D01*
Y165680D01*
X35332D01*
Y166273D01*
X35258D01*
Y166793D01*
X35184D01*
Y167313D01*
X35109D01*
Y167832D01*
X35035D01*
Y168426D01*
X34961D01*
Y168945D01*
X34887D01*
Y169465D01*
X34813D01*
Y169984D01*
X34738D01*
Y170578D01*
X34664D01*
Y171098D01*
X34590D01*
Y171469D01*
X34516D01*
Y171172D01*
X34441D01*
Y170875D01*
X34367D01*
Y170578D01*
X34293D01*
Y170281D01*
X34219D01*
Y169984D01*
X34144D01*
Y169688D01*
X34070D01*
Y169391D01*
X33996D01*
Y169094D01*
X33922D01*
Y168797D01*
X33848D01*
Y168500D01*
X33773D01*
Y168203D01*
X33699D01*
Y167906D01*
X33625D01*
Y167609D01*
X33551D01*
Y167313D01*
X33477D01*
Y167016D01*
X33402D01*
Y166719D01*
X33328D01*
Y166422D01*
X33254D01*
Y166125D01*
X33180D01*
Y165828D01*
X33105D01*
Y165531D01*
X33031D01*
Y165234D01*
X32957D01*
Y164937D01*
X32883D01*
Y164641D01*
X32809D01*
Y164344D01*
X32734D01*
Y163973D01*
X32660D01*
Y163676D01*
X32512D01*
Y163898D01*
X32438D01*
Y164121D01*
X32363D01*
Y164344D01*
X32289D01*
Y164418D01*
Y164492D01*
X32215D01*
Y164715D01*
X32141D01*
Y164937D01*
X32066D01*
Y165160D01*
X31992D01*
Y165383D01*
X31918D01*
Y165606D01*
X31844D01*
Y165754D01*
X31769D01*
Y165977D01*
X31695D01*
Y166199D01*
X31621D01*
Y166422D01*
X31547D01*
Y166644D01*
X31473D01*
Y166867D01*
X31398D01*
Y167016D01*
X31324D01*
Y167238D01*
X31250D01*
Y167461D01*
X31176D01*
Y167684D01*
X31102D01*
Y167906D01*
X31027D01*
Y168129D01*
X30953D01*
Y168352D01*
X30879D01*
Y168500D01*
X30805D01*
Y168723D01*
X30730D01*
Y168945D01*
X30656D01*
Y169168D01*
X30582D01*
Y169391D01*
X30508D01*
Y169613D01*
X30434D01*
Y169762D01*
X30359D01*
Y169984D01*
X30285D01*
Y170207D01*
X30211D01*
Y170430D01*
X30137D01*
Y170652D01*
X30062D01*
Y170875D01*
X29988D01*
Y171098D01*
X29914D01*
Y171246D01*
X29840D01*
Y171469D01*
X29766D01*
Y171617D01*
D02*
G37*
G36*
X23605Y171395D02*
X23531D01*
Y171172D01*
X23457D01*
Y170949D01*
X23383D01*
Y170652D01*
X23309D01*
Y170430D01*
X23234D01*
Y170207D01*
X23160D01*
Y169910D01*
X23086D01*
Y169688D01*
X23012D01*
Y169391D01*
X22938D01*
Y169168D01*
X22863D01*
Y168945D01*
X22789D01*
Y168648D01*
X22715D01*
Y168426D01*
X22641D01*
Y168129D01*
X22566D01*
Y167906D01*
X22492D01*
Y167684D01*
X22418D01*
Y167387D01*
X22344D01*
Y167164D01*
X22269D01*
Y166941D01*
X22195D01*
Y166644D01*
X22121D01*
Y166422D01*
X22047D01*
Y166125D01*
X21973D01*
Y165902D01*
X21898D01*
Y165680D01*
X21824D01*
Y165383D01*
X21750D01*
Y165160D01*
X21676D01*
Y164863D01*
X21602D01*
Y164641D01*
X21527D01*
Y164418D01*
X21453D01*
Y164121D01*
X21379D01*
Y163898D01*
X21305D01*
Y163676D01*
X21230D01*
Y163527D01*
X23828D01*
Y163602D01*
X26277D01*
Y163676D01*
X26203D01*
Y163824D01*
X26129D01*
Y164047D01*
X26055D01*
Y164270D01*
X25981D01*
Y164492D01*
X25906D01*
Y164715D01*
X25832D01*
Y164937D01*
X25758D01*
Y165160D01*
X25684D01*
Y165383D01*
X25609D01*
Y165606D01*
X25535D01*
Y165828D01*
X25461D01*
Y166051D01*
X25387D01*
Y166273D01*
X25312D01*
Y166496D01*
X25238D01*
Y166644D01*
X25164D01*
Y166867D01*
X25090D01*
Y167090D01*
X25016D01*
Y167313D01*
X24941D01*
Y167535D01*
X24867D01*
Y167758D01*
X24793D01*
Y167980D01*
X24719D01*
Y168203D01*
X24644D01*
Y168426D01*
X24570D01*
Y168648D01*
X24496D01*
Y168871D01*
X24422D01*
Y169094D01*
X24348D01*
Y169316D01*
X24273D01*
Y169539D01*
X24199D01*
Y169762D01*
X24125D01*
Y169984D01*
X24051D01*
Y170133D01*
X23977D01*
Y170355D01*
X23902D01*
Y170578D01*
X23828D01*
Y170801D01*
X23754D01*
Y171023D01*
X23680D01*
Y171246D01*
X23605D01*
Y171395D01*
D02*
G37*
G36*
X20117Y169020D02*
X20043D01*
Y167090D01*
X19969D01*
Y165457D01*
X19894D01*
Y163973D01*
X19820D01*
Y163527D01*
X20934D01*
Y163750D01*
X20859D01*
Y164270D01*
X20785D01*
Y164789D01*
X20711D01*
Y165234D01*
X20637D01*
Y165754D01*
X20563D01*
Y166273D01*
X20488D01*
Y166719D01*
X20414D01*
Y167238D01*
X20340D01*
Y167758D01*
X20266D01*
Y168203D01*
X20191D01*
Y168797D01*
X20117D01*
Y169020D01*
D02*
G37*
G36*
X49508Y163230D02*
X6313D01*
Y163008D01*
X25312D01*
Y162934D01*
X49508D01*
Y163230D01*
D02*
G37*
G36*
X48766Y162785D02*
X40453D01*
Y162711D01*
X24793D01*
Y162637D01*
X9133D01*
Y162563D01*
X9059D01*
Y162637D01*
X8836D01*
Y162563D01*
X7203D01*
Y161523D01*
X9059D01*
Y161449D01*
X27984D01*
Y161375D01*
X46465D01*
Y161301D01*
X48691D01*
Y162043D01*
X48766D01*
Y162785D01*
D02*
G37*
G36*
X47059Y161152D02*
X37707D01*
Y161078D01*
X16555D01*
Y161004D01*
X8910D01*
Y160113D01*
X26352D01*
Y160039D01*
X47059D01*
Y161152D01*
D02*
G37*
G36*
X31918Y159816D02*
X27836D01*
Y159742D01*
X27762D01*
Y159816D01*
X27687D01*
Y159742D01*
X26129D01*
Y159816D01*
X26055D01*
Y157441D01*
X25387D01*
Y159816D01*
X25312D01*
Y159742D01*
X19598D01*
Y158777D01*
X19523D01*
Y157812D01*
X19449D01*
Y156848D01*
X19375D01*
Y155883D01*
X19301D01*
Y154918D01*
X19227D01*
Y153953D01*
X19152D01*
Y152988D01*
X19078D01*
Y152023D01*
X19004D01*
Y151133D01*
X18930D01*
Y150168D01*
X18856D01*
Y149203D01*
X18781D01*
Y148758D01*
X25832D01*
Y148684D01*
X32512D01*
Y148980D01*
X32438D01*
Y150391D01*
X32363D01*
Y151875D01*
X32289D01*
Y153434D01*
X32215D01*
Y154918D01*
X32141D01*
Y156476D01*
X32066D01*
Y158035D01*
X31992D01*
Y159594D01*
X31918D01*
Y159816D01*
D02*
G37*
G36*
X12102Y159742D02*
X10988D01*
Y159668D01*
X10766D01*
Y159742D01*
X10691D01*
Y159594D01*
X10766D01*
Y159520D01*
X10840D01*
Y159445D01*
X10914D01*
Y159297D01*
X10988D01*
Y159223D01*
X11063D01*
Y159074D01*
X11137D01*
Y159000D01*
X11211D01*
Y158851D01*
X11285D01*
Y158703D01*
X11359D01*
Y158555D01*
X11434D01*
Y158332D01*
X11508D01*
Y158184D01*
X11582D01*
Y157961D01*
X11656D01*
Y157812D01*
X11731D01*
Y157664D01*
X12102D01*
Y158926D01*
Y159000D01*
Y159742D01*
D02*
G37*
G36*
X19078Y159594D02*
X19004D01*
Y158926D01*
X19078D01*
Y159594D01*
D02*
G37*
G36*
X16332Y159742D02*
X12250D01*
Y157441D01*
X12324D01*
Y159668D01*
X16332D01*
Y159594D01*
X16555D01*
Y159445D01*
X16629D01*
Y159297D01*
X16703D01*
Y159074D01*
X16777D01*
Y158926D01*
X16852D01*
Y158703D01*
X16926D01*
Y158926D01*
X16852D01*
Y159074D01*
X16777D01*
Y159297D01*
X16703D01*
Y159445D01*
X16629D01*
Y159594D01*
X16555D01*
Y159668D01*
X16332D01*
Y159742D01*
D02*
G37*
G36*
X19004Y158926D02*
X18930D01*
Y158703D01*
Y158629D01*
Y158258D01*
X19004D01*
Y158926D01*
D02*
G37*
G36*
X35406Y159816D02*
X34516D01*
Y158035D01*
Y157961D01*
Y157812D01*
X34441D01*
Y157738D01*
X34738D01*
Y157961D01*
X34813D01*
Y158258D01*
X34887D01*
Y158481D01*
X34961D01*
Y158777D01*
X35035D01*
Y159000D01*
X35109D01*
Y159223D01*
X35184D01*
Y159445D01*
X35258D01*
Y159594D01*
X35332D01*
Y159742D01*
X35406D01*
Y159816D01*
D02*
G37*
G36*
X44981D02*
X43570D01*
Y157812D01*
X43496D01*
Y157738D01*
X43719D01*
Y157664D01*
X43793D01*
Y157738D01*
X43867D01*
Y157961D01*
X43941D01*
Y158109D01*
X44016D01*
Y158332D01*
X44090D01*
Y158481D01*
X44164D01*
Y158629D01*
X44238D01*
Y158777D01*
X44313D01*
Y158926D01*
X44387D01*
Y159074D01*
X44461D01*
Y159223D01*
X44535D01*
Y159297D01*
X44609D01*
Y159445D01*
X44684D01*
Y159520D01*
X44758D01*
Y159594D01*
X44832D01*
Y159742D01*
X44981D01*
Y159816D01*
D02*
G37*
G36*
X25832D02*
X25684D01*
Y159742D01*
X25609D01*
Y159223D01*
Y159148D01*
Y157664D01*
X25906D01*
Y159742D01*
X25832D01*
Y159816D01*
D02*
G37*
G36*
X17816Y159742D02*
X17000D01*
Y159594D01*
X17074D01*
Y159445D01*
X17148D01*
Y159223D01*
X17223D01*
Y159000D01*
X17297D01*
Y158703D01*
X17371D01*
Y158332D01*
X17445D01*
Y157664D01*
X17816D01*
Y159742D01*
D02*
G37*
G36*
X17000Y158629D02*
X16926D01*
Y158406D01*
X17000D01*
Y158184D01*
X17074D01*
Y157887D01*
X17148D01*
Y157664D01*
X17223D01*
Y157887D01*
X17148D01*
Y158109D01*
Y158184D01*
X17074D01*
Y158406D01*
X17000D01*
Y158629D01*
D02*
G37*
G36*
X18930Y158258D02*
X18856D01*
Y157590D01*
X18930D01*
Y158258D01*
D02*
G37*
G36*
X19152Y159742D02*
X17965D01*
Y157516D01*
X18039D01*
Y159668D01*
X19152D01*
Y159742D01*
D02*
G37*
G36*
X43273Y159816D02*
X35629D01*
Y159742D01*
X35555D01*
Y159668D01*
X35480D01*
Y159520D01*
X35406D01*
Y159371D01*
X35332D01*
Y159223D01*
X35258D01*
Y159000D01*
X35184D01*
Y158777D01*
X35109D01*
Y158406D01*
X35035D01*
Y157961D01*
X34961D01*
Y157516D01*
Y157441D01*
X34219D01*
Y158184D01*
X34144D01*
Y159816D01*
X32512D01*
Y159371D01*
X32586D01*
Y158481D01*
X32660D01*
Y157516D01*
X32734D01*
Y156551D01*
X32809D01*
Y155512D01*
X32883D01*
Y154547D01*
X32957D01*
Y153582D01*
X33031D01*
Y152617D01*
X33105D01*
Y151652D01*
X33180D01*
Y150613D01*
X33254D01*
Y149574D01*
X33328D01*
Y148684D01*
X45648D01*
Y148758D01*
X45574D01*
Y149277D01*
X45500D01*
Y149871D01*
X45426D01*
Y150465D01*
X45352D01*
Y151133D01*
X45277D01*
Y151727D01*
X45203D01*
Y152320D01*
X45129D01*
Y152914D01*
X45055D01*
Y153508D01*
X44981D01*
Y154101D01*
X44906D01*
Y154695D01*
X44832D01*
Y155289D01*
X44758D01*
Y155883D01*
X44684D01*
Y156476D01*
X44609D01*
Y157070D01*
X44535D01*
Y157664D01*
X44461D01*
Y158258D01*
X44387D01*
Y158555D01*
X44313D01*
Y158332D01*
X44238D01*
Y158184D01*
X44164D01*
Y157961D01*
X44090D01*
Y157738D01*
X44016D01*
Y157516D01*
X43719D01*
Y157441D01*
X43273D01*
Y159816D01*
D02*
G37*
G36*
X17297Y157590D02*
X17223D01*
Y157441D01*
X17297D01*
Y157367D01*
X17965D01*
Y157441D01*
X17297D01*
Y157516D01*
Y157590D01*
D02*
G37*
G36*
X11359Y158109D02*
X11285D01*
Y157219D01*
X11359D01*
Y157738D01*
X11434D01*
Y157590D01*
X11508D01*
Y157441D01*
X11582D01*
Y157367D01*
X12250D01*
Y157441D01*
X11582D01*
Y157590D01*
X11508D01*
Y157738D01*
X11434D01*
Y157887D01*
X11359D01*
Y158109D01*
D02*
G37*
G36*
X18856Y157590D02*
X18781D01*
Y156848D01*
X18856D01*
Y157590D01*
D02*
G37*
G36*
X11285Y157219D02*
X11211D01*
Y156476D01*
X11285D01*
Y157219D01*
D02*
G37*
G36*
X18781Y156848D02*
X18707D01*
Y156180D01*
X18781D01*
Y156848D01*
D02*
G37*
G36*
X11211Y156476D02*
X11137D01*
Y155734D01*
X11211D01*
Y156476D01*
D02*
G37*
G36*
X18707Y156180D02*
X18633D01*
Y155512D01*
X18707D01*
Y156180D01*
D02*
G37*
G36*
X11137Y155734D02*
X11063D01*
Y154992D01*
X11137D01*
Y155734D01*
D02*
G37*
G36*
X18633Y155512D02*
X18559D01*
Y154844D01*
X18633D01*
Y155512D01*
D02*
G37*
G36*
X11063Y154918D02*
X10988D01*
Y154176D01*
X11063D01*
Y154918D01*
D02*
G37*
G36*
X18559Y154769D02*
X18484D01*
Y154101D01*
X18559D01*
Y154769D01*
D02*
G37*
G36*
X18484Y154101D02*
X18410D01*
Y153434D01*
X18484D01*
Y154101D01*
D02*
G37*
G36*
X10988Y154176D02*
X10914D01*
Y153434D01*
X10988D01*
Y154176D01*
D02*
G37*
G36*
X18410Y153434D02*
X18336D01*
Y152691D01*
X18410D01*
Y153434D01*
D02*
G37*
G36*
X10914D02*
X10840D01*
Y153137D01*
Y153062D01*
Y152691D01*
X10914D01*
Y153434D01*
D02*
G37*
G36*
X18336Y152691D02*
X18262D01*
Y152023D01*
X18336D01*
Y152691D01*
D02*
G37*
G36*
X10840Y152617D02*
X10766D01*
Y151875D01*
X10840D01*
Y152617D01*
D02*
G37*
G36*
X18262Y152023D02*
X18188D01*
Y151355D01*
X18262D01*
Y152023D01*
D02*
G37*
G36*
X10766Y151875D02*
X10691D01*
Y151133D01*
X10766D01*
Y151355D01*
Y151430D01*
Y151875D01*
D02*
G37*
G36*
X18188Y151355D02*
X18113D01*
Y150613D01*
X18188D01*
Y151355D01*
D02*
G37*
G36*
X10691Y151133D02*
X10617D01*
Y150391D01*
X10691D01*
Y151133D01*
D02*
G37*
G36*
X18113Y150613D02*
X18039D01*
Y150316D01*
Y150242D01*
Y149945D01*
X18113D01*
Y150613D01*
D02*
G37*
G36*
X10617Y150316D02*
X10543D01*
Y150242D01*
Y149574D01*
X10617D01*
Y150316D01*
D02*
G37*
G36*
X18039Y149945D02*
X17965D01*
Y149277D01*
X18039D01*
Y149945D01*
D02*
G37*
G36*
X10543Y149574D02*
X10469D01*
Y148906D01*
X10543D01*
Y149574D01*
D02*
G37*
G36*
X17965Y149203D02*
X17891D01*
Y148832D01*
X10395D01*
Y148758D01*
X17965D01*
Y149203D01*
D02*
G37*
G36*
X54777Y148535D02*
X46762D01*
Y148461D01*
X17223D01*
Y148387D01*
X969D01*
Y148313D01*
X895D01*
Y148164D01*
X969D01*
Y148090D01*
X35109D01*
Y148016D01*
X54777D01*
Y148238D01*
Y148313D01*
Y148535D01*
D02*
G37*
G36*
X34738Y147867D02*
X34664D01*
Y147793D01*
X34441D01*
Y147867D01*
X34367D01*
Y141707D01*
X34738D01*
Y145269D01*
Y145344D01*
Y147719D01*
X34813D01*
Y147793D01*
X34738D01*
Y147867D01*
D02*
G37*
G36*
X32586Y147793D02*
X32512D01*
Y147719D01*
X32586D01*
Y147793D01*
D02*
G37*
G36*
X17891D02*
X17816D01*
Y147719D01*
X17891D01*
Y147793D01*
D02*
G37*
G36*
X14254D02*
X13957D01*
Y141781D01*
X14254D01*
Y141855D01*
X14031D01*
Y142449D01*
Y142523D01*
Y147719D01*
X14180D01*
Y145789D01*
X14254D01*
Y147793D01*
D02*
G37*
G36*
X33699Y147867D02*
X33625D01*
Y147793D01*
X33402D01*
Y147570D01*
X33477D01*
Y146531D01*
X33551D01*
Y145492D01*
X33625D01*
Y144305D01*
X33699D01*
Y143785D01*
X33773D01*
Y144973D01*
X33699D01*
Y147719D01*
X33773D01*
Y147793D01*
X33699D01*
Y147867D01*
D02*
G37*
G36*
X46984D02*
X46687D01*
Y146086D01*
Y146012D01*
Y143859D01*
X46762D01*
Y143340D01*
X46836D01*
Y142820D01*
X46910D01*
Y142301D01*
X46984D01*
Y147867D01*
D02*
G37*
G36*
X16184Y147645D02*
X16109D01*
Y141930D01*
X16184D01*
Y145418D01*
Y145492D01*
Y147645D01*
D02*
G37*
G36*
X14180Y145492D02*
X14105D01*
Y141930D01*
X14180D01*
Y144305D01*
Y144379D01*
Y145492D01*
D02*
G37*
G36*
X10543Y147793D02*
X10469D01*
Y141855D01*
X10395D01*
Y147793D01*
X10320D01*
Y141781D01*
X10543D01*
Y145047D01*
Y145121D01*
Y147793D01*
D02*
G37*
G36*
X28207D02*
X27910D01*
Y141781D01*
X28207D01*
Y145566D01*
Y145641D01*
Y147793D01*
D02*
G37*
G36*
X27316D02*
X27020D01*
Y141781D01*
X27316D01*
Y141855D01*
X27242D01*
Y147719D01*
X27316D01*
Y147793D01*
D02*
G37*
G36*
X26352D02*
X26055D01*
Y141781D01*
X26352D01*
Y147793D01*
D02*
G37*
G36*
X25461D02*
X25164D01*
Y141781D01*
X25461D01*
Y143340D01*
Y143414D01*
Y147793D01*
D02*
G37*
G36*
X24496D02*
X24199D01*
Y141781D01*
X24496D01*
Y146234D01*
Y146309D01*
Y147793D01*
D02*
G37*
G36*
X23605D02*
X23309D01*
Y142523D01*
Y142449D01*
Y141781D01*
X23605D01*
Y147793D01*
D02*
G37*
G36*
X22715D02*
X22418D01*
Y142820D01*
Y142746D01*
Y141781D01*
X22715D01*
Y141855D01*
X22641D01*
Y147719D01*
X22715D01*
Y147793D01*
D02*
G37*
G36*
X21750D02*
X21453D01*
Y141781D01*
X21750D01*
Y142078D01*
Y142152D01*
Y147793D01*
D02*
G37*
G36*
X20859D02*
X20563D01*
Y143711D01*
Y143637D01*
Y141781D01*
X20859D01*
Y147793D01*
D02*
G37*
G36*
X20340D02*
X20117D01*
Y141781D01*
X20340D01*
Y142301D01*
Y142375D01*
Y147793D01*
D02*
G37*
G36*
X19894D02*
X19598D01*
Y141781D01*
X19894D01*
Y145047D01*
Y145121D01*
Y147793D01*
D02*
G37*
G36*
X19449D02*
X19227D01*
Y144527D01*
Y144453D01*
Y141781D01*
X19449D01*
Y147793D01*
D02*
G37*
G36*
X19004D02*
X18707D01*
Y147125D01*
Y147051D01*
Y141781D01*
X19004D01*
Y147793D01*
D02*
G37*
G36*
X18484D02*
X18262D01*
Y141781D01*
X18484D01*
Y142152D01*
Y142227D01*
Y147793D01*
D02*
G37*
G36*
X17594D02*
X17371D01*
Y143785D01*
Y143711D01*
Y141781D01*
X17594D01*
Y147793D01*
D02*
G37*
G36*
X17148D02*
X16852D01*
Y143043D01*
Y142969D01*
Y141930D01*
X16926D01*
Y147719D01*
X17074D01*
Y141855D01*
X16852D01*
Y141781D01*
X17148D01*
Y147793D01*
D02*
G37*
G36*
X16703D02*
X16406D01*
Y141781D01*
X16703D01*
Y141855D01*
X16629D01*
Y146680D01*
Y146754D01*
Y147719D01*
X16703D01*
Y147793D01*
D02*
G37*
G36*
X16258D02*
X15738D01*
Y141781D01*
X16258D01*
Y141855D01*
X15812D01*
Y144082D01*
Y144156D01*
Y147719D01*
X16258D01*
Y147793D01*
D02*
G37*
G36*
X15441D02*
X14773D01*
Y141781D01*
X15516D01*
Y143637D01*
X15441D01*
Y147793D01*
D02*
G37*
G36*
X13734D02*
X13512D01*
Y141781D01*
X13734D01*
Y144156D01*
Y144230D01*
Y147793D01*
D02*
G37*
G36*
X13289D02*
X13066D01*
Y141781D01*
X13363D01*
Y141855D01*
X13289D01*
Y143043D01*
Y143117D01*
Y147793D01*
D02*
G37*
G36*
X12844D02*
X12621D01*
Y141930D01*
Y141855D01*
Y141781D01*
X12844D01*
Y147793D01*
D02*
G37*
G36*
X12398D02*
X12176D01*
Y146383D01*
Y146309D01*
Y141855D01*
X12102D01*
Y141781D01*
X12398D01*
Y147793D01*
D02*
G37*
G36*
X11953D02*
X11731D01*
Y141781D01*
X11953D01*
Y144082D01*
Y144156D01*
Y147793D01*
D02*
G37*
G36*
X11508D02*
X11211D01*
Y142078D01*
Y142004D01*
Y141781D01*
X11508D01*
Y147793D01*
D02*
G37*
G36*
X10988D02*
X10766D01*
Y141781D01*
X10988D01*
Y145641D01*
Y145715D01*
Y147793D01*
D02*
G37*
G36*
X10098D02*
X9875D01*
Y146457D01*
Y146383D01*
Y141781D01*
X10098D01*
Y147793D01*
D02*
G37*
G36*
X9133D02*
X8910D01*
Y141781D01*
X9133D01*
Y147793D01*
D02*
G37*
G36*
X8762D02*
X8465D01*
Y146160D01*
Y146086D01*
Y142227D01*
X8391D01*
Y141781D01*
X8465D01*
Y141855D01*
X8539D01*
Y142523D01*
X8613D01*
Y143043D01*
X8687D01*
Y143562D01*
X8762D01*
Y147793D01*
D02*
G37*
G36*
X8242D02*
X8019D01*
Y146086D01*
Y146012D01*
Y141781D01*
X8242D01*
Y147793D01*
D02*
G37*
G36*
X7797D02*
X7500D01*
Y141781D01*
X7797D01*
Y142449D01*
Y142523D01*
Y147793D01*
D02*
G37*
G36*
X7351D02*
X7129D01*
Y141781D01*
X7351D01*
Y145492D01*
Y145566D01*
Y147793D01*
D02*
G37*
G36*
X6906D02*
X6609D01*
Y144527D01*
Y144453D01*
Y141781D01*
X6906D01*
Y147793D01*
D02*
G37*
G36*
X6387D02*
X6164D01*
Y146012D01*
Y145938D01*
Y141781D01*
X6387D01*
Y147793D01*
D02*
G37*
G36*
X6016D02*
X5645D01*
Y141781D01*
X6016D01*
Y145047D01*
Y145121D01*
Y147793D01*
D02*
G37*
G36*
X5496D02*
X5273D01*
Y145863D01*
Y145789D01*
Y141781D01*
X5496D01*
Y147793D01*
D02*
G37*
G36*
X5051D02*
X4754D01*
Y141930D01*
Y141855D01*
Y141781D01*
X5051D01*
Y147793D01*
D02*
G37*
G36*
X4531D02*
X4309D01*
Y145492D01*
Y145418D01*
Y141781D01*
X4531D01*
Y147793D01*
D02*
G37*
G36*
X4160D02*
X3863D01*
Y147719D01*
X3789D01*
Y147645D01*
X3863D01*
Y141930D01*
X3789D01*
Y141855D01*
X3863D01*
Y141781D01*
X4160D01*
Y145863D01*
Y145938D01*
Y147793D01*
D02*
G37*
G36*
X3641D02*
X3418D01*
Y147199D01*
Y147125D01*
Y141781D01*
X3641D01*
Y147793D01*
D02*
G37*
G36*
X3195D02*
X2601D01*
Y146160D01*
Y146086D01*
Y141781D01*
X3195D01*
Y147793D01*
D02*
G37*
G36*
X2453D02*
X1711D01*
Y146828D01*
X1785D01*
Y141781D01*
X2453D01*
Y146309D01*
Y146383D01*
Y147793D01*
D02*
G37*
G36*
X50695Y147867D02*
X50398D01*
Y147793D01*
X50324D01*
Y147719D01*
X50398D01*
Y141781D01*
X50324D01*
Y141707D01*
X50695D01*
Y146457D01*
Y146531D01*
Y147867D01*
D02*
G37*
G36*
X50176Y147793D02*
X49953D01*
Y141707D01*
X50176D01*
Y143859D01*
Y143934D01*
Y147793D01*
D02*
G37*
G36*
X49731Y147867D02*
X49434D01*
Y141707D01*
X49805D01*
Y141781D01*
X49731D01*
Y145492D01*
Y145566D01*
Y147719D01*
X49805D01*
Y147793D01*
X49731D01*
Y147867D01*
D02*
G37*
G36*
X49285Y147793D02*
X49062D01*
Y142078D01*
Y142004D01*
Y141707D01*
X49285D01*
Y147793D01*
D02*
G37*
G36*
X48840Y147867D02*
X48543D01*
Y141707D01*
X48840D01*
Y141930D01*
Y142004D01*
Y147867D01*
D02*
G37*
G36*
X48320Y147793D02*
X48098D01*
Y141707D01*
X48320D01*
Y145047D01*
Y145121D01*
Y147793D01*
D02*
G37*
G36*
X47949Y147867D02*
X47578D01*
Y141707D01*
X47949D01*
Y147867D01*
D02*
G37*
G36*
X47430Y147793D02*
X47207D01*
Y147719D01*
Y147645D01*
Y141707D01*
X47430D01*
Y147793D01*
D02*
G37*
G36*
X46465D02*
X46242D01*
Y141707D01*
X46465D01*
Y145418D01*
Y145492D01*
Y147793D01*
D02*
G37*
G36*
X45797Y147125D02*
X45723D01*
Y146828D01*
X45797D01*
Y143562D01*
Y143488D01*
Y141707D01*
X46094D01*
Y145047D01*
X46020D01*
Y145641D01*
X45945D01*
Y146234D01*
X45871D01*
Y146902D01*
X45797D01*
Y147125D01*
D02*
G37*
G36*
X45574Y147793D02*
X45352D01*
Y141707D01*
X45574D01*
Y143488D01*
Y143562D01*
Y147793D01*
D02*
G37*
G36*
X45129Y147867D02*
X44832D01*
Y142301D01*
Y142227D01*
Y141707D01*
X45129D01*
Y147867D01*
D02*
G37*
G36*
X44684Y147793D02*
X44461D01*
Y141707D01*
X44684D01*
Y146012D01*
Y146086D01*
Y147793D01*
D02*
G37*
G36*
X44238Y147867D02*
X43941D01*
Y144230D01*
Y144156D01*
Y141707D01*
X44238D01*
Y147867D01*
D02*
G37*
G36*
X43719Y147793D02*
X43496D01*
Y146086D01*
Y146012D01*
Y141707D01*
X43719D01*
Y147793D01*
D02*
G37*
G36*
X43273Y147867D02*
X43051D01*
Y147793D01*
X42976D01*
Y142301D01*
Y142227D01*
Y141707D01*
X43348D01*
Y147793D01*
X43273D01*
Y147867D01*
D02*
G37*
G36*
X42828Y147793D02*
X42606D01*
Y141707D01*
X42828D01*
Y147273D01*
Y147348D01*
Y147793D01*
D02*
G37*
G36*
X42383Y147867D02*
X42086D01*
Y145938D01*
Y145863D01*
Y141707D01*
X42383D01*
Y147867D01*
D02*
G37*
G36*
X41863Y147793D02*
X41641D01*
Y145789D01*
Y145715D01*
Y141707D01*
X41863D01*
Y147793D01*
D02*
G37*
G36*
X41492Y147867D02*
X41195D01*
Y141707D01*
X41492D01*
Y147867D01*
D02*
G37*
G36*
X40973Y147793D02*
X40750D01*
Y141707D01*
X40973D01*
Y143859D01*
Y143934D01*
Y147793D01*
D02*
G37*
G36*
X40527Y147867D02*
X40230D01*
Y142152D01*
Y142078D01*
Y141707D01*
X40527D01*
Y147867D01*
D02*
G37*
G36*
X40082Y147793D02*
X39785D01*
Y147719D01*
X39859D01*
Y142301D01*
Y142227D01*
Y141707D01*
X40082D01*
Y147793D01*
D02*
G37*
G36*
X39637Y147867D02*
X39340D01*
Y141707D01*
X39637D01*
Y141781D01*
Y141855D01*
Y147867D01*
D02*
G37*
G36*
X39117Y147793D02*
X38895D01*
Y145418D01*
Y145344D01*
Y141707D01*
X39117D01*
Y147793D01*
D02*
G37*
G36*
X38672Y147867D02*
X38449D01*
Y147793D01*
X38375D01*
Y143488D01*
Y143414D01*
Y141707D01*
X38746D01*
Y147793D01*
X38672D01*
Y147867D01*
D02*
G37*
G36*
X38226Y147793D02*
X38004D01*
Y144676D01*
Y144602D01*
Y141707D01*
X38226D01*
Y147793D01*
D02*
G37*
G36*
X37781Y147867D02*
X37484D01*
Y146828D01*
Y146754D01*
Y141707D01*
X37781D01*
Y147867D01*
D02*
G37*
G36*
X37262Y147793D02*
X37039D01*
Y145641D01*
Y145566D01*
Y141707D01*
X37262D01*
Y147793D01*
D02*
G37*
G36*
X36816Y147867D02*
X36223D01*
Y147793D01*
X36148D01*
Y144379D01*
Y144305D01*
Y141707D01*
X36891D01*
Y147793D01*
X36816D01*
Y147867D01*
D02*
G37*
G36*
X35926D02*
X35258D01*
Y145121D01*
X35332D01*
Y141707D01*
X36000D01*
Y145715D01*
Y145789D01*
Y146457D01*
X35926D01*
Y146531D01*
X36000D01*
Y147422D01*
X35926D01*
Y147719D01*
X36000D01*
Y147793D01*
X35926D01*
Y147867D01*
D02*
G37*
G36*
X34144D02*
X33996D01*
Y147793D01*
X33922D01*
Y146754D01*
Y146680D01*
Y141707D01*
X34144D01*
Y147867D01*
D02*
G37*
G36*
X33180D02*
X33031D01*
Y141707D01*
X33254D01*
Y146457D01*
Y146531D01*
Y147793D01*
X33180D01*
Y147867D01*
D02*
G37*
G36*
X32586Y147645D02*
X32512D01*
Y146383D01*
Y146309D01*
Y141707D01*
X32809D01*
Y143340D01*
X32734D01*
Y144750D01*
X32660D01*
Y146086D01*
X32586D01*
Y147645D01*
D02*
G37*
G36*
X32289Y147867D02*
X32215D01*
Y147793D01*
X32066D01*
Y141707D01*
X32289D01*
Y142449D01*
Y142523D01*
Y147867D01*
D02*
G37*
G36*
X31918Y147793D02*
X31621D01*
Y142152D01*
Y142078D01*
Y141707D01*
X31844D01*
Y141781D01*
X31918D01*
Y141855D01*
X31844D01*
Y147719D01*
X31918D01*
Y147793D01*
D02*
G37*
G36*
X31250Y147867D02*
X31176D01*
Y147645D01*
Y147570D01*
Y141707D01*
X31398D01*
Y147793D01*
X31250D01*
Y147867D01*
D02*
G37*
G36*
X30953Y147793D02*
X30656D01*
Y145195D01*
Y145121D01*
Y141707D01*
X30805D01*
Y141781D01*
X30879D01*
Y141707D01*
X30953D01*
Y147793D01*
D02*
G37*
G36*
X30508D02*
X30211D01*
Y145641D01*
Y145566D01*
Y141781D01*
X30285D01*
Y141707D01*
X30434D01*
Y141781D01*
X30508D01*
Y141855D01*
X30434D01*
Y147719D01*
X30508D01*
Y147793D01*
D02*
G37*
G36*
X30062D02*
X29766D01*
Y142301D01*
Y142227D01*
Y141707D01*
X29840D01*
Y141781D01*
X29914D01*
Y141707D01*
X29988D01*
Y141781D01*
X30062D01*
Y147793D01*
D02*
G37*
G36*
X29543D02*
X29320D01*
Y141707D01*
X29543D01*
Y146086D01*
Y146160D01*
Y147793D01*
D02*
G37*
G36*
X29098D02*
X28801D01*
Y141855D01*
Y141781D01*
X28875D01*
Y141707D01*
X28949D01*
Y141781D01*
X29023D01*
Y141707D01*
X29098D01*
Y147793D01*
D02*
G37*
G36*
X28652D02*
X28430D01*
Y141707D01*
X28652D01*
Y144527D01*
Y144602D01*
Y147793D01*
D02*
G37*
G36*
X27687D02*
X27465D01*
Y141707D01*
X27687D01*
Y144453D01*
Y144527D01*
Y147793D01*
D02*
G37*
G36*
X26797D02*
X26574D01*
Y147199D01*
Y147125D01*
Y141707D01*
X26797D01*
Y147793D01*
D02*
G37*
G36*
X25906D02*
X25609D01*
Y141781D01*
X25684D01*
Y141707D01*
X25832D01*
Y141781D01*
X25906D01*
Y141855D01*
X25832D01*
Y146977D01*
Y147051D01*
Y147719D01*
X25906D01*
Y147793D01*
D02*
G37*
G36*
X24941D02*
X24719D01*
Y141707D01*
X24941D01*
Y143340D01*
Y143414D01*
Y147793D01*
D02*
G37*
G36*
X24051D02*
X23828D01*
Y141707D01*
X23977D01*
Y141781D01*
X24051D01*
Y144082D01*
Y144156D01*
Y147793D01*
D02*
G37*
G36*
X23086D02*
X22863D01*
Y141781D01*
X22938D01*
Y141707D01*
X23086D01*
Y144898D01*
Y144973D01*
Y147793D01*
D02*
G37*
G36*
X22195D02*
X21973D01*
Y146012D01*
Y145938D01*
Y141707D01*
X22121D01*
Y141781D01*
X22195D01*
Y147793D01*
D02*
G37*
G36*
X21305D02*
X21008D01*
Y141781D01*
X21156D01*
Y141707D01*
X21230D01*
Y141781D01*
X21305D01*
Y141855D01*
X21230D01*
Y147719D01*
X21305D01*
Y147793D01*
D02*
G37*
G36*
X53961Y147867D02*
X53219D01*
Y146309D01*
X53293D01*
Y141633D01*
X53961D01*
Y147867D01*
D02*
G37*
G36*
X52773D02*
X52180D01*
Y147273D01*
Y147199D01*
Y141707D01*
X52254D01*
Y141633D01*
X52699D01*
Y146606D01*
X52773D01*
Y147867D01*
D02*
G37*
G36*
X52031Y147793D02*
X51809D01*
Y141781D01*
Y141707D01*
Y141633D01*
X51957D01*
Y141707D01*
X52031D01*
Y147793D01*
D02*
G37*
G36*
X51586Y147867D02*
X51289D01*
Y141707D01*
X51512D01*
Y141633D01*
X51586D01*
Y142449D01*
Y142523D01*
Y147867D01*
D02*
G37*
G36*
X51066Y147793D02*
X50844D01*
Y141707D01*
X50918D01*
Y141633D01*
X51066D01*
Y142004D01*
Y142078D01*
Y147793D01*
D02*
G37*
G36*
X54777Y141559D02*
X43051D01*
Y141484D01*
X42828D01*
Y141559D01*
X42606D01*
Y141484D01*
X13734D01*
Y141410D01*
X13660D01*
Y141484D01*
X13586D01*
Y141410D01*
X13141D01*
Y141484D01*
X13066D01*
Y141410D01*
X895D01*
Y141187D01*
X969D01*
Y141113D01*
X42531D01*
Y141039D01*
X42606D01*
Y141113D01*
X42680D01*
Y141039D01*
X54777D01*
Y141559D01*
D02*
G37*
G36*
X14254Y140816D02*
X9652D01*
Y140668D01*
X9726D01*
Y140742D01*
X14180D01*
Y140445D01*
X9652D01*
Y140668D01*
X9578D01*
Y140371D01*
X14254D01*
Y140816D01*
D02*
G37*
G36*
X17148D02*
X15738D01*
Y140371D01*
X17074D01*
Y140668D01*
X17000D01*
Y140445D01*
X15812D01*
Y140742D01*
X17148D01*
Y140816D01*
D02*
G37*
G36*
X8316D02*
X2601D01*
Y140371D01*
X8316D01*
Y140816D01*
D02*
G37*
G36*
X2453D02*
X1785D01*
Y140371D01*
X2453D01*
Y140816D01*
D02*
G37*
G36*
X32883D02*
X18113D01*
Y140297D01*
X32957D01*
Y140668D01*
X32883D01*
Y140816D01*
D02*
G37*
G36*
X15516D02*
X14773D01*
Y140445D01*
Y140371D01*
Y140297D01*
X15516D01*
Y140816D01*
D02*
G37*
G36*
X46539Y140891D02*
X36148D01*
Y140223D01*
X46687D01*
Y140297D01*
X46613D01*
Y140816D01*
X46539D01*
Y140891D01*
D02*
G37*
G36*
X36000D02*
X35332D01*
Y140816D01*
X35258D01*
Y140742D01*
Y140668D01*
Y140223D01*
X36000D01*
Y140891D01*
D02*
G37*
G36*
X34738D02*
X33922D01*
Y140297D01*
X33996D01*
Y140223D01*
X34738D01*
Y140891D01*
D02*
G37*
G36*
X53961D02*
X53293D01*
Y140371D01*
Y140297D01*
X53219D01*
Y140223D01*
X53293D01*
Y140148D01*
X53961D01*
Y140891D01*
D02*
G37*
G36*
X52699D02*
X47133D01*
Y140742D01*
X47207D01*
Y140223D01*
X48469D01*
Y140148D01*
X52699D01*
Y140223D01*
X52773D01*
Y140594D01*
Y140668D01*
X52699D01*
Y140891D01*
D02*
G37*
G36*
X54852Y140074D02*
X51066D01*
Y140000D01*
X50695D01*
Y140074D01*
X50621D01*
Y140000D01*
X31769D01*
Y139926D01*
X12027D01*
Y139852D01*
X1117D01*
Y138887D01*
X9133D01*
Y138813D01*
X30285D01*
Y138738D01*
X30656D01*
Y138813D01*
X30730D01*
Y138738D01*
X51809D01*
Y138664D01*
X54777D01*
Y138738D01*
X54852D01*
Y140074D01*
D02*
G37*
G36*
X16852Y138367D02*
X15738D01*
Y137996D01*
X15812D01*
Y137625D01*
Y137551D01*
Y137328D01*
X15887D01*
Y136660D01*
X15961D01*
Y135992D01*
X16035D01*
Y135324D01*
X16109D01*
Y134656D01*
X16184D01*
Y133988D01*
X16258D01*
Y134656D01*
X16184D01*
Y135324D01*
X16109D01*
Y135992D01*
X16035D01*
Y136660D01*
X15961D01*
Y137328D01*
X15887D01*
Y137996D01*
X15812D01*
Y138293D01*
X16777D01*
Y137773D01*
X16852D01*
Y138367D01*
D02*
G37*
G36*
X9355Y137773D02*
X9281D01*
Y137106D01*
X9355D01*
Y137773D01*
D02*
G37*
G36*
X16777D02*
X16703D01*
Y137031D01*
X16777D01*
Y137773D01*
D02*
G37*
G36*
X14402Y138367D02*
X9355D01*
Y137848D01*
X9430D01*
Y138293D01*
X14328D01*
Y137922D01*
X14402D01*
Y137328D01*
X14477D01*
Y136734D01*
X14551D01*
Y137328D01*
X14477D01*
Y137922D01*
X14402D01*
Y138367D01*
D02*
G37*
G36*
X9281Y137106D02*
X9207D01*
Y136438D01*
X9281D01*
Y137106D01*
D02*
G37*
G36*
X16703Y137031D02*
X16629D01*
Y136289D01*
X16703D01*
Y137031D01*
D02*
G37*
G36*
X9207Y136438D02*
X9133D01*
Y135695D01*
X9207D01*
Y136438D01*
D02*
G37*
G36*
X16629Y136289D02*
X16555D01*
Y135547D01*
X16629D01*
Y136289D01*
D02*
G37*
G36*
X9133Y135695D02*
X9059D01*
Y135324D01*
Y135250D01*
Y135027D01*
X9133D01*
Y135695D01*
D02*
G37*
G36*
X16555Y135547D02*
X16480D01*
Y134805D01*
X16555D01*
Y135547D01*
D02*
G37*
G36*
X9059Y135027D02*
X8984D01*
Y134359D01*
X9059D01*
Y135027D01*
D02*
G37*
G36*
X34738Y138441D02*
X34070D01*
Y137996D01*
X34144D01*
Y136957D01*
X34219D01*
Y135844D01*
X34293D01*
Y134879D01*
Y134805D01*
X34367D01*
Y134211D01*
X34441D01*
Y135176D01*
X34516D01*
Y136141D01*
X34590D01*
Y137106D01*
X34664D01*
Y138070D01*
X34738D01*
Y138441D01*
D02*
G37*
G36*
X16480Y134805D02*
X16406D01*
Y134062D01*
X16480D01*
Y134805D01*
D02*
G37*
G36*
X8984Y134359D02*
X8910D01*
Y133691D01*
X8984D01*
Y134359D01*
D02*
G37*
G36*
X16406Y134062D02*
X16332D01*
Y133914D01*
X16258D01*
Y133320D01*
X16332D01*
Y133246D01*
X16406D01*
Y134062D01*
D02*
G37*
G36*
X8910Y133691D02*
X8836D01*
Y133023D01*
X8910D01*
Y133691D01*
D02*
G37*
G36*
X8836Y132949D02*
X8762D01*
Y132281D01*
X8836D01*
Y132949D01*
D02*
G37*
G36*
X8762Y132281D02*
X8687D01*
Y131613D01*
X8762D01*
Y132281D01*
D02*
G37*
G36*
X8019Y138367D02*
X2750D01*
Y138293D01*
X2824D01*
Y138145D01*
X2898D01*
Y138070D01*
X2973D01*
Y137922D01*
X3047D01*
Y137773D01*
X3121D01*
Y137699D01*
X3195D01*
Y137551D01*
X3270D01*
Y137477D01*
X3344D01*
Y137328D01*
X3418D01*
Y137254D01*
X3492D01*
Y137106D01*
X3566D01*
Y137031D01*
X3641D01*
Y136883D01*
X3715D01*
Y136734D01*
X3789D01*
Y136660D01*
X3863D01*
Y136512D01*
X3938D01*
Y136438D01*
X4012D01*
Y136289D01*
X4086D01*
Y136215D01*
X4160D01*
Y136066D01*
X4234D01*
Y135992D01*
X4309D01*
Y135844D01*
X4383D01*
Y135695D01*
X4457D01*
Y135621D01*
X4531D01*
Y135473D01*
X4606D01*
Y135398D01*
X4680D01*
Y135250D01*
X4754D01*
Y135176D01*
X4828D01*
Y135027D01*
X4902D01*
Y134879D01*
X4976D01*
Y134805D01*
X5051D01*
Y134656D01*
X5125D01*
Y134582D01*
X5199D01*
Y134434D01*
X5273D01*
Y134359D01*
X5348D01*
Y134211D01*
X5422D01*
Y134062D01*
X5496D01*
Y133988D01*
X5570D01*
Y133840D01*
X5645D01*
Y133766D01*
X5719D01*
Y133617D01*
X5793D01*
Y133543D01*
X5867D01*
Y133394D01*
X5941D01*
Y133246D01*
X6016D01*
Y133172D01*
X6090D01*
Y133023D01*
X6164D01*
Y132949D01*
X6238D01*
Y132801D01*
X6313D01*
Y132727D01*
X6387D01*
Y132578D01*
X6461D01*
Y132430D01*
X6535D01*
Y132355D01*
X6609D01*
Y132207D01*
X6684D01*
Y132133D01*
X6758D01*
Y131984D01*
X6832D01*
Y131910D01*
X6906D01*
Y131762D01*
X6981D01*
Y131613D01*
X7055D01*
Y131539D01*
X7203D01*
Y132133D01*
X7277D01*
Y132727D01*
X7351D01*
Y133320D01*
X7426D01*
Y133914D01*
X7500D01*
Y134508D01*
X7574D01*
Y135102D01*
X7648D01*
Y135695D01*
X7723D01*
Y136215D01*
X7797D01*
Y136809D01*
X7871D01*
Y137402D01*
X7945D01*
Y137996D01*
X8019D01*
Y138367D01*
D02*
G37*
G36*
X52551Y138516D02*
X47504D01*
Y138145D01*
X47578D01*
Y137625D01*
X47652D01*
Y137106D01*
X47726D01*
Y136586D01*
X47801D01*
Y136066D01*
X47875D01*
Y135473D01*
X47949D01*
Y134953D01*
X48023D01*
Y134434D01*
X48098D01*
Y133914D01*
X48172D01*
Y133394D01*
X48246D01*
Y132875D01*
X48320D01*
Y132355D01*
X48394D01*
Y131762D01*
X48469D01*
Y131242D01*
X48543D01*
Y131094D01*
X48617D01*
Y131242D01*
X48691D01*
Y131391D01*
X48766D01*
Y131539D01*
X48840D01*
Y131687D01*
X48914D01*
Y131836D01*
X48988D01*
Y131984D01*
X49062D01*
Y132133D01*
X49137D01*
Y132281D01*
X49211D01*
Y132430D01*
X49285D01*
Y132504D01*
X49359D01*
Y132652D01*
X49434D01*
Y132801D01*
X49508D01*
Y132949D01*
X49582D01*
Y133098D01*
X49656D01*
Y133246D01*
X49731D01*
Y133394D01*
X49805D01*
Y133543D01*
X49879D01*
Y133691D01*
X49953D01*
Y133766D01*
X50027D01*
Y133914D01*
X50102D01*
Y134062D01*
X50176D01*
Y134211D01*
X50250D01*
Y134359D01*
X50324D01*
Y134508D01*
X50398D01*
Y134656D01*
X50473D01*
Y134805D01*
X50547D01*
Y134879D01*
X50621D01*
Y135027D01*
X50695D01*
Y135176D01*
X50770D01*
Y135324D01*
X50844D01*
Y135473D01*
X50918D01*
Y135621D01*
X50992D01*
Y135695D01*
X51066D01*
Y135844D01*
X51141D01*
Y135992D01*
X51215D01*
Y136141D01*
X51289D01*
Y136289D01*
X51363D01*
Y136438D01*
X51438D01*
Y136512D01*
X51512D01*
Y136660D01*
X51586D01*
Y136809D01*
X51660D01*
Y136957D01*
X51734D01*
Y137106D01*
X51809D01*
Y137180D01*
X51883D01*
Y137328D01*
X51957D01*
Y137477D01*
X52031D01*
Y137551D01*
Y137625D01*
X52105D01*
Y137773D01*
X52180D01*
Y137848D01*
X52254D01*
Y137996D01*
X52328D01*
Y138145D01*
X52402D01*
Y138293D01*
X52477D01*
Y138441D01*
X52551D01*
Y138516D01*
D02*
G37*
G36*
X8687Y131613D02*
X8613D01*
Y131316D01*
Y131242D01*
Y130945D01*
X8687D01*
Y131613D01*
D02*
G37*
G36*
X8613Y130945D02*
X8539D01*
Y130277D01*
X8613D01*
Y130945D01*
D02*
G37*
G36*
X8539Y130277D02*
X8465D01*
Y129684D01*
X8539D01*
Y130277D01*
D02*
G37*
G36*
X8465Y129609D02*
X8391D01*
Y129016D01*
X8465D01*
Y129609D01*
D02*
G37*
G36*
X14625Y136660D02*
X14551D01*
Y136066D01*
X14625D01*
Y135473D01*
X14699D01*
Y134879D01*
X14773D01*
Y134285D01*
X14848D01*
Y133691D01*
X14922D01*
Y133098D01*
X14996D01*
Y132578D01*
X15070D01*
Y131984D01*
X15144D01*
Y131391D01*
X15219D01*
Y130871D01*
X15293D01*
Y130277D01*
X15367D01*
Y129758D01*
X15441D01*
Y129238D01*
X15516D01*
Y128719D01*
X15590D01*
Y129238D01*
X15516D01*
Y129758D01*
X15441D01*
Y130277D01*
X15367D01*
Y130871D01*
X15293D01*
Y131391D01*
X15219D01*
Y131762D01*
Y131836D01*
Y131984D01*
X15144D01*
Y132578D01*
X15070D01*
Y133098D01*
X14996D01*
Y133691D01*
X14922D01*
Y134285D01*
X14848D01*
Y134879D01*
X14773D01*
Y135473D01*
X14699D01*
Y136066D01*
X14625D01*
Y136660D01*
D02*
G37*
G36*
X8391Y129016D02*
X8316D01*
Y128348D01*
X8391D01*
Y129016D01*
D02*
G37*
G36*
X53664Y138516D02*
X52996D01*
Y138367D01*
X52922D01*
Y138219D01*
X52848D01*
Y138070D01*
X52773D01*
Y137922D01*
X52699D01*
Y137773D01*
X52625D01*
Y137625D01*
X52551D01*
Y137477D01*
X52477D01*
Y137328D01*
X52402D01*
Y137180D01*
X52328D01*
Y137106D01*
X52254D01*
Y136957D01*
X52180D01*
Y136809D01*
X52105D01*
Y136660D01*
X52031D01*
Y136512D01*
X51957D01*
Y136363D01*
X51883D01*
Y136215D01*
X51809D01*
Y136066D01*
X51734D01*
Y135918D01*
X51660D01*
Y135844D01*
X51586D01*
Y135695D01*
X51512D01*
Y135547D01*
X51438D01*
Y135398D01*
X51363D01*
Y135250D01*
X51289D01*
Y135102D01*
X51215D01*
Y134953D01*
X51141D01*
Y134805D01*
X51066D01*
Y134731D01*
X50992D01*
Y134582D01*
X50918D01*
Y134434D01*
X50844D01*
Y134285D01*
X50770D01*
Y134137D01*
X50695D01*
Y133988D01*
X50621D01*
Y133840D01*
X50547D01*
Y133766D01*
X50473D01*
Y133617D01*
X50398D01*
Y133469D01*
X50324D01*
Y133320D01*
X50250D01*
Y133172D01*
X50176D01*
Y133023D01*
X50102D01*
Y132875D01*
X50027D01*
Y132801D01*
X49953D01*
Y132652D01*
X49879D01*
Y132504D01*
X49805D01*
Y132355D01*
X49731D01*
Y132207D01*
X49656D01*
Y132059D01*
X49582D01*
Y131910D01*
X49508D01*
Y131836D01*
X49434D01*
Y131687D01*
X49359D01*
Y131539D01*
X49285D01*
Y131391D01*
X49211D01*
Y131242D01*
X49137D01*
Y131094D01*
X49062D01*
Y130945D01*
X48988D01*
Y130797D01*
X48914D01*
Y130723D01*
X48840D01*
Y130574D01*
X48766D01*
Y130426D01*
X48691D01*
Y130277D01*
X48617D01*
Y130129D01*
X48543D01*
Y129980D01*
X48469D01*
Y128273D01*
X48543D01*
Y128348D01*
X48617D01*
Y128496D01*
X48691D01*
Y128645D01*
X48766D01*
Y128793D01*
X48840D01*
Y128941D01*
X48914D01*
Y129090D01*
X48988D01*
Y129238D01*
X49062D01*
Y129387D01*
X49137D01*
Y129535D01*
X49211D01*
Y129684D01*
X49285D01*
Y129832D01*
X49359D01*
Y129980D01*
X49434D01*
Y130129D01*
X49508D01*
Y130277D01*
X49582D01*
Y130426D01*
X49656D01*
Y130574D01*
X49731D01*
Y130723D01*
X49805D01*
Y130871D01*
X49879D01*
Y131019D01*
X49953D01*
Y131168D01*
X50027D01*
Y131242D01*
Y131316D01*
X50102D01*
Y131465D01*
X50176D01*
Y131613D01*
X50250D01*
Y131762D01*
X50324D01*
Y131910D01*
X50398D01*
Y132059D01*
X50473D01*
Y132207D01*
X50547D01*
Y132355D01*
X50621D01*
Y132504D01*
X50695D01*
Y132652D01*
X50770D01*
Y132801D01*
X50844D01*
Y132949D01*
X50918D01*
Y133098D01*
X50992D01*
Y133246D01*
X51066D01*
Y133394D01*
X51141D01*
Y133543D01*
X51215D01*
Y133691D01*
X51289D01*
Y133840D01*
X51363D01*
Y133988D01*
X51438D01*
Y134137D01*
X51512D01*
Y134285D01*
X51586D01*
Y134434D01*
X51660D01*
Y134508D01*
X51734D01*
Y134656D01*
X51809D01*
Y134805D01*
X51883D01*
Y134953D01*
X51957D01*
Y135102D01*
X52031D01*
Y135250D01*
X52105D01*
Y135398D01*
X52180D01*
Y135547D01*
X52254D01*
Y135695D01*
X52328D01*
Y135844D01*
X52402D01*
Y135992D01*
X52477D01*
Y136141D01*
X52551D01*
Y136289D01*
X52625D01*
Y136438D01*
X52699D01*
Y136586D01*
X52773D01*
Y136734D01*
X52848D01*
Y136883D01*
X52922D01*
Y137031D01*
X52996D01*
Y137180D01*
X53070D01*
Y137328D01*
X53144D01*
Y137477D01*
X53219D01*
Y137625D01*
X53293D01*
Y137773D01*
X53367D01*
Y137922D01*
X53441D01*
Y138070D01*
X53516D01*
Y138219D01*
X53590D01*
Y138367D01*
X53664D01*
Y138516D01*
D02*
G37*
G36*
X15664Y128645D02*
X15590D01*
Y128199D01*
X15664D01*
Y128645D01*
D02*
G37*
G36*
X2527Y138367D02*
X1934D01*
Y138219D01*
X2008D01*
Y138145D01*
X2082D01*
Y137996D01*
X2156D01*
Y137848D01*
X2230D01*
Y137773D01*
X2305D01*
Y137625D01*
X2379D01*
Y137477D01*
X2453D01*
Y137402D01*
X2527D01*
Y137254D01*
X2601D01*
Y137106D01*
X2676D01*
Y137031D01*
X2750D01*
Y136883D01*
X2824D01*
Y136734D01*
X2898D01*
Y136660D01*
X2973D01*
Y136512D01*
X3047D01*
Y136363D01*
X3121D01*
Y136289D01*
X3195D01*
Y136141D01*
X3270D01*
Y135992D01*
X3344D01*
Y135918D01*
X3418D01*
Y135770D01*
X3492D01*
Y135621D01*
X3566D01*
Y135547D01*
X3641D01*
Y135398D01*
X3715D01*
Y135250D01*
X3789D01*
Y135176D01*
X3863D01*
Y135027D01*
X3938D01*
Y134879D01*
X4012D01*
Y134805D01*
X4086D01*
Y134656D01*
X4160D01*
Y134508D01*
X4234D01*
Y134359D01*
X4309D01*
Y134285D01*
X4383D01*
Y134137D01*
X4457D01*
Y133988D01*
X4531D01*
Y133914D01*
X4606D01*
Y133766D01*
X4680D01*
Y133617D01*
X4754D01*
Y133543D01*
X4828D01*
Y133394D01*
X4902D01*
Y133246D01*
X4976D01*
Y133098D01*
X5051D01*
Y133023D01*
X5125D01*
Y132875D01*
X5199D01*
Y132727D01*
X5273D01*
Y132652D01*
X5348D01*
Y132504D01*
X5422D01*
Y132355D01*
X5496D01*
Y132207D01*
X5570D01*
Y132133D01*
X5645D01*
Y131984D01*
X5719D01*
Y131836D01*
X5793D01*
Y131687D01*
X5867D01*
Y131613D01*
X5941D01*
Y131465D01*
X6016D01*
Y131316D01*
X6090D01*
Y131242D01*
X6164D01*
Y131094D01*
X6238D01*
Y130945D01*
X6313D01*
Y130797D01*
X6387D01*
Y130723D01*
X6461D01*
Y130574D01*
X6535D01*
Y130426D01*
X6609D01*
Y130277D01*
X6684D01*
Y130203D01*
X6758D01*
Y130055D01*
X6832D01*
Y129906D01*
X6906D01*
Y129758D01*
X6981D01*
Y129684D01*
X7055D01*
Y129535D01*
X7129D01*
Y129387D01*
X7203D01*
Y129238D01*
X7277D01*
Y129164D01*
X7351D01*
Y129016D01*
X7426D01*
Y128867D01*
X7500D01*
Y128719D01*
X7574D01*
Y128645D01*
X7648D01*
Y128496D01*
X7723D01*
Y128348D01*
X7797D01*
Y128199D01*
X7871D01*
Y128051D01*
X7945D01*
Y128348D01*
X8019D01*
Y128941D01*
X8094D01*
Y129684D01*
X8019D01*
Y129832D01*
X7945D01*
Y129906D01*
X7871D01*
Y130055D01*
X7797D01*
Y130203D01*
X7723D01*
Y130277D01*
X7648D01*
Y130426D01*
X7574D01*
Y130500D01*
X7500D01*
Y130648D01*
X7426D01*
Y130723D01*
X7351D01*
Y130871D01*
X7277D01*
Y131019D01*
X7203D01*
Y131094D01*
X7129D01*
Y131242D01*
X7055D01*
Y131316D01*
X6981D01*
Y131391D01*
Y131465D01*
X6906D01*
Y131613D01*
X6832D01*
Y131687D01*
X6758D01*
Y131836D01*
X6684D01*
Y131910D01*
X6609D01*
Y132059D01*
X6535D01*
Y132133D01*
X6461D01*
Y132281D01*
X6387D01*
Y132430D01*
X6313D01*
Y132504D01*
X6238D01*
Y132652D01*
X6164D01*
Y132727D01*
X6090D01*
Y132875D01*
X6016D01*
Y132949D01*
X5941D01*
Y133098D01*
X5867D01*
Y133246D01*
X5793D01*
Y133320D01*
X5719D01*
Y133469D01*
X5645D01*
Y133543D01*
X5570D01*
Y133691D01*
X5496D01*
Y133766D01*
X5422D01*
Y133914D01*
X5348D01*
Y134062D01*
X5273D01*
Y134137D01*
X5199D01*
Y134285D01*
X5125D01*
Y134359D01*
X5051D01*
Y134508D01*
X4976D01*
Y134582D01*
X4902D01*
Y134731D01*
X4828D01*
Y134879D01*
X4754D01*
Y134953D01*
X4680D01*
Y135102D01*
X4606D01*
Y135176D01*
X4531D01*
Y135324D01*
X4457D01*
Y135398D01*
X4383D01*
Y135547D01*
X4309D01*
Y135695D01*
X4234D01*
Y135770D01*
X4160D01*
Y135918D01*
X4086D01*
Y135992D01*
X4012D01*
Y136141D01*
X3938D01*
Y136215D01*
X3863D01*
Y136363D01*
X3789D01*
Y136438D01*
X3715D01*
Y136586D01*
X3641D01*
Y136734D01*
X3566D01*
Y136809D01*
X3492D01*
Y136957D01*
X3418D01*
Y137031D01*
X3344D01*
Y137180D01*
X3270D01*
Y137254D01*
X3195D01*
Y137402D01*
X3121D01*
Y137551D01*
X3047D01*
Y137625D01*
X2973D01*
Y137773D01*
X2898D01*
Y137848D01*
X2824D01*
Y137996D01*
X2750D01*
Y138070D01*
X2676D01*
Y138219D01*
X2601D01*
Y138293D01*
X2527D01*
Y138367D01*
D02*
G37*
G36*
X15516D02*
X14848D01*
Y138293D01*
X14922D01*
Y137773D01*
X14996D01*
Y137180D01*
X15070D01*
Y137106D01*
Y137031D01*
Y136660D01*
X15144D01*
Y136066D01*
X15219D01*
Y135547D01*
X15293D01*
Y134953D01*
X15367D01*
Y134359D01*
X15441D01*
Y133766D01*
X15516D01*
Y133172D01*
X15590D01*
Y132578D01*
X15664D01*
Y131984D01*
X15738D01*
Y131391D01*
X15812D01*
Y130797D01*
X15887D01*
Y130203D01*
X15961D01*
Y129535D01*
X16035D01*
Y128867D01*
X16109D01*
Y128199D01*
X16184D01*
Y127680D01*
X16703D01*
Y128199D01*
X16629D01*
Y128867D01*
X16555D01*
Y129535D01*
X16480D01*
Y130203D01*
X16406D01*
Y130871D01*
X16332D01*
Y131539D01*
X16258D01*
Y132207D01*
X16184D01*
Y132875D01*
X16109D01*
Y133543D01*
X16035D01*
Y134211D01*
X15961D01*
Y134879D01*
X15887D01*
Y135547D01*
X15812D01*
Y136215D01*
X15738D01*
Y136883D01*
X15664D01*
Y137625D01*
X15590D01*
Y138219D01*
X15516D01*
Y138367D01*
D02*
G37*
G36*
X8316Y128348D02*
X8242D01*
Y127680D01*
X8316D01*
Y128348D01*
D02*
G37*
G36*
X35852Y138441D02*
X35332D01*
Y137996D01*
X35258D01*
Y137328D01*
X35184D01*
Y136586D01*
X35109D01*
Y135918D01*
X35035D01*
Y135250D01*
X34961D01*
Y134582D01*
X34887D01*
Y133840D01*
X34813D01*
Y133172D01*
X34738D01*
Y132504D01*
X34664D01*
Y131836D01*
X34590D01*
Y131094D01*
X34516D01*
Y130426D01*
X34441D01*
Y129758D01*
X34367D01*
Y129090D01*
X34293D01*
Y128348D01*
X34219D01*
Y127754D01*
X34144D01*
Y127680D01*
X34219D01*
Y127605D01*
X34293D01*
Y127680D01*
X34664D01*
Y128348D01*
X34738D01*
Y129016D01*
X34813D01*
Y129684D01*
X34887D01*
Y130277D01*
X34961D01*
Y130945D01*
X35035D01*
Y131613D01*
X35109D01*
Y132281D01*
X35184D01*
Y132875D01*
X35258D01*
Y133543D01*
X35332D01*
Y134211D01*
X35406D01*
Y134879D01*
X35480D01*
Y135473D01*
X35555D01*
Y135918D01*
Y135992D01*
Y136141D01*
X35629D01*
Y136809D01*
X35703D01*
Y137477D01*
X35777D01*
Y138070D01*
X35852D01*
Y138441D01*
D02*
G37*
G36*
X15738Y128125D02*
X15664D01*
Y127680D01*
X15738D01*
Y127160D01*
X15812D01*
Y127680D01*
X15738D01*
Y128125D01*
D02*
G37*
G36*
X8242Y127680D02*
X8168D01*
Y127012D01*
X8242D01*
Y127680D01*
D02*
G37*
G36*
X15738Y127160D02*
X15664D01*
Y126418D01*
X15738D01*
Y127160D01*
D02*
G37*
G36*
X8168Y127012D02*
X8094D01*
Y126418D01*
X8168D01*
Y127012D01*
D02*
G37*
G36*
X8094Y126418D02*
X8019D01*
Y125750D01*
X8094D01*
Y126418D01*
D02*
G37*
G36*
X15664D02*
X15590D01*
Y125602D01*
X15664D01*
Y126418D01*
D02*
G37*
G36*
X8019Y125750D02*
X7945D01*
Y125156D01*
X8019D01*
Y125750D01*
D02*
G37*
G36*
X15590Y125602D02*
X15516D01*
Y124859D01*
X15590D01*
Y125602D01*
D02*
G37*
G36*
X7945Y125156D02*
X7871D01*
Y124488D01*
X7945D01*
Y125156D01*
D02*
G37*
G36*
X15516Y124859D02*
X15441D01*
Y124711D01*
Y124637D01*
Y124043D01*
X15516D01*
Y124859D01*
D02*
G37*
G36*
X7871Y124488D02*
X7797D01*
Y123895D01*
X7871D01*
Y124488D01*
D02*
G37*
G36*
X15441Y124043D02*
X15367D01*
Y123301D01*
X15441D01*
Y124043D01*
D02*
G37*
G36*
X7797Y123895D02*
X7723D01*
Y123301D01*
X7797D01*
Y123895D01*
D02*
G37*
G36*
X7723Y123301D02*
X7648D01*
Y122707D01*
X7723D01*
Y123301D01*
D02*
G37*
G36*
X15367D02*
X15293D01*
Y122484D01*
X15367D01*
Y123301D01*
D02*
G37*
G36*
X7648Y122707D02*
X7574D01*
Y122188D01*
X7648D01*
Y122707D01*
D02*
G37*
G36*
X15293Y122484D02*
X15219D01*
Y121742D01*
X15293D01*
Y122484D01*
D02*
G37*
G36*
X7574Y122188D02*
X7500D01*
Y121594D01*
X7574D01*
Y122188D01*
D02*
G37*
G36*
X7500Y121594D02*
X7426D01*
Y121074D01*
X7500D01*
Y121594D01*
D02*
G37*
G36*
X15219Y121668D02*
X15144D01*
Y120926D01*
X15219D01*
Y121668D01*
D02*
G37*
G36*
X15144Y120926D02*
X15070D01*
Y120406D01*
Y120332D01*
Y120109D01*
X15144D01*
Y120926D01*
D02*
G37*
G36*
X7426Y121074D02*
X7351D01*
Y120555D01*
Y120480D01*
X7277D01*
Y119961D01*
X7351D01*
Y120406D01*
X7426Y120480D01*
Y121074D01*
D02*
G37*
G36*
X7277Y119961D02*
X7203D01*
Y119441D01*
X7277D01*
Y119961D01*
D02*
G37*
G36*
X15070Y120109D02*
X14996D01*
Y119293D01*
X15070D01*
Y120109D01*
D02*
G37*
G36*
X7203Y119441D02*
X7129D01*
Y118922D01*
X7203D01*
Y119441D01*
D02*
G37*
G36*
X14996Y119219D02*
X14922D01*
Y118402D01*
X14996D01*
Y119219D01*
D02*
G37*
G36*
X7129Y118922D02*
X7055D01*
Y118402D01*
X7129D01*
Y118922D01*
D02*
G37*
G36*
X7055Y118402D02*
X6981D01*
Y117883D01*
X7055D01*
Y118402D01*
D02*
G37*
G36*
X14922D02*
X14848D01*
Y117512D01*
X14922D01*
Y118402D01*
D02*
G37*
G36*
X6981Y117883D02*
X6906D01*
Y117363D01*
X6981D01*
Y117883D01*
D02*
G37*
G36*
X6906Y117363D02*
X6832D01*
Y116918D01*
X6906D01*
Y117363D01*
D02*
G37*
G36*
X14848Y117512D02*
X14773D01*
Y116695D01*
X14848D01*
Y116770D01*
Y117512D01*
D02*
G37*
G36*
X6832Y116918D02*
X6758D01*
Y116398D01*
X6832D01*
Y116918D01*
D02*
G37*
G36*
X6758Y116398D02*
X6684D01*
Y115953D01*
X6758D01*
Y116398D01*
D02*
G37*
G36*
X14773Y116621D02*
X14699D01*
Y115730D01*
X14773D01*
Y116621D01*
D02*
G37*
G36*
X6684Y115879D02*
X6609D01*
Y115434D01*
X6684D01*
Y115879D01*
D02*
G37*
G36*
X6609Y115434D02*
X6535D01*
Y114914D01*
X6609D01*
Y115434D01*
D02*
G37*
G36*
X14699Y115730D02*
X14625D01*
Y114766D01*
X14699D01*
Y115730D01*
D02*
G37*
G36*
X6535Y114914D02*
X6461D01*
Y114469D01*
X6535D01*
Y114914D01*
D02*
G37*
G36*
X6461Y114469D02*
X6387D01*
Y114023D01*
X6461D01*
Y114469D01*
D02*
G37*
G36*
X14625Y114766D02*
X14551D01*
Y113801D01*
X14625D01*
Y114766D01*
D02*
G37*
G36*
X6387Y114023D02*
X6313D01*
Y113504D01*
X6238D01*
Y113430D01*
X6387D01*
Y113504D01*
X6906D01*
Y113578D01*
X6387D01*
Y114023D01*
D02*
G37*
G36*
X14551Y113801D02*
X14477D01*
Y112762D01*
X14551D01*
Y113801D01*
D02*
G37*
G36*
X14477Y112762D02*
X14402D01*
Y111723D01*
X14477D01*
Y112762D01*
D02*
G37*
G36*
X14402Y111723D02*
X14328D01*
Y110609D01*
X14402D01*
Y111723D01*
D02*
G37*
G36*
X8168Y113652D02*
X6906D01*
Y113578D01*
X8168D01*
Y113504D01*
X8687D01*
Y113430D01*
X9059D01*
Y113356D01*
X9355D01*
Y113281D01*
X9578D01*
Y113207D01*
X9801D01*
Y113133D01*
X10023D01*
Y113059D01*
X10246D01*
Y112984D01*
X10395D01*
Y112910D01*
X10543D01*
Y112836D01*
X10691D01*
Y112762D01*
X10840D01*
Y112688D01*
X10988D01*
Y112613D01*
X11137D01*
Y112539D01*
X11285D01*
Y112465D01*
X11359D01*
Y112391D01*
X11508D01*
Y112316D01*
X11656D01*
Y112242D01*
X11731D01*
Y112168D01*
X11879D01*
Y112094D01*
X11953D01*
Y112020D01*
X12102D01*
Y111945D01*
X12176D01*
Y111871D01*
X12250D01*
Y111797D01*
X12398D01*
Y111723D01*
X12473D01*
Y111648D01*
X12547D01*
Y111574D01*
X12621D01*
Y111500D01*
X12695D01*
Y111426D01*
X12770D01*
Y111352D01*
X12918D01*
Y111277D01*
X12992D01*
Y111203D01*
X13066D01*
Y111129D01*
X13141D01*
Y111055D01*
X13215D01*
Y110981D01*
X13289D01*
Y110906D01*
X13363D01*
Y110832D01*
X13438D01*
Y110684D01*
X13512D01*
Y110609D01*
X13586D01*
Y110535D01*
X13660D01*
Y110461D01*
X13734D01*
Y110387D01*
X13809D01*
Y110238D01*
X13883D01*
Y110164D01*
X13957D01*
Y110090D01*
X14031D01*
Y110016D01*
X14105D01*
Y109867D01*
X14180D01*
Y109793D01*
X14254D01*
Y109644D01*
X14328D01*
Y110609D01*
X14254D01*
Y109867D01*
X14180D01*
Y110016D01*
X14105D01*
Y110090D01*
X14031D01*
Y110164D01*
X13957D01*
Y110312D01*
X13883D01*
Y110387D01*
X13809D01*
Y110461D01*
X13734D01*
Y110535D01*
X13660D01*
Y110609D01*
X13586D01*
Y110758D01*
X13512D01*
Y110832D01*
X13438D01*
Y110906D01*
X13363D01*
Y110981D01*
X13289D01*
Y111055D01*
X13215D01*
Y111129D01*
X13141D01*
Y111203D01*
X13066D01*
Y111277D01*
X12992D01*
Y111352D01*
X12918D01*
Y111426D01*
X12844D01*
Y111500D01*
X12770D01*
Y111574D01*
X12621D01*
Y111648D01*
X12547D01*
Y111723D01*
X12473D01*
Y111797D01*
X12398D01*
Y111871D01*
X12250D01*
Y111945D01*
X12176D01*
Y112020D01*
X12102D01*
Y112094D01*
X11953D01*
Y112168D01*
X11879D01*
Y112242D01*
X11731D01*
Y112316D01*
X11656D01*
Y112391D01*
X11508D01*
Y112465D01*
X11434D01*
Y112539D01*
X11285D01*
Y112613D01*
X11137D01*
Y112688D01*
X10988D01*
Y112762D01*
X10840D01*
Y112836D01*
X10691D01*
Y112910D01*
X10543D01*
Y112984D01*
X10395D01*
Y113059D01*
X10246D01*
Y113133D01*
X10023D01*
Y113207D01*
X9801D01*
Y113281D01*
X9578D01*
Y113356D01*
X9355D01*
Y113430D01*
X9059D01*
Y113504D01*
X8687D01*
Y113578D01*
X8168D01*
Y113652D01*
D02*
G37*
G36*
X33031Y138441D02*
X23383D01*
Y138367D01*
X17965D01*
Y138145D01*
X17891D01*
Y137254D01*
X17816D01*
Y136363D01*
X17742D01*
Y135473D01*
X17668D01*
Y134582D01*
X17594D01*
Y133766D01*
X17520D01*
Y132875D01*
X17445D01*
Y132059D01*
X17371D01*
Y131168D01*
X17297D01*
Y130277D01*
X17223D01*
Y129461D01*
X17148D01*
Y128645D01*
X17074D01*
Y127754D01*
X17000D01*
Y126938D01*
X16926D01*
Y126121D01*
X16852D01*
Y125231D01*
X16777D01*
Y124414D01*
X16703D01*
Y124266D01*
Y124191D01*
Y123598D01*
X16629D01*
Y122781D01*
X16555D01*
Y121965D01*
X16480D01*
Y121148D01*
X16406D01*
Y120332D01*
X16332D01*
Y119516D01*
X16258D01*
Y118773D01*
X16184D01*
Y117957D01*
X16109D01*
Y117215D01*
X16035D01*
Y116547D01*
X15961D01*
Y115805D01*
X15887D01*
Y115063D01*
X15812D01*
Y114395D01*
X15738D01*
Y113727D01*
X15664D01*
Y113059D01*
X15590D01*
Y112391D01*
X15516D01*
Y111723D01*
X15441D01*
Y111129D01*
X15367D01*
Y110461D01*
X15293D01*
Y109867D01*
X15219D01*
Y109199D01*
X15144D01*
Y108605D01*
X15070D01*
Y108160D01*
X15144D01*
Y108012D01*
X15219D01*
Y107863D01*
X15293D01*
Y107641D01*
X15367D01*
Y107492D01*
X15441D01*
Y107269D01*
X15516D01*
Y107047D01*
X15590D01*
Y106824D01*
X15664D01*
Y106527D01*
X15738D01*
Y106379D01*
X15812D01*
Y106453D01*
X15887D01*
Y106527D01*
X16109D01*
Y106602D01*
X16258D01*
Y106676D01*
X16406D01*
Y106750D01*
X16555D01*
Y106824D01*
X16777D01*
Y106898D01*
X16926D01*
Y106973D01*
X17148D01*
Y107047D01*
X17371D01*
Y107121D01*
X17594D01*
Y107195D01*
X17816D01*
Y107269D01*
X18039D01*
Y107344D01*
X18336D01*
Y107418D01*
X18633D01*
Y107492D01*
X19004D01*
Y107566D01*
X19375D01*
Y107641D01*
X19894D01*
Y107715D01*
X20637D01*
Y107789D01*
X22418D01*
Y107715D01*
X23160D01*
Y107641D01*
X23754D01*
Y107566D01*
X24125D01*
Y107492D01*
X24496D01*
Y107418D01*
X24867D01*
Y107344D01*
X25164D01*
Y107269D01*
X25461D01*
Y107195D01*
X25684D01*
Y107121D01*
X25981D01*
Y107047D01*
X26203D01*
Y106973D01*
X26426D01*
Y106898D01*
X26648D01*
Y106824D01*
X26945D01*
Y106750D01*
X27168D01*
Y106676D01*
X27316D01*
Y106602D01*
X27539D01*
Y106527D01*
X27762D01*
Y106453D01*
X27984D01*
Y106379D01*
X28133D01*
Y106305D01*
X28281D01*
Y106230D01*
X28504D01*
Y106156D01*
X28652D01*
Y106082D01*
X28801D01*
Y106008D01*
X28949D01*
Y105934D01*
X29098D01*
Y105859D01*
X29246D01*
Y105785D01*
X29395D01*
Y105711D01*
X29543D01*
Y105637D01*
X29691D01*
Y105562D01*
X29766D01*
Y105488D01*
X29914D01*
Y105414D01*
X30062D01*
Y105340D01*
X30137D01*
Y105266D01*
X30285D01*
Y105191D01*
X30359D01*
Y105117D01*
X30508D01*
Y105043D01*
X30582D01*
Y104969D01*
X30730D01*
Y104895D01*
X30805D01*
Y104820D01*
X30953D01*
Y104746D01*
X31027D01*
Y104672D01*
X31176D01*
Y104598D01*
X31250D01*
Y104523D01*
X31398D01*
Y104449D01*
X31473D01*
Y104375D01*
X31621D01*
Y104301D01*
X31695D01*
Y104227D01*
X31844D01*
Y104152D01*
X31918D01*
Y104078D01*
X32066D01*
Y104004D01*
X32215D01*
Y103930D01*
X32289D01*
Y103855D01*
X32438D01*
Y103781D01*
X32586D01*
Y103707D01*
X32734D01*
Y103633D01*
X32883D01*
Y103559D01*
X33031D01*
Y103484D01*
X33180D01*
Y103410D01*
X33328D01*
Y103336D01*
X33477D01*
Y103262D01*
X33625D01*
Y103188D01*
X33773D01*
Y103113D01*
X33922D01*
Y103039D01*
X34144D01*
Y102965D01*
X34293D01*
Y102891D01*
X34516D01*
Y102816D01*
X34664D01*
Y102742D01*
X34887D01*
Y102668D01*
X35035D01*
Y103484D01*
X34961D01*
Y104449D01*
X34887D01*
Y105414D01*
X34813D01*
Y106379D01*
X34738D01*
Y107418D01*
X34664D01*
Y108531D01*
X34590D01*
Y109719D01*
X34516D01*
Y110981D01*
X34441D01*
Y112242D01*
X34367D01*
Y113652D01*
X34293D01*
Y115137D01*
X34219D01*
Y116695D01*
X34144D01*
Y118328D01*
X34070D01*
Y119887D01*
X33996D01*
Y121519D01*
X33922D01*
Y123004D01*
X33848D01*
Y124488D01*
X33773D01*
Y125898D01*
X33699D01*
Y127234D01*
X33625D01*
Y128645D01*
X33551D01*
Y129980D01*
X33477D01*
Y131316D01*
X33402D01*
Y132652D01*
X33328D01*
Y133988D01*
X33254D01*
Y135324D01*
X33180D01*
Y136660D01*
X33105D01*
Y137996D01*
X33031D01*
Y138441D01*
D02*
G37*
G36*
X46836Y138516D02*
X41269D01*
Y138441D01*
X36000D01*
Y137922D01*
X35926D01*
Y137328D01*
X35852D01*
Y136660D01*
X35777D01*
Y135992D01*
X35703D01*
Y135324D01*
X35629D01*
Y134731D01*
X35555D01*
Y134062D01*
X35480D01*
Y133394D01*
X35406D01*
Y132727D01*
X35332D01*
Y132133D01*
X35258D01*
Y131465D01*
X35184D01*
Y130797D01*
X35109D01*
Y130129D01*
X35035D01*
Y129535D01*
X34961D01*
Y128867D01*
X34887D01*
Y128199D01*
X34813D01*
Y127309D01*
X34887D01*
Y126270D01*
X34961D01*
Y125231D01*
X35035D01*
Y124191D01*
X35109D01*
Y123227D01*
X35184D01*
Y122188D01*
X35258D01*
Y121223D01*
X35332D01*
Y120258D01*
X35406D01*
Y119367D01*
X35480D01*
Y118402D01*
X35555D01*
Y117437D01*
X35629D01*
Y116473D01*
X35703D01*
Y115508D01*
X35777D01*
Y114543D01*
X35852D01*
Y113504D01*
X35926D01*
Y112465D01*
X36000D01*
Y111352D01*
X36074D01*
Y110238D01*
X36148D01*
Y109051D01*
X36223D01*
Y107789D01*
X36297D01*
Y106379D01*
X36371D01*
Y104895D01*
X36445D01*
Y103262D01*
X36519D01*
Y102148D01*
X36594D01*
Y102074D01*
X36891D01*
Y102000D01*
X37188D01*
Y101926D01*
X37484D01*
Y101852D01*
X37781D01*
Y101777D01*
X38152D01*
Y101703D01*
X38523D01*
Y101629D01*
X38969D01*
Y101555D01*
X39488D01*
Y101481D01*
X40008D01*
Y101406D01*
X40750D01*
Y101332D01*
X41715D01*
Y101258D01*
X46316D01*
Y101332D01*
X47207D01*
Y101406D01*
X47875D01*
Y101481D01*
X48394D01*
Y101555D01*
X48914D01*
Y101629D01*
X49285D01*
Y101703D01*
X49731D01*
Y101777D01*
X50102D01*
Y101852D01*
X50398D01*
Y101926D01*
X50770D01*
Y102000D01*
X51066D01*
Y102074D01*
X51363D01*
Y102148D01*
X51660D01*
Y102223D01*
X51809D01*
Y102445D01*
X51734D01*
Y102965D01*
X51660D01*
Y103484D01*
X51586D01*
Y103930D01*
X51512D01*
Y104449D01*
X51438D01*
Y104969D01*
X51363D01*
Y105488D01*
X51289D01*
Y105934D01*
X51215D01*
Y106453D01*
X51141D01*
Y106973D01*
X51066D01*
Y107492D01*
X50992D01*
Y107937D01*
X50918D01*
Y108457D01*
X50844D01*
Y108977D01*
X50770D01*
Y109422D01*
X50695D01*
Y109941D01*
X50621D01*
Y110461D01*
X50547D01*
Y110981D01*
X50473D01*
Y111500D01*
X50398D01*
Y111945D01*
X50324D01*
Y112465D01*
X50250D01*
Y112984D01*
X50176D01*
Y113504D01*
X50102D01*
Y114023D01*
X50027D01*
Y114543D01*
X49953D01*
Y115063D01*
X49879D01*
Y115582D01*
X49805D01*
Y116102D01*
X49731D01*
Y116621D01*
X49656D01*
Y117141D01*
X49582D01*
Y117734D01*
X49508D01*
Y118254D01*
X49434D01*
Y118773D01*
X49359D01*
Y119367D01*
X49285D01*
Y119887D01*
X49211D01*
Y120406D01*
X49137D01*
Y121000D01*
X49062D01*
Y121519D01*
X48988D01*
Y122113D01*
X48914D01*
Y122707D01*
X48840D01*
Y123227D01*
X48766D01*
Y123820D01*
X48691D01*
Y124414D01*
X48617D01*
Y124934D01*
X48543D01*
Y125527D01*
X48469D01*
Y126121D01*
X48394D01*
Y126270D01*
Y126344D01*
Y126641D01*
X48320D01*
Y127234D01*
X48246D01*
Y127828D01*
X48172D01*
Y128422D01*
X48098D01*
Y128941D01*
X48023D01*
Y129535D01*
X47949D01*
Y130129D01*
X47875D01*
Y130723D01*
X47801D01*
Y131316D01*
X47726D01*
Y131910D01*
X47652D01*
Y132504D01*
X47578D01*
Y133098D01*
X47504D01*
Y133617D01*
X47430D01*
Y134211D01*
X47355D01*
Y134805D01*
X47281D01*
Y135398D01*
X47207D01*
Y135992D01*
X47133D01*
Y136586D01*
X47059D01*
Y137180D01*
X46984D01*
Y137848D01*
X46910D01*
Y138441D01*
X46836D01*
Y138516D01*
D02*
G37*
%LPD*%
G36*
X29246Y179855D02*
Y179781D01*
Y179633D01*
X26203D01*
Y180301D01*
X27984D01*
Y180375D01*
X29246D01*
Y179855D01*
D02*
G37*
G36*
X13215Y144453D02*
Y144379D01*
Y141855D01*
X13141D01*
Y147719D01*
X13215D01*
Y144453D01*
D02*
G37*
G36*
X12324Y141855D02*
X12250D01*
Y142598D01*
Y142672D01*
Y147719D01*
X12324D01*
Y141855D01*
D02*
G37*
G36*
X11434D02*
X11285D01*
Y146828D01*
Y146902D01*
Y147719D01*
X11434D01*
Y141855D01*
D02*
G37*
D12*
X119709Y-106000D02*
G03*
X119709Y-106000I-11709J0D01*
G01*
X150550Y-70007D02*
G03*
X150550Y-70007I-11709J0D01*
G01*
X-176264Y89796D02*
X-116264D01*
X-176264Y-90204D02*
X-116264D01*
X-124790Y107011D02*
X-121458D01*
X-123124D01*
Y98681D01*
X-121458Y97015D01*
X-119792D01*
X-118126Y98681D01*
X-134787Y97015D02*
X-128123D01*
X-134787Y103679D01*
Y105345D01*
X-133121Y107011D01*
X-129789D01*
X-128123Y105345D01*
X91329Y-101002D02*
X84664D01*
X87997D01*
Y-110998D01*
X81332D02*
Y-101002D01*
X76334D01*
X74668Y-102668D01*
Y-106000D01*
X76334Y-107666D01*
X81332D01*
X64671Y-110998D02*
X71336D01*
X64671Y-104334D01*
Y-102668D01*
X66337Y-101002D01*
X69669D01*
X71336Y-102668D01*
X120504Y-65008D02*
X113840D01*
X117172D01*
Y-75005D01*
X110507D02*
Y-65008D01*
X105509D01*
X103843Y-66674D01*
Y-70007D01*
X105509Y-71673D01*
X110507D01*
X100511Y-75005D02*
X97178D01*
X98844D01*
Y-65008D01*
X100511Y-66674D01*
D15*
X81236Y-144822D02*
X78737D01*
X76238Y-142323D01*
Y-129827D01*
X66241Y-124829D02*
Y-139824D01*
Y-132326D01*
X63742Y-129827D01*
X58744D01*
X56245Y-132326D01*
Y-139824D01*
X41249Y-124829D02*
Y-139824D01*
X48747D01*
X51246Y-137324D01*
Y-132326D01*
X48747Y-129827D01*
X41249D01*
X36251Y-139824D02*
Y-137324D01*
X33752D01*
Y-139824D01*
X36251D01*
X8760Y-127328D02*
X6261Y-124829D01*
X1262D01*
X-1237Y-127328D01*
Y-137324D01*
X1262Y-139824D01*
X6261D01*
X8760Y-137324D01*
Y-127328D01*
X-6235Y-137324D02*
X-8734Y-139824D01*
X-13733D01*
X-16232Y-137324D01*
Y-127328D01*
X-13733Y-124829D01*
X-8734D01*
X-6235Y-127328D01*
Y-129827D01*
X-8734Y-132326D01*
X-16232D01*
X-21230D02*
X-31227D01*
X-46222Y-139824D02*
X-36226D01*
X-46222Y-129827D01*
Y-127328D01*
X-43723Y-124829D01*
X-38725D01*
X-36226Y-127328D01*
X-51221D02*
X-53720Y-124829D01*
X-58718D01*
X-61217Y-127328D01*
Y-137324D01*
X-58718Y-139824D01*
X-53720D01*
X-51221Y-137324D01*
Y-127328D01*
X-76213Y-139824D02*
X-66216D01*
X-76213Y-129827D01*
Y-127328D01*
X-73713Y-124829D01*
X-68715D01*
X-66216Y-127328D01*
X-81211D02*
X-83710Y-124829D01*
X-88708D01*
X-91208Y-127328D01*
Y-129827D01*
X-88708Y-132326D01*
X-86209D01*
X-88708D01*
X-91208Y-134825D01*
Y-137324D01*
X-88708Y-139824D01*
X-83710D01*
X-81211Y-137324D01*
D127*
X155000Y65000D02*
Y84993D01*
X145003D01*
X141671Y81661D01*
Y74997D01*
X145003Y71665D01*
X155000D01*
X131674D02*
X125010D01*
X121677Y74997D01*
Y81661D01*
X125010Y84993D01*
X131674D01*
X135007Y81661D01*
Y74997D01*
X131674Y71665D01*
X111681Y88326D02*
Y84993D01*
X115013D01*
X108348D01*
X111681D01*
Y74997D01*
X108348Y71665D01*
X98352D02*
Y74997D01*
X95019D01*
Y71665D01*
X98352D01*
X61697Y91658D02*
Y71665D01*
X48368D01*
X41703D02*
X35039D01*
X38371D01*
Y84993D01*
X41703D01*
X18377Y65000D02*
X15045D01*
X11713Y68332D01*
Y84993D01*
X21710D01*
X25042Y81661D01*
Y74997D01*
X21710Y71665D01*
X11713D01*
X5048Y91658D02*
Y71665D01*
Y81661D01*
X1716Y84993D01*
X-4948D01*
X-8281Y81661D01*
Y71665D01*
X-18277Y88326D02*
Y84993D01*
X-14945D01*
X-21610D01*
X-18277D01*
Y74997D01*
X-21610Y71665D01*
D134*
X-105764Y-25203D02*
Y-20205D01*
Y-22704D01*
X-90768D01*
X-93268Y-25203D01*
X-93268Y62298D02*
X-90768Y64797D01*
Y69795D01*
X-93268Y72295D01*
X-95767D01*
X-98266Y69795D01*
Y67296D01*
Y69795D01*
X-100765Y72295D01*
X-103264D01*
X-105764Y69795D01*
Y64797D01*
X-103264Y62298D01*
X-43184Y-51474D02*
Y-46476D01*
X-45684Y-43976D01*
X-53181D01*
Y-51474D01*
X-50682Y-53973D01*
X-48183Y-51474D01*
Y-43976D01*
X-38186Y-28981D02*
X-53181D01*
Y-36479D01*
X-50682Y-38978D01*
X-45684D01*
X-43184Y-36479D01*
Y-28981D01*
X-38186Y-13986D02*
X-53181D01*
Y-21484D01*
X-50682Y-23983D01*
X-45684D01*
X-43184Y-21484D01*
Y-13986D01*
Y-8988D02*
X-53181D01*
X-48183D01*
X-45684Y-6489D01*
X-43184Y-3989D01*
Y-1490D01*
X-53181Y13505D02*
Y8507D01*
X-50682Y6008D01*
X-45684D01*
X-43184Y8507D01*
Y13505D01*
X-45684Y16004D01*
X-48183D01*
Y6008D01*
X-53181Y21003D02*
Y28500D01*
X-50682Y30999D01*
X-48183Y28500D01*
Y23502D01*
X-45684Y21003D01*
X-43184Y23502D01*
Y30999D01*
X-53181Y35998D02*
Y43495D01*
X-50682Y45995D01*
X-48183Y43495D01*
Y38497D01*
X-45684Y35998D01*
X-43184Y38497D01*
Y45995D01*
X-93268Y-72702D02*
X-90768Y-70203D01*
Y-65205D01*
X-93268Y-62705D01*
X-103264D01*
X-105764Y-65205D01*
Y-70203D01*
X-103264Y-72702D01*
X-93268D01*
X-105764Y27294D02*
Y17298D01*
X-95767Y27294D01*
X-93268D01*
X-90768Y24795D01*
Y19797D01*
X-93268Y17298D01*
M02*
