G04*
G04 #@! TF.GenerationSoftware,Altium Limited,Altium Designer,23.8.1 (32)*
G04*
G04 Layer_Physical_Order=1*
G04 Layer_Color=255*
%FSLAX44Y44*%
%MOMM*%
G71*
G04*
G04 #@! TF.SameCoordinates,30061C5B-BE2C-44CF-A243-5EA776C9CE0C*
G04*
G04*
G04 #@! TF.FilePolarity,Positive*
G04*
G01*
G75*
%ADD10C,0.2540*%
%ADD13C,0.2000*%
G04:AMPARAMS|DCode=14|XSize=0.3mm|YSize=1.7mm|CornerRadius=0.075mm|HoleSize=0mm|Usage=FLASHONLY|Rotation=0.000|XOffset=0mm|YOffset=0mm|HoleType=Round|Shape=RoundedRectangle|*
%AMROUNDEDRECTD14*
21,1,0.3000,1.5500,0,0,0.0*
21,1,0.1500,1.7000,0,0,0.0*
1,1,0.1500,0.0750,-0.7750*
1,1,0.1500,-0.0750,-0.7750*
1,1,0.1500,-0.0750,0.7750*
1,1,0.1500,0.0750,0.7750*
%
%ADD14ROUNDEDRECTD14*%
%ADD15R,0.3000X1.7000*%
%ADD16R,1.7000X0.3000*%
%ADD17R,0.8500X0.9500*%
%ADD18R,0.8000X0.8000*%
%ADD19R,1.0000X1.2000*%
%ADD20R,0.9500X0.8500*%
%ADD21R,0.8000X0.8000*%
%ADD22R,0.8500X0.8500*%
G04:AMPARAMS|DCode=43|XSize=1mm|YSize=3mm|CornerRadius=0.25mm|HoleSize=0mm|Usage=FLASHONLY|Rotation=90.000|XOffset=0mm|YOffset=0mm|HoleType=Round|Shape=RoundedRectangle|*
%AMROUNDEDRECTD43*
21,1,1.0000,2.5000,0,0,90.0*
21,1,0.5000,3.0000,0,0,90.0*
1,1,0.5000,1.2500,0.2500*
1,1,0.5000,1.2500,-0.2500*
1,1,0.5000,-1.2500,-0.2500*
1,1,0.5000,-1.2500,0.2500*
%
%ADD43ROUNDEDRECTD43*%
G04:AMPARAMS|DCode=44|XSize=1mm|YSize=3mm|CornerRadius=0.25mm|HoleSize=0mm|Usage=FLASHONLY|Rotation=0.000|XOffset=0mm|YOffset=0mm|HoleType=Round|Shape=RoundedRectangle|*
%AMROUNDEDRECTD44*
21,1,1.0000,2.5000,0,0,0.0*
21,1,0.5000,3.0000,0,0,0.0*
1,1,0.5000,0.2500,-1.2500*
1,1,0.5000,-0.2500,-1.2500*
1,1,0.5000,-0.2500,1.2500*
1,1,0.5000,0.2500,1.2500*
%
%ADD44ROUNDEDRECTD44*%
%AMCUSTOMSHAPE45*
4,1,5,-0.2000,1.0000,0.9000,1.0000,0.3000,0.0000,0.8375,-1.0000,-0.2000,-1.0000,-0.2000,1.0000,0.0*%
%ADD45CUSTOMSHAPE45*%

%AMCUSTOMSHAPE46*
4,1,5,0.3500,-1.0000,-0.4500,-1.0000,-1.0000,0.0000,-0.4000,1.0000,0.3500,1.0000,0.3500,-1.0000,0.0*%
%ADD46CUSTOMSHAPE46*%

%ADD47C,0.7870*%
%ADD48C,0.4000*%
%ADD49C,0.6000*%
G04:AMPARAMS|DCode=50|XSize=1.8mm|YSize=1mm|CornerRadius=0.25mm|HoleSize=0mm|Usage=FLASHONLY|Rotation=225.000|XOffset=0mm|YOffset=0mm|HoleType=Round|Shape=RoundedRectangle|*
%AMROUNDEDRECTD50*
21,1,1.8000,0.5000,0,0,225.0*
21,1,1.3000,1.0000,0,0,225.0*
1,1,0.5000,-0.6364,-0.2828*
1,1,0.5000,0.2828,0.6364*
1,1,0.5000,0.6364,0.2828*
1,1,0.5000,-0.2828,-0.6364*
%
%ADD50ROUNDEDRECTD50*%
G04:AMPARAMS|DCode=51|XSize=2.1mm|YSize=1mm|CornerRadius=0.25mm|HoleSize=0mm|Usage=FLASHONLY|Rotation=225.000|XOffset=0mm|YOffset=0mm|HoleType=Round|Shape=RoundedRectangle|*
%AMROUNDEDRECTD51*
21,1,2.1000,0.5000,0,0,225.0*
21,1,1.6000,1.0000,0,0,225.0*
1,1,0.5000,-0.7425,-0.3889*
1,1,0.5000,0.3889,0.7425*
1,1,0.5000,0.7425,0.3889*
1,1,0.5000,-0.3889,-0.7425*
%
%ADD51ROUNDEDRECTD51*%
%ADD52C,0.6500*%
%ADD53C,2.0000*%
%ADD54C,2.4000*%
%ADD55C,4.5000*%
%ADD56C,2.3750*%
%ADD57C,0.9910*%
%ADD58C,0.6000*%
%ADD59C,1.0000*%
G36*
X-35539Y297966D02*
X-35313Y297779D01*
X-35081Y297614D01*
X-34842Y297471D01*
X-34597Y297350D01*
X-34345Y297251D01*
X-34087Y297174D01*
X-33821Y297119D01*
X-33550Y297086D01*
X-33272Y297075D01*
Y295075D01*
X-33550Y295064D01*
X-33821Y295031D01*
X-34087Y294976D01*
X-34345Y294899D01*
X-34597Y294800D01*
X-34842Y294679D01*
X-35081Y294536D01*
X-35313Y294371D01*
X-35539Y294184D01*
X-35758Y293975D01*
Y298175D01*
X-35539Y297966D01*
D02*
G37*
G36*
X-40042Y293975D02*
X-40261Y294184D01*
X-40487Y294371D01*
X-40719Y294536D01*
X-40958Y294679D01*
X-41203Y294800D01*
X-41455Y294899D01*
X-41713Y294976D01*
X-41979Y295031D01*
X-42250Y295064D01*
X-42528Y295075D01*
Y297075D01*
X-42250Y297086D01*
X-41979Y297119D01*
X-41713Y297174D01*
X-41455Y297251D01*
X-41203Y297350D01*
X-40958Y297471D01*
X-40719Y297614D01*
X-40487Y297779D01*
X-40261Y297966D01*
X-40042Y298175D01*
Y293975D01*
D02*
G37*
G36*
X128498Y291812D02*
X127980Y290668D01*
X127901Y290613D01*
X126925Y290807D01*
X-35069D01*
X-35321Y292077D01*
X-35249Y292107D01*
X-34700Y292656D01*
X-34575Y292736D01*
X-34399Y292903D01*
X-34269Y293012D01*
X-34143Y293101D01*
X-34022Y293174D01*
X-33904Y293232D01*
X-33786Y293278D01*
X-33667Y293314D01*
X-33544Y293339D01*
X-33517Y293342D01*
X126968D01*
X128498Y291812D01*
D02*
G37*
G36*
X-17090Y267707D02*
X-17060Y267362D01*
X-17010Y267057D01*
X-16940Y266793D01*
X-16850Y266570D01*
X-16740Y266387D01*
X-16610Y266245D01*
X-16460Y266144D01*
X-16290Y266083D01*
X-16100Y266062D01*
X-20100D01*
X-19910Y266083D01*
X-19740Y266144D01*
X-19590Y266245D01*
X-19460Y266387D01*
X-19350Y266570D01*
X-19260Y266793D01*
X-19190Y267057D01*
X-19140Y267362D01*
X-19110Y267707D01*
X-19100Y268093D01*
X-17100D01*
X-17090Y267707D01*
D02*
G37*
G36*
X211322Y187965D02*
X211245Y187801D01*
X211211Y187624D01*
X211220Y187431D01*
X211271Y187224D01*
X211365Y187003D01*
X211502Y186766D01*
X211683Y186516D01*
X211905Y186250D01*
X212171Y185971D01*
X210757Y184556D01*
X210477Y184822D01*
X210212Y185045D01*
X209961Y185225D01*
X209725Y185362D01*
X209503Y185457D01*
X209296Y185508D01*
X209104Y185516D01*
X208926Y185482D01*
X208763Y185405D01*
X208614Y185285D01*
X211443Y188113D01*
X211322Y187965D01*
D02*
G37*
G36*
X201561Y182457D02*
X201412Y182577D01*
X201249Y182654D01*
X201071Y182688D01*
X200879Y182680D01*
X200672Y182628D01*
X200450Y182534D01*
X200214Y182397D01*
X199963Y182217D01*
X199698Y181994D01*
X199418Y181728D01*
X198004Y183142D01*
X198269Y183422D01*
X198492Y183687D01*
X198672Y183938D01*
X198810Y184174D01*
X198904Y184396D01*
X198955Y184603D01*
X198964Y184795D01*
X198930Y184973D01*
X198852Y185136D01*
X198732Y185285D01*
X201561Y182457D01*
D02*
G37*
G36*
X186503Y168813D02*
X186238Y168533D01*
X186015Y168268D01*
X185835Y168017D01*
X185697Y167781D01*
X185603Y167560D01*
X185552Y167353D01*
X185543Y167160D01*
X185577Y166982D01*
X185655Y166819D01*
X185775Y166670D01*
X182946Y169499D01*
X183095Y169379D01*
X183258Y169302D01*
X183436Y169267D01*
X183628Y169276D01*
X183835Y169327D01*
X184057Y169422D01*
X184293Y169559D01*
X184544Y169739D01*
X184809Y169962D01*
X185089Y170228D01*
X186503Y168813D01*
D02*
G37*
G36*
X212760Y141334D02*
X212790Y140989D01*
X212840Y140684D01*
X212910Y140420D01*
X213000Y140197D01*
X213110Y140014D01*
X213240Y139872D01*
X213390Y139770D01*
X213560Y139709D01*
X213750Y139689D01*
X209750D01*
X209940Y139709D01*
X210110Y139770D01*
X210260Y139872D01*
X210390Y140014D01*
X210500Y140197D01*
X210590Y140420D01*
X210660Y140684D01*
X210710Y140989D01*
X210740Y141334D01*
X210750Y141720D01*
X212750D01*
X212760Y141334D01*
D02*
G37*
G36*
X232459Y136810D02*
X232520Y136640D01*
X232622Y136490D01*
X232764Y136360D01*
X232947Y136250D01*
X233170Y136160D01*
X233434Y136090D01*
X233738Y136040D01*
X234084Y136010D01*
X234470Y136000D01*
Y134000D01*
X234084Y133990D01*
X233738Y133960D01*
X233434Y133910D01*
X233170Y133840D01*
X232947Y133750D01*
X232764Y133640D01*
X232622Y133510D01*
X232520Y133360D01*
X232459Y133190D01*
X232439Y133000D01*
Y137000D01*
X232459Y136810D01*
D02*
G37*
G36*
X239958Y132900D02*
X239739Y133109D01*
X239513Y133296D01*
X239281Y133461D01*
X239042Y133604D01*
X238797Y133725D01*
X238545Y133824D01*
X238287Y133901D01*
X238022Y133956D01*
X237750Y133989D01*
X237472Y134000D01*
Y136000D01*
X237750Y136011D01*
X238022Y136044D01*
X238287Y136099D01*
X238545Y136176D01*
X238797Y136275D01*
X239042Y136396D01*
X239281Y136539D01*
X239513Y136704D01*
X239739Y136891D01*
X239958Y137100D01*
Y132900D01*
D02*
G37*
G36*
X-73760Y126385D02*
X-73700Y126305D01*
X-73600Y126235D01*
X-73460Y126174D01*
X-73280Y126122D01*
X-73060Y126080D01*
X-72800Y126047D01*
X-72161Y126010D01*
X-71781Y126005D01*
Y124005D01*
X-72161Y124000D01*
X-73060Y123930D01*
X-73280Y123888D01*
X-73460Y123836D01*
X-73600Y123775D01*
X-73700Y123705D01*
X-73760Y123625D01*
X-73780Y123535D01*
Y126474D01*
X-73760Y126385D01*
D02*
G37*
G36*
X-108090Y123616D02*
X-108260Y123555D01*
X-108410Y123453D01*
X-108540Y123311D01*
X-108650Y123128D01*
X-108740Y122905D01*
X-108810Y122641D01*
X-108860Y122336D01*
X-108890Y121991D01*
X-108900Y121606D01*
X-110900D01*
X-110910Y121991D01*
X-110940Y122336D01*
X-110990Y122641D01*
X-111060Y122905D01*
X-111150Y123128D01*
X-111260Y123311D01*
X-111390Y123453D01*
X-111540Y123555D01*
X-111710Y123616D01*
X-111900Y123636D01*
X-107900D01*
X-108090Y123616D01*
D02*
G37*
G36*
X-134090D02*
X-134260Y123555D01*
X-134410Y123453D01*
X-134540Y123311D01*
X-134650Y123128D01*
X-134740Y122905D01*
X-134810Y122641D01*
X-134860Y122336D01*
X-134890Y121991D01*
X-134900Y121606D01*
X-136900D01*
X-136910Y121991D01*
X-136940Y122336D01*
X-136990Y122641D01*
X-137060Y122905D01*
X-137150Y123128D01*
X-137260Y123311D01*
X-137390Y123453D01*
X-137540Y123555D01*
X-137710Y123616D01*
X-137900Y123636D01*
X-133900D01*
X-134090Y123616D01*
D02*
G37*
G36*
X-54261Y117866D02*
X-54046Y117697D01*
X-53819Y117549D01*
X-53582Y117420D01*
X-53334Y117312D01*
X-53075Y117224D01*
X-52805Y117156D01*
X-52524Y117109D01*
X-52233Y117082D01*
X-51930Y117075D01*
X-54900Y114105D01*
X-54907Y114408D01*
X-54934Y114699D01*
X-54982Y114980D01*
X-55049Y115250D01*
X-55137Y115509D01*
X-55245Y115757D01*
X-55374Y115994D01*
X-55522Y116221D01*
X-55691Y116436D01*
X-55880Y116641D01*
X-54466Y118055D01*
X-54261Y117866D01*
D02*
G37*
G36*
X-134880Y116953D02*
X-134820Y116613D01*
X-134720Y116313D01*
X-134580Y116053D01*
X-134400Y115833D01*
X-134180Y115653D01*
X-133920Y115513D01*
X-133620Y115413D01*
X-133280Y115353D01*
X-132900Y115333D01*
X-135900Y113333D01*
X-138900Y115333D01*
X-138520Y115353D01*
X-138180Y115413D01*
X-137880Y115513D01*
X-137620Y115653D01*
X-137400Y115833D01*
X-137220Y116053D01*
X-137080Y116313D01*
X-136980Y116613D01*
X-136920Y116953D01*
X-136900Y117333D01*
X-134900D01*
X-134880Y116953D01*
D02*
G37*
G36*
X-108889Y112425D02*
X-108856Y112153D01*
X-108801Y111888D01*
X-108724Y111630D01*
X-108625Y111378D01*
X-108504Y111133D01*
X-108361Y110894D01*
X-108196Y110662D01*
X-108009Y110436D01*
X-107800Y110217D01*
X-112000D01*
X-111791Y110436D01*
X-111604Y110662D01*
X-111439Y110894D01*
X-111296Y111133D01*
X-111175Y111378D01*
X-111076Y111630D01*
X-110999Y111888D01*
X-110944Y112153D01*
X-110911Y112425D01*
X-110900Y112703D01*
X-108900D01*
X-108889Y112425D01*
D02*
G37*
G36*
X-140230Y105904D02*
X-140425Y106126D01*
X-140629Y106325D01*
X-140843Y106501D01*
X-141067Y106653D01*
X-141301Y106782D01*
X-141544Y106888D01*
X-141797Y106969D01*
X-142059Y107028D01*
X-142331Y107063D01*
X-142613Y107075D01*
X-142412Y109075D01*
X-142138Y109085D01*
X-141868Y109115D01*
X-141601Y109166D01*
X-141337Y109237D01*
X-141078Y109327D01*
X-140822Y109439D01*
X-140570Y109570D01*
X-140322Y109721D01*
X-140077Y109893D01*
X-139836Y110085D01*
X-140230Y105904D01*
D02*
G37*
G36*
X-106881Y108253D02*
X-106809Y107959D01*
X-106723Y107677D01*
X-106623Y107407D01*
X-106509Y107149D01*
X-106380Y106904D01*
X-106238Y106670D01*
X-106081Y106448D01*
X-105910Y106238D01*
X-105725Y106040D01*
X-106878Y104365D01*
X-107088Y104557D01*
X-107306Y104724D01*
X-107533Y104864D01*
X-107768Y104979D01*
X-108011Y105068D01*
X-108264Y105131D01*
X-108524Y105168D01*
X-108793Y105180D01*
X-109071Y105165D01*
X-109357Y105125D01*
X-106939Y108559D01*
X-106881Y108253D01*
D02*
G37*
G36*
X-90719Y98535D02*
X-90739Y98625D01*
X-90799Y98705D01*
X-90899Y98775D01*
X-91039Y98836D01*
X-91219Y98888D01*
X-91439Y98930D01*
X-91699Y98963D01*
X-92339Y99000D01*
X-92719Y99005D01*
Y101005D01*
X-92339Y101010D01*
X-91439Y101080D01*
X-91219Y101122D01*
X-91039Y101174D01*
X-90899Y101235D01*
X-90799Y101305D01*
X-90739Y101385D01*
X-90719Y101474D01*
Y98535D01*
D02*
G37*
G36*
Y93535D02*
X-90739Y93625D01*
X-90799Y93705D01*
X-90899Y93775D01*
X-91039Y93836D01*
X-91219Y93888D01*
X-91439Y93930D01*
X-91699Y93963D01*
X-92339Y94000D01*
X-92719Y94005D01*
Y96005D01*
X-92339Y96010D01*
X-91439Y96080D01*
X-91219Y96122D01*
X-91039Y96174D01*
X-90899Y96235D01*
X-90799Y96305D01*
X-90739Y96385D01*
X-90719Y96475D01*
Y93535D01*
D02*
G37*
G36*
X-90719Y88535D02*
X-90739Y88625D01*
X-90799Y88704D01*
X-90899Y88775D01*
X-91039Y88836D01*
X-91219Y88888D01*
X-91439Y88930D01*
X-91699Y88963D01*
X-92339Y89000D01*
X-92719Y89005D01*
Y91005D01*
X-92339Y91010D01*
X-91439Y91080D01*
X-91219Y91122D01*
X-91039Y91174D01*
X-90899Y91235D01*
X-90799Y91305D01*
X-90739Y91385D01*
X-90719Y91474D01*
Y88535D01*
D02*
G37*
G36*
X-112141Y91815D02*
X-112080Y91645D01*
X-111978Y91495D01*
X-111836Y91365D01*
X-111653Y91255D01*
X-111430Y91165D01*
X-111166Y91095D01*
X-110861Y91045D01*
X-110516Y91015D01*
X-110130Y91005D01*
Y89005D01*
X-110516Y88995D01*
X-110861Y88965D01*
X-111166Y88915D01*
X-111430Y88845D01*
X-111653Y88755D01*
X-111836Y88645D01*
X-111978Y88515D01*
X-112080Y88365D01*
X-112141Y88195D01*
X-112161Y88005D01*
Y92005D01*
X-112141Y91815D01*
D02*
G37*
G36*
X-90719Y73535D02*
X-90739Y73625D01*
X-90799Y73705D01*
X-90899Y73775D01*
X-91039Y73836D01*
X-91219Y73888D01*
X-91439Y73930D01*
X-91699Y73963D01*
X-92339Y74000D01*
X-92719Y74005D01*
Y76005D01*
X-92339Y76010D01*
X-91439Y76080D01*
X-91219Y76122D01*
X-91039Y76174D01*
X-90899Y76235D01*
X-90799Y76305D01*
X-90739Y76385D01*
X-90719Y76474D01*
Y73535D01*
D02*
G37*
G36*
X-114391Y73235D02*
X-114330Y73065D01*
X-114228Y72915D01*
X-114086Y72785D01*
X-113903Y72675D01*
X-113680Y72585D01*
X-113416Y72515D01*
X-113111Y72465D01*
X-112766Y72435D01*
X-112380Y72425D01*
Y70425D01*
X-112766Y70415D01*
X-113111Y70385D01*
X-113416Y70335D01*
X-113680Y70265D01*
X-113903Y70175D01*
X-114086Y70065D01*
X-114228Y69935D01*
X-114330Y69785D01*
X-114391Y69615D01*
X-114411Y69425D01*
Y73425D01*
X-114391Y73235D01*
D02*
G37*
G36*
X-122319Y69425D02*
X-122339Y69615D01*
X-122400Y69785D01*
X-122500Y69935D01*
X-122639Y70065D01*
X-122819Y70175D01*
X-123039Y70265D01*
X-123299Y70335D01*
X-123599Y70385D01*
X-123939Y70415D01*
X-124319Y70425D01*
Y72425D01*
X-123939Y72435D01*
X-123599Y72465D01*
X-123299Y72515D01*
X-123039Y72585D01*
X-122819Y72675D01*
X-122639Y72785D01*
X-122500Y72915D01*
X-122400Y73065D01*
X-122339Y73235D01*
X-122319Y73425D01*
Y69425D01*
D02*
G37*
G36*
X-132391Y73235D02*
X-132330Y73065D01*
X-132228Y72915D01*
X-132086Y72785D01*
X-131903Y72675D01*
X-131680Y72585D01*
X-131416Y72515D01*
X-131111Y72465D01*
X-130766Y72435D01*
X-130380Y72425D01*
Y70425D01*
X-130766Y70415D01*
X-131111Y70385D01*
X-131416Y70335D01*
X-131680Y70265D01*
X-131903Y70175D01*
X-132086Y70065D01*
X-132228Y69935D01*
X-132330Y69785D01*
X-132391Y69615D01*
X-132411Y69425D01*
Y73425D01*
X-132391Y73235D01*
D02*
G37*
G36*
X-140319Y69425D02*
X-140339Y69615D01*
X-140400Y69785D01*
X-140499Y69935D01*
X-140639Y70065D01*
X-140820Y70175D01*
X-141039Y70265D01*
X-141299Y70335D01*
X-141600Y70385D01*
X-141939Y70415D01*
X-142319Y70425D01*
Y72425D01*
X-141939Y72435D01*
X-141600Y72465D01*
X-141299Y72515D01*
X-141039Y72585D01*
X-140820Y72675D01*
X-140639Y72785D01*
X-140499Y72915D01*
X-140400Y73065D01*
X-140339Y73235D01*
X-140319Y73425D01*
Y69425D01*
D02*
G37*
G36*
X-147489Y73316D02*
X-147263Y73129D01*
X-147031Y72964D01*
X-146792Y72821D01*
X-146547Y72700D01*
X-146295Y72601D01*
X-146037Y72524D01*
X-145772Y72469D01*
X-145500Y72436D01*
X-145222Y72425D01*
Y70425D01*
X-145500Y70414D01*
X-145772Y70381D01*
X-146037Y70326D01*
X-146295Y70249D01*
X-146547Y70150D01*
X-146792Y70029D01*
X-147031Y69886D01*
X-147263Y69721D01*
X-147489Y69534D01*
X-147708Y69325D01*
Y73525D01*
X-147489Y73316D01*
D02*
G37*
G36*
X-90719Y68535D02*
X-90739Y68625D01*
X-90799Y68705D01*
X-90899Y68775D01*
X-91039Y68836D01*
X-91219Y68888D01*
X-91439Y68930D01*
X-91699Y68963D01*
X-92339Y69000D01*
X-92719Y69005D01*
Y71005D01*
X-92339Y71010D01*
X-91439Y71080D01*
X-91219Y71122D01*
X-91039Y71174D01*
X-90899Y71235D01*
X-90799Y71305D01*
X-90739Y71385D01*
X-90719Y71474D01*
Y68535D01*
D02*
G37*
G36*
X-114391Y58235D02*
X-114330Y58065D01*
X-114228Y57915D01*
X-114086Y57785D01*
X-113903Y57675D01*
X-113680Y57585D01*
X-113416Y57515D01*
X-113111Y57465D01*
X-112766Y57435D01*
X-112380Y57425D01*
Y55425D01*
X-112766Y55415D01*
X-113111Y55385D01*
X-113416Y55335D01*
X-113680Y55265D01*
X-113903Y55175D01*
X-114086Y55065D01*
X-114228Y54935D01*
X-114330Y54785D01*
X-114391Y54615D01*
X-114411Y54425D01*
Y58425D01*
X-114391Y58235D01*
D02*
G37*
G36*
X-122319Y54425D02*
X-122339Y54615D01*
X-122400Y54785D01*
X-122500Y54935D01*
X-122639Y55065D01*
X-122819Y55175D01*
X-123039Y55265D01*
X-123299Y55335D01*
X-123599Y55385D01*
X-123939Y55415D01*
X-124319Y55425D01*
Y57425D01*
X-123939Y57435D01*
X-123599Y57465D01*
X-123299Y57515D01*
X-123039Y57585D01*
X-122819Y57675D01*
X-122639Y57785D01*
X-122500Y57915D01*
X-122400Y58065D01*
X-122339Y58235D01*
X-122319Y58425D01*
Y54425D01*
D02*
G37*
G36*
X-132391Y58235D02*
X-132330Y58065D01*
X-132228Y57915D01*
X-132086Y57785D01*
X-131903Y57675D01*
X-131680Y57585D01*
X-131416Y57515D01*
X-131111Y57465D01*
X-130766Y57435D01*
X-130380Y57425D01*
Y55425D01*
X-130766Y55415D01*
X-131111Y55385D01*
X-131416Y55335D01*
X-131680Y55265D01*
X-131903Y55175D01*
X-132086Y55065D01*
X-132228Y54935D01*
X-132330Y54785D01*
X-132391Y54615D01*
X-132411Y54425D01*
Y58425D01*
X-132391Y58235D01*
D02*
G37*
G36*
X-140319Y54425D02*
X-140339Y54615D01*
X-140400Y54785D01*
X-140499Y54935D01*
X-140639Y55065D01*
X-140820Y55175D01*
X-141039Y55265D01*
X-141299Y55335D01*
X-141600Y55385D01*
X-141939Y55415D01*
X-142319Y55425D01*
Y57425D01*
X-141939Y57435D01*
X-141600Y57465D01*
X-141299Y57515D01*
X-141039Y57585D01*
X-140820Y57675D01*
X-140639Y57785D01*
X-140499Y57915D01*
X-140400Y58065D01*
X-140339Y58235D01*
X-140319Y58425D01*
Y54425D01*
D02*
G37*
G36*
X-147489Y58316D02*
X-147263Y58129D01*
X-147031Y57964D01*
X-146792Y57821D01*
X-146547Y57700D01*
X-146295Y57601D01*
X-146037Y57524D01*
X-145772Y57469D01*
X-145500Y57436D01*
X-145222Y57425D01*
Y55425D01*
X-145500Y55414D01*
X-145772Y55381D01*
X-146037Y55326D01*
X-146295Y55249D01*
X-146547Y55150D01*
X-146792Y55029D01*
X-147031Y54886D01*
X-147263Y54721D01*
X-147489Y54534D01*
X-147708Y54325D01*
Y58525D01*
X-147489Y58316D01*
D02*
G37*
G36*
X-197642Y21885D02*
X-197581Y21715D01*
X-197480Y21565D01*
X-197338Y21435D01*
X-197155Y21325D01*
X-196932Y21235D01*
X-196668Y21165D01*
X-196363Y21115D01*
X-196018Y21085D01*
X-195632Y21075D01*
Y19075D01*
X-196018Y19065D01*
X-196363Y19035D01*
X-196668Y18985D01*
X-196932Y18915D01*
X-197155Y18825D01*
X-197338Y18715D01*
X-197480Y18585D01*
X-197581Y18435D01*
X-197642Y18265D01*
X-197663Y18075D01*
Y22075D01*
X-197642Y21885D01*
D02*
G37*
G36*
X-227638Y17975D02*
X-227658Y18165D01*
X-227719Y18335D01*
X-227820Y18485D01*
X-227962Y18615D01*
X-228145Y18725D01*
X-228368Y18815D01*
X-228632Y18885D01*
X-228937Y18935D01*
X-229282Y18965D01*
X-229668Y18975D01*
Y20975D01*
X-229282Y20985D01*
X-228937Y21015D01*
X-228632Y21065D01*
X-228368Y21135D01*
X-228145Y21225D01*
X-227962Y21335D01*
X-227820Y21465D01*
X-227719Y21615D01*
X-227658Y21785D01*
X-227638Y21975D01*
Y17975D01*
D02*
G37*
G36*
X227658Y21785D02*
X227719Y21615D01*
X227820Y21465D01*
X227962Y21335D01*
X228145Y21225D01*
X228368Y21135D01*
X228632Y21065D01*
X228937Y21015D01*
X229282Y20985D01*
X229668Y20975D01*
Y18975D01*
X229282Y18965D01*
X228937Y18935D01*
X228632Y18885D01*
X228368Y18815D01*
X228145Y18725D01*
X227962Y18615D01*
X227820Y18485D01*
X227719Y18335D01*
X227658Y18165D01*
X227637Y17975D01*
Y21975D01*
X227658Y21785D01*
D02*
G37*
G36*
X-42256Y293339D02*
X-42133Y293314D01*
X-42014Y293278D01*
X-41896Y293232D01*
X-41778Y293174D01*
X-41657Y293101D01*
X-41531Y293012D01*
X-41401Y292904D01*
X-41225Y292736D01*
X-41100Y292656D01*
X-40551Y292107D01*
X-40479Y292077D01*
X-40731Y290807D01*
X-117900D01*
X-118946Y290599D01*
X-119832Y290007D01*
X-253832Y156007D01*
X-254424Y155121D01*
X-254632Y154075D01*
Y29600D01*
X-254424Y28554D01*
X-253832Y27668D01*
X-244207Y18043D01*
X-243321Y17450D01*
X-242275Y17242D01*
X-229366D01*
X-229088Y15844D01*
X-228164Y14461D01*
X-226781Y13537D01*
X-225150Y13213D01*
X-200150D01*
X-198519Y13537D01*
X-197136Y14461D01*
X-196213Y15844D01*
X-195914Y17342D01*
X-178887D01*
X-177842Y17550D01*
X-176955Y18143D01*
X-165968Y29130D01*
X-165375Y30017D01*
X-165168Y31062D01*
Y101401D01*
X-154967Y111601D01*
X-153733D01*
X-153348Y110331D01*
X-153832Y110007D01*
X-161832Y102007D01*
X-162425Y101121D01*
X-162633Y100075D01*
Y13899D01*
X-173825Y2707D01*
X-195934D01*
X-196213Y4106D01*
X-197136Y5489D01*
X-198519Y6412D01*
X-200150Y6737D01*
X-225150D01*
X-226781Y6412D01*
X-228164Y5489D01*
X-229088Y4106D01*
X-229366Y2707D01*
X-236112D01*
X-257167Y23763D01*
Y156943D01*
X-120768Y293342D01*
X-42283D01*
X-42256Y293339D01*
D02*
G37*
G36*
X259111Y4425D02*
X259144Y4153D01*
X259199Y3888D01*
X259276Y3630D01*
X259375Y3378D01*
X259496Y3133D01*
X259639Y2894D01*
X259804Y2662D01*
X259991Y2436D01*
X260200Y2217D01*
X256000D01*
X256209Y2436D01*
X256396Y2662D01*
X256561Y2894D01*
X256704Y3133D01*
X256825Y3378D01*
X256924Y3630D01*
X257001Y3888D01*
X257056Y4153D01*
X257089Y4425D01*
X257100Y4703D01*
X259100D01*
X259111Y4425D01*
D02*
G37*
G36*
X-197642Y1785D02*
X-197581Y1615D01*
X-197480Y1465D01*
X-197338Y1335D01*
X-197155Y1225D01*
X-196932Y1135D01*
X-196668Y1065D01*
X-196363Y1015D01*
X-196018Y985D01*
X-195632Y975D01*
Y-1025D01*
X-196018Y-1035D01*
X-196363Y-1065D01*
X-196668Y-1115D01*
X-196932Y-1185D01*
X-197155Y-1275D01*
X-197338Y-1385D01*
X-197480Y-1515D01*
X-197581Y-1665D01*
X-197642Y-1835D01*
X-197663Y-2025D01*
Y1975D01*
X-197642Y1785D01*
D02*
G37*
G36*
X-227638Y-2025D02*
X-227658Y-1835D01*
X-227719Y-1665D01*
X-227820Y-1515D01*
X-227962Y-1385D01*
X-228145Y-1275D01*
X-228368Y-1185D01*
X-228632Y-1115D01*
X-228937Y-1065D01*
X-229282Y-1035D01*
X-229668Y-1025D01*
Y975D01*
X-229282Y985D01*
X-228937Y1015D01*
X-228632Y1065D01*
X-228368Y1135D01*
X-228145Y1225D01*
X-227962Y1335D01*
X-227820Y1465D01*
X-227719Y1615D01*
X-227658Y1785D01*
X-227638Y1975D01*
Y-2025D01*
D02*
G37*
G36*
X227658Y1785D02*
X227719Y1615D01*
X227820Y1465D01*
X227962Y1335D01*
X228145Y1225D01*
X228368Y1135D01*
X228632Y1065D01*
X228937Y1015D01*
X229282Y985D01*
X229668Y975D01*
Y-1025D01*
X229282Y-1035D01*
X228937Y-1065D01*
X228632Y-1115D01*
X228368Y-1185D01*
X228145Y-1275D01*
X227962Y-1385D01*
X227820Y-1515D01*
X227719Y-1665D01*
X227658Y-1835D01*
X227637Y-2025D01*
Y1975D01*
X227658Y1785D01*
D02*
G37*
G36*
X237858Y-2125D02*
X237639Y-1916D01*
X237413Y-1729D01*
X237181Y-1564D01*
X236942Y-1421D01*
X236697Y-1300D01*
X236445Y-1201D01*
X236187Y-1124D01*
X235921Y-1069D01*
X235650Y-1036D01*
X235372Y-1025D01*
Y975D01*
X235650Y986D01*
X235921Y1019D01*
X236187Y1074D01*
X236445Y1151D01*
X236697Y1250D01*
X236942Y1371D01*
X237181Y1514D01*
X237413Y1679D01*
X237639Y1866D01*
X237858Y2075D01*
Y-2125D01*
D02*
G37*
G36*
X259991Y-2286D02*
X259804Y-2512D01*
X259639Y-2744D01*
X259496Y-2983D01*
X259375Y-3228D01*
X259276Y-3480D01*
X259199Y-3738D01*
X259144Y-4004D01*
X259111Y-4275D01*
X259100Y-4554D01*
X257100D01*
X257089Y-4275D01*
X257056Y-4004D01*
X257001Y-3738D01*
X256924Y-3480D01*
X256825Y-3228D01*
X256704Y-2983D01*
X256561Y-2744D01*
X256396Y-2512D01*
X256209Y-2286D01*
X256000Y-2068D01*
X260200D01*
X259991Y-2286D01*
D02*
G37*
G36*
X245718Y184143D02*
X264918Y164943D01*
Y-164943D01*
X262103Y-167758D01*
X260833Y-167232D01*
Y-4308D01*
X260836Y-4281D01*
X260861Y-4158D01*
X260897Y-4039D01*
X260943Y-3921D01*
X261001Y-3803D01*
X261074Y-3682D01*
X261163Y-3556D01*
X261271Y-3426D01*
X261439Y-3250D01*
X261518Y-3125D01*
X262068Y-2576D01*
X262780Y-856D01*
Y1006D01*
X262068Y2726D01*
X261518Y3275D01*
X261439Y3400D01*
X261271Y3576D01*
X261163Y3706D01*
X261074Y3832D01*
X261001Y3953D01*
X260943Y4071D01*
X260897Y4189D01*
X260861Y4308D01*
X260836Y4431D01*
X260833Y4458D01*
Y166075D01*
X260625Y167121D01*
X260032Y168007D01*
X130032Y298007D01*
X129146Y298599D01*
X128100Y298807D01*
X-33517D01*
X-33544Y298811D01*
X-33667Y298836D01*
X-33786Y298872D01*
X-33904Y298918D01*
X-34022Y298976D01*
X-34143Y299049D01*
X-34269Y299138D01*
X-34399Y299246D01*
X-34575Y299414D01*
X-34700Y299493D01*
X-35249Y300042D01*
X-36969Y300755D01*
X-38831D01*
X-40551Y300042D01*
X-41100Y299493D01*
X-41225Y299414D01*
X-41401Y299246D01*
X-41531Y299138D01*
X-41657Y299049D01*
X-41778Y298976D01*
X-41896Y298918D01*
X-42014Y298872D01*
X-42133Y298836D01*
X-42256Y298811D01*
X-42283Y298807D01*
X-121900D01*
X-122946Y298599D01*
X-123832Y298007D01*
X-261832Y160007D01*
X-262425Y159121D01*
X-262633Y158075D01*
Y22631D01*
X-262425Y21586D01*
X-261832Y20699D01*
X-239176Y-1957D01*
X-238290Y-2549D01*
X-237244Y-2758D01*
X-229366D01*
X-229088Y-4156D01*
X-228164Y-5539D01*
X-226781Y-6463D01*
X-225150Y-6787D01*
X-200150D01*
X-198519Y-6463D01*
X-197136Y-5539D01*
X-196213Y-4156D01*
X-195934Y-2758D01*
X-172693D01*
X-171647Y-2549D01*
X-170760Y-1957D01*
X-157968Y10835D01*
X-157375Y11722D01*
X-157168Y12768D01*
Y98943D01*
X-150768Y105342D01*
X-142380D01*
X-142356Y105339D01*
X-142248Y105315D01*
X-142150Y105283D01*
X-142057Y105243D01*
X-141965Y105192D01*
X-141871Y105128D01*
X-141774Y105049D01*
X-141647Y104922D01*
X-141519Y104775D01*
X-141440Y104715D01*
X-140551Y103826D01*
X-138831Y103113D01*
X-136969D01*
X-135249Y103826D01*
X-133933Y105142D01*
X-133220Y106862D01*
Y108724D01*
X-133885Y110331D01*
X-133430Y111601D01*
X-127884D01*
X-113811Y97528D01*
X-114297Y96355D01*
X-122280D01*
Y83495D01*
X-110420D01*
Y87272D01*
X-92430D01*
Y77737D01*
X-101270D01*
X-102316Y77530D01*
X-103202Y76937D01*
X-105982Y74158D01*
X-112670D01*
Y77105D01*
X-124030D01*
Y74158D01*
X-130670D01*
Y77105D01*
X-142030D01*
Y74158D01*
X-145467D01*
X-145494Y74161D01*
X-145617Y74186D01*
X-145736Y74222D01*
X-145854Y74268D01*
X-145972Y74326D01*
X-146093Y74399D01*
X-146219Y74488D01*
X-146349Y74596D01*
X-146525Y74764D01*
X-146650Y74844D01*
X-147199Y75392D01*
X-148919Y76105D01*
X-150781D01*
X-152501Y75392D01*
X-153818Y74076D01*
X-154530Y72356D01*
Y70494D01*
X-153818Y68774D01*
X-152501Y67457D01*
X-150781Y66745D01*
X-148919D01*
X-147199Y67457D01*
X-146650Y68007D01*
X-146525Y68086D01*
X-146349Y68254D01*
X-146219Y68362D01*
X-146093Y68451D01*
X-145972Y68524D01*
X-145854Y68582D01*
X-145736Y68628D01*
X-145617Y68664D01*
X-145494Y68689D01*
X-145467Y68692D01*
X-142030D01*
Y65745D01*
X-130670D01*
Y68692D01*
X-124030D01*
Y65745D01*
X-112670D01*
Y68692D01*
X-104850D01*
X-103804Y68900D01*
X-102918Y69493D01*
X-100774Y71637D01*
X-100378Y71558D01*
X-99960Y70180D01*
X-110540Y59599D01*
X-111810Y60125D01*
Y62965D01*
X-124890D01*
Y59157D01*
X-129810D01*
Y62965D01*
X-142890D01*
Y59157D01*
X-145467D01*
X-145494Y59161D01*
X-145617Y59186D01*
X-145736Y59222D01*
X-145854Y59268D01*
X-145972Y59326D01*
X-146093Y59399D01*
X-146219Y59488D01*
X-146349Y59596D01*
X-146525Y59764D01*
X-146791Y59933D01*
X-147052Y60107D01*
X-147072Y60111D01*
X-147089Y60122D01*
X-147399Y60177D01*
X-147708Y60238D01*
X-147727Y60234D01*
X-147747Y60237D01*
X-148054Y60169D01*
X-148363Y60107D01*
X-148380Y60096D01*
X-148400Y60092D01*
X-148657Y59911D01*
X-148919Y59736D01*
X-148930Y59719D01*
X-148947Y59708D01*
X-149115Y59442D01*
X-149290Y59180D01*
X-149294Y59161D01*
X-149296Y59157D01*
X-149850D01*
X-150896Y58949D01*
X-151782Y58357D01*
X-152374Y57471D01*
X-152583Y56425D01*
X-152374Y55379D01*
X-151782Y54493D01*
X-150896Y53900D01*
X-149850Y53692D01*
X-149296D01*
X-149294Y53689D01*
X-149290Y53669D01*
X-149115Y53408D01*
X-148947Y53142D01*
X-148930Y53131D01*
X-148919Y53114D01*
X-148658Y52939D01*
X-148400Y52758D01*
X-148380Y52754D01*
X-148363Y52742D01*
X-148055Y52681D01*
X-147747Y52613D01*
X-147727Y52616D01*
X-147708Y52612D01*
X-147399Y52673D01*
X-147089Y52728D01*
X-147072Y52738D01*
X-147052Y52742D01*
X-146790Y52917D01*
X-146525Y53086D01*
X-146349Y53253D01*
X-146219Y53362D01*
X-146093Y53451D01*
X-145972Y53524D01*
X-145854Y53582D01*
X-145736Y53628D01*
X-145617Y53664D01*
X-145494Y53689D01*
X-145467Y53692D01*
X-142890D01*
Y49885D01*
X-129810D01*
Y53692D01*
X-124890D01*
Y49885D01*
X-111810D01*
Y53692D01*
X-109850D01*
X-108804Y53900D01*
X-107918Y54493D01*
X-95138Y67273D01*
X-93290D01*
Y65965D01*
X-71210D01*
Y74045D01*
X-72070D01*
Y86825D01*
X-72070D01*
Y93185D01*
X-72070D01*
Y103185D01*
X-72070D01*
Y106825D01*
X-72070D01*
Y118185D01*
X-72070D01*
Y122272D01*
X-63962D01*
X-56932Y115242D01*
X-56915Y115221D01*
X-56845Y115115D01*
X-56786Y115006D01*
X-56736Y114891D01*
X-56694Y114766D01*
X-56659Y114628D01*
X-56634Y114477D01*
X-56618Y114308D01*
X-56612Y114065D01*
X-56580Y113920D01*
Y113144D01*
X-55868Y111424D01*
X-54551Y110107D01*
X-52831Y109395D01*
X-50969D01*
X-49249Y110107D01*
X-47933Y111424D01*
X-47220Y113144D01*
Y115006D01*
X-47933Y116726D01*
X-49249Y118042D01*
X-50969Y118755D01*
X-51745D01*
X-51890Y118787D01*
X-52133Y118793D01*
X-52302Y118809D01*
X-52453Y118834D01*
X-52591Y118869D01*
X-52716Y118911D01*
X-52831Y118961D01*
X-52940Y119021D01*
X-53046Y119090D01*
X-53067Y119106D01*
X-60898Y126937D01*
X-61784Y127529D01*
X-62830Y127737D01*
X-72070D01*
Y128185D01*
X-73768D01*
X-73780Y128187D01*
X-73793Y128185D01*
X-92430D01*
Y116825D01*
X-92430D01*
Y108185D01*
X-92430D01*
Y102737D01*
X-99972D01*
X-104701Y107466D01*
X-104715Y107484D01*
X-104805Y107611D01*
X-104888Y107747D01*
X-104965Y107894D01*
X-105036Y108054D01*
X-105100Y108226D01*
X-105157Y108413D01*
X-105207Y108617D01*
X-105220Y108686D01*
Y109006D01*
X-105933Y110726D01*
X-106482Y111275D01*
X-106561Y111400D01*
X-106729Y111576D01*
X-106837Y111706D01*
X-106926Y111832D01*
X-106999Y111953D01*
X-107057Y112071D01*
X-107103Y112189D01*
X-107139Y112308D01*
X-107164Y112431D01*
X-107168Y112458D01*
Y121895D01*
X-103470D01*
Y133755D01*
X-116330D01*
Y121895D01*
X-112633D01*
Y112458D01*
X-112636Y112431D01*
X-112661Y112308D01*
X-112697Y112189D01*
X-112743Y112071D01*
X-112801Y111953D01*
X-112874Y111832D01*
X-112963Y111706D01*
X-113071Y111576D01*
X-113239Y111400D01*
X-113319Y111275D01*
X-113868Y110726D01*
X-114580Y109006D01*
Y107822D01*
X-115850Y107296D01*
X-124820Y116265D01*
X-125706Y116858D01*
X-126752Y117066D01*
X-133128D01*
X-133161Y117072D01*
X-133167Y117106D01*
Y121895D01*
X-129470D01*
Y133755D01*
X-142330D01*
Y121895D01*
X-138632D01*
Y117106D01*
X-138638Y117072D01*
X-138672Y117066D01*
X-156099D01*
X-156099Y117066D01*
X-157145Y116858D01*
X-158032Y116265D01*
X-169832Y104465D01*
X-170424Y103578D01*
X-170632Y102533D01*
Y32194D01*
X-180019Y22807D01*
X-195954D01*
X-196213Y24106D01*
X-197136Y25489D01*
X-198519Y26412D01*
X-200150Y26737D01*
X-225150D01*
X-226781Y26412D01*
X-228164Y25489D01*
X-229088Y24106D01*
X-229366Y22708D01*
X-241143D01*
X-249167Y30732D01*
Y152943D01*
X-116768Y285342D01*
X-20833D01*
Y267791D01*
X-22231Y267512D01*
X-23614Y266588D01*
X-24537Y265206D01*
X-24862Y263575D01*
Y238575D01*
X-24537Y236944D01*
X-23614Y235561D01*
X-22231Y234638D01*
X-20600Y234313D01*
X-15600D01*
X-13969Y234638D01*
X-12586Y235561D01*
X-11662Y236944D01*
X-11338Y238575D01*
Y263575D01*
X-11662Y265206D01*
X-12586Y266588D01*
X-13969Y267512D01*
X-15367Y267791D01*
Y285342D01*
X125793D01*
X147951Y263184D01*
X147534Y261806D01*
X146605Y261621D01*
X145222Y260697D01*
X136030Y251505D01*
X135106Y250123D01*
X134782Y248492D01*
X135106Y246861D01*
X136030Y245478D01*
X139566Y241942D01*
X140948Y241019D01*
X142579Y240694D01*
X144210Y241019D01*
X145593Y241942D01*
X154785Y251135D01*
X155709Y252517D01*
X155894Y253446D01*
X157272Y253864D01*
X209046Y202090D01*
X208627Y200712D01*
X207699Y200527D01*
X206317Y199604D01*
X197124Y190411D01*
X196200Y189028D01*
X195876Y187397D01*
X196200Y185767D01*
X196992Y184581D01*
X183650Y171239D01*
X182465Y172031D01*
X180834Y172355D01*
X179203Y172031D01*
X177820Y171107D01*
X166506Y159793D01*
X165583Y158411D01*
X165258Y156780D01*
X165583Y155149D01*
X166506Y153766D01*
X170042Y150231D01*
X171425Y149307D01*
X173055Y148982D01*
X174687Y149307D01*
X176069Y150231D01*
X187383Y161544D01*
X188307Y162927D01*
X188631Y164558D01*
X188307Y166189D01*
X187514Y167374D01*
X200857Y180717D01*
X202042Y179925D01*
X203673Y179600D01*
X205304Y179925D01*
X206687Y180848D01*
X207844Y182006D01*
X209018Y181520D01*
Y141430D01*
X205820D01*
Y128570D01*
X217680D01*
Y141430D01*
X214482D01*
Y184978D01*
X214275Y186023D01*
X213682Y186910D01*
X213215Y187377D01*
X215879Y190041D01*
X216803Y191423D01*
X216988Y192352D01*
X218366Y192770D01*
X245368Y165768D01*
Y140010D01*
X244097Y139238D01*
X243031Y139680D01*
X241169D01*
X239449Y138968D01*
X238900Y138418D01*
X238775Y138339D01*
X238599Y138171D01*
X238469Y138063D01*
X238343Y137974D01*
X238222Y137901D01*
X238104Y137843D01*
X237986Y137797D01*
X237867Y137761D01*
X237744Y137736D01*
X237717Y137732D01*
X234180D01*
Y141430D01*
X222320D01*
Y128570D01*
X234180D01*
Y132268D01*
X237717D01*
X237744Y132264D01*
X237867Y132239D01*
X237986Y132203D01*
X238104Y132157D01*
X238222Y132099D01*
X238343Y132026D01*
X238469Y131937D01*
X238599Y131829D01*
X238775Y131661D01*
X238900Y131581D01*
X239449Y131032D01*
X241169Y130320D01*
X243031D01*
X244097Y130762D01*
X245368Y129990D01*
Y22707D01*
X229366D01*
X229088Y24106D01*
X228164Y25489D01*
X226781Y26412D01*
X225150Y26737D01*
X200150D01*
X198519Y26412D01*
X197136Y25489D01*
X196213Y24106D01*
X195888Y22475D01*
Y17475D01*
X196213Y15844D01*
X197136Y14461D01*
X198519Y13537D01*
X200150Y13213D01*
X225150D01*
X226781Y13537D01*
X228164Y14461D01*
X229088Y15844D01*
X229366Y17242D01*
X245368D01*
Y2565D01*
X244097Y2312D01*
X243968Y2626D01*
X242651Y3943D01*
X240931Y4655D01*
X239069D01*
X237349Y3943D01*
X236800Y3393D01*
X236675Y3314D01*
X236499Y3146D01*
X236369Y3038D01*
X236243Y2949D01*
X236122Y2876D01*
X236004Y2818D01*
X235886Y2772D01*
X235767Y2736D01*
X235644Y2711D01*
X235617Y2707D01*
X229366D01*
X229088Y4106D01*
X228164Y5488D01*
X226781Y6412D01*
X225150Y6737D01*
X200150D01*
X198519Y6412D01*
X197136Y5488D01*
X196213Y4106D01*
X195888Y2475D01*
Y-2525D01*
X196213Y-4156D01*
X197136Y-5539D01*
X198519Y-6463D01*
X200150Y-6787D01*
X225150D01*
X226781Y-6463D01*
X228164Y-5539D01*
X229088Y-4156D01*
X229366Y-2758D01*
X235617D01*
X235644Y-2761D01*
X235767Y-2786D01*
X235886Y-2822D01*
X236004Y-2868D01*
X236122Y-2926D01*
X236243Y-2999D01*
X236369Y-3088D01*
X236499Y-3196D01*
X236675Y-3364D01*
X236800Y-3444D01*
X237349Y-3993D01*
X239069Y-4705D01*
X240931D01*
X242651Y-3993D01*
X243968Y-2676D01*
X244097Y-2362D01*
X245368Y-2615D01*
Y-164793D01*
X128968Y-281193D01*
X-11082D01*
X-15367Y-276907D01*
Y-267791D01*
X-13969Y-267512D01*
X-12586Y-266589D01*
X-11663Y-265206D01*
X-11338Y-263575D01*
Y-238575D01*
X-11663Y-236944D01*
X-12586Y-235561D01*
X-13969Y-234638D01*
X-15600Y-234313D01*
X-20600D01*
X-22231Y-234638D01*
X-23614Y-235561D01*
X-24537Y-236944D01*
X-24862Y-238575D01*
Y-263575D01*
X-24537Y-265206D01*
X-23614Y-266589D01*
X-22231Y-267512D01*
X-20833Y-267791D01*
Y-278039D01*
X-20624Y-279084D01*
X-20032Y-279971D01*
X-14146Y-285857D01*
X-13260Y-286450D01*
X-12214Y-286658D01*
X130100D01*
X131146Y-286450D01*
X132032Y-285857D01*
X250032Y-167857D01*
X250625Y-166971D01*
X250833Y-165925D01*
Y20075D01*
Y166900D01*
X250833Y166900D01*
X250638Y167876D01*
X250693Y167955D01*
X251837Y168473D01*
X255368Y164943D01*
Y4458D01*
X255364Y4431D01*
X255339Y4308D01*
X255303Y4189D01*
X255257Y4071D01*
X255199Y3953D01*
X255126Y3832D01*
X255037Y3706D01*
X254929Y3576D01*
X254761Y3400D01*
X254681Y3275D01*
X254132Y2726D01*
X253420Y1006D01*
Y-856D01*
X254132Y-2576D01*
X254682Y-3125D01*
X254761Y-3250D01*
X254929Y-3426D01*
X255037Y-3556D01*
X255126Y-3682D01*
X255199Y-3803D01*
X255257Y-3921D01*
X255303Y-4039D01*
X255339Y-4158D01*
X255364Y-4281D01*
X255368Y-4308D01*
Y-167793D01*
X131968Y-291193D01*
X-25768D01*
X-35368Y-281593D01*
Y-267791D01*
X-33969Y-267512D01*
X-32586Y-266589D01*
X-31663Y-265206D01*
X-31338Y-263575D01*
Y-238575D01*
X-31663Y-236944D01*
X-32586Y-235561D01*
X-33969Y-234638D01*
X-35600Y-234313D01*
X-40600D01*
X-42231Y-234638D01*
X-43614Y-235561D01*
X-44538Y-236944D01*
X-44862Y-238575D01*
Y-263575D01*
X-44538Y-265206D01*
X-43614Y-266589D01*
X-42231Y-267512D01*
X-40833Y-267791D01*
Y-282725D01*
X-40624Y-283771D01*
X-40032Y-284657D01*
X-28832Y-295857D01*
X-27946Y-296450D01*
X-26900Y-296658D01*
X131407D01*
X131933Y-297928D01*
X126518Y-303342D01*
X-126518D01*
X-264918Y-164943D01*
Y164943D01*
X-126518Y303342D01*
X126518D01*
X245718Y184143D01*
D02*
G37*
G36*
X-16290Y-266083D02*
X-16460Y-266144D01*
X-16610Y-266245D01*
X-16740Y-266387D01*
X-16850Y-266570D01*
X-16940Y-266793D01*
X-17010Y-267057D01*
X-17060Y-267362D01*
X-17090Y-267707D01*
X-17100Y-268093D01*
X-19100D01*
X-19110Y-267707D01*
X-19140Y-267362D01*
X-19190Y-267057D01*
X-19260Y-266793D01*
X-19350Y-266570D01*
X-19460Y-266387D01*
X-19590Y-266245D01*
X-19740Y-266144D01*
X-19910Y-266083D01*
X-20100Y-266062D01*
X-16100D01*
X-16290Y-266083D01*
D02*
G37*
G36*
X-36290D02*
X-36460Y-266144D01*
X-36610Y-266245D01*
X-36740Y-266387D01*
X-36850Y-266570D01*
X-36940Y-266793D01*
X-37010Y-267057D01*
X-37060Y-267362D01*
X-37090Y-267707D01*
X-37100Y-268093D01*
X-39100D01*
X-39110Y-267707D01*
X-39140Y-267362D01*
X-39190Y-267057D01*
X-39260Y-266793D01*
X-39350Y-266570D01*
X-39460Y-266387D01*
X-39590Y-266245D01*
X-39740Y-266144D01*
X-39910Y-266083D01*
X-40100Y-266062D01*
X-36100D01*
X-36290Y-266083D01*
D02*
G37*
%LPC*%
G36*
X69638Y277755D02*
X66562D01*
X63592Y276959D01*
X60928Y275421D01*
X58754Y273247D01*
X57216Y270583D01*
X56420Y267613D01*
Y264537D01*
X57216Y261567D01*
X58754Y258903D01*
X60928Y256729D01*
X63592Y255191D01*
X66562Y254395D01*
X69638D01*
X72608Y255191D01*
X75272Y256729D01*
X77446Y258903D01*
X78984Y261567D01*
X79780Y264537D01*
Y267613D01*
X78984Y270583D01*
X77446Y273247D01*
X75272Y275421D01*
X72608Y276959D01*
X69638Y277755D01*
D02*
G37*
G36*
X-66562D02*
X-69638D01*
X-72608Y276959D01*
X-75272Y275421D01*
X-77446Y273247D01*
X-78984Y270583D01*
X-79780Y267613D01*
Y264537D01*
X-78984Y261567D01*
X-77446Y258903D01*
X-75272Y256729D01*
X-72608Y255191D01*
X-69638Y254395D01*
X-66562D01*
X-63592Y255191D01*
X-60928Y256729D01*
X-58754Y258903D01*
X-57216Y261567D01*
X-56420Y264537D01*
Y267613D01*
X-57216Y270583D01*
X-58754Y273247D01*
X-60928Y275421D01*
X-63592Y276959D01*
X-66562Y277755D01*
D02*
G37*
G36*
X40600Y268714D02*
X39370D01*
Y252345D01*
X45739D01*
Y263575D01*
X45348Y265541D01*
X44234Y267209D01*
X42566Y268323D01*
X40600Y268714D01*
D02*
G37*
G36*
X36830D02*
X35600D01*
X33633Y268323D01*
X31966Y267209D01*
X30852Y265541D01*
X30461Y263575D01*
Y252345D01*
X36830D01*
Y268714D01*
D02*
G37*
G36*
X-37169Y282955D02*
X-39031D01*
X-40751Y282243D01*
X-42067Y280926D01*
X-42780Y279206D01*
Y277344D01*
X-42067Y275624D01*
X-41518Y275075D01*
X-41439Y274950D01*
X-41271Y274774D01*
X-41163Y274644D01*
X-41074Y274518D01*
X-41001Y274397D01*
X-40943Y274279D01*
X-40897Y274161D01*
X-40861Y274042D01*
X-40836Y273918D01*
X-40833Y273892D01*
Y267791D01*
X-42231Y267512D01*
X-43614Y266588D01*
X-44538Y265206D01*
X-44862Y263575D01*
Y238575D01*
X-44538Y236944D01*
X-43614Y235561D01*
X-42231Y234638D01*
X-40600Y234313D01*
X-35600D01*
X-33969Y234638D01*
X-32586Y235561D01*
X-31662Y236944D01*
X-31338Y238575D01*
Y263575D01*
X-31662Y265206D01*
X-32586Y266588D01*
X-33969Y267512D01*
X-35368Y267791D01*
Y273892D01*
X-35364Y273919D01*
X-35339Y274042D01*
X-35303Y274161D01*
X-35257Y274279D01*
X-35199Y274397D01*
X-35126Y274518D01*
X-35037Y274644D01*
X-34929Y274774D01*
X-34761Y274950D01*
X-34681Y275075D01*
X-34132Y275624D01*
X-33420Y277344D01*
Y279206D01*
X-34132Y280926D01*
X-35449Y282243D01*
X-37169Y282955D01*
D02*
G37*
G36*
X45739Y249805D02*
X39370D01*
Y233436D01*
X40600D01*
X42566Y233827D01*
X44234Y234941D01*
X45348Y236608D01*
X45739Y238575D01*
Y249805D01*
D02*
G37*
G36*
X36830D02*
X30461D01*
Y238575D01*
X30852Y236608D01*
X31966Y234941D01*
X33633Y233827D01*
X35600Y233436D01*
X36830D01*
Y249805D01*
D02*
G37*
G36*
X75931Y237680D02*
X74069D01*
X72349Y236968D01*
X71033Y235651D01*
X70320Y233931D01*
Y232069D01*
X71033Y230349D01*
X71582Y229800D01*
X71661Y229675D01*
X71719Y229614D01*
X71469Y228376D01*
X71427Y228337D01*
X71350Y228283D01*
X71161Y228180D01*
X69320D01*
Y216820D01*
X80680D01*
Y228180D01*
X78839D01*
X78650Y228283D01*
X78573Y228338D01*
X78531Y228375D01*
X78280Y229613D01*
X78339Y229675D01*
X78418Y229800D01*
X78967Y230349D01*
X79680Y232069D01*
Y233931D01*
X78967Y235651D01*
X77651Y236968D01*
X75931Y237680D01*
D02*
G37*
G36*
X174180Y226430D02*
X162320D01*
Y213570D01*
X174180D01*
Y217267D01*
X176830D01*
X176857Y217264D01*
X176981Y217239D01*
X177099Y217203D01*
X177217Y217157D01*
X177335Y217099D01*
X177456Y217026D01*
X177582Y216937D01*
X177712Y216829D01*
X177888Y216661D01*
X178013Y216581D01*
X178562Y216033D01*
X180282Y215320D01*
X182144D01*
X183864Y216033D01*
X185181Y217349D01*
X185893Y219069D01*
Y220931D01*
X185181Y222651D01*
X183864Y223967D01*
X182144Y224680D01*
X180282D01*
X178562Y223967D01*
X178013Y223418D01*
X177888Y223339D01*
X177712Y223171D01*
X177582Y223063D01*
X177456Y222974D01*
X177335Y222901D01*
X177217Y222843D01*
X177099Y222797D01*
X176981Y222761D01*
X176857Y222736D01*
X176830Y222733D01*
X174180D01*
Y226430D01*
D02*
G37*
G36*
X4400Y267837D02*
X-600D01*
X-2231Y267512D01*
X-3614Y266588D01*
X-4538Y265206D01*
X-4862Y263575D01*
Y238575D01*
X-4618Y237348D01*
X-4618Y237344D01*
X-4616Y237337D01*
X-4538Y236944D01*
X-4388Y236721D01*
X-4387Y236717D01*
X-4074Y236206D01*
X-3822Y235713D01*
X-3595Y235178D01*
X-3394Y234597D01*
X-3221Y233972D01*
X-3077Y233302D01*
X-2966Y232604D01*
X-2872Y231488D01*
Y220025D01*
X-2780Y219564D01*
Y219094D01*
X-2600Y218660D01*
X-2508Y218199D01*
X-2247Y217808D01*
X-2068Y217374D01*
X-1735Y217042D01*
X-1474Y216651D01*
X-1083Y216390D01*
X-751Y216057D01*
X-317Y215878D01*
X74Y215616D01*
X535Y215525D01*
X969Y215345D01*
X1439D01*
X1900Y215253D01*
X2361Y215345D01*
X2831D01*
X3265Y215525D01*
X3726Y215616D01*
X4117Y215878D01*
X4551Y216057D01*
X4883Y216390D01*
X5274Y216651D01*
X5535Y217042D01*
X5867Y217374D01*
X6047Y217808D01*
X6309Y218199D01*
X6400Y218660D01*
X6580Y219094D01*
Y219564D01*
X6672Y220025D01*
Y231488D01*
X6766Y232604D01*
X6877Y233301D01*
X7021Y233972D01*
X7194Y234597D01*
X7395Y235178D01*
X7621Y235713D01*
X7874Y236206D01*
X8187Y236717D01*
X8189Y236721D01*
X8338Y236944D01*
X8416Y237337D01*
X8418Y237344D01*
X8418Y237348D01*
X8662Y238575D01*
Y263575D01*
X8338Y265206D01*
X7414Y266588D01*
X6031Y267512D01*
X4400Y267837D01*
D02*
G37*
G36*
X130496Y220135D02*
X128535D01*
X126723Y219384D01*
X125336Y217997D01*
X124585Y216185D01*
Y214224D01*
X125336Y212412D01*
X126723Y211025D01*
X128535Y210275D01*
X130496D01*
X132308Y211025D01*
X133695Y212412D01*
X134445Y214224D01*
Y216185D01*
X133695Y217997D01*
X132308Y219384D01*
X130496Y220135D01*
D02*
G37*
G36*
X119740Y233449D02*
X118109Y233125D01*
X116726Y232201D01*
X105412Y220887D01*
X104488Y219505D01*
X104164Y217874D01*
X104488Y216243D01*
X105412Y214860D01*
X108948Y211325D01*
X110330Y210401D01*
X111961Y210076D01*
X113592Y210401D01*
X114975Y211325D01*
X126289Y222638D01*
X127213Y224021D01*
X127537Y225652D01*
X127213Y227283D01*
X126289Y228666D01*
X122753Y232201D01*
X121371Y233125D01*
X119740Y233449D01*
D02*
G37*
G36*
X40540Y211290D02*
X26960D01*
Y206733D01*
X24383D01*
X24356Y206736D01*
X24233Y206761D01*
X24114Y206797D01*
X23996Y206843D01*
X23878Y206901D01*
X23757Y206974D01*
X23631Y207063D01*
X23501Y207171D01*
X23325Y207339D01*
X23059Y207508D01*
X22798Y207682D01*
X22778Y207687D01*
X22761Y207697D01*
X22451Y207752D01*
X22142Y207813D01*
X22123Y207809D01*
X22103Y207812D01*
X21796Y207744D01*
X21487Y207682D01*
X21470Y207671D01*
X21450Y207667D01*
X21193Y207486D01*
X20931Y207311D01*
X20920Y207294D01*
X20903Y207283D01*
X20735Y207017D01*
X20560Y206756D01*
X20556Y206736D01*
X20554Y206733D01*
X20000D01*
X18954Y206525D01*
X18068Y205932D01*
X17476Y205046D01*
X17268Y204000D01*
X17476Y202954D01*
X18068Y202068D01*
X18954Y201476D01*
X20000Y201268D01*
X20554D01*
X20556Y201264D01*
X20560Y201245D01*
X20735Y200983D01*
X20903Y200717D01*
X20920Y200706D01*
X20931Y200689D01*
X21192Y200514D01*
X21450Y200333D01*
X21470Y200329D01*
X21487Y200317D01*
X21795Y200256D01*
X22103Y200187D01*
X22123Y200191D01*
X22142Y200187D01*
X22451Y200249D01*
X22761Y200303D01*
X22778Y200313D01*
X22798Y200317D01*
X23060Y200493D01*
X23325Y200661D01*
X23501Y200829D01*
X23631Y200937D01*
X23757Y201026D01*
X23878Y201099D01*
X23996Y201157D01*
X24114Y201203D01*
X24233Y201239D01*
X24356Y201264D01*
X24383Y201268D01*
X26960D01*
Y196710D01*
X40540D01*
Y211290D01*
D02*
G37*
G36*
X157680Y226430D02*
X145820D01*
Y213570D01*
X148843D01*
Y209930D01*
X148840Y209903D01*
X148814Y209779D01*
X148779Y209660D01*
X148733Y209543D01*
X148674Y209425D01*
X148602Y209303D01*
X148512Y209178D01*
X148404Y209048D01*
X148237Y208872D01*
X148157Y208747D01*
X147608Y208198D01*
X146896Y206478D01*
Y204616D01*
X147608Y202896D01*
X148925Y201579D01*
X150645Y200867D01*
X152507D01*
X154227Y201579D01*
X155543Y202896D01*
X156256Y204616D01*
Y206478D01*
X155543Y208198D01*
X154994Y208747D01*
X154915Y208872D01*
X154747Y209048D01*
X154639Y209178D01*
X154550Y209304D01*
X154477Y209425D01*
X154419Y209543D01*
X154372Y209661D01*
X154337Y209779D01*
X154311Y209903D01*
X154308Y209930D01*
Y213570D01*
X157680D01*
Y226430D01*
D02*
G37*
G36*
X189180Y206430D02*
X177320D01*
Y193570D01*
X189180D01*
Y197267D01*
X191830D01*
X191857Y197264D01*
X191981Y197239D01*
X192099Y197203D01*
X192217Y197157D01*
X192335Y197099D01*
X192456Y197026D01*
X192582Y196937D01*
X192712Y196829D01*
X192888Y196661D01*
X193013Y196581D01*
X193562Y196033D01*
X195282Y195320D01*
X197144D01*
X198864Y196033D01*
X200181Y197349D01*
X200893Y199069D01*
Y200931D01*
X200181Y202651D01*
X198864Y203968D01*
X197144Y204680D01*
X195282D01*
X193562Y203968D01*
X193013Y203418D01*
X192888Y203339D01*
X192712Y203171D01*
X192582Y203063D01*
X192456Y202974D01*
X192335Y202901D01*
X192217Y202843D01*
X192099Y202797D01*
X191981Y202761D01*
X191857Y202736D01*
X191830Y202733D01*
X189180D01*
Y206430D01*
D02*
G37*
G36*
X-147619Y234180D02*
X-152381D01*
X-157053Y233251D01*
X-161453Y231428D01*
X-165414Y228782D01*
X-168782Y225414D01*
X-171428Y221453D01*
X-173251Y217053D01*
X-174180Y212381D01*
Y207619D01*
X-173251Y202947D01*
X-171428Y198547D01*
X-168782Y194586D01*
X-165414Y191218D01*
X-161453Y188572D01*
X-157053Y186749D01*
X-152381Y185820D01*
X-147619D01*
X-142947Y186749D01*
X-138546Y188572D01*
X-134586Y191218D01*
X-131218Y194586D01*
X-128572Y198547D01*
X-126749Y202947D01*
X-125820Y207619D01*
Y212381D01*
X-126749Y217053D01*
X-128572Y221453D01*
X-131218Y225414D01*
X-134586Y228782D01*
X-138546Y231428D01*
X-142947Y233251D01*
X-147619Y234180D01*
D02*
G37*
G36*
X172680Y206430D02*
X160820D01*
Y193570D01*
X163730D01*
Y189540D01*
X163664Y189517D01*
X163629Y189498D01*
X162349Y188967D01*
X161033Y187651D01*
X160320Y185931D01*
Y184069D01*
X161033Y182349D01*
X162349Y181033D01*
X164069Y180320D01*
X165931D01*
X167651Y181033D01*
X168967Y182349D01*
X169680Y184069D01*
Y185931D01*
X169487Y186397D01*
X169481Y186460D01*
X169428Y186634D01*
X169332Y187065D01*
X169303Y187248D01*
X169195Y188797D01*
Y193570D01*
X172680D01*
Y206430D01*
D02*
G37*
G36*
X111349Y195291D02*
X110888Y195199D01*
X110418D01*
X109984Y195019D01*
X109523Y194927D01*
X109132Y194666D01*
X108698Y194487D01*
X108366Y194154D01*
X107975Y193893D01*
X107714Y193502D01*
X107382Y193170D01*
X107202Y192736D01*
X106941Y192345D01*
X106849Y191884D01*
X106669Y191450D01*
Y190980D01*
X106578Y190519D01*
X106669Y190058D01*
Y189588D01*
X106849Y189154D01*
X106941Y188693D01*
X107202Y188302D01*
X107382Y187868D01*
X107714Y187535D01*
X107975Y187145D01*
X121103Y174017D01*
X120323Y173001D01*
X117932Y174381D01*
X114485Y175305D01*
X110915D01*
X107468Y174381D01*
X104377Y172597D01*
X101853Y170073D01*
X100069Y166982D01*
X99145Y163535D01*
Y159965D01*
X100069Y156518D01*
X101853Y153427D01*
X104377Y150903D01*
X107468Y149119D01*
X110915Y148195D01*
X114485D01*
X117932Y149119D01*
X121023Y150903D01*
X123547Y153427D01*
X125331Y156518D01*
X126255Y159965D01*
Y163535D01*
X125331Y166982D01*
X123951Y169373D01*
X124967Y170153D01*
X140228Y154892D01*
Y80791D01*
X101626Y42189D01*
X100591Y40641D01*
X100228Y38814D01*
Y-90000D01*
X100591Y-91826D01*
X101626Y-93374D01*
X126626Y-118374D01*
X128174Y-119409D01*
X130000Y-119772D01*
X191843D01*
X192598Y-119905D01*
X193238Y-120118D01*
X193743Y-120390D01*
X194143Y-120717D01*
X194470Y-121117D01*
X194742Y-121622D01*
X194956Y-122262D01*
X195089Y-123017D01*
Y-141303D01*
X194451Y-142395D01*
X190849D01*
X187370Y-143327D01*
X184250Y-145128D01*
X181703Y-147675D01*
X179902Y-150795D01*
X178970Y-154274D01*
Y-157876D01*
X179902Y-161355D01*
X181703Y-164475D01*
X184250Y-167022D01*
X187370Y-168823D01*
X190849Y-169755D01*
X194451D01*
X197930Y-168823D01*
X201050Y-167022D01*
X203597Y-164475D01*
X205398Y-161355D01*
X206330Y-157876D01*
Y-154274D01*
X205398Y-150795D01*
X203597Y-147675D01*
X203256Y-147335D01*
X204269Y-145820D01*
X204632Y-143994D01*
Y-115000D01*
Y-98330D01*
X204690Y-97312D01*
X204772Y-96640D01*
X204871Y-96105D01*
X204919Y-95930D01*
X205930D01*
Y-95018D01*
X206067Y-94984D01*
X206578Y-94899D01*
X208450Y-94772D01*
X220000D01*
X221826Y-94409D01*
X223374Y-93374D01*
X223424Y-93299D01*
X223455Y-93283D01*
X223723Y-93182D01*
X224124Y-93073D01*
X224593Y-92980D01*
X227719Y-92732D01*
X229320D01*
Y-95680D01*
X240680D01*
Y-84320D01*
X229320D01*
Y-87268D01*
X227951D01*
X226860Y-87244D01*
X225262Y-87117D01*
X224645Y-87030D01*
X224124Y-86927D01*
X223723Y-86818D01*
X223455Y-86717D01*
X223424Y-86701D01*
X223374Y-86626D01*
X221826Y-85591D01*
X220000Y-85228D01*
X208206D01*
X207297Y-85182D01*
X206613Y-85107D01*
X206067Y-85016D01*
X205930Y-84982D01*
Y-84070D01*
X204232D01*
X204220Y-84067D01*
X204207Y-84070D01*
X194070D01*
Y-94207D01*
X194068Y-94220D01*
X194070Y-94232D01*
Y-95930D01*
X194883D01*
X194892Y-95971D01*
X195089Y-98523D01*
Y-106983D01*
X194956Y-107738D01*
X194742Y-108378D01*
X194470Y-108883D01*
X194143Y-109283D01*
X193743Y-109610D01*
X193238Y-109882D01*
X192598Y-110095D01*
X191843Y-110228D01*
X131976D01*
X109772Y-88024D01*
Y36838D01*
X148374Y75440D01*
X149409Y76988D01*
X149772Y78814D01*
Y156059D01*
X149772Y156059D01*
Y156868D01*
X149409Y158694D01*
X148374Y160242D01*
X114723Y193893D01*
X114333Y194154D01*
X114000Y194487D01*
X113566Y194666D01*
X113175Y194927D01*
X112714Y195019D01*
X112280Y195199D01*
X111810D01*
X111349Y195291D01*
D02*
G37*
G36*
X171367Y179264D02*
X169405D01*
X167593Y178513D01*
X166207Y177126D01*
X165456Y175314D01*
Y173353D01*
X166207Y171541D01*
X167593Y170154D01*
X169405Y169404D01*
X171367D01*
X173179Y170154D01*
X174566Y171541D01*
X175316Y173353D01*
Y175314D01*
X174566Y177126D01*
X173179Y178513D01*
X171367Y179264D01*
D02*
G37*
G36*
X80680Y213180D02*
X69320D01*
Y201820D01*
X72719D01*
Y196021D01*
X72716Y195994D01*
X72691Y195871D01*
X72655Y195752D01*
X72609Y195634D01*
X72551Y195516D01*
X72478Y195395D01*
X72389Y195269D01*
X72281Y195139D01*
X72113Y194963D01*
X72034Y194838D01*
X71484Y194289D01*
X70772Y192569D01*
Y190707D01*
X71484Y188987D01*
X72801Y187670D01*
X74521Y186958D01*
X76383D01*
X78103Y187670D01*
X78652Y188220D01*
X78777Y188299D01*
X78953Y188467D01*
X79083Y188575D01*
X79209Y188664D01*
X79330Y188737D01*
X79448Y188795D01*
X79566Y188841D01*
X79685Y188876D01*
X79808Y188902D01*
X79835Y188905D01*
X85041D01*
X87268Y186679D01*
Y169459D01*
X85997Y169119D01*
X85447Y170073D01*
X82923Y172597D01*
X79832Y174381D01*
X76385Y175305D01*
X72815D01*
X69368Y174381D01*
X66277Y172597D01*
X63753Y170073D01*
X61969Y166982D01*
X61045Y163535D01*
Y159965D01*
X61969Y156518D01*
X63227Y154338D01*
X63052Y153876D01*
X62450Y153145D01*
X61027D01*
X59339Y152693D01*
X57826Y151819D01*
X56591Y150584D01*
X55717Y149071D01*
X55265Y147383D01*
Y145637D01*
X55717Y143949D01*
X56456Y142669D01*
X56015Y141398D01*
X53965D01*
X23431Y171932D01*
X22545Y172525D01*
X21499Y172733D01*
X-42139D01*
X-43184Y172525D01*
X-44071Y171932D01*
X-55798Y160205D01*
X-57068Y160731D01*
Y168320D01*
X-54820D01*
Y179680D01*
X-57267D01*
Y181617D01*
X-57264Y181644D01*
X-57239Y181767D01*
X-57203Y181886D01*
X-57157Y182004D01*
X-57099Y182122D01*
X-57026Y182243D01*
X-56937Y182369D01*
X-56829Y182499D01*
X-56661Y182675D01*
X-56582Y182800D01*
X-56033Y183349D01*
X-55320Y185069D01*
Y186931D01*
X-56033Y188651D01*
X-57349Y189967D01*
X-59069Y190680D01*
X-60931D01*
X-62651Y189967D01*
X-63967Y188651D01*
X-64680Y186931D01*
Y185069D01*
X-63967Y183349D01*
X-63418Y182800D01*
X-63339Y182675D01*
X-63171Y182499D01*
X-63063Y182369D01*
X-62974Y182243D01*
X-62901Y182122D01*
X-62843Y182004D01*
X-62797Y181886D01*
X-62761Y181767D01*
X-62736Y181644D01*
X-62733Y181617D01*
Y179680D01*
X-66180D01*
Y168320D01*
X-62533D01*
Y158694D01*
X-63803Y158167D01*
X-71825Y166190D01*
X-71299Y167460D01*
X-68960D01*
Y180540D01*
X-71746D01*
X-71796Y180570D01*
X-72030Y180743D01*
X-72118Y180827D01*
X-72202Y180933D01*
X-72280Y181068D01*
X-72400Y181396D01*
X-72478Y181810D01*
X-72437Y181869D01*
X-72329Y181999D01*
X-72161Y182175D01*
X-71992Y182440D01*
X-71817Y182702D01*
X-71814Y182722D01*
X-71803Y182739D01*
X-71748Y183049D01*
X-71687Y183358D01*
X-71691Y183377D01*
X-71687Y183397D01*
X-71756Y183704D01*
X-71817Y184013D01*
X-71829Y184030D01*
X-71833Y184050D01*
X-72014Y184307D01*
X-72189Y184569D01*
X-72206Y184580D01*
X-72217Y184597D01*
X-72483Y184765D01*
X-72744Y184940D01*
X-72764Y184944D01*
X-72768Y184946D01*
Y185500D01*
X-72976Y186546D01*
X-73568Y187432D01*
X-74454Y188025D01*
X-75500Y188232D01*
X-76546Y188025D01*
X-77432Y187432D01*
X-78025Y186546D01*
X-78232Y185500D01*
Y184946D01*
X-78236Y184944D01*
X-78256Y184940D01*
X-78517Y184765D01*
X-78783Y184597D01*
X-78794Y184580D01*
X-78811Y184569D01*
X-78986Y184308D01*
X-79167Y184050D01*
X-79171Y184030D01*
X-79183Y184013D01*
X-79244Y183705D01*
X-79312Y183397D01*
X-79309Y183377D01*
X-79313Y183358D01*
X-79251Y183049D01*
X-79197Y182739D01*
X-79187Y182722D01*
X-79183Y182702D01*
X-79007Y182440D01*
X-78839Y182175D01*
X-78671Y181999D01*
X-78563Y181869D01*
X-78521Y181810D01*
X-78601Y181395D01*
X-78720Y181068D01*
X-78797Y180934D01*
X-78883Y180826D01*
X-78970Y180743D01*
X-79204Y180570D01*
X-79254Y180540D01*
X-82040D01*
Y167460D01*
X-78136D01*
Y165904D01*
X-77928Y164858D01*
X-77336Y163971D01*
X-68179Y154815D01*
X-68705Y153545D01*
X-68790D01*
Y131465D01*
X-60710D01*
Y132325D01*
X-57930D01*
Y132325D01*
X-46570D01*
Y132325D01*
X-32930D01*
Y132325D01*
X-11570D01*
Y132325D01*
X-6570D01*
Y152685D01*
X-12930D01*
Y152685D01*
X-31570D01*
Y152685D01*
X-42017D01*
Y154118D01*
X-40868Y155267D01*
X7617D01*
X7644Y155264D01*
X7767Y155239D01*
X7886Y155203D01*
X8004Y155157D01*
X8122Y155099D01*
X8243Y155026D01*
X8369Y154937D01*
X8499Y154829D01*
X8675Y154661D01*
X8800Y154581D01*
X9349Y154032D01*
X11069Y153320D01*
X12931D01*
X14651Y154032D01*
X15968Y155349D01*
X16680Y157069D01*
Y158147D01*
X16972Y159028D01*
X17853Y159320D01*
X18931D01*
X20651Y160033D01*
X21967Y161349D01*
X22680Y163069D01*
Y163159D01*
X23950Y163685D01*
X50056Y137579D01*
X50094Y136077D01*
X48923Y134906D01*
X48330Y134019D01*
X48123Y132973D01*
Y127220D01*
X46852Y126834D01*
X46787Y126932D01*
X45901Y127524D01*
X44855Y127732D01*
X44301D01*
X44299Y127736D01*
X44295Y127755D01*
X44120Y128017D01*
X43952Y128283D01*
X43935Y128294D01*
X43924Y128311D01*
X43663Y128486D01*
X43405Y128667D01*
X43385Y128671D01*
X43368Y128682D01*
X43060Y128744D01*
X42752Y128813D01*
X42733Y128809D01*
X42713Y128813D01*
X42404Y128751D01*
X42094Y128697D01*
X42077Y128687D01*
X42057Y128682D01*
X41795Y128507D01*
X41530Y128339D01*
X41354Y128171D01*
X41224Y128063D01*
X41098Y127974D01*
X40977Y127901D01*
X40859Y127843D01*
X40741Y127797D01*
X40622Y127761D01*
X40499Y127736D01*
X39290Y127862D01*
Y131545D01*
X26210D01*
Y127738D01*
X18790D01*
Y129045D01*
X-3290D01*
Y120965D01*
X-2430D01*
Y118185D01*
X-2430D01*
Y106825D01*
X-2430D01*
Y101825D01*
Y92738D01*
X-17490D01*
X-17516Y92741D01*
X-17636Y92766D01*
X-17749Y92801D01*
X-17861Y92846D01*
X-17973Y92902D01*
X-18087Y92973D01*
X-18206Y93061D01*
X-18330Y93168D01*
X-18499Y93337D01*
X-18632Y93425D01*
X-19249Y94043D01*
X-20969Y94755D01*
X-22831D01*
X-24551Y94043D01*
X-25868Y92726D01*
X-26580Y91006D01*
Y89144D01*
X-25868Y87424D01*
X-24551Y86107D01*
X-22831Y85395D01*
X-20969D01*
X-19249Y86107D01*
X-18763Y86594D01*
X-18652Y86660D01*
X-18470Y86827D01*
X-18333Y86936D01*
X-18201Y87026D01*
X-18073Y87100D01*
X-17948Y87160D01*
X-17825Y87207D01*
X-17701Y87243D01*
X-17574Y87269D01*
X-17546Y87273D01*
X-2430D01*
Y83185D01*
X-2430D01*
Y72737D01*
X-15489D01*
X-15516Y72741D01*
X-15635Y72766D01*
X-15749Y72801D01*
X-15861Y72846D01*
X-15973Y72902D01*
X-16087Y72973D01*
X-16206Y73061D01*
X-16330Y73168D01*
X-16499Y73337D01*
X-16632Y73425D01*
X-17249Y74043D01*
X-18969Y74755D01*
X-20831D01*
X-22551Y74043D01*
X-23867Y72726D01*
X-24580Y71006D01*
Y69144D01*
X-23867Y67424D01*
X-22551Y66107D01*
X-20831Y65395D01*
X-18969D01*
X-17249Y66107D01*
X-16763Y66594D01*
X-16652Y66660D01*
X-16471Y66826D01*
X-16333Y66936D01*
X-16201Y67026D01*
X-16073Y67100D01*
X-15948Y67160D01*
X-15826Y67207D01*
X-15701Y67243D01*
X-15574Y67269D01*
X-15547Y67272D01*
X-2430D01*
Y66825D01*
X-732D01*
X-719Y66823D01*
X-707Y66825D01*
X17930D01*
Y70584D01*
X19200Y71110D01*
X21185Y69126D01*
X22071Y68533D01*
X23117Y68325D01*
X28156D01*
X29441Y68281D01*
X30195Y68209D01*
X30276Y68196D01*
X41474Y56997D01*
Y-57244D01*
X-19529Y-118248D01*
X-88275D01*
X-89711Y-118533D01*
X-90928Y-119347D01*
X-111872Y-140291D01*
X-111988Y-140391D01*
X-112579Y-140774D01*
X-113304Y-141131D01*
X-114169Y-141455D01*
X-115172Y-141736D01*
X-116314Y-141971D01*
X-117572Y-142150D01*
X-120562Y-142351D01*
X-122242Y-142363D01*
X-122399Y-142395D01*
X-124151D01*
X-127630Y-143327D01*
X-130750Y-145128D01*
X-133297Y-147675D01*
X-135098Y-150795D01*
X-136030Y-154274D01*
Y-157876D01*
X-135098Y-161355D01*
X-133297Y-164475D01*
X-130750Y-167022D01*
X-127630Y-168823D01*
X-124151Y-169755D01*
X-120549D01*
X-117070Y-168823D01*
X-113950Y-167022D01*
X-111403Y-164475D01*
X-109602Y-161355D01*
X-108670Y-157876D01*
Y-156124D01*
X-108638Y-155968D01*
X-108625Y-154287D01*
X-108425Y-151296D01*
X-108245Y-150039D01*
X-108011Y-148897D01*
X-107730Y-147894D01*
X-107406Y-147029D01*
X-107049Y-146304D01*
X-106666Y-145714D01*
X-106566Y-145597D01*
X-86721Y-125752D01*
X-17975D01*
X-16539Y-125466D01*
X-15322Y-124653D01*
X47880Y-61452D01*
X48693Y-60234D01*
X48979Y-58798D01*
Y58552D01*
X48693Y59988D01*
X47880Y61205D01*
X35373Y73711D01*
X34156Y74524D01*
X32720Y74810D01*
X31284Y74524D01*
X30436Y73958D01*
X27910Y73790D01*
X24249D01*
X22009Y76030D01*
X21999Y76228D01*
X22075Y76624D01*
X22510Y77326D01*
X26284D01*
X27304Y76644D01*
X28740Y76358D01*
X36510D01*
X50348Y62521D01*
Y-69497D01*
X-21176Y-141022D01*
X-21990Y-142239D01*
X-22021Y-142395D01*
X-24151D01*
X-27630Y-143327D01*
X-30750Y-145128D01*
X-33297Y-147675D01*
X-35098Y-150795D01*
X-36030Y-154274D01*
Y-157876D01*
X-35098Y-161355D01*
X-33297Y-164475D01*
X-30750Y-167022D01*
X-27630Y-168823D01*
X-24151Y-169755D01*
X-20549D01*
X-17070Y-168823D01*
X-13950Y-167022D01*
X-11403Y-164475D01*
X-9602Y-161355D01*
X-8670Y-157876D01*
Y-154274D01*
X-9602Y-150795D01*
X-11403Y-147675D01*
X-13950Y-145128D01*
X-14034Y-144492D01*
X56753Y-73705D01*
X57566Y-72487D01*
X57852Y-71052D01*
Y61842D01*
X59025Y62329D01*
X60348Y61006D01*
Y-101925D01*
X60634Y-103361D01*
X61447Y-104578D01*
X73898Y-117029D01*
Y-137505D01*
X73886Y-137658D01*
X73740Y-138346D01*
X73480Y-139112D01*
X73097Y-139952D01*
X72586Y-140861D01*
X71945Y-141834D01*
X71182Y-142850D01*
X69210Y-145106D01*
X68030Y-146303D01*
X67942Y-146437D01*
X66703Y-147675D01*
X64902Y-150795D01*
X63970Y-154274D01*
Y-157876D01*
X64902Y-161355D01*
X66703Y-164475D01*
X69250Y-167022D01*
X72370Y-168823D01*
X75849Y-169755D01*
X79451D01*
X82930Y-168823D01*
X86050Y-167022D01*
X88597Y-164475D01*
X90398Y-161355D01*
X91330Y-157876D01*
Y-154274D01*
X90398Y-150795D01*
X88597Y-147675D01*
X87358Y-146436D01*
X87270Y-146303D01*
X86090Y-145105D01*
X84118Y-142850D01*
X83355Y-141834D01*
X82714Y-140861D01*
X82203Y-139952D01*
X81820Y-139112D01*
X81560Y-138346D01*
X81414Y-137658D01*
X81402Y-137505D01*
Y-115475D01*
X81117Y-114039D01*
X80303Y-112822D01*
X67852Y-100371D01*
Y62560D01*
X67566Y63996D01*
X66753Y65213D01*
X39849Y92118D01*
X38631Y92931D01*
X37195Y93217D01*
X33744D01*
X32308Y92931D01*
X31352Y92292D01*
X23585D01*
X23585Y92292D01*
X22539Y92084D01*
X21653Y91492D01*
X19103Y88943D01*
X17930Y89429D01*
Y93185D01*
X17930D01*
Y96825D01*
Y108185D01*
X17930D01*
Y116825D01*
X17930D01*
Y117273D01*
X21618D01*
X26505Y112386D01*
X26812Y112056D01*
X27025Y111792D01*
X27070Y111727D01*
Y104325D01*
X38430D01*
Y107268D01*
X40472D01*
X40499Y107264D01*
X40622Y107239D01*
X40741Y107203D01*
X40859Y107157D01*
X40977Y107099D01*
X41098Y107026D01*
X41224Y106937D01*
X41354Y106829D01*
X41530Y106661D01*
X41655Y106581D01*
X42204Y106032D01*
X43924Y105320D01*
X45786D01*
X47506Y106032D01*
X48822Y107349D01*
X50048Y107593D01*
X61487Y96153D01*
Y85999D01*
X61484Y85972D01*
X61458Y85849D01*
X61422Y85730D01*
X61376Y85612D01*
X61318Y85494D01*
X61245Y85373D01*
X61156Y85247D01*
X61048Y85117D01*
X60880Y84941D01*
X60801Y84816D01*
X60252Y84267D01*
X59539Y82547D01*
Y80685D01*
X60252Y78965D01*
X61568Y77649D01*
X63288Y76936D01*
X65150D01*
X66870Y77649D01*
X68187Y78965D01*
X68899Y80685D01*
Y82547D01*
X68187Y84267D01*
X67638Y84816D01*
X67558Y84941D01*
X67391Y85117D01*
X67283Y85247D01*
X67193Y85373D01*
X67121Y85494D01*
X67062Y85612D01*
X67016Y85730D01*
X66981Y85849D01*
X66955Y85972D01*
X66952Y85999D01*
Y97285D01*
X66744Y98331D01*
X66704Y98390D01*
X67596Y99342D01*
X69368Y98319D01*
X72815Y97395D01*
X76385D01*
X79832Y98319D01*
X82923Y100103D01*
X85447Y102627D01*
X87231Y105718D01*
X88155Y109165D01*
Y112734D01*
X88119Y112868D01*
X89219Y113503D01*
X92052Y110670D01*
Y84188D01*
X92051Y84171D01*
X92024Y84009D01*
X91987Y83843D01*
X91939Y83673D01*
X91877Y83497D01*
X91810Y83336D01*
X91636Y82996D01*
X91491Y82851D01*
X90779Y81131D01*
Y79269D01*
X91491Y77549D01*
X92808Y76233D01*
X94528Y75520D01*
X96390D01*
X98110Y76233D01*
X99426Y77549D01*
X100139Y79269D01*
Y81131D01*
X99426Y82851D01*
X98110Y84167D01*
X97823Y84286D01*
X97812Y84294D01*
X97731Y84360D01*
X97671Y84420D01*
X97627Y84476D01*
X97593Y84529D01*
X97565Y84587D01*
X97540Y84656D01*
X97520Y84741D01*
X97517Y84760D01*
Y111802D01*
X97309Y112847D01*
X96717Y113734D01*
X90033Y120418D01*
Y124574D01*
X90040Y124658D01*
X90069Y124831D01*
X90102Y124962D01*
X90134Y125054D01*
X90160Y125107D01*
X90481Y125240D01*
X92060Y126819D01*
X92915Y128883D01*
Y131117D01*
X92060Y133181D01*
X90481Y134760D01*
X88417Y135615D01*
X86183D01*
X84119Y134760D01*
X82540Y133181D01*
X81685Y131117D01*
Y128883D01*
X82540Y126819D01*
X84119Y125240D01*
X84440Y125107D01*
X84466Y125054D01*
X84498Y124962D01*
X84531Y124831D01*
X84560Y124658D01*
X84567Y124574D01*
Y121812D01*
X83394Y121326D01*
X82923Y121797D01*
X79832Y123581D01*
X78170Y124026D01*
X77988Y124595D01*
X77943Y125402D01*
X79360Y126819D01*
X80215Y128883D01*
Y131117D01*
X79360Y133181D01*
X77781Y134760D01*
X75717Y135615D01*
X73483D01*
X72572Y135238D01*
X71256Y135920D01*
X71046Y136453D01*
X71416Y137240D01*
X71795Y137619D01*
X71856Y137669D01*
X71938Y137725D01*
X73483Y137085D01*
X75717D01*
X77781Y137940D01*
X79360Y139519D01*
X80215Y141583D01*
Y143817D01*
X79360Y145881D01*
X77943Y147298D01*
X77988Y148105D01*
X78170Y148673D01*
X79832Y149119D01*
X82923Y150903D01*
X85447Y153427D01*
X85997Y154381D01*
X87268Y154041D01*
Y148315D01*
X86183D01*
X84119Y147460D01*
X82540Y145881D01*
X81685Y143817D01*
Y141583D01*
X82540Y139519D01*
X84119Y137940D01*
X86183Y137085D01*
X88417D01*
X90481Y137940D01*
X92060Y139519D01*
X92915Y141583D01*
Y143817D01*
X92268Y145378D01*
X92524Y145761D01*
X92732Y146807D01*
Y187810D01*
X92524Y188856D01*
X91932Y189743D01*
X88105Y193570D01*
X87218Y194163D01*
X86172Y194370D01*
X79835D01*
X79808Y194374D01*
X79685Y194399D01*
X79566Y194435D01*
X79448Y194481D01*
X79330Y194539D01*
X79209Y194612D01*
X79083Y194701D01*
X78953Y194809D01*
X78784Y194970D01*
X78623Y195139D01*
X78515Y195269D01*
X78426Y195395D01*
X78353Y195516D01*
X78295Y195634D01*
X78249Y195752D01*
X78213Y195871D01*
X78188Y195994D01*
X78184Y196021D01*
Y201820D01*
X80680D01*
Y213180D01*
D02*
G37*
G36*
X56180Y210430D02*
X44320D01*
Y197570D01*
X47517D01*
Y168471D01*
X47514Y168446D01*
X47490Y168337D01*
X47458Y168236D01*
X47417Y168141D01*
X47365Y168046D01*
X47299Y167948D01*
X47217Y167847D01*
X47116Y167740D01*
X46945Y167588D01*
X46871Y167489D01*
X46033Y166651D01*
X45320Y164931D01*
Y163069D01*
X46033Y161349D01*
X47349Y160033D01*
X49069Y159320D01*
X50931D01*
X52651Y160033D01*
X53967Y161349D01*
X54680Y163069D01*
Y164931D01*
X53967Y166651D01*
X53625Y166993D01*
X53600Y167041D01*
X53440Y167238D01*
X53329Y167393D01*
X53237Y167542D01*
X53160Y167686D01*
X53098Y167827D01*
X53049Y167964D01*
X53012Y168102D01*
X52986Y168239D01*
X52983Y168266D01*
Y197570D01*
X56180D01*
Y210430D01*
D02*
G37*
G36*
X-109900Y158807D02*
X-110946Y158599D01*
X-111832Y158007D01*
X-112424Y157121D01*
X-112633Y156075D01*
Y155521D01*
X-112636Y155519D01*
X-112655Y155515D01*
X-112917Y155340D01*
X-113183Y155172D01*
X-113194Y155155D01*
X-113211Y155144D01*
X-113386Y154883D01*
X-113567Y154625D01*
X-113571Y154605D01*
X-113583Y154588D01*
X-113644Y154280D01*
X-113713Y153972D01*
X-113709Y153952D01*
X-113713Y153933D01*
X-113652Y153624D01*
X-113597Y153314D01*
X-113587Y153297D01*
X-113583Y153277D01*
X-113407Y153015D01*
X-113239Y152750D01*
X-113071Y152574D01*
X-112963Y152444D01*
X-112921Y152385D01*
X-113001Y151970D01*
X-113120Y151643D01*
X-113197Y151509D01*
X-113283Y151401D01*
X-113370Y151318D01*
X-113604Y151145D01*
X-113654Y151115D01*
X-117190D01*
Y137535D01*
X-102610D01*
Y151115D01*
X-106146D01*
X-106196Y151145D01*
X-106430Y151318D01*
X-106518Y151402D01*
X-106602Y151508D01*
X-106680Y151643D01*
X-106800Y151971D01*
X-106878Y152385D01*
X-106837Y152444D01*
X-106729Y152574D01*
X-106561Y152750D01*
X-106392Y153015D01*
X-106217Y153277D01*
X-106214Y153297D01*
X-106203Y153314D01*
X-106149Y153624D01*
X-106087Y153933D01*
X-106091Y153952D01*
X-106088Y153972D01*
X-106156Y154279D01*
X-106217Y154588D01*
X-106229Y154605D01*
X-106233Y154625D01*
X-106414Y154882D01*
X-106589Y155144D01*
X-106606Y155155D01*
X-106617Y155172D01*
X-106883Y155340D01*
X-107144Y155515D01*
X-107164Y155519D01*
X-107168Y155521D01*
Y156075D01*
X-107375Y157121D01*
X-107968Y158007D01*
X-108854Y158599D01*
X-109900Y158807D01*
D02*
G37*
G36*
X-135900D02*
X-136946Y158599D01*
X-137832Y158007D01*
X-138425Y157121D01*
X-138632Y156075D01*
Y155521D01*
X-138636Y155519D01*
X-138656Y155515D01*
X-138917Y155340D01*
X-139183Y155172D01*
X-139194Y155155D01*
X-139211Y155144D01*
X-139386Y154883D01*
X-139567Y154625D01*
X-139571Y154605D01*
X-139583Y154588D01*
X-139644Y154280D01*
X-139712Y153972D01*
X-139709Y153952D01*
X-139713Y153933D01*
X-139651Y153624D01*
X-139597Y153314D01*
X-139586Y153297D01*
X-139583Y153277D01*
X-139407Y153015D01*
X-139239Y152750D01*
X-139071Y152574D01*
X-138963Y152444D01*
X-138921Y152385D01*
X-139001Y151971D01*
X-139120Y151643D01*
X-139197Y151509D01*
X-139283Y151401D01*
X-139369Y151318D01*
X-139604Y151145D01*
X-139654Y151115D01*
X-143190D01*
Y137535D01*
X-128610D01*
Y151115D01*
X-132146D01*
X-132196Y151145D01*
X-132430Y151318D01*
X-132518Y151402D01*
X-132602Y151508D01*
X-132680Y151643D01*
X-132800Y151971D01*
X-132879Y152385D01*
X-132837Y152444D01*
X-132729Y152574D01*
X-132561Y152750D01*
X-132392Y153015D01*
X-132218Y153277D01*
X-132213Y153297D01*
X-132203Y153314D01*
X-132149Y153624D01*
X-132087Y153933D01*
X-132091Y153952D01*
X-132087Y153972D01*
X-132156Y154279D01*
X-132218Y154588D01*
X-132229Y154605D01*
X-132233Y154625D01*
X-132414Y154882D01*
X-132589Y155144D01*
X-132606Y155155D01*
X-132617Y155172D01*
X-132883Y155340D01*
X-133145Y155515D01*
X-133164Y155519D01*
X-133167Y155521D01*
Y156075D01*
X-133376Y157121D01*
X-133968Y158007D01*
X-134854Y158599D01*
X-135900Y158807D01*
D02*
G37*
G36*
X101117Y148315D02*
X98883D01*
X96819Y147460D01*
X95240Y145881D01*
X94385Y143817D01*
Y141583D01*
X95240Y139519D01*
X96819Y137940D01*
X98883Y137085D01*
X101117D01*
X103181Y137940D01*
X104760Y139519D01*
X105615Y141583D01*
Y143817D01*
X104760Y145881D01*
X103181Y147460D01*
X101117Y148315D01*
D02*
G37*
G36*
X113574Y142985D02*
X111826D01*
X110139Y142533D01*
X108626Y141659D01*
X107391Y140424D01*
X106517Y138911D01*
X106065Y137224D01*
Y135477D01*
X106360Y134375D01*
X105942Y133641D01*
X105573Y133231D01*
X104613Y133328D01*
X103181Y134760D01*
X101117Y135615D01*
X98883D01*
X96819Y134760D01*
X95240Y133181D01*
X94385Y131117D01*
Y128883D01*
X95240Y126819D01*
X96819Y125240D01*
X98883Y124385D01*
X101117D01*
X103181Y125240D01*
X104760Y126819D01*
X104790Y126892D01*
X106067Y127105D01*
X108014Y125158D01*
X108138Y125076D01*
X107910Y123700D01*
X107468Y123581D01*
X104377Y121797D01*
X101853Y119273D01*
X100069Y116182D01*
X99145Y112734D01*
Y109165D01*
X100069Y105718D01*
X101853Y102627D01*
X104377Y100103D01*
X107468Y98319D01*
X110915Y97395D01*
X114485D01*
X117932Y98319D01*
X121023Y100103D01*
X123547Y102627D01*
X125331Y105718D01*
X126255Y109165D01*
Y112734D01*
X125331Y116182D01*
X123547Y119273D01*
X121023Y121797D01*
X118786Y123088D01*
X119127Y124358D01*
X121354D01*
X121381Y124355D01*
X121505Y124329D01*
X121624Y124293D01*
X121742Y124247D01*
X121860Y124189D01*
X121982Y124116D01*
X122108Y124027D01*
X122239Y123919D01*
X122415Y123751D01*
X122539Y123672D01*
X123084Y123127D01*
X124804Y122414D01*
X126666D01*
X128386Y123127D01*
X129703Y124443D01*
X130415Y126163D01*
Y128025D01*
X129703Y129745D01*
X128386Y131062D01*
X126666Y131774D01*
X124804D01*
X123084Y131062D01*
X122532Y130509D01*
X122406Y130429D01*
X122231Y130261D01*
X122101Y130153D01*
X121975Y130064D01*
X121854Y129992D01*
X121737Y129933D01*
X121620Y129887D01*
X121501Y129852D01*
X121377Y129826D01*
X121351Y129823D01*
X117205D01*
X116840Y130854D01*
X116826Y131093D01*
X118009Y132276D01*
X118883Y133789D01*
X119335Y135477D01*
Y137224D01*
X118883Y138911D01*
X118009Y140424D01*
X116774Y141659D01*
X115261Y142533D01*
X113574Y142985D01*
D02*
G37*
G36*
X-226112Y117855D02*
X-229188D01*
X-232158Y117059D01*
X-234822Y115521D01*
X-236996Y113347D01*
X-238534Y110683D01*
X-239330Y107713D01*
Y104637D01*
X-238534Y101667D01*
X-236996Y99003D01*
X-234822Y96829D01*
X-232158Y95291D01*
X-229188Y94495D01*
X-226112D01*
X-223142Y95291D01*
X-220478Y96829D01*
X-218304Y99003D01*
X-216766Y101667D01*
X-215970Y104637D01*
Y107713D01*
X-216766Y110683D01*
X-218304Y113347D01*
X-220478Y115521D01*
X-223142Y117059D01*
X-226112Y117855D01*
D02*
G37*
G36*
X229188Y117855D02*
X226112D01*
X223142Y117059D01*
X220478Y115521D01*
X218304Y113347D01*
X216766Y110683D01*
X215970Y107713D01*
Y104637D01*
X216766Y101667D01*
X218304Y99003D01*
X220478Y96829D01*
X223142Y95291D01*
X226112Y94495D01*
X229188D01*
X232158Y95291D01*
X234822Y96829D01*
X236996Y99003D01*
X238534Y101667D01*
X239330Y104637D01*
Y107713D01*
X238534Y110683D01*
X236996Y113347D01*
X234822Y115521D01*
X232158Y117059D01*
X229188Y117855D01*
D02*
G37*
G36*
X-126920Y96355D02*
X-138780D01*
Y92657D01*
X-145967D01*
X-145994Y92661D01*
X-146117Y92686D01*
X-146236Y92722D01*
X-146354Y92768D01*
X-146472Y92826D01*
X-146593Y92899D01*
X-146719Y92988D01*
X-146849Y93096D01*
X-147025Y93264D01*
X-147150Y93343D01*
X-147699Y93892D01*
X-149419Y94605D01*
X-151281D01*
X-153001Y93892D01*
X-154318Y92576D01*
X-155030Y90856D01*
Y88994D01*
X-154318Y87274D01*
X-153001Y85957D01*
X-151281Y85245D01*
X-149419D01*
X-147699Y85957D01*
X-147150Y86507D01*
X-147025Y86586D01*
X-146849Y86754D01*
X-146719Y86862D01*
X-146593Y86951D01*
X-146472Y87024D01*
X-146354Y87082D01*
X-146236Y87128D01*
X-146117Y87163D01*
X-145993Y87189D01*
X-145967Y87192D01*
X-138780D01*
Y83495D01*
X-126920D01*
Y96355D01*
D02*
G37*
G36*
X225150Y83814D02*
X213920D01*
Y77445D01*
X230289D01*
Y78675D01*
X229898Y80641D01*
X228784Y82309D01*
X227117Y83422D01*
X225150Y83814D01*
D02*
G37*
G36*
X211380D02*
X200150D01*
X198183Y83422D01*
X196516Y82309D01*
X195403Y80641D01*
X195011Y78675D01*
Y77445D01*
X211380D01*
Y83814D01*
D02*
G37*
G36*
X-200150Y83814D02*
X-211380D01*
Y77445D01*
X-195011D01*
Y78675D01*
X-195403Y80641D01*
X-196516Y82309D01*
X-198184Y83422D01*
X-200150Y83814D01*
D02*
G37*
G36*
X-213920D02*
X-225150D01*
X-227117Y83422D01*
X-228784Y82309D01*
X-229898Y80641D01*
X-230289Y78675D01*
Y77445D01*
X-213920D01*
Y83814D01*
D02*
G37*
G36*
X-195011Y74905D02*
X-211380D01*
Y68536D01*
X-200150D01*
X-198184Y68927D01*
X-196516Y70041D01*
X-195403Y71708D01*
X-195011Y73675D01*
Y74905D01*
D02*
G37*
G36*
X-213920D02*
X-230289D01*
Y73675D01*
X-229898Y71708D01*
X-228784Y70041D01*
X-227117Y68927D01*
X-225150Y68536D01*
X-213920D01*
Y74905D01*
D02*
G37*
G36*
X230289Y74905D02*
X213920D01*
Y68536D01*
X225150D01*
X227117Y68927D01*
X228784Y70041D01*
X229898Y71708D01*
X230289Y73675D01*
Y74905D01*
D02*
G37*
G36*
X211380D02*
X195011D01*
Y73675D01*
X195403Y71708D01*
X196516Y70041D01*
X198183Y68927D01*
X200150Y68536D01*
X211380D01*
Y74905D01*
D02*
G37*
G36*
X-33709Y118849D02*
X-35571D01*
X-37291Y118137D01*
X-38607Y116820D01*
X-39320Y115100D01*
Y113238D01*
X-38607Y111518D01*
X-38058Y110969D01*
X-37979Y110844D01*
X-37811Y110668D01*
X-37703Y110538D01*
X-37614Y110412D01*
X-37541Y110291D01*
X-37483Y110173D01*
X-37437Y110055D01*
X-37401Y109937D01*
X-37376Y109813D01*
X-37373Y109786D01*
Y62685D01*
X-61715D01*
X-62716Y63354D01*
X-64000Y63609D01*
X-65500D01*
X-66784Y63354D01*
X-67872Y62627D01*
X-68599Y61539D01*
X-68854Y60255D01*
Y44755D01*
X-68599Y43471D01*
X-67872Y42383D01*
X-67482Y42123D01*
Y39853D01*
X-73886Y33450D01*
X-85460D01*
Y37040D01*
X-98540D01*
Y34169D01*
X-98658Y34023D01*
X-98886Y33795D01*
X-98999Y33709D01*
X-99130Y33636D01*
X-99774Y33401D01*
X-99895Y33474D01*
X-100021Y33563D01*
X-100151Y33671D01*
X-100327Y33839D01*
X-100592Y34008D01*
X-100854Y34183D01*
X-100874Y34186D01*
X-100891Y34197D01*
X-101201Y34251D01*
X-101510Y34313D01*
X-101529Y34309D01*
X-101549Y34313D01*
X-101856Y34244D01*
X-102165Y34183D01*
X-102182Y34171D01*
X-102202Y34167D01*
X-102459Y33986D01*
X-102721Y33811D01*
X-102732Y33794D01*
X-102749Y33783D01*
X-102917Y33517D01*
X-103092Y33256D01*
X-103096Y33236D01*
X-103098Y33233D01*
X-103652D01*
X-104698Y33024D01*
X-105584Y32432D01*
X-106176Y31546D01*
X-106384Y30500D01*
X-106176Y29454D01*
X-105584Y28568D01*
X-104698Y27975D01*
X-103652Y27768D01*
X-103098D01*
X-103096Y27764D01*
X-103092Y27745D01*
X-102917Y27483D01*
X-102749Y27217D01*
X-102732Y27206D01*
X-102721Y27189D01*
X-102460Y27014D01*
X-102202Y26833D01*
X-102182Y26829D01*
X-102165Y26817D01*
X-101857Y26756D01*
X-101549Y26688D01*
X-101529Y26691D01*
X-101510Y26687D01*
X-101201Y26748D01*
X-100891Y26803D01*
X-100874Y26813D01*
X-100854Y26817D01*
X-100592Y26993D01*
X-100327Y27161D01*
X-100151Y27329D01*
X-100021Y27437D01*
X-99895Y27526D01*
X-99774Y27599D01*
X-99131Y27365D01*
X-98997Y27290D01*
X-98886Y27206D01*
X-98658Y26977D01*
X-98540Y26832D01*
Y23960D01*
X-88733D01*
Y20180D01*
X-93180D01*
Y14733D01*
X-98820D01*
Y17680D01*
X-110180D01*
Y6320D01*
X-98820D01*
Y9268D01*
X-93180D01*
Y4820D01*
X-66820D01*
Y10024D01*
X-65426D01*
X-65399Y10021D01*
X-65276Y9995D01*
X-65156Y9960D01*
X-65039Y9914D01*
X-64921Y9856D01*
X-64799Y9783D01*
X-64674Y9694D01*
X-64544Y9586D01*
X-64368Y9418D01*
X-64243Y9338D01*
X-63694Y8789D01*
X-61974Y8077D01*
X-60112D01*
X-58392Y8789D01*
X-57075Y10106D01*
X-56363Y11826D01*
Y13688D01*
X-57075Y15408D01*
X-58392Y16724D01*
X-60112Y17437D01*
X-61974D01*
X-63694Y16724D01*
X-64243Y16175D01*
X-64368Y16096D01*
X-64544Y15928D01*
X-64674Y15820D01*
X-64800Y15731D01*
X-64921Y15658D01*
X-65039Y15600D01*
X-65157Y15554D01*
X-65276Y15518D01*
X-65399Y15493D01*
X-65426Y15489D01*
X-66820D01*
Y20180D01*
X-83267D01*
Y22447D01*
X-60424D01*
X-59378Y22655D01*
X-58491Y23247D01*
X-43752Y37986D01*
X-42482Y37460D01*
Y33382D01*
X-47932Y27932D01*
X-48524Y27046D01*
X-48733Y26000D01*
Y18180D01*
X-54430D01*
Y6320D01*
X-41570D01*
Y18180D01*
X-43267D01*
Y24868D01*
X-37818Y30318D01*
X-37225Y31205D01*
X-37017Y32250D01*
X-37017Y32250D01*
Y42325D01*
X-32482D01*
Y34555D01*
X-32490Y34518D01*
Y19185D01*
X-36430D01*
Y7825D01*
X-33482D01*
Y-815D01*
X-36430D01*
Y-12175D01*
X-33445D01*
Y-17689D01*
X-33449Y-17715D01*
X-33474Y-17839D01*
X-33510Y-17958D01*
X-33556Y-18075D01*
X-33614Y-18194D01*
X-33687Y-18315D01*
X-33776Y-18441D01*
X-33884Y-18571D01*
X-34052Y-18747D01*
X-34131Y-18872D01*
X-34680Y-19421D01*
X-35393Y-21141D01*
Y-23003D01*
X-34680Y-24723D01*
X-33364Y-26039D01*
X-31644Y-26752D01*
X-29782D01*
X-28062Y-26039D01*
X-26745Y-24723D01*
X-26033Y-23003D01*
Y-21141D01*
X-26745Y-19421D01*
X-27294Y-18872D01*
X-27374Y-18747D01*
X-27541Y-18571D01*
X-27650Y-18441D01*
X-27739Y-18315D01*
X-27811Y-18194D01*
X-27870Y-18075D01*
X-27916Y-17958D01*
X-27951Y-17839D01*
X-27977Y-17715D01*
X-27980Y-17689D01*
Y-12175D01*
X-25070D01*
Y-815D01*
X-28017D01*
Y7825D01*
X-25070D01*
Y19185D01*
X-27025D01*
Y31209D01*
X-25755Y31735D01*
X-18405Y24385D01*
Y20045D01*
X-22290D01*
Y6965D01*
X-18482D01*
Y45D01*
X-22290D01*
Y-13035D01*
X-18482D01*
Y-17392D01*
X-18486Y-17419D01*
X-18511Y-17542D01*
X-18547Y-17661D01*
X-18593Y-17779D01*
X-18651Y-17897D01*
X-18724Y-18018D01*
X-18813Y-18144D01*
X-18921Y-18274D01*
X-19089Y-18450D01*
X-19258Y-18715D01*
X-19432Y-18977D01*
X-19436Y-18997D01*
X-19447Y-19014D01*
X-19501Y-19324D01*
X-19563Y-19633D01*
X-19559Y-19652D01*
X-19562Y-19672D01*
X-19494Y-19979D01*
X-19432Y-20288D01*
X-19421Y-20305D01*
X-19417Y-20325D01*
X-19236Y-20582D01*
X-19061Y-20844D01*
X-19044Y-20855D01*
X-19033Y-20872D01*
X-18767Y-21040D01*
X-18505Y-21215D01*
X-18485Y-21219D01*
X-18482Y-21221D01*
Y-21775D01*
X-18274Y-22821D01*
X-17682Y-23707D01*
X-16796Y-24299D01*
X-15750Y-24508D01*
X-14704Y-24299D01*
X-13818Y-23707D01*
X-13225Y-22821D01*
X-13017Y-21775D01*
Y-21221D01*
X-13014Y-21219D01*
X-12994Y-21215D01*
X-12733Y-21040D01*
X-12467Y-20872D01*
X-12456Y-20855D01*
X-12439Y-20844D01*
X-12264Y-20583D01*
X-12083Y-20325D01*
X-12079Y-20305D01*
X-12067Y-20288D01*
X-12006Y-19980D01*
X-11937Y-19672D01*
X-11941Y-19652D01*
X-11937Y-19633D01*
X-11998Y-19324D01*
X-12053Y-19014D01*
X-12063Y-18997D01*
X-12067Y-18977D01*
X-12242Y-18715D01*
X-12411Y-18450D01*
X-12579Y-18274D01*
X-12687Y-18144D01*
X-12776Y-18018D01*
X-12849Y-17897D01*
X-12907Y-17779D01*
X-12953Y-17661D01*
X-12989Y-17542D01*
X-13014Y-17419D01*
X-13017Y-17392D01*
Y-13035D01*
X-9210D01*
X-8733Y-14107D01*
Y-26935D01*
X-35182Y-53384D01*
X-35775Y-54271D01*
X-35955Y-55179D01*
X-35958Y-55190D01*
X-35959Y-55197D01*
X-35982Y-55317D01*
Y-55518D01*
X-36000Y-55751D01*
X-36101Y-56213D01*
X-36281Y-56713D01*
X-36551Y-57254D01*
X-36917Y-57832D01*
X-37386Y-58446D01*
X-37944Y-59071D01*
X-39450Y-60465D01*
X-40016Y-60914D01*
X-40422Y-61149D01*
X-42596Y-63323D01*
X-44134Y-65987D01*
X-44930Y-68957D01*
Y-72033D01*
X-44134Y-75003D01*
X-42596Y-77667D01*
X-40422Y-79841D01*
X-37758Y-81379D01*
X-34788Y-82175D01*
X-31712D01*
X-28742Y-81379D01*
X-26078Y-79841D01*
X-23904Y-77667D01*
X-22366Y-75003D01*
X-21570Y-72033D01*
Y-68957D01*
X-22366Y-65987D01*
X-23904Y-63323D01*
X-26078Y-61149D01*
X-26484Y-60914D01*
X-27069Y-60451D01*
X-27857Y-59759D01*
X-28539Y-59089D01*
X-29114Y-58446D01*
X-29583Y-57832D01*
X-29949Y-57254D01*
X-30219Y-56713D01*
X-30368Y-56299D01*
X-4068Y-29999D01*
X-4002Y-29901D01*
X-2733Y-30286D01*
Y-58600D01*
X-4002Y-59434D01*
X-6312Y-58815D01*
X-9388D01*
X-12358Y-59611D01*
X-15022Y-61149D01*
X-17196Y-63323D01*
X-18734Y-65987D01*
X-19530Y-68957D01*
Y-72033D01*
X-18734Y-75003D01*
X-17196Y-77667D01*
X-15022Y-79841D01*
X-12358Y-81379D01*
X-9388Y-82175D01*
X-6312D01*
X-3342Y-81379D01*
X-678Y-79841D01*
X1496Y-77667D01*
X3034Y-75003D01*
X3830Y-72033D01*
Y-68957D01*
X3034Y-65987D01*
X1739Y-63743D01*
X1932Y-63549D01*
X2524Y-62663D01*
X2733Y-61617D01*
Y22685D01*
X2524Y23731D01*
X1932Y24618D01*
X-536Y27085D01*
X274Y28072D01*
X1054Y27550D01*
X2100Y27342D01*
X3717D01*
X3744Y27339D01*
X3867Y27313D01*
X3986Y27278D01*
X4104Y27232D01*
X4222Y27174D01*
X4343Y27101D01*
X4469Y27012D01*
X4599Y26904D01*
X4775Y26736D01*
X4900Y26656D01*
X5449Y26107D01*
X7169Y25395D01*
X9031D01*
X10751Y26107D01*
X12068Y27424D01*
X12780Y29144D01*
Y31006D01*
X12068Y32726D01*
X10751Y34042D01*
X9031Y34755D01*
X7169D01*
X5449Y34042D01*
X4900Y33493D01*
X4775Y33414D01*
X4599Y33246D01*
X4469Y33138D01*
X4343Y33049D01*
X4222Y32976D01*
X4104Y32918D01*
X3986Y32872D01*
X3867Y32836D01*
X3744Y32811D01*
X3717Y32807D01*
X3232D01*
X-6570Y42609D01*
Y44023D01*
X-6567Y44036D01*
X-6570Y44048D01*
Y62685D01*
X-12930D01*
Y62685D01*
X-22930D01*
Y55923D01*
X-24200Y55128D01*
X-24750Y55237D01*
X-25300Y55128D01*
X-26570Y55923D01*
Y62685D01*
X-31907D01*
Y109786D01*
X-31904Y109813D01*
X-31879Y109937D01*
X-31843Y110056D01*
X-31797Y110173D01*
X-31739Y110291D01*
X-31666Y110412D01*
X-31577Y110538D01*
X-31469Y110668D01*
X-31301Y110844D01*
X-31221Y110969D01*
X-30673Y111518D01*
X-29960Y113238D01*
Y115100D01*
X-30673Y116820D01*
X-31989Y118137D01*
X-33709Y118849D01*
D02*
G37*
G36*
X-86320Y51180D02*
X-97680D01*
Y48232D01*
X-99677D01*
X-99703Y48236D01*
X-99827Y48261D01*
X-99946Y48297D01*
X-100063Y48343D01*
X-100182Y48401D01*
X-100303Y48474D01*
X-100429Y48563D01*
X-100559Y48671D01*
X-100735Y48839D01*
X-100860Y48918D01*
X-101409Y49468D01*
X-103129Y50180D01*
X-104991D01*
X-106711Y49468D01*
X-108027Y48151D01*
X-108740Y46431D01*
Y44569D01*
X-108027Y42849D01*
X-106711Y41533D01*
X-104991Y40820D01*
X-103129D01*
X-101409Y41533D01*
X-100860Y42082D01*
X-100735Y42161D01*
X-100559Y42329D01*
X-100429Y42437D01*
X-100303Y42526D01*
X-100182Y42599D01*
X-100063Y42657D01*
X-99946Y42703D01*
X-99827Y42738D01*
X-99703Y42764D01*
X-99677Y42768D01*
X-97680D01*
Y39820D01*
X-86320D01*
Y51180D01*
D02*
G37*
G36*
X225150Y46737D02*
X200150D01*
X198924Y46493D01*
X198919Y46493D01*
X198912Y46491D01*
X198519Y46412D01*
X198296Y46263D01*
X198292Y46262D01*
X197781Y45949D01*
X197288Y45697D01*
X196753Y45470D01*
X196172Y45269D01*
X195548Y45096D01*
X194876Y44952D01*
X194179Y44841D01*
X193063Y44747D01*
X181600D01*
X181139Y44655D01*
X180669D01*
X180235Y44475D01*
X179774Y44383D01*
X179383Y44122D01*
X178949Y43942D01*
X178617Y43610D01*
X178226Y43349D01*
X177965Y42958D01*
X177633Y42626D01*
X177453Y42192D01*
X177192Y41801D01*
X177100Y41340D01*
X176920Y40906D01*
Y40436D01*
X176828Y39975D01*
X176920Y39514D01*
Y39044D01*
X177100Y38610D01*
X177192Y38149D01*
X177453Y37758D01*
X177633Y37324D01*
X177965Y36992D01*
X178226Y36601D01*
X178617Y36340D01*
X178949Y36007D01*
X179383Y35828D01*
X179774Y35566D01*
X180235Y35475D01*
X180669Y35295D01*
X181139D01*
X181600Y35203D01*
X193063D01*
X194179Y35109D01*
X194876Y34998D01*
X195548Y34854D01*
X196172Y34681D01*
X196752Y34480D01*
X197288Y34253D01*
X197781Y34001D01*
X198292Y33688D01*
X198296Y33686D01*
X198519Y33537D01*
X198912Y33459D01*
X198919Y33457D01*
X198924Y33457D01*
X200150Y33213D01*
X225150D01*
X226781Y33537D01*
X228164Y34461D01*
X229088Y35844D01*
X229412Y37475D01*
Y42475D01*
X229088Y44106D01*
X228164Y45489D01*
X226781Y46412D01*
X225150Y46737D01*
D02*
G37*
G36*
X-200150Y46737D02*
X-225150D01*
X-226781Y46412D01*
X-228164Y45489D01*
X-229088Y44106D01*
X-229412Y42475D01*
Y37475D01*
X-229088Y35844D01*
X-228164Y34461D01*
X-226781Y33537D01*
X-225150Y33213D01*
X-200150D01*
X-198924Y33457D01*
X-198919Y33457D01*
X-198912Y33459D01*
X-198519Y33537D01*
X-198296Y33686D01*
X-198292Y33688D01*
X-197781Y34001D01*
X-197288Y34253D01*
X-196753Y34480D01*
X-196172Y34681D01*
X-195548Y34854D01*
X-194876Y34998D01*
X-194179Y35109D01*
X-193063Y35203D01*
X-181600D01*
X-181139Y35295D01*
X-180669D01*
X-180235Y35475D01*
X-179774Y35566D01*
X-179383Y35828D01*
X-178949Y36007D01*
X-178617Y36340D01*
X-178226Y36601D01*
X-177965Y36992D01*
X-177633Y37324D01*
X-177453Y37758D01*
X-177192Y38149D01*
X-177100Y38610D01*
X-176920Y39044D01*
Y39514D01*
X-176828Y39975D01*
X-176920Y40436D01*
Y40906D01*
X-177100Y41340D01*
X-177192Y41801D01*
X-177453Y42192D01*
X-177633Y42626D01*
X-177965Y42958D01*
X-178226Y43349D01*
X-178617Y43610D01*
X-178949Y43942D01*
X-179383Y44122D01*
X-179774Y44384D01*
X-180235Y44475D01*
X-180669Y44655D01*
X-181139D01*
X-181600Y44747D01*
X-193063D01*
X-194179Y44841D01*
X-194877Y44952D01*
X-195548Y45096D01*
X-196173Y45269D01*
X-196753Y45470D01*
X-197288Y45697D01*
X-197781Y45949D01*
X-198292Y46262D01*
X-198296Y46263D01*
X-198519Y46412D01*
X-198912Y46491D01*
X-198919Y46493D01*
X-198924Y46493D01*
X-200150Y46737D01*
D02*
G37*
G36*
X-113820Y17680D02*
X-125180D01*
Y15839D01*
X-125283Y15650D01*
X-125338Y15573D01*
X-125375Y15531D01*
X-126613Y15280D01*
X-126675Y15339D01*
X-126800Y15418D01*
X-127349Y15968D01*
X-129069Y16680D01*
X-130931D01*
X-132651Y15968D01*
X-133968Y14651D01*
X-134680Y12931D01*
Y11069D01*
X-133968Y9349D01*
X-132651Y8033D01*
X-130931Y7320D01*
X-129069D01*
X-127349Y8033D01*
X-126800Y8582D01*
X-126675Y8661D01*
X-126614Y8719D01*
X-125375Y8468D01*
X-125337Y8426D01*
X-125283Y8350D01*
X-125180Y8160D01*
Y6320D01*
X-113820D01*
Y17680D01*
D02*
G37*
G36*
X158500Y7590D02*
X147500D01*
X146509Y7393D01*
X145669Y6831D01*
X145107Y5991D01*
X144910Y5000D01*
Y133D01*
X144846Y107D01*
X144246Y-54D01*
X143489Y-179D01*
X142931Y-228D01*
X135409D01*
X134906Y-177D01*
X134702Y-142D01*
X134563Y-108D01*
X134524Y-95D01*
X134454Y-60D01*
X134441Y-57D01*
X134416Y-44D01*
X134226Y83D01*
X134120Y104D01*
X134022Y152D01*
X133795Y168D01*
X133571Y213D01*
X133464Y192D01*
X133356Y199D01*
X133139Y127D01*
X132915Y83D01*
X132825Y22D01*
X132722Y-12D01*
X132549Y-162D01*
X132450Y-228D01*
X130000D01*
X128174Y-591D01*
X126626Y-1626D01*
X125591Y-3174D01*
X125228Y-5000D01*
X125591Y-6826D01*
X126626Y-8374D01*
X128174Y-9409D01*
X130000Y-9772D01*
X132450D01*
X132549Y-9838D01*
X132722Y-9988D01*
X132825Y-10022D01*
X132915Y-10082D01*
X133139Y-10127D01*
X133356Y-10199D01*
X133464Y-10192D01*
X133571Y-10213D01*
X133795Y-10168D01*
X134022Y-10152D01*
X134120Y-10104D01*
X134226Y-10082D01*
X134416Y-9956D01*
X134441Y-9943D01*
X134454Y-9940D01*
X134524Y-9905D01*
X134563Y-9892D01*
X134701Y-9858D01*
X134878Y-9828D01*
X135704Y-9772D01*
X142931D01*
X143489Y-9821D01*
X144246Y-9946D01*
X144846Y-10107D01*
X144910Y-10133D01*
Y-15000D01*
X145107Y-15991D01*
X145669Y-16831D01*
X146509Y-17393D01*
X147500Y-17590D01*
X157875D01*
X158004Y-17564D01*
X158135Y-17577D01*
X158496Y-17466D01*
X158866Y-17393D01*
X158975Y-17320D01*
X159101Y-17281D01*
X159392Y-17041D01*
X159706Y-16831D01*
X159779Y-16722D01*
X159881Y-16638D01*
X159904Y-16594D01*
X159938Y-16601D01*
X160022Y-16645D01*
X160263Y-16666D01*
X160500Y-16713D01*
X168500D01*
X169156Y-16582D01*
X169711Y-16211D01*
X170083Y-15655D01*
X170213Y-15000D01*
Y-10362D01*
X170280Y-10306D01*
X170516Y-10177D01*
X170906Y-10035D01*
X171450Y-9904D01*
X171992Y-9823D01*
X185478Y-23309D01*
Y-32034D01*
X182531Y-32267D01*
X175680D01*
Y-29320D01*
X164320D01*
Y-40680D01*
X175680D01*
Y-37733D01*
X182299D01*
X183390Y-37756D01*
X184988Y-37883D01*
X185478Y-37952D01*
Y-62170D01*
X185390Y-63449D01*
X185317Y-64002D01*
X185303Y-64070D01*
X184570D01*
Y-65768D01*
X184568Y-65781D01*
X184570Y-65793D01*
Y-75930D01*
X196430D01*
Y-65793D01*
X196432Y-65781D01*
X196430Y-65768D01*
Y-64070D01*
X195342D01*
X195281Y-63865D01*
X195184Y-63382D01*
X195022Y-61391D01*
Y-35000D01*
Y-21332D01*
X194659Y-19506D01*
X193624Y-17958D01*
X177292Y-1626D01*
X175744Y-591D01*
X173918Y-228D01*
X172509D01*
X172138Y-199D01*
X171450Y-96D01*
X170906Y34D01*
X170516Y177D01*
X170280Y306D01*
X170213Y362D01*
Y5000D01*
X170083Y5656D01*
X169711Y6211D01*
X169156Y6583D01*
X168500Y6713D01*
X161000D01*
X160794Y6672D01*
X160585Y6662D01*
X160495Y6619D01*
X160438Y6671D01*
X160331Y6831D01*
X160067Y7007D01*
X159832Y7221D01*
X159651Y7286D01*
X159491Y7393D01*
X159180Y7455D01*
X158881Y7562D01*
X158689Y7552D01*
X158500Y7590D01*
D02*
G37*
G36*
X-66820Y3180D02*
X-93180D01*
Y-12180D01*
X-89284D01*
Y-14195D01*
X-89287Y-14222D01*
X-89313Y-14346D01*
X-89348Y-14465D01*
X-89394Y-14582D01*
X-89453Y-14700D01*
X-89525Y-14822D01*
X-89615Y-14947D01*
X-89723Y-15078D01*
X-89890Y-15253D01*
X-89970Y-15378D01*
X-90519Y-15927D01*
X-91231Y-17648D01*
Y-19509D01*
X-90519Y-21230D01*
X-89202Y-22546D01*
X-87482Y-23258D01*
X-85620D01*
X-83900Y-22546D01*
X-82584Y-21230D01*
X-81871Y-19509D01*
Y-17648D01*
X-82584Y-15927D01*
X-83133Y-15378D01*
X-83212Y-15253D01*
X-83380Y-15078D01*
X-83488Y-14947D01*
X-83577Y-14822D01*
X-83650Y-14700D01*
X-83708Y-14582D01*
X-83755Y-14465D01*
X-83790Y-14346D01*
X-83816Y-14222D01*
X-83819Y-14195D01*
Y-12180D01*
X-66820D01*
Y-6679D01*
X-54430D01*
Y-10180D01*
X-50732D01*
Y-14820D01*
X-53680D01*
Y-26180D01*
X-42320D01*
Y-14820D01*
X-45268D01*
Y-10180D01*
X-41570D01*
Y1680D01*
X-54430D01*
Y-1214D01*
X-66820D01*
Y3180D01*
D02*
G37*
G36*
X160680Y-29320D02*
X149320D01*
Y-31959D01*
X149202Y-31978D01*
X149044Y-31992D01*
X146339D01*
X146195Y-31971D01*
X146057Y-31940D01*
X145942Y-31904D01*
X145846Y-31867D01*
X145768Y-31827D01*
X145703Y-31787D01*
X145648Y-31745D01*
X145539Y-31644D01*
X145423Y-31573D01*
X144883Y-31033D01*
X143163Y-30320D01*
X141301D01*
X139581Y-31033D01*
X138265Y-32349D01*
X137552Y-34069D01*
Y-35931D01*
X138265Y-37651D01*
X139581Y-38968D01*
X141301Y-39680D01*
X143163D01*
X144883Y-38968D01*
X145423Y-38428D01*
X145539Y-38356D01*
X145648Y-38255D01*
X145703Y-38213D01*
X145768Y-38173D01*
X145846Y-38133D01*
X145942Y-38096D01*
X146057Y-38060D01*
X146195Y-38029D01*
X146339Y-38008D01*
X149044D01*
X149202Y-38022D01*
X149320Y-38041D01*
Y-40680D01*
X160680D01*
Y-29320D01*
D02*
G37*
G36*
X-226112Y-18345D02*
X-229188D01*
X-232158Y-19141D01*
X-234822Y-20679D01*
X-236996Y-22853D01*
X-238534Y-25517D01*
X-239330Y-28487D01*
Y-31563D01*
X-238534Y-34533D01*
X-236996Y-37197D01*
X-234822Y-39371D01*
X-232158Y-40909D01*
X-229188Y-41705D01*
X-226112D01*
X-223142Y-40909D01*
X-220478Y-39371D01*
X-218304Y-37197D01*
X-216766Y-34533D01*
X-215970Y-31563D01*
Y-28487D01*
X-216766Y-25517D01*
X-218304Y-22853D01*
X-220478Y-20679D01*
X-223142Y-19141D01*
X-226112Y-18345D01*
D02*
G37*
G36*
X229188Y-18345D02*
X226112D01*
X223142Y-19141D01*
X220478Y-20679D01*
X218304Y-22853D01*
X216766Y-25517D01*
X215970Y-28487D01*
Y-31563D01*
X216766Y-34533D01*
X218304Y-37197D01*
X220478Y-39371D01*
X223142Y-40909D01*
X226112Y-41705D01*
X229188D01*
X232158Y-40909D01*
X234822Y-39371D01*
X236996Y-37197D01*
X238534Y-34533D01*
X239330Y-31563D01*
Y-28487D01*
X238534Y-25517D01*
X236996Y-22853D01*
X234822Y-20679D01*
X232158Y-19141D01*
X229188Y-18345D01*
D02*
G37*
G36*
X-42320Y-29820D02*
X-53680D01*
Y-41180D01*
X-51839D01*
X-51650Y-41283D01*
X-51573Y-41338D01*
X-51531Y-41375D01*
X-51280Y-42613D01*
X-51339Y-42675D01*
X-51418Y-42800D01*
X-51968Y-43349D01*
X-52680Y-45069D01*
Y-46931D01*
X-51968Y-48651D01*
X-50651Y-49967D01*
X-48931Y-50680D01*
X-47069D01*
X-45349Y-49967D01*
X-44033Y-48651D01*
X-43320Y-46931D01*
Y-45069D01*
X-44033Y-43349D01*
X-44582Y-42800D01*
X-44661Y-42675D01*
X-44719Y-42614D01*
X-44468Y-41376D01*
X-44427Y-41337D01*
X-44350Y-41283D01*
X-44161Y-41180D01*
X-42320D01*
Y-29820D01*
D02*
G37*
G36*
X213720Y-64068D02*
X213707Y-64070D01*
X203570D01*
Y-75930D01*
X213707D01*
X213720Y-75932D01*
X213732Y-75930D01*
X215430D01*
Y-75018D01*
X215567Y-74984D01*
X216078Y-74899D01*
X217950Y-74772D01*
X229500D01*
X229961Y-74680D01*
X230431D01*
X230865Y-74500D01*
X231326Y-74408D01*
X231717Y-74147D01*
X232151Y-73967D01*
X232483Y-73635D01*
X232874Y-73374D01*
X233135Y-72983D01*
X233468Y-72651D01*
X233647Y-72217D01*
X233909Y-71826D01*
X234000Y-71365D01*
X234180Y-70931D01*
Y-70461D01*
X234272Y-70000D01*
X234180Y-69539D01*
Y-69069D01*
X234000Y-68635D01*
X233909Y-68174D01*
X233647Y-67783D01*
X233468Y-67349D01*
X233135Y-67017D01*
X232874Y-66626D01*
X232483Y-66365D01*
X232151Y-66033D01*
X231717Y-65853D01*
X231326Y-65592D01*
X230865Y-65500D01*
X230431Y-65320D01*
X229961D01*
X229500Y-65228D01*
X217706D01*
X216796Y-65182D01*
X216113Y-65107D01*
X215567Y-65016D01*
X215430Y-64982D01*
Y-64070D01*
X213732D01*
X213720Y-64068D01*
D02*
G37*
G36*
X-57112Y-58815D02*
X-60188D01*
X-63158Y-59611D01*
X-65822Y-61149D01*
X-67996Y-63323D01*
X-69534Y-65987D01*
X-70330Y-68957D01*
Y-72033D01*
X-69534Y-75003D01*
X-67996Y-77667D01*
X-65822Y-79841D01*
X-63158Y-81379D01*
X-60188Y-82175D01*
X-57112D01*
X-54142Y-81379D01*
X-51478Y-79841D01*
X-49304Y-77667D01*
X-47766Y-75003D01*
X-46970Y-72033D01*
Y-68957D01*
X-47766Y-65987D01*
X-49304Y-63323D01*
X-51478Y-61149D01*
X-54142Y-59611D01*
X-57112Y-58815D01*
D02*
G37*
G36*
X-82512D02*
X-85588D01*
X-88558Y-59611D01*
X-91222Y-61149D01*
X-93396Y-63323D01*
X-94934Y-65987D01*
X-95730Y-68957D01*
Y-72033D01*
X-94934Y-75003D01*
X-93396Y-77667D01*
X-91222Y-79841D01*
X-88558Y-81379D01*
X-85588Y-82175D01*
X-82512D01*
X-79542Y-81379D01*
X-76878Y-79841D01*
X-74704Y-77667D01*
X-73166Y-75003D01*
X-72370Y-72033D01*
Y-68957D01*
X-73166Y-65987D01*
X-74704Y-63323D01*
X-76878Y-61149D01*
X-79542Y-59611D01*
X-82512Y-58815D01*
D02*
G37*
G36*
X152381Y-45820D02*
X147619D01*
X142947Y-46749D01*
X138546Y-48572D01*
X134586Y-51218D01*
X131218Y-54586D01*
X128572Y-58547D01*
X126749Y-62947D01*
X125820Y-67618D01*
Y-72382D01*
X126749Y-77053D01*
X128572Y-81454D01*
X131218Y-85414D01*
X134586Y-88782D01*
X138546Y-91428D01*
X142947Y-93251D01*
X147619Y-94180D01*
X152381D01*
X157053Y-93251D01*
X161453Y-91428D01*
X165414Y-88782D01*
X168782Y-85414D01*
X171428Y-81454D01*
X173251Y-77053D01*
X174180Y-72382D01*
Y-67618D01*
X173251Y-62947D01*
X171428Y-58547D01*
X168782Y-54586D01*
X165414Y-51218D01*
X161453Y-48572D01*
X157053Y-46749D01*
X152381Y-45820D01*
D02*
G37*
G36*
X-147619D02*
X-152381D01*
X-157053Y-46749D01*
X-161453Y-48572D01*
X-165414Y-51218D01*
X-168782Y-54586D01*
X-171428Y-58547D01*
X-173251Y-62947D01*
X-174180Y-67618D01*
Y-72382D01*
X-173251Y-77053D01*
X-171428Y-81454D01*
X-168782Y-85414D01*
X-165414Y-88782D01*
X-161453Y-91428D01*
X-157053Y-93251D01*
X-152381Y-94180D01*
X-147619D01*
X-142947Y-93251D01*
X-138546Y-91428D01*
X-134586Y-88782D01*
X-131218Y-85414D01*
X-128572Y-81454D01*
X-126749Y-77053D01*
X-125820Y-72382D01*
Y-67618D01*
X-126749Y-62947D01*
X-128572Y-58547D01*
X-131218Y-54586D01*
X-134586Y-51218D01*
X-138546Y-48572D01*
X-142947Y-46749D01*
X-147619Y-45820D01*
D02*
G37*
G36*
X240680Y-99320D02*
X229320D01*
Y-110680D01*
X231959D01*
X231978Y-110798D01*
X231992Y-110956D01*
Y-113661D01*
X231971Y-113805D01*
X231940Y-113943D01*
X231905Y-114058D01*
X231867Y-114154D01*
X231828Y-114232D01*
X231787Y-114297D01*
X231745Y-114352D01*
X231644Y-114461D01*
X231573Y-114577D01*
X231033Y-115117D01*
X230320Y-116837D01*
Y-118699D01*
X231033Y-120419D01*
X232349Y-121735D01*
X234069Y-122448D01*
X235931D01*
X237651Y-121735D01*
X238967Y-120419D01*
X239680Y-118699D01*
Y-116837D01*
X238967Y-115117D01*
X238428Y-114577D01*
X238356Y-114461D01*
X238255Y-114352D01*
X238213Y-114297D01*
X238173Y-114232D01*
X238134Y-114154D01*
X238095Y-114058D01*
X238060Y-113943D01*
X238029Y-113805D01*
X238008Y-113661D01*
Y-110956D01*
X238022Y-110798D01*
X238041Y-110680D01*
X240680D01*
Y-99320D01*
D02*
G37*
G36*
X-170549Y-142395D02*
X-174151D01*
X-177630Y-143327D01*
X-180750Y-145128D01*
X-183297Y-147675D01*
X-185098Y-150795D01*
X-186030Y-154274D01*
Y-157876D01*
X-185098Y-161355D01*
X-183297Y-164475D01*
X-180750Y-167022D01*
X-177630Y-168823D01*
X-174151Y-169755D01*
X-170549D01*
X-167070Y-168823D01*
X-163950Y-167022D01*
X-161403Y-164475D01*
X-159602Y-161355D01*
X-158670Y-157876D01*
Y-154274D01*
X-159602Y-150795D01*
X-161403Y-147675D01*
X-163950Y-145128D01*
X-167070Y-143327D01*
X-170549Y-142395D01*
D02*
G37*
G36*
X144451Y-142395D02*
X140849D01*
X137370Y-143327D01*
X134250Y-145128D01*
X131703Y-147675D01*
X129902Y-150795D01*
X128970Y-154274D01*
Y-157876D01*
X129902Y-161355D01*
X131703Y-164475D01*
X134250Y-167022D01*
X137370Y-168823D01*
X140849Y-169755D01*
X144451D01*
X147930Y-168823D01*
X151050Y-167022D01*
X153597Y-164475D01*
X155398Y-161355D01*
X156330Y-157876D01*
Y-154274D01*
X155398Y-150795D01*
X153597Y-147675D01*
X151050Y-145128D01*
X147930Y-143327D01*
X144451Y-142395D01*
D02*
G37*
G36*
X29451D02*
X25849D01*
X22370Y-143327D01*
X19250Y-145128D01*
X16703Y-147675D01*
X14902Y-150795D01*
X13970Y-154274D01*
Y-157876D01*
X14902Y-161355D01*
X16703Y-164475D01*
X19250Y-167022D01*
X22370Y-168823D01*
X25849Y-169755D01*
X29451D01*
X32930Y-168823D01*
X36050Y-167022D01*
X38597Y-164475D01*
X40398Y-161355D01*
X41330Y-157876D01*
Y-154274D01*
X40398Y-150795D01*
X38597Y-147675D01*
X36050Y-145128D01*
X32930Y-143327D01*
X29451Y-142395D01*
D02*
G37*
G36*
X-70549D02*
X-74151D01*
X-77630Y-143327D01*
X-80750Y-145128D01*
X-83297Y-147675D01*
X-85098Y-150795D01*
X-86030Y-154274D01*
Y-157876D01*
X-85098Y-161355D01*
X-83297Y-164475D01*
X-80750Y-167022D01*
X-77630Y-168823D01*
X-74151Y-169755D01*
X-70549D01*
X-67070Y-168823D01*
X-63950Y-167022D01*
X-61403Y-164475D01*
X-59602Y-161355D01*
X-58670Y-157876D01*
Y-154274D01*
X-59602Y-150795D01*
X-61403Y-147675D01*
X-63950Y-145128D01*
X-67070Y-143327D01*
X-70549Y-142395D01*
D02*
G37*
G36*
X40600Y-233436D02*
X39370D01*
Y-249805D01*
X45739D01*
Y-238575D01*
X45347Y-236609D01*
X44234Y-234941D01*
X42566Y-233827D01*
X40600Y-233436D01*
D02*
G37*
G36*
X36830D02*
X35600D01*
X33633Y-233827D01*
X31966Y-234941D01*
X30852Y-236609D01*
X30461Y-238575D01*
Y-249805D01*
X36830D01*
Y-233436D01*
D02*
G37*
G36*
X1900Y-215253D02*
X1565Y-215320D01*
X1069D01*
X611Y-215510D01*
X74Y-215617D01*
X-381Y-215921D01*
X-651Y-216033D01*
X-858Y-216239D01*
X-1474Y-216651D01*
X-1886Y-217267D01*
X-1968Y-217349D01*
X-2012Y-217455D01*
X-2508Y-218199D01*
X-2872Y-220025D01*
Y-231488D01*
X-2966Y-232604D01*
X-3077Y-233302D01*
X-3221Y-233973D01*
X-3394Y-234597D01*
X-3595Y-235177D01*
X-3822Y-235713D01*
X-4074Y-236206D01*
X-4387Y-236717D01*
X-4389Y-236721D01*
X-4538Y-236944D01*
X-4616Y-237337D01*
X-4618Y-237344D01*
X-4618Y-237348D01*
X-4862Y-238575D01*
Y-263575D01*
X-4538Y-265206D01*
X-3614Y-266589D01*
X-2231Y-267512D01*
X-600Y-267837D01*
X4400D01*
X6031Y-267512D01*
X7414Y-266589D01*
X8337Y-265206D01*
X8662Y-263575D01*
Y-238575D01*
X8418Y-237348D01*
X8418Y-237344D01*
X8416Y-237337D01*
X8337Y-236944D01*
X8188Y-236721D01*
X8187Y-236717D01*
X7874Y-236206D01*
X7622Y-235713D01*
X7395Y-235178D01*
X7194Y-234597D01*
X7021Y-233973D01*
X6877Y-233302D01*
X6766Y-232604D01*
X6672Y-231488D01*
Y-220951D01*
X6680Y-220931D01*
Y-219069D01*
X5968Y-217349D01*
X5283Y-216665D01*
X5274Y-216651D01*
X5260Y-216642D01*
X4651Y-216033D01*
X3855Y-215703D01*
X3726Y-215617D01*
X3574Y-215586D01*
X2931Y-215320D01*
X2235D01*
X1900Y-215253D01*
D02*
G37*
G36*
X45739Y-252345D02*
X39370D01*
Y-268714D01*
X40600D01*
X42566Y-268323D01*
X44234Y-267209D01*
X45347Y-265541D01*
X45739Y-263575D01*
Y-252345D01*
D02*
G37*
G36*
X36830D02*
X30461D01*
Y-263575D01*
X30852Y-265541D01*
X31966Y-267209D01*
X33633Y-268323D01*
X35600Y-268714D01*
X36830D01*
Y-252345D01*
D02*
G37*
G36*
X69638Y-254395D02*
X66562D01*
X63592Y-255191D01*
X60928Y-256729D01*
X58754Y-258903D01*
X57216Y-261567D01*
X56420Y-264537D01*
Y-267613D01*
X57216Y-270583D01*
X58754Y-273247D01*
X60928Y-275421D01*
X63592Y-276959D01*
X66562Y-277755D01*
X69638D01*
X72608Y-276959D01*
X75272Y-275421D01*
X77446Y-273247D01*
X78984Y-270583D01*
X79780Y-267613D01*
Y-264537D01*
X78984Y-261567D01*
X77446Y-258903D01*
X75272Y-256729D01*
X72608Y-255191D01*
X69638Y-254395D01*
D02*
G37*
G36*
X-66562D02*
X-69638D01*
X-72608Y-255191D01*
X-75272Y-256729D01*
X-77446Y-258903D01*
X-78984Y-261567D01*
X-79780Y-264537D01*
Y-267613D01*
X-78984Y-270583D01*
X-77446Y-273247D01*
X-75272Y-275421D01*
X-72608Y-276959D01*
X-69638Y-277755D01*
X-66562D01*
X-63592Y-276959D01*
X-60928Y-275421D01*
X-58754Y-273247D01*
X-57216Y-270583D01*
X-56420Y-267613D01*
Y-264537D01*
X-57216Y-261567D01*
X-58754Y-258903D01*
X-60928Y-256729D01*
X-63592Y-255191D01*
X-66562Y-254395D01*
D02*
G37*
%LPD*%
G36*
X-36209Y275914D02*
X-36396Y275688D01*
X-36561Y275456D01*
X-36704Y275217D01*
X-36825Y274972D01*
X-36924Y274720D01*
X-37001Y274461D01*
X-37056Y274196D01*
X-37089Y273925D01*
X-37100Y273647D01*
X-39100D01*
X-39111Y273925D01*
X-39144Y274196D01*
X-39199Y274461D01*
X-39276Y274720D01*
X-39375Y274972D01*
X-39496Y275217D01*
X-39639Y275456D01*
X-39804Y275688D01*
X-39991Y275914D01*
X-40200Y276133D01*
X-36000D01*
X-36209Y275914D01*
D02*
G37*
G36*
X-37090Y267707D02*
X-37060Y267362D01*
X-37010Y267057D01*
X-36940Y266793D01*
X-36850Y266570D01*
X-36740Y266387D01*
X-36610Y266245D01*
X-36460Y266144D01*
X-36290Y266083D01*
X-36100Y266062D01*
X-40100D01*
X-39910Y266083D01*
X-39740Y266144D01*
X-39590Y266245D01*
X-39460Y266387D01*
X-39350Y266570D01*
X-39260Y266793D01*
X-39190Y267057D01*
X-39140Y267362D01*
X-39110Y267707D01*
X-39100Y268093D01*
X-37100D01*
X-37090Y267707D01*
D02*
G37*
G36*
X76891Y230639D02*
X76704Y230413D01*
X76539Y230181D01*
X76396Y229942D01*
X76275Y229697D01*
X76176Y229445D01*
X76099Y229187D01*
X76044Y228922D01*
X76011Y228650D01*
X76002Y228410D01*
X76010Y228084D01*
X76040Y227738D01*
X76090Y227434D01*
X76160Y227170D01*
X76250Y226947D01*
X76360Y226764D01*
X76490Y226622D01*
X76640Y226520D01*
X76810Y226459D01*
X77000Y226439D01*
X73000D01*
X73190Y226459D01*
X73360Y226520D01*
X73510Y226622D01*
X73640Y226764D01*
X73750Y226947D01*
X73840Y227170D01*
X73910Y227434D01*
X73960Y227738D01*
X73990Y228084D01*
X73998Y228410D01*
X73989Y228650D01*
X73956Y228922D01*
X73901Y229187D01*
X73824Y229445D01*
X73725Y229697D01*
X73604Y229942D01*
X73461Y230181D01*
X73296Y230413D01*
X73109Y230639D01*
X72900Y230858D01*
X77100D01*
X76891Y230639D01*
D02*
G37*
G36*
X172459Y221810D02*
X172520Y221640D01*
X172622Y221490D01*
X172764Y221360D01*
X172947Y221250D01*
X173170Y221160D01*
X173434Y221090D01*
X173738Y221040D01*
X174084Y221010D01*
X174470Y221000D01*
Y219000D01*
X174084Y218990D01*
X173738Y218960D01*
X173434Y218910D01*
X173170Y218840D01*
X172947Y218750D01*
X172764Y218640D01*
X172622Y218510D01*
X172520Y218360D01*
X172459Y218190D01*
X172439Y218000D01*
Y222000D01*
X172459Y221810D01*
D02*
G37*
G36*
X179071Y217900D02*
X178852Y218109D01*
X178626Y218296D01*
X178394Y218461D01*
X178155Y218604D01*
X177910Y218725D01*
X177658Y218824D01*
X177400Y218901D01*
X177135Y218956D01*
X176863Y218989D01*
X176585Y219000D01*
X176585Y221000D01*
X176863Y221011D01*
X177135Y221044D01*
X177400Y221099D01*
X177658Y221176D01*
X177910Y221275D01*
X178155Y221396D01*
X178394Y221539D01*
X178626Y221704D01*
X178852Y221891D01*
X179071Y222100D01*
X179071Y217900D01*
D02*
G37*
G36*
X6379Y237045D02*
X6069Y236439D01*
X5795Y235793D01*
X5557Y235107D01*
X5357Y234381D01*
X5192Y233616D01*
X5064Y232811D01*
X4918Y231081D01*
X4900Y230156D01*
X-1100D01*
X-1118Y231081D01*
X-1264Y232811D01*
X-1392Y233616D01*
X-1557Y234381D01*
X-1757Y235107D01*
X-1995Y235793D01*
X-2269Y236439D01*
X-2579Y237045D01*
X-2926Y237611D01*
X6726D01*
X6379Y237045D01*
D02*
G37*
G36*
X29561Y202000D02*
X29541Y202190D01*
X29480Y202360D01*
X29378Y202510D01*
X29236Y202640D01*
X29053Y202750D01*
X28830Y202840D01*
X28566Y202910D01*
X28261Y202960D01*
X27916Y202990D01*
X27531Y203000D01*
Y205000D01*
X27916Y205010D01*
X28261Y205040D01*
X28566Y205090D01*
X28830Y205160D01*
X29053Y205250D01*
X29236Y205360D01*
X29378Y205490D01*
X29480Y205640D01*
X29541Y205810D01*
X29561Y206000D01*
Y202000D01*
D02*
G37*
G36*
X22361Y205891D02*
X22587Y205704D01*
X22819Y205539D01*
X23058Y205396D01*
X23303Y205275D01*
X23555Y205176D01*
X23813Y205099D01*
X24079Y205044D01*
X24350Y205011D01*
X24628Y205000D01*
Y203000D01*
X24350Y202989D01*
X24079Y202956D01*
X23813Y202901D01*
X23555Y202824D01*
X23303Y202725D01*
X23058Y202604D01*
X22819Y202461D01*
X22587Y202296D01*
X22361Y202109D01*
X22142Y201900D01*
Y206100D01*
X22361Y205891D01*
D02*
G37*
G36*
X153386Y215291D02*
X153216Y215230D01*
X153066Y215128D01*
X152936Y214986D01*
X152826Y214803D01*
X152736Y214580D01*
X152666Y214316D01*
X152616Y214011D01*
X152586Y213666D01*
X152576Y213281D01*
X150576D01*
X150566Y213666D01*
X150536Y214011D01*
X150486Y214316D01*
X150416Y214580D01*
X150326Y214803D01*
X150216Y214986D01*
X150086Y215128D01*
X149936Y215230D01*
X149766Y215291D01*
X149576Y215311D01*
X153576D01*
X153386Y215291D01*
D02*
G37*
G36*
X152587Y209897D02*
X152620Y209625D01*
X152675Y209360D01*
X152752Y209102D01*
X152851Y208850D01*
X152972Y208605D01*
X153115Y208366D01*
X153280Y208134D01*
X153467Y207908D01*
X153676Y207689D01*
X149476D01*
X149685Y207908D01*
X149872Y208134D01*
X150037Y208366D01*
X150180Y208605D01*
X150301Y208850D01*
X150400Y209102D01*
X150477Y209360D01*
X150532Y209625D01*
X150565Y209897D01*
X150576Y210175D01*
X152576D01*
X152587Y209897D01*
D02*
G37*
G36*
X187459Y201810D02*
X187520Y201640D01*
X187622Y201490D01*
X187764Y201360D01*
X187947Y201250D01*
X188170Y201160D01*
X188434Y201090D01*
X188738Y201040D01*
X189084Y201010D01*
X189470Y201000D01*
Y199000D01*
X189084Y198990D01*
X188738Y198960D01*
X188434Y198910D01*
X188170Y198840D01*
X187947Y198750D01*
X187764Y198640D01*
X187622Y198510D01*
X187520Y198360D01*
X187459Y198190D01*
X187439Y198000D01*
Y202000D01*
X187459Y201810D01*
D02*
G37*
G36*
X194071Y197900D02*
X193852Y198109D01*
X193626Y198296D01*
X193394Y198461D01*
X193155Y198604D01*
X192910Y198725D01*
X192658Y198824D01*
X192400Y198901D01*
X192135Y198956D01*
X191863Y198989D01*
X191585Y199000D01*
X191585Y201000D01*
X191863Y201011D01*
X192135Y201044D01*
X192400Y201099D01*
X192658Y201176D01*
X192910Y201275D01*
X193155Y201396D01*
X193394Y201539D01*
X193626Y201704D01*
X193852Y201891D01*
X194071Y202100D01*
X194071Y197900D01*
D02*
G37*
G36*
X168272Y195291D02*
X168102Y195230D01*
X167952Y195128D01*
X167822Y194986D01*
X167712Y194803D01*
X167622Y194580D01*
X167552Y194316D01*
X167502Y194011D01*
X167472Y193666D01*
X167462Y193281D01*
X165462D01*
X165452Y193666D01*
X165422Y194011D01*
X165372Y194316D01*
X165302Y194580D01*
X165212Y194803D01*
X165102Y194986D01*
X164972Y195128D01*
X164822Y195230D01*
X164652Y195291D01*
X164462Y195311D01*
X168462D01*
X168272Y195291D01*
D02*
G37*
G36*
X167462Y189419D02*
X167466Y188965D01*
X167599Y187053D01*
X167648Y186744D01*
X167770Y186197D01*
X167842Y185961D01*
X164211Y187894D01*
X164448Y187974D01*
X164661Y188078D01*
X164849Y188206D01*
X165012Y188357D01*
X165149Y188532D01*
X165262Y188731D01*
X165350Y188954D01*
X165412Y189200D01*
X165450Y189470D01*
X165462Y189764D01*
X167462Y189419D01*
D02*
G37*
G36*
X231061Y-92000D02*
X231041Y-91810D01*
X230980Y-91640D01*
X230878Y-91490D01*
X230736Y-91360D01*
X230553Y-91250D01*
X230330Y-91160D01*
X230066Y-91090D01*
X229762Y-91040D01*
X229416Y-91010D01*
X229030Y-91000D01*
Y-89000D01*
X229416Y-88990D01*
X229762Y-88960D01*
X230066Y-88910D01*
X230330Y-88840D01*
X230553Y-88750D01*
X230736Y-88640D01*
X230878Y-88510D01*
X230980Y-88360D01*
X231041Y-88190D01*
X231061Y-88000D01*
Y-92000D01*
D02*
G37*
G36*
X222389Y-88091D02*
X222748Y-88281D01*
X223196Y-88450D01*
X223733Y-88596D01*
X224359Y-88719D01*
X225075Y-88820D01*
X226773Y-88955D01*
X228828Y-89000D01*
Y-91000D01*
X227756Y-91011D01*
X224359Y-91281D01*
X223733Y-91404D01*
X223196Y-91550D01*
X222748Y-91719D01*
X222389Y-91909D01*
X222120Y-92123D01*
Y-87877D01*
X222389Y-88091D01*
D02*
G37*
G36*
X204280Y-86012D02*
X204460Y-86220D01*
X204760Y-86402D01*
X205180Y-86561D01*
X205720Y-86695D01*
X206380Y-86805D01*
X207160Y-86890D01*
X209079Y-86988D01*
X210219Y-87000D01*
Y-93000D01*
X209079Y-93012D01*
X206380Y-93195D01*
X205720Y-93305D01*
X205180Y-93439D01*
X204760Y-93598D01*
X204460Y-93780D01*
X204280Y-93988D01*
X204220Y-94220D01*
X203961Y-94279D01*
X203730Y-94459D01*
X203526Y-94760D01*
X203350Y-95180D01*
X203200Y-95719D01*
X203078Y-96379D01*
X202983Y-97160D01*
X202874Y-99080D01*
X202860Y-100219D01*
X196860D01*
X196850Y-99080D01*
X196590Y-95719D01*
X196472Y-95180D01*
X196331Y-94760D01*
X196169Y-94459D01*
X195986Y-94279D01*
X195781Y-94220D01*
X204220D01*
Y-85780D01*
X204280Y-86012D01*
D02*
G37*
G36*
X202860Y-115000D02*
X196860Y-124000D01*
X196800Y-122860D01*
X196620Y-121840D01*
X196320Y-120940D01*
X195900Y-120160D01*
X195360Y-119500D01*
X194700Y-118960D01*
X193920Y-118540D01*
X193020Y-118240D01*
X192000Y-118060D01*
X190860Y-118000D01*
Y-112000D01*
X192000Y-111940D01*
X193020Y-111760D01*
X193920Y-111460D01*
X194700Y-111040D01*
X195360Y-110500D01*
X195900Y-109840D01*
X196320Y-109060D01*
X196620Y-108160D01*
X196800Y-107140D01*
X196860Y-106000D01*
X202860Y-115000D01*
D02*
G37*
G36*
X77262Y203541D02*
X77092Y203480D01*
X76942Y203378D01*
X76812Y203236D01*
X76702Y203053D01*
X76612Y202830D01*
X76542Y202566D01*
X76492Y202261D01*
X76462Y201916D01*
X76452Y201530D01*
X74452D01*
X74442Y201916D01*
X74412Y202261D01*
X74362Y202566D01*
X74292Y202830D01*
X74202Y203053D01*
X74092Y203236D01*
X73962Y203378D01*
X73812Y203480D01*
X73642Y203541D01*
X73452Y203561D01*
X77452D01*
X77262Y203541D01*
D02*
G37*
G36*
X76463Y195988D02*
X76496Y195716D01*
X76551Y195451D01*
X76628Y195193D01*
X76727Y194941D01*
X76848Y194696D01*
X76991Y194457D01*
X77156Y194225D01*
X77343Y193999D01*
X77552Y193780D01*
X73352D01*
X73561Y193999D01*
X73748Y194225D01*
X73913Y194457D01*
X74056Y194696D01*
X74177Y194941D01*
X74276Y195193D01*
X74353Y195451D01*
X74408Y195716D01*
X74441Y195988D01*
X74452Y196266D01*
X76452D01*
X76463Y195988D01*
D02*
G37*
G36*
X77813Y193529D02*
X78039Y193342D01*
X78271Y193177D01*
X78510Y193034D01*
X78755Y192913D01*
X79007Y192814D01*
X79265Y192737D01*
X79530Y192682D01*
X79802Y192649D01*
X80080Y192638D01*
Y190638D01*
X79802Y190627D01*
X79530Y190594D01*
X79265Y190539D01*
X79007Y190462D01*
X78755Y190363D01*
X78510Y190242D01*
X78271Y190099D01*
X78039Y189934D01*
X77813Y189747D01*
X77594Y189538D01*
Y193738D01*
X77813Y193529D01*
D02*
G37*
G36*
X-58109Y183639D02*
X-58296Y183413D01*
X-58461Y183181D01*
X-58604Y182942D01*
X-58725Y182697D01*
X-58824Y182445D01*
X-58901Y182187D01*
X-58956Y181922D01*
X-58989Y181650D01*
X-59000Y181372D01*
X-61000D01*
X-61011Y181650D01*
X-61044Y181922D01*
X-61099Y182187D01*
X-61176Y182445D01*
X-61275Y182697D01*
X-61396Y182942D01*
X-61539Y183181D01*
X-61704Y183413D01*
X-61891Y183639D01*
X-62100Y183858D01*
X-57900D01*
X-58109Y183639D01*
D02*
G37*
G36*
X-73609Y183139D02*
X-73796Y182913D01*
X-73961Y182681D01*
X-74104Y182442D01*
X-74225Y182197D01*
X-74324Y181945D01*
X-74401Y181687D01*
X-74456Y181422D01*
X-74489Y181150D01*
X-74500Y180872D01*
X-76500D01*
X-76511Y181150D01*
X-76544Y181422D01*
X-76599Y181687D01*
X-76676Y181945D01*
X-76775Y182197D01*
X-76896Y182442D01*
X-77039Y182681D01*
X-77204Y182913D01*
X-77391Y183139D01*
X-77600Y183358D01*
X-73400D01*
X-73609Y183139D01*
D02*
G37*
G36*
X-74490Y179590D02*
X-74460Y179249D01*
X-74410Y178950D01*
X-74340Y178689D01*
X-74250Y178470D01*
X-74140Y178290D01*
X-74010Y178150D01*
X-73860Y178050D01*
X-73690Y177990D01*
X-73500Y177969D01*
X-77500D01*
X-77310Y177990D01*
X-77140Y178050D01*
X-76990Y178150D01*
X-76860Y178290D01*
X-76750Y178470D01*
X-76660Y178689D01*
X-76590Y178950D01*
X-76540Y179249D01*
X-76510Y179590D01*
X-76500Y179970D01*
X-74500D01*
X-74490Y179590D01*
D02*
G37*
G36*
X-58990Y179590D02*
X-58960Y179249D01*
X-58910Y178950D01*
X-58840Y178689D01*
X-58750Y178470D01*
X-58640Y178290D01*
X-58510Y178150D01*
X-58360Y178050D01*
X-58190Y177990D01*
X-58000Y177969D01*
X-62000D01*
X-61810Y177990D01*
X-61640Y178050D01*
X-61490Y178150D01*
X-61360Y178290D01*
X-61250Y178470D01*
X-61160Y178689D01*
X-61090Y178950D01*
X-61040Y179249D01*
X-61010Y179590D01*
X-61000Y179970D01*
X-59000D01*
X-58990Y179590D01*
D02*
G37*
G36*
X-73593Y170041D02*
X-73763Y169980D01*
X-73913Y169878D01*
X-74043Y169736D01*
X-74153Y169553D01*
X-74243Y169330D01*
X-74313Y169066D01*
X-74363Y168762D01*
X-74393Y168416D01*
X-74403Y168030D01*
X-76403D01*
X-76413Y168416D01*
X-76443Y168762D01*
X-76493Y169066D01*
X-76563Y169330D01*
X-76653Y169553D01*
X-76763Y169736D01*
X-76893Y169878D01*
X-77043Y169980D01*
X-77213Y170041D01*
X-77403Y170061D01*
X-73403D01*
X-73593Y170041D01*
D02*
G37*
G36*
X-57990Y170041D02*
X-58160Y169980D01*
X-58310Y169878D01*
X-58440Y169736D01*
X-58550Y169553D01*
X-58640Y169330D01*
X-58710Y169066D01*
X-58760Y168761D01*
X-58790Y168416D01*
X-58800Y168030D01*
X-60800D01*
X-60810Y168416D01*
X-60840Y168761D01*
X-60890Y169066D01*
X-60960Y169330D01*
X-61050Y169553D01*
X-61160Y169736D01*
X-61290Y169878D01*
X-61440Y169980D01*
X-61610Y170041D01*
X-61800Y170061D01*
X-57800D01*
X-57990Y170041D01*
D02*
G37*
G36*
X15858Y161900D02*
X15639Y162109D01*
X15413Y162296D01*
X15181Y162461D01*
X14942Y162604D01*
X14697Y162725D01*
X14445Y162824D01*
X14187Y162901D01*
X13922Y162956D01*
X13650Y162989D01*
X13372Y163000D01*
Y165000D01*
X13650Y165011D01*
X13922Y165044D01*
X14187Y165099D01*
X14445Y165176D01*
X14697Y165275D01*
X14942Y165396D01*
X15181Y165539D01*
X15413Y165704D01*
X15639Y165891D01*
X15858Y166100D01*
Y161900D01*
D02*
G37*
G36*
X9858Y155900D02*
X9639Y156109D01*
X9413Y156296D01*
X9181Y156461D01*
X8942Y156604D01*
X8697Y156725D01*
X8445Y156824D01*
X8187Y156901D01*
X7922Y156956D01*
X7650Y156989D01*
X7372Y157000D01*
Y159000D01*
X7650Y159011D01*
X7922Y159044D01*
X8187Y159099D01*
X8445Y159176D01*
X8697Y159275D01*
X8942Y159396D01*
X9181Y159539D01*
X9413Y159704D01*
X9639Y159891D01*
X9858Y160100D01*
Y155900D01*
D02*
G37*
G36*
X-43745Y152594D02*
X-43675Y151694D01*
X-43633Y151475D01*
X-43581Y151294D01*
X-43520Y151154D01*
X-43449Y151054D01*
X-43370Y150995D01*
X-43280Y150975D01*
X-46219D01*
X-46130Y150995D01*
X-46050Y151054D01*
X-45980Y151154D01*
X-45919Y151294D01*
X-45867Y151475D01*
X-45825Y151694D01*
X-45792Y151954D01*
X-45755Y152594D01*
X-45750Y152975D01*
X-43750D01*
X-43745Y152594D01*
D02*
G37*
G36*
X-58795Y152594D02*
X-58717Y151694D01*
X-58670Y151475D01*
X-58613Y151294D01*
X-58546Y151154D01*
X-58468Y151054D01*
X-58379Y150995D01*
X-58280Y150975D01*
X-61219D01*
X-61140Y150995D01*
X-61069Y151054D01*
X-61006Y151154D01*
X-60951Y151294D01*
X-60905Y151475D01*
X-60867Y151694D01*
X-60838Y151954D01*
X-60805Y152594D01*
X-60800Y152975D01*
X-58800D01*
X-58795Y152594D01*
D02*
G37*
G36*
X-63745D02*
X-63675Y151694D01*
X-63632Y151475D01*
X-63581Y151294D01*
X-63520Y151154D01*
X-63449Y151054D01*
X-63370Y150995D01*
X-63280Y150975D01*
X-66219D01*
X-66130Y150995D01*
X-66050Y151054D01*
X-65980Y151154D01*
X-65919Y151294D01*
X-65867Y151475D01*
X-65825Y151694D01*
X-65792Y151954D01*
X-65755Y152594D01*
X-65750Y152975D01*
X-63750D01*
X-63745Y152594D01*
D02*
G37*
G36*
X-48745Y152594D02*
X-48675Y151694D01*
X-48632Y151475D01*
X-48581Y151294D01*
X-48520Y151154D01*
X-48449Y151054D01*
X-48370Y150995D01*
X-48280Y150975D01*
X-51219D01*
X-51130Y150995D01*
X-51050Y151054D01*
X-50980Y151154D01*
X-50919Y151294D01*
X-50867Y151475D01*
X-50825Y151694D01*
X-50792Y151954D01*
X-50755Y152594D01*
X-50750Y152975D01*
X-48750D01*
X-48745Y152594D01*
D02*
G37*
G36*
X-53807D02*
X-53764Y151954D01*
X-53727Y151694D01*
X-53679Y151475D01*
X-53621Y151294D01*
X-53552Y151154D01*
X-53472Y151054D01*
X-53381Y150995D01*
X-53280Y150975D01*
X-56219D01*
X-56142Y150995D01*
X-56073Y151054D01*
X-56012Y151154D01*
X-55959Y151294D01*
X-55914Y151475D01*
X-55877Y151694D01*
X-55849Y151954D01*
X-55816Y152594D01*
X-55812Y152975D01*
X-53812D01*
X-53807Y152594D01*
D02*
G37*
G36*
X90707Y146100D02*
X90091Y145474D01*
X88355Y146491D01*
X89293Y147514D01*
X90707Y146100D01*
D02*
G37*
G36*
X72571Y139328D02*
X72378Y139424D01*
X72178Y139481D01*
X71971Y139501D01*
X71756Y139484D01*
X71534Y139429D01*
X71305Y139337D01*
X71069Y139207D01*
X70826Y139039D01*
X70575Y138834D01*
X70318Y138592D01*
X69342Y140444D01*
X69586Y140700D01*
X70001Y141200D01*
X70170Y141445D01*
X70315Y141687D01*
X70436Y141926D01*
X70531Y142161D01*
X70601Y142393D01*
X70647Y142621D01*
X70668Y142846D01*
X72571Y139328D01*
D02*
G37*
G36*
X70610Y133902D02*
X70861Y133697D01*
X71104Y133529D01*
X71341Y133398D01*
X71571Y133305D01*
X71794Y133249D01*
X72010Y133230D01*
X72219Y133249D01*
X72421Y133305D01*
X72616Y133398D01*
X70666Y129906D01*
X70648Y130132D01*
X70605Y130361D01*
X70537Y130594D01*
X70443Y130830D01*
X70325Y131069D01*
X70181Y131312D01*
X70012Y131557D01*
X69818Y131806D01*
X69599Y132058D01*
X69355Y132313D01*
X70352Y134144D01*
X70610Y133902D01*
D02*
G37*
G36*
X89110Y126481D02*
X88940Y126326D01*
X88790Y126146D01*
X88660Y125941D01*
X88550Y125712D01*
X88460Y125458D01*
X88390Y125179D01*
X88340Y124875D01*
X88310Y124547D01*
X88300Y124194D01*
X86300D01*
X86290Y124547D01*
X86260Y124875D01*
X86210Y125179D01*
X86140Y125458D01*
X86050Y125712D01*
X85940Y125941D01*
X85810Y126146D01*
X85660Y126326D01*
X85490Y126481D01*
X85300Y126611D01*
X89300D01*
X89110Y126481D01*
D02*
G37*
G36*
X16240Y126385D02*
X16300Y126306D01*
X16400Y126235D01*
X16540Y126174D01*
X16720Y126122D01*
X16940Y126080D01*
X17200Y126047D01*
X17840Y126010D01*
X18220Y126005D01*
Y124005D01*
X17840Y124000D01*
X16940Y123930D01*
X16720Y123888D01*
X16540Y123836D01*
X16400Y123775D01*
X16300Y123705D01*
X16240Y123625D01*
X16220Y123535D01*
Y126475D01*
X16240Y126385D01*
D02*
G37*
G36*
X28811Y123005D02*
X28791Y123195D01*
X28730Y123365D01*
X28628Y123515D01*
X28486Y123645D01*
X28303Y123755D01*
X28080Y123845D01*
X27816Y123915D01*
X27512Y123965D01*
X27166Y123995D01*
X26781Y124005D01*
Y126005D01*
X27166Y126015D01*
X27512Y126045D01*
X27816Y126095D01*
X28080Y126165D01*
X28303Y126255D01*
X28486Y126365D01*
X28628Y126495D01*
X28730Y126645D01*
X28791Y126815D01*
X28811Y127005D01*
Y123005D01*
D02*
G37*
G36*
X36740Y126810D02*
X36800Y126640D01*
X36900Y126490D01*
X37040Y126360D01*
X37220Y126250D01*
X37440Y126160D01*
X37700Y126090D01*
X38000Y126040D01*
X38340Y126010D01*
X38720Y126000D01*
Y124000D01*
X38340Y123990D01*
X38000Y123960D01*
X37700Y123910D01*
X37440Y123840D01*
X37220Y123750D01*
X37040Y123640D01*
X36900Y123510D01*
X36800Y123360D01*
X36740Y123190D01*
X36720Y123000D01*
Y127000D01*
X36740Y126810D01*
D02*
G37*
G36*
X42713Y122900D02*
X42494Y123109D01*
X42268Y123296D01*
X42036Y123461D01*
X41797Y123604D01*
X41552Y123725D01*
X41300Y123824D01*
X41042Y123901D01*
X40777Y123956D01*
X40505Y123989D01*
X40227Y124000D01*
Y126000D01*
X40505Y126011D01*
X40777Y126044D01*
X41042Y126099D01*
X41300Y126176D01*
X41552Y126275D01*
X41797Y126396D01*
X42036Y126539D01*
X42268Y126704D01*
X42494Y126891D01*
X42713Y127100D01*
Y122900D01*
D02*
G37*
G36*
X16240Y121385D02*
X16300Y121306D01*
X16400Y121235D01*
X16540Y121174D01*
X16720Y121122D01*
X16940Y121080D01*
X17200Y121047D01*
X17840Y121010D01*
X18220Y121005D01*
Y119005D01*
X17840Y119000D01*
X16940Y118930D01*
X16720Y118888D01*
X16540Y118836D01*
X16400Y118775D01*
X16300Y118705D01*
X16240Y118625D01*
X16220Y118535D01*
Y121475D01*
X16240Y121385D01*
D02*
G37*
G36*
X29193Y114990D02*
X29932Y114361D01*
X30259Y114132D01*
X30556Y113959D01*
X30824Y113843D01*
X31064Y113784D01*
X31274Y113780D01*
X31456Y113834D01*
X31609Y113944D01*
X28811Y111146D01*
X28921Y111299D01*
X28975Y111481D01*
X28972Y111691D01*
X28912Y111931D01*
X28796Y112199D01*
X28623Y112496D01*
X28394Y112823D01*
X28108Y113178D01*
X27366Y113975D01*
X28781Y115389D01*
X29193Y114990D01*
D02*
G37*
G36*
X36740Y111810D02*
X36800Y111640D01*
X36900Y111490D01*
X37040Y111360D01*
X37220Y111250D01*
X37440Y111160D01*
X37700Y111090D01*
X38000Y111040D01*
X38340Y111010D01*
X38720Y111000D01*
Y109000D01*
X38340Y108990D01*
X38000Y108960D01*
X37700Y108910D01*
X37440Y108840D01*
X37220Y108750D01*
X37040Y108640D01*
X36900Y108510D01*
X36800Y108360D01*
X36740Y108190D01*
X36720Y108000D01*
Y112000D01*
X36740Y111810D01*
D02*
G37*
G36*
X42713Y107900D02*
X42494Y108109D01*
X42268Y108296D01*
X42036Y108461D01*
X41797Y108604D01*
X41552Y108725D01*
X41300Y108824D01*
X41042Y108901D01*
X40777Y108956D01*
X40505Y108989D01*
X40227Y109000D01*
Y111000D01*
X40505Y111011D01*
X40777Y111044D01*
X41042Y111099D01*
X41300Y111176D01*
X41552Y111275D01*
X41797Y111396D01*
X42036Y111539D01*
X42268Y111704D01*
X42494Y111891D01*
X42713Y112100D01*
Y107900D01*
D02*
G37*
G36*
X-719Y88535D02*
X-739Y88625D01*
X-799Y88705D01*
X-899Y88775D01*
X-1039Y88836D01*
X-1219Y88888D01*
X-1439Y88930D01*
X-1699Y88963D01*
X-2339Y89000D01*
X-2719Y89005D01*
Y91005D01*
X-2339Y91010D01*
X-1439Y91080D01*
X-1219Y91122D01*
X-1039Y91174D01*
X-899Y91235D01*
X-799Y91306D01*
X-739Y91385D01*
X-719Y91475D01*
Y88535D01*
D02*
G37*
G36*
X-19496Y91912D02*
X-19276Y91721D01*
X-19048Y91553D01*
X-18813Y91408D01*
X-18570Y91285D01*
X-18320Y91184D01*
X-18063Y91106D01*
X-17799Y91050D01*
X-17527Y91016D01*
X-17248Y91005D01*
X-17297Y89005D01*
X-17575Y88994D01*
X-17846Y88962D01*
X-18112Y88908D01*
X-18371Y88832D01*
X-18625Y88735D01*
X-18873Y88616D01*
X-19116Y88476D01*
X-19352Y88314D01*
X-19583Y88131D01*
X-19807Y87926D01*
X-19709Y92124D01*
X-19496Y91912D01*
D02*
G37*
G36*
X65230Y85966D02*
X65263Y85695D01*
X65318Y85429D01*
X65395Y85171D01*
X65494Y84919D01*
X65615Y84674D01*
X65758Y84435D01*
X65923Y84203D01*
X66110Y83977D01*
X66319Y83758D01*
X62119D01*
X62328Y83977D01*
X62515Y84203D01*
X62680Y84435D01*
X62823Y84674D01*
X62944Y84919D01*
X63043Y85171D01*
X63120Y85429D01*
X63175Y85695D01*
X63208Y85966D01*
X63219Y86244D01*
X65219D01*
X65230Y85966D01*
D02*
G37*
G36*
X16240Y86385D02*
X16300Y86305D01*
X16400Y86235D01*
X16540Y86174D01*
X16720Y86122D01*
X16940Y86080D01*
X17200Y86047D01*
X17840Y86010D01*
X18220Y86005D01*
Y84005D01*
X17840Y84000D01*
X16940Y83930D01*
X16720Y83888D01*
X16540Y83836D01*
X16400Y83775D01*
X16300Y83705D01*
X16240Y83625D01*
X16220Y83535D01*
Y86475D01*
X16240Y86385D01*
D02*
G37*
G36*
X95797Y84696D02*
X95834Y84424D01*
X95896Y84167D01*
X95983Y83923D01*
X96094Y83694D01*
X96231Y83479D01*
X96392Y83278D01*
X96578Y83091D01*
X96788Y82918D01*
X97024Y82760D01*
X92931Y81816D01*
X93093Y82083D01*
X93366Y82617D01*
X93477Y82885D01*
X93571Y83152D01*
X93648Y83419D01*
X93708Y83687D01*
X93750Y83954D01*
X93776Y84222D01*
X93785Y84489D01*
X95785Y84982D01*
X95797Y84696D01*
D02*
G37*
G36*
X16240Y81385D02*
X16300Y81305D01*
X16400Y81235D01*
X16540Y81174D01*
X16720Y81122D01*
X16940Y81080D01*
X17200Y81047D01*
X17840Y81010D01*
X18220Y81005D01*
Y79005D01*
X17840Y79000D01*
X16940Y78930D01*
X16720Y78888D01*
X16540Y78836D01*
X16400Y78775D01*
X16300Y78704D01*
X16240Y78625D01*
X16220Y78535D01*
Y81474D01*
X16240Y81385D01*
D02*
G37*
G36*
Y76385D02*
X16300Y76305D01*
X16400Y76235D01*
X16540Y76174D01*
X16720Y76122D01*
X16940Y76080D01*
X17200Y76047D01*
X17840Y76010D01*
X18220Y76005D01*
Y74005D01*
X17840Y74000D01*
X16940Y73930D01*
X16720Y73888D01*
X16540Y73836D01*
X16400Y73775D01*
X16300Y73705D01*
X16240Y73625D01*
X16220Y73535D01*
Y76474D01*
X16240Y76385D01*
D02*
G37*
G36*
X31307Y69643D02*
X31189Y69722D01*
X31001Y69792D01*
X30744Y69854D01*
X30417Y69908D01*
X29553Y69991D01*
X27734Y70054D01*
X26988Y70058D01*
Y72058D01*
X27734Y72062D01*
X30744Y72261D01*
X31001Y72324D01*
X31189Y72394D01*
X31307Y72473D01*
Y69643D01*
D02*
G37*
G36*
X-719Y68535D02*
X-739Y68625D01*
X-799Y68705D01*
X-899Y68775D01*
X-1039Y68836D01*
X-1219Y68888D01*
X-1439Y68930D01*
X-1699Y68963D01*
X-2339Y69000D01*
X-2719Y69005D01*
Y71005D01*
X-2339Y71010D01*
X-1439Y71080D01*
X-1219Y71122D01*
X-1039Y71174D01*
X-899Y71235D01*
X-799Y71305D01*
X-739Y71385D01*
X-719Y71474D01*
Y68535D01*
D02*
G37*
G36*
X-17496Y71912D02*
X-17276Y71721D01*
X-17048Y71554D01*
X-16813Y71408D01*
X-16570Y71285D01*
X-16320Y71184D01*
X-16063Y71106D01*
X-15799Y71050D01*
X-15527Y71016D01*
X-15248Y71005D01*
X-15297Y69005D01*
X-15575Y68994D01*
X-15846Y68962D01*
X-16112Y68908D01*
X-16372Y68832D01*
X-16625Y68735D01*
X-16874Y68616D01*
X-17116Y68476D01*
X-17352Y68314D01*
X-17582Y68131D01*
X-17807Y67926D01*
X-17709Y72124D01*
X-17496Y71912D01*
D02*
G37*
G36*
X79714Y-137902D02*
X79906Y-138802D01*
X80226Y-139744D01*
X80674Y-140728D01*
X81250Y-141753D01*
X81954Y-142820D01*
X82786Y-143929D01*
X84834Y-146271D01*
X86050Y-147505D01*
X69250D01*
X70466Y-146271D01*
X72514Y-143929D01*
X73346Y-142820D01*
X74050Y-141753D01*
X74626Y-140728D01*
X75074Y-139744D01*
X75394Y-138802D01*
X75586Y-137902D01*
X75650Y-137043D01*
X79650D01*
X79714Y-137902D01*
D02*
G37*
G36*
X-107478Y-144031D02*
X-108040Y-144684D01*
X-108541Y-145456D01*
X-108981Y-146349D01*
X-109359Y-147361D01*
X-109677Y-148493D01*
X-109934Y-149746D01*
X-110130Y-151118D01*
X-110338Y-154223D01*
X-110351Y-155955D01*
X-122230Y-144076D01*
X-120498Y-144063D01*
X-117393Y-143855D01*
X-116021Y-143659D01*
X-114768Y-143402D01*
X-113636Y-143084D01*
X-112624Y-142706D01*
X-111731Y-142266D01*
X-110959Y-141765D01*
X-110306Y-141203D01*
X-107478Y-144031D01*
D02*
G37*
G36*
X52060Y199291D02*
X51890Y199230D01*
X51740Y199128D01*
X51610Y198986D01*
X51500Y198803D01*
X51410Y198580D01*
X51340Y198316D01*
X51290Y198011D01*
X51260Y197666D01*
X51250Y197281D01*
X49250D01*
X49240Y197666D01*
X49210Y198011D01*
X49160Y198316D01*
X49090Y198580D01*
X49000Y198803D01*
X48890Y198986D01*
X48760Y199128D01*
X48610Y199230D01*
X48440Y199291D01*
X48250Y199311D01*
X52250D01*
X52060Y199291D01*
D02*
G37*
G36*
X51250Y168527D02*
X51260Y168252D01*
X51291Y167982D01*
X51342Y167715D01*
X51413Y167452D01*
X51505Y167194D01*
X51618Y166939D01*
X51750Y166688D01*
X51904Y166441D01*
X52077Y166199D01*
X52271Y165960D01*
X48086Y166310D01*
X48307Y166507D01*
X48505Y166714D01*
X48679Y166931D01*
X48831Y167156D01*
X48959Y167391D01*
X49064Y167635D01*
X49145Y167889D01*
X49203Y168151D01*
X49238Y168423D01*
X49250Y168705D01*
X51250Y168527D01*
D02*
G37*
G36*
X-108009Y153714D02*
X-108196Y153488D01*
X-108361Y153256D01*
X-108504Y153017D01*
X-108625Y152772D01*
X-108724Y152520D01*
X-108801Y152261D01*
X-108856Y151996D01*
X-108889Y151725D01*
X-108900Y151447D01*
X-110900D01*
X-110911Y151725D01*
X-110944Y151996D01*
X-110999Y152261D01*
X-111076Y152520D01*
X-111175Y152772D01*
X-111296Y153017D01*
X-111439Y153256D01*
X-111604Y153488D01*
X-111791Y153714D01*
X-112000Y153933D01*
X-107800D01*
X-108009Y153714D01*
D02*
G37*
G36*
X-108890Y150159D02*
X-108860Y149813D01*
X-108810Y149509D01*
X-108740Y149245D01*
X-108650Y149022D01*
X-108540Y148839D01*
X-108410Y148697D01*
X-108260Y148595D01*
X-108090Y148534D01*
X-107900Y148514D01*
X-111900D01*
X-111710Y148534D01*
X-111540Y148595D01*
X-111390Y148697D01*
X-111260Y148839D01*
X-111150Y149022D01*
X-111060Y149245D01*
X-110990Y149509D01*
X-110940Y149813D01*
X-110910Y150159D01*
X-110900Y150545D01*
X-108900D01*
X-108890Y150159D01*
D02*
G37*
G36*
X-134009Y153714D02*
X-134196Y153488D01*
X-134361Y153256D01*
X-134504Y153017D01*
X-134625Y152772D01*
X-134724Y152520D01*
X-134801Y152261D01*
X-134856Y151996D01*
X-134889Y151725D01*
X-134900Y151447D01*
X-136900D01*
X-136911Y151725D01*
X-136944Y151996D01*
X-136999Y152261D01*
X-137076Y152520D01*
X-137175Y152772D01*
X-137296Y153017D01*
X-137439Y153256D01*
X-137604Y153488D01*
X-137791Y153714D01*
X-138000Y153933D01*
X-133800D01*
X-134009Y153714D01*
D02*
G37*
G36*
X-134890Y150159D02*
X-134860Y149813D01*
X-134810Y149509D01*
X-134740Y149245D01*
X-134650Y149022D01*
X-134540Y148839D01*
X-134410Y148697D01*
X-134260Y148595D01*
X-134090Y148534D01*
X-133900Y148514D01*
X-137900D01*
X-137710Y148534D01*
X-137540Y148595D01*
X-137390Y148697D01*
X-137260Y148839D01*
X-137150Y149022D01*
X-137060Y149245D01*
X-136990Y149509D01*
X-136940Y149813D01*
X-136910Y150159D01*
X-136900Y150544D01*
X-134900D01*
X-134890Y150159D01*
D02*
G37*
G36*
X103519Y131810D02*
X103674Y131640D01*
X103854Y131490D01*
X104059Y131360D01*
X104288Y131250D01*
X104542Y131160D01*
X104821Y131090D01*
X105125Y131040D01*
X105453Y131010D01*
X105806Y131000D01*
Y129000D01*
X105453Y128990D01*
X105125Y128960D01*
X104821Y128910D01*
X104542Y128840D01*
X104288Y128750D01*
X104059Y128640D01*
X103854Y128510D01*
X103674Y128360D01*
X103519Y128190D01*
X103389Y128000D01*
Y132000D01*
X103519Y131810D01*
D02*
G37*
G36*
X123596Y124992D02*
X123377Y125200D01*
X123151Y125387D01*
X122918Y125552D01*
X122679Y125695D01*
X122434Y125816D01*
X122182Y125915D01*
X121923Y125991D01*
X121658Y126046D01*
X121387Y126079D01*
X121108Y126090D01*
X121106Y128090D01*
X121384Y128101D01*
X121656Y128134D01*
X121921Y128189D01*
X122179Y128267D01*
X122431Y128366D01*
X122676Y128487D01*
X122915Y128630D01*
X123146Y128795D01*
X123372Y128982D01*
X123590Y129192D01*
X123596Y124992D01*
D02*
G37*
G36*
X-137039Y87925D02*
X-137059Y88115D01*
X-137120Y88285D01*
X-137222Y88435D01*
X-137364Y88565D01*
X-137547Y88675D01*
X-137770Y88765D01*
X-138034Y88835D01*
X-138338Y88885D01*
X-138684Y88915D01*
X-139069Y88925D01*
Y90925D01*
X-138684Y90935D01*
X-138338Y90965D01*
X-138034Y91015D01*
X-137770Y91085D01*
X-137547Y91175D01*
X-137364Y91285D01*
X-137222Y91415D01*
X-137120Y91565D01*
X-137059Y91735D01*
X-137039Y91925D01*
Y87925D01*
D02*
G37*
G36*
X-147989Y91816D02*
X-147763Y91629D01*
X-147531Y91464D01*
X-147292Y91321D01*
X-147047Y91200D01*
X-146795Y91101D01*
X-146537Y91024D01*
X-146271Y90969D01*
X-146000Y90936D01*
X-145722Y90925D01*
Y88925D01*
X-146000Y88914D01*
X-146271Y88881D01*
X-146537Y88826D01*
X-146795Y88749D01*
X-147047Y88650D01*
X-147292Y88529D01*
X-147531Y88386D01*
X-147763Y88221D01*
X-147989Y88034D01*
X-148208Y87825D01*
Y92025D01*
X-147989Y91816D01*
D02*
G37*
G36*
X-32749Y111808D02*
X-32936Y111582D01*
X-33101Y111350D01*
X-33244Y111111D01*
X-33365Y110866D01*
X-33464Y110614D01*
X-33541Y110356D01*
X-33596Y110091D01*
X-33629Y109819D01*
X-33640Y109541D01*
X-35640D01*
X-35651Y109819D01*
X-35684Y110091D01*
X-35739Y110356D01*
X-35816Y110614D01*
X-35915Y110866D01*
X-36036Y111111D01*
X-36179Y111350D01*
X-36344Y111582D01*
X-36531Y111808D01*
X-36740Y112027D01*
X-32540D01*
X-32749Y111808D01*
D02*
G37*
G36*
X-33636Y62594D02*
X-33550Y61474D01*
X-33510Y61294D01*
X-33464Y61154D01*
X-33410Y61055D01*
X-33349Y60995D01*
X-33280Y60974D01*
X-36219D01*
X-36109Y60995D01*
X-36011Y61055D01*
X-35924Y61154D01*
X-35849Y61294D01*
X-35785Y61474D01*
X-35733Y61694D01*
X-35692Y61954D01*
X-35663Y62255D01*
X-35640Y62975D01*
X-33640D01*
X-33636Y62594D01*
D02*
G37*
G36*
X-63403Y44335D02*
X-63476Y44173D01*
X-63540Y43989D01*
X-63596Y43783D01*
X-63643Y43553D01*
X-63711Y43028D01*
X-63733Y42731D01*
X-63750Y42071D01*
X-65750D01*
X-65754Y42413D01*
X-65818Y43302D01*
X-65857Y43553D01*
X-65960Y43989D01*
X-66024Y44173D01*
X-66096Y44335D01*
X-66178Y44474D01*
X-63322D01*
X-63403Y44335D01*
D02*
G37*
G36*
X-8370Y44015D02*
X-8449Y43955D01*
X-8520Y43856D01*
X-8581Y43716D01*
X-8633Y43535D01*
X-8675Y43316D01*
X-8708Y43056D01*
X-8745Y42415D01*
X-8750Y42035D01*
X-10750D01*
X-10755Y42415D01*
X-10825Y43316D01*
X-10867Y43535D01*
X-10919Y43716D01*
X-10980Y43856D01*
X-11050Y43955D01*
X-11130Y44015D01*
X-11219Y44036D01*
X-8280D01*
X-8370Y44015D01*
D02*
G37*
G36*
X-13369Y44015D02*
X-13449Y43955D01*
X-13520Y43856D01*
X-13581Y43716D01*
X-13632Y43535D01*
X-13675Y43316D01*
X-13707Y43056D01*
X-13745Y42415D01*
X-13750Y42035D01*
X-15750D01*
X-15754Y42415D01*
X-15825Y43316D01*
X-15867Y43535D01*
X-15919Y43716D01*
X-15980Y43856D01*
X-16050Y43955D01*
X-16130Y44015D01*
X-16219Y44036D01*
X-13280D01*
X-13369Y44015D01*
D02*
G37*
G36*
X-18369D02*
X-18449Y43955D01*
X-18520Y43856D01*
X-18581Y43716D01*
X-18632Y43535D01*
X-18675Y43316D01*
X-18707Y43056D01*
X-18745Y42415D01*
X-18750Y42035D01*
X-20750D01*
X-20754Y42415D01*
X-20825Y43316D01*
X-20867Y43535D01*
X-20919Y43716D01*
X-20980Y43856D01*
X-21050Y43955D01*
X-21130Y44015D01*
X-21219Y44036D01*
X-18280D01*
X-18369Y44015D01*
D02*
G37*
G36*
X-23370D02*
X-23449Y43955D01*
X-23520Y43856D01*
X-23581Y43716D01*
X-23633Y43535D01*
X-23675Y43316D01*
X-23708Y43056D01*
X-23745Y42415D01*
X-23750Y42035D01*
X-25750D01*
X-25755Y42415D01*
X-25825Y43316D01*
X-25867Y43535D01*
X-25919Y43716D01*
X-25980Y43856D01*
X-26050Y43955D01*
X-26130Y44015D01*
X-26219Y44036D01*
X-23280D01*
X-23370Y44015D01*
D02*
G37*
G36*
X-28370D02*
X-28449Y43955D01*
X-28520Y43856D01*
X-28581Y43716D01*
X-28633Y43535D01*
X-28675Y43316D01*
X-28708Y43056D01*
X-28745Y42415D01*
X-28750Y42035D01*
X-30750D01*
X-30754Y42415D01*
X-30825Y43316D01*
X-30867Y43535D01*
X-30919Y43716D01*
X-30980Y43856D01*
X-31050Y43955D01*
X-31130Y44015D01*
X-31219Y44036D01*
X-28280D01*
X-28370Y44015D01*
D02*
G37*
G36*
X-38370D02*
X-38449Y43955D01*
X-38520Y43856D01*
X-38581Y43716D01*
X-38633Y43535D01*
X-38675Y43316D01*
X-38708Y43056D01*
X-38745Y42415D01*
X-38750Y42035D01*
X-40750D01*
X-40754Y42415D01*
X-40825Y43316D01*
X-40867Y43535D01*
X-40919Y43716D01*
X-40980Y43856D01*
X-41050Y43955D01*
X-41130Y44015D01*
X-41219Y44036D01*
X-38280D01*
X-38370Y44015D01*
D02*
G37*
G36*
X-43370D02*
X-43449Y43955D01*
X-43520Y43856D01*
X-43581Y43716D01*
X-43632Y43535D01*
X-43675Y43316D01*
X-43708Y43056D01*
X-43745Y42415D01*
X-43750Y42035D01*
X-45750D01*
X-45755Y42415D01*
X-45825Y43316D01*
X-45867Y43535D01*
X-45919Y43716D01*
X-45980Y43856D01*
X-46050Y43955D01*
X-46130Y44015D01*
X-46219Y44036D01*
X-43280D01*
X-43370Y44015D01*
D02*
G37*
G36*
X-88041Y32527D02*
X-87980Y32357D01*
X-87878Y32207D01*
X-87736Y32077D01*
X-87553Y31967D01*
X-87330Y31877D01*
X-87066Y31807D01*
X-86761Y31757D01*
X-86416Y31727D01*
X-86031Y31717D01*
Y29717D01*
X-86416Y29707D01*
X-86761Y29677D01*
X-87066Y29627D01*
X-87330Y29557D01*
X-87553Y29467D01*
X-87736Y29357D01*
X-87878Y29227D01*
X-87980Y29077D01*
X-88041Y28907D01*
X-88061Y28717D01*
Y32717D01*
X-88041Y32527D01*
D02*
G37*
G36*
X-95969Y28500D02*
X-95990Y28690D01*
X-96049Y28860D01*
X-96150Y29010D01*
X-96290Y29140D01*
X-96469Y29250D01*
X-96690Y29340D01*
X-96950Y29410D01*
X-97249Y29460D01*
X-97590Y29490D01*
X-97970Y29500D01*
Y31500D01*
X-97590Y31510D01*
X-97249Y31540D01*
X-96950Y31590D01*
X-96690Y31660D01*
X-96469Y31750D01*
X-96290Y31860D01*
X-96150Y31990D01*
X-96049Y32140D01*
X-95990Y32310D01*
X-95969Y32500D01*
Y28500D01*
D02*
G37*
G36*
X-101291Y32391D02*
X-101065Y32204D01*
X-100833Y32039D01*
X-100594Y31896D01*
X-100349Y31775D01*
X-100097Y31676D01*
X-99838Y31599D01*
X-99573Y31544D01*
X-99302Y31511D01*
X-99024Y31500D01*
Y29500D01*
X-99302Y29489D01*
X-99573Y29456D01*
X-99838Y29401D01*
X-100097Y29324D01*
X-100349Y29225D01*
X-100594Y29104D01*
X-100833Y28961D01*
X-101065Y28796D01*
X-101291Y28609D01*
X-101510Y28400D01*
Y32600D01*
X-101291Y32391D01*
D02*
G37*
G36*
X5958Y27975D02*
X5739Y28184D01*
X5513Y28371D01*
X5281Y28536D01*
X5042Y28679D01*
X4797Y28800D01*
X4545Y28899D01*
X4287Y28976D01*
X4022Y29031D01*
X3750Y29064D01*
X3472Y29075D01*
Y31075D01*
X3750Y31086D01*
X4022Y31119D01*
X4287Y31174D01*
X4545Y31251D01*
X4797Y31350D01*
X5042Y31471D01*
X5281Y31614D01*
X5513Y31779D01*
X5739Y31966D01*
X5958Y32175D01*
Y27975D01*
D02*
G37*
G36*
X-84990Y20084D02*
X-84960Y19739D01*
X-84910Y19434D01*
X-84840Y19170D01*
X-84750Y18947D01*
X-84640Y18764D01*
X-84510Y18622D01*
X-84360Y18520D01*
X-84190Y18459D01*
X-84000Y18439D01*
X-88000D01*
X-87810Y18459D01*
X-87640Y18520D01*
X-87490Y18622D01*
X-87360Y18764D01*
X-87250Y18947D01*
X-87160Y19170D01*
X-87090Y19434D01*
X-87040Y19739D01*
X-87010Y20084D01*
X-87000Y20470D01*
X-85000D01*
X-84990Y20084D01*
D02*
G37*
G36*
X-14662Y19089D02*
X-14633Y18743D01*
X-14583Y18439D01*
X-14512Y18175D01*
X-14423Y17952D01*
X-14312Y17769D01*
X-14182Y17627D01*
X-14032Y17525D01*
X-13863Y17464D01*
X-13672Y17444D01*
X-17672D01*
X-17483Y17464D01*
X-17313Y17525D01*
X-17162Y17627D01*
X-17033Y17769D01*
X-16923Y17952D01*
X-16832Y18175D01*
X-16762Y18439D01*
X-16712Y18743D01*
X-16682Y19089D01*
X-16673Y19474D01*
X-14672D01*
X-14662Y19089D01*
D02*
G37*
G36*
X-28747D02*
X-28717Y18743D01*
X-28667Y18439D01*
X-28597Y18175D01*
X-28507Y17952D01*
X-28397Y17769D01*
X-28267Y17627D01*
X-28117Y17525D01*
X-27947Y17464D01*
X-27757Y17444D01*
X-31757D01*
X-31567Y17464D01*
X-31397Y17525D01*
X-31247Y17627D01*
X-31117Y17769D01*
X-31007Y17952D01*
X-30917Y18175D01*
X-30847Y18439D01*
X-30797Y18743D01*
X-30767Y19089D01*
X-30757Y19474D01*
X-28757D01*
X-28747Y19089D01*
D02*
G37*
G36*
X-44990Y18084D02*
X-44960Y17738D01*
X-44910Y17434D01*
X-44840Y17170D01*
X-44750Y16947D01*
X-44640Y16764D01*
X-44510Y16622D01*
X-44360Y16520D01*
X-44190Y16459D01*
X-44000Y16439D01*
X-48000D01*
X-47810Y16459D01*
X-47640Y16520D01*
X-47490Y16622D01*
X-47360Y16764D01*
X-47250Y16947D01*
X-47160Y17170D01*
X-47090Y17434D01*
X-47040Y17738D01*
X-47010Y18084D01*
X-47000Y18470D01*
X-45000D01*
X-44990Y18084D01*
D02*
G37*
G36*
X-68510Y14567D02*
X-68450Y14397D01*
X-68351Y14247D01*
X-68211Y14117D01*
X-68031Y14007D01*
X-67811Y13917D01*
X-67551Y13847D01*
X-67250Y13797D01*
X-66911Y13767D01*
X-66530Y13757D01*
Y11757D01*
X-66911Y11747D01*
X-67250Y11717D01*
X-67551Y11667D01*
X-67811Y11597D01*
X-68031Y11507D01*
X-68211Y11397D01*
X-68351Y11267D01*
X-68450Y11117D01*
X-68510Y10947D01*
X-68531Y10757D01*
Y14757D01*
X-68510Y14567D01*
D02*
G37*
G36*
X-63185Y10657D02*
X-63404Y10866D01*
X-63630Y11053D01*
X-63862Y11218D01*
X-64100Y11361D01*
X-64346Y11482D01*
X-64598Y11581D01*
X-64856Y11658D01*
X-65121Y11713D01*
X-65393Y11746D01*
X-65671Y11757D01*
Y13757D01*
X-65393Y13768D01*
X-65121Y13801D01*
X-64856Y13856D01*
X-64598Y13933D01*
X-64346Y14032D01*
X-64100Y14153D01*
X-63862Y14296D01*
X-63630Y14461D01*
X-63404Y14648D01*
X-63185Y14857D01*
Y10657D01*
D02*
G37*
G36*
X-91439Y10000D02*
X-91459Y10190D01*
X-91520Y10360D01*
X-91622Y10510D01*
X-91764Y10640D01*
X-91947Y10750D01*
X-92170Y10840D01*
X-92434Y10910D01*
X-92739Y10960D01*
X-93084Y10990D01*
X-93469Y11000D01*
Y13000D01*
X-93084Y13010D01*
X-92739Y13040D01*
X-92434Y13090D01*
X-92170Y13160D01*
X-91947Y13250D01*
X-91764Y13360D01*
X-91622Y13490D01*
X-91520Y13640D01*
X-91459Y13810D01*
X-91439Y14000D01*
Y10000D01*
D02*
G37*
G36*
X-100541Y13810D02*
X-100480Y13640D01*
X-100378Y13490D01*
X-100236Y13360D01*
X-100053Y13250D01*
X-99830Y13160D01*
X-99566Y13090D01*
X-99261Y13040D01*
X-98916Y13010D01*
X-98531Y13000D01*
Y11000D01*
X-98916Y10990D01*
X-99261Y10960D01*
X-99566Y10910D01*
X-99830Y10840D01*
X-100053Y10750D01*
X-100236Y10640D01*
X-100378Y10510D01*
X-100480Y10360D01*
X-100541Y10190D01*
X-100561Y10000D01*
Y14000D01*
X-100541Y13810D01*
D02*
G37*
G36*
X-13940Y9515D02*
X-14110Y9455D01*
X-14260Y9355D01*
X-14390Y9215D01*
X-14500Y9035D01*
X-14590Y8815D01*
X-14660Y8555D01*
X-14710Y8255D01*
X-14740Y7915D01*
X-14750Y7535D01*
X-16750D01*
X-16760Y7915D01*
X-16790Y8255D01*
X-16840Y8555D01*
X-16910Y8815D01*
X-17000Y9035D01*
X-17110Y9215D01*
X-17240Y9355D01*
X-17390Y9455D01*
X-17560Y9515D01*
X-17750Y9535D01*
X-13750D01*
X-13940Y9515D01*
D02*
G37*
G36*
X-28940D02*
X-29110Y9455D01*
X-29260Y9355D01*
X-29390Y9215D01*
X-29500Y9035D01*
X-29590Y8815D01*
X-29660Y8555D01*
X-29710Y8255D01*
X-29740Y7915D01*
X-29750Y7535D01*
X-31750D01*
X-31760Y7915D01*
X-31790Y8255D01*
X-31840Y8555D01*
X-31910Y8815D01*
X-32000Y9035D01*
X-32110Y9215D01*
X-32240Y9355D01*
X-32390Y9455D01*
X-32560Y9515D01*
X-32750Y9535D01*
X-28750D01*
X-28940Y9515D01*
D02*
G37*
G36*
X-14740Y-911D02*
X-14710Y-1257D01*
X-14660Y-1561D01*
X-14590Y-1825D01*
X-14500Y-2048D01*
X-14390Y-2231D01*
X-14260Y-2373D01*
X-14110Y-2475D01*
X-13940Y-2536D01*
X-13750Y-2556D01*
X-17750D01*
X-17560Y-2536D01*
X-17390Y-2475D01*
X-17240Y-2373D01*
X-17110Y-2231D01*
X-17000Y-2048D01*
X-16910Y-1825D01*
X-16840Y-1561D01*
X-16790Y-1257D01*
X-16760Y-911D01*
X-16750Y-525D01*
X-14750D01*
X-14740Y-911D01*
D02*
G37*
G36*
X-29740Y-911D02*
X-29710Y-1257D01*
X-29660Y-1561D01*
X-29590Y-1825D01*
X-29500Y-2048D01*
X-29390Y-2231D01*
X-29260Y-2373D01*
X-29110Y-2475D01*
X-28940Y-2536D01*
X-28750Y-2556D01*
X-32750D01*
X-32560Y-2536D01*
X-32390Y-2475D01*
X-32240Y-2373D01*
X-32110Y-2231D01*
X-32000Y-2048D01*
X-31910Y-1825D01*
X-31840Y-1561D01*
X-31790Y-1257D01*
X-31760Y-911D01*
X-31750Y-526D01*
X-29750D01*
X-29740Y-911D01*
D02*
G37*
G36*
X-13940Y-10484D02*
X-14110Y-10545D01*
X-14260Y-10645D01*
X-14390Y-10784D01*
X-14500Y-10964D01*
X-14590Y-11185D01*
X-14660Y-11445D01*
X-14710Y-11745D01*
X-14740Y-12084D01*
X-14750Y-12464D01*
X-16750D01*
X-16760Y-12084D01*
X-16790Y-11745D01*
X-16840Y-11445D01*
X-16910Y-11185D01*
X-17000Y-10964D01*
X-17110Y-10784D01*
X-17240Y-10645D01*
X-17390Y-10545D01*
X-17560Y-10484D01*
X-17750Y-10465D01*
X-13750D01*
X-13940Y-10484D01*
D02*
G37*
G36*
X-28903Y-10485D02*
X-29073Y-10545D01*
X-29223Y-10645D01*
X-29353Y-10785D01*
X-29463Y-10965D01*
X-29553Y-11185D01*
X-29623Y-11445D01*
X-29673Y-11745D01*
X-29703Y-12085D01*
X-29713Y-12465D01*
X-31713D01*
X-31723Y-12085D01*
X-31753Y-11745D01*
X-31803Y-11445D01*
X-31873Y-11185D01*
X-31963Y-10965D01*
X-32073Y-10785D01*
X-32203Y-10645D01*
X-32353Y-10545D01*
X-32523Y-10485D01*
X-32713Y-10465D01*
X-28713D01*
X-28903Y-10485D01*
D02*
G37*
G36*
X-14739Y-17425D02*
X-14706Y-17696D01*
X-14651Y-17962D01*
X-14574Y-18220D01*
X-14475Y-18472D01*
X-14354Y-18717D01*
X-14211Y-18956D01*
X-14046Y-19188D01*
X-13859Y-19414D01*
X-13650Y-19633D01*
X-17850D01*
X-17641Y-19414D01*
X-17454Y-19188D01*
X-17289Y-18956D01*
X-17146Y-18717D01*
X-17025Y-18472D01*
X-16926Y-18220D01*
X-16849Y-17962D01*
X-16794Y-17696D01*
X-16761Y-17425D01*
X-16750Y-17147D01*
X-14750D01*
X-14739Y-17425D01*
D02*
G37*
G36*
X-29702Y-17722D02*
X-29669Y-17993D01*
X-29614Y-18258D01*
X-29537Y-18517D01*
X-29438Y-18769D01*
X-29317Y-19014D01*
X-29174Y-19253D01*
X-29009Y-19485D01*
X-28822Y-19710D01*
X-28613Y-19929D01*
X-32813D01*
X-32604Y-19710D01*
X-32417Y-19485D01*
X-32252Y-19253D01*
X-32109Y-19014D01*
X-31988Y-18769D01*
X-31889Y-18517D01*
X-31812Y-18258D01*
X-31757Y-17993D01*
X-31724Y-17722D01*
X-31713Y-17443D01*
X-29713D01*
X-29702Y-17722D01*
D02*
G37*
G36*
X707Y-62324D02*
X477Y-62571D01*
X287Y-62811D01*
X136Y-63045D01*
X23Y-63274D01*
X-50Y-63497D01*
X-84Y-63714D01*
X-79Y-63925D01*
X-35Y-64130D01*
X49Y-64329D01*
X171Y-64523D01*
X-3104Y-61693D01*
X-2891Y-61787D01*
X-2673Y-61843D01*
X-2448Y-61860D01*
X-2217Y-61839D01*
X-1981Y-61780D01*
X-1738Y-61683D01*
X-1489Y-61547D01*
X-1235Y-61373D01*
X-974Y-61161D01*
X-707Y-60910D01*
X707Y-62324D01*
D02*
G37*
G36*
X-32200Y-55998D02*
X-32048Y-56689D01*
X-31796Y-57388D01*
X-31443Y-58096D01*
X-30990Y-58813D01*
X-30435Y-59538D01*
X-29780Y-60272D01*
X-29023Y-61015D01*
X-28166Y-61766D01*
X-27208Y-62526D01*
X-39292D01*
X-38334Y-61766D01*
X-36720Y-60272D01*
X-36065Y-59538D01*
X-35510Y-58813D01*
X-35057Y-58096D01*
X-34704Y-57388D01*
X-34452Y-56689D01*
X-34300Y-55998D01*
X-34250Y-55317D01*
X-32250D01*
X-32200Y-55998D01*
D02*
G37*
G36*
X-95969Y43500D02*
X-95990Y43690D01*
X-96049Y43860D01*
X-96150Y44010D01*
X-96290Y44140D01*
X-96469Y44250D01*
X-96690Y44340D01*
X-96950Y44410D01*
X-97249Y44460D01*
X-97590Y44490D01*
X-97970Y44500D01*
Y46500D01*
X-97590Y46510D01*
X-97249Y46540D01*
X-96950Y46590D01*
X-96690Y46660D01*
X-96469Y46750D01*
X-96290Y46860D01*
X-96150Y46990D01*
X-96049Y47140D01*
X-95990Y47310D01*
X-95969Y47500D01*
Y43500D01*
D02*
G37*
G36*
X-101698Y47391D02*
X-101473Y47204D01*
X-101241Y47039D01*
X-101002Y46896D01*
X-100757Y46775D01*
X-100505Y46676D01*
X-100246Y46599D01*
X-99981Y46544D01*
X-99710Y46511D01*
X-99431Y46500D01*
Y44500D01*
X-99710Y44489D01*
X-99981Y44456D01*
X-100246Y44401D01*
X-100505Y44324D01*
X-100757Y44225D01*
X-101002Y44104D01*
X-101241Y43961D01*
X-101473Y43796D01*
X-101698Y43609D01*
X-101917Y43400D01*
Y47600D01*
X-101698Y47391D01*
D02*
G37*
G36*
X199186Y35149D02*
X198620Y35496D01*
X198014Y35806D01*
X197368Y36080D01*
X196682Y36318D01*
X195956Y36518D01*
X195191Y36683D01*
X194386Y36811D01*
X192656Y36957D01*
X191732Y36975D01*
Y42975D01*
X192656Y42993D01*
X194386Y43139D01*
X195191Y43267D01*
X195956Y43432D01*
X196682Y43632D01*
X197368Y43870D01*
X198014Y44144D01*
X198620Y44454D01*
X199186Y44801D01*
Y35149D01*
D02*
G37*
G36*
X-198620Y44454D02*
X-198014Y44144D01*
X-197368Y43870D01*
X-196682Y43632D01*
X-195956Y43432D01*
X-195191Y43267D01*
X-194386Y43139D01*
X-192656Y42993D01*
X-191732Y42975D01*
Y36975D01*
X-192656Y36957D01*
X-194386Y36811D01*
X-195191Y36683D01*
X-195956Y36518D01*
X-196682Y36318D01*
X-197368Y36080D01*
X-198014Y35806D01*
X-198620Y35496D01*
X-199186Y35149D01*
Y44801D01*
X-198620Y44454D01*
D02*
G37*
G36*
X-127639Y13891D02*
X-127413Y13704D01*
X-127181Y13539D01*
X-126942Y13396D01*
X-126697Y13275D01*
X-126445Y13176D01*
X-126187Y13099D01*
X-125921Y13044D01*
X-125650Y13011D01*
X-125410Y13002D01*
X-125084Y13010D01*
X-124739Y13040D01*
X-124434Y13090D01*
X-124170Y13160D01*
X-123947Y13250D01*
X-123764Y13360D01*
X-123622Y13490D01*
X-123520Y13640D01*
X-123459Y13810D01*
X-123439Y14000D01*
Y10000D01*
X-123459Y10190D01*
X-123520Y10360D01*
X-123622Y10510D01*
X-123764Y10640D01*
X-123947Y10750D01*
X-124170Y10840D01*
X-124434Y10910D01*
X-124739Y10960D01*
X-125084Y10990D01*
X-125410Y10999D01*
X-125650Y10989D01*
X-125921Y10956D01*
X-126187Y10901D01*
X-126445Y10824D01*
X-126697Y10725D01*
X-126942Y10604D01*
X-127181Y10461D01*
X-127413Y10296D01*
X-127639Y10109D01*
X-127858Y9900D01*
Y14100D01*
X-127639Y13891D01*
D02*
G37*
G36*
X133693Y-1595D02*
X133865Y-1680D01*
X134085Y-1755D01*
X134355Y-1820D01*
X134673Y-1875D01*
X135457Y-1955D01*
X136437Y-1995D01*
X137000Y-2000D01*
Y-8000D01*
X136437Y-8005D01*
X134673Y-8125D01*
X134355Y-8180D01*
X134085Y-8245D01*
X133865Y-8320D01*
X133693Y-8405D01*
X133571Y-8500D01*
Y-1500D01*
X133693Y-1595D01*
D02*
G37*
G36*
X168491Y-15D02*
X168656Y-432D01*
X168930Y-799D01*
X169314Y-1118D01*
X169807Y-1387D01*
X170410Y-1608D01*
X171122Y-1779D01*
X171944Y-1902D01*
X172876Y-1975D01*
X173918Y-2000D01*
Y-8000D01*
X172876Y-8025D01*
X171944Y-8098D01*
X171122Y-8220D01*
X170410Y-8392D01*
X169807Y-8613D01*
X169314Y-8882D01*
X168930Y-9201D01*
X168656Y-9568D01*
X168491Y-9985D01*
X168437Y-10451D01*
Y451D01*
X168491Y-15D01*
D02*
G37*
G36*
X147563Y-11000D02*
X147503Y-10430D01*
X147322Y-9920D01*
X147021Y-9470D01*
X146599Y-9080D01*
X146056Y-8750D01*
X145393Y-8480D01*
X144608Y-8270D01*
X143704Y-8120D01*
X142679Y-8030D01*
X141533Y-8000D01*
Y-2000D01*
X142679Y-1970D01*
X143704Y-1880D01*
X144608Y-1730D01*
X145393Y-1520D01*
X146056Y-1250D01*
X146599Y-920D01*
X147021Y-530D01*
X147322Y-80D01*
X147503Y430D01*
X147563Y1000D01*
Y-11000D01*
D02*
G37*
G36*
X173959Y-33190D02*
X174020Y-33360D01*
X174122Y-33510D01*
X174264Y-33640D01*
X174447Y-33750D01*
X174670Y-33840D01*
X174934Y-33910D01*
X175238Y-33960D01*
X175584Y-33990D01*
X175970Y-34000D01*
Y-36000D01*
X175584Y-36010D01*
X175238Y-36040D01*
X174934Y-36090D01*
X174670Y-36160D01*
X174447Y-36250D01*
X174264Y-36360D01*
X174122Y-36490D01*
X174020Y-36640D01*
X173959Y-36810D01*
X173939Y-37000D01*
Y-33000D01*
X173959Y-33190D01*
D02*
G37*
G36*
X188130Y-37123D02*
X187861Y-36909D01*
X187502Y-36718D01*
X187054Y-36550D01*
X186517Y-36404D01*
X185891Y-36281D01*
X185175Y-36180D01*
X183477Y-36045D01*
X181422Y-36000D01*
Y-34000D01*
X182494Y-33989D01*
X185891Y-33719D01*
X186517Y-33596D01*
X187054Y-33450D01*
X187502Y-33282D01*
X187861Y-33091D01*
X188130Y-32877D01*
Y-37123D01*
D02*
G37*
G36*
X193265Y-60921D02*
X193485Y-63621D01*
X193617Y-64281D01*
X193779Y-64820D01*
X193970Y-65241D01*
X194191Y-65540D01*
X194440Y-65721D01*
X194720Y-65781D01*
X186280D01*
X186465Y-65721D01*
X186630Y-65540D01*
X186775Y-65241D01*
X186901Y-64820D01*
X187008Y-64281D01*
X187095Y-63621D01*
X187211Y-61940D01*
X187250Y-59781D01*
X193250D01*
X193265Y-60921D01*
D02*
G37*
G36*
X-52689Y-5947D02*
X-52709Y-5757D01*
X-52770Y-5587D01*
X-52872Y-5437D01*
X-53014Y-5307D01*
X-53197Y-5197D01*
X-53420Y-5107D01*
X-53684Y-5037D01*
X-53989Y-4987D01*
X-54334Y-4957D01*
X-54720Y-4947D01*
Y-2947D01*
X-54334Y-2937D01*
X-53989Y-2907D01*
X-53684Y-2857D01*
X-53420Y-2787D01*
X-53197Y-2697D01*
X-53014Y-2587D01*
X-52872Y-2457D01*
X-52770Y-2307D01*
X-52709Y-2137D01*
X-52689Y-1947D01*
Y-5947D01*
D02*
G37*
G36*
X-68510Y-2137D02*
X-68450Y-2307D01*
X-68351Y-2457D01*
X-68211Y-2587D01*
X-68031Y-2697D01*
X-67811Y-2787D01*
X-67551Y-2857D01*
X-67250Y-2907D01*
X-66911Y-2937D01*
X-66530Y-2947D01*
Y-4947D01*
X-66911Y-4957D01*
X-67250Y-4987D01*
X-67551Y-5037D01*
X-67811Y-5107D01*
X-68031Y-5197D01*
X-68211Y-5307D01*
X-68351Y-5437D01*
X-68450Y-5587D01*
X-68510Y-5757D01*
X-68531Y-5947D01*
Y-1947D01*
X-68510Y-2137D01*
D02*
G37*
G36*
X-46190Y-8459D02*
X-46360Y-8520D01*
X-46510Y-8622D01*
X-46640Y-8764D01*
X-46750Y-8947D01*
X-46840Y-9170D01*
X-46910Y-9434D01*
X-46960Y-9739D01*
X-46990Y-10084D01*
X-47000Y-10469D01*
X-49000D01*
X-49010Y-10084D01*
X-49040Y-9739D01*
X-49090Y-9434D01*
X-49160Y-9170D01*
X-49250Y-8947D01*
X-49360Y-8764D01*
X-49490Y-8622D01*
X-49640Y-8520D01*
X-49810Y-8459D01*
X-50000Y-8439D01*
X-46000D01*
X-46190Y-8459D01*
D02*
G37*
G36*
X-84741Y-10459D02*
X-84911Y-10520D01*
X-85061Y-10622D01*
X-85191Y-10764D01*
X-85301Y-10947D01*
X-85391Y-11170D01*
X-85461Y-11434D01*
X-85511Y-11739D01*
X-85541Y-12084D01*
X-85551Y-12470D01*
X-87551D01*
X-87561Y-12084D01*
X-87591Y-11739D01*
X-87641Y-11434D01*
X-87711Y-11170D01*
X-87801Y-10947D01*
X-87911Y-10764D01*
X-88041Y-10622D01*
X-88191Y-10520D01*
X-88361Y-10459D01*
X-88551Y-10439D01*
X-84551D01*
X-84741Y-10459D01*
D02*
G37*
G36*
X-85540Y-14228D02*
X-85507Y-14500D01*
X-85452Y-14765D01*
X-85375Y-15023D01*
X-85276Y-15275D01*
X-85155Y-15521D01*
X-85012Y-15759D01*
X-84847Y-15992D01*
X-84660Y-16217D01*
X-84451Y-16436D01*
X-88651D01*
X-88442Y-16217D01*
X-88255Y-15992D01*
X-88090Y-15759D01*
X-87947Y-15521D01*
X-87826Y-15275D01*
X-87727Y-15023D01*
X-87650Y-14765D01*
X-87595Y-14500D01*
X-87562Y-14228D01*
X-87551Y-13950D01*
X-85551D01*
X-85540Y-14228D01*
D02*
G37*
G36*
X-46990Y-14916D02*
X-46960Y-15261D01*
X-46910Y-15566D01*
X-46840Y-15830D01*
X-46750Y-16053D01*
X-46640Y-16236D01*
X-46510Y-16378D01*
X-46360Y-16480D01*
X-46190Y-16541D01*
X-46000Y-16561D01*
X-50000D01*
X-49810Y-16541D01*
X-49640Y-16480D01*
X-49490Y-16378D01*
X-49360Y-16236D01*
X-49250Y-16053D01*
X-49160Y-15830D01*
X-49090Y-15566D01*
X-49040Y-15261D01*
X-49010Y-14916D01*
X-49000Y-14531D01*
X-47000D01*
X-46990Y-14916D01*
D02*
G37*
G36*
X144545Y-33058D02*
X144730Y-33199D01*
X144930Y-33323D01*
X145145Y-33431D01*
X145375Y-33523D01*
X145620Y-33597D01*
X145880Y-33655D01*
X146155Y-33697D01*
X146445Y-33722D01*
X146750Y-33730D01*
Y-36270D01*
X146445Y-36278D01*
X146155Y-36303D01*
X145880Y-36345D01*
X145620Y-36403D01*
X145375Y-36477D01*
X145145Y-36569D01*
X144930Y-36677D01*
X144730Y-36801D01*
X144545Y-36942D01*
X144374Y-37100D01*
Y-32900D01*
X144545Y-33058D01*
D02*
G37*
G36*
X151061Y-37540D02*
X151035Y-37299D01*
X150958Y-37083D01*
X150830Y-36892D01*
X150650Y-36727D01*
X150418Y-36588D01*
X150136Y-36473D01*
X149801Y-36384D01*
X149416Y-36321D01*
X148979Y-36283D01*
X148490Y-36270D01*
Y-33730D01*
X148979Y-33717D01*
X149416Y-33679D01*
X149801Y-33616D01*
X150136Y-33527D01*
X150418Y-33412D01*
X150650Y-33273D01*
X150830Y-33108D01*
X150958Y-32917D01*
X151035Y-32701D01*
X151061Y-32460D01*
Y-37540D01*
D02*
G37*
G36*
X-46190Y-39459D02*
X-46360Y-39520D01*
X-46510Y-39622D01*
X-46640Y-39764D01*
X-46750Y-39947D01*
X-46840Y-40170D01*
X-46910Y-40434D01*
X-46960Y-40739D01*
X-46990Y-41084D01*
X-46999Y-41410D01*
X-46989Y-41650D01*
X-46956Y-41922D01*
X-46901Y-42187D01*
X-46824Y-42445D01*
X-46725Y-42697D01*
X-46604Y-42942D01*
X-46461Y-43181D01*
X-46296Y-43413D01*
X-46109Y-43639D01*
X-45900Y-43858D01*
X-50100D01*
X-49891Y-43639D01*
X-49704Y-43413D01*
X-49539Y-43181D01*
X-49396Y-42942D01*
X-49275Y-42697D01*
X-49176Y-42445D01*
X-49099Y-42187D01*
X-49044Y-41922D01*
X-49011Y-41650D01*
X-49001Y-41410D01*
X-49010Y-41084D01*
X-49040Y-40739D01*
X-49090Y-40434D01*
X-49160Y-40170D01*
X-49250Y-39947D01*
X-49360Y-39764D01*
X-49490Y-39622D01*
X-49640Y-39520D01*
X-49810Y-39459D01*
X-50000Y-39439D01*
X-46000D01*
X-46190Y-39459D01*
D02*
G37*
G36*
X213780Y-66012D02*
X213960Y-66220D01*
X214260Y-66402D01*
X214680Y-66561D01*
X215220Y-66695D01*
X215880Y-66805D01*
X216660Y-66890D01*
X218580Y-66988D01*
X219720Y-67000D01*
Y-73000D01*
X218580Y-73012D01*
X215880Y-73195D01*
X215220Y-73305D01*
X214680Y-73439D01*
X214260Y-73597D01*
X213960Y-73780D01*
X213780Y-73988D01*
X213720Y-74219D01*
Y-65781D01*
X213780Y-66012D01*
D02*
G37*
G36*
X237299Y-108965D02*
X237083Y-109042D01*
X236892Y-109170D01*
X236727Y-109350D01*
X236588Y-109582D01*
X236473Y-109864D01*
X236384Y-110199D01*
X236321Y-110584D01*
X236283Y-111021D01*
X236270Y-111510D01*
X233730D01*
X233717Y-111021D01*
X233679Y-110584D01*
X233616Y-110199D01*
X233527Y-109864D01*
X233412Y-109582D01*
X233273Y-109350D01*
X233108Y-109170D01*
X232917Y-109042D01*
X232701Y-108965D01*
X232460Y-108939D01*
X237540D01*
X237299Y-108965D01*
D02*
G37*
G36*
X236278Y-113555D02*
X236303Y-113845D01*
X236345Y-114120D01*
X236403Y-114380D01*
X236478Y-114625D01*
X236569Y-114855D01*
X236677Y-115070D01*
X236801Y-115270D01*
X236942Y-115455D01*
X237100Y-115626D01*
X232900D01*
X233058Y-115455D01*
X233199Y-115270D01*
X233323Y-115070D01*
X233431Y-114855D01*
X233522Y-114625D01*
X233597Y-114380D01*
X233655Y-114120D01*
X233697Y-113845D01*
X233722Y-113555D01*
X233730Y-113250D01*
X236270D01*
X236278Y-113555D01*
D02*
G37*
G36*
X4918Y-231081D02*
X5064Y-232811D01*
X5192Y-233616D01*
X5357Y-234381D01*
X5557Y-235107D01*
X5795Y-235793D01*
X6069Y-236439D01*
X6379Y-237045D01*
X6726Y-237612D01*
X-2926D01*
X-2579Y-237045D01*
X-2269Y-236439D01*
X-1995Y-235793D01*
X-1758Y-235107D01*
X-1557Y-234381D01*
X-1392Y-233616D01*
X-1264Y-232811D01*
X-1118Y-231081D01*
X-1100Y-230157D01*
X4900D01*
X4918Y-231081D01*
D02*
G37*
D10*
X235000Y-117768D02*
Y-105000D01*
X142232Y-35000D02*
X155000D01*
D13*
X-54812Y157326D02*
X-42139Y170000D01*
X-54812Y142567D02*
Y157326D01*
X-21830Y90005D02*
X7750D01*
X-101104Y100005D02*
X-82250D01*
X-109900Y108075D02*
X-109174D01*
X-101104Y100005D01*
X-109900Y108075D02*
Y127825D01*
X-75403Y165904D02*
X-64750Y155250D01*
X-75403Y165904D02*
Y173903D01*
X-64750Y142505D02*
Y155250D01*
X-60500Y174000D02*
X-59800Y173300D01*
Y142555D02*
Y173300D01*
X-75500Y174951D02*
Y185500D01*
X21499Y170000D02*
X52833Y138666D01*
X73012Y142700D02*
X74600D01*
X65325Y138685D02*
X68997D01*
X58605Y138555D02*
X65195D01*
X52833Y138666D02*
X58494D01*
X68997Y138685D02*
X73012Y142700D01*
X65195Y138555D02*
X65325Y138685D01*
X58494Y138666D02*
X58605Y138555D01*
X50250Y164250D02*
Y204000D01*
X50000Y164000D02*
X50250Y164250D01*
X-42139Y170000D02*
X21499D01*
X20000Y204000D02*
X33750D01*
X-42934Y164000D02*
X18000D01*
X-42000Y158000D02*
X12000D01*
X-44750Y155250D02*
X-42000Y158000D01*
X-44750Y142505D02*
Y155250D01*
X-49750Y157184D02*
X-42934Y164000D01*
X-49750Y142505D02*
Y157184D01*
X90000Y146807D02*
Y187810D01*
X75452Y191638D02*
X86172D01*
X90000Y187810D01*
X75452Y191638D02*
Y207048D01*
X50855Y110650D02*
X64219Y97285D01*
Y81616D02*
Y97285D01*
X-91783Y30717D02*
X-72754D01*
X-92000Y30500D02*
X-91783Y30717D01*
X-72754D02*
X-64750Y38721D01*
Y52505D01*
X-29757Y34518D02*
X-29750Y34525D01*
X-30750Y13505D02*
X-29757Y14498D01*
Y34518D01*
X-48000Y-20500D02*
Y-4250D01*
X-48303Y-3947D02*
X-48000Y-4250D01*
X-73500Y-4500D02*
X-72947Y-3947D01*
X-48303D01*
X-73500Y12500D02*
X-73243Y12757D01*
X-61043D01*
X-86551Y-4551D02*
X-86500Y-4500D01*
X-86551Y-18578D02*
Y-4551D01*
X-86000Y24008D02*
X-84828Y25180D01*
X-60424D02*
X-44750Y40853D01*
X-86000Y13565D02*
Y24008D01*
X-84828Y25180D02*
X-60424D01*
X-104500Y12000D02*
X-87000D01*
X-86500Y12500D01*
X-130000Y12000D02*
X-119500D01*
X-48000Y-46000D02*
Y-35500D01*
X-44750Y40853D02*
Y52505D01*
X-46000Y12250D02*
Y26000D01*
X-39750Y32250D01*
Y52505D01*
X32750Y110005D02*
X32755Y110000D01*
X22750Y120005D02*
X32750Y110005D01*
X-15673Y13582D02*
Y25517D01*
X-24750Y34594D02*
X-15673Y25517D01*
X-15750Y-21775D02*
Y-6495D01*
X-30713Y-22072D02*
Y-6532D01*
X-19750Y36015D02*
X-6000Y22265D01*
X-33250Y-55317D02*
X-6000Y-28066D01*
Y22265D01*
X-7850Y-69467D02*
X0Y-61617D01*
X-14750Y37435D02*
X0Y22685D01*
Y-61617D02*
Y22685D01*
X-7850Y-70495D02*
Y-69467D01*
X248100Y20075D02*
Y166900D01*
X126925Y288075D02*
X248100Y166900D01*
X228250Y135000D02*
X242100D01*
X-17900Y288075D02*
X126925D01*
X176945Y160669D02*
X206502Y190226D01*
X176945Y160669D02*
Y160669D01*
X206502Y190226D02*
X211750Y184978D01*
Y135000D02*
Y184978D01*
X206502Y190226D02*
Y190226D01*
X94785Y80874D02*
X95459Y80200D01*
X94785Y80874D02*
Y111802D01*
X87300Y119286D02*
X94785Y111802D01*
X50855Y110650D02*
Y132973D01*
X52027Y134145D02*
X68938D01*
X32755Y125000D02*
X44855D01*
X50855Y132973D02*
X52027Y134145D01*
X32755Y110000D02*
X44855D01*
X73082Y130000D02*
X74600D01*
X68938Y134145D02*
X73082Y130000D01*
X32750Y125005D02*
X32755Y125000D01*
X7750Y125005D02*
X32750D01*
X87300Y142700D02*
Y144107D01*
X90000Y146807D01*
X87300Y119286D02*
Y130000D01*
X100000D02*
X107036D01*
X109946Y127090D01*
X125732D02*
X125735Y127094D01*
X109946Y127090D02*
X125732D01*
X165000Y185000D02*
Y186082D01*
X166462Y199712D02*
X166750Y200000D01*
X165000Y186082D02*
X166462Y187545D01*
Y199712D01*
X151576Y219826D02*
X151750Y220000D01*
X151576Y205547D02*
Y219826D01*
X181213Y220000D02*
X181213Y220000D01*
X168250Y220000D02*
X181213D01*
X183250Y200000D02*
X196213D01*
X196213Y200000D01*
X75000Y207500D02*
X75452Y207048D01*
X170000Y-35000D02*
X190250D01*
X220000Y-90000D02*
X232500D01*
X-33250Y-70495D02*
Y-55317D01*
X75000Y222500D02*
Y233000D01*
X-34640Y52615D02*
Y114169D01*
X-62830Y125005D02*
X-51900Y114075D01*
X-82250Y125005D02*
X-62830D01*
X-21900Y90075D02*
X-21830Y90005D01*
X-19900Y70075D02*
X-19830Y70005D01*
X7750D01*
X2100Y30075D02*
X8100D01*
X-9750Y41925D02*
X2100Y30075D01*
X-9750Y41925D02*
Y52505D01*
X-14750Y37435D02*
Y52505D01*
X-19750Y36015D02*
Y52505D01*
X-104060Y45500D02*
X-92000D01*
X-103652Y30500D02*
X-92000D01*
X23585Y89560D02*
X33649D01*
X19030Y85005D02*
X23585Y89560D01*
X19170Y75005D02*
X23117Y71058D01*
X32720D01*
X7750Y75005D02*
X19170D01*
X28688Y80058D02*
X28740Y80111D01*
X21996Y80058D02*
X28688D01*
X21942Y80005D02*
X21996Y80058D01*
X7750Y80005D02*
X21942D01*
X7750Y85005D02*
X19030D01*
X-30750Y-6495D02*
X-30713Y-6532D01*
X-18100Y-278039D02*
Y-251075D01*
X-12214Y-283925D02*
X130100D01*
X-18100Y-278039D02*
X-12214Y-283925D01*
X-109900Y144325D02*
Y156075D01*
X-135900Y144325D02*
Y156075D01*
Y114333D02*
X-126752D01*
X-156099D02*
X-135900D01*
Y127825D01*
X-172693Y-25D02*
X-159900Y12768D01*
X-212650Y-25D02*
X-172693D01*
X-159900Y12768D02*
Y100075D01*
X-138182Y108075D02*
X-137900Y107793D01*
X-151900Y108075D02*
X-138182D01*
X-126752Y114333D02*
X-107424Y95005D01*
X-167900Y102533D02*
X-156099Y114333D01*
X-167900Y31062D02*
Y102533D01*
X-178887Y20075D02*
X-167900Y31062D01*
X-212550Y20075D02*
X-178887D01*
X-212650Y19975D02*
X-212550Y20075D01*
X-259900Y22631D02*
X-237244Y-25D01*
X-159900Y100075D02*
X-151900Y108075D01*
X-107424Y95005D02*
X-82250D01*
X-116350Y89925D02*
X-116270Y90005D01*
X-82250D01*
X-242275Y19975D02*
X-212650D01*
X-251900Y29600D02*
Y154075D01*
Y29600D02*
X-242275Y19975D01*
X-259900Y22631D02*
Y158075D01*
X-237244Y-25D02*
X-212650D01*
X-37900Y296075D02*
X128100D01*
X-121900D02*
X-37900D01*
X-38100Y251075D02*
Y278275D01*
X-117900Y288075D02*
X-17900D01*
X-18100Y287875D02*
X-17900Y288075D01*
X-18100Y251075D02*
Y287875D01*
X258100Y75D02*
Y166075D01*
Y-168925D02*
Y75D01*
X248100Y-165925D02*
Y20075D01*
X130100Y-283925D02*
X248100Y-165925D01*
X212650Y-25D02*
X240000D01*
X212650Y19975D02*
X248000D01*
X248100Y20075D01*
X-251900Y154075D02*
X-117900Y288075D01*
X-259900Y158075D02*
X-121900Y296075D01*
X133100Y-293925D02*
X258100Y-168925D01*
X-26900Y-293925D02*
X133100D01*
X-38100Y-282725D02*
X-26900Y-293925D01*
X-38100Y-282725D02*
Y-251075D01*
X128100Y296075D02*
X258100Y166075D01*
X-150350Y89925D02*
X-132850D01*
X-149850Y56425D02*
X-136350D01*
X-149850Y71425D02*
X-136350D01*
X-109850Y56425D02*
X-96270Y70005D01*
X-118350Y56425D02*
X-109850D01*
X-96270Y70005D02*
X-82250D01*
X-104850Y71425D02*
X-101270Y75005D01*
X-118350Y71425D02*
X-104850D01*
X-136350Y56425D02*
X-118350D01*
X-118350Y56425D01*
X-136350Y71425D02*
X-118350D01*
X-101270Y75005D02*
X-82250D01*
X-30750Y-6495D02*
Y13505D01*
X-29750Y34525D02*
Y52505D01*
X-15750Y-6495D02*
Y13505D01*
X-24750Y34594D02*
Y52505D01*
X7750Y120005D02*
X22750D01*
X-60000Y174500D02*
Y186000D01*
X-60500Y174000D02*
X-60000Y174500D01*
D14*
X-64750Y52505D02*
D03*
D15*
X-24750D02*
D03*
X-44750D02*
D03*
X-9750Y52505D02*
D03*
X-14750Y52505D02*
D03*
X-19750D02*
D03*
X-29750D02*
D03*
X-34750Y52505D02*
D03*
X-39750Y52505D02*
D03*
X-49750D02*
D03*
X-54750D02*
D03*
X-59750D02*
D03*
X-64750Y142505D02*
D03*
X-59750D02*
D03*
X-54750Y142505D02*
D03*
X-49750D02*
D03*
X-44750Y142505D02*
D03*
X-39750D02*
D03*
X-34750D02*
D03*
X-29750Y142505D02*
D03*
X-24750D02*
D03*
X-19750D02*
D03*
X-14750D02*
D03*
X-9750Y142505D02*
D03*
D16*
X-82250Y125005D02*
D03*
X-82250Y85005D02*
D03*
X-82250Y105005D02*
D03*
X-82250Y70005D02*
D03*
Y75005D02*
D03*
Y80005D02*
D03*
X-82250Y90005D02*
D03*
X-82250Y95005D02*
D03*
Y100005D02*
D03*
X-82250Y110005D02*
D03*
Y115005D02*
D03*
X-82250Y120005D02*
D03*
X7750Y125005D02*
D03*
Y120005D02*
D03*
X7750Y115005D02*
D03*
Y110005D02*
D03*
X7750Y105005D02*
D03*
Y100005D02*
D03*
Y95005D02*
D03*
X7750Y90005D02*
D03*
Y85005D02*
D03*
X7750Y80005D02*
D03*
Y75005D02*
D03*
X7750Y70005D02*
D03*
D17*
X33750Y204000D02*
D03*
X50250D02*
D03*
X228250Y135000D02*
D03*
X211750D02*
D03*
X151750Y220000D02*
D03*
X168250D02*
D03*
X166750Y200000D02*
D03*
X183250D02*
D03*
X-116350Y89925D02*
D03*
X-132850D02*
D03*
D18*
X-104500Y12000D02*
D03*
X-119500D02*
D03*
X-60500Y174000D02*
D03*
X-75500Y174000D02*
D03*
X-30750Y13505D02*
D03*
X-15750D02*
D03*
X-30750Y-6495D02*
D03*
X-15750Y-6495D02*
D03*
X155000Y-35000D02*
D03*
X170000Y-35000D02*
D03*
D19*
X-73500Y-4500D02*
D03*
Y12500D02*
D03*
X-86500Y-4500D02*
D03*
X-86500Y12500D02*
D03*
D20*
X-48000Y12250D02*
D03*
Y-4250D02*
D03*
X-109900Y127825D02*
D03*
Y144325D02*
D03*
X-135900Y127825D02*
D03*
Y144325D02*
D03*
D21*
X-48000Y-20500D02*
D03*
Y-35500D02*
D03*
X75000Y222500D02*
D03*
X75000Y207500D02*
D03*
X-136350Y71425D02*
D03*
Y56425D02*
D03*
X-118350Y71425D02*
D03*
Y56425D02*
D03*
X32750Y110005D02*
D03*
Y125005D02*
D03*
X-92000Y45500D02*
D03*
Y30500D02*
D03*
X235000Y-105000D02*
D03*
Y-90000D02*
D03*
D22*
X200000Y-90000D02*
D03*
X190500Y-70000D02*
D03*
X209500D02*
D03*
D43*
X212650Y-25D02*
D03*
Y19975D02*
D03*
Y39975D02*
D03*
Y76175D02*
D03*
X-212650Y-25D02*
D03*
Y19975D02*
D03*
Y39975D02*
D03*
Y76175D02*
D03*
D44*
X-38100Y251075D02*
D03*
X-18100D02*
D03*
X1900D02*
D03*
X38100D02*
D03*
X-38100Y-251075D02*
D03*
X-18100D02*
D03*
X1900D02*
D03*
X38100D02*
D03*
D45*
X149500Y-5000D02*
D03*
D46*
X165000D02*
D03*
D47*
X100000Y130000D02*
D03*
X87300D02*
D03*
X74600D02*
D03*
X100000Y142700D02*
D03*
X87300D02*
D03*
X74600D02*
D03*
D48*
X-17975Y-122000D02*
X45227Y-58798D01*
X-88275Y-122000D02*
X-17975D01*
X-122350Y-156075D02*
X-88275Y-122000D01*
X37195Y89465D02*
X64100Y62560D01*
X33744Y89465D02*
X37195D01*
X64100Y-101925D02*
Y62560D01*
Y-101925D02*
X77650Y-115475D01*
X54100Y-71052D02*
Y64075D01*
X38064Y80111D02*
X54100Y64075D01*
X28740Y80111D02*
X38064D01*
X32720Y71058D02*
X45227Y58552D01*
Y-58798D02*
Y58552D01*
X-22350Y-156075D02*
X-18523Y-152248D01*
Y-143675D01*
X54100Y-71052D01*
X77650Y-156075D02*
Y-115475D01*
D49*
X145000Y156059D02*
X145000Y156059D01*
X105000Y38814D02*
X145000Y78814D01*
Y156059D01*
X145000Y156059D02*
Y156868D01*
X111349Y190519D02*
X145000Y156868D01*
X105000Y-90000D02*
Y38814D01*
X199860Y-115000D02*
Y-90140D01*
Y-143994D02*
Y-115000D01*
X130000D02*
X199860D01*
X105000Y-90000D02*
X130000Y-115000D01*
X192650Y-151204D02*
X199860Y-143994D01*
X192650Y-156075D02*
Y-151204D01*
X209500Y-70000D02*
X229500D01*
X130000Y-5000D02*
X149500D01*
X165000D02*
X173918D01*
X190250Y-35000D02*
Y-21332D01*
Y-69750D02*
Y-35000D01*
X173918Y-5000D02*
X190250Y-21332D01*
X200000Y-90000D02*
X220000D01*
X1900Y-251075D02*
Y-220025D01*
X-212650Y39975D02*
X-181600D01*
X1900Y220025D02*
Y251075D01*
X181600Y39975D02*
X212650D01*
D50*
X206502Y190226D02*
D03*
X145408Y251320D02*
D03*
D51*
X176945Y160669D02*
D03*
X115851Y221763D02*
D03*
D52*
X129515Y215205D02*
D03*
X170386Y174334D02*
D03*
D53*
X227650Y106175D02*
D03*
Y-30025D02*
D03*
X68100Y266075D02*
D03*
X-68100D02*
D03*
X-227650Y106175D02*
D03*
Y-30025D02*
D03*
X68100Y-266075D02*
D03*
X-68100D02*
D03*
X-84050Y-70495D02*
D03*
X-7850D02*
D03*
X-33250D02*
D03*
X-58650D02*
D03*
D54*
X192650Y-156075D02*
D03*
X142650D02*
D03*
X77650D02*
D03*
X27650D02*
D03*
X-22350D02*
D03*
X-72350D02*
D03*
X-122350D02*
D03*
X-172350Y-156075D02*
D03*
D55*
X-150000Y210000D02*
D03*
Y-70000D02*
D03*
X150000D02*
D03*
D56*
X74600Y161750D02*
D03*
X112700Y110950D02*
D03*
X74600D02*
D03*
X112700Y161750D02*
D03*
D57*
Y136350D02*
D03*
X61900Y126190D02*
D03*
Y146510D02*
D03*
D58*
X50000Y164000D02*
D03*
X20000Y204000D02*
D03*
X75452Y191638D02*
D03*
X18000Y164000D02*
D03*
X12000Y158000D02*
D03*
X111349Y190519D02*
D03*
X64219Y81616D02*
D03*
X-61043Y12757D02*
D03*
X-86551Y-18578D02*
D03*
X-130000Y12000D02*
D03*
X-48000Y-46000D02*
D03*
X-15750Y-21775D02*
D03*
X-30713Y-22072D02*
D03*
X242100Y135000D02*
D03*
X95459Y80200D02*
D03*
X44855Y125000D02*
D03*
Y110000D02*
D03*
X145000Y156059D02*
D03*
X165000Y185000D02*
D03*
X151576Y205547D02*
D03*
X181213Y220000D02*
D03*
X196213Y200000D02*
D03*
X125735Y127094D02*
D03*
X229500Y-70000D02*
D03*
X75000Y233000D02*
D03*
X-34640Y114169D02*
D03*
X-51900Y114075D02*
D03*
X235000Y-117768D02*
D03*
X142232Y-35000D02*
D03*
X-19900Y70075D02*
D03*
X-21900Y90075D02*
D03*
X-104060Y45500D02*
D03*
X-103652Y30500D02*
D03*
X8100Y30075D02*
D03*
X-109900Y156075D02*
D03*
X-135900D02*
D03*
X-109900Y108075D02*
D03*
X-137900Y107793D02*
D03*
X-37900Y296075D02*
D03*
X-38100Y278275D02*
D03*
X258100Y75D02*
D03*
X240000Y-25D02*
D03*
X-150350Y89925D02*
D03*
X-149850Y56425D02*
D03*
Y71425D02*
D03*
X-75500Y185500D02*
D03*
X-60000Y186000D02*
D03*
X2000Y-220000D02*
D03*
X-181600Y39975D02*
D03*
X1900Y220025D02*
D03*
X181600Y39975D02*
D03*
D59*
X130000Y-5000D02*
D03*
M02*
