G04*
G04 #@! TF.GenerationSoftware,Altium Limited,Altium Designer,23.8.1 (32)*
G04*
G04 Layer_Color=8388736*
%FSLAX44Y44*%
%MOMM*%
G71*
G04*
G04 #@! TF.SameCoordinates,30061C5B-BE2C-44CF-A243-5EA776C9CE0C*
G04*
G04*
G04 #@! TF.FilePolarity,Negative*
G04*
G01*
G75*
G04:AMPARAMS|DCode=23|XSize=0.5032mm|YSize=1.9032mm|CornerRadius=0.1766mm|HoleSize=0mm|Usage=FLASHONLY|Rotation=0.000|XOffset=0mm|YOffset=0mm|HoleType=Round|Shape=RoundedRectangle|*
%AMROUNDEDRECTD23*
21,1,0.5032,1.5500,0,0,0.0*
21,1,0.1500,1.9032,0,0,0.0*
1,1,0.3532,0.0750,-0.7750*
1,1,0.3532,-0.0750,-0.7750*
1,1,0.3532,-0.0750,0.7750*
1,1,0.3532,0.0750,0.7750*
%
%ADD23ROUNDEDRECTD23*%
%ADD24R,0.5032X1.9032*%
%ADD25R,1.9032X0.5032*%
%ADD26R,1.0532X1.1532*%
%ADD27R,1.0032X1.0032*%
%ADD28R,1.2032X1.4032*%
%ADD29R,1.1532X1.0532*%
%ADD30R,1.0032X1.0032*%
G04:AMPARAMS|DCode=31|XSize=1.2032mm|YSize=3.2032mm|CornerRadius=0.3516mm|HoleSize=0mm|Usage=FLASHONLY|Rotation=90.000|XOffset=0mm|YOffset=0mm|HoleType=Round|Shape=RoundedRectangle|*
%AMROUNDEDRECTD31*
21,1,1.2032,2.5000,0,0,90.0*
21,1,0.5000,3.2032,0,0,90.0*
1,1,0.7032,1.2500,0.2500*
1,1,0.7032,1.2500,-0.2500*
1,1,0.7032,-1.2500,-0.2500*
1,1,0.7032,-1.2500,0.2500*
%
%ADD31ROUNDEDRECTD31*%
G04:AMPARAMS|DCode=32|XSize=1.2032mm|YSize=3.2032mm|CornerRadius=0.3516mm|HoleSize=0mm|Usage=FLASHONLY|Rotation=0.000|XOffset=0mm|YOffset=0mm|HoleType=Round|Shape=RoundedRectangle|*
%AMROUNDEDRECTD32*
21,1,1.2032,2.5000,0,0,0.0*
21,1,0.5000,3.2032,0,0,0.0*
1,1,0.7032,0.2500,-1.2500*
1,1,0.7032,-0.2500,-1.2500*
1,1,0.7032,-0.2500,1.2500*
1,1,0.7032,0.2500,1.2500*
%
%ADD32ROUNDEDRECTD32*%
%ADD33R,1.0532X1.0532*%
%ADD34C,0.9902*%
G04:AMPARAMS|DCode=35|XSize=2.0032mm|YSize=1.2032mm|CornerRadius=0.3516mm|HoleSize=0mm|Usage=FLASHONLY|Rotation=225.000|XOffset=0mm|YOffset=0mm|HoleType=Round|Shape=RoundedRectangle|*
%AMROUNDEDRECTD35*
21,1,2.0032,0.5000,0,0,225.0*
21,1,1.3000,1.2032,0,0,225.0*
1,1,0.7032,-0.6364,-0.2828*
1,1,0.7032,0.2828,0.6364*
1,1,0.7032,0.6364,0.2828*
1,1,0.7032,-0.2828,-0.6364*
%
%ADD35ROUNDEDRECTD35*%
G04:AMPARAMS|DCode=36|XSize=2.3032mm|YSize=1.2032mm|CornerRadius=0.3516mm|HoleSize=0mm|Usage=FLASHONLY|Rotation=225.000|XOffset=0mm|YOffset=0mm|HoleType=Round|Shape=RoundedRectangle|*
%AMROUNDEDRECTD36*
21,1,2.3032,0.5000,0,0,225.0*
21,1,1.6000,1.2032,0,0,225.0*
1,1,0.7032,-0.7425,-0.3889*
1,1,0.7032,0.3889,0.7425*
1,1,0.7032,0.7425,0.3889*
1,1,0.7032,-0.3889,-0.7425*
%
%ADD36ROUNDEDRECTD36*%
%ADD37C,0.8532*%
%ADD38C,2.2032*%
%ADD39C,2.6032*%
%ADD40C,4.7032*%
%ADD41C,2.5782*%
%ADD42C,1.1942*%
G36*
X168633Y6010D02*
X168764Y5983D01*
X168890Y5941D01*
X169009Y5882D01*
X169120Y5808D01*
X169220Y5720D01*
X169308Y5620D01*
X169382Y5509D01*
X169441Y5390D01*
X169484Y5264D01*
X169510Y5133D01*
X169518Y5000D01*
Y-15000D01*
X169510Y-15133D01*
X169484Y-15264D01*
X169441Y-15390D01*
X169382Y-15509D01*
X169308Y-15620D01*
X169220Y-15720D01*
X169120Y-15808D01*
X169009Y-15882D01*
X168890Y-15941D01*
X168764Y-15984D01*
X168633Y-16010D01*
X168500Y-16018D01*
X160500D01*
X160489Y-16018D01*
X160479Y-16018D01*
X160423Y-16013D01*
X160367Y-16010D01*
X160357Y-16007D01*
X160346Y-16006D01*
X160292Y-15994D01*
X160236Y-15984D01*
X160226Y-15980D01*
X160216Y-15978D01*
X160164Y-15959D01*
X160110Y-15941D01*
X160101Y-15936D01*
X160091Y-15932D01*
X160041Y-15907D01*
X159991Y-15882D01*
X159982Y-15876D01*
X159973Y-15871D01*
X159927Y-15839D01*
X159880Y-15808D01*
X159872Y-15801D01*
X159864Y-15795D01*
X159822Y-15757D01*
X159780Y-15720D01*
X159773Y-15712D01*
X159765Y-15705D01*
X159729Y-15662D01*
X159692Y-15620D01*
X159686Y-15611D01*
X159679Y-15603D01*
X159649Y-15555D01*
X159618Y-15509D01*
X159614Y-15500D01*
X159608Y-15491D01*
X154108Y-5491D01*
X154079Y-5428D01*
X154053Y-5374D01*
X154052Y-5372D01*
X154052Y-5370D01*
X154031Y-5306D01*
X154012Y-5247D01*
X154012Y-5245D01*
X154011Y-5243D01*
X154000Y-5178D01*
X153989Y-5116D01*
X153988Y-5114D01*
X153988Y-5112D01*
X153985Y-5046D01*
X153982Y-4983D01*
X153982Y-4981D01*
X153982Y-4979D01*
X153988Y-4916D01*
X153993Y-4850D01*
X153993Y-4848D01*
X153994Y-4846D01*
X154007Y-4786D01*
X154021Y-4720D01*
X154022Y-4718D01*
X154022Y-4716D01*
X154044Y-4657D01*
X154066Y-4595D01*
X154067Y-4593D01*
X154068Y-4591D01*
X154097Y-4534D01*
X154127Y-4476D01*
X160127Y5524D01*
X160160Y5572D01*
X160192Y5620D01*
X160198Y5626D01*
X160203Y5633D01*
X160242Y5676D01*
X160280Y5720D01*
X160287Y5726D01*
X160292Y5732D01*
X160337Y5770D01*
X160380Y5808D01*
X160387Y5812D01*
X160394Y5818D01*
X160444Y5850D01*
X160491Y5882D01*
X160499Y5885D01*
X160506Y5890D01*
X160559Y5915D01*
X160610Y5941D01*
X160619Y5943D01*
X160626Y5947D01*
X160681Y5965D01*
X160737Y5983D01*
X160745Y5985D01*
X160753Y5988D01*
X160811Y5998D01*
X160867Y6010D01*
X160876Y6010D01*
X160884Y6012D01*
X160942Y6014D01*
X161000Y6018D01*
X168500D01*
X168633Y6010D01*
D02*
G37*
G36*
X158509Y6018D02*
X158517Y6018D01*
X158575Y6013D01*
X158633Y6010D01*
X158641Y6008D01*
X158650Y6007D01*
X158707Y5995D01*
X158764Y5983D01*
X158772Y5981D01*
X158780Y5979D01*
X158834Y5960D01*
X158890Y5941D01*
X158897Y5937D01*
X158905Y5934D01*
X158957Y5908D01*
X159009Y5882D01*
X159016Y5877D01*
X159024Y5873D01*
X159071Y5840D01*
X159120Y5808D01*
X159126Y5802D01*
X159133Y5797D01*
X159176Y5759D01*
X159220Y5720D01*
X159226Y5713D01*
X159232Y5708D01*
X159270Y5663D01*
X159308Y5620D01*
X159312Y5613D01*
X159318Y5606D01*
X159350Y5557D01*
X159382Y5509D01*
X159386Y5501D01*
X159390Y5494D01*
X159415Y5443D01*
X159441Y5390D01*
X159444Y5381D01*
X159447Y5374D01*
X159465Y5319D01*
X159483Y5264D01*
X159485Y5255D01*
X159488Y5247D01*
X159498Y5190D01*
X159509Y5133D01*
X159510Y5124D01*
X159512Y5116D01*
X159514Y5059D01*
X159518Y5000D01*
X159518Y4991D01*
X159518Y4983D01*
X159513Y4925D01*
X159509Y4867D01*
X159508Y4859D01*
X159507Y4850D01*
X159495Y4793D01*
X159483Y4737D01*
X159481Y4728D01*
X159479Y4720D01*
X159459Y4666D01*
X159441Y4610D01*
X159437Y4603D01*
X159434Y4595D01*
X159408Y4543D01*
X159382Y4491D01*
X159377Y4484D01*
X159373Y4476D01*
X153671Y-5028D01*
X158772Y-14518D01*
X158793Y-14564D01*
X158816Y-14610D01*
X158821Y-14625D01*
X158827Y-14639D01*
X158842Y-14688D01*
X158858Y-14736D01*
X158862Y-14752D01*
X158866Y-14766D01*
X158875Y-14817D01*
X158884Y-14867D01*
X158885Y-14883D01*
X158888Y-14898D01*
X158890Y-14949D01*
X158893Y-15000D01*
X158892Y-15016D01*
X158893Y-15031D01*
X158888Y-15082D01*
X158884Y-15133D01*
X158882Y-15148D01*
X158880Y-15164D01*
X158868Y-15214D01*
X158858Y-15264D01*
X158854Y-15278D01*
X158850Y-15293D01*
X158832Y-15341D01*
X158816Y-15390D01*
X158809Y-15404D01*
X158803Y-15418D01*
X158779Y-15463D01*
X158757Y-15509D01*
X158748Y-15522D01*
X158741Y-15536D01*
X158711Y-15578D01*
X158683Y-15620D01*
X158673Y-15631D01*
X158664Y-15644D01*
X158628Y-15682D01*
X158595Y-15720D01*
X158583Y-15730D01*
X158573Y-15741D01*
X158533Y-15774D01*
X158495Y-15808D01*
X158482Y-15816D01*
X158470Y-15826D01*
X158426Y-15854D01*
X158384Y-15882D01*
X158370Y-15889D01*
X158357Y-15897D01*
X158310Y-15918D01*
X158265Y-15941D01*
X158250Y-15946D01*
X158236Y-15952D01*
X158187Y-15967D01*
X158139Y-15984D01*
X158123Y-15986D01*
X158109Y-15991D01*
X158058Y-16000D01*
X158008Y-16010D01*
X157992Y-16011D01*
X157977Y-16013D01*
X157926Y-16015D01*
X157875Y-16018D01*
X147500D01*
X147367Y-16010D01*
X147236Y-15984D01*
X147110Y-15941D01*
X146991Y-15882D01*
X146880Y-15808D01*
X146780Y-15720D01*
X146692Y-15620D01*
X146618Y-15509D01*
X146559Y-15390D01*
X146517Y-15264D01*
X146490Y-15133D01*
X146482Y-15000D01*
Y5000D01*
X146490Y5133D01*
X146517Y5264D01*
X146559Y5390D01*
X146618Y5509D01*
X146692Y5620D01*
X146780Y5720D01*
X146880Y5808D01*
X146991Y5882D01*
X147110Y5941D01*
X147236Y5983D01*
X147367Y6010D01*
X147500Y6018D01*
X158500D01*
X158509Y6018D01*
D02*
G37*
D23*
X-64750Y52505D02*
D03*
D24*
X-24750D02*
D03*
X-44750D02*
D03*
X-9750Y52505D02*
D03*
X-14750Y52505D02*
D03*
X-19750D02*
D03*
X-29750D02*
D03*
X-34750Y52505D02*
D03*
X-39750Y52505D02*
D03*
X-49750D02*
D03*
X-54750D02*
D03*
X-59750D02*
D03*
X-64750Y142505D02*
D03*
X-59750D02*
D03*
X-54750Y142505D02*
D03*
X-49750D02*
D03*
X-44750Y142505D02*
D03*
X-39750D02*
D03*
X-34750D02*
D03*
X-29750Y142505D02*
D03*
X-24750D02*
D03*
X-19750D02*
D03*
X-14750D02*
D03*
X-9750Y142505D02*
D03*
D25*
X-82250Y125005D02*
D03*
X-82250Y85005D02*
D03*
X-82250Y105005D02*
D03*
X-82250Y70005D02*
D03*
Y75005D02*
D03*
Y80005D02*
D03*
X-82250Y90005D02*
D03*
X-82250Y95005D02*
D03*
Y100005D02*
D03*
X-82250Y110005D02*
D03*
Y115005D02*
D03*
X-82250Y120005D02*
D03*
X7750Y125005D02*
D03*
Y120005D02*
D03*
X7750Y115005D02*
D03*
Y110005D02*
D03*
X7750Y105005D02*
D03*
Y100005D02*
D03*
Y95005D02*
D03*
X7750Y90005D02*
D03*
Y85005D02*
D03*
X7750Y80005D02*
D03*
Y75005D02*
D03*
X7750Y70005D02*
D03*
D26*
X33750Y204000D02*
D03*
X50250D02*
D03*
X228250Y135000D02*
D03*
X211750D02*
D03*
X151750Y220000D02*
D03*
X168250D02*
D03*
X166750Y200000D02*
D03*
X183250D02*
D03*
X-116350Y89925D02*
D03*
X-132850D02*
D03*
D27*
X-104500Y12000D02*
D03*
X-119500D02*
D03*
X-60500Y174000D02*
D03*
X-75500Y174000D02*
D03*
X-30750Y13505D02*
D03*
X-15750D02*
D03*
X-30750Y-6495D02*
D03*
X-15750Y-6495D02*
D03*
X155000Y-35000D02*
D03*
X170000Y-35000D02*
D03*
D28*
X-73500Y-4500D02*
D03*
Y12500D02*
D03*
X-86500Y-4500D02*
D03*
X-86500Y12500D02*
D03*
D29*
X-48000Y12250D02*
D03*
Y-4250D02*
D03*
X-109900Y127825D02*
D03*
Y144325D02*
D03*
X-135900Y127825D02*
D03*
Y144325D02*
D03*
D30*
X-48000Y-20500D02*
D03*
Y-35500D02*
D03*
X75000Y222500D02*
D03*
X75000Y207500D02*
D03*
X-136350Y71425D02*
D03*
Y56425D02*
D03*
X-118350Y71425D02*
D03*
Y56425D02*
D03*
X32750Y110005D02*
D03*
Y125005D02*
D03*
X-92000Y45500D02*
D03*
Y30500D02*
D03*
X235000Y-105000D02*
D03*
Y-90000D02*
D03*
D31*
X212650Y-25D02*
D03*
Y19975D02*
D03*
Y39975D02*
D03*
Y76175D02*
D03*
X-212650Y-25D02*
D03*
Y19975D02*
D03*
Y39975D02*
D03*
Y76175D02*
D03*
D32*
X-38100Y251075D02*
D03*
X-18100D02*
D03*
X1900D02*
D03*
X38100D02*
D03*
X-38100Y-251075D02*
D03*
X-18100D02*
D03*
X1900D02*
D03*
X38100D02*
D03*
D33*
X200000Y-90000D02*
D03*
X190500Y-70000D02*
D03*
X209500D02*
D03*
D34*
X100000Y130000D02*
D03*
X87300D02*
D03*
X74600D02*
D03*
X100000Y142700D02*
D03*
X87300D02*
D03*
X74600D02*
D03*
D35*
X206502Y190226D02*
D03*
X145408Y251320D02*
D03*
D36*
X176945Y160669D02*
D03*
X115851Y221763D02*
D03*
D37*
X129515Y215205D02*
D03*
X170386Y174334D02*
D03*
D38*
X227650Y106175D02*
D03*
Y-30025D02*
D03*
X68100Y266075D02*
D03*
X-68100D02*
D03*
X-227650Y106175D02*
D03*
Y-30025D02*
D03*
X68100Y-266075D02*
D03*
X-68100D02*
D03*
X-84050Y-70495D02*
D03*
X-7850D02*
D03*
X-33250D02*
D03*
X-58650D02*
D03*
D39*
X192650Y-156075D02*
D03*
X142650D02*
D03*
X77650D02*
D03*
X27650D02*
D03*
X-22350D02*
D03*
X-72350D02*
D03*
X-122350D02*
D03*
X-172350Y-156075D02*
D03*
D40*
X-150000Y210000D02*
D03*
Y-70000D02*
D03*
X150000D02*
D03*
D41*
X74600Y161750D02*
D03*
X112700Y110950D02*
D03*
X74600D02*
D03*
X112700Y161750D02*
D03*
D42*
Y136350D02*
D03*
X61900Y126190D02*
D03*
Y146510D02*
D03*
M02*
