G04*
G04 #@! TF.GenerationSoftware,Altium Limited,Altium Designer,23.8.1 (32)*
G04*
G04 Layer_Color=65535*
%FSLAX44Y44*%
%MOMM*%
G71*
G04*
G04 #@! TF.SameCoordinates,30061C5B-BE2C-44CF-A243-5EA776C9CE0C*
G04*
G04*
G04 #@! TF.FilePolarity,Positive*
G04*
G01*
G75*
%ADD10C,0.2540*%
%ADD11C,0.1500*%
%ADD12C,0.1800*%
%ADD13C,0.2000*%
D10*
X120000Y-22346D02*
X180000D01*
X120000Y35000D02*
X180000D01*
Y-22346D02*
Y35000D01*
X120000Y-22346D02*
Y35000D01*
X6750Y-85495D02*
Y-55495D01*
X-98551Y-55495D02*
X6750Y-55495D01*
X-98551Y-85495D02*
Y-55495D01*
Y-85495D02*
X6750Y-85495D01*
X132540Y25871D02*
X134206Y27537D01*
X137538D01*
X139205Y25871D01*
Y24204D01*
X137538Y22538D01*
X135872D01*
X137538D01*
X139205Y20872D01*
Y19206D01*
X137538Y17540D01*
X134206D01*
X132540Y19206D01*
X142537Y17540D02*
Y19206D01*
X144203D01*
Y17540D01*
X142537D01*
X150867Y25871D02*
X152534Y27537D01*
X155866D01*
X157532Y25871D01*
Y24204D01*
X155866Y22538D01*
X154200D01*
X155866D01*
X157532Y20872D01*
Y19206D01*
X155866Y17540D01*
X152534D01*
X150867Y19206D01*
X160864Y27537D02*
Y20872D01*
X164196Y17540D01*
X167529Y20872D01*
Y27537D01*
D11*
X-69250Y55505D02*
X-69250Y49505D01*
X-79250Y55505D02*
X-69250Y55505D01*
X-79250Y65505D02*
X-79250Y55505D01*
X-5250D02*
X4750Y55505D01*
Y65505D01*
Y129505D02*
Y139505D01*
X-5250D02*
X4750D01*
X-79250D02*
X-69250D01*
X-79250D02*
X-79250Y129505D01*
D12*
X42000Y211330D02*
X50000D01*
X34000D02*
X42000D01*
Y196670D02*
X50000D01*
X34000D02*
X42000D01*
X-120000Y5420D02*
X-104000D01*
X-120000Y18580D02*
X-104000D01*
X-40670Y-4000D02*
Y4000D01*
Y12000D01*
X-55330Y-4000D02*
Y4000D01*
Y12000D01*
X-41420Y-36000D02*
Y-20000D01*
X-54580Y-36000D02*
Y-20000D01*
X212000Y127670D02*
X220000D01*
X228000D01*
X212000Y142330D02*
X220000D01*
X228000D01*
X160000Y227330D02*
X168000D01*
X152000D02*
X160000D01*
Y212670D02*
X168000D01*
X152000D02*
X160000D01*
X175000Y207330D02*
X183000D01*
X167000D02*
X175000D01*
Y192670D02*
X183000D01*
X167000D02*
X175000D01*
X81580Y207000D02*
Y223000D01*
X68420Y207000D02*
X68420Y223000D01*
X-117230Y136075D02*
Y144075D01*
Y128075D02*
Y136075D01*
X-102570D02*
Y144075D01*
Y128075D02*
Y136075D01*
X-143230D02*
Y144075D01*
Y128075D02*
Y136075D01*
X-128570D02*
Y144075D01*
Y128075D02*
Y136075D01*
X-129770Y55925D02*
Y71925D01*
X-142930Y55925D02*
Y71925D01*
X-111770D02*
X-111770Y55925D01*
X-124930Y55925D02*
Y71925D01*
X-76000Y167420D02*
X-60000D01*
X-76000Y180580D02*
X-60000D01*
X182000Y-86000D02*
X190000Y-86000D01*
X218000Y-86000D02*
Y-64000D01*
X210000Y-86000D02*
X218000Y-86000D01*
X26170Y109505D02*
Y125505D01*
X39330Y109505D02*
X39330Y125505D01*
X-85420Y30000D02*
Y46000D01*
X-98580Y30000D02*
Y46000D01*
X-31250Y20085D02*
X-15250Y20085D01*
X-31250Y6925D02*
X-15250Y6925D01*
X-132600Y82595D02*
X-124600D01*
X-116600D01*
X-132600Y97255D02*
X-124600D01*
X-116600D01*
X-31250Y85D02*
X-15250Y85D01*
X-31250Y-13075D02*
X-15250D01*
X228420Y-105500D02*
Y-89500D01*
X241580Y-105500D02*
Y-89500D01*
X154500Y-28420D02*
X170500D01*
X154500Y-41580D02*
X170500D01*
D13*
X-94000Y-13000D02*
Y-9000D01*
Y-13000D02*
X-90000D01*
X-94000Y21000D02*
X-90000D01*
X-94000Y17000D02*
Y21000D01*
X-66000Y17000D02*
Y21000D01*
X-70000D02*
X-66000D01*
X-70000Y-13000D02*
X-66000D01*
Y-9000D01*
X196650Y84075D02*
X230650D01*
X196650Y-7925D02*
X230650D01*
X46000Y235075D02*
Y269075D01*
X-46000D02*
X-46000Y235075D01*
X-230650Y84075D02*
X-196650D01*
X-230650Y-7925D02*
X-196650D01*
X46000Y-269075D02*
Y-235075D01*
X-46000Y-269075D02*
X-46000Y-235075D01*
X219443Y-196344D02*
X219443Y-186344D01*
X209443Y-196344D02*
X219443Y-196344D01*
X209358Y-116173D02*
X219358D01*
Y-126173D02*
Y-116173D01*
X117650Y-196075D02*
X127650D01*
X117650D02*
Y-186075D01*
Y-126075D02*
Y-116075D01*
X127650Y-116075D01*
X104443Y-196344D02*
Y-186344D01*
X94443Y-196344D02*
X104443D01*
X94358Y-116173D02*
X104358D01*
Y-126173D02*
Y-116173D01*
X-198350Y-196075D02*
X-188350D01*
X-198350D02*
Y-186075D01*
Y-116075D02*
X-198350Y-126075D01*
X-198350Y-116075D02*
X-188350Y-116075D01*
X9336Y50998D02*
Y42668D01*
X11002Y41002D01*
X14334D01*
X16000Y42668D01*
Y50998D01*
X19332Y41002D02*
X22664D01*
X20998D01*
Y50998D01*
X19332Y49332D01*
X3669Y199002D02*
Y208998D01*
X8668D01*
X10334Y207332D01*
Y204000D01*
X8668Y202334D01*
X3669D01*
X7002D02*
X10334Y199002D01*
X13666Y207332D02*
X15332Y208998D01*
X18664D01*
X20331Y207332D01*
Y205666D01*
X18664Y204000D01*
X20331Y202334D01*
Y200668D01*
X18664Y199002D01*
X15332D01*
X13666Y200668D01*
Y202334D01*
X15332Y204000D01*
X13666Y205666D01*
Y207332D01*
X15332Y204000D02*
X18664D01*
X-152165Y17332D02*
X-153831Y18998D01*
X-157164D01*
X-158830Y17332D01*
Y10668D01*
X-157164Y9002D01*
X-153831D01*
X-152165Y10668D01*
X-148833Y9002D02*
X-145501D01*
X-147167D01*
Y18998D01*
X-148833Y17332D01*
X-140502Y9002D02*
X-137170D01*
X-138836D01*
Y18998D01*
X-140502Y17332D01*
X-112664Y-3002D02*
Y-4668D01*
X-109332Y-8000D01*
X-106000Y-4668D01*
Y-3002D01*
X-109332Y-8000D02*
Y-12998D01*
X-102668D02*
X-99335D01*
X-101002D01*
Y-3002D01*
X-102668Y-4668D01*
X-54331Y25002D02*
Y34998D01*
X-49332D01*
X-47666Y33332D01*
Y30000D01*
X-49332Y28334D01*
X-54331D01*
X-50998D02*
X-47666Y25002D01*
X-44334Y34998D02*
X-37669D01*
Y33332D01*
X-44334Y26668D01*
Y25002D01*
X-29832Y-24668D02*
X-31498Y-23002D01*
X-34830D01*
X-36496Y-24668D01*
Y-31332D01*
X-34830Y-32998D01*
X-31498D01*
X-29832Y-31332D01*
X-26499Y-32998D02*
X-23167D01*
X-24833D01*
Y-23002D01*
X-26499Y-24668D01*
X-11504Y-32998D02*
X-18168D01*
X-11504Y-26334D01*
Y-24668D01*
X-13170Y-23002D01*
X-16502D01*
X-18168Y-24668D01*
X211669Y150002D02*
Y159998D01*
X216668D01*
X218334Y158332D01*
Y155000D01*
X216668Y153334D01*
X211669D01*
X215002D02*
X218334Y150002D01*
X226665D02*
Y159998D01*
X221666Y155000D01*
X228331D01*
X151669Y235002D02*
Y244998D01*
X156668D01*
X158334Y243332D01*
Y240000D01*
X156668Y238334D01*
X151669D01*
X155002D02*
X158334Y235002D01*
X168331Y244998D02*
X164998Y243332D01*
X161666Y240000D01*
Y236668D01*
X163332Y235002D01*
X166665D01*
X168331Y236668D01*
Y238334D01*
X166665Y240000D01*
X161666D01*
X181669Y215002D02*
Y224998D01*
X186668D01*
X188334Y223332D01*
Y220000D01*
X186668Y218334D01*
X181669D01*
X185002D02*
X188334Y215002D01*
X198331Y224998D02*
X191666D01*
Y220000D01*
X194998Y221666D01*
X196665D01*
X198331Y220000D01*
Y216668D01*
X196665Y215002D01*
X193332D01*
X191666Y216668D01*
X194905Y111403D02*
X191573D01*
X193239D01*
Y103073D01*
X191573Y101406D01*
X189907D01*
X188241Y103073D01*
X204902Y111403D02*
X201570Y109737D01*
X198238Y106405D01*
Y103073D01*
X199904Y101406D01*
X203236D01*
X204902Y103073D01*
Y104739D01*
X203236Y106405D01*
X198238D01*
X-68566Y246073D02*
X-71898D01*
X-70232D01*
Y237743D01*
X-71898Y236077D01*
X-73565D01*
X-75231Y237743D01*
X-65234Y246073D02*
X-58569D01*
Y244407D01*
X-65234Y237743D01*
Y236077D01*
X-203566Y111073D02*
X-206898D01*
X-205232D01*
Y102743D01*
X-206898Y101077D01*
X-208564D01*
X-210231Y102743D01*
X-193569Y101077D02*
X-200234D01*
X-193569Y107741D01*
Y109407D01*
X-195236Y111073D01*
X-198568D01*
X-200234Y109407D01*
X-69316Y-218827D02*
X-72648D01*
X-70982D01*
Y-227157D01*
X-72648Y-228823D01*
X-74315D01*
X-75981Y-227157D01*
X-65984Y-220493D02*
X-64318Y-218827D01*
X-60985D01*
X-59319Y-220493D01*
Y-222159D01*
X-60985Y-223825D01*
X-62652D01*
X-60985D01*
X-59319Y-225491D01*
Y-227157D01*
X-60985Y-228823D01*
X-64318D01*
X-65984Y-227157D01*
X95002Y-1668D02*
X93336Y-2D01*
X90003D01*
X88337Y-1668D01*
Y-3334D01*
X90003Y-5000D01*
X93336D01*
X95002Y-6666D01*
Y-8332D01*
X93336Y-9998D01*
X90003D01*
X88337Y-8332D01*
X98334Y-2D02*
Y-9998D01*
X103332D01*
X104998Y-8332D01*
Y-6666D01*
X103332Y-5000D01*
X98334D01*
X103332D01*
X104998Y-3334D01*
Y-1668D01*
X103332Y-2D01*
X98334D01*
X108331Y-9998D02*
X111663D01*
X109997D01*
Y-2D01*
X108331Y-1668D01*
X125251Y-97932D02*
X121918D01*
X123584D01*
Y-106263D01*
X121918Y-107929D01*
X120252D01*
X118586Y-106263D01*
X128583Y-99598D02*
X130249Y-97932D01*
X133581D01*
X135247Y-99598D01*
Y-101264D01*
X133581Y-102931D01*
X135247Y-104597D01*
Y-106263D01*
X133581Y-107929D01*
X130249D01*
X128583Y-106263D01*
Y-104597D01*
X130249Y-102931D01*
X128583Y-101264D01*
Y-99598D01*
X130249Y-102931D02*
X133581D01*
X-190725Y-97932D02*
X-194058D01*
X-192392D01*
Y-106263D01*
X-194058Y-107929D01*
X-195724D01*
X-197390Y-106263D01*
X-180729Y-97932D02*
X-187393D01*
Y-102931D01*
X-184061Y-101264D01*
X-182395D01*
X-180729Y-102931D01*
Y-106263D01*
X-182395Y-107929D01*
X-185727D01*
X-187393Y-106263D01*
X166669Y-95002D02*
Y-103332D01*
X168335Y-104998D01*
X171668D01*
X173334Y-103332D01*
Y-95002D01*
X183331Y-104998D02*
X176666D01*
X183331Y-98334D01*
Y-96668D01*
X181665Y-95002D01*
X178332D01*
X176666Y-96668D01*
X116400Y-30763D02*
X114734Y-29096D01*
X111402D01*
X109736Y-30763D01*
Y-37427D01*
X111402Y-39093D01*
X114734D01*
X116400Y-37427D01*
X119733Y-39093D02*
X123065D01*
X121399D01*
Y-29096D01*
X119733Y-30763D01*
X128063D02*
X129730Y-29096D01*
X133062D01*
X134728Y-30763D01*
Y-37427D01*
X133062Y-39093D01*
X129730D01*
X128063Y-37427D01*
Y-30763D01*
X231518Y-135216D02*
X229852Y-136882D01*
Y-140215D01*
X231518Y-141881D01*
X238182D01*
X239848Y-140215D01*
Y-136882D01*
X238182Y-135216D01*
Y-131884D02*
X239848Y-130218D01*
Y-126885D01*
X238182Y-125219D01*
X231518D01*
X229852Y-126885D01*
Y-130218D01*
X231518Y-131884D01*
X233184D01*
X234850Y-130218D01*
Y-125219D01*
X-79209Y37490D02*
X-80875Y35824D01*
Y32492D01*
X-79209Y30826D01*
X-72544D01*
X-70878Y32492D01*
Y35824D01*
X-72544Y37490D01*
X-79209Y40823D02*
X-80875Y42489D01*
Y45821D01*
X-79209Y47487D01*
X-77543D01*
X-75876Y45821D01*
X-74210Y47487D01*
X-72544D01*
X-70878Y45821D01*
Y42489D01*
X-72544Y40823D01*
X-74210D01*
X-75876Y42489D01*
X-77543Y40823D01*
X-79209D01*
X-75876Y42489D02*
Y45821D01*
X-144231Y161077D02*
Y171073D01*
X-139232D01*
X-137566Y169407D01*
Y166075D01*
X-139232Y164409D01*
X-144231D01*
X-140898D02*
X-137566Y161077D01*
X-134234Y169407D02*
X-132568Y171073D01*
X-129235D01*
X-127569Y169407D01*
Y167741D01*
X-129235Y166075D01*
X-130902D01*
X-129235D01*
X-127569Y164409D01*
Y162743D01*
X-129235Y161077D01*
X-132568D01*
X-134234Y162743D01*
X-118231Y161077D02*
Y171073D01*
X-113232D01*
X-111566Y169407D01*
Y166075D01*
X-113232Y164409D01*
X-118231D01*
X-114898D02*
X-111566Y161077D01*
X-101569D02*
X-108234D01*
X-101569Y167741D01*
Y169407D01*
X-103236Y171073D01*
X-106568D01*
X-108234Y169407D01*
X-138208Y105177D02*
Y115174D01*
X-133210D01*
X-131544Y113508D01*
Y110175D01*
X-133210Y108509D01*
X-138208D01*
X-134876D02*
X-131544Y105177D01*
X-128211D02*
X-124879D01*
X-126545D01*
Y115174D01*
X-128211Y113508D01*
X-91158Y-37226D02*
X-94490D01*
X-92824D01*
Y-45557D01*
X-94490Y-47223D01*
X-96156D01*
X-97822Y-45557D01*
X-82827Y-47223D02*
Y-37226D01*
X-87825Y-42225D01*
X-81161D01*
X140000Y114998D02*
X136668D01*
X138334D01*
Y106668D01*
X136668Y105002D01*
X135002D01*
X133336Y106668D01*
X143332Y105002D02*
X146664D01*
X144998D01*
Y114998D01*
X143332Y113332D01*
X2334Y17332D02*
X668Y18998D01*
X-2664D01*
X-4331Y17332D01*
Y10668D01*
X-2664Y9002D01*
X668D01*
X2334Y10668D01*
X5666Y18998D02*
X12331D01*
Y17332D01*
X5666Y10668D01*
Y9002D01*
X2334Y-2668D02*
X668Y-1002D01*
X-2664D01*
X-4331Y-2668D01*
Y-9332D01*
X-2664Y-10998D01*
X668D01*
X2334Y-9332D01*
X12331Y-1002D02*
X8998Y-2668D01*
X5666Y-6000D01*
Y-9332D01*
X7332Y-10998D01*
X10664D01*
X12331Y-9332D01*
Y-7666D01*
X10664Y-6000D01*
X5666D01*
X-125332Y38334D02*
X-126998Y36668D01*
Y33335D01*
X-125332Y31669D01*
X-118668D01*
X-117002Y33335D01*
Y36668D01*
X-118668Y38334D01*
X-126998Y48331D02*
Y41666D01*
X-122000D01*
X-123666Y44998D01*
Y46665D01*
X-122000Y48331D01*
X-118668D01*
X-117002Y46665D01*
Y43332D01*
X-118668Y41666D01*
X-43666Y177332D02*
X-45332Y178998D01*
X-48664D01*
X-50331Y177332D01*
Y170668D01*
X-48664Y169002D01*
X-45332D01*
X-43666Y170668D01*
X-35336Y169002D02*
Y178998D01*
X-40334Y174000D01*
X-33669D01*
X-149332Y36334D02*
X-150998Y34668D01*
Y31335D01*
X-149332Y29669D01*
X-142668D01*
X-141002Y31335D01*
Y34668D01*
X-142668Y36334D01*
X-149332Y39666D02*
X-150998Y41332D01*
Y44665D01*
X-149332Y46331D01*
X-147666D01*
X-146000Y44665D01*
Y42998D01*
Y44665D01*
X-144334Y46331D01*
X-142668D01*
X-141002Y44665D01*
Y41332D01*
X-142668Y39666D01*
X33811Y146528D02*
X32144Y148194D01*
X28812D01*
X27146Y146528D01*
Y139863D01*
X28812Y138197D01*
X32144D01*
X33811Y139863D01*
X43807Y138197D02*
X37143D01*
X43807Y144861D01*
Y146528D01*
X42141Y148194D01*
X38809D01*
X37143Y146528D01*
X93000Y218332D02*
X91334Y219998D01*
X88002D01*
X86335Y218332D01*
Y211668D01*
X88002Y210002D01*
X91334D01*
X93000Y211668D01*
X96332Y210002D02*
X99664D01*
X97998D01*
Y219998D01*
X96332Y218332D01*
M02*
