G04*
G04 #@! TF.GenerationSoftware,Altium Limited,Altium Designer,23.8.1 (32)*
G04*
G04 Layer_Physical_Order=2*
G04 Layer_Color=16711680*
%FSLAX44Y44*%
%MOMM*%
G71*
G04*
G04 #@! TF.SameCoordinates,30061C5B-BE2C-44CF-A243-5EA776C9CE0C*
G04*
G04*
G04 #@! TF.FilePolarity,Positive*
G04*
G01*
G75*
%ADD13C,0.2000*%
%ADD48C,0.4000*%
%ADD49C,0.6000*%
G04:AMPARAMS|DCode=50|XSize=1.8mm|YSize=1mm|CornerRadius=0.25mm|HoleSize=0mm|Usage=FLASHONLY|Rotation=225.000|XOffset=0mm|YOffset=0mm|HoleType=Round|Shape=RoundedRectangle|*
%AMROUNDEDRECTD50*
21,1,1.8000,0.5000,0,0,225.0*
21,1,1.3000,1.0000,0,0,225.0*
1,1,0.5000,-0.6364,-0.2828*
1,1,0.5000,0.2828,0.6364*
1,1,0.5000,0.6364,0.2828*
1,1,0.5000,-0.2828,-0.6364*
%
%ADD50ROUNDEDRECTD50*%
G04:AMPARAMS|DCode=51|XSize=2.1mm|YSize=1mm|CornerRadius=0.25mm|HoleSize=0mm|Usage=FLASHONLY|Rotation=225.000|XOffset=0mm|YOffset=0mm|HoleType=Round|Shape=RoundedRectangle|*
%AMROUNDEDRECTD51*
21,1,2.1000,0.5000,0,0,225.0*
21,1,1.6000,1.0000,0,0,225.0*
1,1,0.5000,-0.7425,-0.3889*
1,1,0.5000,0.3889,0.7425*
1,1,0.5000,0.7425,0.3889*
1,1,0.5000,-0.3889,-0.7425*
%
%ADD51ROUNDEDRECTD51*%
%ADD52C,0.6500*%
%ADD53C,2.0000*%
%ADD54C,2.4000*%
%ADD55C,4.5000*%
%ADD56C,2.3750*%
%ADD57C,0.9910*%
%ADD58C,0.6000*%
%ADD59C,1.0000*%
G04:AMPARAMS|DCode=60|XSize=0.6mm|YSize=1.35mm|CornerRadius=0mm|HoleSize=0mm|Usage=FLASHONLY|Rotation=315.000|XOffset=0mm|YOffset=0mm|HoleType=Round|Shape=Rectangle|*
%AMROTATEDRECTD60*
4,1,4,-0.6894,-0.2652,0.2652,0.6894,0.6894,0.2652,-0.2652,-0.6894,-0.6894,-0.2652,0.0*
%
%ADD60ROTATEDRECTD60*%

G04:AMPARAMS|DCode=61|XSize=0.3mm|YSize=1.35mm|CornerRadius=0mm|HoleSize=0mm|Usage=FLASHONLY|Rotation=315.000|XOffset=0mm|YOffset=0mm|HoleType=Round|Shape=Rectangle|*
%AMROTATEDRECTD61*
4,1,4,-0.5834,-0.3712,0.3712,0.5834,0.5834,0.3712,-0.3712,-0.5834,-0.5834,-0.3712,0.0*
%
%ADD61ROTATEDRECTD61*%

G36*
X245718Y184143D02*
X264918Y164943D01*
Y-164943D01*
X126518Y-303342D01*
X-126518D01*
X-264918Y-164943D01*
Y164943D01*
X-126518Y303342D01*
X126518D01*
X245718Y184143D01*
D02*
G37*
%LPC*%
G36*
X-36969Y300755D02*
X-38831D01*
X-40551Y300042D01*
X-41867Y298726D01*
X-42580Y297006D01*
Y295144D01*
X-41867Y293424D01*
X-41487Y293043D01*
X-41450Y292976D01*
X-41288Y292782D01*
X-41177Y292633D01*
X-41085Y292488D01*
X-41009Y292349D01*
X-40947Y292212D01*
X-40899Y292079D01*
X-40862Y291945D01*
X-40836Y291810D01*
X-40833Y291783D01*
Y282658D01*
X-40836Y282631D01*
X-40861Y282508D01*
X-40897Y282388D01*
X-40943Y282271D01*
X-41001Y282153D01*
X-41074Y282032D01*
X-41163Y281906D01*
X-41271Y281776D01*
X-41439Y281600D01*
X-41519Y281475D01*
X-42067Y280926D01*
X-42780Y279206D01*
Y277344D01*
X-42067Y275624D01*
X-40751Y274307D01*
X-39031Y273595D01*
X-37169D01*
X-35449Y274307D01*
X-34132Y275624D01*
X-33420Y277344D01*
Y279206D01*
X-34132Y280926D01*
X-34682Y281475D01*
X-34761Y281600D01*
X-34929Y281776D01*
X-35037Y281906D01*
X-35126Y282032D01*
X-35199Y282153D01*
X-35257Y282271D01*
X-35303Y282389D01*
X-35339Y282508D01*
X-35364Y282631D01*
X-35368Y282658D01*
Y291619D01*
X-35364Y291645D01*
X-35340Y291757D01*
X-35307Y291861D01*
X-35264Y291961D01*
X-35211Y292061D01*
X-35144Y292164D01*
X-35060Y292269D01*
X-34957Y292381D01*
X-34786Y292538D01*
X-34700Y292656D01*
X-33932Y293424D01*
X-33220Y295144D01*
Y297006D01*
X-33932Y298726D01*
X-35249Y300042D01*
X-36969Y300755D01*
D02*
G37*
G36*
X69638Y277755D02*
X66562D01*
X63592Y276959D01*
X60928Y275421D01*
X58754Y273247D01*
X57216Y270583D01*
X56420Y267613D01*
Y264537D01*
X57216Y261567D01*
X58754Y258903D01*
X60928Y256729D01*
X63592Y255191D01*
X66562Y254395D01*
X69638D01*
X72608Y255191D01*
X75272Y256729D01*
X77446Y258903D01*
X78984Y261567D01*
X79780Y264537D01*
Y267613D01*
X78984Y270583D01*
X77446Y273247D01*
X75272Y275421D01*
X72608Y276959D01*
X69638Y277755D01*
D02*
G37*
G36*
X-66562D02*
X-69638D01*
X-72608Y276959D01*
X-75272Y275421D01*
X-77446Y273247D01*
X-78984Y270583D01*
X-79780Y267613D01*
Y264537D01*
X-78984Y261567D01*
X-77446Y258903D01*
X-75272Y256729D01*
X-72608Y255191D01*
X-69638Y254395D01*
X-66562D01*
X-63592Y255191D01*
X-60928Y256729D01*
X-58754Y258903D01*
X-57216Y261567D01*
X-56420Y264537D01*
Y267613D01*
X-57216Y270583D01*
X-58754Y273247D01*
X-60928Y275421D01*
X-63592Y276959D01*
X-66562Y277755D01*
D02*
G37*
G36*
X20931Y208680D02*
X19069D01*
X17349Y207967D01*
X16033Y206651D01*
X15320Y204931D01*
Y203069D01*
X16033Y201349D01*
X17349Y200033D01*
X19069Y199320D01*
X20931D01*
X22651Y200033D01*
X23967Y201349D01*
X24680Y203069D01*
Y204931D01*
X23967Y206651D01*
X22651Y207967D01*
X20931Y208680D01*
D02*
G37*
G36*
X-147619Y234180D02*
X-152381D01*
X-157053Y233251D01*
X-161453Y231428D01*
X-165414Y228782D01*
X-168782Y225414D01*
X-171428Y221453D01*
X-173251Y217053D01*
X-174180Y212381D01*
Y207619D01*
X-173251Y202947D01*
X-171428Y198547D01*
X-168782Y194586D01*
X-165414Y191218D01*
X-161453Y188572D01*
X-157053Y186749D01*
X-152381Y185820D01*
X-147619D01*
X-142947Y186749D01*
X-138546Y188572D01*
X-134586Y191218D01*
X-131218Y194586D01*
X-128572Y198547D01*
X-126749Y202947D01*
X-125820Y207619D01*
Y212381D01*
X-126749Y217053D01*
X-128572Y221453D01*
X-131218Y225414D01*
X-134586Y228782D01*
X-138546Y231428D01*
X-142947Y233251D01*
X-147619Y234180D01*
D02*
G37*
G36*
X-74569Y190180D02*
X-76431D01*
X-78151Y189468D01*
X-79468Y188151D01*
X-80180Y186431D01*
Y184569D01*
X-79468Y182849D01*
X-78151Y181532D01*
X-76431Y180820D01*
X-74569D01*
X-72849Y181532D01*
X-71532Y182849D01*
X-70820Y184569D01*
Y186431D01*
X-71532Y188151D01*
X-72849Y189468D01*
X-74569Y190180D01*
D02*
G37*
G36*
X148236Y261946D02*
X146605Y261621D01*
X145222Y260697D01*
X136030Y251505D01*
X135106Y250123D01*
X134782Y248492D01*
X135106Y246861D01*
X135898Y245675D01*
X122556Y232333D01*
X121371Y233125D01*
X119740Y233449D01*
X118109Y233125D01*
X116726Y232201D01*
X105412Y220887D01*
X104488Y219505D01*
X104164Y217874D01*
X104488Y216243D01*
X105412Y214860D01*
X108948Y211325D01*
X110330Y210401D01*
X110636Y210340D01*
X111054Y208962D01*
X108511Y206419D01*
X111530Y203399D01*
X118099Y209968D01*
X119895Y208172D01*
X113326Y201603D01*
X114711Y200219D01*
X109212Y194719D01*
X109132Y194666D01*
X108698Y194487D01*
X108366Y194154D01*
X107975Y193893D01*
X107714Y193502D01*
X107382Y193170D01*
X107202Y192736D01*
X106941Y192345D01*
X106849Y191884D01*
X106669Y191450D01*
Y190980D01*
X106577Y190519D01*
X106669Y190058D01*
Y189588D01*
X106849Y189154D01*
X106941Y188693D01*
X107202Y188302D01*
X107326Y188002D01*
X107094Y187374D01*
X106721Y186733D01*
X78905D01*
X78435Y188002D01*
X79419Y188987D01*
X80132Y190707D01*
Y192569D01*
X79419Y194289D01*
X78103Y195606D01*
X76383Y196318D01*
X74521D01*
X72801Y195606D01*
X72535Y195340D01*
X72339Y195192D01*
X72174Y195082D01*
X72015Y194989D01*
X71861Y194912D01*
X71710Y194849D01*
X71564Y194799D01*
X71419Y194762D01*
X71274Y194735D01*
X71249Y194732D01*
X6025D01*
X6025Y194732D01*
X4979Y194524D01*
X4093Y193932D01*
X-36572Y153267D01*
X-37164Y152381D01*
X-37373Y151335D01*
Y118552D01*
X-37376Y118525D01*
X-37401Y118402D01*
X-37437Y118283D01*
X-37483Y118166D01*
X-37541Y118047D01*
X-37614Y117926D01*
X-37703Y117800D01*
X-37811Y117670D01*
X-37979Y117494D01*
X-38059Y117369D01*
X-38607Y116820D01*
X-39320Y115100D01*
Y113238D01*
X-38607Y111518D01*
X-37291Y110202D01*
X-35571Y109489D01*
X-33709D01*
X-31989Y110202D01*
X-30673Y111518D01*
X-29960Y113238D01*
Y115100D01*
X-30673Y116820D01*
X-31222Y117369D01*
X-31301Y117494D01*
X-31469Y117670D01*
X-31577Y117800D01*
X-31666Y117926D01*
X-31739Y118047D01*
X-31797Y118165D01*
X-31843Y118283D01*
X-31879Y118402D01*
X-31904Y118526D01*
X-31907Y118552D01*
Y150203D01*
X7157Y189268D01*
X70950D01*
X70974Y189264D01*
X71076Y189241D01*
X71169Y189210D01*
X71255Y189172D01*
X71339Y189124D01*
X71426Y189063D01*
X71468Y189028D01*
X71484Y188987D01*
X72469Y188002D01*
X71999Y186733D01*
X22000D01*
X20954Y186525D01*
X20068Y185932D01*
X10068Y175932D01*
X9475Y175046D01*
X9268Y174000D01*
Y162383D01*
X9264Y162356D01*
X9239Y162233D01*
X9203Y162114D01*
X9157Y161996D01*
X9099Y161878D01*
X9026Y161757D01*
X8937Y161631D01*
X8829Y161501D01*
X8661Y161325D01*
X8582Y161200D01*
X8033Y160651D01*
X7320Y158931D01*
Y157069D01*
X8033Y155349D01*
X9349Y154032D01*
X11069Y153320D01*
X12931D01*
X14651Y154032D01*
X15968Y155349D01*
X16680Y157069D01*
Y158147D01*
X16972Y159028D01*
X17853Y159320D01*
X18931D01*
X20651Y160033D01*
X21200Y160582D01*
X21325Y160661D01*
X21501Y160829D01*
X21631Y160937D01*
X21757Y161026D01*
X21878Y161099D01*
X21996Y161157D01*
X22114Y161203D01*
X22233Y161239D01*
X22356Y161264D01*
X22383Y161268D01*
X45617D01*
X45644Y161264D01*
X45767Y161239D01*
X45886Y161203D01*
X46004Y161157D01*
X46122Y161099D01*
X46243Y161026D01*
X46369Y160937D01*
X46499Y160829D01*
X46675Y160661D01*
X46800Y160581D01*
X47349Y160033D01*
X49069Y159320D01*
X50931D01*
X52651Y160033D01*
X53967Y161349D01*
X54680Y163069D01*
Y164931D01*
X53967Y166651D01*
X52651Y167967D01*
X50931Y168680D01*
X49069D01*
X47349Y167967D01*
X46800Y167418D01*
X46675Y167339D01*
X46499Y167171D01*
X46369Y167063D01*
X46243Y166974D01*
X46122Y166901D01*
X46004Y166843D01*
X45886Y166797D01*
X45767Y166761D01*
X45644Y166736D01*
X45617Y166733D01*
X22383D01*
X22356Y166736D01*
X22233Y166761D01*
X22114Y166797D01*
X21996Y166843D01*
X21878Y166901D01*
X21757Y166974D01*
X21631Y167063D01*
X21501Y167171D01*
X21332Y167332D01*
X21171Y167501D01*
X21063Y167631D01*
X20974Y167757D01*
X20901Y167878D01*
X20843Y167996D01*
X20797Y168114D01*
X20761Y168233D01*
X20736Y168356D01*
X20733Y168383D01*
Y170868D01*
X27132Y177267D01*
X131615D01*
X136079Y172804D01*
X136965Y172212D01*
X138011Y172004D01*
X139817D01*
X140863Y172212D01*
X141749Y172804D01*
X142546Y173600D01*
X149260Y166886D01*
X142438Y160063D01*
X142349Y160026D01*
X142017Y159694D01*
X141626Y159433D01*
X141365Y159042D01*
X141032Y158710D01*
X140853Y158276D01*
X140591Y157885D01*
X140500Y157424D01*
X140320Y156990D01*
Y156520D01*
X140228Y156059D01*
X140320Y155598D01*
Y155128D01*
X140500Y154694D01*
X140591Y154233D01*
X140853Y153842D01*
X141032Y153408D01*
X141365Y153075D01*
X141626Y152685D01*
X142017Y152424D01*
X142349Y152091D01*
X142783Y151911D01*
X143174Y151650D01*
X143635Y151559D01*
X144069Y151379D01*
X144539D01*
X145000Y151287D01*
X145182D01*
X145643Y151379D01*
X145931D01*
X146197Y151489D01*
X147008Y151650D01*
X148556Y152685D01*
X155400Y159529D01*
X156785Y158145D01*
X163354Y164713D01*
X165150Y162917D01*
X158581Y156348D01*
X161600Y153329D01*
X164144Y155872D01*
X165522Y155454D01*
X165583Y155149D01*
X166506Y153766D01*
X170042Y150231D01*
X171425Y149307D01*
X173055Y148982D01*
X174687Y149307D01*
X176069Y150231D01*
X187383Y161544D01*
X188307Y162927D01*
X188631Y164558D01*
X188307Y166189D01*
X187383Y167572D01*
X183847Y171107D01*
X182465Y172031D01*
X180834Y172355D01*
X179203Y172031D01*
X177820Y171107D01*
X173959Y167246D01*
X172483Y168723D01*
X172730Y169968D01*
X173179Y170154D01*
X174566Y171541D01*
X175316Y173353D01*
Y175314D01*
X174566Y177126D01*
X173179Y178513D01*
X171367Y179264D01*
X169405D01*
X167593Y178513D01*
X166207Y177126D01*
X165753Y176032D01*
X164283Y175707D01*
X161927Y178062D01*
X163833Y179969D01*
X163854Y179985D01*
X163960Y180054D01*
X164069Y180114D01*
X164184Y180164D01*
X164309Y180206D01*
X164447Y180241D01*
X164598Y180266D01*
X164767Y180282D01*
X165010Y180288D01*
X165155Y180320D01*
X165931D01*
X167651Y181033D01*
X168967Y182349D01*
X169680Y184069D01*
Y185931D01*
X168967Y187651D01*
X167651Y188967D01*
X165931Y189680D01*
X164069D01*
X162349Y188967D01*
X161033Y187651D01*
X160320Y185931D01*
Y185155D01*
X160288Y185010D01*
X160282Y184767D01*
X160266Y184598D01*
X160241Y184447D01*
X160206Y184309D01*
X160164Y184184D01*
X160114Y184069D01*
X160054Y183960D01*
X159985Y183854D01*
X159969Y183833D01*
X158062Y181927D01*
X155137Y184852D01*
X151285Y188704D01*
X152156Y189575D01*
X152749Y190461D01*
X152957Y191507D01*
Y193164D01*
X152749Y194210D01*
X152156Y195096D01*
X147171Y200082D01*
X146284Y200674D01*
X145238Y200882D01*
X144199D01*
X143619Y202050D01*
X144092Y202689D01*
X144242Y202814D01*
X147192D01*
X147219Y202811D01*
X147343Y202785D01*
X147462Y202750D01*
X147579Y202704D01*
X147697Y202645D01*
X147819Y202573D01*
X147944Y202484D01*
X148075Y202375D01*
X148251Y202208D01*
X148376Y202128D01*
X148925Y201579D01*
X150645Y200867D01*
X152507D01*
X154227Y201579D01*
X155543Y202896D01*
X156256Y204616D01*
Y206478D01*
X155543Y208198D01*
X154227Y209514D01*
X152507Y210227D01*
X150645D01*
X148925Y209514D01*
X148376Y208965D01*
X148251Y208886D01*
X148075Y208718D01*
X147944Y208610D01*
X147819Y208521D01*
X147697Y208448D01*
X147579Y208390D01*
X147462Y208344D01*
X147343Y208308D01*
X147219Y208283D01*
X147192Y208279D01*
X142869D01*
X141823Y208071D01*
X140937Y207479D01*
X136724Y203266D01*
X133924Y206065D01*
X133924Y206065D01*
X130888Y209101D01*
X131214Y210572D01*
X132308Y211025D01*
X133695Y212412D01*
X134445Y214224D01*
Y216185D01*
X133695Y217997D01*
X132308Y219384D01*
X130496Y220135D01*
X128535D01*
X126723Y219384D01*
X125336Y217997D01*
X125150Y217549D01*
X123905Y217301D01*
X122428Y218778D01*
X126289Y222638D01*
X127213Y224021D01*
X127537Y225652D01*
X127213Y227283D01*
X126420Y228468D01*
X139763Y241811D01*
X140948Y241019D01*
X142579Y240694D01*
X144210Y241019D01*
X145593Y241942D01*
X152594Y248943D01*
X153469Y248068D01*
X154356Y247475D01*
X155401Y247267D01*
X155401Y247267D01*
X168045D01*
X205007Y210305D01*
Y199010D01*
X204995Y198831D01*
X204958Y198541D01*
X204913Y198306D01*
X204873Y198160D01*
X197124Y190411D01*
X196200Y189028D01*
X195876Y187397D01*
X196200Y185767D01*
X197124Y184384D01*
X200660Y180848D01*
X202042Y179925D01*
X203673Y179600D01*
X205304Y179925D01*
X206687Y180848D01*
X215879Y190041D01*
X216803Y191423D01*
X217127Y193054D01*
X216803Y194685D01*
X215879Y196068D01*
X212344Y199604D01*
X210961Y200527D01*
X210472Y200625D01*
Y211437D01*
X210264Y212483D01*
X209672Y213369D01*
X171109Y251932D01*
X170222Y252525D01*
X169177Y252733D01*
X156827D01*
X155957Y253764D01*
X156033Y254148D01*
X155709Y255779D01*
X154785Y257162D01*
X151250Y260697D01*
X149867Y261621D01*
X148236Y261946D01*
D02*
G37*
G36*
X-108969Y160755D02*
X-110831D01*
X-112551Y160042D01*
X-113868Y158726D01*
X-114580Y157006D01*
Y155144D01*
X-113868Y153424D01*
X-112551Y152107D01*
X-110831Y151395D01*
X-108969D01*
X-107249Y152107D01*
X-105933Y153424D01*
X-105220Y155144D01*
Y157006D01*
X-105933Y158726D01*
X-107249Y160042D01*
X-108969Y160755D01*
D02*
G37*
G36*
X-134969D02*
X-136831D01*
X-138551Y160042D01*
X-139867Y158726D01*
X-140580Y157006D01*
Y155144D01*
X-139867Y153424D01*
X-138551Y152107D01*
X-136831Y151395D01*
X-134969D01*
X-133249Y152107D01*
X-131932Y153424D01*
X-131220Y155144D01*
Y157006D01*
X-131932Y158726D01*
X-133249Y160042D01*
X-134969Y160755D01*
D02*
G37*
G36*
X114485Y175305D02*
X110915D01*
X107468Y174381D01*
X104377Y172597D01*
X101853Y170073D01*
X100069Y166982D01*
X99145Y163535D01*
Y159965D01*
X100069Y156518D01*
X101853Y153427D01*
X104377Y150903D01*
X107468Y149119D01*
X110915Y148195D01*
X114485D01*
X117932Y149119D01*
X121023Y150903D01*
X123547Y153427D01*
X125331Y156518D01*
X126255Y159965D01*
Y163535D01*
X125331Y166982D01*
X123547Y170073D01*
X121023Y172597D01*
X117932Y174381D01*
X114485Y175305D01*
D02*
G37*
G36*
X76385D02*
X72815D01*
X69368Y174381D01*
X66277Y172597D01*
X63753Y170073D01*
X61969Y166982D01*
X61045Y163535D01*
Y159965D01*
X61969Y156518D01*
X63227Y154338D01*
X63052Y153876D01*
X62450Y153145D01*
X61027D01*
X59339Y152693D01*
X57826Y151819D01*
X56591Y150584D01*
X55717Y149071D01*
X55265Y147383D01*
Y145637D01*
X55717Y143949D01*
X56591Y142436D01*
X57826Y141201D01*
X59339Y140327D01*
X61027Y139875D01*
X62773D01*
X64461Y140327D01*
X65974Y141201D01*
X67209Y142436D01*
X68083Y143949D01*
X68535Y145637D01*
Y147383D01*
X68297Y148270D01*
X69368Y149119D01*
X72815Y148195D01*
X76385D01*
X79832Y149119D01*
X82923Y150903D01*
X85447Y153427D01*
X87231Y156518D01*
X88155Y159965D01*
Y163535D01*
X87231Y166982D01*
X85447Y170073D01*
X82923Y172597D01*
X79832Y174381D01*
X76385Y175305D01*
D02*
G37*
G36*
X113574Y142985D02*
X111826D01*
X110139Y142533D01*
X108626Y141659D01*
X107391Y140424D01*
X106517Y138911D01*
X106065Y137224D01*
Y135477D01*
X106517Y133789D01*
X107391Y132276D01*
X108626Y131041D01*
X110139Y130167D01*
X111826Y129715D01*
X113574D01*
X115261Y130167D01*
X116774Y131041D01*
X118009Y132276D01*
X118883Y133789D01*
X119335Y135477D01*
Y137224D01*
X118883Y138911D01*
X118009Y140424D01*
X116774Y141659D01*
X115261Y142533D01*
X113574Y142985D01*
D02*
G37*
G36*
X45786Y129680D02*
X43924D01*
X42204Y128968D01*
X40887Y127651D01*
X40175Y125931D01*
Y124069D01*
X40887Y122349D01*
X42204Y121032D01*
X43924Y120320D01*
X45786D01*
X47506Y121032D01*
X48823Y122349D01*
X49535Y124069D01*
Y125931D01*
X48823Y127651D01*
X47506Y128968D01*
X45786Y129680D01*
D02*
G37*
G36*
X-108969Y112755D02*
X-110831D01*
X-112551Y112043D01*
X-113245Y111348D01*
X-113376Y111257D01*
X-113539Y111087D01*
X-113656Y110982D01*
X-113767Y110896D01*
X-113875Y110827D01*
X-113981Y110772D01*
X-114086Y110729D01*
X-114194Y110695D01*
X-114310Y110670D01*
X-114336Y110667D01*
X-133579D01*
X-133606Y110670D01*
X-133738Y110696D01*
X-133867Y110733D01*
X-133996Y110781D01*
X-134127Y110841D01*
X-134261Y110917D01*
X-134400Y111008D01*
X-134544Y111118D01*
X-134732Y111282D01*
X-134822Y111334D01*
X-135249Y111761D01*
X-136969Y112473D01*
X-138831D01*
X-140551Y111761D01*
X-141868Y110444D01*
X-142580Y108724D01*
Y106862D01*
X-141868Y105142D01*
X-140551Y103826D01*
X-138831Y103113D01*
X-136969D01*
X-135249Y103826D01*
X-134555Y104520D01*
X-134424Y104611D01*
X-134261Y104781D01*
X-134144Y104887D01*
X-134033Y104972D01*
X-133925Y105041D01*
X-133819Y105096D01*
X-133714Y105140D01*
X-133606Y105173D01*
X-133490Y105198D01*
X-133464Y105202D01*
X-114221D01*
X-114194Y105198D01*
X-114062Y105172D01*
X-113933Y105136D01*
X-113804Y105088D01*
X-113673Y105027D01*
X-113539Y104952D01*
X-113400Y104860D01*
X-113256Y104750D01*
X-113068Y104586D01*
X-112978Y104535D01*
X-112551Y104107D01*
X-110831Y103395D01*
X-108969D01*
X-107249Y104107D01*
X-105933Y105424D01*
X-105220Y107144D01*
Y109006D01*
X-105933Y110726D01*
X-107249Y112043D01*
X-108969Y112755D01*
D02*
G37*
G36*
X114485Y124505D02*
X110915D01*
X107468Y123581D01*
X104377Y121797D01*
X101853Y119273D01*
X100069Y116182D01*
X99145Y112734D01*
Y109165D01*
X100069Y105718D01*
X101853Y102627D01*
X104377Y100103D01*
X107468Y98319D01*
X110915Y97395D01*
X114485D01*
X117932Y98319D01*
X121023Y100103D01*
X123547Y102627D01*
X125331Y105718D01*
X126255Y109165D01*
Y112734D01*
X125331Y116182D01*
X123547Y119273D01*
X121023Y121797D01*
X117932Y123581D01*
X114485Y124505D01*
D02*
G37*
G36*
X62773Y132825D02*
X61027D01*
X59339Y132373D01*
X57826Y131499D01*
X56591Y130264D01*
X55717Y128751D01*
X55265Y127064D01*
Y125316D01*
X55717Y123629D01*
X56591Y122116D01*
X57826Y120881D01*
X59339Y120007D01*
X61027Y119555D01*
X62450D01*
X63052Y118824D01*
X63227Y118362D01*
X61969Y116182D01*
X61045Y112734D01*
Y109165D01*
X61969Y105718D01*
X63753Y102627D01*
X66277Y100103D01*
X69368Y98319D01*
X72815Y97395D01*
X76385D01*
X79832Y98319D01*
X82923Y100103D01*
X85447Y102627D01*
X87231Y105718D01*
X88155Y109165D01*
Y112734D01*
X87231Y116182D01*
X85447Y119273D01*
X82923Y121797D01*
X79832Y123581D01*
X76385Y124505D01*
X72815D01*
X69368Y123581D01*
X68297Y124430D01*
X68535Y125316D01*
Y127064D01*
X68083Y128751D01*
X67209Y130264D01*
X65974Y131499D01*
X64461Y132373D01*
X62773Y132825D01*
D02*
G37*
G36*
X-226112Y117855D02*
X-229188D01*
X-232158Y117059D01*
X-234822Y115521D01*
X-236996Y113347D01*
X-238534Y110683D01*
X-239330Y107713D01*
Y104637D01*
X-238534Y101667D01*
X-236996Y99003D01*
X-234822Y96829D01*
X-232158Y95291D01*
X-229188Y94495D01*
X-226112D01*
X-223142Y95291D01*
X-220478Y96829D01*
X-218304Y99003D01*
X-216766Y101667D01*
X-215970Y104637D01*
Y107713D01*
X-216766Y110683D01*
X-218304Y113347D01*
X-220478Y115521D01*
X-223142Y117059D01*
X-226112Y117855D01*
D02*
G37*
G36*
X229188Y117855D02*
X226112D01*
X223142Y117059D01*
X220478Y115521D01*
X218304Y113347D01*
X216766Y110683D01*
X215970Y107713D01*
Y104637D01*
X216766Y101667D01*
X218304Y99003D01*
X220478Y96829D01*
X223142Y95291D01*
X226112Y94495D01*
X229188D01*
X232158Y95291D01*
X234822Y96829D01*
X236996Y99003D01*
X238534Y101667D01*
X239330Y104637D01*
Y107713D01*
X238534Y110683D01*
X236996Y113347D01*
X234822Y115521D01*
X232158Y117059D01*
X229188Y117855D01*
D02*
G37*
G36*
X-20969Y94755D02*
X-22831D01*
X-24551Y94043D01*
X-24740Y93853D01*
X-25240Y93827D01*
X-33900D01*
X-35336Y93541D01*
X-36553Y92728D01*
X-40653Y88628D01*
X-41466Y87411D01*
X-41752Y85975D01*
Y-2446D01*
X-86703Y-47397D01*
X-87516Y-48614D01*
X-87802Y-50050D01*
Y-55238D01*
X-87802Y-55242D01*
X-87915Y-55830D01*
X-88111Y-56467D01*
X-88400Y-57152D01*
X-88785Y-57884D01*
X-89271Y-58659D01*
X-89847Y-59456D01*
X-91364Y-61227D01*
X-92273Y-62154D01*
X-92360Y-62287D01*
X-93396Y-63323D01*
X-94934Y-65987D01*
X-95730Y-68957D01*
Y-72033D01*
X-94934Y-75003D01*
X-93396Y-77667D01*
X-91222Y-79841D01*
X-88558Y-81379D01*
X-85588Y-82175D01*
X-82512D01*
X-79542Y-81379D01*
X-76878Y-79841D01*
X-74704Y-77667D01*
X-73166Y-75003D01*
X-72370Y-72033D01*
Y-68957D01*
X-73166Y-65987D01*
X-74704Y-63323D01*
X-75728Y-62299D01*
X-75802Y-62180D01*
X-77560Y-60311D01*
X-78240Y-59474D01*
X-78829Y-58659D01*
X-79315Y-57884D01*
X-79700Y-57152D01*
X-79988Y-56467D01*
X-80185Y-55830D01*
X-80298Y-55242D01*
X-80298Y-55238D01*
Y-51604D01*
X-35347Y-6653D01*
X-34534Y-5436D01*
X-34248Y-4000D01*
Y84421D01*
X-32346Y86323D01*
X-24766D01*
X-24551Y86107D01*
X-22831Y85395D01*
X-20969D01*
X-19249Y86107D01*
X-17932Y87424D01*
X-17220Y89144D01*
Y91006D01*
X-17932Y92726D01*
X-19249Y94043D01*
X-20969Y94755D01*
D02*
G37*
G36*
X65150Y86296D02*
X63288D01*
X61568Y85584D01*
X61019Y85035D01*
X60894Y84955D01*
X60718Y84788D01*
X60588Y84679D01*
X60462Y84590D01*
X60341Y84517D01*
X60223Y84459D01*
X60106Y84413D01*
X59987Y84378D01*
X59863Y84352D01*
X59836Y84349D01*
X35616D01*
X34570Y84141D01*
X33684Y83548D01*
X6168Y56032D01*
X5576Y55146D01*
X5368Y54100D01*
Y34458D01*
X5364Y34431D01*
X5339Y34308D01*
X5303Y34188D01*
X5257Y34071D01*
X5199Y33953D01*
X5126Y33832D01*
X5037Y33706D01*
X4929Y33576D01*
X4761Y33400D01*
X4681Y33275D01*
X4132Y32726D01*
X3420Y31006D01*
Y29144D01*
X4132Y27424D01*
X5449Y26107D01*
X7169Y25395D01*
X9031D01*
X10751Y26107D01*
X12068Y27424D01*
X12780Y29144D01*
Y31006D01*
X12068Y32726D01*
X11518Y33275D01*
X11439Y33400D01*
X11271Y33576D01*
X11163Y33706D01*
X11074Y33832D01*
X11001Y33953D01*
X10943Y34071D01*
X10897Y34189D01*
X10861Y34308D01*
X10836Y34431D01*
X10833Y34458D01*
Y52968D01*
X36748Y78884D01*
X59836D01*
X59863Y78880D01*
X59987Y78855D01*
X60106Y78819D01*
X60223Y78773D01*
X60341Y78715D01*
X60463Y78642D01*
X60588Y78553D01*
X60718Y78445D01*
X60894Y78277D01*
X61019Y78198D01*
X61568Y77649D01*
X63288Y76936D01*
X65150D01*
X66870Y77649D01*
X68187Y78965D01*
X68899Y80685D01*
Y82547D01*
X68187Y84267D01*
X66870Y85584D01*
X65150Y86296D01*
D02*
G37*
G36*
X-50969Y118755D02*
X-52831D01*
X-54551Y118042D01*
X-55868Y116726D01*
X-56580Y115006D01*
Y113144D01*
X-55868Y111424D01*
X-55318Y110875D01*
X-55239Y110750D01*
X-55071Y110574D01*
X-54963Y110444D01*
X-54874Y110318D01*
X-54801Y110197D01*
X-54743Y110079D01*
X-54697Y109961D01*
X-54661Y109842D01*
X-54636Y109719D01*
X-54633Y109692D01*
Y108700D01*
X-54425Y107655D01*
X-53832Y106768D01*
X-45132Y98068D01*
X-44245Y97476D01*
X-43200Y97268D01*
X57915D01*
X76971Y78211D01*
X77858Y77619D01*
X78903Y77411D01*
X91099D01*
X91126Y77408D01*
X91253Y77382D01*
X91376Y77346D01*
X91498Y77299D01*
X91622Y77240D01*
X91749Y77166D01*
X91879Y77075D01*
X92015Y76966D01*
X92196Y76800D01*
X92310Y76731D01*
X92808Y76233D01*
X94528Y75520D01*
X96390D01*
X98110Y76233D01*
X99426Y77549D01*
X100139Y79269D01*
Y81131D01*
X99426Y82851D01*
X98110Y84167D01*
X96390Y84880D01*
X94528D01*
X92808Y84167D01*
X92204Y83564D01*
X92072Y83477D01*
X91902Y83308D01*
X91777Y83201D01*
X91657Y83113D01*
X91541Y83042D01*
X91427Y82985D01*
X91315Y82940D01*
X91200Y82905D01*
X91080Y82879D01*
X91053Y82876D01*
X80035D01*
X60979Y101932D01*
X60093Y102524D01*
X59047Y102732D01*
X-42068D01*
X-49145Y109810D01*
X-49139Y109842D01*
X-49103Y109961D01*
X-49057Y110079D01*
X-48999Y110197D01*
X-48926Y110318D01*
X-48837Y110444D01*
X-48729Y110574D01*
X-48561Y110750D01*
X-48481Y110875D01*
X-47933Y111424D01*
X-47220Y113144D01*
Y115006D01*
X-47933Y116726D01*
X-49249Y118042D01*
X-50969Y118755D01*
D02*
G37*
G36*
X-18969Y74755D02*
X-20831D01*
X-22551Y74043D01*
X-22740Y73853D01*
X-23240Y73827D01*
X-25657D01*
X-27093Y73541D01*
X-28310Y72728D01*
X-30653Y70385D01*
X-31467Y69168D01*
X-31752Y67732D01*
Y-5759D01*
X-61303Y-35310D01*
X-62116Y-36527D01*
X-62402Y-37963D01*
Y-55238D01*
X-62402Y-55242D01*
X-62515Y-55830D01*
X-62712Y-56467D01*
X-63000Y-57152D01*
X-63386Y-57884D01*
X-63871Y-58659D01*
X-64447Y-59456D01*
X-65964Y-61227D01*
X-66873Y-62154D01*
X-66960Y-62287D01*
X-67996Y-63323D01*
X-69534Y-65987D01*
X-70330Y-68957D01*
Y-72033D01*
X-69534Y-75003D01*
X-67996Y-77667D01*
X-65822Y-79841D01*
X-63158Y-81379D01*
X-60188Y-82175D01*
X-57112D01*
X-54142Y-81379D01*
X-51478Y-79841D01*
X-49304Y-77667D01*
X-47766Y-75003D01*
X-46970Y-72033D01*
Y-68957D01*
X-47766Y-65987D01*
X-49304Y-63323D01*
X-50328Y-62299D01*
X-50402Y-62180D01*
X-52160Y-60311D01*
X-52840Y-59474D01*
X-53429Y-58659D01*
X-53915Y-57884D01*
X-54300Y-57152D01*
X-54588Y-56467D01*
X-54785Y-55830D01*
X-54898Y-55242D01*
X-54898Y-55238D01*
Y-39517D01*
X-25347Y-9966D01*
X-24534Y-8749D01*
X-24248Y-7313D01*
X-24248Y-7313D01*
Y66178D01*
X-24103Y66323D01*
X-22766D01*
X-22551Y66107D01*
X-20831Y65395D01*
X-18969D01*
X-17249Y66107D01*
X-15933Y67424D01*
X-15220Y69144D01*
Y71006D01*
X-15933Y72726D01*
X-17249Y74043D01*
X-18969Y74755D01*
D02*
G37*
G36*
X-148919Y61105D02*
X-150781D01*
X-152501Y60392D01*
X-153818Y59076D01*
X-154530Y57356D01*
Y55494D01*
X-153818Y53774D01*
X-152501Y52457D01*
X-150781Y51745D01*
X-148919D01*
X-147199Y52457D01*
X-145882Y53774D01*
X-145170Y55494D01*
Y57356D01*
X-145882Y59076D01*
X-147199Y60392D01*
X-148919Y61105D01*
D02*
G37*
G36*
X-102721Y35180D02*
X-104583D01*
X-106303Y34467D01*
X-107619Y33151D01*
X-108332Y31431D01*
Y29569D01*
X-107619Y27849D01*
X-106303Y26532D01*
X-104583Y25820D01*
X-102721D01*
X-101001Y26532D01*
X-99684Y27849D01*
X-98972Y29569D01*
Y31431D01*
X-99684Y33151D01*
X-101001Y34467D01*
X-102721Y35180D01*
D02*
G37*
G36*
X259031Y4755D02*
X257169D01*
X255449Y4042D01*
X254852Y3445D01*
X254721Y3359D01*
X254550Y3191D01*
X254424Y3083D01*
X254303Y2995D01*
X254186Y2924D01*
X254073Y2866D01*
X253960Y2821D01*
X253844Y2786D01*
X253724Y2761D01*
X253697Y2757D01*
X244362D01*
X244335Y2761D01*
X244209Y2786D01*
X244086Y2822D01*
X243965Y2869D01*
X243842Y2929D01*
X243716Y3002D01*
X243586Y3092D01*
X243450Y3201D01*
X243270Y3368D01*
X243155Y3439D01*
X242651Y3943D01*
X240931Y4655D01*
X239069D01*
X237349Y3943D01*
X236033Y2626D01*
X235320Y906D01*
Y-956D01*
X236033Y-2676D01*
X237349Y-3993D01*
X239069Y-4705D01*
X240931D01*
X242651Y-3993D01*
X243248Y-3395D01*
X243379Y-3309D01*
X243550Y-3141D01*
X243676Y-3033D01*
X243797Y-2945D01*
X243914Y-2874D01*
X244027Y-2817D01*
X244140Y-2771D01*
X244256Y-2736D01*
X244376Y-2711D01*
X244403Y-2708D01*
X253738D01*
X253765Y-2711D01*
X253891Y-2737D01*
X254014Y-2773D01*
X254135Y-2819D01*
X254258Y-2879D01*
X254384Y-2952D01*
X254515Y-3043D01*
X254650Y-3151D01*
X254830Y-3318D01*
X254945Y-3389D01*
X255449Y-3893D01*
X257169Y-4605D01*
X259031D01*
X260751Y-3893D01*
X262068Y-2576D01*
X262780Y-856D01*
Y1006D01*
X262068Y2726D01*
X260751Y4042D01*
X259031Y4755D01*
D02*
G37*
G36*
X130879Y1680D02*
X129121D01*
X127422Y1225D01*
X125898Y345D01*
X124655Y-898D01*
X123775Y-2422D01*
X123320Y-4121D01*
Y-5879D01*
X123775Y-7578D01*
X124655Y-9102D01*
X125898Y-10345D01*
X127422Y-11225D01*
X129121Y-11680D01*
X130879D01*
X132578Y-11225D01*
X134102Y-10345D01*
X135345Y-9102D01*
X136225Y-7578D01*
X136680Y-5879D01*
Y-4121D01*
X136225Y-2422D01*
X135345Y-898D01*
X134102Y345D01*
X132578Y1225D01*
X130879Y1680D01*
D02*
G37*
G36*
X-14819Y-17095D02*
X-16681D01*
X-18401Y-17807D01*
X-19717Y-19124D01*
X-20430Y-20844D01*
Y-22706D01*
X-19717Y-24426D01*
X-18401Y-25742D01*
X-16681Y-26455D01*
X-14819D01*
X-13099Y-25742D01*
X-11782Y-24426D01*
X-11070Y-22706D01*
Y-20844D01*
X-11782Y-19124D01*
X-13099Y-17807D01*
X-14819Y-17095D01*
D02*
G37*
G36*
X-226112Y-18345D02*
X-229188D01*
X-232158Y-19141D01*
X-234822Y-20679D01*
X-236996Y-22853D01*
X-238534Y-25517D01*
X-239330Y-28487D01*
Y-31563D01*
X-238534Y-34533D01*
X-236996Y-37197D01*
X-234822Y-39371D01*
X-232158Y-40909D01*
X-229188Y-41705D01*
X-226112D01*
X-223142Y-40909D01*
X-220478Y-39371D01*
X-218304Y-37197D01*
X-216766Y-34533D01*
X-215970Y-31563D01*
Y-28487D01*
X-216766Y-25517D01*
X-218304Y-22853D01*
X-220478Y-20679D01*
X-223142Y-19141D01*
X-226112Y-18345D01*
D02*
G37*
G36*
X229188Y-18345D02*
X226112D01*
X223142Y-19141D01*
X220478Y-20679D01*
X218304Y-22853D01*
X216766Y-25517D01*
X215970Y-28487D01*
Y-31563D01*
X216766Y-34533D01*
X218304Y-37197D01*
X220478Y-39371D01*
X223142Y-40909D01*
X226112Y-41705D01*
X229188D01*
X232158Y-40909D01*
X234822Y-39371D01*
X236996Y-37197D01*
X238534Y-34533D01*
X239330Y-31563D01*
Y-28487D01*
X238534Y-25517D01*
X236996Y-22853D01*
X234822Y-20679D01*
X232158Y-19141D01*
X229188Y-18345D01*
D02*
G37*
G36*
X-6312Y-58815D02*
X-9388D01*
X-12358Y-59611D01*
X-15022Y-61149D01*
X-17196Y-63323D01*
X-18734Y-65987D01*
X-19530Y-68957D01*
Y-72033D01*
X-18734Y-75003D01*
X-17196Y-77667D01*
X-15022Y-79841D01*
X-12358Y-81379D01*
X-9388Y-82175D01*
X-6312D01*
X-3342Y-81379D01*
X-678Y-79841D01*
X1496Y-77667D01*
X3034Y-75003D01*
X3830Y-72033D01*
Y-68957D01*
X3034Y-65987D01*
X1496Y-63323D01*
X-678Y-61149D01*
X-3342Y-59611D01*
X-6312Y-58815D01*
D02*
G37*
G36*
X-31712D02*
X-34788D01*
X-37758Y-59611D01*
X-40422Y-61149D01*
X-42596Y-63323D01*
X-44134Y-65987D01*
X-44930Y-68957D01*
Y-72033D01*
X-44134Y-75003D01*
X-42596Y-77667D01*
X-40422Y-79841D01*
X-37758Y-81379D01*
X-34788Y-82175D01*
X-31712D01*
X-28742Y-81379D01*
X-26078Y-79841D01*
X-23904Y-77667D01*
X-22366Y-75003D01*
X-21570Y-72033D01*
Y-68957D01*
X-22366Y-65987D01*
X-23904Y-63323D01*
X-26078Y-61149D01*
X-28742Y-59611D01*
X-31712Y-58815D01*
D02*
G37*
G36*
X152381Y-45820D02*
X147619D01*
X142947Y-46749D01*
X138546Y-48572D01*
X134586Y-51218D01*
X131218Y-54586D01*
X128572Y-58547D01*
X126749Y-62947D01*
X125820Y-67618D01*
Y-72382D01*
X126749Y-77053D01*
X128572Y-81454D01*
X131218Y-85414D01*
X134586Y-88782D01*
X138546Y-91428D01*
X142947Y-93251D01*
X147619Y-94180D01*
X152381D01*
X157053Y-93251D01*
X161453Y-91428D01*
X165414Y-88782D01*
X168782Y-85414D01*
X171428Y-81454D01*
X173251Y-77053D01*
X174180Y-72382D01*
Y-67618D01*
X173251Y-62947D01*
X171428Y-58547D01*
X168782Y-54586D01*
X165414Y-51218D01*
X161453Y-48572D01*
X157053Y-46749D01*
X152381Y-45820D01*
D02*
G37*
G36*
X-147619D02*
X-152381D01*
X-157053Y-46749D01*
X-161453Y-48572D01*
X-165414Y-51218D01*
X-168782Y-54586D01*
X-171428Y-58547D01*
X-173251Y-62947D01*
X-174180Y-67618D01*
Y-72382D01*
X-173251Y-77053D01*
X-171428Y-81454D01*
X-168782Y-85414D01*
X-165414Y-88782D01*
X-161453Y-91428D01*
X-157053Y-93251D01*
X-152381Y-94180D01*
X-147619D01*
X-142947Y-93251D01*
X-138546Y-91428D01*
X-134586Y-88782D01*
X-131218Y-85414D01*
X-128572Y-81454D01*
X-126749Y-77053D01*
X-125820Y-72382D01*
Y-67618D01*
X-126749Y-62947D01*
X-128572Y-58547D01*
X-131218Y-54586D01*
X-134586Y-51218D01*
X-138546Y-48572D01*
X-142947Y-46749D01*
X-147619Y-45820D01*
D02*
G37*
G36*
X144564Y-141535D02*
X143920D01*
Y-154805D01*
X157190D01*
Y-154161D01*
X156199Y-150463D01*
X154285Y-147147D01*
X151578Y-144440D01*
X148262Y-142526D01*
X144564Y-141535D01*
D02*
G37*
G36*
X-70436D02*
X-71080D01*
Y-154805D01*
X-57810D01*
Y-154161D01*
X-58801Y-150463D01*
X-60715Y-147147D01*
X-63422Y-144440D01*
X-66738Y-142526D01*
X-70436Y-141535D01*
D02*
G37*
G36*
X29564D02*
X28920D01*
Y-154805D01*
X42190D01*
Y-154161D01*
X41199Y-150463D01*
X39285Y-147147D01*
X36578Y-144440D01*
X33262Y-142526D01*
X29564Y-141535D01*
D02*
G37*
G36*
X26380D02*
X25736D01*
X22038Y-142526D01*
X18722Y-144440D01*
X16015Y-147147D01*
X14101Y-150463D01*
X13110Y-154161D01*
Y-154805D01*
X26380D01*
Y-141535D01*
D02*
G37*
G36*
X-73620D02*
X-74264D01*
X-77962Y-142526D01*
X-81278Y-144440D01*
X-83985Y-147147D01*
X-85899Y-150463D01*
X-86890Y-154161D01*
Y-154805D01*
X-73620D01*
Y-141535D01*
D02*
G37*
G36*
X141380D02*
X140736D01*
X137038Y-142526D01*
X133722Y-144440D01*
X131015Y-147147D01*
X129101Y-150463D01*
X128110Y-154161D01*
Y-154805D01*
X141380D01*
Y-141535D01*
D02*
G37*
G36*
X-170436Y-141535D02*
X-171080D01*
Y-154805D01*
X-157810D01*
Y-154161D01*
X-158801Y-150463D01*
X-160715Y-147147D01*
X-163422Y-144440D01*
X-166738Y-142526D01*
X-170436Y-141535D01*
D02*
G37*
G36*
X-173620D02*
X-174264D01*
X-177962Y-142526D01*
X-181278Y-144440D01*
X-183985Y-147147D01*
X-185899Y-150463D01*
X-186890Y-154161D01*
Y-154805D01*
X-173620D01*
Y-141535D01*
D02*
G37*
G36*
X194451Y-142395D02*
X190849D01*
X187370Y-143327D01*
X184250Y-145128D01*
X181703Y-147675D01*
X179902Y-150795D01*
X178970Y-154274D01*
Y-157876D01*
X179902Y-161355D01*
X181703Y-164475D01*
X184250Y-167022D01*
X187370Y-168823D01*
X190849Y-169755D01*
X194451D01*
X197930Y-168823D01*
X201050Y-167022D01*
X203597Y-164475D01*
X205398Y-161355D01*
X206330Y-157876D01*
Y-154274D01*
X205398Y-150795D01*
X203597Y-147675D01*
X201050Y-145128D01*
X197930Y-143327D01*
X194451Y-142395D01*
D02*
G37*
G36*
X79451D02*
X75849D01*
X72370Y-143327D01*
X69250Y-145128D01*
X66703Y-147675D01*
X64902Y-150795D01*
X63970Y-154274D01*
Y-157876D01*
X64902Y-161355D01*
X66703Y-164475D01*
X69250Y-167022D01*
X72370Y-168823D01*
X75849Y-169755D01*
X79451D01*
X82930Y-168823D01*
X86050Y-167022D01*
X88597Y-164475D01*
X90398Y-161355D01*
X91330Y-157876D01*
Y-154274D01*
X90398Y-150795D01*
X88597Y-147675D01*
X86050Y-145128D01*
X82930Y-143327D01*
X79451Y-142395D01*
D02*
G37*
G36*
X-20549D02*
X-24151D01*
X-27630Y-143327D01*
X-30750Y-145128D01*
X-33297Y-147675D01*
X-35098Y-150795D01*
X-36030Y-154274D01*
Y-157876D01*
X-35098Y-161355D01*
X-33297Y-164475D01*
X-30750Y-167022D01*
X-27630Y-168823D01*
X-24151Y-169755D01*
X-20549D01*
X-17070Y-168823D01*
X-13950Y-167022D01*
X-11403Y-164475D01*
X-9602Y-161355D01*
X-8670Y-157876D01*
Y-154274D01*
X-9602Y-150795D01*
X-11403Y-147675D01*
X-13950Y-145128D01*
X-17070Y-143327D01*
X-20549Y-142395D01*
D02*
G37*
G36*
X-120549D02*
X-124151D01*
X-127630Y-143327D01*
X-130750Y-145128D01*
X-133297Y-147675D01*
X-135098Y-150795D01*
X-136030Y-154274D01*
Y-157876D01*
X-135098Y-161355D01*
X-133297Y-164475D01*
X-130750Y-167022D01*
X-127630Y-168823D01*
X-124151Y-169755D01*
X-120549D01*
X-117070Y-168823D01*
X-113950Y-167022D01*
X-111403Y-164475D01*
X-109602Y-161355D01*
X-108670Y-157876D01*
Y-154274D01*
X-109602Y-150795D01*
X-111403Y-147675D01*
X-113950Y-145128D01*
X-117070Y-143327D01*
X-120549Y-142395D01*
D02*
G37*
G36*
X-157810Y-157345D02*
X-171080D01*
Y-170615D01*
X-170436D01*
X-166738Y-169624D01*
X-163422Y-167710D01*
X-160715Y-165003D01*
X-158801Y-161687D01*
X-157810Y-157989D01*
Y-157345D01*
D02*
G37*
G36*
X-173620D02*
X-186890D01*
Y-157989D01*
X-185899Y-161687D01*
X-183985Y-165003D01*
X-181278Y-167710D01*
X-177962Y-169624D01*
X-174264Y-170615D01*
X-173620D01*
Y-157345D01*
D02*
G37*
G36*
X157190Y-157345D02*
X143920D01*
Y-170615D01*
X144564D01*
X148262Y-169624D01*
X151578Y-167710D01*
X154285Y-165003D01*
X156199Y-161687D01*
X157190Y-157989D01*
Y-157345D01*
D02*
G37*
G36*
X141380D02*
X128110D01*
Y-157989D01*
X129101Y-161687D01*
X131015Y-165003D01*
X133722Y-167710D01*
X137038Y-169624D01*
X140736Y-170615D01*
X141380D01*
Y-157345D01*
D02*
G37*
G36*
X42190D02*
X28920D01*
Y-170615D01*
X29564D01*
X33262Y-169624D01*
X36578Y-167710D01*
X39285Y-165003D01*
X41199Y-161687D01*
X42190Y-157989D01*
Y-157345D01*
D02*
G37*
G36*
X26380D02*
X13110D01*
Y-157989D01*
X14101Y-161687D01*
X16015Y-165003D01*
X18722Y-167710D01*
X22038Y-169624D01*
X25736Y-170615D01*
X26380D01*
Y-157345D01*
D02*
G37*
G36*
X-57810D02*
X-71080D01*
Y-170615D01*
X-70436D01*
X-66738Y-169624D01*
X-63422Y-167710D01*
X-60715Y-165003D01*
X-58801Y-161687D01*
X-57810Y-157989D01*
Y-157345D01*
D02*
G37*
G36*
X-73620D02*
X-86890D01*
Y-157989D01*
X-85899Y-161687D01*
X-83985Y-165003D01*
X-81278Y-167710D01*
X-77962Y-169624D01*
X-74264Y-170615D01*
X-73620D01*
Y-157345D01*
D02*
G37*
G36*
X69638Y-254395D02*
X66562D01*
X63592Y-255191D01*
X60928Y-256729D01*
X58754Y-258903D01*
X57216Y-261567D01*
X56420Y-264537D01*
Y-267613D01*
X57216Y-270583D01*
X58754Y-273247D01*
X60928Y-275421D01*
X63592Y-276959D01*
X66562Y-277755D01*
X69638D01*
X72608Y-276959D01*
X75272Y-275421D01*
X77446Y-273247D01*
X78984Y-270583D01*
X79780Y-267613D01*
Y-264537D01*
X78984Y-261567D01*
X77446Y-258903D01*
X75272Y-256729D01*
X72608Y-255191D01*
X69638Y-254395D01*
D02*
G37*
G36*
X-66562D02*
X-69638D01*
X-72608Y-255191D01*
X-75272Y-256729D01*
X-77446Y-258903D01*
X-78984Y-261567D01*
X-79780Y-264537D01*
Y-267613D01*
X-78984Y-270583D01*
X-77446Y-273247D01*
X-75272Y-275421D01*
X-72608Y-276959D01*
X-69638Y-277755D01*
X-66562D01*
X-63592Y-276959D01*
X-60928Y-275421D01*
X-58754Y-273247D01*
X-57216Y-270583D01*
X-56420Y-267613D01*
Y-264537D01*
X-57216Y-261567D01*
X-58754Y-258903D01*
X-60928Y-256729D01*
X-63592Y-255191D01*
X-66562Y-254395D01*
D02*
G37*
%LPD*%
G36*
X-35947Y293797D02*
X-36167Y293595D01*
X-36362Y293385D01*
X-36535Y293165D01*
X-36685Y292937D01*
X-36812Y292700D01*
X-36916Y292454D01*
X-36996Y292200D01*
X-37054Y291936D01*
X-37088Y291664D01*
X-37100Y291384D01*
X-39100Y291525D01*
X-39110Y291801D01*
X-39141Y292072D01*
X-39193Y292338D01*
X-39266Y292600D01*
X-39360Y292858D01*
X-39474Y293111D01*
X-39609Y293359D01*
X-39764Y293603D01*
X-39941Y293842D01*
X-40138Y294077D01*
X-35947Y293797D01*
D02*
G37*
G36*
X-37089Y282625D02*
X-37056Y282353D01*
X-37001Y282088D01*
X-36924Y281830D01*
X-36825Y281578D01*
X-36704Y281333D01*
X-36561Y281094D01*
X-36396Y280862D01*
X-36209Y280636D01*
X-36000Y280417D01*
X-40200D01*
X-39991Y280636D01*
X-39804Y280862D01*
X-39639Y281094D01*
X-39496Y281333D01*
X-39375Y281578D01*
X-39276Y281830D01*
X-39199Y282088D01*
X-39144Y282353D01*
X-39111Y282625D01*
X-39100Y282903D01*
X-37100D01*
X-37089Y282625D01*
D02*
G37*
G36*
X154131Y253811D02*
X154082Y253623D01*
X154079Y253418D01*
X154121Y253196D01*
X154208Y252955D01*
X154340Y252698D01*
X154518Y252422D01*
X154742Y252129D01*
X155011Y251819D01*
X155325Y251491D01*
X154000Y249987D01*
X153700Y250273D01*
X153419Y250512D01*
X153157Y250703D01*
X152914Y250847D01*
X152690Y250944D01*
X152485Y250993D01*
X152299Y250995D01*
X152133Y250949D01*
X151985Y250856D01*
X151857Y250716D01*
X154225Y253981D01*
X154131Y253811D01*
D02*
G37*
G36*
X140467Y243551D02*
X140318Y243671D01*
X140155Y243748D01*
X139977Y243782D01*
X139784Y243773D01*
X139578Y243722D01*
X139356Y243628D01*
X139120Y243491D01*
X138869Y243311D01*
X138604Y243088D01*
X138324Y242822D01*
X136910Y244236D01*
X137175Y244516D01*
X137398Y244781D01*
X137578Y245032D01*
X137715Y245268D01*
X137810Y245490D01*
X137861Y245697D01*
X137870Y245889D01*
X137836Y246067D01*
X137758Y246230D01*
X137638Y246379D01*
X140467Y243551D01*
D02*
G37*
G36*
X125409Y229907D02*
X125143Y229627D01*
X124921Y229362D01*
X124741Y229111D01*
X124603Y228875D01*
X124509Y228654D01*
X124458Y228447D01*
X124449Y228254D01*
X124483Y228076D01*
X124560Y227913D01*
X124681Y227764D01*
X121852Y230593D01*
X122001Y230473D01*
X122164Y230396D01*
X122342Y230361D01*
X122534Y230370D01*
X122741Y230422D01*
X122963Y230516D01*
X123199Y230653D01*
X123450Y230833D01*
X123715Y231056D01*
X123995Y231322D01*
X125409Y229907D01*
D02*
G37*
G36*
X149433Y203447D02*
X149214Y203656D01*
X148989Y203843D01*
X148757Y204008D01*
X148518Y204151D01*
X148273Y204272D01*
X148021Y204371D01*
X147762Y204448D01*
X147497Y204503D01*
X147226Y204536D01*
X146947Y204547D01*
Y206547D01*
X147226Y206558D01*
X147497Y206591D01*
X147762Y206646D01*
X148021Y206723D01*
X148273Y206822D01*
X148518Y206943D01*
X148757Y207086D01*
X148989Y207251D01*
X149214Y207438D01*
X149433Y207647D01*
Y203447D01*
D02*
G37*
G36*
X139568Y200831D02*
X139303Y200558D01*
X138884Y200072D01*
X138730Y199858D01*
X138613Y199665D01*
X138532Y199491D01*
X138488Y199337D01*
X138481Y199203D01*
X138510Y199089D01*
X138576Y198994D01*
X136498Y201072D01*
X136558Y201041D01*
X136641Y201042D01*
X136748Y201077D01*
X136879Y201144D01*
X137032Y201245D01*
X137210Y201379D01*
X137635Y201746D01*
X138153Y202245D01*
X139568Y200831D01*
D02*
G37*
G36*
X143548Y196851D02*
X142112Y195459D01*
X140034Y197537D01*
X140178Y197421D01*
X140337Y197346D01*
X140511Y197314D01*
X140699Y197324D01*
X140901Y197376D01*
X141119Y197470D01*
X141350Y197606D01*
X141597Y197784D01*
X141858Y198004D01*
X142133Y198265D01*
X143548Y196851D01*
D02*
G37*
G36*
X208749Y200501D02*
X208829Y199715D01*
X208899Y199419D01*
X208988Y199187D01*
X209097Y199020D01*
X209226Y198918D01*
X209376Y198879D01*
X209545Y198906D01*
X209734Y198997D01*
X205761Y196539D01*
X205947Y196678D01*
X206113Y196853D01*
X206260Y197065D01*
X206387Y197313D01*
X206495Y197597D01*
X206583Y197917D01*
X206651Y198273D01*
X206700Y198666D01*
X206730Y199095D01*
X206739Y199560D01*
X208739Y200990D01*
X208749Y200501D01*
D02*
G37*
G36*
X150265Y190134D02*
X150000Y189862D01*
X149413Y189175D01*
X149287Y188990D01*
X149197Y188826D01*
X149141Y188684D01*
X149120Y188564D01*
X149134Y188465D01*
X149183Y188388D01*
X147105Y190466D01*
X147182Y190417D01*
X147281Y190403D01*
X147401Y190424D01*
X147543Y190480D01*
X147707Y190570D01*
X147893Y190696D01*
X148100Y190856D01*
X148579Y191283D01*
X148851Y191548D01*
X150265Y190134D01*
D02*
G37*
G36*
X73072Y189812D02*
X72884Y190038D01*
X72686Y190240D01*
X72477Y190418D01*
X72258Y190572D01*
X72028Y190703D01*
X71788Y190810D01*
X71537Y190893D01*
X71275Y190952D01*
X71003Y190988D01*
X70721Y191000D01*
X70979Y193000D01*
X71252Y193010D01*
X71522Y193039D01*
X71789Y193088D01*
X72054Y193157D01*
X72315Y193245D01*
X72574Y193353D01*
X72829Y193481D01*
X73082Y193628D01*
X73332Y193795D01*
X73579Y193981D01*
X73072Y189812D01*
D02*
G37*
G36*
X132609Y185956D02*
X132532Y186005D01*
X132433Y186019D01*
X132312Y185998D01*
X132170Y185942D01*
X132006Y185851D01*
X131821Y185725D01*
X131614Y185565D01*
X131135Y185139D01*
X130863Y184874D01*
X129449Y186288D01*
X129714Y186560D01*
X130301Y187246D01*
X130426Y187431D01*
X130517Y187595D01*
X130573Y187737D01*
X130594Y187858D01*
X130580Y187957D01*
X130531Y188034D01*
X132609Y185956D01*
D02*
G37*
G36*
X136145Y182420D02*
X136067Y182469D01*
X135968Y182483D01*
X135848Y182462D01*
X135706Y182406D01*
X135542Y182316D01*
X135357Y182190D01*
X135149Y182029D01*
X134670Y181603D01*
X134398Y181338D01*
X132984Y182752D01*
X133250Y183024D01*
X133836Y183710D01*
X133962Y183896D01*
X134052Y184060D01*
X134108Y184202D01*
X134129Y184322D01*
X134115Y184421D01*
X134066Y184498D01*
X136145Y182420D01*
D02*
G37*
G36*
X164970Y182000D02*
X164667Y181993D01*
X164376Y181966D01*
X164095Y181918D01*
X163825Y181851D01*
X163566Y181763D01*
X163318Y181655D01*
X163081Y181526D01*
X162854Y181378D01*
X162639Y181209D01*
X162434Y181020D01*
X161020Y182434D01*
X161209Y182639D01*
X161378Y182854D01*
X161526Y183081D01*
X161655Y183318D01*
X161763Y183566D01*
X161851Y183825D01*
X161918Y184095D01*
X161966Y184376D01*
X161993Y184667D01*
X162000Y184970D01*
X164970Y182000D01*
D02*
G37*
G36*
X160907Y179492D02*
X160641Y179221D01*
X160049Y178540D01*
X159920Y178357D01*
X159825Y178197D01*
X159765Y178060D01*
X159739Y177944D01*
X159747Y177852D01*
X159789Y177781D01*
X157711Y179859D01*
X157795Y179804D01*
X157900Y179784D01*
X158026Y179799D01*
X158172Y179851D01*
X158340Y179937D01*
X158528Y180060D01*
X158738Y180218D01*
X158968Y180412D01*
X159492Y180907D01*
X160907Y179492D01*
D02*
G37*
G36*
X143216Y175349D02*
X143071Y175465D01*
X142912Y175539D01*
X142739Y175571D01*
X142551Y175562D01*
X142348Y175510D01*
X142131Y175416D01*
X141899Y175280D01*
X141652Y175102D01*
X141391Y174882D01*
X141116Y174620D01*
X139702Y176035D01*
X141137Y177427D01*
X143216Y175349D01*
D02*
G37*
G36*
X19011Y168350D02*
X19044Y168078D01*
X19099Y167813D01*
X19176Y167555D01*
X19275Y167303D01*
X19396Y167058D01*
X19539Y166819D01*
X19704Y166587D01*
X19891Y166361D01*
X20100Y166142D01*
X15900D01*
X16109Y166361D01*
X16296Y166587D01*
X16461Y166819D01*
X16604Y167058D01*
X16725Y167303D01*
X16824Y167555D01*
X16901Y167813D01*
X16956Y168078D01*
X16989Y168350D01*
X17000Y168628D01*
X19000D01*
X19011Y168350D01*
D02*
G37*
G36*
X47858Y161900D02*
X47639Y162109D01*
X47413Y162296D01*
X47181Y162461D01*
X46942Y162604D01*
X46697Y162725D01*
X46445Y162824D01*
X46187Y162901D01*
X45922Y162956D01*
X45650Y162989D01*
X45372Y163000D01*
Y165000D01*
X45650Y165011D01*
X45922Y165044D01*
X46187Y165099D01*
X46445Y165176D01*
X46697Y165275D01*
X46942Y165396D01*
X47181Y165539D01*
X47413Y165704D01*
X47639Y165891D01*
X47858Y166100D01*
Y161900D01*
D02*
G37*
G36*
X20361Y165891D02*
X20587Y165704D01*
X20819Y165539D01*
X21058Y165396D01*
X21303Y165275D01*
X21555Y165176D01*
X21813Y165099D01*
X22078Y165044D01*
X22350Y165011D01*
X22628Y165000D01*
Y163000D01*
X22350Y162989D01*
X22078Y162956D01*
X21813Y162901D01*
X21555Y162824D01*
X21303Y162725D01*
X21058Y162604D01*
X20819Y162461D01*
X20587Y162296D01*
X20361Y162109D01*
X20142Y161900D01*
Y166100D01*
X20361Y165891D01*
D02*
G37*
G36*
X13011Y162350D02*
X13044Y162078D01*
X13099Y161813D01*
X13176Y161555D01*
X13275Y161303D01*
X13396Y161058D01*
X13539Y160819D01*
X13704Y160587D01*
X13891Y160361D01*
X14100Y160142D01*
X9900D01*
X10109Y160361D01*
X10296Y160587D01*
X10461Y160819D01*
X10604Y161058D01*
X10725Y161303D01*
X10824Y161555D01*
X10901Y161813D01*
X10956Y162078D01*
X10989Y162350D01*
X11000Y162628D01*
X13000D01*
X13011Y162350D01*
D02*
G37*
G36*
X-33629Y118519D02*
X-33596Y118248D01*
X-33541Y117983D01*
X-33464Y117724D01*
X-33365Y117472D01*
X-33244Y117227D01*
X-33101Y116988D01*
X-32936Y116756D01*
X-32749Y116531D01*
X-32540Y116312D01*
X-36740D01*
X-36531Y116531D01*
X-36344Y116756D01*
X-36179Y116988D01*
X-36036Y117227D01*
X-35915Y117472D01*
X-35816Y117724D01*
X-35739Y117983D01*
X-35684Y118248D01*
X-35651Y118519D01*
X-35640Y118798D01*
X-33640D01*
X-33629Y118519D01*
D02*
G37*
G36*
X-111941Y105877D02*
X-112172Y106078D01*
X-112407Y106257D01*
X-112648Y106416D01*
X-112893Y106553D01*
X-113144Y106670D01*
X-113400Y106765D01*
X-113661Y106839D01*
X-113927Y106892D01*
X-114198Y106924D01*
X-114475Y106934D01*
X-114574Y108934D01*
X-114294Y108946D01*
X-114022Y108980D01*
X-113758Y109037D01*
X-113503Y109116D01*
X-113255Y109219D01*
X-113016Y109344D01*
X-112784Y109492D01*
X-112561Y109662D01*
X-112346Y109856D01*
X-112139Y110072D01*
X-111941Y105877D01*
D02*
G37*
G36*
X-135628Y109791D02*
X-135393Y109611D01*
X-135152Y109452D01*
X-134907Y109315D01*
X-134656Y109199D01*
X-134400Y109103D01*
X-134139Y109029D01*
X-133873Y108976D01*
X-133602Y108945D01*
X-133325Y108934D01*
X-133226Y106934D01*
X-133506Y106923D01*
X-133778Y106889D01*
X-134042Y106832D01*
X-134297Y106752D01*
X-134545Y106650D01*
X-134784Y106524D01*
X-135016Y106376D01*
X-135239Y106206D01*
X-135454Y106012D01*
X-135661Y105796D01*
X-135858Y109992D01*
X-135628Y109791D01*
D02*
G37*
G36*
X-24042Y87975D02*
X-24079Y87994D01*
X-24149Y88011D01*
X-24254Y88026D01*
X-24565Y88050D01*
X-25594Y88074D01*
X-25936Y88075D01*
Y92075D01*
X-24042Y92175D01*
Y87975D01*
D02*
G37*
G36*
X-82000Y-55460D02*
X-81850Y-56245D01*
X-81600Y-57053D01*
X-81250Y-57885D01*
X-80800Y-58739D01*
X-80250Y-59616D01*
X-79600Y-60516D01*
X-78850Y-61439D01*
X-77050Y-63354D01*
X-91050D01*
X-90100Y-62385D01*
X-88500Y-60516D01*
X-87850Y-59616D01*
X-87300Y-58739D01*
X-86850Y-57885D01*
X-86500Y-57053D01*
X-86250Y-56245D01*
X-86100Y-55460D01*
X-86050Y-54697D01*
X-82050D01*
X-82000Y-55460D01*
D02*
G37*
G36*
X62077Y79516D02*
X61858Y79725D01*
X61632Y79912D01*
X61400Y80077D01*
X61162Y80220D01*
X60916Y80341D01*
X60664Y80440D01*
X60406Y80517D01*
X60141Y80572D01*
X59869Y80605D01*
X59591Y80616D01*
Y82616D01*
X59869Y82627D01*
X60141Y82660D01*
X60406Y82715D01*
X60664Y82792D01*
X60916Y82891D01*
X61162Y83012D01*
X61400Y83155D01*
X61632Y83320D01*
X61858Y83507D01*
X62077Y83716D01*
Y79516D01*
D02*
G37*
G36*
X9111Y34425D02*
X9144Y34153D01*
X9199Y33888D01*
X9276Y33630D01*
X9375Y33378D01*
X9496Y33133D01*
X9639Y32894D01*
X9804Y32662D01*
X9991Y32436D01*
X10200Y32217D01*
X6000D01*
X6209Y32436D01*
X6396Y32662D01*
X6561Y32894D01*
X6704Y33133D01*
X6825Y33378D01*
X6924Y33630D01*
X7001Y33888D01*
X7056Y34153D01*
X7089Y34425D01*
X7100Y34703D01*
X9100D01*
X9111Y34425D01*
D02*
G37*
G36*
X-50009Y111714D02*
X-50196Y111488D01*
X-50361Y111256D01*
X-50504Y111017D01*
X-50625Y110772D01*
X-50724Y110520D01*
X-50801Y110261D01*
X-50856Y109997D01*
X-50889Y109725D01*
X-50900Y109446D01*
X-52900D01*
X-52911Y109725D01*
X-52944Y109997D01*
X-52999Y110261D01*
X-53076Y110520D01*
X-53175Y110772D01*
X-53296Y111017D01*
X-53439Y111256D01*
X-53604Y111488D01*
X-53791Y111714D01*
X-54000Y111932D01*
X-49800D01*
X-50009Y111714D01*
D02*
G37*
G36*
X93356Y78060D02*
X93133Y78266D01*
X92903Y78450D01*
X92668Y78613D01*
X92426Y78753D01*
X92178Y78873D01*
X91925Y78970D01*
X91665Y79046D01*
X91400Y79100D01*
X91128Y79133D01*
X90851Y79144D01*
X90811Y81144D01*
X91090Y81155D01*
X91362Y81188D01*
X91626Y81244D01*
X91884Y81322D01*
X92134Y81422D01*
X92377Y81545D01*
X92613Y81690D01*
X92841Y81858D01*
X93063Y82047D01*
X93277Y82259D01*
X93356Y78060D01*
D02*
G37*
G36*
X-22042Y67975D02*
X-22079Y67994D01*
X-22150Y68011D01*
X-22254Y68026D01*
X-22565Y68050D01*
X-23594Y68074D01*
X-23936Y68075D01*
Y72075D01*
X-22042Y72175D01*
Y67975D01*
D02*
G37*
G36*
X-56600Y-55460D02*
X-56450Y-56245D01*
X-56200Y-57053D01*
X-55850Y-57885D01*
X-55400Y-58739D01*
X-54850Y-59616D01*
X-54200Y-60516D01*
X-53450Y-61439D01*
X-51650Y-63354D01*
X-65650D01*
X-64700Y-62385D01*
X-63100Y-60516D01*
X-62450Y-59616D01*
X-61900Y-58739D01*
X-61450Y-57885D01*
X-61100Y-57053D01*
X-60850Y-56245D01*
X-60700Y-55460D01*
X-60650Y-54697D01*
X-56650D01*
X-56600Y-55460D01*
D02*
G37*
G36*
X255993Y-2060D02*
X255770Y-1854D01*
X255541Y-1670D01*
X255306Y-1507D01*
X255064Y-1366D01*
X254817Y-1246D01*
X254564Y-1149D01*
X254304Y-1073D01*
X254039Y-1019D01*
X253767Y-986D01*
X253490Y-975D01*
X253454Y1025D01*
X253733Y1036D01*
X254005Y1069D01*
X254270Y1125D01*
X254527Y1203D01*
X254778Y1303D01*
X255021Y1426D01*
X255257Y1571D01*
X255486Y1738D01*
X255708Y1927D01*
X255923Y2139D01*
X255993Y-2060D01*
D02*
G37*
G36*
X242330Y1904D02*
X242559Y1720D01*
X242794Y1557D01*
X243036Y1416D01*
X243283Y1296D01*
X243536Y1199D01*
X243796Y1123D01*
X244061Y1068D01*
X244333Y1036D01*
X244610Y1025D01*
X244646Y-975D01*
X244367Y-986D01*
X244095Y-1020D01*
X243830Y-1075D01*
X243573Y-1153D01*
X243322Y-1254D01*
X243079Y-1376D01*
X242843Y-1521D01*
X242614Y-1688D01*
X242392Y-1877D01*
X242177Y-2089D01*
X242107Y2110D01*
X242330Y1904D01*
D02*
G37*
D13*
X8100Y30075D02*
Y54100D01*
X35616Y81616D02*
X64219D01*
X8100Y54100D02*
X35616Y81616D01*
X18000Y164000D02*
X50000D01*
X-34640Y151335D02*
X6025Y192000D01*
X75090D01*
X75452Y191638D01*
X22000Y184000D02*
X128575D01*
X12000Y174000D02*
X22000Y184000D01*
X12000Y158000D02*
Y174000D01*
X18000Y172000D02*
X26000Y180000D01*
X133025D01*
X18000Y164000D02*
Y172000D01*
X133025Y179722D02*
X138011Y174736D01*
X128575Y184000D02*
X136321Y191746D01*
X146221Y181140D02*
X146928D01*
X133025Y181379D02*
X139857Y188211D01*
X133025Y179722D02*
Y181379D01*
X138011Y174736D02*
X139817D01*
X146221Y181140D01*
X137028Y191746D02*
X143432Y198150D01*
X145238D01*
X150224Y191507D02*
Y193164D01*
X143392Y184675D02*
X150224Y191507D01*
X145238Y198150D02*
X150224Y193164D01*
X136321Y191746D02*
X137028D01*
X115851Y221763D02*
X145408Y251320D01*
X155401Y250000D02*
X169177D01*
X207739Y191464D02*
Y211437D01*
X169177Y250000D02*
X207739Y211437D01*
X206502Y190226D02*
X207739Y191464D01*
X146997Y252909D02*
X152492D01*
X155401Y250000D01*
X145408Y251320D02*
X146997Y252909D01*
X154069Y174069D02*
X165000Y185000D01*
X95402Y80143D02*
X95459Y80200D01*
X78903Y80143D02*
X95402D01*
X59047Y100000D02*
X78903Y80143D01*
X142869Y205547D02*
X151576D01*
X133996Y196674D02*
X142869Y205547D01*
X-43200Y100000D02*
X59047D01*
X-51900Y108700D02*
X-43200Y100000D01*
X-51900Y108700D02*
Y114075D01*
X-34640Y114169D02*
Y151335D01*
X-137900Y107793D02*
X-137759Y107934D01*
X-110041D02*
X-109900Y108075D01*
X-137759Y107934D02*
X-110041D01*
X-38100Y295875D02*
X-37900Y296075D01*
X-38100Y278275D02*
Y295875D01*
X240000Y-25D02*
X240050Y25D01*
X258050D02*
X258100Y75D01*
X240050Y25D02*
X258050D01*
D48*
X-58650Y-37963D02*
X-28000Y-7313D01*
Y67732D01*
X-58650Y-70495D02*
Y-37963D01*
X-38000Y85975D02*
X-33900Y90075D01*
X-38000Y-4000D02*
Y85975D01*
X-84050Y-50050D02*
X-38000Y-4000D01*
X-25657Y70075D02*
X-19900D01*
X-28000Y67732D02*
X-25657Y70075D01*
X-84050Y-70495D02*
Y-50050D01*
X-33900Y90075D02*
X-21900D01*
D49*
X111759Y190519D02*
X124654Y203414D01*
X111349Y190519D02*
X111759D01*
X145000Y156059D02*
X145182D01*
X158595Y169472D01*
D50*
X206502Y190226D02*
D03*
X145408Y251320D02*
D03*
D51*
X176945Y160669D02*
D03*
X115851Y221763D02*
D03*
D52*
X129515Y215205D02*
D03*
X170386Y174334D02*
D03*
D53*
X227650Y106175D02*
D03*
Y-30025D02*
D03*
X68100Y266075D02*
D03*
X-68100D02*
D03*
X-227650Y106175D02*
D03*
Y-30025D02*
D03*
X68100Y-266075D02*
D03*
X-68100D02*
D03*
X-84050Y-70495D02*
D03*
X-7850D02*
D03*
X-33250D02*
D03*
X-58650D02*
D03*
D54*
X192650Y-156075D02*
D03*
X142650D02*
D03*
X77650D02*
D03*
X27650D02*
D03*
X-22350D02*
D03*
X-72350D02*
D03*
X-122350D02*
D03*
X-172350Y-156075D02*
D03*
D55*
X-150000Y210000D02*
D03*
Y-70000D02*
D03*
X150000D02*
D03*
D56*
X74600Y161750D02*
D03*
X112700Y110950D02*
D03*
X74600D02*
D03*
X112700Y161750D02*
D03*
D57*
Y136350D02*
D03*
X61900Y126190D02*
D03*
Y146510D02*
D03*
D58*
X50000Y164000D02*
D03*
X20000Y204000D02*
D03*
X75452Y191638D02*
D03*
X18000Y164000D02*
D03*
X12000Y158000D02*
D03*
X111349Y190519D02*
D03*
X64219Y81616D02*
D03*
X-61043Y12757D02*
D03*
X-86551Y-18578D02*
D03*
X-130000Y12000D02*
D03*
X-48000Y-46000D02*
D03*
X-15750Y-21775D02*
D03*
X-30713Y-22072D02*
D03*
X242100Y135000D02*
D03*
X95459Y80200D02*
D03*
X44855Y125000D02*
D03*
Y110000D02*
D03*
X145000Y156059D02*
D03*
X165000Y185000D02*
D03*
X151576Y205547D02*
D03*
X181213Y220000D02*
D03*
X196213Y200000D02*
D03*
X125735Y127094D02*
D03*
X229500Y-70000D02*
D03*
X75000Y233000D02*
D03*
X-34640Y114169D02*
D03*
X-51900Y114075D02*
D03*
X235000Y-117768D02*
D03*
X142232Y-35000D02*
D03*
X-19900Y70075D02*
D03*
X-21900Y90075D02*
D03*
X-104060Y45500D02*
D03*
X-103652Y30500D02*
D03*
X8100Y30075D02*
D03*
X-109900Y156075D02*
D03*
X-135900D02*
D03*
X-109900Y108075D02*
D03*
X-137900Y107793D02*
D03*
X-37900Y296075D02*
D03*
X-38100Y278275D02*
D03*
X258100Y75D02*
D03*
X240000Y-25D02*
D03*
X-150350Y89925D02*
D03*
X-149850Y56425D02*
D03*
Y71425D02*
D03*
X-75500Y185500D02*
D03*
X-60000Y186000D02*
D03*
X2000Y-220000D02*
D03*
X-181600Y39975D02*
D03*
X1900Y220025D02*
D03*
X181600Y39975D02*
D03*
D59*
X130000Y-5000D02*
D03*
D60*
X118997Y209070D02*
D03*
X124654Y203414D02*
D03*
X158595Y169472D02*
D03*
X164252Y163815D02*
D03*
D61*
X129250Y198817D02*
D03*
X132786Y195282D02*
D03*
X136321Y191746D02*
D03*
X139857Y188211D02*
D03*
X143392Y184675D02*
D03*
X146928Y181140D02*
D03*
X150463Y177604D02*
D03*
X153999Y174069D02*
D03*
M02*
