M48
;Layer_Color=9474304
;FILE_FORMAT=4:4
METRIC,LZ
;TYPE=PLATED
T01F00S00C0.3000
T02F00S00C0.5000
T04F00S00C0.6500
T05F00S00C0.9910
T06F00S00C1.1000
T07F00S00C1.3000
T08F00S00C2.0000
T09F00S00C2.3750
T10F00S00C3.0000
%
T01
X00002Y-0022
X-001816Y00039975
X-0014985Y00056425
Y00071425
X-0015035Y00089925
X-001379Y00107793
X-001099Y00108075
Y00156075
X-001359
X-000755Y001855
X-0006Y00186
X-000519Y00114075
X-0003464Y00114169
X-000219Y00090075
X-000199Y00070075
X000081Y00030075
X-0001575Y-00021775
X-00030713Y-00022072
X-00048Y-00046
X-00086551Y-00018578
X-00061043Y00012757
X-00103652Y000305
X-0010406Y000455
X-0013Y00012
X00064219Y00081616
X00095459Y000802
X00125735Y00127094
X00145Y00156059
X00165Y00185
X00196213Y002
X00111349Y00190519
X00075452Y00191638
X0005Y00164
X00018
X00012Y00158
X0002Y00204
X00044855Y00125
Y0011
X001816Y00039975
X0024Y-00000025
X002295Y-0007
X00235Y-00117768
X00142232Y-00035
X002581Y00000075
X002421Y00135
X00181213Y0022
X00151576Y00205547
X00075Y00233
X000019Y00220025
X-000381Y00278275
X-000379Y00296075
T02
X0013Y-00005
T04
X00170386Y00174334
X00129515Y00215205
T05
X000619Y0012619
Y0014651
X001127Y0013635
T06
X-0008405Y-00070495
X-0005865
X-0003325
X-0000785
T07
X-0017235Y-00156075
X-0012235Y-00156075
X-0007235
X-0002235
X0002765
X0007765
X0014265
X0019265
T08
X-000681Y-00266075
X000681
X-0022765Y-00030025
Y00106175
X0022765Y00106175
Y-00030025
X000681Y00266075
X-000681
T09
X000746Y0011095
X001127
Y0016175
X000746
T10
X-0015Y-0007
X0015
X-0015Y0021
M30
