G04*
G04 #@! TF.GenerationSoftware,Altium Limited,Altium Designer,23.8.1 (32)*
G04*
G04 Layer_Physical_Order=1*
G04 Layer_Color=255*
%FSLAX44Y44*%
%MOMM*%
G71*
G04*
G04 #@! TF.SameCoordinates,569DF6A4-0AC1-4917-97B5-21C436C54E36*
G04*
G04*
G04 #@! TF.FilePolarity,Positive*
G04*
G01*
G75*
%ADD14C,0.2540*%
%ADD16R,2.5500X2.5500*%
%ADD17R,0.2500X0.8000*%
%ADD18R,0.8000X0.2500*%
G04:AMPARAMS|DCode=19|XSize=1.25mm|YSize=1.1mm|CornerRadius=0.275mm|HoleSize=0mm|Usage=FLASHONLY|Rotation=260.143|XOffset=0mm|YOffset=0mm|HoleType=Round|Shape=RoundedRectangle|*
%AMROUNDEDRECTD19*
21,1,1.2500,0.5500,0,0,260.143*
21,1,0.7000,1.1000,0,0,260.143*
1,1,0.5500,-0.3309,-0.2978*
1,1,0.5500,-0.2110,0.3919*
1,1,0.5500,0.3309,0.2978*
1,1,0.5500,0.2110,-0.3919*
%
%ADD19ROUNDEDRECTD19*%
G04:AMPARAMS|DCode=20|XSize=1.25mm|YSize=1.1mm|CornerRadius=0mm|HoleSize=0mm|Usage=FLASHONLY|Rotation=260.143|XOffset=0mm|YOffset=0mm|HoleType=Round|Shape=Rectangle|*
%AMROTATEDRECTD20*
4,1,4,-0.4349,0.7099,0.6489,0.5216,0.4349,-0.7099,-0.6489,-0.5216,-0.4349,0.7099,0.0*
%
%ADD20ROTATEDRECTD20*%

G04:AMPARAMS|DCode=21|XSize=1.25mm|YSize=1.1mm|CornerRadius=0.275mm|HoleSize=0mm|Usage=FLASHONLY|Rotation=230.400|XOffset=0mm|YOffset=0mm|HoleType=Round|Shape=RoundedRectangle|*
%AMROUNDEDRECTD21*
21,1,1.2500,0.5500,0,0,230.4*
21,1,0.7000,1.1000,0,0,230.4*
1,1,0.5500,-0.4350,-0.0944*
1,1,0.5500,0.0112,0.4450*
1,1,0.5500,0.4350,0.0944*
1,1,0.5500,-0.0112,-0.4450*
%
%ADD21ROUNDEDRECTD21*%
G04:AMPARAMS|DCode=22|XSize=1.25mm|YSize=1.1mm|CornerRadius=0mm|HoleSize=0mm|Usage=FLASHONLY|Rotation=230.400|XOffset=0mm|YOffset=0mm|HoleType=Round|Shape=Rectangle|*
%AMROTATEDRECTD22*
4,1,4,-0.0254,0.8322,0.8222,0.1310,0.0254,-0.8322,-0.8222,-0.1310,-0.0254,0.8322,0.0*
%
%ADD22ROTATEDRECTD22*%

G04:AMPARAMS|DCode=23|XSize=1.25mm|YSize=1.1mm|CornerRadius=0.275mm|HoleSize=0mm|Usage=FLASHONLY|Rotation=72.000|XOffset=0mm|YOffset=0mm|HoleType=Round|Shape=RoundedRectangle|*
%AMROUNDEDRECTD23*
21,1,1.2500,0.5500,0,0,72.0*
21,1,0.7000,1.1000,0,0,72.0*
1,1,0.5500,0.3697,0.2479*
1,1,0.5500,0.1534,-0.4178*
1,1,0.5500,-0.3697,-0.2479*
1,1,0.5500,-0.1534,0.4178*
%
%ADD23ROUNDEDRECTD23*%
G04:AMPARAMS|DCode=24|XSize=1.25mm|YSize=1.1mm|CornerRadius=0mm|HoleSize=0mm|Usage=FLASHONLY|Rotation=72.000|XOffset=0mm|YOffset=0mm|HoleType=Round|Shape=Rectangle|*
%AMROTATEDRECTD24*
4,1,4,0.3300,-0.7644,-0.7162,-0.4245,-0.3300,0.7644,0.7162,0.4245,0.3300,-0.7644,0.0*
%
%ADD24ROTATEDRECTD24*%

G04:AMPARAMS|DCode=25|XSize=1.25mm|YSize=1.1mm|CornerRadius=0.275mm|HoleSize=0mm|Usage=FLASHONLY|Rotation=302.400|XOffset=0mm|YOffset=0mm|HoleType=Round|Shape=RoundedRectangle|*
%AMROUNDEDRECTD25*
21,1,1.2500,0.5500,0,0,302.4*
21,1,0.7000,1.1000,0,0,302.4*
1,1,0.5500,-0.0447,-0.4429*
1,1,0.5500,-0.4197,0.1482*
1,1,0.5500,0.0447,0.4429*
1,1,0.5500,0.4197,-0.1482*
%
%ADD25ROUNDEDRECTD25*%
G04:AMPARAMS|DCode=26|XSize=1.25mm|YSize=1.1mm|CornerRadius=0mm|HoleSize=0mm|Usage=FLASHONLY|Rotation=302.400|XOffset=0mm|YOffset=0mm|HoleType=Round|Shape=Rectangle|*
%AMROTATEDRECTD26*
4,1,4,-0.7993,0.2330,0.1295,0.8224,0.7993,-0.2330,-0.1295,-0.8224,-0.7993,0.2330,0.0*
%
%ADD26ROTATEDRECTD26*%

G04:AMPARAMS|DCode=27|XSize=1.25mm|YSize=1.1mm|CornerRadius=0.275mm|HoleSize=0mm|Usage=FLASHONLY|Rotation=316.800|XOffset=0mm|YOffset=0mm|HoleType=Round|Shape=RoundedRectangle|*
%AMROUNDEDRECTD27*
21,1,1.2500,0.5500,0,0,316.8*
21,1,0.7000,1.1000,0,0,316.8*
1,1,0.5500,0.0669,-0.4401*
1,1,0.5500,-0.4434,0.0391*
1,1,0.5500,-0.0669,0.4401*
1,1,0.5500,0.4434,-0.0391*
%
%ADD27ROUNDEDRECTD27*%
G04:AMPARAMS|DCode=28|XSize=1.25mm|YSize=1.1mm|CornerRadius=0mm|HoleSize=0mm|Usage=FLASHONLY|Rotation=316.800|XOffset=0mm|YOffset=0mm|HoleType=Round|Shape=Rectangle|*
%AMROTATEDRECTD28*
4,1,4,-0.8321,0.0269,-0.0791,0.8288,0.8321,-0.0269,0.0791,-0.8288,-0.8321,0.0269,0.0*
%
%ADD28ROTATEDRECTD28*%

G04:AMPARAMS|DCode=29|XSize=1.25mm|YSize=1.1mm|CornerRadius=0.275mm|HoleSize=0mm|Usage=FLASHONLY|Rotation=331.200|XOffset=0mm|YOffset=0mm|HoleType=Round|Shape=RoundedRectangle|*
%AMROUNDEDRECTD29*
21,1,1.2500,0.5500,0,0,331.2*
21,1,0.7000,1.1000,0,0,331.2*
1,1,0.5500,0.1742,-0.4096*
1,1,0.5500,-0.4392,-0.0724*
1,1,0.5500,-0.1742,0.4096*
1,1,0.5500,0.4392,0.0724*
%
%ADD29ROUNDEDRECTD29*%
G04:AMPARAMS|DCode=30|XSize=1.25mm|YSize=1.1mm|CornerRadius=0mm|HoleSize=0mm|Usage=FLASHONLY|Rotation=331.200|XOffset=0mm|YOffset=0mm|HoleType=Round|Shape=Rectangle|*
%AMROTATEDRECTD30*
4,1,4,-0.8127,-0.1809,-0.2827,0.7831,0.8127,0.1809,0.2827,-0.7831,-0.8127,-0.1809,0.0*
%
%ADD30ROTATEDRECTD30*%

G04:AMPARAMS|DCode=31|XSize=1.25mm|YSize=1.1mm|CornerRadius=0.275mm|HoleSize=0mm|Usage=FLASHONLY|Rotation=345.600|XOffset=0mm|YOffset=0mm|HoleType=Round|Shape=RoundedRectangle|*
%AMROUNDEDRECTD31*
21,1,1.2500,0.5500,0,0,345.6*
21,1,0.7000,1.1000,0,0,345.6*
1,1,0.5500,0.2706,-0.3534*
1,1,0.5500,-0.4074,-0.1793*
1,1,0.5500,-0.2706,0.3534*
1,1,0.5500,0.4074,0.1793*
%
%ADD31ROUNDEDRECTD31*%
G04:AMPARAMS|DCode=32|XSize=1.25mm|YSize=1.1mm|CornerRadius=0mm|HoleSize=0mm|Usage=FLASHONLY|Rotation=345.600|XOffset=0mm|YOffset=0mm|HoleType=Round|Shape=Rectangle|*
%AMROTATEDRECTD32*
4,1,4,-0.7421,-0.3773,-0.4686,0.6882,0.7421,0.3773,0.4686,-0.6882,-0.7421,-0.3773,0.0*
%
%ADD32ROTATEDRECTD32*%

G04:AMPARAMS|DCode=33|XSize=1.25mm|YSize=1.1mm|CornerRadius=0.275mm|HoleSize=0mm|Usage=FLASHONLY|Rotation=0.008|XOffset=0mm|YOffset=0mm|HoleType=Round|Shape=RoundedRectangle|*
%AMROUNDEDRECTD33*
21,1,1.2500,0.5500,0,0,0.008*
21,1,0.7000,1.1000,0,0,0.008*
1,1,0.5500,0.3500,-0.2750*
1,1,0.5500,-0.3500,-0.2751*
1,1,0.5500,-0.3500,0.2750*
1,1,0.5500,0.3500,0.2751*
%
%ADD33ROUNDEDRECTD33*%
G04:AMPARAMS|DCode=34|XSize=1.25mm|YSize=1.1mm|CornerRadius=0mm|HoleSize=0mm|Usage=FLASHONLY|Rotation=0.008|XOffset=0mm|YOffset=0mm|HoleType=Round|Shape=Rectangle|*
%AMROTATEDRECTD34*
4,1,4,-0.6249,-0.5501,-0.6251,0.5499,0.6249,0.5501,0.6251,-0.5499,-0.6249,-0.5501,0.0*
%
%ADD34ROTATEDRECTD34*%

G04:AMPARAMS|DCode=35|XSize=1.25mm|YSize=1.1mm|CornerRadius=0.275mm|HoleSize=0mm|Usage=FLASHONLY|Rotation=248.401|XOffset=0mm|YOffset=0mm|HoleType=Round|Shape=RoundedRectangle|*
%AMROUNDEDRECTD35*
21,1,1.2500,0.5500,0,0,248.401*
21,1,0.7000,1.1000,0,0,248.401*
1,1,0.5500,-0.3845,-0.2242*
1,1,0.5500,-0.1269,0.4267*
1,1,0.5500,0.3845,0.2242*
1,1,0.5500,0.1269,-0.4267*
%
%ADD35ROUNDEDRECTD35*%
G04:AMPARAMS|DCode=36|XSize=1.25mm|YSize=1.1mm|CornerRadius=0mm|HoleSize=0mm|Usage=FLASHONLY|Rotation=248.401|XOffset=0mm|YOffset=0mm|HoleType=Round|Shape=Rectangle|*
%AMROTATEDRECTD36*
4,1,4,-0.2813,0.7836,0.7415,0.3787,0.2813,-0.7836,-0.7415,-0.3787,-0.2813,0.7836,0.0*
%
%ADD36ROTATEDRECTD36*%

G04:AMPARAMS|DCode=37|XSize=1.25mm|YSize=1.1mm|CornerRadius=0.275mm|HoleSize=0mm|Usage=FLASHONLY|Rotation=273.600|XOffset=0mm|YOffset=0mm|HoleType=Round|Shape=RoundedRectangle|*
%AMROUNDEDRECTD37*
21,1,1.2500,0.5500,0,0,273.6*
21,1,0.7000,1.1000,0,0,273.6*
1,1,0.5500,-0.2525,-0.3666*
1,1,0.5500,-0.2964,0.3320*
1,1,0.5500,0.2525,0.3666*
1,1,0.5500,0.2964,-0.3320*
%
%ADD37ROUNDEDRECTD37*%
G04:AMPARAMS|DCode=38|XSize=1.25mm|YSize=1.1mm|CornerRadius=0mm|HoleSize=0mm|Usage=FLASHONLY|Rotation=273.600|XOffset=0mm|YOffset=0mm|HoleType=Round|Shape=Rectangle|*
%AMROTATEDRECTD38*
4,1,4,-0.5882,0.5892,0.5097,0.6583,0.5882,-0.5892,-0.5097,-0.6583,-0.5882,0.5892,0.0*
%
%ADD38ROTATEDRECTD38*%

G04:AMPARAMS|DCode=39|XSize=1.25mm|YSize=1.1mm|CornerRadius=0.275mm|HoleSize=0mm|Usage=FLASHONLY|Rotation=288.000|XOffset=0mm|YOffset=0mm|HoleType=Round|Shape=RoundedRectangle|*
%AMROUNDEDRECTD39*
21,1,1.2500,0.5500,0,0,288.0*
21,1,0.7000,1.1000,0,0,288.0*
1,1,0.5500,-0.1534,-0.4178*
1,1,0.5500,-0.3697,0.2479*
1,1,0.5500,0.1534,0.4178*
1,1,0.5500,0.3697,-0.2479*
%
%ADD39ROUNDEDRECTD39*%
G04:AMPARAMS|DCode=40|XSize=1.25mm|YSize=1.1mm|CornerRadius=0mm|HoleSize=0mm|Usage=FLASHONLY|Rotation=288.000|XOffset=0mm|YOffset=0mm|HoleType=Round|Shape=Rectangle|*
%AMROTATEDRECTD40*
4,1,4,-0.7162,0.4245,0.3300,0.7644,0.7162,-0.4245,-0.3300,-0.7644,-0.7162,0.4245,0.0*
%
%ADD40ROTATEDRECTD40*%

G04:AMPARAMS|DCode=41|XSize=1.25mm|YSize=1.1mm|CornerRadius=0.275mm|HoleSize=0mm|Usage=FLASHONLY|Rotation=158.400|XOffset=0mm|YOffset=0mm|HoleType=Round|Shape=RoundedRectangle|*
%AMROUNDEDRECTD41*
21,1,1.2500,0.5500,0,0,158.4*
21,1,0.7000,1.1000,0,0,158.4*
1,1,0.5500,-0.2242,0.3845*
1,1,0.5500,0.4267,0.1269*
1,1,0.5500,0.2242,-0.3845*
1,1,0.5500,-0.4267,-0.1269*
%
%ADD41ROUNDEDRECTD41*%
G04:AMPARAMS|DCode=42|XSize=1.25mm|YSize=1.1mm|CornerRadius=0mm|HoleSize=0mm|Usage=FLASHONLY|Rotation=158.400|XOffset=0mm|YOffset=0mm|HoleType=Round|Shape=Rectangle|*
%AMROTATEDRECTD42*
4,1,4,0.7836,0.2813,0.3786,-0.7415,-0.7836,-0.2813,-0.3786,0.7415,0.7836,0.2813,0.0*
%
%ADD42ROTATEDRECTD42*%

G04:AMPARAMS|DCode=43|XSize=1.25mm|YSize=1.1mm|CornerRadius=0.275mm|HoleSize=0mm|Usage=FLASHONLY|Rotation=172.800|XOffset=0mm|YOffset=0mm|HoleType=Round|Shape=RoundedRectangle|*
%AMROUNDEDRECTD43*
21,1,1.2500,0.5500,0,0,172.8*
21,1,0.7000,1.1000,0,0,172.8*
1,1,0.5500,-0.3128,0.3167*
1,1,0.5500,0.3817,0.2290*
1,1,0.5500,0.3128,-0.3167*
1,1,0.5500,-0.3817,-0.2290*
%
%ADD43ROUNDEDRECTD43*%
G04:AMPARAMS|DCode=44|XSize=1.25mm|YSize=1.1mm|CornerRadius=0mm|HoleSize=0mm|Usage=FLASHONLY|Rotation=172.800|XOffset=0mm|YOffset=0mm|HoleType=Round|Shape=Rectangle|*
%AMROTATEDRECTD44*
4,1,4,0.6890,0.4673,0.5511,-0.6240,-0.6890,-0.4673,-0.5511,0.6240,0.6890,0.4673,0.0*
%
%ADD44ROTATEDRECTD44*%

G04:AMPARAMS|DCode=45|XSize=1.25mm|YSize=1.1mm|CornerRadius=0.275mm|HoleSize=0mm|Usage=FLASHONLY|Rotation=187.200|XOffset=0mm|YOffset=0mm|HoleType=Round|Shape=RoundedRectangle|*
%AMROUNDEDRECTD45*
21,1,1.2500,0.5500,0,0,187.2*
21,1,0.7000,1.1000,0,0,187.2*
1,1,0.5500,-0.3817,0.2290*
1,1,0.5500,0.3128,0.3167*
1,1,0.5500,0.3817,-0.2290*
1,1,0.5500,-0.3128,-0.3167*
%
%ADD45ROUNDEDRECTD45*%
G04:AMPARAMS|DCode=46|XSize=1.25mm|YSize=1.1mm|CornerRadius=0mm|HoleSize=0mm|Usage=FLASHONLY|Rotation=187.200|XOffset=0mm|YOffset=0mm|HoleType=Round|Shape=Rectangle|*
%AMROTATEDRECTD46*
4,1,4,0.5511,0.6240,0.6890,-0.4673,-0.5511,-0.6240,-0.6890,0.4673,0.5511,0.6240,0.0*
%
%ADD46ROTATEDRECTD46*%

G04:AMPARAMS|DCode=47|XSize=1.25mm|YSize=1.1mm|CornerRadius=0.275mm|HoleSize=0mm|Usage=FLASHONLY|Rotation=211.921|XOffset=0mm|YOffset=0mm|HoleType=Round|Shape=RoundedRectangle|*
%AMROUNDEDRECTD47*
21,1,1.2500,0.5500,0,0,211.921*
21,1,0.7000,1.1000,0,0,211.921*
1,1,0.5500,-0.4425,0.0484*
1,1,0.5500,0.1517,0.4185*
1,1,0.5500,0.4425,-0.0484*
1,1,0.5500,-0.1517,-0.4185*
%
%ADD47ROUNDEDRECTD47*%
G04:AMPARAMS|DCode=48|XSize=1.25mm|YSize=1.1mm|CornerRadius=0mm|HoleSize=0mm|Usage=FLASHONLY|Rotation=211.921|XOffset=0mm|YOffset=0mm|HoleType=Round|Shape=Rectangle|*
%AMROTATEDRECTD48*
4,1,4,0.2397,0.7973,0.8213,-0.1364,-0.2397,-0.7973,-0.8213,0.1364,0.2397,0.7973,0.0*
%
%ADD48ROTATEDRECTD48*%

G04:AMPARAMS|DCode=49|XSize=1.25mm|YSize=1.1mm|CornerRadius=0.275mm|HoleSize=0mm|Usage=FLASHONLY|Rotation=215.804|XOffset=0mm|YOffset=0mm|HoleType=Round|Shape=RoundedRectangle|*
%AMROUNDEDRECTD49*
21,1,1.2500,0.5500,0,0,215.804*
21,1,0.7000,1.1000,0,0,215.804*
1,1,0.5500,-0.4447,0.0183*
1,1,0.5500,0.1230,0.4278*
1,1,0.5500,0.4447,-0.0183*
1,1,0.5500,-0.1230,-0.4278*
%
%ADD49ROUNDEDRECTD49*%
G04:AMPARAMS|DCode=50|XSize=1.25mm|YSize=1.1mm|CornerRadius=0mm|HoleSize=0mm|Usage=FLASHONLY|Rotation=215.804|XOffset=0mm|YOffset=0mm|HoleType=Round|Shape=Rectangle|*
%AMROTATEDRECTD50*
4,1,4,0.1851,0.8117,0.8287,-0.0804,-0.1851,-0.8117,-0.8287,0.0804,0.1851,0.8117,0.0*
%
%ADD50ROTATEDRECTD50*%

G04:AMPARAMS|DCode=51|XSize=1.25mm|YSize=1.1mm|CornerRadius=0.275mm|HoleSize=0mm|Usage=FLASHONLY|Rotation=86.400|XOffset=0mm|YOffset=0mm|HoleType=Round|Shape=RoundedRectangle|*
%AMROUNDEDRECTD51*
21,1,1.2500,0.5500,0,0,86.4*
21,1,0.7000,1.1000,0,0,86.4*
1,1,0.5500,0.2964,0.3320*
1,1,0.5500,0.2525,-0.3666*
1,1,0.5500,-0.2964,-0.3320*
1,1,0.5500,-0.2525,0.3666*
%
%ADD51ROUNDEDRECTD51*%
G04:AMPARAMS|DCode=52|XSize=1.25mm|YSize=1.1mm|CornerRadius=0mm|HoleSize=0mm|Usage=FLASHONLY|Rotation=86.400|XOffset=0mm|YOffset=0mm|HoleType=Round|Shape=Rectangle|*
%AMROTATEDRECTD52*
4,1,4,0.5097,-0.6583,-0.5882,-0.5892,-0.5097,0.6583,0.5882,0.5892,0.5097,-0.6583,0.0*
%
%ADD52ROTATEDRECTD52*%

G04:AMPARAMS|DCode=53|XSize=1.25mm|YSize=1.1mm|CornerRadius=0.275mm|HoleSize=0mm|Usage=FLASHONLY|Rotation=100.800|XOffset=0mm|YOffset=0mm|HoleType=Round|Shape=RoundedRectangle|*
%AMROUNDEDRECTD53*
21,1,1.2500,0.5500,0,0,100.8*
21,1,0.7000,1.1000,0,0,100.8*
1,1,0.5500,0.2046,0.3953*
1,1,0.5500,0.3357,-0.2923*
1,1,0.5500,-0.2046,-0.3953*
1,1,0.5500,-0.3357,0.2923*
%
%ADD53ROUNDEDRECTD53*%
G04:AMPARAMS|DCode=54|XSize=1.25mm|YSize=1.1mm|CornerRadius=0mm|HoleSize=0mm|Usage=FLASHONLY|Rotation=100.800|XOffset=0mm|YOffset=0mm|HoleType=Round|Shape=Rectangle|*
%AMROTATEDRECTD54*
4,1,4,0.6574,-0.5109,-0.4232,-0.7170,-0.6574,0.5109,0.4232,0.7170,0.6574,-0.5109,0.0*
%
%ADD54ROTATEDRECTD54*%

G04:AMPARAMS|DCode=55|XSize=1.25mm|YSize=1.1mm|CornerRadius=0.275mm|HoleSize=0mm|Usage=FLASHONLY|Rotation=115.200|XOffset=0mm|YOffset=0mm|HoleType=Round|Shape=RoundedRectangle|*
%AMROUNDEDRECTD55*
21,1,1.2500,0.5500,0,0,115.2*
21,1,0.7000,1.1000,0,0,115.2*
1,1,0.5500,0.0998,0.4338*
1,1,0.5500,0.3979,-0.1996*
1,1,0.5500,-0.0998,-0.4338*
1,1,0.5500,-0.3979,0.1996*
%
%ADD55ROUNDEDRECTD55*%
G04:AMPARAMS|DCode=56|XSize=1.25mm|YSize=1.1mm|CornerRadius=0mm|HoleSize=0mm|Usage=FLASHONLY|Rotation=115.200|XOffset=0mm|YOffset=0mm|HoleType=Round|Shape=Rectangle|*
%AMROTATEDRECTD56*
4,1,4,0.7638,-0.3313,-0.2315,-0.7997,-0.7638,0.3313,0.2315,0.7997,0.7638,-0.3313,0.0*
%
%ADD56ROTATEDRECTD56*%

G04:AMPARAMS|DCode=57|XSize=1.25mm|YSize=1.1mm|CornerRadius=0.275mm|HoleSize=0mm|Usage=FLASHONLY|Rotation=129.600|XOffset=0mm|YOffset=0mm|HoleType=Round|Shape=RoundedRectangle|*
%AMROUNDEDRECTD57*
21,1,1.2500,0.5500,0,0,129.6*
21,1,0.7000,1.1000,0,0,129.6*
1,1,0.5500,-0.0112,0.4450*
1,1,0.5500,0.4350,-0.0944*
1,1,0.5500,0.0112,-0.4450*
1,1,0.5500,-0.4350,0.0944*
%
%ADD57ROUNDEDRECTD57*%
G04:AMPARAMS|DCode=58|XSize=1.25mm|YSize=1.1mm|CornerRadius=0mm|HoleSize=0mm|Usage=FLASHONLY|Rotation=129.600|XOffset=0mm|YOffset=0mm|HoleType=Round|Shape=Rectangle|*
%AMROTATEDRECTD58*
4,1,4,0.8222,-0.1310,-0.0254,-0.8322,-0.8222,0.1310,0.0254,0.8322,0.8222,-0.1310,0.0*
%
%ADD58ROTATEDRECTD58*%

G04:AMPARAMS|DCode=59|XSize=1.25mm|YSize=1.1mm|CornerRadius=0.275mm|HoleSize=0mm|Usage=FLASHONLY|Rotation=144.000|XOffset=0mm|YOffset=0mm|HoleType=Round|Shape=RoundedRectangle|*
%AMROUNDEDRECTD59*
21,1,1.2500,0.5500,0,0,144.0*
21,1,0.7000,1.1000,0,0,144.0*
1,1,0.5500,-0.1215,0.4282*
1,1,0.5500,0.4448,0.0168*
1,1,0.5500,0.1215,-0.4282*
1,1,0.5500,-0.4448,-0.0168*
%
%ADD59ROUNDEDRECTD59*%
G04:AMPARAMS|DCode=60|XSize=1.25mm|YSize=1.1mm|CornerRadius=0mm|HoleSize=0mm|Usage=FLASHONLY|Rotation=144.000|XOffset=0mm|YOffset=0mm|HoleType=Round|Shape=Rectangle|*
%AMROTATEDRECTD60*
4,1,4,0.8289,0.0776,0.1824,-0.8123,-0.8289,-0.0776,-0.1824,0.8123,0.8289,0.0776,0.0*
%
%ADD60ROTATEDRECTD60*%

G04:AMPARAMS|DCode=61|XSize=1.25mm|YSize=1.1mm|CornerRadius=0.275mm|HoleSize=0mm|Usage=FLASHONLY|Rotation=14.400|XOffset=0mm|YOffset=0mm|HoleType=Round|Shape=RoundedRectangle|*
%AMROUNDEDRECTD61*
21,1,1.2500,0.5500,0,0,14.4*
21,1,0.7000,1.1000,0,0,14.4*
1,1,0.5500,0.4074,-0.1793*
1,1,0.5500,-0.2706,-0.3534*
1,1,0.5500,-0.4074,0.1793*
1,1,0.5500,0.2706,0.3534*
%
%ADD61ROUNDEDRECTD61*%
G04:AMPARAMS|DCode=62|XSize=1.25mm|YSize=1.1mm|CornerRadius=0mm|HoleSize=0mm|Usage=FLASHONLY|Rotation=14.400|XOffset=0mm|YOffset=0mm|HoleType=Round|Shape=Rectangle|*
%AMROTATEDRECTD62*
4,1,4,-0.4686,-0.6882,-0.7421,0.3773,0.4686,0.6882,0.7421,-0.3773,-0.4686,-0.6882,0.0*
%
%ADD62ROTATEDRECTD62*%

G04:AMPARAMS|DCode=63|XSize=1.25mm|YSize=1.1mm|CornerRadius=0.275mm|HoleSize=0mm|Usage=FLASHONLY|Rotation=28.795|XOffset=0mm|YOffset=0mm|HoleType=Round|Shape=RoundedRectangle|*
%AMROUNDEDRECTD63*
21,1,1.2500,0.5500,0,0,28.795*
21,1,0.7000,1.1000,0,0,28.795*
1,1,0.5500,0.4392,-0.0724*
1,1,0.5500,-0.1743,-0.4096*
1,1,0.5500,-0.4392,0.0724*
1,1,0.5500,0.1743,0.4096*
%
%ADD63ROUNDEDRECTD63*%
G04:AMPARAMS|DCode=64|XSize=1.25mm|YSize=1.1mm|CornerRadius=0mm|HoleSize=0mm|Usage=FLASHONLY|Rotation=28.795|XOffset=0mm|YOffset=0mm|HoleType=Round|Shape=Rectangle|*
%AMROTATEDRECTD64*
4,1,4,-0.2828,-0.7830,-0.8126,0.1809,0.2828,0.7830,0.8126,-0.1809,-0.2828,-0.7830,0.0*
%
%ADD64ROTATEDRECTD64*%

G04:AMPARAMS|DCode=65|XSize=1.25mm|YSize=1.1mm|CornerRadius=0.275mm|HoleSize=0mm|Usage=FLASHONLY|Rotation=43.457|XOffset=0mm|YOffset=0mm|HoleType=Round|Shape=RoundedRectangle|*
%AMROUNDEDRECTD65*
21,1,1.2500,0.5500,0,0,43.457*
21,1,0.7000,1.1000,0,0,43.457*
1,1,0.5500,0.4432,0.0411*
1,1,0.5500,-0.0649,-0.4404*
1,1,0.5500,-0.4432,-0.0411*
1,1,0.5500,0.0649,0.4404*
%
%ADD65ROUNDEDRECTD65*%
G04:AMPARAMS|DCode=66|XSize=1.25mm|YSize=1.1mm|CornerRadius=0mm|HoleSize=0mm|Usage=FLASHONLY|Rotation=43.457|XOffset=0mm|YOffset=0mm|HoleType=Round|Shape=Rectangle|*
%AMROTATEDRECTD66*
4,1,4,-0.0754,-0.8291,-0.8320,-0.0306,0.0754,0.8291,0.8320,0.0306,-0.0754,-0.8291,0.0*
%
%ADD66ROTATEDRECTD66*%

G04:AMPARAMS|DCode=67|XSize=1.25mm|YSize=1.1mm|CornerRadius=0.275mm|HoleSize=0mm|Usage=FLASHONLY|Rotation=57.600|XOffset=0mm|YOffset=0mm|HoleType=Round|Shape=RoundedRectangle|*
%AMROUNDEDRECTD67*
21,1,1.2500,0.5500,0,0,57.6*
21,1,0.7000,1.1000,0,0,57.6*
1,1,0.5500,0.4197,0.1482*
1,1,0.5500,0.0447,-0.4429*
1,1,0.5500,-0.4197,-0.1482*
1,1,0.5500,-0.0447,0.4429*
%
%ADD67ROUNDEDRECTD67*%
G04:AMPARAMS|DCode=68|XSize=1.25mm|YSize=1.1mm|CornerRadius=0mm|HoleSize=0mm|Usage=FLASHONLY|Rotation=57.600|XOffset=0mm|YOffset=0mm|HoleType=Round|Shape=Rectangle|*
%AMROTATEDRECTD68*
4,1,4,0.1295,-0.8224,-0.7993,-0.2330,-0.1295,0.8224,0.7993,0.2330,0.1295,-0.8224,0.0*
%
%ADD68ROTATEDRECTD68*%

%ADD69R,0.8000X0.8000*%
%ADD127C,0.5000*%
%ADD128C,1.0000*%
%ADD129C,2.0000*%
%ADD130R,2.3000X3.0000*%
%ADD131C,0.6000*%
G36*
X62583Y208671D02*
X60732Y207602D01*
X58498Y205368D01*
X56918Y202632D01*
X56100Y199580D01*
Y196420D01*
X56918Y193368D01*
X58498Y190632D01*
X60732Y188398D01*
X63468Y186818D01*
X66520Y186000D01*
X69680D01*
X72732Y186818D01*
X75468Y188398D01*
X77702Y190632D01*
X79282Y193368D01*
X80100Y196420D01*
Y199580D01*
X79282Y202632D01*
X77702Y205368D01*
X75714Y207356D01*
X76023Y208401D01*
X76171Y208614D01*
X76950Y208591D01*
X80748Y207018D01*
X84355Y204808D01*
X87571Y202061D01*
X90318Y198844D01*
X92528Y195238D01*
X94147Y191330D01*
X95135Y187217D01*
X95434Y183413D01*
X95327Y182875D01*
X95327Y182875D01*
Y157912D01*
X95294Y157748D01*
X95419Y157118D01*
X94329Y156257D01*
X64545Y171996D01*
X64534Y171999D01*
X64526Y172006D01*
X64519Y172009D01*
X64424Y172037D01*
X64067Y172275D01*
X62955Y172496D01*
X62583Y172624D01*
X26884Y177419D01*
X26394Y177389D01*
X25903Y177406D01*
X15305Y175675D01*
X14857Y175508D01*
X14394Y175388D01*
X14253Y175282D01*
X14087Y175219D01*
X13737Y174893D01*
X13355Y174605D01*
X13271Y174511D01*
X3503Y175126D01*
X2965Y166569D01*
X-23818Y164884D01*
X-25425Y173306D01*
X-40159Y170495D01*
X-38528Y161945D01*
X-64019Y153663D01*
X-67725Y161538D01*
X-81298Y155151D01*
X-77529Y147142D01*
X-100128Y132800D01*
X-105771Y139621D01*
X-117328Y130059D01*
X-111585Y123117D01*
X-129881Y103635D01*
X-137170Y108930D01*
X-145986Y96795D01*
X-132638Y87096D01*
X-123821Y99232D01*
Y99232D01*
X-123917Y100245D01*
X-107828Y117378D01*
X-106811Y117346D01*
X-106811D01*
X-95253Y126907D01*
Y126907D01*
X-95061Y128117D01*
X-75449Y140564D01*
X-74272Y140222D01*
X-74272Y140222D01*
X-60700Y146608D01*
X-60749Y146712D01*
X-60244Y147878D01*
X-38182Y155046D01*
X-37089Y154400D01*
X-37067Y154287D01*
X-22333Y157098D01*
X-22379Y157338D01*
X-21600Y158342D01*
X-14702Y158776D01*
X-14355Y158015D01*
X-14289Y157529D01*
X-15589Y156230D01*
X-16350Y154392D01*
Y152403D01*
X-15589Y150565D01*
X-15181Y150158D01*
Y140034D01*
X-16583Y138632D01*
X-17344Y136795D01*
Y134805D01*
X-16583Y132968D01*
X-15177Y131561D01*
X-13339Y130800D01*
X-11350D01*
X-9512Y131561D01*
X-8106Y132968D01*
X-7345Y134805D01*
Y136795D01*
X-8106Y138632D01*
X-8513Y139040D01*
Y149163D01*
X-7111Y150565D01*
X-5612Y150867D01*
X-5184Y150516D01*
Y126937D01*
X-6089Y126032D01*
X-6850Y124194D01*
Y122205D01*
X-6089Y120368D01*
X-4682Y118961D01*
X-2845Y118200D01*
X-855D01*
X982Y118961D01*
X2389Y120368D01*
X3150Y122205D01*
Y124194D01*
X2389Y126032D01*
X1484Y126937D01*
Y135681D01*
X2754Y136172D01*
X3900Y135298D01*
X5557Y134858D01*
X4258Y114205D01*
X3109Y113056D01*
X2348Y111219D01*
Y109229D01*
X3109Y107392D01*
X4516Y105985D01*
X6354Y105224D01*
X8343D01*
X10180Y105985D01*
X11587Y107392D01*
X12348Y109229D01*
Y111219D01*
X11587Y113056D01*
X10910Y113734D01*
X12223Y134603D01*
X13088Y134720D01*
X14722Y135669D01*
X15869Y137171D01*
X16353Y138997D01*
X16793Y145984D01*
X16541Y147857D01*
X15592Y149490D01*
X14090Y150637D01*
X12263Y151121D01*
X6774Y151467D01*
X4901Y151215D01*
X3267Y150266D01*
X2754Y149594D01*
X1484Y150023D01*
Y151763D01*
X2389Y152668D01*
X3150Y154505D01*
Y156495D01*
X2789Y157365D01*
X3659Y158583D01*
X17437Y157716D01*
X18172Y169387D01*
X26488Y170745D01*
X45727Y168160D01*
X46403Y167085D01*
X41846Y153060D01*
X56112Y148425D01*
X56242Y148825D01*
X57408Y149329D01*
X78467Y139420D01*
X78822Y138200D01*
X78596Y137845D01*
X91261Y129807D01*
X91505Y130192D01*
X92759Y130390D01*
X110145Y116007D01*
X110188Y114738D01*
X109771Y114343D01*
X120088Y103455D01*
X120581Y103921D01*
X121845Y103805D01*
X135949Y84392D01*
X135672Y83152D01*
X135274Y82933D01*
X142499Y69788D01*
X142861Y69987D01*
X144056Y69557D01*
X152625Y47914D01*
X152049Y46783D01*
X151655Y46682D01*
X155386Y32153D01*
X155526Y32189D01*
X156178Y31045D01*
X152806Y27673D01*
X151526D01*
X149689Y26912D01*
X148282Y25505D01*
X147521Y23667D01*
Y21678D01*
X148282Y19841D01*
X149689Y18434D01*
X151526Y17673D01*
X153515D01*
X155353Y18434D01*
X156760Y19841D01*
X157521Y21678D01*
Y22958D01*
X163403Y28840D01*
X164126Y29922D01*
X164380Y31198D01*
Y34462D01*
X171367Y36256D01*
X167637Y50785D01*
X159489Y48693D01*
X149593Y73687D01*
X155028Y76674D01*
X156223Y76246D01*
X162112Y61525D01*
X161598Y60283D01*
Y58293D01*
X162359Y56456D01*
X163765Y55049D01*
X165603Y54288D01*
X167592D01*
X169430Y55049D01*
X170837Y56456D01*
X171598Y58293D01*
Y60283D01*
X170837Y62120D01*
X169430Y63527D01*
X168307Y63992D01*
X157890Y90034D01*
X157804Y90249D01*
X157833Y90286D01*
X157833Y90286D01*
X157823Y90334D01*
X157206Y91327D01*
X157203Y91333D01*
X157149Y91455D01*
X156531Y92330D01*
X141262Y113962D01*
X142276Y114727D01*
X146408Y109600D01*
X153854Y98876D01*
X155039Y96879D01*
X155104Y96920D01*
X155487Y96347D01*
X156479Y95684D01*
X157649Y95451D01*
X181388D01*
X181396Y95451D01*
X182649Y95451D01*
X183885Y95369D01*
X186866Y95134D01*
X190979Y94147D01*
X194887Y92528D01*
X198494Y90318D01*
X201710Y87571D01*
X204457Y84355D01*
X206667Y80748D01*
X208240Y76952D01*
X208260Y76174D01*
X208067Y76039D01*
X207001Y75720D01*
X205018Y77702D01*
X202282Y79282D01*
X199230Y80100D01*
X196070D01*
X193018Y79282D01*
X190282Y77702D01*
X188048Y75468D01*
X186468Y72732D01*
X185650Y69680D01*
Y66520D01*
X186468Y63468D01*
X188048Y60732D01*
X190282Y58498D01*
X193018Y56918D01*
X196070Y56100D01*
X199230D01*
X202282Y56918D01*
X205018Y58498D01*
X207252Y60732D01*
X208321Y62582D01*
X209591Y62242D01*
Y44417D01*
X208352Y43701D01*
X207049Y42398D01*
X206127Y40802D01*
X205650Y39022D01*
Y37178D01*
X206127Y35398D01*
X207049Y33802D01*
X208352Y32499D01*
X209591Y31783D01*
Y8939D01*
X192157D01*
X191961Y8900D01*
X191760D01*
X190794Y8708D01*
X190608Y8631D01*
X190411Y8592D01*
X189501Y8215D01*
X189334Y8103D01*
X189149Y8026D01*
X188330Y7479D01*
X188188Y7337D01*
X188021Y7226D01*
X187324Y6529D01*
X187213Y6362D01*
X187071Y6220D01*
X186523Y5401D01*
X186447Y5216D01*
X186335Y5049D01*
X185958Y4139D01*
X185919Y3942D01*
X185842Y3756D01*
X185650Y2790D01*
Y2589D01*
X185611Y2392D01*
X185611Y1408D01*
X185650Y1211D01*
Y1010D01*
X185842Y44D01*
X185919Y-142D01*
X185958Y-339D01*
X186335Y-1249D01*
X186447Y-1416D01*
X186523Y-1601D01*
X187071Y-2420D01*
X187213Y-2562D01*
X187324Y-2729D01*
X188021Y-3426D01*
X188188Y-3537D01*
X188330Y-3679D01*
X189149Y-4227D01*
X189334Y-4303D01*
X189501Y-4415D01*
X190411Y-4792D01*
X190608Y-4831D01*
X190794Y-4908D01*
X191760Y-5100D01*
X191961D01*
X192157Y-5139D01*
X209591D01*
Y-11061D01*
X192157D01*
X191961Y-11100D01*
X191760D01*
X190794Y-11292D01*
X190608Y-11369D01*
X190411Y-11408D01*
X189501Y-11785D01*
X189334Y-11897D01*
X189149Y-11974D01*
X188330Y-12521D01*
X188188Y-12663D01*
X188021Y-12774D01*
X187324Y-13471D01*
X187213Y-13638D01*
X187071Y-13780D01*
X186523Y-14599D01*
X186447Y-14784D01*
X186335Y-14951D01*
X185958Y-15861D01*
X185919Y-16058D01*
X185842Y-16244D01*
X185650Y-17210D01*
Y-17411D01*
X185611Y-17608D01*
X185611Y-18592D01*
X185650Y-18789D01*
Y-18990D01*
X185842Y-19956D01*
X185919Y-20142D01*
X185958Y-20339D01*
X186335Y-21249D01*
X186447Y-21416D01*
X186523Y-21601D01*
X187071Y-22420D01*
X187213Y-22562D01*
X187324Y-22729D01*
X188021Y-23426D01*
X188188Y-23537D01*
X188330Y-23679D01*
X189149Y-24226D01*
X189334Y-24303D01*
X189501Y-24415D01*
X190411Y-24792D01*
X190608Y-24831D01*
X190794Y-24908D01*
X191760Y-25100D01*
X191961D01*
X192157Y-25139D01*
X209591D01*
Y-31061D01*
X192157D01*
X191961Y-31100D01*
X191760D01*
X190794Y-31292D01*
X190608Y-31369D01*
X190411Y-31408D01*
X189501Y-31785D01*
X189334Y-31897D01*
X189149Y-31974D01*
X188330Y-32521D01*
X188188Y-32663D01*
X188021Y-32774D01*
X187324Y-33471D01*
X187213Y-33638D01*
X187071Y-33780D01*
X186523Y-34599D01*
X186454Y-34766D01*
X177286D01*
X176284Y-33764D01*
Y-19237D01*
X177189Y-18332D01*
X177950Y-16495D01*
Y-14505D01*
X177189Y-12668D01*
X175782Y-11261D01*
X173945Y-10500D01*
X171955D01*
X170118Y-11261D01*
X168711Y-12668D01*
X167950Y-14505D01*
Y-16495D01*
X168711Y-18332D01*
X169616Y-19237D01*
Y-34495D01*
X168502Y-35521D01*
X163033Y-34117D01*
X166397Y-7485D01*
X175012Y-7484D01*
X175010Y7516D01*
X171249Y7515D01*
X170350Y8413D01*
Y8984D01*
X170097Y10259D01*
X169374Y11341D01*
X168096Y12619D01*
Y13903D01*
X167335Y15741D01*
X165928Y17148D01*
X164091Y17909D01*
X162101D01*
X160264Y17148D01*
X158857Y15741D01*
X158096Y13903D01*
Y11914D01*
X158857Y10077D01*
X160150Y8784D01*
X160083Y8255D01*
X159761Y7513D01*
X158510Y7513D01*
X158512Y-7487D01*
X158716Y-7487D01*
X159556Y-8439D01*
X156644Y-31493D01*
X155593Y-32206D01*
X155386Y-32153D01*
X151655Y-46682D01*
X151732Y-46701D01*
X152308Y-47833D01*
X143772Y-69394D01*
X142577Y-69824D01*
X142508Y-69786D01*
X135281Y-82930D01*
X135281Y-82930D01*
X135538Y-84076D01*
X121845Y-102923D01*
X120675Y-103034D01*
X120676D01*
X110407Y-113968D01*
Y-113968D01*
X110377Y-114933D01*
X92215Y-129958D01*
X91261Y-129807D01*
X91261Y-129807D01*
X78596Y-137845D01*
X87437Y-151776D01*
X100102Y-143739D01*
X95254Y-136099D01*
X115839Y-119069D01*
X122435Y-125263D01*
X132704Y-114329D01*
X126222Y-108242D01*
X141949Y-86596D01*
X149740Y-90879D01*
X156967Y-77735D01*
X149308Y-73524D01*
X159172Y-48612D01*
X167637Y-50785D01*
X170636Y-39106D01*
X171861Y-38770D01*
X173566Y-40476D01*
Y-48783D01*
X173349Y-49000D01*
X173005D01*
X171168Y-49761D01*
X169761Y-51168D01*
X169000Y-53005D01*
Y-54995D01*
X169761Y-56832D01*
X171168Y-58239D01*
X173005Y-59000D01*
X174995D01*
X176832Y-58239D01*
X178239Y-56832D01*
X179000Y-54995D01*
Y-53005D01*
X178934Y-52845D01*
X179258Y-52521D01*
X179980Y-51440D01*
X180234Y-50164D01*
Y-41434D01*
X186454D01*
X186523Y-41601D01*
X187071Y-42420D01*
X187213Y-42562D01*
X187324Y-42729D01*
X188021Y-43426D01*
X188188Y-43537D01*
X188330Y-43679D01*
X189149Y-44226D01*
X189334Y-44303D01*
X189501Y-44415D01*
X190411Y-44792D01*
X190608Y-44831D01*
X190794Y-44908D01*
X191760Y-45100D01*
X191961D01*
X192157Y-45139D01*
X209591D01*
Y-62242D01*
X208321Y-62582D01*
X207252Y-60732D01*
X205018Y-58498D01*
X202282Y-56918D01*
X199230Y-56100D01*
X196070D01*
X193018Y-56918D01*
X190282Y-58498D01*
X188048Y-60732D01*
X186468Y-63468D01*
X185650Y-66520D01*
Y-69680D01*
X186468Y-72732D01*
X188048Y-75468D01*
X190282Y-77702D01*
X193018Y-79282D01*
X196070Y-80100D01*
X199230D01*
X202282Y-79282D01*
X205018Y-77702D01*
X207001Y-75719D01*
X208066Y-76038D01*
X208260Y-76174D01*
X208240Y-76952D01*
X206667Y-80748D01*
X204457Y-84355D01*
X201710Y-87571D01*
X198494Y-90318D01*
X194887Y-92528D01*
X190979Y-94147D01*
X186866Y-95135D01*
X182703Y-95462D01*
X182649Y-95451D01*
X157649D01*
X156479Y-95684D01*
X155487Y-96347D01*
X155104Y-96920D01*
X155039Y-96879D01*
X153854Y-98876D01*
X146408Y-109600D01*
X138216Y-119765D01*
X129320Y-129320D01*
X119765Y-138216D01*
X109600Y-146408D01*
X98876Y-153854D01*
X87648Y-160515D01*
X80948Y-163869D01*
X80991Y-163958D01*
X80169Y-164508D01*
X80036Y-164707D01*
X79837Y-164839D01*
X79174Y-165832D01*
X78941Y-167002D01*
Y-171049D01*
Y-266474D01*
X77944Y-266741D01*
X77671Y-266751D01*
X75468Y-264548D01*
X72732Y-262968D01*
X69680Y-262150D01*
X66520D01*
X63468Y-262968D01*
X60732Y-264548D01*
X58498Y-266782D01*
X56918Y-269518D01*
X56100Y-272570D01*
Y-275730D01*
X56918Y-278782D01*
X58498Y-281518D01*
X60732Y-283752D01*
X62583Y-284821D01*
X62243Y-286091D01*
X44417D01*
X43701Y-284852D01*
X42398Y-283549D01*
X40802Y-282627D01*
X39022Y-282150D01*
X37178D01*
X35398Y-282627D01*
X33802Y-283549D01*
X32499Y-284852D01*
X31783Y-286091D01*
X8939D01*
Y-268657D01*
X8900Y-268461D01*
Y-268260D01*
X8708Y-267294D01*
X8631Y-267108D01*
X8592Y-266911D01*
X8215Y-266001D01*
X8103Y-265834D01*
X8026Y-265649D01*
X7479Y-264830D01*
X7337Y-264688D01*
X7226Y-264521D01*
X6529Y-263824D01*
X6362Y-263713D01*
X6220Y-263571D01*
X5401Y-263023D01*
X5216Y-262947D01*
X5049Y-262835D01*
X4139Y-262458D01*
X3942Y-262419D01*
X3756Y-262342D01*
X2790Y-262150D01*
X2589D01*
X2393Y-262111D01*
X1408D01*
X1211Y-262150D01*
X1010D01*
X44Y-262342D01*
X-142Y-262419D01*
X-339Y-262458D01*
X-1249Y-262835D01*
X-1416Y-262947D01*
X-1601Y-263023D01*
X-2420Y-263571D01*
X-2562Y-263713D01*
X-2729Y-263824D01*
X-3426Y-264521D01*
X-3537Y-264688D01*
X-3679Y-264830D01*
X-4227Y-265649D01*
X-4303Y-265834D01*
X-4415Y-266001D01*
X-4792Y-266911D01*
X-4831Y-267108D01*
X-4908Y-267294D01*
X-5100Y-268260D01*
Y-268461D01*
X-5139Y-268657D01*
Y-286091D01*
X-11061D01*
Y-268657D01*
X-11100Y-268461D01*
Y-268260D01*
X-11292Y-267294D01*
X-11369Y-267108D01*
X-11408Y-266911D01*
X-11785Y-266001D01*
X-11897Y-265834D01*
X-11974Y-265649D01*
X-12521Y-264830D01*
X-12663Y-264688D01*
X-12774Y-264521D01*
X-13471Y-263824D01*
X-13638Y-263713D01*
X-13780Y-263571D01*
X-14599Y-263023D01*
X-14784Y-262947D01*
X-14951Y-262835D01*
X-15164Y-262747D01*
Y-184879D01*
X-10285Y-180000D01*
X-9005D01*
X-7168Y-179239D01*
X-5761Y-177832D01*
X-5000Y-175995D01*
Y-174005D01*
X-5761Y-172168D01*
X-7168Y-170761D01*
X-9005Y-170000D01*
X-10995D01*
X-12832Y-170761D01*
X-14239Y-172168D01*
X-15000Y-174005D01*
Y-175285D01*
X-20855Y-181140D01*
X-21578Y-182222D01*
X-21832Y-183498D01*
Y-211657D01*
X-23102Y-212183D01*
X-46666Y-188619D01*
Y-173737D01*
X-45761Y-172832D01*
X-45000Y-170995D01*
Y-169005D01*
X-45761Y-167168D01*
X-47168Y-165761D01*
X-49005Y-165000D01*
X-50995D01*
X-52832Y-165761D01*
X-54239Y-167168D01*
X-55000Y-169005D01*
Y-170995D01*
X-54239Y-172832D01*
X-53334Y-173737D01*
Y-190000D01*
X-53080Y-191276D01*
X-52358Y-192358D01*
X-28334Y-216381D01*
Y-248619D01*
X-40458Y-260742D01*
X-41180Y-261824D01*
X-41402Y-262937D01*
X-41416Y-262947D01*
X-41601Y-263023D01*
X-42420Y-263571D01*
X-42562Y-263713D01*
X-42729Y-263824D01*
X-43426Y-264521D01*
X-43537Y-264688D01*
X-43679Y-264830D01*
X-44226Y-265649D01*
X-44303Y-265834D01*
X-44415Y-266001D01*
X-44792Y-266911D01*
X-44831Y-267108D01*
X-44908Y-267294D01*
X-45100Y-268260D01*
Y-268461D01*
X-45139Y-268657D01*
Y-286091D01*
X-62243D01*
X-62583Y-284821D01*
X-60732Y-283752D01*
X-58498Y-281518D01*
X-56918Y-278782D01*
X-56100Y-275730D01*
Y-272570D01*
X-56918Y-269518D01*
X-58498Y-266782D01*
X-60732Y-264548D01*
X-63468Y-262968D01*
X-66520Y-262150D01*
X-69680D01*
X-72732Y-262968D01*
X-75468Y-264548D01*
X-77671Y-266751D01*
X-77944Y-266741D01*
X-78941Y-266474D01*
Y-172000D01*
Y-167002D01*
X-79174Y-165832D01*
X-79837Y-164839D01*
X-80036Y-164707D01*
X-80169Y-164508D01*
X-80991Y-163958D01*
X-80948Y-163869D01*
X-87648Y-160515D01*
X-98876Y-153854D01*
X-109600Y-146408D01*
X-119765Y-138216D01*
X-129320Y-129320D01*
X-138216Y-119765D01*
X-146408Y-109600D01*
X-153854Y-98876D01*
X-155039Y-96879D01*
X-155104Y-96920D01*
X-155486Y-96347D01*
X-156479Y-95684D01*
X-157649Y-95451D01*
X-182649D01*
X-182703Y-95462D01*
X-186866Y-95135D01*
X-190979Y-94147D01*
X-194887Y-92528D01*
X-198494Y-90318D01*
X-201710Y-87571D01*
X-204457Y-84355D01*
X-206667Y-80748D01*
X-208240Y-76952D01*
X-208260Y-76174D01*
X-208067Y-76039D01*
X-207001Y-75720D01*
X-205018Y-77702D01*
X-202282Y-79282D01*
X-199230Y-80100D01*
X-196070D01*
X-193018Y-79282D01*
X-190282Y-77702D01*
X-188048Y-75468D01*
X-186468Y-72732D01*
X-185650Y-69680D01*
Y-66520D01*
X-186468Y-63468D01*
X-188048Y-60732D01*
X-190282Y-58498D01*
X-193018Y-56918D01*
X-196070Y-56100D01*
X-199230D01*
X-202282Y-56918D01*
X-205018Y-58498D01*
X-207252Y-60732D01*
X-208321Y-62582D01*
X-209591Y-62242D01*
Y-45139D01*
X-192157D01*
X-191961Y-45100D01*
X-191760D01*
X-190794Y-44908D01*
X-190608Y-44831D01*
X-190411Y-44792D01*
X-189501Y-44415D01*
X-189334Y-44303D01*
X-189149Y-44226D01*
X-188330Y-43679D01*
X-188188Y-43537D01*
X-188021Y-43426D01*
X-187324Y-42729D01*
X-187213Y-42562D01*
X-187071Y-42420D01*
X-186523Y-41601D01*
X-186454Y-41434D01*
X-170677D01*
X-168052Y-44059D01*
Y-45339D01*
X-167291Y-47176D01*
X-165884Y-48583D01*
X-164046Y-49344D01*
X-162057D01*
X-160219Y-48583D01*
X-159486Y-47849D01*
X-158075Y-48235D01*
X-156151Y-55731D01*
X-165094Y-61302D01*
X-157163Y-74033D01*
X-150852Y-70102D01*
X-149623Y-70423D01*
X-138259Y-91094D01*
X-145789Y-96526D01*
X-137014Y-108692D01*
X-123632Y-99039D01*
X-132408Y-86874D01*
X-132408D01*
X-133050Y-86729D01*
X-144400Y-66083D01*
X-143158Y-65309D01*
X-149366Y-55344D01*
X-156495Y-27578D01*
X-156310Y-27306D01*
X-156310Y-27306D01*
X-157947Y-14353D01*
X-157941Y-14323D01*
Y14399D01*
X-156310Y27306D01*
X-156310Y27306D01*
X-156659Y27819D01*
X-150683Y51093D01*
X-150131Y51374D01*
X-150131D01*
X-144609Y65321D01*
X-148327Y66793D01*
X-146855Y70513D01*
X-145673Y70978D01*
X-94356Y46591D01*
X-94127Y45267D01*
X-94994Y44291D01*
X-119150D01*
X-125175Y50316D01*
X-124421Y52219D01*
X-124081Y54078D01*
X-124479Y55926D01*
X-125554Y57480D01*
X-127141Y58505D01*
X-133650Y61082D01*
X-135508Y61421D01*
X-137356Y61024D01*
X-138910Y59949D01*
X-139935Y58362D01*
X-141960Y53248D01*
X-142300Y51389D01*
X-141902Y49542D01*
X-140828Y47987D01*
X-139240Y46962D01*
X-132732Y44385D01*
X-130873Y44046D01*
X-129025Y44444D01*
X-128853Y44563D01*
X-122888Y38599D01*
X-121807Y37876D01*
X-120531Y37622D01*
X-93774D01*
X-93412Y37261D01*
X-91575Y36500D01*
X-89585D01*
X-87748Y37261D01*
X-86341Y38668D01*
X-85580Y40505D01*
Y41232D01*
X-84506Y41911D01*
X-36142Y18927D01*
X-36059Y18906D01*
X-35987Y18858D01*
X-35431Y18748D01*
X-35045Y18650D01*
X-34446Y17793D01*
X-34313Y17389D01*
X-36591Y11889D01*
X-38000Y6019D01*
X-38474Y0D01*
X-38000Y-6019D01*
X-36591Y-11889D01*
X-34281Y-17467D01*
X-31126Y-22614D01*
X-27205Y-27205D01*
X-22614Y-31126D01*
X-17467Y-34281D01*
X-11889Y-36591D01*
X-6019Y-38000D01*
X0Y-38474D01*
X6019Y-38000D01*
X11889Y-36591D01*
X13736Y-35826D01*
X14442Y-36882D01*
X-8253Y-59577D01*
X-8975Y-60658D01*
X-9229Y-61934D01*
Y-74731D01*
X-9606Y-74933D01*
X-10499Y-75121D01*
X-11717Y-73903D01*
X-13555Y-73142D01*
X-15544D01*
X-17382Y-73903D01*
X-18788Y-75310D01*
X-19549Y-77147D01*
Y-79136D01*
X-18788Y-80974D01*
X-18533Y-81230D01*
X-28218Y-132004D01*
X-28315Y-131987D01*
X-30205Y-132033D01*
X-31932Y-132798D01*
X-33236Y-134166D01*
X-33916Y-135929D01*
X-35114Y-142826D01*
X-35069Y-144715D01*
X-34303Y-146443D01*
X-32935Y-147746D01*
X-31172Y-148427D01*
X-25753Y-149368D01*
X-23864Y-149322D01*
X-22136Y-148557D01*
X-20833Y-147189D01*
X-20152Y-145426D01*
X-18954Y-138529D01*
X-19000Y-136640D01*
X-19765Y-134912D01*
X-21134Y-133609D01*
X-21695Y-133392D01*
X-11985Y-82492D01*
X-11717Y-82381D01*
X-10499Y-81163D01*
X-9606Y-81351D01*
X-9229Y-81552D01*
Y-115064D01*
X-11065Y-116900D01*
X-12345D01*
X-14182Y-117661D01*
X-15589Y-119068D01*
X-16350Y-120905D01*
Y-122895D01*
X-15589Y-124732D01*
X-14182Y-126139D01*
X-13099Y-126588D01*
X-12927Y-126832D01*
X-12645Y-128073D01*
X-13080Y-128724D01*
X-13334Y-130000D01*
Y-141263D01*
X-14239Y-142168D01*
X-15000Y-144005D01*
Y-145995D01*
X-14239Y-147832D01*
X-12832Y-149239D01*
X-10995Y-150000D01*
X-9005D01*
X-7168Y-149239D01*
X-5761Y-147832D01*
X-5000Y-145995D01*
Y-144005D01*
X-5761Y-142168D01*
X-6666Y-141263D01*
Y-131381D01*
X4414Y-120301D01*
X5102Y-119271D01*
X5197Y-119253D01*
X6372Y-119601D01*
Y-134772D01*
X5727Y-134813D01*
X3900Y-135297D01*
X2398Y-136444D01*
X1449Y-138078D01*
X1197Y-139951D01*
X1637Y-146937D01*
X2121Y-148763D01*
X3267Y-150266D01*
X4901Y-151215D01*
X6774Y-151466D01*
X12263Y-151121D01*
X14090Y-150637D01*
X15592Y-149490D01*
X16541Y-147856D01*
X16793Y-145983D01*
X16353Y-138997D01*
X15869Y-137171D01*
X14722Y-135668D01*
X13088Y-134719D01*
X13040Y-134713D01*
Y-70031D01*
X14239Y-68832D01*
X15000Y-66995D01*
Y-65005D01*
X14239Y-63168D01*
X12832Y-61761D01*
X10995Y-61000D01*
X9005D01*
X7168Y-61761D01*
X5761Y-63168D01*
X5000Y-65005D01*
Y-66995D01*
X5761Y-68832D01*
X6372Y-69443D01*
Y-106039D01*
X5102Y-106565D01*
X4889Y-106352D01*
X3051Y-105590D01*
X1062D01*
X-775Y-106352D01*
X-1291Y-106867D01*
X-2561Y-106341D01*
Y-63315D01*
X41983Y-18771D01*
X42706Y-17689D01*
X42959Y-16413D01*
Y20516D01*
X44229Y20768D01*
X44359Y20456D01*
X45765Y19049D01*
X47603Y18288D01*
X49592D01*
X50328Y18592D01*
X51598Y17744D01*
Y17288D01*
X54264D01*
Y13288D01*
X51598D01*
Y1288D01*
X63598D01*
Y13288D01*
X60932D01*
Y17288D01*
X63598D01*
Y29288D01*
X51598D01*
Y28832D01*
X50328Y27983D01*
X49592Y28288D01*
X47603D01*
X45765Y27527D01*
X44359Y26120D01*
X44229Y25808D01*
X42959Y26060D01*
Y26352D01*
X42706Y27628D01*
X41983Y28710D01*
X38854Y31839D01*
Y33002D01*
X38093Y34840D01*
X37911Y35021D01*
X38437Y36291D01*
X41861D01*
X45510Y32643D01*
X46591Y31920D01*
X47867Y31666D01*
X76981D01*
X77412Y31098D01*
X76781Y29828D01*
X73868D01*
Y23288D01*
Y16748D01*
X77058D01*
Y16293D01*
X77553Y15098D01*
X76787Y13828D01*
X73868D01*
Y7288D01*
Y273D01*
X74284Y-234D01*
X74264Y-337D01*
Y-2210D01*
X73770D01*
Y-8750D01*
X71230D01*
Y-2210D01*
X68710D01*
Y-2750D01*
X64250D01*
Y-5353D01*
X61869D01*
X61418Y-4902D01*
X59581Y-4141D01*
X57592D01*
X55754Y-4902D01*
X55129Y-5527D01*
X54243Y-6216D01*
X53470Y-5527D01*
X52789Y-4846D01*
X50952Y-4085D01*
X48962D01*
X47125Y-4846D01*
X45718Y-6253D01*
X44957Y-8091D01*
Y-10080D01*
X45718Y-11917D01*
X47125Y-13324D01*
X47264Y-13381D01*
Y-42021D01*
X41808Y-47477D01*
X41085Y-48559D01*
X40831Y-49835D01*
Y-91956D01*
X40852Y-92061D01*
X40838Y-92167D01*
X40978Y-92696D01*
X41085Y-93232D01*
X41145Y-93321D01*
X41172Y-93424D01*
X66388Y-144817D01*
X65951Y-146010D01*
X57515Y-149698D01*
X56357Y-149178D01*
X56112Y-148425D01*
X41846Y-153060D01*
Y-153060D01*
X41553Y-153556D01*
X17893Y-158070D01*
X17438Y-157716D01*
Y-157716D01*
X2467Y-158658D01*
Y-158658D01*
X2170Y-158955D01*
X-21897Y-157441D01*
X-22256Y-156986D01*
Y-156986D01*
X-37034Y-154418D01*
X-37034Y-154418D01*
X-37162Y-154495D01*
X-59877Y-147115D01*
X-60270Y-146278D01*
Y-146278D01*
X-72987Y-141243D01*
X-95217Y-127136D01*
X-95253Y-126907D01*
Y-126907D01*
X-106811Y-117346D01*
X-117328Y-130059D01*
X-105770Y-139621D01*
X-99649Y-132221D01*
X-76623Y-146834D01*
X-80291Y-156098D01*
X-66344Y-161619D01*
X-62979Y-153118D01*
X-38207Y-161167D01*
X-39859Y-170675D01*
X-25080Y-173243D01*
X-23478Y-164023D01*
X2909Y-165683D01*
X3503Y-175125D01*
X18474Y-174183D01*
X17887Y-164859D01*
X44058Y-159867D01*
X46945Y-168752D01*
X61211Y-164117D01*
X58719Y-156449D01*
X72656Y-150356D01*
X72717Y-150313D01*
X72789Y-150294D01*
X73249Y-149943D01*
X73723Y-149612D01*
X73763Y-149550D01*
X73823Y-149504D01*
X74113Y-149003D01*
X74425Y-148517D01*
X74438Y-148443D01*
X74475Y-148379D01*
X74552Y-147805D01*
X74654Y-147236D01*
X74638Y-147163D01*
X74648Y-147090D01*
X74499Y-146530D01*
X74375Y-145965D01*
X74333Y-145904D01*
X74314Y-145832D01*
X47499Y-91182D01*
Y-51216D01*
X52955Y-45760D01*
X53678Y-44678D01*
X53932Y-43402D01*
Y-14829D01*
X55202Y-14150D01*
X55250Y-14182D01*
Y-23750D01*
X55250D01*
Y-32250D01*
X55250D01*
Y-43750D01*
X55510D01*
X55829Y-44262D01*
X55991Y-45020D01*
X50702Y-50308D01*
X49980Y-51390D01*
X49726Y-52666D01*
Y-91608D01*
X49980Y-92883D01*
X50702Y-93965D01*
X55671Y-98934D01*
Y-100213D01*
X56432Y-102051D01*
X57839Y-103457D01*
X59676Y-104219D01*
X60739D01*
X70430Y-113910D01*
X70291Y-115172D01*
X69965Y-115379D01*
X68598Y-116684D01*
X67833Y-118412D01*
X67789Y-120301D01*
X68471Y-122063D01*
X72222Y-127974D01*
X73526Y-129341D01*
X75254Y-130105D01*
X77143Y-130150D01*
X78906Y-129468D01*
X83549Y-126521D01*
X84917Y-125216D01*
X85681Y-123488D01*
X85725Y-121599D01*
X85044Y-119837D01*
X81293Y-113926D01*
X79988Y-112559D01*
X78260Y-111795D01*
X77733Y-111783D01*
X65671Y-99720D01*
Y-98224D01*
X64910Y-96386D01*
X63503Y-94980D01*
X61666Y-94219D01*
X60386D01*
X56394Y-90226D01*
Y-54047D01*
X59920Y-50520D01*
X64250D01*
Y-53250D01*
X69068D01*
Y-56787D01*
X65148Y-60707D01*
X63774D01*
X61936Y-61469D01*
X60529Y-62875D01*
X59768Y-64713D01*
Y-66702D01*
X60529Y-68540D01*
X61936Y-69946D01*
X62775Y-70294D01*
X63517Y-71469D01*
X63264Y-72745D01*
Y-82975D01*
X62359Y-83880D01*
X61598Y-85717D01*
Y-87707D01*
X62359Y-89544D01*
X63765Y-90951D01*
X65603Y-91712D01*
X67592D01*
X69430Y-90951D01*
X70335Y-90046D01*
X92577D01*
X96666Y-94136D01*
X96461Y-94355D01*
X95461Y-95958D01*
X95150Y-97822D01*
X95577Y-99663D01*
X96676Y-101201D01*
X101778Y-105992D01*
X103382Y-106992D01*
X105246Y-107303D01*
X107087Y-106876D01*
X108624Y-105777D01*
X112389Y-101768D01*
X113389Y-100164D01*
X113699Y-98301D01*
X113273Y-96460D01*
X112174Y-94922D01*
X107071Y-90130D01*
X105468Y-89130D01*
X103604Y-88820D01*
X101763Y-89247D01*
X101439Y-89478D01*
X96315Y-84355D01*
X95234Y-83632D01*
X93958Y-83378D01*
X70335D01*
X69932Y-82975D01*
Y-74126D01*
X74128Y-69929D01*
X75205Y-70649D01*
X74850Y-71505D01*
Y-73495D01*
X75611Y-75332D01*
X77018Y-76739D01*
X78855Y-77500D01*
X80845D01*
X82682Y-76739D01*
X82971Y-76450D01*
X118171D01*
X119447Y-76197D01*
X120529Y-75474D01*
X120882Y-75120D01*
X124940Y-77351D01*
X126742Y-77921D01*
X128624Y-77758D01*
X130301Y-76887D01*
X131517Y-75440D01*
X134167Y-70621D01*
X134737Y-68819D01*
X134574Y-66936D01*
X133702Y-65259D01*
X132256Y-64043D01*
X126122Y-60671D01*
X124320Y-60101D01*
X122437Y-60265D01*
X120761Y-61136D01*
X119545Y-62582D01*
X116895Y-67402D01*
X116325Y-69203D01*
X115794Y-69782D01*
X86415D01*
X86183Y-69501D01*
Y-65165D01*
X87453Y-64639D01*
X87765Y-64951D01*
X89603Y-65712D01*
X91592D01*
X93430Y-64951D01*
X94837Y-63544D01*
X95598Y-61707D01*
Y-61686D01*
X96868Y-60837D01*
X97838Y-61239D01*
X99827D01*
X101665Y-60478D01*
X103071Y-59071D01*
X103832Y-57233D01*
Y-55244D01*
X103071Y-53407D01*
X101665Y-52000D01*
X99827Y-51239D01*
X97838D01*
X96699Y-51710D01*
X95750Y-50761D01*
Y-43750D01*
X97786D01*
X98686Y-43929D01*
X103361D01*
X106670Y-47237D01*
X105995Y-48866D01*
Y-50855D01*
X106756Y-52693D01*
X108163Y-54099D01*
X110001Y-54861D01*
X111990D01*
X113827Y-54099D01*
X115234Y-52693D01*
X115995Y-50855D01*
Y-48866D01*
X115234Y-47028D01*
X113827Y-45622D01*
X113531Y-45499D01*
X113413Y-44910D01*
X112691Y-43828D01*
X111036Y-42173D01*
X111464Y-40806D01*
X112832Y-40239D01*
X114239Y-38832D01*
X115000Y-36995D01*
Y-35006D01*
X114239Y-33168D01*
X112832Y-31761D01*
X110995Y-31000D01*
X109005D01*
X107168Y-31761D01*
X106668Y-32261D01*
X105290D01*
Y-31770D01*
X98750D01*
Y-29230D01*
X105290D01*
Y-28942D01*
X117807D01*
X118464Y-29599D01*
Y-45903D01*
X118718Y-47178D01*
X119441Y-48260D01*
X131329Y-60149D01*
X132411Y-60872D01*
X133687Y-61125D01*
X136552D01*
X137664Y-62238D01*
X139502Y-62999D01*
X141491D01*
X143329Y-62238D01*
X144736Y-60831D01*
X145497Y-58994D01*
Y-57005D01*
X144736Y-55167D01*
X144495Y-54926D01*
X144515Y-53150D01*
X145071Y-52593D01*
X145832Y-50756D01*
Y-48767D01*
X145071Y-46929D01*
X143665Y-45522D01*
X142673Y-45112D01*
X142711Y-43753D01*
X143921Y-43327D01*
X145329Y-42067D01*
X146147Y-40363D01*
X147514Y-35036D01*
X147618Y-33149D01*
X146992Y-31366D01*
X145731Y-29959D01*
X144028Y-29141D01*
X142525Y-28755D01*
Y-15191D01*
X142271Y-13915D01*
X141548Y-12833D01*
X136546Y-7831D01*
X137355Y-6844D01*
X137909Y-7214D01*
X139762Y-7582D01*
X146763Y-7581D01*
X148616Y-7213D01*
X150187Y-6162D01*
X151236Y-4591D01*
X151605Y-2738D01*
X151604Y2762D01*
X151235Y4616D01*
X150185Y6187D01*
X148614Y7236D01*
X146760Y7605D01*
X140494Y7604D01*
X113748Y34350D01*
X114467Y35427D01*
X115431Y35235D01*
X130236D01*
X131353Y30886D01*
X132170Y29183D01*
X133578Y27922D01*
X135361Y27296D01*
X137248Y27400D01*
X144028Y29141D01*
X145731Y29959D01*
X146992Y31366D01*
X147618Y33149D01*
X147514Y35036D01*
X146147Y40363D01*
X145329Y42067D01*
X143921Y43327D01*
X142138Y43954D01*
X140251Y43850D01*
X133471Y42109D01*
X133042Y41903D01*
X116812D01*
X111000Y47715D01*
Y48994D01*
X110239Y50832D01*
X108832Y52239D01*
X106995Y53000D01*
X105602D01*
X105276Y54270D01*
X119810Y62260D01*
X120751Y61140D01*
X122428Y60269D01*
X124311Y60105D01*
X126112Y60675D01*
X132247Y64047D01*
X133693Y65262D01*
X134565Y66939D01*
X134728Y68822D01*
X134158Y70624D01*
X131509Y75444D01*
X130293Y76890D01*
X128616Y77761D01*
X126734Y77925D01*
X124932Y77355D01*
X118797Y73983D01*
X117351Y72767D01*
X116480Y71090D01*
X116316Y69208D01*
X116656Y68135D01*
X99351Y58622D01*
X84335D01*
X83430Y59527D01*
X81592Y60288D01*
X79603D01*
X77765Y59527D01*
X76359Y58120D01*
X75598Y56283D01*
Y54293D01*
X76300Y52598D01*
X75827Y51328D01*
X63612D01*
X63091Y52598D01*
X63759Y54210D01*
Y55326D01*
X100668Y89986D01*
X101237Y89583D01*
X103080Y89165D01*
X104943Y89483D01*
X106541Y90491D01*
X111623Y95305D01*
X112714Y96848D01*
X113133Y98690D01*
X112814Y100553D01*
X111807Y102152D01*
X108024Y106144D01*
X106482Y107236D01*
X104639Y107654D01*
X102776Y107336D01*
X101178Y106329D01*
X96096Y101514D01*
X95005Y99972D01*
X94586Y98129D01*
X94905Y96266D01*
X95912Y94668D01*
X59213Y60205D01*
X57764D01*
X55926Y59444D01*
X54520Y58037D01*
X53759Y56199D01*
Y54210D01*
X54426Y52598D01*
X53905Y51328D01*
X40006D01*
X39553Y52598D01*
X40270Y54328D01*
Y56317D01*
X40104Y56718D01*
X75293Y112167D01*
X76371Y111750D01*
X78260Y111795D01*
X79988Y112559D01*
X81293Y113926D01*
X85044Y119837D01*
X85725Y121599D01*
X85681Y123488D01*
X84917Y125216D01*
X83549Y126521D01*
X78906Y129468D01*
X77143Y130150D01*
X75254Y130105D01*
X73526Y129341D01*
X72222Y127974D01*
X68471Y122063D01*
X67789Y120301D01*
X67833Y118412D01*
X68598Y116684D01*
X69634Y115695D01*
X34494Y60322D01*
X34275D01*
X32438Y59561D01*
X31031Y58155D01*
X30270Y56317D01*
Y54328D01*
X30986Y52598D01*
X30534Y51328D01*
X21561D01*
X20815Y52355D01*
X45182Y127350D01*
X46180Y127232D01*
X47999Y127745D01*
X49483Y128915D01*
X50406Y130564D01*
X52570Y137221D01*
X52792Y139098D01*
X52279Y140916D01*
X51109Y142400D01*
X49460Y143324D01*
X44229Y145023D01*
X42353Y145245D01*
X40534Y144732D01*
X39050Y143562D01*
X38127Y141914D01*
X35964Y135256D01*
X35742Y133380D01*
X36254Y131561D01*
X37424Y130077D01*
X38805Y129304D01*
X13873Y52570D01*
X13060Y52233D01*
X11653Y50826D01*
X10892Y48989D01*
Y46999D01*
X11653Y45162D01*
X12586Y44229D01*
X12060Y42959D01*
X-17025D01*
X-18300Y42706D01*
X-19382Y41983D01*
X-28635Y32730D01*
X-29712Y33449D01*
X-29150Y34805D01*
Y36795D01*
X-29911Y38632D01*
X-31318Y40039D01*
X-33155Y40800D01*
X-35145D01*
X-36982Y40039D01*
X-37887Y39134D01*
X-43450D01*
X-90874Y86558D01*
X-91956Y87281D01*
X-93232Y87535D01*
X-107903D01*
X-108597Y88286D01*
X-114260Y92400D01*
X-115976Y93191D01*
X-117865Y93266D01*
X-119637Y92612D01*
X-121025Y91329D01*
X-124258Y86879D01*
X-125049Y85163D01*
X-125123Y83275D01*
X-124469Y81502D01*
X-123186Y80115D01*
X-117523Y76000D01*
X-115807Y75209D01*
X-113919Y75135D01*
X-112146Y75789D01*
X-110758Y77072D01*
X-108001Y80866D01*
X-94613D01*
X-47189Y33442D01*
X-46107Y32720D01*
X-44831Y32466D01*
X-37887D01*
X-36982Y31561D01*
X-35145Y30800D01*
X-33155D01*
X-31799Y31362D01*
X-31080Y30285D01*
X-35405Y25960D01*
X-146869Y78929D01*
X-146978Y78957D01*
X-147073Y79018D01*
X-147605Y79115D01*
X-148131Y79248D01*
X-148242Y79232D01*
X-148353Y79252D01*
X-148882Y79138D01*
X-149418Y79059D01*
X-149514Y79002D01*
X-149624Y78978D01*
X-150070Y78670D01*
X-150535Y78393D01*
X-150602Y78302D01*
X-150695Y78238D01*
X-150988Y77784D01*
X-151312Y77349D01*
X-151339Y77240D01*
X-151400Y77146D01*
X-154527Y69248D01*
X-159950Y71395D01*
X-165472Y57449D01*
X-156816Y54021D01*
X-163444Y28207D01*
X-172680Y29374D01*
X-174560Y14492D01*
X-164609Y13235D01*
Y6735D01*
X-165879Y5993D01*
X-167116Y6505D01*
X-169105D01*
X-170942Y5744D01*
X-172349Y4338D01*
X-173110Y2500D01*
Y511D01*
X-172349Y-1327D01*
X-171743Y-1933D01*
X-177358Y-7547D01*
X-177550Y-7835D01*
X-184481Y-14766D01*
X-186454D01*
X-186523Y-14599D01*
X-187071Y-13780D01*
X-187213Y-13638D01*
X-187324Y-13471D01*
X-188021Y-12774D01*
X-188188Y-12663D01*
X-188330Y-12521D01*
X-189149Y-11974D01*
X-189334Y-11897D01*
X-189501Y-11785D01*
X-190411Y-11408D01*
X-190608Y-11369D01*
X-190794Y-11292D01*
X-191760Y-11100D01*
X-191961D01*
X-192157Y-11061D01*
X-192650Y-11061D01*
X-209591D01*
Y-5139D01*
X-192157D01*
X-191961Y-5100D01*
X-191760D01*
X-190794Y-4908D01*
X-190608Y-4831D01*
X-190411Y-4792D01*
X-189501Y-4415D01*
X-189334Y-4303D01*
X-189149Y-4226D01*
X-188330Y-3679D01*
X-188188Y-3537D01*
X-188021Y-3426D01*
X-187324Y-2729D01*
X-187213Y-2562D01*
X-187071Y-2420D01*
X-186523Y-1601D01*
X-186447Y-1416D01*
X-186335Y-1249D01*
X-185958Y-339D01*
X-185919Y-142D01*
X-185842Y44D01*
X-185650Y1010D01*
Y1211D01*
X-185611Y1408D01*
Y2393D01*
X-185650Y2589D01*
Y2790D01*
X-185842Y3756D01*
X-185919Y3942D01*
X-185958Y4139D01*
X-186335Y5049D01*
X-186447Y5216D01*
X-186523Y5401D01*
X-187071Y6220D01*
X-187213Y6362D01*
X-187324Y6529D01*
X-188021Y7226D01*
X-188188Y7337D01*
X-188330Y7479D01*
X-189149Y8026D01*
X-189334Y8103D01*
X-189501Y8215D01*
X-190411Y8592D01*
X-190608Y8631D01*
X-190794Y8708D01*
X-191760Y8900D01*
X-191961D01*
X-192157Y8939D01*
X-192650Y8939D01*
X-209591D01*
Y31783D01*
X-208352Y32499D01*
X-207049Y33802D01*
X-206127Y35398D01*
X-205650Y37178D01*
Y39022D01*
X-206127Y40802D01*
X-207049Y42398D01*
X-208352Y43701D01*
X-209591Y44417D01*
Y62242D01*
X-208321Y62582D01*
X-207252Y60732D01*
X-205018Y58498D01*
X-202282Y56918D01*
X-199230Y56100D01*
X-196070D01*
X-193018Y56918D01*
X-190282Y58498D01*
X-188048Y60732D01*
X-186468Y63468D01*
X-185650Y66520D01*
Y69680D01*
X-186468Y72732D01*
X-188048Y75468D01*
X-190282Y77702D01*
X-193018Y79282D01*
X-196070Y80100D01*
X-199230D01*
X-202282Y79282D01*
X-205018Y77702D01*
X-207001Y75720D01*
X-208068Y76040D01*
X-208260Y76174D01*
X-208240Y76952D01*
X-206667Y80748D01*
X-204457Y84355D01*
X-201710Y87571D01*
X-198494Y90318D01*
X-194887Y92528D01*
X-190979Y94147D01*
X-186866Y95134D01*
X-182703Y95462D01*
X-182649Y95451D01*
X-157649D01*
X-156479Y95684D01*
X-155486Y96347D01*
X-155104Y96920D01*
X-155039Y96879D01*
X-153854Y98876D01*
X-146408Y109600D01*
X-138216Y119765D01*
X-129320Y129320D01*
X-119765Y138216D01*
X-109600Y146408D01*
X-98876Y153854D01*
X-96835Y155065D01*
X-96876Y155131D01*
X-96303Y155514D01*
X-95640Y156506D01*
X-95407Y157677D01*
X-95451Y157899D01*
X-95451Y183000D01*
X-95462Y183054D01*
X-95134Y187217D01*
X-94147Y191330D01*
X-92528Y195238D01*
X-90318Y198844D01*
X-87571Y202061D01*
X-84355Y204808D01*
X-80748Y207018D01*
X-76950Y208591D01*
X-76171Y208613D01*
X-76024Y208402D01*
X-75715Y207356D01*
X-77702Y205368D01*
X-79282Y202632D01*
X-80100Y199580D01*
Y196420D01*
X-79282Y193368D01*
X-77702Y190632D01*
X-75468Y188398D01*
X-72732Y186818D01*
X-69680Y186000D01*
X-66520D01*
X-63468Y186818D01*
X-60732Y188398D01*
X-58498Y190632D01*
X-56918Y193368D01*
X-56100Y196420D01*
Y199580D01*
X-56918Y202632D01*
X-58498Y205368D01*
X-60732Y207602D01*
X-62583Y208671D01*
X-62243Y209941D01*
X-45139D01*
Y192507D01*
X-45100Y192311D01*
Y192110D01*
X-44908Y191144D01*
X-44831Y190958D01*
X-44792Y190761D01*
X-44415Y189851D01*
X-44303Y189684D01*
X-44226Y189499D01*
X-43679Y188680D01*
X-43537Y188538D01*
X-43426Y188371D01*
X-42729Y187674D01*
X-42562Y187563D01*
X-42420Y187421D01*
X-41601Y186873D01*
X-41416Y186797D01*
X-41249Y186685D01*
X-40339Y186308D01*
X-40142Y186269D01*
X-39956Y186192D01*
X-38990Y186000D01*
X-38790D01*
X-38593Y185961D01*
X-37608D01*
X-37411Y186000D01*
X-37210D01*
X-36244Y186192D01*
X-36058Y186269D01*
X-35861Y186308D01*
X-34951Y186685D01*
X-34784Y186797D01*
X-34599Y186873D01*
X-33780Y187421D01*
X-33638Y187563D01*
X-33471Y187674D01*
X-32774Y188371D01*
X-32663Y188538D01*
X-32521Y188680D01*
X-31974Y189499D01*
X-31897Y189684D01*
X-31785Y189851D01*
X-31408Y190761D01*
X-31369Y190958D01*
X-31292Y191144D01*
X-31100Y192110D01*
Y192311D01*
X-31061Y192507D01*
Y209941D01*
X-25139D01*
Y192507D01*
X-25100Y192311D01*
Y192110D01*
X-24908Y191144D01*
X-24831Y190958D01*
X-24792Y190761D01*
X-24415Y189851D01*
X-24303Y189684D01*
X-24226Y189499D01*
X-23679Y188680D01*
X-23537Y188538D01*
X-23426Y188371D01*
X-22729Y187674D01*
X-22562Y187563D01*
X-22420Y187421D01*
X-21601Y186873D01*
X-21416Y186797D01*
X-21249Y186685D01*
X-20339Y186308D01*
X-20142Y186269D01*
X-19956Y186192D01*
X-18990Y186000D01*
X-18789D01*
X-18592Y185961D01*
X-17608D01*
X-17411Y186000D01*
X-17210D01*
X-16244Y186192D01*
X-16058Y186269D01*
X-15861Y186308D01*
X-14951Y186685D01*
X-14784Y186797D01*
X-14599Y186873D01*
X-13780Y187421D01*
X-13638Y187563D01*
X-13471Y187674D01*
X-12774Y188371D01*
X-12663Y188538D01*
X-12521Y188680D01*
X-11974Y189499D01*
X-11897Y189684D01*
X-11785Y189851D01*
X-11408Y190761D01*
X-11369Y190958D01*
X-11292Y191144D01*
X-11100Y192110D01*
Y192311D01*
X-11061Y192507D01*
Y209941D01*
X-5139D01*
Y192507D01*
X-5100Y192311D01*
Y192110D01*
X-4908Y191144D01*
X-4831Y190958D01*
X-4792Y190761D01*
X-4415Y189851D01*
X-4303Y189684D01*
X-4227Y189499D01*
X-3679Y188680D01*
X-3537Y188538D01*
X-3426Y188371D01*
X-2729Y187674D01*
X-2562Y187563D01*
X-2420Y187421D01*
X-1601Y186873D01*
X-1416Y186797D01*
X-1249Y186685D01*
X-339Y186308D01*
X-142Y186269D01*
X44Y186192D01*
X1010Y186000D01*
X1211D01*
X1408Y185961D01*
X2393D01*
X2589Y186000D01*
X2790D01*
X3756Y186192D01*
X3942Y186269D01*
X4139Y186308D01*
X5049Y186685D01*
X5216Y186797D01*
X5401Y186873D01*
X6220Y187421D01*
X6362Y187563D01*
X6529Y187674D01*
X7226Y188371D01*
X7337Y188538D01*
X7479Y188680D01*
X8026Y189499D01*
X8103Y189684D01*
X8215Y189851D01*
X8592Y190761D01*
X8631Y190958D01*
X8708Y191144D01*
X8900Y192110D01*
Y192311D01*
X8939Y192507D01*
Y209941D01*
X31783D01*
X32499Y208702D01*
X33802Y207399D01*
X35398Y206477D01*
X37178Y206000D01*
X39022D01*
X40802Y206477D01*
X42398Y207399D01*
X43701Y208702D01*
X44417Y209941D01*
X62243D01*
X62583Y208671D01*
D02*
G37*
G36*
X60457Y166181D02*
X61682Y165923D01*
D01*
X62740Y165408D01*
X86745Y152724D01*
X87031Y151136D01*
X82937Y144685D01*
X58616Y156130D01*
X61211Y164117D01*
X57609Y165288D01*
X57891Y166526D01*
X60457Y166181D01*
D02*
G37*
G36*
X121175Y126729D02*
X121138Y125114D01*
X115759Y120017D01*
X95621Y136677D01*
X99560Y142884D01*
X101196Y143182D01*
X121175Y126729D01*
D02*
G37*
G36*
X133023Y114070D02*
X148938Y91524D01*
X148652Y90287D01*
X142404Y86852D01*
X126161Y109209D01*
X131398Y114171D01*
X133023Y114070D01*
D02*
G37*
G36*
X112666Y10670D02*
Y-8214D01*
X108619Y-12261D01*
X104750D01*
Y-12250D01*
X101167D01*
X100848Y-11738D01*
X100687Y-10980D01*
X106955Y-4712D01*
X107678Y-3630D01*
X107932Y-2354D01*
Y1551D01*
X108836Y2456D01*
X109598Y4293D01*
Y6283D01*
X108836Y8120D01*
X107430Y9527D01*
X105592Y10288D01*
X103603D01*
X101765Y9527D01*
X100359Y8120D01*
X99598Y6283D01*
Y4293D01*
X100359Y2456D01*
X101264Y1551D01*
Y-973D01*
X97020Y-5217D01*
X95750Y-4845D01*
Y-2750D01*
X94934D01*
X94448Y-1577D01*
X97242Y1217D01*
X97965Y2299D01*
X98218Y3575D01*
Y11399D01*
X99275Y12456D01*
X100036Y14293D01*
Y16283D01*
X99275Y18120D01*
X97869Y19527D01*
X96031Y20288D01*
X94042D01*
X93371Y20010D01*
X92101Y20858D01*
Y25119D01*
X92008Y25583D01*
X93122Y26497D01*
X93482Y26347D01*
X95471D01*
X96544Y26792D01*
X112666Y10670D01*
D02*
G37*
G36*
X128666Y2619D02*
Y-8000D01*
X128920Y-9276D01*
X129642Y-10358D01*
X135857Y-16572D01*
Y-26827D01*
X135361Y-27296D01*
X133578Y-27922D01*
X132170Y-29183D01*
X132009Y-29519D01*
X130739Y-29230D01*
Y-25336D01*
X130485Y-24060D01*
X129762Y-22978D01*
X125022Y-18238D01*
X123940Y-17515D01*
X122664Y-17261D01*
X114709D01*
X114223Y-16088D01*
X118357Y-11953D01*
X119080Y-10871D01*
X119334Y-9595D01*
Y10292D01*
X120507Y10778D01*
X128666Y2619D01*
D02*
G37*
G36*
X-174383Y-15894D02*
X-172680Y-29374D01*
X-163224Y-28180D01*
X-160551Y-38594D01*
X-161623Y-39524D01*
X-162057Y-39344D01*
X-163337D01*
X-166938Y-35742D01*
X-168020Y-35020D01*
X-169296Y-34766D01*
X-186454D01*
X-186523Y-34599D01*
X-187071Y-33780D01*
X-187213Y-33638D01*
X-187324Y-33471D01*
X-188021Y-32774D01*
X-188188Y-32663D01*
X-188330Y-32521D01*
X-189149Y-31974D01*
X-189334Y-31897D01*
X-189501Y-31785D01*
X-190411Y-31408D01*
X-190608Y-31369D01*
X-190794Y-31292D01*
X-191760Y-31100D01*
X-191961D01*
X-192157Y-31061D01*
X-192650Y-31061D01*
X-209591D01*
Y-25139D01*
X-192157D01*
X-191961Y-25100D01*
X-191760D01*
X-190794Y-24908D01*
X-190608Y-24831D01*
X-190411Y-24792D01*
X-189501Y-24415D01*
X-189334Y-24303D01*
X-189149Y-24226D01*
X-188330Y-23679D01*
X-188188Y-23537D01*
X-188021Y-23426D01*
X-187324Y-22729D01*
X-187213Y-22562D01*
X-187071Y-22420D01*
X-186523Y-21601D01*
X-186454Y-21434D01*
X-183100D01*
X-181824Y-21180D01*
X-180742Y-20457D01*
X-175721Y-15436D01*
X-174383Y-15894D01*
D02*
G37*
G36*
X-21832Y-253343D02*
Y-263178D01*
X-22420Y-263571D01*
X-22562Y-263713D01*
X-22729Y-263824D01*
X-23426Y-264521D01*
X-23537Y-264688D01*
X-23679Y-264830D01*
X-24226Y-265649D01*
X-24303Y-265834D01*
X-24415Y-266001D01*
X-24792Y-266911D01*
X-24831Y-267108D01*
X-24908Y-267294D01*
X-25100Y-268260D01*
Y-268461D01*
X-25139Y-268657D01*
Y-286091D01*
X-31061D01*
Y-268657D01*
X-31100Y-268461D01*
Y-268260D01*
X-31292Y-267294D01*
X-31369Y-267108D01*
X-31408Y-266911D01*
X-31785Y-266001D01*
X-31897Y-265834D01*
X-31974Y-265649D01*
X-32521Y-264830D01*
X-32663Y-264688D01*
X-32774Y-264521D01*
X-32892Y-264403D01*
X-33017Y-262825D01*
X-32944Y-262663D01*
X-32935Y-262651D01*
X-23102Y-252817D01*
X-21832Y-253343D01*
D02*
G37*
%LPC*%
G36*
X-25705Y149423D02*
X-31107Y148393D01*
X-32859Y147683D01*
X-34205Y146357D01*
X-34942Y144618D01*
X-34957Y142728D01*
X-33645Y135852D01*
X-32936Y134100D01*
X-31610Y132754D01*
X-29870Y132017D01*
X-28009Y132002D01*
X-23534Y108546D01*
X-23530Y108537D01*
X-23531Y108527D01*
X-21251Y96939D01*
X-21599Y96591D01*
X-22360Y94753D01*
Y92764D01*
X-21599Y90926D01*
X-20192Y89520D01*
X-18355Y88758D01*
X-16365D01*
X-14528Y89520D01*
X-13121Y90926D01*
X-12360Y92764D01*
Y94753D01*
X-13121Y96591D01*
X-14528Y97997D01*
X-14675Y98058D01*
X-16986Y109806D01*
X-21500Y133469D01*
X-20826Y133742D01*
X-19480Y135068D01*
X-18743Y136808D01*
X-18728Y138697D01*
X-20040Y145573D01*
X-20749Y147325D01*
X-22075Y148672D01*
X-23815Y149408D01*
X-25705Y149423D01*
D02*
G37*
G36*
X-60223Y138792D02*
X-62057Y138336D01*
X-67033Y135995D01*
X-68553Y134872D01*
X-69528Y133253D01*
X-69809Y131384D01*
X-69353Y129551D01*
X-66373Y123217D01*
X-65250Y121697D01*
X-63631Y120722D01*
X-61763Y120441D01*
X-59929Y120897D01*
X-59926Y120898D01*
X-38224Y74780D01*
X-38621Y73822D01*
Y71833D01*
X-37860Y69995D01*
X-36453Y68589D01*
X-34616Y67827D01*
X-32627D01*
X-30789Y68589D01*
X-29382Y69995D01*
X-28621Y71833D01*
Y73822D01*
X-29382Y75660D01*
X-30789Y77066D01*
X-32208Y77654D01*
X-53992Y123948D01*
X-53432Y124361D01*
X-52458Y125980D01*
X-52177Y127849D01*
X-52632Y129683D01*
X-55613Y136016D01*
X-56735Y137536D01*
X-58354Y138511D01*
X-60223Y138792D01*
D02*
G37*
G36*
X-90967Y119647D02*
X-92847Y119455D01*
X-94510Y118557D01*
X-98748Y115052D01*
X-99941Y113586D01*
X-100482Y111776D01*
X-100290Y109896D01*
X-99392Y108233D01*
X-94931Y102839D01*
X-93465Y101646D01*
X-91655Y101105D01*
X-89775Y101297D01*
X-88112Y102195D01*
X-88083Y102218D01*
X-45991Y51338D01*
Y49530D01*
X-45230Y47692D01*
X-43824Y46286D01*
X-41986Y45525D01*
X-39997D01*
X-38159Y46286D01*
X-36753Y47692D01*
X-35991Y49530D01*
Y51519D01*
X-36753Y53357D01*
X-38159Y54763D01*
X-39997Y55525D01*
X-40801D01*
X-83098Y106653D01*
X-82681Y107166D01*
X-82140Y108976D01*
X-82332Y110856D01*
X-83230Y112519D01*
X-87691Y117913D01*
X-89157Y119106D01*
X-90967Y119647D01*
D02*
G37*
G36*
X71328Y29828D02*
X66058D01*
Y24558D01*
X71328D01*
Y29828D01*
D02*
G37*
G36*
Y22018D02*
X66058D01*
Y16748D01*
X71328D01*
Y22018D01*
D02*
G37*
G36*
X-144641Y25926D02*
X-146526Y25792D01*
X-148216Y24948D01*
X-149455Y23521D01*
X-150053Y21728D01*
X-150742Y16271D01*
X-150609Y14386D01*
X-149764Y12696D01*
X-148337Y11458D01*
X-146545Y10860D01*
X-139600Y9982D01*
X-137715Y10116D01*
X-136024Y10960D01*
X-134786Y12387D01*
X-134426Y13466D01*
X-105497D01*
X-105020Y12196D01*
X-106089Y11127D01*
X-106850Y9289D01*
Y7300D01*
X-106784Y7140D01*
X-109013Y4910D01*
X-135341D01*
X-136246Y5815D01*
X-138084Y6576D01*
X-140073D01*
X-141911Y5815D01*
X-143317Y4408D01*
X-144078Y2570D01*
Y581D01*
X-143317Y-1257D01*
X-141911Y-2663D01*
X-140073Y-3424D01*
X-138084D01*
X-136246Y-2663D01*
X-135341Y-1758D01*
X-107632D01*
X-106357Y-1504D01*
X-105275Y-782D01*
X-101199Y3295D01*
X-100855D01*
X-99018Y4056D01*
X-97611Y5462D01*
X-96850Y7300D01*
Y9289D01*
X-97611Y11127D01*
X-98680Y12196D01*
X-98203Y13466D01*
X-88648D01*
X-87589Y12800D01*
Y-17200D01*
X-87550Y-17397D01*
Y-19200D01*
X-85747D01*
X-85550Y-19239D01*
X-62550D01*
X-62353Y-19200D01*
X-60550D01*
Y-17397D01*
X-60511Y-17200D01*
Y11593D01*
X-60462Y11657D01*
X-59241Y12337D01*
X-57945Y11800D01*
X-55955D01*
X-54118Y12561D01*
X-52711Y13968D01*
X-51950Y15805D01*
Y17795D01*
X-52711Y19632D01*
X-54118Y21039D01*
X-55955Y21800D01*
X-57945D01*
X-59782Y21039D01*
X-60687Y20134D01*
X-133534D01*
X-133632Y21522D01*
X-134477Y23212D01*
X-135904Y24451D01*
X-137696Y25048D01*
X-144641Y25926D01*
D02*
G37*
G36*
X71328Y13828D02*
X66058D01*
Y8558D01*
X71328D01*
Y13828D01*
D02*
G37*
G36*
Y6018D02*
X66058D01*
Y748D01*
X71328D01*
Y6018D01*
D02*
G37*
G36*
X-48355Y-2900D02*
X-50345D01*
X-52182Y-3661D01*
X-53589Y-5068D01*
X-54350Y-6905D01*
Y-8895D01*
X-53589Y-10732D01*
X-52684Y-11637D01*
Y-16019D01*
X-58331Y-21666D01*
X-131338D01*
X-133517Y-19487D01*
X-134188Y-14180D01*
X-134786Y-12387D01*
X-136024Y-10960D01*
X-137715Y-10116D01*
X-139600Y-9982D01*
X-146544Y-10860D01*
X-148337Y-11458D01*
X-149764Y-12696D01*
X-150609Y-14386D01*
X-150742Y-16271D01*
X-150053Y-21728D01*
X-149455Y-23521D01*
X-148216Y-24948D01*
X-146526Y-25792D01*
X-144641Y-25926D01*
X-137696Y-25048D01*
X-137464Y-24971D01*
X-135077Y-27357D01*
X-133995Y-28080D01*
X-132719Y-28334D01*
X-113453D01*
X-112774Y-29604D01*
X-112962Y-29887D01*
X-133570D01*
X-134846Y-30140D01*
X-135928Y-30863D01*
X-144065Y-39000D01*
X-145345D01*
X-147182Y-39761D01*
X-148589Y-41168D01*
X-149350Y-43005D01*
Y-44995D01*
X-148589Y-46832D01*
X-147182Y-48239D01*
X-145345Y-49000D01*
X-144486D01*
X-144470Y-49004D01*
X-143353Y-50269D01*
X-143382Y-51189D01*
X-142715Y-52957D01*
X-139807Y-57625D01*
X-138514Y-59004D01*
X-136792Y-59782D01*
X-134903Y-59843D01*
X-133135Y-59175D01*
X-127194Y-55474D01*
X-126909Y-55206D01*
X-126184Y-55351D01*
X-68561D01*
X-67285Y-55097D01*
X-66204Y-54374D01*
X-42735Y-30905D01*
X-41455D01*
X-39618Y-30144D01*
X-38211Y-28738D01*
X-37450Y-26900D01*
Y-24911D01*
X-38211Y-23073D01*
X-39618Y-21667D01*
X-41455Y-20905D01*
X-43445D01*
X-45282Y-21667D01*
X-46689Y-23073D01*
X-47450Y-24911D01*
Y-26190D01*
X-69942Y-48682D01*
X-124803D01*
X-125383Y-48102D01*
X-126465Y-47379D01*
X-126540Y-47364D01*
X-128552Y-44134D01*
X-129845Y-42756D01*
X-131567Y-41978D01*
X-133456Y-41918D01*
X-135224Y-42585D01*
X-136987Y-43683D01*
X-138393Y-43062D01*
X-138440Y-42805D01*
X-132190Y-36555D01*
X-111987D01*
X-111082Y-37459D01*
X-109245Y-38221D01*
X-107255D01*
X-105418Y-37459D01*
X-104011Y-36053D01*
X-103250Y-34215D01*
Y-32226D01*
X-104011Y-30388D01*
X-104795Y-29604D01*
X-104269Y-28334D01*
X-56950D01*
X-55674Y-28080D01*
X-54592Y-27357D01*
X-46993Y-19757D01*
X-46270Y-18676D01*
X-46016Y-17400D01*
Y-11637D01*
X-45111Y-10732D01*
X-44350Y-8895D01*
Y-6905D01*
X-45111Y-5068D01*
X-46518Y-3661D01*
X-48355Y-2900D01*
D02*
G37*
G36*
X-33155Y-29500D02*
X-35145D01*
X-36982Y-30261D01*
X-38389Y-31668D01*
X-39150Y-33505D01*
Y-34785D01*
X-83659Y-79293D01*
X-108785D01*
X-110494Y-76924D01*
X-111877Y-75636D01*
X-113648Y-74976D01*
X-115536Y-75044D01*
X-117255Y-75829D01*
X-122932Y-79924D01*
X-124220Y-81307D01*
X-124880Y-83078D01*
X-124812Y-84967D01*
X-124027Y-86685D01*
X-120809Y-91146D01*
X-119426Y-92433D01*
X-117656Y-93094D01*
X-115767Y-93026D01*
X-114048Y-92241D01*
X-108371Y-88146D01*
X-107084Y-86762D01*
X-106785Y-85962D01*
X-82277D01*
X-81002Y-85708D01*
X-79920Y-84985D01*
X-34435Y-39500D01*
X-33155D01*
X-31318Y-38739D01*
X-29911Y-37332D01*
X-29150Y-35495D01*
Y-33505D01*
X-29911Y-31668D01*
X-31318Y-30261D01*
X-33155Y-29500D01*
D02*
G37*
G36*
X-68681Y-79315D02*
X-70670D01*
X-72508Y-80077D01*
X-73914Y-81483D01*
X-74675Y-83321D01*
Y-85129D01*
X-88583Y-101940D01*
X-89775Y-101297D01*
X-91655Y-101105D01*
X-93465Y-101646D01*
X-94931Y-102839D01*
X-99392Y-108233D01*
X-100290Y-109896D01*
X-100483Y-111776D01*
X-99941Y-113586D01*
X-98748Y-115051D01*
X-94510Y-118557D01*
X-92847Y-119455D01*
X-90967Y-119647D01*
X-89157Y-119106D01*
X-87691Y-117913D01*
X-83230Y-112519D01*
X-82332Y-110856D01*
X-82140Y-108976D01*
X-82681Y-107166D01*
X-83460Y-106209D01*
X-69485Y-89315D01*
X-68681D01*
X-66843Y-88554D01*
X-65437Y-87148D01*
X-64675Y-85310D01*
Y-83321D01*
X-65437Y-81483D01*
X-66843Y-80077D01*
X-68681Y-79315D01*
D02*
G37*
G36*
X-39013Y-80517D02*
X-41002D01*
X-42840Y-81279D01*
X-44247Y-82685D01*
X-45008Y-84523D01*
Y-86512D01*
X-44611Y-87469D01*
X-60332Y-120879D01*
X-61116Y-120568D01*
X-62975Y-120229D01*
X-64822Y-120627D01*
X-66377Y-121701D01*
X-67402Y-123289D01*
X-69978Y-129797D01*
X-70318Y-131656D01*
X-69920Y-133503D01*
X-68846Y-135058D01*
X-67258Y-136083D01*
X-62144Y-138108D01*
X-60286Y-138447D01*
X-58438Y-138049D01*
X-56884Y-136975D01*
X-55859Y-135387D01*
X-53282Y-128879D01*
X-52942Y-127020D01*
X-53340Y-125173D01*
X-54318Y-123758D01*
X-38595Y-90344D01*
X-37176Y-89756D01*
X-35769Y-88350D01*
X-35008Y-86512D01*
Y-84523D01*
X-35769Y-82685D01*
X-37176Y-81279D01*
X-39013Y-80517D01*
D02*
G37*
G36*
X18995Y-48167D02*
X17005D01*
X15168Y-48928D01*
X13761Y-50335D01*
X13000Y-52173D01*
Y-54162D01*
X13761Y-56000D01*
X15168Y-57406D01*
X17005Y-58167D01*
X18042D01*
X26666Y-66792D01*
Y-121090D01*
X26920Y-122366D01*
X27643Y-123447D01*
X36145Y-131950D01*
X35742Y-133380D01*
X35964Y-135257D01*
X38127Y-141914D01*
X39050Y-143563D01*
X40534Y-144733D01*
X42353Y-145246D01*
X44229Y-145023D01*
X49460Y-143324D01*
X51109Y-142401D01*
X52279Y-140917D01*
X52792Y-139098D01*
X52570Y-137221D01*
X50407Y-130564D01*
X49483Y-128915D01*
X47999Y-127745D01*
X46181Y-127232D01*
X44304Y-127454D01*
X41870Y-128245D01*
X33334Y-119709D01*
Y-65411D01*
X33080Y-64135D01*
X32357Y-63053D01*
X23000Y-53696D01*
Y-52173D01*
X22239Y-50335D01*
X20832Y-48928D01*
X18995Y-48167D01*
D02*
G37*
G36*
X27323Y-182638D02*
X24164D01*
X21112Y-183456D01*
X18375Y-185036D01*
X16141Y-187270D01*
X14561Y-190006D01*
X13743Y-193058D01*
Y-196218D01*
X14561Y-199270D01*
X16141Y-202006D01*
X18375Y-204240D01*
X21112Y-205820D01*
X21155Y-205832D01*
Y-217356D01*
X13099Y-225412D01*
X11194D01*
X11182Y-225368D01*
X9602Y-222632D01*
X7368Y-220398D01*
X4632Y-218818D01*
X1580Y-218000D01*
X-1580D01*
X-4632Y-218818D01*
X-7368Y-220398D01*
X-9602Y-222632D01*
X-11182Y-225368D01*
X-12000Y-228420D01*
Y-231580D01*
X-11182Y-234632D01*
X-9602Y-237368D01*
X-7368Y-239602D01*
X-4632Y-241182D01*
X-1580Y-242000D01*
X1580D01*
X4632Y-241182D01*
X7368Y-239602D01*
X9602Y-237368D01*
X11182Y-234632D01*
X11194Y-234588D01*
X15000D01*
X16756Y-234239D01*
X18244Y-233244D01*
X28988Y-222501D01*
X29982Y-221012D01*
X30332Y-219256D01*
Y-205832D01*
X30375Y-205820D01*
X33112Y-204240D01*
X35346Y-202006D01*
X36926Y-199270D01*
X37743Y-196218D01*
Y-193058D01*
X36926Y-190006D01*
X35346Y-187270D01*
X33112Y-185036D01*
X30375Y-183456D01*
X27323Y-182638D01*
D02*
G37*
G36*
X51580Y-218000D02*
X48420D01*
X45368Y-218818D01*
X42632Y-220398D01*
X40398Y-222632D01*
X38818Y-225368D01*
X38000Y-228420D01*
Y-231580D01*
X38818Y-234632D01*
X40398Y-237368D01*
X42632Y-239602D01*
X45368Y-241182D01*
X48420Y-242000D01*
X51580D01*
X54632Y-241182D01*
X57368Y-239602D01*
X59602Y-237368D01*
X61182Y-234632D01*
X62000Y-231580D01*
Y-228420D01*
X61182Y-225368D01*
X59602Y-222632D01*
X57368Y-220398D01*
X54632Y-218818D01*
X51580Y-218000D01*
D02*
G37*
%LPD*%
G36*
G01X33100Y213000D02*
G01X43100D01*
G01Y193000D01*
G02X33100I-5000J0D01*
G01Y213000D01*
D02*
G37*
G36*
G01X-3100Y213000D02*
G01X6900D01*
G01Y193000D01*
G02X-3100I-5000J0D01*
G01Y213000D01*
D02*
G37*
G36*
G01X-23100Y213000D02*
G01X-13100D01*
G01Y193000D01*
G02X-23100I-5000J0D01*
G01Y213000D01*
D02*
G37*
G36*
G01X-43100Y213000D02*
G01X-33100D01*
G01Y193000D01*
G02X-43100I-5000J0D01*
G01Y213000D01*
D02*
G37*
G36*
G01X33100Y-289150D02*
G01X43100D01*
G01Y-269150D01*
G03X33100I-5000J0D01*
G01Y-289150D01*
D02*
G37*
G36*
G01X-3100Y-289150D02*
G01X6900D01*
G01Y-269150D01*
G03X-3100I-5000J0D01*
G01Y-289150D01*
D02*
G37*
G36*
G01X-23100Y-289150D02*
G01X-13100D01*
G01Y-269150D01*
G03X-23100I-5000J0D01*
G01Y-289150D01*
D02*
G37*
G36*
G01X-43100Y-289150D02*
G01X-33100D01*
G01Y-269150D01*
G03X-43100I-5000J0D01*
G01Y-289150D01*
D02*
G37*
G36*
G01X212650Y33100D02*
G01Y43100D01*
G01X192650D01*
G03Y33100I0J-5000D01*
G01X212650D01*
D02*
G37*
G36*
G01Y-3100D02*
G01Y6900D01*
G01X192650D01*
G03Y-3100I0J-5000D01*
G01X212650D01*
D02*
G37*
G36*
G01Y-23100D02*
G01Y-13100D01*
G01X192650D01*
G03Y-23100I0J-5000D01*
G01X212650D01*
D02*
G37*
G36*
G01Y-43100D02*
G01Y-33100D01*
G01X192650D01*
G03Y-43100I0J-5000D01*
G01X212650D01*
D02*
G37*
G36*
G01X-212650Y-43100D02*
G01Y-33100D01*
G01X-192650D01*
G02Y-43100I0J-5000D01*
G01X-212650D01*
D02*
G37*
G36*
G01Y-23100D02*
G01Y-13100D01*
G01X-192650D01*
G02Y-23100I0J-5000D01*
G01X-212650D01*
D02*
G37*
G36*
G01Y-3100D02*
G01Y6900D01*
G01X-192650D01*
G02Y-3100I0J-5000D01*
G01X-212650D01*
D02*
G37*
G36*
G01Y33100D02*
G01Y43100D01*
G01X-192650D01*
G02Y33100I0J-5000D01*
G01X-212650D01*
D02*
G37*
D14*
X62981Y169051D02*
G03*
X62139Y169319I-1180J-2249D01*
G01*
X96789Y151130D02*
G03*
X96368Y151409I-1607J-1967D01*
G01*
X130789Y123016D02*
G03*
X130334Y123505I-2070J-1472D01*
G01*
X154705Y89020D02*
G03*
X154425Y89532I-2355J-953D01*
G01*
X-107632Y1576D02*
X-101850Y7358D01*
X-139078Y1576D02*
X-107632D01*
X-192650Y-38100D02*
X-169296D01*
X-163052Y-44344D01*
X-66579Y-148442D02*
X-32850Y-159402D01*
X-30805Y-163356D01*
X-27448Y-160433D01*
X7947Y-162659D02*
X10911Y-165980D01*
X-27448Y-160433D02*
X7947Y-162659D01*
X176900Y-50164D02*
Y-39095D01*
X175905Y-38100D02*
X176900Y-39095D01*
X172950Y-35145D02*
X175905Y-38100D01*
X197350D01*
X49957Y-9085D02*
X50598Y-9726D01*
X58586Y-9141D02*
X59040Y-8687D01*
X50598Y-43402D02*
Y-9726D01*
X59040Y-8687D02*
X67598D01*
X-168126Y-3030D02*
Y1490D01*
X-175000Y-10000D02*
Y-9904D01*
X-168126Y1490D02*
X-168110Y1505D01*
X-175000Y-9904D02*
X-168126Y-3030D01*
X-183100Y-18100D02*
X-175000Y-10000D01*
X-197650Y-18100D02*
X-183100D01*
X44165Y-49835D02*
X50598Y-43402D01*
X161046Y41616D02*
X161527Y42097D01*
X161046Y31198D02*
Y41616D01*
X152521Y22673D02*
X161046Y31198D01*
X157879Y43703D02*
X161527Y42097D01*
X-105849Y-128042D02*
X-101499Y-127098D01*
X-71556Y-146101D01*
X9123Y138438D02*
X9436Y143408D01*
X7348Y110224D02*
X9123Y138438D01*
X144823Y76678D02*
X157879Y43703D01*
X80598Y55288D02*
X99555D01*
X100207Y55288D01*
X100778Y55602D01*
X125972Y69452D01*
X122276Y-69011D02*
X125531D01*
X80466Y-73116D02*
X118171D01*
X79850Y-72500D02*
X80466Y-73116D01*
X118171D02*
X122276Y-69011D01*
X79850Y-72500D02*
X82849Y-69501D01*
X77198Y-120509D02*
Y-115963D01*
X60671Y-99435D02*
X77198Y-115963D01*
X60671Y-99435D02*
Y-99219D01*
X172950Y-35145D02*
Y-15500D01*
X82849Y-69501D02*
Y-47709D01*
X82402Y-47262D02*
X82849Y-47709D01*
X-101850Y7358D02*
Y8295D01*
X-144350Y-44000D02*
X-133570Y-33221D01*
X-108250D01*
X-11350Y-121900D02*
X-5895Y-116445D01*
Y-61934D01*
X-120531Y40957D02*
X-91124D01*
X-90580Y41500D01*
X-12345Y135800D02*
X-11847Y136297D01*
Y152900D02*
X-11350Y153398D01*
X-11847Y136297D02*
Y152900D01*
X-56950Y-25000D02*
X-49350Y-17400D01*
X-132719Y-25000D02*
X-56950D01*
X-49350Y-17400D02*
Y-7900D01*
X-151982Y66618D02*
X-148300Y75918D01*
X-34711Y21939D01*
X-17025Y39625D01*
X-93232Y84201D02*
X-44831Y35800D01*
X-34150D01*
X-115010Y84201D02*
X-93232D01*
X-115450Y84641D02*
X-115010Y84201D01*
X-17025Y39625D02*
X43242D01*
X-132749Y53175D02*
X-120531Y40957D01*
X-141679Y18395D02*
X-140084Y16800D01*
X-56950D01*
X-126184Y-52017D02*
X-68561D01*
X-127741Y-50459D02*
X-126184Y-52017D01*
X-128119Y-50459D02*
X-127741D01*
X-68561Y-52017D02*
X-42450Y-25905D01*
X-140206Y-17513D02*
X-132719Y-25000D01*
X-141679Y-17513D02*
X-140206D01*
X-114319Y-82627D02*
X-82277D01*
X-34150Y-34500D01*
X-115450Y-83759D02*
X-114319Y-82627D01*
X-1850Y123200D02*
Y155500D01*
X-26354Y141122D02*
X-20259Y109170D01*
X-17257Y93911D01*
X163096Y12904D02*
X167016Y8984D01*
X163096Y12904D02*
Y12909D01*
X174000Y-53064D02*
X176900Y-50164D01*
X174000Y-54000D02*
Y-53064D01*
X-18498Y-183498D02*
X-10000Y-175000D01*
X-18498Y-273100D02*
Y-183498D01*
X-38100Y-263100D02*
X-25000Y-250000D01*
Y-215000D01*
X-50000Y-190000D02*
X-25000Y-215000D01*
X-161177Y23630D02*
X-152357Y57981D01*
X-50000Y-190000D02*
Y-170000D01*
X9308Y-142399D02*
X9706Y-142001D01*
Y-66294D01*
X10000Y-66000D01*
X-10000Y-130000D02*
X2057Y-117943D01*
Y-110590D01*
X-5895Y-61934D02*
X39625Y-16413D01*
X-10000Y-145000D02*
Y-130000D01*
X-38100Y-278100D02*
Y-263100D01*
X94477Y31347D02*
X95139Y30685D01*
X97366D02*
X116000Y12051D01*
X95139Y30685D02*
X97366D01*
X116000Y-9595D02*
Y12051D01*
X98737Y-30595D02*
X104813D01*
X72598Y7288D02*
Y23288D01*
Y-8712D02*
Y7288D01*
X109595Y-35595D02*
X110000Y-36000D01*
X98712Y-35595D02*
X109595D01*
X44165Y-91956D02*
Y-49835D01*
Y-91956D02*
X71320Y-147301D01*
X-26401Y-140271D02*
X-14549Y-78142D01*
X30000Y-121090D02*
X44708Y-135798D01*
X18000Y-53411D02*
X30000Y-65411D01*
Y-121090D02*
Y-65411D01*
X53060Y-91608D02*
Y-52666D01*
X18000Y-53411D02*
Y-53167D01*
X53060Y-52666D02*
X58539Y-47186D01*
X53060Y-91608D02*
X60671Y-99219D01*
X33970Y32008D02*
X39625Y26352D01*
X33854Y32008D02*
X33970D01*
X39625Y-16413D02*
Y26352D01*
X48598Y23288D02*
X57598D01*
X53013Y-155306D02*
X71320Y-147301D01*
X98170Y-55577D02*
X98832Y-56239D01*
X92402Y-52128D02*
Y-47313D01*
X95851Y-55577D02*
X98170D01*
X92402Y-52128D02*
X95851Y-55577D01*
X133687Y-57791D02*
X140289D01*
X140497Y-57999D01*
X121798Y-45903D02*
X133687Y-57791D01*
X121798Y-45903D02*
Y-28218D01*
X106000Y48000D02*
X115431Y38569D01*
X136688D01*
X144823Y-75795D02*
X157878Y-42821D01*
X144823Y-75795D02*
X146565Y-79891D01*
X167016Y616D02*
Y8984D01*
Y616D02*
X167191Y441D01*
X47867Y35000D02*
X78886D01*
X43242Y39625D02*
X47867Y35000D01*
X110000Y-15595D02*
X116000Y-9595D01*
X132000Y-8000D02*
Y4000D01*
Y-8000D02*
X139191Y-15191D01*
X94276Y41724D02*
X132000Y4000D01*
X50598Y41724D02*
X94276D01*
X139191Y-35184D02*
Y-15191D01*
X98813Y-15595D02*
X110000D01*
X133761Y-49761D02*
X140832D01*
X127405Y-43405D02*
X133761Y-49761D01*
X-164994Y-20458D02*
X-161300Y-16764D01*
X-164994Y20500D02*
X-161275Y16781D01*
X-161300Y-14348D02*
X-161275Y-14323D01*
Y16781D01*
X-164994Y20500D02*
Y21340D01*
X-161300Y-16764D02*
Y-14348D01*
X-164994Y21340D02*
X-161177Y23630D01*
X-164994Y-20458D02*
X-161177Y-22748D01*
X104742Y-40595D02*
X110333Y-46186D01*
Y-49198D02*
Y-46186D01*
Y-49198D02*
X110995Y-49861D01*
X98788Y-20595D02*
X122664D01*
X127405Y-43405D02*
Y-25336D01*
X122664Y-20595D02*
X127405Y-25336D01*
X98686Y-40595D02*
X104742D01*
X98776Y-25608D02*
X119188D01*
X121798Y-28218D01*
X158892Y-40300D02*
X159165Y-40658D01*
X158892Y-40300D02*
X163691Y-2309D01*
X159165Y-40658D02*
X161952Y-41028D01*
X157878Y-42821D02*
X161952Y-41028D01*
X163691Y-2310D02*
X163691Y-2309D01*
X167191Y441D01*
X64768Y-65707D02*
X64863D01*
X72402Y-58168D01*
X66598Y-86712D02*
Y-72745D01*
X77402Y-61940D02*
Y-47237D01*
X66598Y-72745D02*
X77402Y-61940D01*
X-154599Y61826D02*
X-151982Y66618D01*
X72402Y-58168D02*
Y-47212D01*
X58539Y-47186D02*
X67403D01*
X87598Y-3712D02*
X94885Y3575D01*
Y15136D01*
X88766Y3877D02*
Y25119D01*
X82598Y-2292D02*
X88766Y3877D01*
X78886Y35000D02*
X88766Y25119D01*
X92598Y-8814D02*
X98138D01*
X104598Y-2354D02*
Y5288D01*
X98138Y-8814D02*
X104598Y-2354D01*
X51970Y-158147D02*
X53013Y-155306D01*
X95388Y47994D02*
X141757Y1625D01*
X15892Y47994D02*
X95388D01*
X26440Y174115D02*
X62139Y169319D01*
X15842Y172385D02*
X26440Y174115D01*
X10912Y166862D02*
X15842Y172385D01*
X62981Y169051D02*
X62987Y169048D01*
X96789Y151130D02*
X96796Y151124D01*
X130789Y123016D02*
X130795Y123009D01*
X154705Y89020D02*
X154709Y89010D01*
X62987Y169048D02*
X96368Y151409D01*
X96796Y151124D02*
X130334Y123505D01*
X130795Y123009D02*
X154425Y89532D01*
X154709Y89010D02*
X166598Y59288D01*
X-154599Y61826D02*
X-151555Y58782D01*
X-154599Y61826D02*
X-154599D01*
X166598Y59288D02*
Y60224D01*
X142132Y2000D02*
X143691Y441D01*
X136688Y38569D02*
X139191Y36066D01*
X15892Y47994D02*
X44708Y136680D01*
X57598Y7288D02*
Y23288D01*
X82058Y17288D02*
X82598Y16748D01*
Y4663D02*
Y16748D01*
X87598Y-8788D02*
Y-3712D01*
X82598Y-8763D02*
Y-2292D01*
X77598Y-337D02*
X82598Y4663D01*
X77598Y-8737D02*
Y-337D01*
X87402Y-57517D02*
X90598Y-60712D01*
X87402Y-57517D02*
Y-47288D01*
X104866Y-97620D02*
X104866D01*
X66598Y-86712D02*
X93958D01*
X104866Y-97620D01*
X-60552Y130058D02*
X-33621Y72827D01*
X-33529Y72631D01*
X-60552Y-129175D02*
X-40008Y-85518D01*
X58759Y55205D02*
X104866Y98503D01*
X-90870Y-109935D02*
X-87695Y-106098D01*
X-69675Y-84315D01*
X74530Y117186D02*
X77198Y121391D01*
X35270Y55322D02*
X74530Y117186D01*
X-87696Y106980D02*
X-40991Y50525D01*
X-90870Y110817D02*
X-87696Y106980D01*
X-130014Y98622D02*
X-105737Y124475D01*
X-134462Y98454D02*
X-130014Y98622D01*
X-105849Y128924D02*
X-105737Y124475D01*
X-105849Y128924D02*
X-101499Y127980D01*
X-71556Y146983D02*
X-70558Y151321D01*
X-101499Y127980D02*
X-71556Y146983D01*
X-70558Y151321D02*
X-66579Y149325D01*
X-32850Y160284D02*
X-30805Y164237D01*
X-66579Y149325D02*
X-32850Y160284D01*
X-30805Y164237D02*
X-27448Y161315D01*
X7947Y163542D02*
X10912Y166862D01*
X-27448Y161315D02*
X7947Y163542D01*
X51970Y159030D02*
X53504Y154851D01*
X85593Y139751D02*
X89790Y141233D01*
X53504Y154851D02*
X85593Y139751D01*
X90237Y136804D02*
X117563Y114198D01*
X89790Y141233D02*
X90237Y136804D01*
X117563Y114198D02*
X121997Y114590D01*
X142173Y81497D02*
X146565Y80774D01*
X121328Y110189D02*
X142173Y81497D01*
X121328Y110189D02*
X121997Y114590D01*
X144823Y76678D02*
X146565Y80774D01*
X121328Y-109306D02*
X121997Y-113707D01*
X121328Y-109306D02*
X142174Y-80615D01*
X146565Y-79891D01*
X90237Y-135922D02*
X117563Y-113316D01*
X89790Y-140351D02*
X90237Y-135922D01*
X117563Y-113316D02*
X121997Y-113707D01*
X13436Y-162314D02*
X48273Y-155669D01*
X51970Y-158147D01*
X10911Y-165980D02*
X13436Y-162314D01*
X-70558Y-150438D02*
X-66579Y-148442D01*
X-71556Y-146101D02*
X-70558Y-150438D01*
X-154599Y-60944D02*
X-150333Y-62212D01*
X-133247Y-93290D01*
X-134462Y-97572D02*
X-133247Y-93290D01*
X-161177Y-22748D02*
X-152357Y-57098D01*
X-154599Y-60944D02*
X-152357Y-57098D01*
D16*
X80000Y-28000D02*
D03*
D17*
X92500Y-8750D02*
D03*
X87500D02*
D03*
X82500D02*
D03*
Y-47250D02*
D03*
X87500D02*
D03*
X92500D02*
D03*
X72500Y-8750D02*
D03*
X67500D02*
D03*
Y-47250D02*
D03*
X72500D02*
D03*
X77500Y-8750D02*
D03*
Y-47250D02*
D03*
D18*
X98750Y-20500D02*
D03*
Y-15500D02*
D03*
X61250D02*
D03*
Y-20500D02*
D03*
X98750Y-40500D02*
D03*
Y-35500D02*
D03*
X98750Y-30500D02*
D03*
X61250D02*
D03*
X61250Y-35500D02*
D03*
Y-40500D02*
D03*
X98750Y-25500D02*
D03*
X61250D02*
D03*
D19*
X-27034Y-140677D02*
D03*
D20*
X-31057Y-163831D02*
D03*
D21*
X-91311Y-110376D02*
D03*
D22*
X-106291Y-128483D02*
D03*
D23*
X44267Y136239D02*
D03*
D24*
X51529Y158589D02*
D03*
D25*
X76757Y-120950D02*
D03*
D26*
X89349Y-140792D02*
D03*
D27*
X104425Y-98061D02*
D03*
D28*
X121556Y-114148D02*
D03*
D29*
X125531Y-69011D02*
D03*
D30*
X146124Y-80332D02*
D03*
D31*
X138750Y-35625D02*
D03*
D32*
X161511Y-41469D02*
D03*
D33*
X143261Y11D02*
D03*
D34*
X166761Y15D02*
D03*
D35*
X-61630Y-129338D02*
D03*
D36*
X-70281Y-151188D02*
D03*
D37*
X8995Y-142967D02*
D03*
D38*
X10470Y-166421D02*
D03*
D39*
X44267Y-136239D02*
D03*
D40*
X51529Y-158589D02*
D03*
D41*
X-133191Y52734D02*
D03*
D42*
X-155040Y61385D02*
D03*
D43*
X-142120Y17954D02*
D03*
D44*
X-165435Y20899D02*
D03*
D45*
X-142120Y-17954D02*
D03*
D46*
X-165435Y-20899D02*
D03*
D47*
X-134179Y-50880D02*
D03*
D48*
X-154126Y-63305D02*
D03*
D49*
X-115652Y-84035D02*
D03*
D50*
X-134711Y-97783D02*
D03*
D51*
X8995Y142967D02*
D03*
D52*
X10470Y166421D02*
D03*
D53*
X-26843Y140713D02*
D03*
D54*
X-31246Y163796D02*
D03*
D55*
X-60993Y129616D02*
D03*
D56*
X-70999Y150880D02*
D03*
D57*
X-91311Y110376D02*
D03*
D58*
X-106291Y128483D02*
D03*
D59*
X-115892Y84200D02*
D03*
D60*
X-134904Y98013D02*
D03*
D61*
X138750Y35625D02*
D03*
D62*
X161511Y41469D02*
D03*
D63*
X125522Y69015D02*
D03*
D64*
X146116Y80334D02*
D03*
D65*
X103860Y98410D02*
D03*
D66*
X120918Y114573D02*
D03*
D67*
X76757Y120950D02*
D03*
D68*
X89349Y140792D02*
D03*
D69*
X72598Y7288D02*
D03*
X57598D02*
D03*
X72598Y23288D02*
D03*
X57598D02*
D03*
D127*
X15000Y-230000D02*
X25744Y-219256D01*
Y-194638D01*
X0Y-230000D02*
X15000D01*
D128*
X-38100Y213000D02*
D03*
X1900D02*
D03*
X38100D02*
D03*
X-18100D02*
D03*
X-38100Y-289150D02*
D03*
X1900D02*
D03*
X38100D02*
D03*
X-18100D02*
D03*
X212650Y-38100D02*
D03*
Y1900D02*
D03*
Y38100D02*
D03*
Y-18100D02*
D03*
X-212650Y-18100D02*
D03*
Y38100D02*
D03*
Y1900D02*
D03*
Y-38100D02*
D03*
D129*
X68100Y198000D02*
D03*
X-68100D02*
D03*
X68100Y-274150D02*
D03*
X-68100D02*
D03*
X197650Y68100D02*
D03*
Y-68100D02*
D03*
X50000Y-230000D02*
D03*
X0D02*
D03*
X-50000D02*
D03*
X-197650Y-68100D02*
D03*
Y68100D02*
D03*
X25744Y-194638D02*
D03*
D130*
X-74050Y-2200D02*
D03*
D131*
X85500Y-22500D02*
D03*
X74500D02*
D03*
Y-33500D02*
D03*
X85500D02*
D03*
X-163052Y-44344D02*
D03*
X49957Y-9085D02*
D03*
X58586Y-9141D02*
D03*
X152521Y22673D02*
D03*
X7348Y110224D02*
D03*
X80598Y55288D02*
D03*
X60671Y-99219D02*
D03*
X172950Y-15500D02*
D03*
X79850Y-72500D02*
D03*
X-182350Y85200D02*
D03*
X-101850Y8295D02*
D03*
X-108250Y-33221D02*
D03*
X-11350Y-121900D02*
D03*
X-90580Y41500D02*
D03*
X-12345Y135800D02*
D03*
X-34150Y35800D02*
D03*
X-56950Y16800D02*
D03*
X-49350Y-7900D02*
D03*
X-42450Y-25905D02*
D03*
X-34150Y-34500D02*
D03*
X-11350Y153398D02*
D03*
X-1850Y155500D02*
D03*
Y123200D02*
D03*
X-144350Y-44000D02*
D03*
X163096Y12909D02*
D03*
X-139078Y1576D02*
D03*
X-168110Y1505D02*
D03*
X2057Y-110590D02*
D03*
X-10000Y-145000D02*
D03*
Y-175000D02*
D03*
X-50000Y-170000D02*
D03*
X94477Y31347D02*
D03*
X174000Y-54000D02*
D03*
X110000Y-36000D02*
D03*
X10000Y-66000D02*
D03*
X-14549Y-78142D02*
D03*
X66598Y-86712D02*
D03*
X18000Y-53167D02*
D03*
X33854Y32008D02*
D03*
X48598Y23288D02*
D03*
X98832Y-56239D02*
D03*
X140497Y-57999D02*
D03*
X106000Y48000D02*
D03*
X140832Y-49761D02*
D03*
X110995Y-49861D02*
D03*
X64768Y-65707D02*
D03*
X95036Y15288D02*
D03*
X50598Y41724D02*
D03*
X166598Y59288D02*
D03*
X104598Y5288D02*
D03*
X82058Y17288D02*
D03*
X90598Y-60712D02*
D03*
X-69675Y-84315D02*
D03*
X-40008Y-85517D02*
D03*
X58759Y55205D02*
D03*
X35270Y55322D02*
D03*
X15892Y47994D02*
D03*
X-17360Y93758D02*
D03*
X-33621Y72827D02*
D03*
X-40991Y50525D02*
D03*
M02*
