G04*
G04 #@! TF.GenerationSoftware,Altium Limited,Altium Designer,23.8.1 (32)*
G04*
G04 Layer_Color=16711935*
%FSLAX44Y44*%
%MOMM*%
G71*
G04*
G04 #@! TF.SameCoordinates,1253C11B-B4F6-43D5-8584-102BFB41548A*
G04*
G04*
G04 #@! TF.FilePolarity,Negative*
G04*
G01*
G75*
%ADD124C,2.2032*%
%ADD125C,1.2032*%
%ADD126C,0.8032*%
%ADD132R,3.2032X3.2032*%
G36*
X44678Y25959D02*
X44808Y25933D01*
X44851Y25919D01*
X44934Y25891D01*
X44934Y25891D01*
X46772Y25129D01*
X46772Y25129D01*
X46891Y25071D01*
X47002Y24997D01*
X47102Y24909D01*
X48509Y23502D01*
X48509Y23502D01*
X48597Y23402D01*
X48671Y23291D01*
X48710Y23211D01*
X48730Y23172D01*
X48730Y23172D01*
X49491Y21334D01*
X49534Y21208D01*
X49559Y21077D01*
X49568Y20945D01*
Y19950D01*
Y-50D01*
X49559Y-183D01*
X49534Y-314D01*
X49491Y-440D01*
X49432Y-559D01*
X49358Y-670D01*
X49270Y-770D01*
X49170Y-858D01*
X49059Y-932D01*
X48940Y-991D01*
X48814Y-1033D01*
X48683Y-1059D01*
X48550Y-1068D01*
X38550D01*
X38417Y-1059D01*
X38286Y-1033D01*
X38160Y-991D01*
X38041Y-932D01*
X37930Y-858D01*
X37830Y-770D01*
X37742Y-670D01*
X37668Y-559D01*
X37609Y-440D01*
X37566Y-314D01*
X37541Y-183D01*
X37532Y-50D01*
Y19950D01*
Y20945D01*
X37541Y21077D01*
X37566Y21208D01*
X37609Y21334D01*
X38370Y23172D01*
X38370Y23172D01*
X38400Y23231D01*
X38429Y23291D01*
X38454Y23328D01*
X38503Y23402D01*
X38544Y23449D01*
X38591Y23502D01*
X38591Y23502D01*
X39998Y24909D01*
X39998Y24909D01*
X40098Y24997D01*
X40209Y25071D01*
X40289Y25110D01*
X40328Y25129D01*
X40328Y25129D01*
X42166Y25891D01*
X42292Y25933D01*
X42422Y25959D01*
X42555Y25968D01*
X44545D01*
D01*
X44545D01*
X44678Y25959D01*
D02*
G37*
G36*
X64678D02*
X64808Y25933D01*
X64851Y25919D01*
X64934Y25891D01*
X64934Y25891D01*
X66772Y25129D01*
X66772Y25129D01*
X66891Y25071D01*
X67002Y24997D01*
X67102Y24909D01*
X68509Y23502D01*
X68509Y23502D01*
X68597Y23402D01*
X68671Y23291D01*
X68710Y23211D01*
X68730Y23172D01*
X68730Y23172D01*
X69491Y21334D01*
X69534Y21208D01*
X69559Y21077D01*
X69568Y20945D01*
Y19950D01*
Y-50D01*
X69559Y-183D01*
X69534Y-314D01*
X69491Y-440D01*
X69432Y-559D01*
X69358Y-670D01*
X69270Y-770D01*
X69170Y-858D01*
X69059Y-932D01*
X68940Y-991D01*
X68814Y-1033D01*
X68683Y-1059D01*
X68550Y-1068D01*
X58550D01*
X58417Y-1059D01*
X58286Y-1033D01*
X58160Y-991D01*
X58041Y-932D01*
X57930Y-858D01*
X57830Y-770D01*
X57742Y-670D01*
X57668Y-559D01*
X57609Y-440D01*
X57566Y-314D01*
X57541Y-183D01*
X57532Y-50D01*
Y19950D01*
Y20945D01*
X57541Y21077D01*
X57566Y21208D01*
X57609Y21334D01*
X58370Y23172D01*
X58370Y23172D01*
X58400Y23231D01*
X58429Y23291D01*
X58454Y23328D01*
X58503Y23402D01*
X58545Y23449D01*
X58591Y23502D01*
X58591Y23502D01*
X59998Y24909D01*
X59998Y24909D01*
X60098Y24997D01*
X60209Y25071D01*
X60289Y25110D01*
X60328Y25129D01*
X60328Y25129D01*
X62166Y25891D01*
X62292Y25933D01*
X62423Y25959D01*
X62555Y25968D01*
X64545D01*
D01*
X64545D01*
X64678Y25959D01*
D02*
G37*
G36*
X-109873Y257010D02*
X-109742Y256984D01*
X-109616Y256941D01*
X-107778Y256180D01*
X-107778Y256180D01*
X-107739Y256160D01*
X-107659Y256121D01*
X-107548Y256047D01*
X-107448Y255959D01*
X-107448Y255959D01*
X-106041Y254552D01*
X-105953Y254452D01*
X-105879Y254341D01*
X-105821Y254222D01*
X-105821Y254222D01*
X-105059Y252384D01*
X-105059Y252384D01*
X-105031Y252301D01*
X-105016Y252258D01*
X-104991Y252127D01*
X-104982Y251995D01*
Y251995D01*
D01*
Y250005D01*
X-104991Y249873D01*
X-105016Y249742D01*
X-105059Y249616D01*
X-105821Y247778D01*
X-105821Y247778D01*
X-105840Y247739D01*
X-105879Y247659D01*
X-105953Y247548D01*
X-106041Y247448D01*
X-106041Y247448D01*
X-107448Y246041D01*
X-107448Y246041D01*
X-107501Y245994D01*
X-107548Y245954D01*
X-107622Y245904D01*
X-107659Y245879D01*
X-107719Y245850D01*
X-107778Y245821D01*
X-107778Y245821D01*
X-109616Y245059D01*
X-109742Y245017D01*
X-109873Y244991D01*
X-110005Y244982D01*
X-131000D01*
X-131133Y244991D01*
X-131264Y245017D01*
X-131390Y245059D01*
X-131509Y245118D01*
X-131620Y245192D01*
X-131720Y245280D01*
X-131808Y245380D01*
X-131882Y245491D01*
X-131941Y245610D01*
X-131983Y245737D01*
X-132009Y245867D01*
X-132018Y246000D01*
Y256000D01*
X-132009Y256133D01*
X-131983Y256264D01*
X-131941Y256390D01*
X-131882Y256509D01*
X-131808Y256620D01*
X-131720Y256720D01*
X-131620Y256808D01*
X-131509Y256882D01*
X-131390Y256941D01*
X-131264Y256984D01*
X-131133Y257010D01*
X-131000Y257018D01*
X-110005D01*
X-109873Y257010D01*
D02*
G37*
G36*
Y277010D02*
X-109742Y276984D01*
X-109616Y276941D01*
X-107778Y276180D01*
X-107778Y276180D01*
X-107739Y276160D01*
X-107659Y276121D01*
X-107548Y276047D01*
X-107448Y275959D01*
X-107448Y275959D01*
X-106041Y274552D01*
X-105953Y274452D01*
X-105879Y274341D01*
X-105821Y274222D01*
X-105821Y274222D01*
X-105059Y272384D01*
X-105059Y272384D01*
X-105031Y272301D01*
X-105016Y272258D01*
X-104991Y272127D01*
X-104982Y271995D01*
Y271995D01*
D01*
Y270005D01*
X-104991Y269873D01*
X-105016Y269742D01*
X-105059Y269616D01*
X-105821Y267778D01*
X-105821Y267778D01*
X-105840Y267739D01*
X-105879Y267659D01*
X-105953Y267548D01*
X-106041Y267448D01*
X-106041Y267448D01*
X-107448Y266042D01*
X-107448Y266041D01*
X-107501Y265994D01*
X-107548Y265954D01*
X-107622Y265904D01*
X-107659Y265879D01*
X-107719Y265850D01*
X-107778Y265821D01*
X-107778Y265821D01*
X-109616Y265059D01*
X-109742Y265017D01*
X-109873Y264991D01*
X-110005Y264982D01*
X-111000D01*
X-131000Y264982D01*
X-131133Y264991D01*
X-131264Y265017D01*
X-131390Y265059D01*
X-131509Y265118D01*
X-131620Y265192D01*
X-131720Y265280D01*
X-131808Y265380D01*
X-131882Y265491D01*
X-131941Y265610D01*
X-131983Y265737D01*
X-132009Y265867D01*
X-132018Y266000D01*
Y276000D01*
X-132009Y276133D01*
X-131983Y276264D01*
X-131941Y276390D01*
X-131882Y276509D01*
X-131808Y276620D01*
X-131720Y276720D01*
X-131620Y276808D01*
X-131509Y276882D01*
X-131390Y276941D01*
X-131264Y276984D01*
X-131133Y277010D01*
X-131000Y277018D01*
X-111000Y277018D01*
X-110005D01*
X-109873Y277010D01*
D02*
G37*
G36*
X84677Y25959D02*
X84808Y25933D01*
X84851Y25919D01*
X84934Y25891D01*
X84934Y25891D01*
X86772Y25129D01*
X86772Y25129D01*
X86891Y25071D01*
X87002Y24997D01*
X87102Y24909D01*
X88509Y23502D01*
X88509Y23502D01*
X88596Y23402D01*
X88671Y23291D01*
X88710Y23211D01*
X88729Y23172D01*
X88729Y23172D01*
X89491Y21334D01*
X89534Y21208D01*
X89559Y21077D01*
X89568Y20945D01*
Y19950D01*
Y-50D01*
X89559Y-183D01*
X89534Y-314D01*
X89491Y-440D01*
X89432Y-559D01*
X89358Y-670D01*
X89270Y-770D01*
X89170Y-858D01*
X89059Y-932D01*
X88940Y-991D01*
X88813Y-1033D01*
X88683Y-1059D01*
X88550Y-1068D01*
X78550D01*
X78417Y-1059D01*
X78286Y-1033D01*
X78160Y-991D01*
X78041Y-932D01*
X77930Y-858D01*
X77830Y-770D01*
X77742Y-670D01*
X77668Y-559D01*
X77609Y-440D01*
X77566Y-314D01*
X77540Y-183D01*
X77532Y-50D01*
Y19950D01*
Y20945D01*
X77540Y21077D01*
X77566Y21208D01*
X77609Y21334D01*
X78370Y23172D01*
X78370Y23172D01*
X78400Y23231D01*
X78429Y23291D01*
X78454Y23328D01*
X78503Y23402D01*
X78544Y23449D01*
X78591Y23502D01*
X78591Y23502D01*
X79998Y24909D01*
X79998Y24909D01*
X80098Y24997D01*
X80209Y25071D01*
X80289Y25110D01*
X80328Y25129D01*
X80328Y25129D01*
X82166Y25891D01*
X82292Y25933D01*
X82423Y25959D01*
X82555Y25968D01*
X84544D01*
D01*
X84545D01*
X84677Y25959D01*
D02*
G37*
G36*
X120878D02*
X121008Y25933D01*
X121051Y25919D01*
X121134Y25891D01*
X121134Y25891D01*
X122972Y25129D01*
X122972Y25129D01*
X123091Y25071D01*
X123202Y24997D01*
X123302Y24909D01*
X124709Y23502D01*
X124709Y23502D01*
X124796Y23402D01*
X124871Y23291D01*
X124910Y23211D01*
X124930Y23172D01*
X124930Y23172D01*
X125691Y21334D01*
X125733Y21208D01*
X125759Y21077D01*
X125768Y20945D01*
Y19950D01*
Y-50D01*
X125759Y-183D01*
X125733Y-314D01*
X125691Y-440D01*
X125632Y-559D01*
X125558Y-670D01*
X125470Y-770D01*
X125370Y-858D01*
X125259Y-932D01*
X125140Y-991D01*
X125014Y-1033D01*
X124883Y-1059D01*
X124750Y-1068D01*
X114750D01*
X114617Y-1059D01*
X114487Y-1033D01*
X114360Y-991D01*
X114241Y-932D01*
X114130Y-858D01*
X114030Y-770D01*
X113942Y-670D01*
X113868Y-559D01*
X113809Y-440D01*
X113766Y-314D01*
X113741Y-183D01*
X113732Y-50D01*
X113732Y19950D01*
Y20945D01*
X113741Y21077D01*
X113766Y21208D01*
X113809Y21334D01*
X114571Y23172D01*
X114571Y23172D01*
X114600Y23231D01*
X114629Y23291D01*
X114654Y23328D01*
X114703Y23402D01*
X114744Y23449D01*
X114791Y23502D01*
X114791Y23502D01*
X116198Y24909D01*
X116198Y24909D01*
X116298Y24997D01*
X116409Y25071D01*
X116489Y25110D01*
X116528Y25129D01*
X116528Y25129D01*
X118366Y25891D01*
X118492Y25933D01*
X118623Y25959D01*
X118755Y25968D01*
X120744D01*
D01*
X120745D01*
X120878Y25959D01*
D02*
G37*
G36*
X294433Y257010D02*
X294564Y256984D01*
X294690Y256941D01*
X294809Y256882D01*
X294920Y256808D01*
X295020Y256720D01*
X295108Y256620D01*
X295182Y256509D01*
X295241Y256390D01*
X295284Y256264D01*
X295310Y256133D01*
X295318Y256000D01*
Y246000D01*
X295310Y245867D01*
X295284Y245737D01*
X295241Y245610D01*
X295182Y245491D01*
X295108Y245380D01*
X295020Y245280D01*
X294920Y245192D01*
X294809Y245118D01*
X294690Y245059D01*
X294564Y245016D01*
X294433Y244991D01*
X294300Y244982D01*
X273305D01*
X273172Y244991D01*
X273042Y245016D01*
X272916Y245059D01*
X271078Y245821D01*
X271078Y245821D01*
X271019Y245850D01*
X270959Y245879D01*
X270922Y245904D01*
X270848Y245953D01*
X270801Y245994D01*
X270748Y246041D01*
X270748Y246041D01*
X269341Y247448D01*
X269341Y247448D01*
X269253Y247548D01*
X269179Y247659D01*
X269140Y247739D01*
X269121Y247778D01*
X269120Y247778D01*
X268359Y249616D01*
X268316Y249742D01*
X268291Y249873D01*
X268282Y250005D01*
Y251994D01*
X268291Y252127D01*
X268316Y252258D01*
X268359Y252384D01*
X269120Y254222D01*
X269121Y254222D01*
X269150Y254281D01*
X269179Y254341D01*
X269204Y254378D01*
X269253Y254452D01*
X269294Y254499D01*
X269341Y254552D01*
X269341Y254552D01*
X270748Y255959D01*
X270748Y255959D01*
X270848Y256047D01*
X270959Y256121D01*
X271039Y256160D01*
X271078Y256180D01*
X271078Y256180D01*
X272916Y256941D01*
X273042Y256984D01*
X273172Y257010D01*
X273305Y257018D01*
X294300D01*
X294433Y257010D01*
D02*
G37*
G36*
Y277010D02*
X294564Y276984D01*
X294690Y276941D01*
X294809Y276882D01*
X294920Y276808D01*
X295020Y276720D01*
X295108Y276620D01*
X295182Y276509D01*
X295241Y276390D01*
X295284Y276264D01*
X295310Y276133D01*
X295318Y276000D01*
Y266000D01*
X295310Y265867D01*
X295284Y265737D01*
X295241Y265610D01*
X295182Y265491D01*
X295108Y265380D01*
X295020Y265280D01*
X294920Y265192D01*
X294809Y265118D01*
X294690Y265059D01*
X294564Y265016D01*
X294433Y264991D01*
X294300Y264982D01*
X273305D01*
X273172Y264991D01*
X273042Y265016D01*
X272916Y265059D01*
X271078Y265821D01*
X271078Y265821D01*
X271019Y265850D01*
X270959Y265879D01*
X270922Y265904D01*
X270848Y265953D01*
X270801Y265994D01*
X270748Y266041D01*
X270748Y266041D01*
X269341Y267448D01*
X269341Y267448D01*
X269253Y267548D01*
X269179Y267659D01*
X269140Y267739D01*
X269121Y267778D01*
X269120Y267778D01*
X268359Y269616D01*
X268316Y269742D01*
X268291Y269873D01*
X268282Y270005D01*
Y271995D01*
X268291Y272127D01*
X268316Y272258D01*
X268359Y272384D01*
X269120Y274222D01*
X269121Y274222D01*
X269150Y274281D01*
X269179Y274341D01*
X269204Y274378D01*
X269253Y274452D01*
X269294Y274499D01*
X269341Y274552D01*
X269341Y274552D01*
X270748Y275959D01*
X270748Y275959D01*
X270848Y276047D01*
X270959Y276121D01*
X271039Y276160D01*
X271078Y276180D01*
X271078Y276180D01*
X272916Y276941D01*
X273042Y276984D01*
X273172Y277010D01*
X273305Y277018D01*
X294300D01*
X294433Y277010D01*
D02*
G37*
G36*
X-111000Y297018D02*
X-110005D01*
X-109873Y297010D01*
X-109742Y296984D01*
X-109616Y296941D01*
X-107778Y296180D01*
X-107778Y296180D01*
X-107739Y296160D01*
X-107659Y296121D01*
X-107548Y296047D01*
X-107448Y295959D01*
X-107448Y295959D01*
X-106041Y294552D01*
X-105953Y294452D01*
X-105879Y294341D01*
X-105821Y294222D01*
X-105821Y294222D01*
X-105059Y292384D01*
X-105059Y292384D01*
X-105031Y292301D01*
X-105016Y292258D01*
X-104991Y292127D01*
X-104982Y291995D01*
Y291994D01*
D01*
Y290005D01*
X-104991Y289872D01*
X-105016Y289742D01*
X-105059Y289616D01*
X-105821Y287778D01*
X-105821Y287778D01*
X-105840Y287739D01*
X-105879Y287659D01*
X-105953Y287548D01*
X-106041Y287448D01*
X-106041Y287448D01*
X-107448Y286041D01*
X-107448Y286041D01*
X-107501Y285994D01*
X-107548Y285953D01*
X-107622Y285904D01*
X-107659Y285879D01*
X-107719Y285850D01*
X-107778Y285821D01*
X-107778Y285821D01*
X-109616Y285059D01*
X-109742Y285016D01*
X-109873Y284991D01*
X-110005Y284982D01*
X-111000D01*
X-131000Y284982D01*
X-131133Y284991D01*
X-131264Y285017D01*
X-131390Y285059D01*
X-131509Y285118D01*
X-131620Y285192D01*
X-131720Y285280D01*
X-131808Y285380D01*
X-131882Y285491D01*
X-131941Y285610D01*
X-131983Y285737D01*
X-132009Y285867D01*
X-132018Y286000D01*
Y296000D01*
X-132009Y296133D01*
X-131983Y296264D01*
X-131941Y296390D01*
X-131882Y296509D01*
X-131808Y296620D01*
X-131720Y296720D01*
X-131620Y296808D01*
X-131509Y296882D01*
X-131390Y296941D01*
X-131264Y296984D01*
X-131133Y297010D01*
X-131000Y297018D01*
X-111000Y297018D01*
D02*
G37*
G36*
X-109873Y333209D02*
X-109742Y333184D01*
X-109616Y333141D01*
X-107778Y332380D01*
X-107778Y332379D01*
X-107739Y332360D01*
X-107659Y332321D01*
X-107548Y332247D01*
X-107448Y332159D01*
X-107448Y332159D01*
X-106041Y330752D01*
X-105953Y330652D01*
X-105879Y330541D01*
X-105821Y330422D01*
X-105821Y330422D01*
X-105059Y328584D01*
X-105059Y328584D01*
X-105031Y328501D01*
X-105016Y328458D01*
X-104991Y328327D01*
X-104982Y328195D01*
Y328195D01*
D01*
Y326205D01*
X-104991Y326073D01*
X-105016Y325942D01*
X-105059Y325816D01*
X-105821Y323978D01*
X-105821Y323978D01*
X-105840Y323939D01*
X-105879Y323859D01*
X-105953Y323748D01*
X-106041Y323648D01*
X-106041Y323648D01*
X-107448Y322242D01*
X-107448Y322241D01*
X-107501Y322195D01*
X-107548Y322154D01*
X-107622Y322104D01*
X-107659Y322080D01*
X-107719Y322050D01*
X-107778Y322021D01*
X-107778Y322020D01*
X-109616Y321259D01*
X-109742Y321217D01*
X-109873Y321191D01*
X-110005Y321182D01*
X-110999D01*
X-111000Y321182D01*
X-131000Y321182D01*
X-131133Y321190D01*
X-131264Y321217D01*
X-131390Y321259D01*
X-131509Y321318D01*
X-131620Y321392D01*
X-131720Y321480D01*
X-131808Y321580D01*
X-131882Y321691D01*
X-131941Y321810D01*
X-131983Y321936D01*
X-132009Y322067D01*
X-132018Y322200D01*
Y332200D01*
X-132009Y332333D01*
X-131983Y332463D01*
X-131941Y332590D01*
X-131882Y332709D01*
X-131808Y332820D01*
X-131720Y332920D01*
X-131620Y333008D01*
X-131509Y333082D01*
X-131390Y333141D01*
X-131264Y333184D01*
X-131133Y333209D01*
X-131000Y333218D01*
X-111000Y333218D01*
X-110005D01*
X-109873Y333209D01*
D02*
G37*
G36*
X48683Y503110D02*
X48814Y503083D01*
X48940Y503041D01*
X49059Y502982D01*
X49170Y502908D01*
X49270Y502820D01*
X49358Y502720D01*
X49432Y502609D01*
X49491Y502490D01*
X49534Y502364D01*
X49559Y502233D01*
X49568Y502100D01*
Y482100D01*
Y481105D01*
X49559Y480973D01*
X49534Y480842D01*
X49491Y480716D01*
X48730Y478878D01*
X48730Y478878D01*
X48710Y478839D01*
X48671Y478759D01*
X48597Y478648D01*
X48509Y478548D01*
X48509Y478548D01*
X47102Y477141D01*
X47102Y477141D01*
X47049Y477094D01*
X47002Y477053D01*
X46928Y477004D01*
X46891Y476979D01*
X46831Y476950D01*
X46772Y476921D01*
X46772Y476920D01*
X44934Y476159D01*
X44808Y476116D01*
X44677Y476091D01*
X44545Y476082D01*
X42555D01*
X42422Y476091D01*
X42292Y476116D01*
X42166Y476159D01*
X40328Y476920D01*
X40328Y476921D01*
X40289Y476940D01*
X40209Y476979D01*
X40098Y477053D01*
X39998Y477141D01*
X39998Y477141D01*
X38591Y478548D01*
X38591Y478548D01*
X38544Y478601D01*
X38503Y478648D01*
X38454Y478722D01*
X38429Y478759D01*
X38400Y478819D01*
X38370Y478878D01*
X38370Y478878D01*
X37609Y480716D01*
X37566Y480842D01*
X37541Y480973D01*
X37532Y481105D01*
Y482100D01*
Y502100D01*
X37541Y502233D01*
X37566Y502364D01*
X37609Y502490D01*
X37668Y502609D01*
X37742Y502720D01*
X37830Y502820D01*
X37930Y502908D01*
X38041Y502982D01*
X38160Y503041D01*
X38286Y503083D01*
X38417Y503110D01*
X38550Y503118D01*
X48550D01*
X48683Y503110D01*
D02*
G37*
G36*
X68683D02*
X68814Y503083D01*
X68940Y503041D01*
X69059Y502982D01*
X69170Y502908D01*
X69270Y502820D01*
X69358Y502720D01*
X69432Y502609D01*
X69491Y502490D01*
X69534Y502364D01*
X69559Y502233D01*
X69568Y502100D01*
Y482100D01*
Y481105D01*
X69559Y480973D01*
X69534Y480842D01*
X69491Y480716D01*
X68730Y478878D01*
X68730Y478878D01*
X68710Y478839D01*
X68671Y478759D01*
X68597Y478648D01*
X68509Y478548D01*
X68509Y478548D01*
X67102Y477141D01*
X67102Y477141D01*
X67049Y477094D01*
X67002Y477053D01*
X66928Y477004D01*
X66891Y476979D01*
X66831Y476950D01*
X66772Y476921D01*
X66772Y476920D01*
X64934Y476159D01*
X64808Y476116D01*
X64677Y476091D01*
X64545Y476082D01*
X62555D01*
X62423Y476091D01*
X62292Y476116D01*
X62166Y476159D01*
X60328Y476920D01*
X60328Y476921D01*
X60289Y476940D01*
X60209Y476979D01*
X60098Y477053D01*
X59998Y477141D01*
X59998Y477141D01*
X58591Y478548D01*
X58591Y478548D01*
X58545Y478601D01*
X58503Y478648D01*
X58454Y478722D01*
X58429Y478759D01*
X58400Y478819D01*
X58370Y478878D01*
X58370Y478878D01*
X57609Y480716D01*
X57566Y480842D01*
X57541Y480973D01*
X57532Y481105D01*
Y482100D01*
Y502100D01*
X57541Y502233D01*
X57566Y502364D01*
X57609Y502490D01*
X57668Y502609D01*
X57742Y502720D01*
X57830Y502820D01*
X57930Y502908D01*
X58041Y502982D01*
X58160Y503041D01*
X58286Y503083D01*
X58417Y503110D01*
X58550Y503118D01*
X68550D01*
X68683Y503110D01*
D02*
G37*
G36*
X294433Y297010D02*
X294564Y296984D01*
X294690Y296941D01*
X294809Y296882D01*
X294920Y296808D01*
X295020Y296720D01*
X295108Y296620D01*
X295182Y296509D01*
X295241Y296390D01*
X295284Y296264D01*
X295310Y296133D01*
X295318Y296000D01*
Y286000D01*
X295310Y285867D01*
X295284Y285737D01*
X295241Y285610D01*
X295182Y285491D01*
X295108Y285380D01*
X295020Y285280D01*
X294920Y285192D01*
X294809Y285118D01*
X294690Y285059D01*
X294564Y285016D01*
X294433Y284991D01*
X294300Y284982D01*
X273305D01*
X273172Y284991D01*
X273042Y285016D01*
X272916Y285059D01*
X271078Y285821D01*
X271078Y285821D01*
X271019Y285850D01*
X270959Y285879D01*
X270922Y285904D01*
X270848Y285953D01*
X270801Y285994D01*
X270748Y286041D01*
X270748Y286041D01*
X269341Y287448D01*
X269341Y287448D01*
X269253Y287548D01*
X269179Y287659D01*
X269140Y287739D01*
X269121Y287778D01*
X269120Y287778D01*
X268359Y289616D01*
X268316Y289742D01*
X268291Y289872D01*
X268282Y290005D01*
Y291994D01*
X268291Y292127D01*
X268316Y292258D01*
X268359Y292384D01*
X269120Y294222D01*
X269121Y294222D01*
X269150Y294281D01*
X269179Y294341D01*
X269204Y294378D01*
X269253Y294452D01*
X269294Y294499D01*
X269341Y294552D01*
X269341Y294552D01*
X270748Y295959D01*
X270748Y295959D01*
X270848Y296047D01*
X270959Y296121D01*
X271039Y296160D01*
X271078Y296180D01*
X271078Y296180D01*
X272916Y296941D01*
X273042Y296984D01*
X273172Y297010D01*
X273305Y297018D01*
X294300D01*
X294433Y297010D01*
D02*
G37*
G36*
Y333209D02*
X294564Y333184D01*
X294690Y333141D01*
X294809Y333082D01*
X294920Y333008D01*
X295020Y332920D01*
X295108Y332820D01*
X295182Y332709D01*
X295241Y332590D01*
X295284Y332463D01*
X295310Y332333D01*
X295318Y332200D01*
Y322200D01*
X295310Y322067D01*
X295284Y321936D01*
X295241Y321810D01*
X295182Y321691D01*
X295108Y321580D01*
X295020Y321480D01*
X294920Y321392D01*
X294809Y321318D01*
X294690Y321259D01*
X294564Y321217D01*
X294433Y321190D01*
X294300Y321182D01*
X273305D01*
X273172Y321190D01*
X273042Y321217D01*
X272916Y321259D01*
X271078Y322020D01*
X271078Y322020D01*
X271019Y322050D01*
X270959Y322079D01*
X270922Y322104D01*
X270848Y322153D01*
X270801Y322195D01*
X270748Y322241D01*
X270748Y322241D01*
X269341Y323648D01*
X269341Y323648D01*
X269253Y323748D01*
X269179Y323859D01*
X269140Y323939D01*
X269121Y323978D01*
X269120Y323978D01*
X268359Y325816D01*
X268316Y325942D01*
X268291Y326073D01*
X268282Y326205D01*
Y328195D01*
X268291Y328327D01*
X268316Y328458D01*
X268359Y328584D01*
X269120Y330422D01*
X269121Y330422D01*
X269150Y330481D01*
X269179Y330541D01*
X269204Y330578D01*
X269253Y330652D01*
X269294Y330699D01*
X269341Y330752D01*
X269341Y330752D01*
X270748Y332159D01*
X270748Y332159D01*
X270848Y332247D01*
X270959Y332321D01*
X271039Y332360D01*
X271078Y332379D01*
X271078Y332379D01*
X272916Y333141D01*
X273042Y333184D01*
X273172Y333209D01*
X273305Y333218D01*
X294300D01*
X294433Y333209D01*
D02*
G37*
G36*
X88683Y503110D02*
X88813Y503083D01*
X88940Y503041D01*
X89059Y502982D01*
X89170Y502908D01*
X89270Y502820D01*
X89358Y502720D01*
X89432Y502609D01*
X89491Y502490D01*
X89534Y502364D01*
X89559Y502233D01*
X89568Y502100D01*
Y482100D01*
Y481105D01*
X89559Y480973D01*
X89534Y480842D01*
X89491Y480716D01*
X88729Y478878D01*
X88729Y478878D01*
X88710Y478839D01*
X88671Y478759D01*
X88596Y478648D01*
X88509Y478548D01*
X88509Y478548D01*
X87102Y477141D01*
X87102Y477141D01*
X87049Y477094D01*
X87002Y477053D01*
X86928Y477004D01*
X86891Y476979D01*
X86831Y476950D01*
X86772Y476921D01*
X86772Y476920D01*
X84934Y476159D01*
X84808Y476116D01*
X84677Y476091D01*
X84544Y476082D01*
X82555D01*
X82423Y476091D01*
X82292Y476116D01*
X82166Y476159D01*
X80328Y476920D01*
X80328Y476921D01*
X80289Y476940D01*
X80209Y476979D01*
X80098Y477053D01*
X79998Y477141D01*
X79998Y477141D01*
X78591Y478548D01*
X78591Y478548D01*
X78544Y478601D01*
X78503Y478648D01*
X78454Y478722D01*
X78429Y478759D01*
X78400Y478819D01*
X78370Y478878D01*
X78370Y478878D01*
X77609Y480716D01*
X77566Y480842D01*
X77540Y480973D01*
X77532Y481105D01*
Y482100D01*
Y502100D01*
X77540Y502233D01*
X77566Y502364D01*
X77609Y502490D01*
X77668Y502609D01*
X77742Y502720D01*
X77830Y502820D01*
X77930Y502908D01*
X78041Y502982D01*
X78160Y503041D01*
X78286Y503083D01*
X78417Y503110D01*
X78550Y503118D01*
X88550D01*
X88683Y503110D01*
D02*
G37*
G36*
X124883D02*
X125014Y503083D01*
X125140Y503041D01*
X125259Y502982D01*
X125370Y502908D01*
X125470Y502820D01*
X125558Y502720D01*
X125632Y502609D01*
X125691Y502490D01*
X125733Y502364D01*
X125759Y502233D01*
X125768Y502100D01*
Y482100D01*
Y481105D01*
X125759Y480973D01*
X125733Y480842D01*
X125691Y480716D01*
X124930Y478878D01*
X124930Y478878D01*
X124910Y478839D01*
X124871Y478759D01*
X124796Y478648D01*
X124709Y478548D01*
X124709Y478548D01*
X123302Y477141D01*
X123302Y477141D01*
X123249Y477094D01*
X123202Y477053D01*
X123128Y477004D01*
X123091Y476979D01*
X123031Y476950D01*
X122972Y476921D01*
X122972Y476920D01*
X121134Y476159D01*
X121008Y476116D01*
X120877Y476091D01*
X120744Y476082D01*
X118755D01*
X118623Y476091D01*
X118492Y476116D01*
X118366Y476159D01*
X116528Y476920D01*
X116528Y476921D01*
X116489Y476940D01*
X116409Y476979D01*
X116298Y477053D01*
X116198Y477141D01*
X116198Y477141D01*
X114791Y478548D01*
X114791Y478548D01*
X114744Y478601D01*
X114703Y478648D01*
X114654Y478722D01*
X114629Y478759D01*
X114600Y478819D01*
X114571Y478878D01*
X114571Y478878D01*
X113809Y480716D01*
X113766Y480842D01*
X113741Y480973D01*
X113732Y481105D01*
Y482100D01*
Y502100D01*
X113741Y502233D01*
X113766Y502364D01*
X113809Y502490D01*
X113868Y502609D01*
X113942Y502720D01*
X114030Y502820D01*
X114130Y502908D01*
X114241Y502982D01*
X114360Y503041D01*
X114487Y503083D01*
X114617Y503110D01*
X114750Y503118D01*
X124750D01*
X124883Y503110D01*
D02*
G37*
D124*
X189650Y183100D02*
D03*
X220491Y219093D02*
D03*
X149750Y487100D02*
D03*
X13550D02*
D03*
X-116000Y221000D02*
D03*
Y357200D02*
D03*
X13550Y14950D02*
D03*
X149750D02*
D03*
X279300Y221000D02*
D03*
Y357200D02*
D03*
X107394Y94462D02*
D03*
X31650Y59100D02*
D03*
X81650D02*
D03*
X131650D02*
D03*
D125*
X43550Y502100D02*
D03*
X83550D02*
D03*
X119750D02*
D03*
X63550D02*
D03*
X-131000Y271000D02*
D03*
Y327200D02*
D03*
Y291000D02*
D03*
Y251000D02*
D03*
X63550Y-50D02*
D03*
X119750D02*
D03*
X83550D02*
D03*
X43550D02*
D03*
X294300Y271000D02*
D03*
Y327200D02*
D03*
Y291000D02*
D03*
Y251000D02*
D03*
D126*
X167178Y266572D02*
D03*
X156178Y266628D02*
D03*
X156122Y255628D02*
D03*
X167122Y255572D02*
D03*
D132*
X-48113Y221396D02*
D03*
X-81114D02*
D03*
X-48113Y266396D02*
D03*
X-81114D02*
D03*
X-48113Y311396D02*
D03*
X-81114D02*
D03*
X-48113Y356396D02*
D03*
X-81114D02*
D03*
M02*
