G04*
G04 #@! TF.GenerationSoftware,Altium Limited,Altium Designer,23.8.1 (32)*
G04*
G04 Layer_Physical_Order=1*
G04 Layer_Color=255*
%FSLAX44Y44*%
%MOMM*%
G71*
G04*
G04 #@! TF.SameCoordinates,1253C11B-B4F6-43D5-8584-102BFB41548A*
G04*
G04*
G04 #@! TF.FilePolarity,Positive*
G04*
G01*
G75*
%ADD13C,0.2540*%
G04:AMPARAMS|DCode=16|XSize=1.25mm|YSize=1.1mm|CornerRadius=0mm|HoleSize=0mm|Usage=FLASHONLY|Rotation=93.600|XOffset=0mm|YOffset=0mm|HoleType=Round|Shape=Rectangle|*
%AMROTATEDRECTD16*
4,1,4,0.5882,-0.5892,-0.5097,-0.6583,-0.5882,0.5892,0.5097,0.6583,0.5882,-0.5892,0.0*
%
%ADD16ROTATEDRECTD16*%

G04:AMPARAMS|DCode=17|XSize=1.25mm|YSize=1.1mm|CornerRadius=0.275mm|HoleSize=0mm|Usage=FLASHONLY|Rotation=93.600|XOffset=0mm|YOffset=0mm|HoleType=Round|Shape=RoundedRectangle|*
%AMROUNDEDRECTD17*
21,1,1.2500,0.5500,0,0,93.6*
21,1,0.7000,1.1000,0,0,93.6*
1,1,0.5500,0.2525,0.3666*
1,1,0.5500,0.2964,-0.3320*
1,1,0.5500,-0.2525,-0.3666*
1,1,0.5500,-0.2964,0.3320*
%
%ADD17ROUNDEDRECTD17*%
G04:AMPARAMS|DCode=18|XSize=1.25mm|YSize=1.1mm|CornerRadius=0mm|HoleSize=0mm|Usage=FLASHONLY|Rotation=165.600|XOffset=0mm|YOffset=0mm|HoleType=Round|Shape=Rectangle|*
%AMROTATEDRECTD18*
4,1,4,0.7421,0.3773,0.4686,-0.6882,-0.7421,-0.3773,-0.4686,0.6882,0.7421,0.3773,0.0*
%
%ADD18ROTATEDRECTD18*%

G04:AMPARAMS|DCode=19|XSize=1.25mm|YSize=1.1mm|CornerRadius=0.275mm|HoleSize=0mm|Usage=FLASHONLY|Rotation=165.600|XOffset=0mm|YOffset=0mm|HoleType=Round|Shape=RoundedRectangle|*
%AMROUNDEDRECTD19*
21,1,1.2500,0.5500,0,0,165.6*
21,1,0.7000,1.1000,0,0,165.6*
1,1,0.5500,-0.2706,0.3534*
1,1,0.5500,0.4074,0.1793*
1,1,0.5500,0.2706,-0.3534*
1,1,0.5500,-0.4074,-0.1793*
%
%ADD19ROUNDEDRECTD19*%
G04:AMPARAMS|DCode=20|XSize=1.25mm|YSize=1.1mm|CornerRadius=0mm|HoleSize=0mm|Usage=FLASHONLY|Rotation=352.800|XOffset=0mm|YOffset=0mm|HoleType=Round|Shape=Rectangle|*
%AMROTATEDRECTD20*
4,1,4,-0.6890,-0.4673,-0.5511,0.6240,0.6890,0.4673,0.5511,-0.6240,-0.6890,-0.4673,0.0*
%
%ADD20ROTATEDRECTD20*%

G04:AMPARAMS|DCode=21|XSize=1.25mm|YSize=1.1mm|CornerRadius=0.275mm|HoleSize=0mm|Usage=FLASHONLY|Rotation=352.800|XOffset=0mm|YOffset=0mm|HoleType=Round|Shape=RoundedRectangle|*
%AMROUNDEDRECTD21*
21,1,1.2500,0.5500,0,0,352.8*
21,1,0.7000,1.1000,0,0,352.8*
1,1,0.5500,0.3128,-0.3167*
1,1,0.5500,-0.3817,-0.2290*
1,1,0.5500,-0.3128,0.3167*
1,1,0.5500,0.3817,0.2290*
%
%ADD21ROUNDEDRECTD21*%
G04:AMPARAMS|DCode=22|XSize=1.25mm|YSize=1.1mm|CornerRadius=0.275mm|HoleSize=0mm|Usage=FLASHONLY|Rotation=194.400|XOffset=0mm|YOffset=0mm|HoleType=Round|Shape=RoundedRectangle|*
%AMROUNDEDRECTD22*
21,1,1.2500,0.5500,0,0,194.4*
21,1,0.7000,1.1000,0,0,194.4*
1,1,0.5500,-0.4074,0.1793*
1,1,0.5500,0.2706,0.3534*
1,1,0.5500,0.4074,-0.1793*
1,1,0.5500,-0.2706,-0.3534*
%
%ADD22ROUNDEDRECTD22*%
G04:AMPARAMS|DCode=23|XSize=1.25mm|YSize=1.1mm|CornerRadius=0mm|HoleSize=0mm|Usage=FLASHONLY|Rotation=194.400|XOffset=0mm|YOffset=0mm|HoleType=Round|Shape=Rectangle|*
%AMROTATEDRECTD23*
4,1,4,0.4686,0.6882,0.7421,-0.3773,-0.4686,-0.6882,-0.7421,0.3773,0.4686,0.6882,0.0*
%
%ADD23ROTATEDRECTD23*%

G04:AMPARAMS|DCode=24|XSize=1.25mm|YSize=1.1mm|CornerRadius=0.275mm|HoleSize=0mm|Usage=FLASHONLY|Rotation=208.800|XOffset=0mm|YOffset=0mm|HoleType=Round|Shape=RoundedRectangle|*
%AMROUNDEDRECTD24*
21,1,1.2500,0.5500,0,0,208.8*
21,1,0.7000,1.1000,0,0,208.8*
1,1,0.5500,-0.4392,0.0724*
1,1,0.5500,0.1742,0.4096*
1,1,0.5500,0.4392,-0.0724*
1,1,0.5500,-0.1742,-0.4096*
%
%ADD24ROUNDEDRECTD24*%
G04:AMPARAMS|DCode=25|XSize=1.25mm|YSize=1.1mm|CornerRadius=0mm|HoleSize=0mm|Usage=FLASHONLY|Rotation=208.800|XOffset=0mm|YOffset=0mm|HoleType=Round|Shape=Rectangle|*
%AMROTATEDRECTD25*
4,1,4,0.2827,0.7831,0.8127,-0.1809,-0.2827,-0.7831,-0.8127,0.1809,0.2827,0.7831,0.0*
%
%ADD25ROTATEDRECTD25*%

G04:AMPARAMS|DCode=26|XSize=1.25mm|YSize=1.1mm|CornerRadius=0.275mm|HoleSize=0mm|Usage=FLASHONLY|Rotation=223.200|XOffset=0mm|YOffset=0mm|HoleType=Round|Shape=RoundedRectangle|*
%AMROUNDEDRECTD26*
21,1,1.2500,0.5500,0,0,223.2*
21,1,0.7000,1.1000,0,0,223.2*
1,1,0.5500,-0.4434,-0.0391*
1,1,0.5500,0.0669,0.4401*
1,1,0.5500,0.4434,0.0391*
1,1,0.5500,-0.0669,-0.4401*
%
%ADD26ROUNDEDRECTD26*%
G04:AMPARAMS|DCode=27|XSize=1.25mm|YSize=1.1mm|CornerRadius=0mm|HoleSize=0mm|Usage=FLASHONLY|Rotation=223.200|XOffset=0mm|YOffset=0mm|HoleType=Round|Shape=Rectangle|*
%AMROTATEDRECTD27*
4,1,4,0.0791,0.8288,0.8321,0.0269,-0.0791,-0.8288,-0.8321,-0.0269,0.0791,0.8288,0.0*
%
%ADD27ROTATEDRECTD27*%

G04:AMPARAMS|DCode=28|XSize=1.25mm|YSize=1.1mm|CornerRadius=0.275mm|HoleSize=0mm|Usage=FLASHONLY|Rotation=237.600|XOffset=0mm|YOffset=0mm|HoleType=Round|Shape=RoundedRectangle|*
%AMROUNDEDRECTD28*
21,1,1.2500,0.5500,0,0,237.6*
21,1,0.7000,1.1000,0,0,237.6*
1,1,0.5500,-0.4197,-0.1482*
1,1,0.5500,-0.0447,0.4429*
1,1,0.5500,0.4197,0.1482*
1,1,0.5500,0.0447,-0.4429*
%
%ADD28ROUNDEDRECTD28*%
G04:AMPARAMS|DCode=29|XSize=1.25mm|YSize=1.1mm|CornerRadius=0mm|HoleSize=0mm|Usage=FLASHONLY|Rotation=237.600|XOffset=0mm|YOffset=0mm|HoleType=Round|Shape=Rectangle|*
%AMROTATEDRECTD29*
4,1,4,-0.1295,0.8224,0.7993,0.2330,0.1295,-0.8224,-0.7993,-0.2330,-0.1295,0.8224,0.0*
%
%ADD29ROTATEDRECTD29*%

G04:AMPARAMS|DCode=30|XSize=1.25mm|YSize=1.1mm|CornerRadius=0.275mm|HoleSize=0mm|Usage=FLASHONLY|Rotation=252.000|XOffset=0mm|YOffset=0mm|HoleType=Round|Shape=RoundedRectangle|*
%AMROUNDEDRECTD30*
21,1,1.2500,0.5500,0,0,252.0*
21,1,0.7000,1.1000,0,0,252.0*
1,1,0.5500,-0.3697,-0.2479*
1,1,0.5500,-0.1534,0.4178*
1,1,0.5500,0.3697,0.2479*
1,1,0.5500,0.1534,-0.4178*
%
%ADD30ROUNDEDRECTD30*%
G04:AMPARAMS|DCode=31|XSize=1.25mm|YSize=1.1mm|CornerRadius=0mm|HoleSize=0mm|Usage=FLASHONLY|Rotation=252.000|XOffset=0mm|YOffset=0mm|HoleType=Round|Shape=Rectangle|*
%AMROTATEDRECTD31*
4,1,4,-0.3300,0.7644,0.7162,0.4245,0.3300,-0.7644,-0.7162,-0.4245,-0.3300,0.7644,0.0*
%
%ADD31ROTATEDRECTD31*%

G04:AMPARAMS|DCode=32|XSize=1.25mm|YSize=1.1mm|CornerRadius=0.275mm|HoleSize=0mm|Usage=FLASHONLY|Rotation=266.400|XOffset=0mm|YOffset=0mm|HoleType=Round|Shape=RoundedRectangle|*
%AMROUNDEDRECTD32*
21,1,1.2500,0.5500,0,0,266.4*
21,1,0.7000,1.1000,0,0,266.4*
1,1,0.5500,-0.2964,-0.3320*
1,1,0.5500,-0.2525,0.3666*
1,1,0.5500,0.2964,0.3320*
1,1,0.5500,0.2525,-0.3666*
%
%ADD32ROUNDEDRECTD32*%
G04:AMPARAMS|DCode=33|XSize=1.25mm|YSize=1.1mm|CornerRadius=0mm|HoleSize=0mm|Usage=FLASHONLY|Rotation=266.400|XOffset=0mm|YOffset=0mm|HoleType=Round|Shape=Rectangle|*
%AMROTATEDRECTD33*
4,1,4,-0.5097,0.6583,0.5882,0.5892,0.5097,-0.6583,-0.5882,-0.5892,-0.5097,0.6583,0.0*
%
%ADD33ROTATEDRECTD33*%

G04:AMPARAMS|DCode=34|XSize=1.25mm|YSize=1.1mm|CornerRadius=0.275mm|HoleSize=0mm|Usage=FLASHONLY|Rotation=280.800|XOffset=0mm|YOffset=0mm|HoleType=Round|Shape=RoundedRectangle|*
%AMROUNDEDRECTD34*
21,1,1.2500,0.5500,0,0,280.8*
21,1,0.7000,1.1000,0,0,280.8*
1,1,0.5500,-0.2046,-0.3953*
1,1,0.5500,-0.3357,0.2923*
1,1,0.5500,0.2046,0.3953*
1,1,0.5500,0.3357,-0.2923*
%
%ADD34ROUNDEDRECTD34*%
G04:AMPARAMS|DCode=35|XSize=1.25mm|YSize=1.1mm|CornerRadius=0mm|HoleSize=0mm|Usage=FLASHONLY|Rotation=280.800|XOffset=0mm|YOffset=0mm|HoleType=Round|Shape=Rectangle|*
%AMROTATEDRECTD35*
4,1,4,-0.6574,0.5109,0.4232,0.7170,0.6574,-0.5109,-0.4232,-0.7170,-0.6574,0.5109,0.0*
%
%ADD35ROTATEDRECTD35*%

G04:AMPARAMS|DCode=36|XSize=1.25mm|YSize=1.1mm|CornerRadius=0.275mm|HoleSize=0mm|Usage=FLASHONLY|Rotation=295.200|XOffset=0mm|YOffset=0mm|HoleType=Round|Shape=RoundedRectangle|*
%AMROUNDEDRECTD36*
21,1,1.2500,0.5500,0,0,295.2*
21,1,0.7000,1.1000,0,0,295.2*
1,1,0.5500,-0.0998,-0.4338*
1,1,0.5500,-0.3979,0.1996*
1,1,0.5500,0.0998,0.4338*
1,1,0.5500,0.3979,-0.1996*
%
%ADD36ROUNDEDRECTD36*%
G04:AMPARAMS|DCode=37|XSize=1.25mm|YSize=1.1mm|CornerRadius=0mm|HoleSize=0mm|Usage=FLASHONLY|Rotation=295.200|XOffset=0mm|YOffset=0mm|HoleType=Round|Shape=Rectangle|*
%AMROTATEDRECTD37*
4,1,4,-0.7638,0.3313,0.2315,0.7997,0.7638,-0.3313,-0.2315,-0.7997,-0.7638,0.3313,0.0*
%
%ADD37ROTATEDRECTD37*%

G04:AMPARAMS|DCode=38|XSize=1.25mm|YSize=1.1mm|CornerRadius=0.275mm|HoleSize=0mm|Usage=FLASHONLY|Rotation=309.600|XOffset=0mm|YOffset=0mm|HoleType=Round|Shape=RoundedRectangle|*
%AMROUNDEDRECTD38*
21,1,1.2500,0.5500,0,0,309.6*
21,1,0.7000,1.1000,0,0,309.6*
1,1,0.5500,0.0112,-0.4450*
1,1,0.5500,-0.4350,0.0944*
1,1,0.5500,-0.0112,0.4450*
1,1,0.5500,0.4350,-0.0944*
%
%ADD38ROUNDEDRECTD38*%
G04:AMPARAMS|DCode=39|XSize=1.25mm|YSize=1.1mm|CornerRadius=0mm|HoleSize=0mm|Usage=FLASHONLY|Rotation=309.600|XOffset=0mm|YOffset=0mm|HoleType=Round|Shape=Rectangle|*
%AMROTATEDRECTD39*
4,1,4,-0.8222,0.1310,0.0254,0.8322,0.8222,-0.1310,-0.0254,-0.8322,-0.8222,0.1310,0.0*
%
%ADD39ROTATEDRECTD39*%

G04:AMPARAMS|DCode=40|XSize=1.25mm|YSize=1.1mm|CornerRadius=0.275mm|HoleSize=0mm|Usage=FLASHONLY|Rotation=324.000|XOffset=0mm|YOffset=0mm|HoleType=Round|Shape=RoundedRectangle|*
%AMROUNDEDRECTD40*
21,1,1.2500,0.5500,0,0,324.0*
21,1,0.7000,1.1000,0,0,324.0*
1,1,0.5500,0.1215,-0.4282*
1,1,0.5500,-0.4448,-0.0168*
1,1,0.5500,-0.1215,0.4282*
1,1,0.5500,0.4448,0.0168*
%
%ADD40ROUNDEDRECTD40*%
G04:AMPARAMS|DCode=41|XSize=1.25mm|YSize=1.1mm|CornerRadius=0mm|HoleSize=0mm|Usage=FLASHONLY|Rotation=324.000|XOffset=0mm|YOffset=0mm|HoleType=Round|Shape=Rectangle|*
%AMROTATEDRECTD41*
4,1,4,-0.8289,-0.0776,-0.1824,0.8123,0.8289,0.0776,0.1824,-0.8123,-0.8289,-0.0776,0.0*
%
%ADD41ROTATEDRECTD41*%

G04:AMPARAMS|DCode=42|XSize=1.25mm|YSize=1.1mm|CornerRadius=0.275mm|HoleSize=0mm|Usage=FLASHONLY|Rotation=338.400|XOffset=0mm|YOffset=0mm|HoleType=Round|Shape=RoundedRectangle|*
%AMROUNDEDRECTD42*
21,1,1.2500,0.5500,0,0,338.4*
21,1,0.7000,1.1000,0,0,338.4*
1,1,0.5500,0.2242,-0.3845*
1,1,0.5500,-0.4267,-0.1269*
1,1,0.5500,-0.2242,0.3845*
1,1,0.5500,0.4267,0.1269*
%
%ADD42ROUNDEDRECTD42*%
G04:AMPARAMS|DCode=43|XSize=1.25mm|YSize=1.1mm|CornerRadius=0mm|HoleSize=0mm|Usage=FLASHONLY|Rotation=338.400|XOffset=0mm|YOffset=0mm|HoleType=Round|Shape=Rectangle|*
%AMROTATEDRECTD43*
4,1,4,-0.7836,-0.2813,-0.3786,0.7415,0.7836,0.2813,0.3786,-0.7415,-0.7836,-0.2813,0.0*
%
%ADD43ROTATEDRECTD43*%

G04:AMPARAMS|DCode=44|XSize=1.25mm|YSize=1.1mm|CornerRadius=0.275mm|HoleSize=0mm|Usage=FLASHONLY|Rotation=7.200|XOffset=0mm|YOffset=0mm|HoleType=Round|Shape=RoundedRectangle|*
%AMROUNDEDRECTD44*
21,1,1.2500,0.5500,0,0,7.2*
21,1,0.7000,1.1000,0,0,7.2*
1,1,0.5500,0.3817,-0.2290*
1,1,0.5500,-0.3128,-0.3167*
1,1,0.5500,-0.3817,0.2290*
1,1,0.5500,0.3128,0.3167*
%
%ADD44ROUNDEDRECTD44*%
G04:AMPARAMS|DCode=45|XSize=1.25mm|YSize=1.1mm|CornerRadius=0mm|HoleSize=0mm|Usage=FLASHONLY|Rotation=7.200|XOffset=0mm|YOffset=0mm|HoleType=Round|Shape=Rectangle|*
%AMROTATEDRECTD45*
4,1,4,-0.5511,-0.6240,-0.6890,0.4673,0.5511,0.6240,0.6890,-0.4673,-0.5511,-0.6240,0.0*
%
%ADD45ROTATEDRECTD45*%

G04:AMPARAMS|DCode=46|XSize=1.25mm|YSize=1.1mm|CornerRadius=0.275mm|HoleSize=0mm|Usage=FLASHONLY|Rotation=21.600|XOffset=0mm|YOffset=0mm|HoleType=Round|Shape=RoundedRectangle|*
%AMROUNDEDRECTD46*
21,1,1.2500,0.5500,0,0,21.6*
21,1,0.7000,1.1000,0,0,21.6*
1,1,0.5500,0.4267,-0.1269*
1,1,0.5500,-0.2242,-0.3845*
1,1,0.5500,-0.4267,0.1269*
1,1,0.5500,0.2242,0.3845*
%
%ADD46ROUNDEDRECTD46*%
G04:AMPARAMS|DCode=47|XSize=1.25mm|YSize=1.1mm|CornerRadius=0mm|HoleSize=0mm|Usage=FLASHONLY|Rotation=21.600|XOffset=0mm|YOffset=0mm|HoleType=Round|Shape=Rectangle|*
%AMROTATEDRECTD47*
4,1,4,-0.3786,-0.7415,-0.7836,0.2813,0.3786,0.7415,0.7836,-0.2813,-0.3786,-0.7415,0.0*
%
%ADD47ROTATEDRECTD47*%

G04:AMPARAMS|DCode=48|XSize=1.25mm|YSize=1.1mm|CornerRadius=0.275mm|HoleSize=0mm|Usage=FLASHONLY|Rotation=36.000|XOffset=0mm|YOffset=0mm|HoleType=Round|Shape=RoundedRectangle|*
%AMROUNDEDRECTD48*
21,1,1.2500,0.5500,0,0,36.0*
21,1,0.7000,1.1000,0,0,36.0*
1,1,0.5500,0.4448,-0.0168*
1,1,0.5500,-0.1215,-0.4282*
1,1,0.5500,-0.4448,0.0168*
1,1,0.5500,0.1215,0.4282*
%
%ADD48ROUNDEDRECTD48*%
G04:AMPARAMS|DCode=49|XSize=1.25mm|YSize=1.1mm|CornerRadius=0mm|HoleSize=0mm|Usage=FLASHONLY|Rotation=36.000|XOffset=0mm|YOffset=0mm|HoleType=Round|Shape=Rectangle|*
%AMROTATEDRECTD49*
4,1,4,-0.1824,-0.8123,-0.8289,0.0776,0.1824,0.8123,0.8289,-0.0776,-0.1824,-0.8123,0.0*
%
%ADD49ROTATEDRECTD49*%

G04:AMPARAMS|DCode=50|XSize=1.25mm|YSize=1.1mm|CornerRadius=0.275mm|HoleSize=0mm|Usage=FLASHONLY|Rotation=50.400|XOffset=0mm|YOffset=0mm|HoleType=Round|Shape=RoundedRectangle|*
%AMROUNDEDRECTD50*
21,1,1.2500,0.5500,0,0,50.4*
21,1,0.7000,1.1000,0,0,50.4*
1,1,0.5500,0.4350,0.0944*
1,1,0.5500,-0.0112,-0.4450*
1,1,0.5500,-0.4350,-0.0944*
1,1,0.5500,0.0112,0.4450*
%
%ADD50ROUNDEDRECTD50*%
G04:AMPARAMS|DCode=51|XSize=1.25mm|YSize=1.1mm|CornerRadius=0mm|HoleSize=0mm|Usage=FLASHONLY|Rotation=50.400|XOffset=0mm|YOffset=0mm|HoleType=Round|Shape=Rectangle|*
%AMROTATEDRECTD51*
4,1,4,0.0254,-0.8322,-0.8222,-0.1310,-0.0254,0.8322,0.8222,0.1310,0.0254,-0.8322,0.0*
%
%ADD51ROTATEDRECTD51*%

G04:AMPARAMS|DCode=52|XSize=1.25mm|YSize=1.1mm|CornerRadius=0.275mm|HoleSize=0mm|Usage=FLASHONLY|Rotation=64.800|XOffset=0mm|YOffset=0mm|HoleType=Round|Shape=RoundedRectangle|*
%AMROUNDEDRECTD52*
21,1,1.2500,0.5500,0,0,64.8*
21,1,0.7000,1.1000,0,0,64.8*
1,1,0.5500,0.3979,0.1996*
1,1,0.5500,0.0998,-0.4338*
1,1,0.5500,-0.3979,-0.1996*
1,1,0.5500,-0.0998,0.4338*
%
%ADD52ROUNDEDRECTD52*%
G04:AMPARAMS|DCode=53|XSize=1.25mm|YSize=1.1mm|CornerRadius=0mm|HoleSize=0mm|Usage=FLASHONLY|Rotation=64.800|XOffset=0mm|YOffset=0mm|HoleType=Round|Shape=Rectangle|*
%AMROTATEDRECTD53*
4,1,4,0.2315,-0.7997,-0.7638,-0.3313,-0.2315,0.7997,0.7638,0.3313,0.2315,-0.7997,0.0*
%
%ADD53ROTATEDRECTD53*%

G04:AMPARAMS|DCode=54|XSize=1.25mm|YSize=1.1mm|CornerRadius=0.275mm|HoleSize=0mm|Usage=FLASHONLY|Rotation=79.200|XOffset=0mm|YOffset=0mm|HoleType=Round|Shape=RoundedRectangle|*
%AMROUNDEDRECTD54*
21,1,1.2500,0.5500,0,0,79.2*
21,1,0.7000,1.1000,0,0,79.2*
1,1,0.5500,0.3357,0.2923*
1,1,0.5500,0.2046,-0.3953*
1,1,0.5500,-0.3357,-0.2923*
1,1,0.5500,-0.2046,0.3953*
%
%ADD54ROUNDEDRECTD54*%
G04:AMPARAMS|DCode=55|XSize=1.25mm|YSize=1.1mm|CornerRadius=0mm|HoleSize=0mm|Usage=FLASHONLY|Rotation=79.200|XOffset=0mm|YOffset=0mm|HoleType=Round|Shape=Rectangle|*
%AMROTATEDRECTD55*
4,1,4,0.4232,-0.7170,-0.6574,-0.5109,-0.4232,0.7170,0.6574,0.5109,0.4232,-0.7170,0.0*
%
%ADD55ROTATEDRECTD55*%

G04:AMPARAMS|DCode=56|XSize=1.25mm|YSize=1.1mm|CornerRadius=0.275mm|HoleSize=0mm|Usage=FLASHONLY|Rotation=108.000|XOffset=0mm|YOffset=0mm|HoleType=Round|Shape=RoundedRectangle|*
%AMROUNDEDRECTD56*
21,1,1.2500,0.5500,0,0,108.0*
21,1,0.7000,1.1000,0,0,108.0*
1,1,0.5500,0.1534,0.4178*
1,1,0.5500,0.3697,-0.2479*
1,1,0.5500,-0.1534,-0.4178*
1,1,0.5500,-0.3697,0.2479*
%
%ADD56ROUNDEDRECTD56*%
G04:AMPARAMS|DCode=57|XSize=1.25mm|YSize=1.1mm|CornerRadius=0mm|HoleSize=0mm|Usage=FLASHONLY|Rotation=108.000|XOffset=0mm|YOffset=0mm|HoleType=Round|Shape=Rectangle|*
%AMROTATEDRECTD57*
4,1,4,0.7162,-0.4245,-0.3300,-0.7644,-0.7162,0.4245,0.3300,0.7644,0.7162,-0.4245,0.0*
%
%ADD57ROTATEDRECTD57*%

G04:AMPARAMS|DCode=58|XSize=1.25mm|YSize=1.1mm|CornerRadius=0.275mm|HoleSize=0mm|Usage=FLASHONLY|Rotation=122.400|XOffset=0mm|YOffset=0mm|HoleType=Round|Shape=RoundedRectangle|*
%AMROUNDEDRECTD58*
21,1,1.2500,0.5500,0,0,122.4*
21,1,0.7000,1.1000,0,0,122.4*
1,1,0.5500,0.0447,0.4429*
1,1,0.5500,0.4197,-0.1482*
1,1,0.5500,-0.0447,-0.4429*
1,1,0.5500,-0.4197,0.1482*
%
%ADD58ROUNDEDRECTD58*%
G04:AMPARAMS|DCode=59|XSize=1.25mm|YSize=1.1mm|CornerRadius=0mm|HoleSize=0mm|Usage=FLASHONLY|Rotation=122.400|XOffset=0mm|YOffset=0mm|HoleType=Round|Shape=Rectangle|*
%AMROTATEDRECTD59*
4,1,4,0.7993,-0.2330,-0.1295,-0.8224,-0.7993,0.2330,0.1295,0.8224,0.7993,-0.2330,0.0*
%
%ADD59ROTATEDRECTD59*%

G04:AMPARAMS|DCode=60|XSize=1.25mm|YSize=1.1mm|CornerRadius=0.275mm|HoleSize=0mm|Usage=FLASHONLY|Rotation=136.800|XOffset=0mm|YOffset=0mm|HoleType=Round|Shape=RoundedRectangle|*
%AMROUNDEDRECTD60*
21,1,1.2500,0.5500,0,0,136.8*
21,1,0.7000,1.1000,0,0,136.8*
1,1,0.5500,-0.0669,0.4401*
1,1,0.5500,0.4434,-0.0391*
1,1,0.5500,0.0669,-0.4401*
1,1,0.5500,-0.4434,0.0391*
%
%ADD60ROUNDEDRECTD60*%
G04:AMPARAMS|DCode=61|XSize=1.25mm|YSize=1.1mm|CornerRadius=0mm|HoleSize=0mm|Usage=FLASHONLY|Rotation=136.800|XOffset=0mm|YOffset=0mm|HoleType=Round|Shape=Rectangle|*
%AMROTATEDRECTD61*
4,1,4,0.8321,-0.0269,0.0791,-0.8288,-0.8321,0.0269,-0.0791,0.8288,0.8321,-0.0269,0.0*
%
%ADD61ROTATEDRECTD61*%

G04:AMPARAMS|DCode=62|XSize=1.25mm|YSize=1.1mm|CornerRadius=0.275mm|HoleSize=0mm|Usage=FLASHONLY|Rotation=151.200|XOffset=0mm|YOffset=0mm|HoleType=Round|Shape=RoundedRectangle|*
%AMROUNDEDRECTD62*
21,1,1.2500,0.5500,0,0,151.2*
21,1,0.7000,1.1000,0,0,151.2*
1,1,0.5500,-0.1742,0.4096*
1,1,0.5500,0.4392,0.0724*
1,1,0.5500,0.1742,-0.4096*
1,1,0.5500,-0.4392,-0.0724*
%
%ADD62ROUNDEDRECTD62*%
G04:AMPARAMS|DCode=63|XSize=1.25mm|YSize=1.1mm|CornerRadius=0mm|HoleSize=0mm|Usage=FLASHONLY|Rotation=151.200|XOffset=0mm|YOffset=0mm|HoleType=Round|Shape=Rectangle|*
%AMROTATEDRECTD63*
4,1,4,0.8127,0.1809,0.2827,-0.7831,-0.8127,-0.1809,-0.2827,0.7831,0.8127,0.1809,0.0*
%
%ADD63ROTATEDRECTD63*%

G04:AMPARAMS|DCode=64|XSize=1.25mm|YSize=1.1mm|CornerRadius=0.275mm|HoleSize=0mm|Usage=FLASHONLY|Rotation=180.000|XOffset=0mm|YOffset=0mm|HoleType=Round|Shape=RoundedRectangle|*
%AMROUNDEDRECTD64*
21,1,1.2500,0.5500,0,0,180.0*
21,1,0.7000,1.1000,0,0,180.0*
1,1,0.5500,-0.3500,0.2750*
1,1,0.5500,0.3500,0.2750*
1,1,0.5500,0.3500,-0.2750*
1,1,0.5500,-0.3500,-0.2750*
%
%ADD64ROUNDEDRECTD64*%
%ADD65R,1.2500X1.1000*%
%ADD66R,0.8000X0.8000*%
%ADD67P,3.6062X4X224.709*%
G04:AMPARAMS|DCode=68|XSize=0.25mm|YSize=0.8mm|CornerRadius=0mm|HoleSize=0mm|Usage=FLASHONLY|Rotation=179.709|XOffset=0mm|YOffset=0mm|HoleType=Round|Shape=Rectangle|*
%AMROTATEDRECTD68*
4,1,4,0.1270,0.3994,0.1230,-0.4006,-0.1270,-0.3994,-0.1230,0.4006,0.1270,0.3994,0.0*
%
%ADD68ROTATEDRECTD68*%

G04:AMPARAMS|DCode=69|XSize=0.25mm|YSize=0.8mm|CornerRadius=0mm|HoleSize=0mm|Usage=FLASHONLY|Rotation=269.709|XOffset=0mm|YOffset=0mm|HoleType=Round|Shape=Rectangle|*
%AMROTATEDRECTD69*
4,1,4,-0.3994,0.1270,0.4006,0.1230,0.3994,-0.1270,-0.4006,-0.1230,-0.3994,0.1270,0.0*
%
%ADD69ROTATEDRECTD69*%

%ADD127C,0.5000*%
%ADD128C,2.0000*%
%ADD129C,1.0000*%
%ADD130C,0.6000*%
G36*
X88550Y482100D02*
Y481105D01*
X87789Y479268D01*
X86382Y477861D01*
X84544Y477100D01*
X82555D01*
X80718Y477861D01*
X79311Y479268D01*
X78550Y481105D01*
Y482100D01*
Y502100D01*
X88550D01*
Y482100D01*
D02*
G37*
G36*
X68550D02*
Y481105D01*
X67789Y479268D01*
X66382Y477861D01*
X64545Y477100D01*
X62555D01*
X60718Y477861D01*
X59311Y479268D01*
X58550Y481105D01*
Y482100D01*
Y502100D01*
X68550D01*
Y482100D01*
D02*
G37*
G36*
X48550D02*
Y481105D01*
X47789Y479268D01*
X46382Y477861D01*
X44545Y477100D01*
X42555D01*
X40718Y477861D01*
X39311Y479268D01*
X38550Y481105D01*
Y482100D01*
Y502100D01*
X48550D01*
Y482100D01*
D02*
G37*
G36*
X124750Y499041D02*
X143893D01*
X144233Y497771D01*
X142382Y496702D01*
X140148Y494468D01*
X138568Y491732D01*
X137750Y488680D01*
Y485520D01*
X138568Y482468D01*
X140148Y479732D01*
X142382Y477498D01*
X145118Y475918D01*
X148170Y475100D01*
X151330D01*
X154382Y475918D01*
X157118Y477498D01*
X159352Y479732D01*
X160932Y482468D01*
X161750Y485520D01*
Y488680D01*
X160932Y491732D01*
X159352Y494468D01*
X157364Y496456D01*
X157673Y497501D01*
X157821Y497714D01*
X158600Y497691D01*
X162398Y496118D01*
X166005Y493908D01*
X169221Y491161D01*
X171968Y487944D01*
X174178Y484338D01*
X175797Y480430D01*
X176785Y476317D01*
X177084Y472513D01*
X176977Y471975D01*
X176977Y471975D01*
Y447012D01*
X176944Y446848D01*
X177069Y446218D01*
X175979Y445358D01*
X146195Y461096D01*
X146184Y461099D01*
X146176Y461106D01*
X146169Y461109D01*
X146074Y461137D01*
X145717Y461375D01*
X144605Y461596D01*
X144233Y461724D01*
X108534Y466520D01*
X108044Y466489D01*
X107553Y466506D01*
X96955Y464775D01*
X96507Y464608D01*
X96044Y464488D01*
X95903Y464381D01*
X95737Y464319D01*
X95538Y464134D01*
X90341Y464461D01*
X88468Y464210D01*
X86834Y463261D01*
X85688Y461758D01*
X85203Y459932D01*
X84936Y455689D01*
X58445Y454022D01*
X57648Y458198D01*
X56939Y459950D01*
X55613Y461297D01*
X53873Y462033D01*
X51983Y462048D01*
X46581Y461018D01*
X44829Y460308D01*
X43483Y458983D01*
X42746Y457242D01*
X42731Y455353D01*
X43527Y451177D01*
X18283Y442974D01*
X16473Y446821D01*
X15350Y448341D01*
X13731Y449316D01*
X11862Y449597D01*
X10028Y449141D01*
X5052Y446799D01*
X3532Y445676D01*
X2557Y444058D01*
X2276Y442189D01*
X2732Y440355D01*
X4542Y436508D01*
X-17870Y422285D01*
X-20580Y425561D01*
X-22045Y426754D01*
X-23856Y427295D01*
X-25735Y427103D01*
X-27399Y426206D01*
X-31636Y422700D01*
X-32829Y421234D01*
X-33371Y419424D01*
X-33178Y417544D01*
X-32281Y415881D01*
X-29571Y412605D01*
X-47742Y393256D01*
X-51181Y395755D01*
X-52897Y396546D01*
X-54785Y396620D01*
X-56558Y395966D01*
X-57946Y394683D01*
X-61178Y390233D01*
X-61970Y388517D01*
X-62044Y386629D01*
X-61390Y384856D01*
X-60107Y383469D01*
X-54444Y379354D01*
X-52728Y378563D01*
X-50840Y378489D01*
X-49067Y379143D01*
X-47679Y380426D01*
X-44446Y384875D01*
X-43655Y386591D01*
X-43603Y387922D01*
X-23988Y408810D01*
X-22663Y408946D01*
X-21000Y409843D01*
X-16762Y413349D01*
X-15569Y414814D01*
X-15188Y416090D01*
X9006Y431444D01*
X10323Y431246D01*
X12156Y431701D01*
X17133Y434043D01*
X18653Y435166D01*
X19340Y436307D01*
X46592Y445161D01*
X47818Y444642D01*
X49707Y444627D01*
X55110Y445658D01*
X56861Y446367D01*
X57810Y447301D01*
X66948Y447876D01*
X67295Y447115D01*
X67361Y446629D01*
X66061Y445330D01*
X65300Y443492D01*
Y441503D01*
X66061Y439665D01*
X66966Y438760D01*
Y423637D01*
X66061Y422732D01*
X65300Y420895D01*
Y418905D01*
X66061Y417068D01*
X67468Y415661D01*
X69305Y414900D01*
X71295D01*
X73132Y415661D01*
X74539Y417068D01*
X75196Y418654D01*
X76466Y418402D01*
Y416037D01*
X75561Y415132D01*
X74800Y413295D01*
Y411305D01*
X75561Y409468D01*
X76968Y408061D01*
X78805Y407300D01*
X80795D01*
X82632Y408061D01*
X84039Y409468D01*
X84800Y411305D01*
Y413295D01*
X84039Y415132D01*
X83134Y416037D01*
Y423815D01*
X84060Y424684D01*
X87240Y424484D01*
X85908Y403305D01*
X84759Y402156D01*
X83998Y400319D01*
Y398330D01*
X84759Y396492D01*
X86166Y395085D01*
X88004Y394324D01*
X89993D01*
X91830Y395085D01*
X93237Y396492D01*
X93998Y398330D01*
Y400319D01*
X93237Y402156D01*
X92560Y402834D01*
X93896Y424065D01*
X98053Y423804D01*
X99089Y440271D01*
X85083Y441152D01*
X84331Y442472D01*
X84800Y443605D01*
Y445595D01*
X84039Y447432D01*
X83807Y447664D01*
X84299Y448968D01*
X86408Y449100D01*
X87466Y448293D01*
X89293Y447808D01*
X94782Y447463D01*
X96655Y447714D01*
X98289Y448663D01*
X99436Y450166D01*
X99920Y451992D01*
X100334Y458571D01*
X108138Y459845D01*
X128459Y457115D01*
X128823Y455784D01*
X128403Y455454D01*
X127480Y453805D01*
X125317Y447147D01*
X125095Y445271D01*
X125608Y443452D01*
X126777Y441968D01*
X128426Y441045D01*
X133657Y439345D01*
X135534Y439123D01*
X136815Y439485D01*
X162742Y427284D01*
X163281Y426066D01*
X164648Y424762D01*
X169292Y421815D01*
X171054Y421133D01*
X172385Y421165D01*
X194464Y402900D01*
X194682Y401586D01*
X195682Y399983D01*
X199447Y395974D01*
X200985Y394875D01*
X202282Y394574D01*
X219125Y371393D01*
X219010Y370066D01*
X219579Y368264D01*
X222229Y363445D01*
X223445Y361998D01*
X224627Y361384D01*
X235175Y334742D01*
X234734Y333486D01*
X234838Y331599D01*
X236205Y326272D01*
X237023Y324568D01*
X237130Y324473D01*
Y319447D01*
X234456Y316773D01*
X233176D01*
X231339Y316012D01*
X229932Y314605D01*
X229171Y312767D01*
Y310778D01*
X229932Y308941D01*
X231339Y307534D01*
X233176Y306773D01*
X235165D01*
X237003Y307534D01*
X238410Y308941D01*
X239171Y310778D01*
Y312058D01*
X242822Y315709D01*
X243545Y316790D01*
X243798Y318066D01*
Y323221D01*
X248881Y324526D01*
X250584Y325344D01*
X251845Y326752D01*
X252471Y328535D01*
X252367Y330421D01*
X251000Y335749D01*
X250182Y337452D01*
X248774Y338713D01*
X246991Y339339D01*
X245104Y339235D01*
X240986Y338178D01*
X231215Y362858D01*
X234940Y364906D01*
X236243Y366001D01*
X237627Y365963D01*
X243762Y350625D01*
X243248Y349383D01*
Y347393D01*
X244009Y345556D01*
X245415Y344149D01*
X247253Y343388D01*
X249242D01*
X251080Y344149D01*
X252486Y345556D01*
X253248Y347393D01*
Y349383D01*
X252486Y351220D01*
X251080Y352627D01*
X249957Y353092D01*
X239540Y379134D01*
X239454Y379349D01*
X239483Y379386D01*
X239483Y379386D01*
X239473Y379434D01*
X238856Y380428D01*
X238853Y380433D01*
X238799Y380555D01*
X238181Y381430D01*
X222912Y403062D01*
X223926Y403827D01*
X228058Y398700D01*
X235504Y387976D01*
X236689Y385979D01*
X236754Y386020D01*
X237137Y385447D01*
X238129Y384784D01*
X239300Y384552D01*
X263038D01*
X263046Y384552D01*
X264299Y384551D01*
X265535Y384469D01*
X268516Y384235D01*
X272629Y383247D01*
X276537Y381628D01*
X280144Y379418D01*
X283360Y376671D01*
X286107Y373455D01*
X288318Y369848D01*
X289890Y366052D01*
X289910Y365274D01*
X289718Y365139D01*
X288651Y364820D01*
X286668Y366802D01*
X283932Y368382D01*
X280880Y369200D01*
X277720D01*
X274668Y368382D01*
X271932Y366802D01*
X269698Y364568D01*
X268118Y361832D01*
X267300Y358780D01*
Y355620D01*
X268118Y352568D01*
X269698Y349832D01*
X271932Y347598D01*
X274668Y346018D01*
X277720Y345200D01*
X280880D01*
X283932Y346018D01*
X286668Y347598D01*
X288902Y349832D01*
X289971Y351682D01*
X291241Y351342D01*
Y332200D01*
X294300D01*
Y322200D01*
X291241D01*
Y298039D01*
X273305D01*
X272525Y297884D01*
X270687Y297123D01*
X270026Y296681D01*
X268619Y295274D01*
X268177Y294613D01*
X267416Y292775D01*
X267261Y291994D01*
Y290005D01*
X267416Y289225D01*
X268177Y287387D01*
X268619Y286726D01*
X270026Y285319D01*
X270687Y284877D01*
X272525Y284116D01*
X273305Y283961D01*
X291241D01*
Y278039D01*
X273305D01*
X272525Y277884D01*
X270687Y277123D01*
X270026Y276681D01*
X268619Y275274D01*
X268177Y274613D01*
X267416Y272775D01*
X267261Y271995D01*
Y270005D01*
X267416Y269225D01*
X268177Y267387D01*
X268619Y266726D01*
X270026Y265319D01*
X270687Y264877D01*
X272525Y264116D01*
X273305Y263961D01*
X291241D01*
Y258039D01*
X273305D01*
X272525Y257884D01*
X270687Y257123D01*
X270026Y256681D01*
X268619Y255274D01*
X268177Y254613D01*
X267650Y253340D01*
X261884D01*
Y267555D01*
X262917Y268588D01*
X263678Y270425D01*
Y272414D01*
X262917Y274252D01*
X261510Y275659D01*
X259672Y276420D01*
X257683D01*
X255845Y275659D01*
X254439Y274252D01*
X253678Y272414D01*
Y270425D01*
X254439Y268588D01*
X255216Y267811D01*
Y249014D01*
Y240317D01*
X254999Y240100D01*
X254655D01*
X252818Y239339D01*
X251411Y237932D01*
X250650Y236094D01*
Y234105D01*
X251411Y232268D01*
X252818Y230861D01*
X254655Y230100D01*
X256645D01*
X258482Y230861D01*
X259889Y232268D01*
X260650Y234105D01*
Y236094D01*
X260584Y236255D01*
X260907Y236579D01*
X261630Y237660D01*
X261884Y238936D01*
Y246671D01*
X268674D01*
X270026Y245319D01*
X270687Y244877D01*
X272525Y244116D01*
X273305Y243961D01*
X291241D01*
Y226858D01*
X289971Y226518D01*
X288902Y228368D01*
X286668Y230602D01*
X283932Y232182D01*
X280880Y233000D01*
X277720D01*
X274668Y232182D01*
X271932Y230602D01*
X269698Y228368D01*
X268118Y225632D01*
X267300Y222580D01*
Y219420D01*
X268118Y216368D01*
X269698Y213632D01*
X271932Y211398D01*
X274668Y209818D01*
X277720Y209000D01*
X280880D01*
X283932Y209818D01*
X286668Y211398D01*
X288651Y213381D01*
X289716Y213062D01*
X289910Y212926D01*
X289890Y212148D01*
X288318Y208352D01*
X286107Y204745D01*
X283360Y201529D01*
X280144Y198782D01*
X276537Y196572D01*
X272629Y194953D01*
X268516Y193965D01*
X264353Y193638D01*
X264299Y193648D01*
X239299D01*
X238129Y193416D01*
X237137Y192753D01*
X236754Y192180D01*
X236689Y192221D01*
X235504Y190224D01*
X228058Y179500D01*
X219866Y169335D01*
X210970Y159780D01*
X201415Y150884D01*
X191250Y142692D01*
X180526Y135246D01*
X169298Y128584D01*
X162598Y125231D01*
X162641Y125142D01*
X161819Y124592D01*
X161686Y124393D01*
X161487Y124261D01*
X160824Y123268D01*
X160591Y122098D01*
Y118051D01*
Y22626D01*
X159594Y22359D01*
X159321Y22349D01*
X157118Y24552D01*
X154382Y26132D01*
X151330Y26950D01*
X148170D01*
X145118Y26132D01*
X142382Y24552D01*
X140148Y22318D01*
X138568Y19582D01*
X137750Y16530D01*
Y13370D01*
X138568Y10318D01*
X140148Y7582D01*
X142382Y5348D01*
X144233Y4279D01*
X143893Y3009D01*
X124750D01*
Y-50D01*
X114750D01*
Y3009D01*
X90589D01*
Y20945D01*
X90434Y21725D01*
X89673Y23563D01*
X89231Y24224D01*
X87824Y25631D01*
X87163Y26073D01*
X85325Y26834D01*
X84544Y26989D01*
X82555D01*
X81775Y26834D01*
X79937Y26073D01*
X79276Y25631D01*
X77869Y24224D01*
X77427Y23563D01*
X76666Y21725D01*
X76511Y20945D01*
Y3009D01*
X70589D01*
Y20945D01*
X70434Y21725D01*
X69673Y23563D01*
X69231Y24224D01*
X67824Y25631D01*
X67163Y26073D01*
X66486Y26353D01*
Y104221D01*
X71365Y109100D01*
X72645D01*
X74482Y109861D01*
X75889Y111268D01*
X76650Y113105D01*
Y115095D01*
X75889Y116932D01*
X74482Y118339D01*
X72645Y119100D01*
X70655D01*
X68818Y118339D01*
X67411Y116932D01*
X66650Y115095D01*
Y113815D01*
X60795Y107960D01*
X60072Y106878D01*
X59818Y105602D01*
Y77443D01*
X58548Y76917D01*
X34984Y100481D01*
Y115363D01*
X35889Y116268D01*
X36650Y118105D01*
Y120095D01*
X35889Y121932D01*
X34482Y123339D01*
X32645Y124100D01*
X30655D01*
X28818Y123339D01*
X27411Y121932D01*
X26650Y120095D01*
Y118105D01*
X27411Y116268D01*
X28316Y115363D01*
Y99100D01*
X28570Y97824D01*
X29293Y96742D01*
X53316Y72719D01*
Y40481D01*
X41192Y28358D01*
X40470Y27276D01*
X40257Y26205D01*
X39937Y26073D01*
X39276Y25631D01*
X37869Y24224D01*
X37427Y23563D01*
X36666Y21725D01*
X36511Y20945D01*
Y3009D01*
X19407D01*
X19067Y4279D01*
X20918Y5348D01*
X23152Y7582D01*
X24732Y10318D01*
X25550Y13370D01*
Y16530D01*
X24732Y19582D01*
X23152Y22318D01*
X20918Y24552D01*
X18182Y26132D01*
X15130Y26950D01*
X11970D01*
X8918Y26132D01*
X6182Y24552D01*
X3979Y22349D01*
X3706Y22359D01*
X2709Y22626D01*
Y117100D01*
Y122098D01*
X2476Y123268D01*
X1813Y124261D01*
X1614Y124393D01*
X1481Y124592D01*
X659Y125142D01*
X702Y125231D01*
X-5998Y128584D01*
X-17226Y135246D01*
X-27950Y142692D01*
X-38115Y150884D01*
X-47670Y159780D01*
X-56566Y169335D01*
X-64758Y179500D01*
X-72204Y190224D01*
X-73389Y192221D01*
X-73454Y192180D01*
X-73836Y192753D01*
X-74829Y193416D01*
X-75999Y193648D01*
X-100999D01*
X-101053Y193638D01*
X-105216Y193965D01*
X-109329Y194953D01*
X-113237Y196572D01*
X-116844Y198782D01*
X-120060Y201529D01*
X-122807Y204745D01*
X-125017Y208352D01*
X-126590Y212148D01*
X-126610Y212926D01*
X-126417Y213061D01*
X-125351Y213380D01*
X-123368Y211398D01*
X-120632Y209818D01*
X-117580Y209000D01*
X-114420D01*
X-111368Y209818D01*
X-108632Y211398D01*
X-106398Y213632D01*
X-104818Y216368D01*
X-104000Y219420D01*
Y222580D01*
X-104818Y225632D01*
X-106398Y228368D01*
X-108632Y230602D01*
X-111368Y232182D01*
X-114420Y233000D01*
X-117580D01*
X-120632Y232182D01*
X-123368Y230602D01*
X-125602Y228368D01*
X-126671Y226518D01*
X-127941Y226858D01*
Y243961D01*
X-124231D01*
X-123754Y243866D01*
X-87191D01*
X-85766Y242442D01*
Y242098D01*
X-85005Y240261D01*
X-83598Y238854D01*
X-81761Y238093D01*
X-79771D01*
X-77934Y238854D01*
X-77366Y239422D01*
X-75956Y239036D01*
X-75046Y235493D01*
X-78998Y233928D01*
X-80586Y232903D01*
X-81660Y231348D01*
X-82058Y229501D01*
X-81719Y227642D01*
X-79694Y222528D01*
X-78669Y220941D01*
X-77114Y219866D01*
X-75267Y219469D01*
X-73408Y219808D01*
X-69455Y221373D01*
X-56668Y198112D01*
X-60107Y195614D01*
X-61390Y194226D01*
X-62044Y192453D01*
X-61970Y190565D01*
X-61178Y188849D01*
X-57946Y184399D01*
X-56558Y183117D01*
X-54785Y182463D01*
X-52897Y182537D01*
X-51181Y183328D01*
X-45518Y187442D01*
X-44235Y188830D01*
X-43581Y190603D01*
X-43655Y192491D01*
X-44446Y194207D01*
X-47679Y198657D01*
X-49067Y199939D01*
X-50316Y200400D01*
X-64120Y225510D01*
X-63840Y226812D01*
X-64180Y228671D01*
X-66204Y233785D01*
X-67229Y235372D01*
X-68325Y236129D01*
X-75451Y263883D01*
X-74855Y265074D01*
X-74722Y266959D01*
X-75411Y272416D01*
X-76009Y274208D01*
X-76316Y274562D01*
Y274650D01*
X-76291Y274777D01*
Y304550D01*
X-76009Y304874D01*
X-75411Y306667D01*
X-74722Y312123D01*
X-74855Y314008D01*
X-75451Y315199D01*
X-68325Y342953D01*
X-67229Y343710D01*
X-66204Y345298D01*
X-64180Y350411D01*
X-63840Y352271D01*
X-64238Y354118D01*
X-65312Y355672D01*
X-66469Y356419D01*
X-66021Y357550D01*
X-64839Y358016D01*
X-53892Y352813D01*
X-54399Y351648D01*
X-56009Y352285D01*
X-61531Y338339D01*
X-46190Y332265D01*
X-44272Y337108D01*
X-24612D01*
X-17846Y330341D01*
Y329062D01*
X-17085Y327224D01*
X-15678Y325818D01*
X-13840Y325057D01*
X-11851D01*
X-10014Y325818D01*
X-8607Y327224D01*
X-7846Y329062D01*
Y329742D01*
X-6772Y330421D01*
X41122Y307661D01*
X41205Y307640D01*
X41277Y307592D01*
X41833Y307481D01*
X42383Y307342D01*
X42468Y307355D01*
X42552Y307338D01*
X44014D01*
X45290Y307592D01*
X46372Y308315D01*
X47868Y309811D01*
X48872Y309019D01*
X47369Y306567D01*
X45059Y300989D01*
X43650Y295119D01*
X43176Y289100D01*
X43650Y283081D01*
X45059Y277211D01*
X47369Y271633D01*
X50524Y266486D01*
X54445Y261895D01*
X59036Y257974D01*
X64183Y254820D01*
X69761Y252509D01*
X75631Y251100D01*
X81650Y250626D01*
X87669Y251100D01*
X93539Y252509D01*
X95386Y253274D01*
X96092Y252218D01*
X73397Y229524D01*
X72674Y228442D01*
X72421Y227166D01*
Y214369D01*
X72044Y214167D01*
X71151Y213979D01*
X69933Y215197D01*
X68095Y215958D01*
X66106D01*
X64268Y215197D01*
X62862Y213790D01*
X62101Y211953D01*
Y209964D01*
X62862Y208126D01*
X63117Y207871D01*
X53520Y157557D01*
X49427Y158338D01*
X46336Y142130D01*
X61070Y139319D01*
X64162Y155527D01*
X60070Y156308D01*
X69665Y206608D01*
X69933Y206719D01*
X71151Y207937D01*
X72044Y207749D01*
X72421Y207548D01*
Y176586D01*
X69935Y174100D01*
X68655D01*
X66818Y173339D01*
X65411Y171932D01*
X64650Y170095D01*
Y168105D01*
X65411Y166268D01*
X66818Y164861D01*
X68655Y164100D01*
X70139D01*
X70679Y162844D01*
X69292Y161458D01*
X68570Y160376D01*
X68316Y159100D01*
Y147837D01*
X67411Y146932D01*
X66650Y145095D01*
Y143105D01*
X67411Y141268D01*
X68818Y139861D01*
X70655Y139100D01*
X72645D01*
X74482Y139861D01*
X75889Y141268D01*
X76650Y143105D01*
Y145095D01*
X75889Y146932D01*
X74984Y147837D01*
Y157719D01*
X86064Y168799D01*
X86752Y169829D01*
X86847Y169848D01*
X88022Y169499D01*
Y154647D01*
X83083Y154337D01*
X84119Y137869D01*
X99089Y138811D01*
X98053Y155279D01*
X95616Y155125D01*
X94691Y155995D01*
Y219069D01*
X95889Y220268D01*
X96650Y222105D01*
Y224095D01*
X95889Y225932D01*
X94482Y227339D01*
X92645Y228100D01*
X90655D01*
X88818Y227339D01*
X87411Y225932D01*
X86650Y224095D01*
Y222105D01*
X87411Y220268D01*
X88022Y219657D01*
Y183061D01*
X86752Y182535D01*
X86539Y182748D01*
X84701Y183510D01*
X82712D01*
X80875Y182748D01*
X80359Y182233D01*
X79089Y182759D01*
Y225785D01*
X123633Y270329D01*
X124356Y271411D01*
X124609Y272687D01*
Y309616D01*
X125879Y309868D01*
X126009Y309556D01*
X127415Y308149D01*
X129253Y307388D01*
X131242D01*
X131978Y307693D01*
X133248Y306844D01*
Y306388D01*
X135914D01*
Y302388D01*
X133248D01*
Y290388D01*
X145248D01*
Y302388D01*
X142582D01*
Y306388D01*
X145248D01*
Y318388D01*
X133248D01*
Y317932D01*
X131978Y317083D01*
X131242Y317388D01*
X129253D01*
X127415Y316627D01*
X126009Y315220D01*
X125879Y314908D01*
X124609Y315160D01*
Y315452D01*
X124356Y316728D01*
X123633Y317810D01*
X120504Y320938D01*
Y322102D01*
X119743Y323940D01*
X119561Y324121D01*
X120087Y325391D01*
X123511D01*
X127160Y321743D01*
X128241Y321020D01*
X129517Y320766D01*
X158631D01*
X159062Y320198D01*
X158431Y318928D01*
X155518D01*
Y312388D01*
Y305848D01*
X158708D01*
Y305393D01*
X159203Y304198D01*
X158437Y302928D01*
X155518D01*
Y296388D01*
Y289373D01*
X155934Y288866D01*
X155914Y288763D01*
Y287820D01*
X155554Y287462D01*
X155518Y280382D01*
X152978Y280394D01*
X153011Y286934D01*
X150491Y286947D01*
X150488Y286407D01*
X146028Y286430D01*
X146015Y283722D01*
X143985D01*
X143080Y284627D01*
X141242Y285388D01*
X139253D01*
X137415Y284627D01*
X136248Y283459D01*
X135080Y284627D01*
X133242Y285388D01*
X131253D01*
X129415Y284627D01*
X128009Y283220D01*
X127248Y281383D01*
Y279393D01*
X128009Y277556D01*
X128914Y276651D01*
Y247079D01*
X123458Y241623D01*
X122735Y240541D01*
X122481Y239265D01*
Y197144D01*
X122502Y197039D01*
X122488Y196933D01*
X122628Y196404D01*
X122735Y195868D01*
X122795Y195779D01*
X122822Y195676D01*
X148038Y144283D01*
X147601Y143090D01*
X138035Y138908D01*
X137352Y139446D01*
X135534Y139959D01*
X133657Y139737D01*
X128426Y138037D01*
X126777Y137114D01*
X125953Y136068D01*
X97807Y130699D01*
X96655Y131368D01*
X94782Y131620D01*
X89293Y131274D01*
X87466Y130790D01*
X86408Y129982D01*
X57811Y131781D01*
X56861Y132715D01*
X55110Y133425D01*
X49707Y134455D01*
X47818Y134440D01*
X46591Y133921D01*
X19340Y142776D01*
X18653Y143917D01*
X17133Y145039D01*
X12156Y147381D01*
X10323Y147837D01*
X9006Y147639D01*
X-15188Y162992D01*
X-15569Y164268D01*
X-16762Y165734D01*
X-21000Y169239D01*
X-22663Y170137D01*
X-24543Y170329D01*
X-26353Y169788D01*
X-27819Y168595D01*
X-32281Y163201D01*
X-33178Y161538D01*
X-33371Y159658D01*
X-32829Y157848D01*
X-31636Y156383D01*
X-27399Y152877D01*
X-25735Y151979D01*
X-23856Y151787D01*
X-22045Y152328D01*
X-20580Y153521D01*
X-17870Y156797D01*
X4542Y142574D01*
X2732Y138727D01*
X2276Y136893D01*
X2557Y135025D01*
X3532Y133406D01*
X5052Y132283D01*
X10028Y129941D01*
X11862Y129486D01*
X13731Y129767D01*
X15350Y130741D01*
X16473Y132261D01*
X18283Y136108D01*
X43527Y127905D01*
X42731Y123730D01*
X42746Y121840D01*
X43483Y120100D01*
X44829Y118774D01*
X46581Y118065D01*
X51983Y117034D01*
X53873Y117049D01*
X55613Y117786D01*
X56939Y119132D01*
X57648Y120884D01*
X58445Y125060D01*
X84936Y123393D01*
X85203Y119150D01*
X85688Y117324D01*
X86834Y115822D01*
X88468Y114873D01*
X90341Y114621D01*
X95830Y114966D01*
X97656Y115451D01*
X99159Y116597D01*
X100108Y118231D01*
X100359Y120104D01*
X100092Y124347D01*
X126166Y129321D01*
X127480Y125277D01*
X128403Y123629D01*
X129887Y122459D01*
X131706Y121946D01*
X133582Y122168D01*
X138813Y123868D01*
X140462Y124791D01*
X141632Y126275D01*
X142145Y128094D01*
X141923Y129970D01*
X140967Y132912D01*
X154306Y138744D01*
X154367Y138787D01*
X154439Y138806D01*
X154899Y139157D01*
X155373Y139488D01*
X155413Y139551D01*
X155473Y139596D01*
X155763Y140097D01*
X156075Y140583D01*
X156088Y140656D01*
X156125Y140721D01*
X156202Y141295D01*
X156304Y141864D01*
X156288Y141937D01*
X156298Y142010D01*
X156149Y142570D01*
X156025Y143135D01*
X155983Y143196D01*
X155963Y143268D01*
X129149Y197918D01*
Y237884D01*
X134605Y243340D01*
X135328Y244422D01*
X135551Y245542D01*
X136820Y245476D01*
X137710Y244571D01*
X137738Y244502D01*
X137761Y244201D01*
X132352Y238792D01*
X131630Y237710D01*
X131376Y236434D01*
Y197493D01*
X131630Y196217D01*
X132352Y195135D01*
X137321Y190166D01*
Y188887D01*
X138082Y187049D01*
X139489Y185643D01*
X141326Y184881D01*
X142389D01*
X152049Y175221D01*
X151910Y173959D01*
X148095Y171538D01*
X156937Y157607D01*
X169601Y165644D01*
X160760Y179576D01*
X158537Y178164D01*
X147321Y189380D01*
Y190876D01*
X146560Y192714D01*
X145153Y194120D01*
X143316Y194881D01*
X142036D01*
X138044Y198874D01*
Y235053D01*
X141570Y238580D01*
X144885D01*
X145781Y237679D01*
X145772Y235930D01*
X150718Y235905D01*
Y232313D01*
X146798Y228393D01*
X145424D01*
X143586Y227631D01*
X142179Y226225D01*
X141418Y224387D01*
Y222398D01*
X142179Y220560D01*
X143586Y219154D01*
X144425Y218806D01*
X145168Y217631D01*
X144914Y216355D01*
Y206125D01*
X144009Y205220D01*
X143248Y203382D01*
Y201393D01*
X144009Y199556D01*
X145415Y198149D01*
X147253Y197388D01*
X149242D01*
X151080Y198149D01*
X151985Y199054D01*
X174227D01*
X178396Y194885D01*
X175368Y191660D01*
X187396Y180365D01*
X197664Y191299D01*
X185636Y202595D01*
X183587Y200413D01*
X182318Y200393D01*
X177965Y204745D01*
X176884Y205468D01*
X175608Y205722D01*
X151985D01*
X151582Y206125D01*
Y214974D01*
X158229Y221622D01*
X159499Y221096D01*
Y219645D01*
X160261Y217807D01*
X161667Y216401D01*
X163505Y215640D01*
X165494D01*
X167332Y216401D01*
X168236Y217306D01*
X197919D01*
X211238Y209983D01*
X218465Y223128D01*
X204006Y231077D01*
X200101Y223974D01*
X176701D01*
X176175Y225244D01*
X176486Y225556D01*
X177248Y227393D01*
Y227414D01*
X178518Y228263D01*
X179488Y227861D01*
X181477D01*
X183315Y228622D01*
X184721Y230029D01*
X185482Y231867D01*
Y233856D01*
X184721Y235693D01*
X183315Y237100D01*
X181477Y237861D01*
X179488D01*
X178349Y237390D01*
X177386Y238353D01*
Y241787D01*
X177304Y242199D01*
X177320Y245270D01*
X179903Y245257D01*
X180336Y245171D01*
X185011D01*
X188320Y241863D01*
X187645Y240234D01*
Y238245D01*
X188406Y236407D01*
X189813Y235001D01*
X191651Y234240D01*
X193640D01*
X195477Y235001D01*
X196884Y236407D01*
X197645Y238245D01*
Y240234D01*
X196884Y242072D01*
X195477Y243478D01*
X195180Y243601D01*
X195063Y244190D01*
X194341Y245272D01*
X192686Y246927D01*
X193114Y248295D01*
X194482Y248861D01*
X195889Y250268D01*
X196650Y252105D01*
Y254095D01*
X195889Y255932D01*
X194482Y257339D01*
X192645Y258100D01*
X190655D01*
X188818Y257339D01*
X187275Y257386D01*
X186923Y257739D01*
X186936Y260158D01*
X199457D01*
X200114Y259501D01*
Y243197D01*
X200368Y241922D01*
X201091Y240840D01*
X212979Y228951D01*
X214061Y228228D01*
X215337Y227975D01*
X218202D01*
X219314Y226862D01*
X221152Y226101D01*
X223141D01*
X224979Y226862D01*
X226386Y228269D01*
X227147Y230106D01*
Y232095D01*
X226386Y233933D01*
X226145Y234174D01*
X226165Y235950D01*
X226721Y236507D01*
X227482Y238344D01*
Y240333D01*
X226721Y242171D01*
X225315Y243578D01*
X224453Y243934D01*
X224856Y245142D01*
X226966Y244600D01*
X230697Y259129D01*
X224175Y260804D01*
Y273909D01*
X223921Y275185D01*
X223198Y276267D01*
X218597Y280868D01*
X219083Y282041D01*
X233591D01*
Y297041D01*
X221806D01*
X195398Y323450D01*
X196117Y324527D01*
X197081Y324335D01*
X212537D01*
X214715Y315850D01*
X230697Y319953D01*
X226966Y334482D01*
X213416Y331003D01*
X198462D01*
X192650Y336815D01*
Y338094D01*
X191889Y339932D01*
X190482Y341339D01*
X188645Y342100D01*
X187252D01*
X186926Y343370D01*
X201999Y351656D01*
X204006Y348006D01*
X218465Y355955D01*
X211238Y369099D01*
X196779Y361150D01*
X198786Y357500D01*
X181001Y347722D01*
X165985D01*
X165080Y348627D01*
X163242Y349388D01*
X161253D01*
X159415Y348627D01*
X158009Y347220D01*
X157248Y345382D01*
Y343393D01*
X157950Y341698D01*
X157477Y340428D01*
X145262D01*
X144741Y341698D01*
X145409Y343310D01*
Y344426D01*
X182784Y379525D01*
X185636Y376488D01*
X197664Y387783D01*
X187396Y398717D01*
X175368Y387422D01*
X178220Y384385D01*
X140863Y349305D01*
X139414D01*
X137576Y348544D01*
X136170Y347137D01*
X135409Y345299D01*
Y343310D01*
X136076Y341698D01*
X135555Y340428D01*
X121656D01*
X121203Y341698D01*
X121920Y343428D01*
Y345417D01*
X121754Y345818D01*
X157243Y401739D01*
X160760Y399507D01*
X169601Y413438D01*
X156937Y421476D01*
X148095Y407544D01*
X151613Y405312D01*
X116144Y349422D01*
X115925D01*
X114088Y348661D01*
X112681Y347255D01*
X111920Y345417D01*
Y343428D01*
X112636Y341698D01*
X112184Y340428D01*
X103211D01*
X102465Y341455D01*
X126979Y416903D01*
X130941Y415616D01*
X136040Y431309D01*
X121774Y435944D01*
X116676Y420251D01*
X120638Y418964D01*
X95523Y341670D01*
X94710Y341333D01*
X93303Y339926D01*
X92542Y338089D01*
Y336100D01*
X93303Y334262D01*
X94235Y333329D01*
X93709Y332059D01*
X62067D01*
X60791Y331806D01*
X59710Y331083D01*
X47814Y319187D01*
X46640Y319673D01*
Y319925D01*
X45879Y321763D01*
X44473Y323169D01*
X42635Y323930D01*
X40646D01*
X40509Y323874D01*
X-25166Y371590D01*
X-22718Y374960D01*
X-36067Y384658D01*
X-44883Y372523D01*
X-31535Y362825D01*
X-29086Y366195D01*
X36095Y318838D01*
X35444Y317742D01*
X-8821Y338777D01*
X-9061Y338946D01*
X-17454Y347339D01*
X-18535Y348062D01*
X-19811Y348316D01*
X-28893D01*
X-66029Y365964D01*
X-66161Y365997D01*
X-66276Y366069D01*
X-66787Y366155D01*
X-67290Y366282D01*
X-67425Y366262D01*
X-67559Y366285D01*
X-68064Y366169D01*
X-68577Y366093D01*
X-68694Y366024D01*
X-68827Y365993D01*
X-69249Y365692D01*
X-69694Y365427D01*
X-69770Y365325D01*
X-69869Y365257D01*
X-69875Y365247D01*
X-69886Y365239D01*
X-69901Y365223D01*
X-70192Y364758D01*
X-70471Y364383D01*
X-70496Y364286D01*
X-70574Y364164D01*
X-72632Y358967D01*
X-73408Y359274D01*
X-75267Y359614D01*
X-77114Y359216D01*
X-78669Y358142D01*
X-79694Y356554D01*
X-81719Y351440D01*
X-82058Y349581D01*
X-81660Y347734D01*
X-80586Y346180D01*
X-78998Y345155D01*
X-75046Y343590D01*
X-81647Y317880D01*
X-85865Y318412D01*
X-87750Y318279D01*
X-89440Y317434D01*
X-90679Y316007D01*
X-91277Y314214D01*
X-91966Y308758D01*
X-91832Y306873D01*
X-90988Y305182D01*
X-89561Y303944D01*
X-87768Y303346D01*
X-82959Y302738D01*
Y295835D01*
X-84229Y295093D01*
X-85466Y295606D01*
X-87455D01*
X-89292Y294844D01*
X-90699Y293438D01*
X-91460Y291600D01*
Y290320D01*
X-103014Y278767D01*
X-111438D01*
X-112714Y278513D01*
X-113795Y277790D01*
X-114815Y276771D01*
X-126995D01*
X-127941Y277317D01*
Y283961D01*
X-110005Y283961D01*
X-109225Y284116D01*
X-107387Y284877D01*
X-106726Y285319D01*
X-105319Y286726D01*
X-104877Y287387D01*
X-104116Y289225D01*
X-103961Y290005D01*
Y291994D01*
X-104116Y292775D01*
X-104877Y294613D01*
X-105319Y295274D01*
X-106726Y296681D01*
X-107387Y297123D01*
X-109225Y297884D01*
X-110005Y298039D01*
X-127941Y298039D01*
Y322200D01*
X-131000D01*
Y332200D01*
X-127941D01*
Y351342D01*
X-126671Y351682D01*
X-125602Y349832D01*
X-123368Y347598D01*
X-120632Y346018D01*
X-117580Y345200D01*
X-114420D01*
X-111368Y346018D01*
X-108632Y347598D01*
X-106398Y349832D01*
X-104818Y352568D01*
X-104000Y355620D01*
Y358780D01*
X-104818Y361832D01*
X-106398Y364568D01*
X-108632Y366802D01*
X-111368Y368382D01*
X-114420Y369200D01*
X-117580D01*
X-120632Y368382D01*
X-123368Y366802D01*
X-125351Y364820D01*
X-126418Y365140D01*
X-126610Y365274D01*
X-126590Y366052D01*
X-125017Y369848D01*
X-122807Y373455D01*
X-120060Y376671D01*
X-116844Y379418D01*
X-113237Y381628D01*
X-109329Y383247D01*
X-105216Y384235D01*
X-101053Y384562D01*
X-100999Y384552D01*
X-75999D01*
X-74829Y384784D01*
X-73836Y385447D01*
X-73454Y386020D01*
X-73389Y385979D01*
X-72204Y387976D01*
X-64758Y398700D01*
X-56566Y408865D01*
X-47670Y418420D01*
X-38115Y427316D01*
X-27950Y435508D01*
X-17226Y442954D01*
X-15185Y444165D01*
X-15226Y444231D01*
X-14653Y444614D01*
X-13990Y445606D01*
X-13757Y446777D01*
X-13801Y446999D01*
X-13801Y472100D01*
X-13812Y472154D01*
X-13484Y476317D01*
X-12497Y480430D01*
X-10878Y484338D01*
X-8668Y487944D01*
X-5921Y491161D01*
X-2705Y493908D01*
X902Y496118D01*
X4700Y497691D01*
X5479Y497714D01*
X5626Y497502D01*
X5935Y496456D01*
X3948Y494468D01*
X2368Y491732D01*
X1550Y488680D01*
Y485520D01*
X2368Y482468D01*
X3948Y479732D01*
X6182Y477498D01*
X8918Y475918D01*
X11970Y475100D01*
X15130D01*
X18182Y475918D01*
X20918Y477498D01*
X23152Y479732D01*
X24732Y482468D01*
X25550Y485520D01*
Y488680D01*
X24732Y491732D01*
X23152Y494468D01*
X20918Y496702D01*
X19067Y497771D01*
X19407Y499041D01*
X36511D01*
Y481105D01*
X36666Y480325D01*
X37427Y478487D01*
X37869Y477826D01*
X39276Y476419D01*
X39937Y475977D01*
X41775Y475216D01*
X42555Y475061D01*
X44545D01*
X45325Y475216D01*
X47163Y475977D01*
X47824Y476419D01*
X49231Y477826D01*
X49673Y478487D01*
X50434Y480325D01*
X50589Y481105D01*
Y499041D01*
X56511D01*
Y481105D01*
X56666Y480325D01*
X57427Y478487D01*
X57869Y477826D01*
X59276Y476419D01*
X59937Y475977D01*
X61775Y475216D01*
X62555Y475061D01*
X64545D01*
X65325Y475216D01*
X67163Y475977D01*
X67824Y476419D01*
X69231Y477826D01*
X69673Y478487D01*
X70434Y480325D01*
X70589Y481105D01*
Y499041D01*
X76511D01*
Y481105D01*
X76666Y480325D01*
X77427Y478487D01*
X77869Y477826D01*
X79276Y476419D01*
X79937Y475977D01*
X81775Y475216D01*
X82555Y475061D01*
X84544D01*
X85325Y475216D01*
X87163Y475977D01*
X87824Y476419D01*
X89231Y477826D01*
X89673Y478487D01*
X90434Y480325D01*
X90589Y481105D01*
Y499041D01*
X114750D01*
Y502100D01*
X124750D01*
Y499041D01*
D02*
G37*
G36*
X142107Y455281D02*
X143332Y455023D01*
D01*
X144390Y454508D01*
X170390Y440769D01*
X170090Y439492D01*
X169937Y439488D01*
X168209Y438724D01*
X166905Y437357D01*
X164627Y433767D01*
X140609Y445069D01*
X141923Y449112D01*
X142145Y450989D01*
X141632Y452808D01*
X140524Y454212D01*
X140592Y454548D01*
X141037Y455425D01*
X142107Y455281D01*
D02*
G37*
G36*
X204876Y414140D02*
X204575Y413249D01*
X204367Y412914D01*
X202604Y412620D01*
X201000Y411620D01*
X197901Y408710D01*
X177449Y425630D01*
X179727Y429219D01*
X180408Y430982D01*
X180368Y432677D01*
X180870Y433088D01*
X181526Y433369D01*
X204876Y414140D01*
D02*
G37*
G36*
X231089Y379914D02*
X230392Y378700D01*
X229426Y378783D01*
X227624Y378214D01*
X223899Y376166D01*
X208297Y397640D01*
X211396Y400550D01*
X212495Y402088D01*
X212838Y403568D01*
X213982Y403940D01*
X214129Y403942D01*
X231089Y379914D01*
D02*
G37*
G36*
X194316Y299770D02*
Y280886D01*
X190269Y276839D01*
X182800D01*
X182470Y277389D01*
X182326Y278109D01*
X188605Y284388D01*
X189328Y285470D01*
X189582Y286746D01*
Y290651D01*
X190487Y291556D01*
X191248Y293393D01*
Y295382D01*
X190487Y297220D01*
X189080Y298627D01*
X187242Y299388D01*
X185253D01*
X183415Y298627D01*
X182009Y297220D01*
X181248Y295382D01*
Y293393D01*
X182009Y291556D01*
X182914Y290651D01*
Y288127D01*
X178786Y284000D01*
X177519Y284528D01*
X177528Y286270D01*
X176507Y286275D01*
X176024Y287449D01*
X178892Y290317D01*
X179615Y291399D01*
X179869Y292675D01*
Y300499D01*
X180925Y301556D01*
X181686Y303393D01*
Y305382D01*
X180925Y307220D01*
X179519Y308627D01*
X177681Y309388D01*
X175692D01*
X175021Y309110D01*
X173751Y309958D01*
Y314219D01*
X173658Y314683D01*
X174771Y315597D01*
X175132Y315447D01*
X177121D01*
X178194Y315892D01*
X194316Y299770D01*
D02*
G37*
G36*
X294300Y286000D02*
X273305D01*
X271468Y286761D01*
X270061Y288168D01*
X269300Y290005D01*
Y291994D01*
X270061Y293832D01*
X271468Y295239D01*
X273305Y296000D01*
X294300D01*
Y286000D01*
D02*
G37*
G36*
X-111000Y296000D02*
X-110005D01*
X-108168Y295239D01*
X-106761Y293832D01*
X-106000Y291994D01*
Y290005D01*
X-106761Y288168D01*
X-108168Y286761D01*
X-110005Y286000D01*
X-111000D01*
X-131000Y286000D01*
Y296000D01*
X-111000Y296000D01*
D02*
G37*
G36*
X-82959Y285376D02*
Y276344D01*
X-87768Y275736D01*
X-89561Y275138D01*
X-90988Y273900D01*
X-91832Y272209D01*
X-91966Y270324D01*
X-91277Y264868D01*
X-90679Y263075D01*
X-89440Y261648D01*
X-87750Y260804D01*
X-85865Y260670D01*
X-81647Y261203D01*
X-78457Y248778D01*
X-79416Y247946D01*
X-79771Y248093D01*
X-81761D01*
X-81921Y248027D01*
X-83452Y249558D01*
X-84534Y250280D01*
X-85809Y250534D01*
X-103961D01*
Y251995D01*
X-104116Y252775D01*
X-104877Y254613D01*
X-105319Y255274D01*
X-106726Y256681D01*
X-107387Y257123D01*
X-109225Y257884D01*
X-110005Y258039D01*
X-127941D01*
Y264683D01*
X-126702Y265399D01*
X-126101Y266000D01*
X-131000D01*
Y276000D01*
X-111000Y276000D01*
X-110005D01*
X-108168Y275239D01*
X-106761Y273832D01*
X-106043Y272099D01*
X-101633D01*
X-100357Y272352D01*
X-99275Y273075D01*
X-86745Y285606D01*
X-85466D01*
X-84229Y286118D01*
X-82959Y285376D01*
D02*
G37*
G36*
X294300Y266000D02*
X273305D01*
X271468Y266761D01*
X270061Y268168D01*
X269300Y270005D01*
Y271995D01*
X270061Y273832D01*
X271468Y275239D01*
X273305Y276000D01*
X294300D01*
Y266000D01*
D02*
G37*
G36*
X210316Y291719D02*
Y281100D01*
X210570Y279824D01*
X211292Y278743D01*
X217507Y272528D01*
Y263552D01*
X216503Y262773D01*
X214715Y263232D01*
X213649Y259080D01*
X212389Y259239D01*
Y263764D01*
X212135Y265040D01*
X211412Y266122D01*
X206672Y270862D01*
X205590Y271585D01*
X204314Y271839D01*
X196359D01*
X195873Y273012D01*
X200008Y277147D01*
X200730Y278229D01*
X200984Y279505D01*
Y299391D01*
X202157Y299878D01*
X210316Y291719D01*
D02*
G37*
G36*
X-108168Y255239D02*
X-106761Y253832D01*
X-106000Y251995D01*
Y250005D01*
X-106761Y248168D01*
X-108168Y246761D01*
X-110005Y246000D01*
X-131000D01*
Y256000D01*
X-110005D01*
X-108168Y255239D01*
D02*
G37*
G36*
X294300Y246000D02*
X273305D01*
X271468Y246761D01*
X270061Y248168D01*
X269300Y250005D01*
Y251994D01*
X270061Y253832D01*
X271468Y255239D01*
X273305Y256000D01*
X294300D01*
Y246000D01*
D02*
G37*
G36*
X59818Y35757D02*
Y25993D01*
X59276Y25631D01*
X57869Y24224D01*
X57427Y23563D01*
X56666Y21725D01*
X56511Y20945D01*
Y3009D01*
X50589D01*
Y20945D01*
X50434Y21725D01*
X49673Y23563D01*
X49231Y24224D01*
X47860Y25595D01*
X58548Y36283D01*
X59818Y35757D01*
D02*
G37*
G36*
X86382Y24189D02*
X87789Y22782D01*
X88550Y20945D01*
Y19950D01*
Y-50D01*
X78550D01*
Y19950D01*
Y20945D01*
X79311Y22782D01*
X80718Y24189D01*
X82555Y24950D01*
X84544D01*
X86382Y24189D01*
D02*
G37*
G36*
X66382D02*
X67789Y22782D01*
X68550Y20945D01*
Y19950D01*
Y-50D01*
X58550D01*
Y19950D01*
Y20945D01*
X59311Y22782D01*
X60718Y24189D01*
X62555Y24950D01*
X64545D01*
X66382Y24189D01*
D02*
G37*
G36*
X46382D02*
X47789Y22782D01*
X48550Y20945D01*
Y19950D01*
Y-50D01*
X38550D01*
Y19950D01*
Y20945D01*
X39311Y22782D01*
X40718Y24189D01*
X42555Y24950D01*
X44545D01*
X46382Y24189D01*
D02*
G37*
%LPC*%
G36*
X61070Y439763D02*
X46336Y436952D01*
X49427Y420745D01*
X53559Y421533D01*
X58116Y397646D01*
X58120Y397637D01*
X58119Y397627D01*
X60399Y386039D01*
X60051Y385691D01*
X59290Y383853D01*
Y381864D01*
X60051Y380026D01*
X61458Y378620D01*
X63295Y377859D01*
X65285D01*
X67122Y378620D01*
X68529Y380026D01*
X69290Y381864D01*
Y383853D01*
X68529Y385691D01*
X67122Y387097D01*
X66975Y387158D01*
X64664Y398906D01*
X60109Y422782D01*
X64162Y423555D01*
X61070Y439763D01*
D02*
G37*
G36*
X24372Y429816D02*
X10799Y423429D01*
X17825Y408499D01*
X21594Y410273D01*
X43425Y363880D01*
X43029Y362922D01*
Y360933D01*
X43790Y359095D01*
X45197Y357688D01*
X47034Y356927D01*
X49023D01*
X50861Y357688D01*
X52268Y359095D01*
X53029Y360933D01*
Y362922D01*
X52268Y364760D01*
X50861Y366166D01*
X49443Y366754D01*
X27628Y413112D01*
X31397Y414886D01*
X24372Y429816D01*
D02*
G37*
G36*
X-8700Y411055D02*
X-20257Y401493D01*
X-9740Y388780D01*
X-6530Y391435D01*
X35659Y340438D01*
Y338630D01*
X36420Y336792D01*
X37826Y335386D01*
X39664Y334625D01*
X41653D01*
X43491Y335386D01*
X44897Y336792D01*
X45659Y338630D01*
Y340619D01*
X44897Y342457D01*
X43491Y343863D01*
X41653Y344624D01*
X40849D01*
X-1392Y395686D01*
X1818Y398341D01*
X-8700Y411055D01*
D02*
G37*
G36*
X152978Y318928D02*
X147708D01*
Y313658D01*
X152978D01*
Y318928D01*
D02*
G37*
G36*
Y311118D02*
X147708D01*
Y305848D01*
X152978D01*
Y311118D01*
D02*
G37*
G36*
X-67274Y315970D02*
X-69154Y301088D01*
X-52784Y299020D01*
X-52135Y304161D01*
X-12697D01*
X-11080Y302544D01*
Y302105D01*
X-10319Y300268D01*
X-8912Y298861D01*
X-7075Y298100D01*
X-5085D01*
X-3248Y298861D01*
X-1841Y300268D01*
X-1080Y302105D01*
Y304095D01*
X-1841Y305932D01*
X-3248Y307339D01*
X-5085Y308100D01*
X-7075D01*
X-7167Y308062D01*
X-8958Y309853D01*
X-10040Y310575D01*
X-11316Y310829D01*
X-50332D01*
X-51172Y311782D01*
X-50904Y313902D01*
X-67274Y315970D01*
D02*
G37*
G36*
X152978Y302928D02*
X147708D01*
Y297658D01*
X152978D01*
Y302928D01*
D02*
G37*
G36*
X-18611Y300018D02*
X-20600D01*
X-22437Y299257D01*
X-23844Y297850D01*
X-24605Y296012D01*
Y295669D01*
X-26264Y294010D01*
X-53691D01*
X-54596Y294915D01*
X-56434Y295676D01*
X-58423D01*
X-60261Y294915D01*
X-61667Y293508D01*
X-62428Y291670D01*
Y289681D01*
X-61667Y287843D01*
X-60261Y286437D01*
X-58423Y285676D01*
X-56434D01*
X-54596Y286437D01*
X-53691Y287342D01*
X-24883D01*
X-23607Y287596D01*
X-22526Y288318D01*
X-20760Y290084D01*
X-20600Y290018D01*
X-18611D01*
X-16773Y290779D01*
X-15366Y292186D01*
X-14605Y294023D01*
Y296012D01*
X-15366Y297850D01*
X-16773Y299257D01*
X-18611Y300018D01*
D02*
G37*
G36*
X152978Y295118D02*
X147708D01*
Y289848D01*
X152978D01*
Y295118D01*
D02*
G37*
G36*
X3717Y284515D02*
X1727D01*
X-110Y283753D01*
X-1517Y282347D01*
X-1520Y282339D01*
X-52262Y275929D01*
X-52784Y280062D01*
X-69154Y277994D01*
X-67274Y263112D01*
X-50904Y265180D01*
X-51426Y269313D01*
X-572Y275738D01*
X-110Y275276D01*
X1727Y274515D01*
X3717D01*
X5554Y275276D01*
X6961Y276682D01*
X7722Y278520D01*
Y280509D01*
X6961Y282347D01*
X5554Y283753D01*
X3717Y284515D01*
D02*
G37*
G36*
X22650Y270613D02*
X20661D01*
X18823Y269852D01*
X17417Y268445D01*
X16959Y267339D01*
X-20845Y252372D01*
X-21736Y253277D01*
X-21600Y253605D01*
Y255595D01*
X-22361Y257432D01*
X-23768Y258839D01*
X-25605Y259600D01*
X-27595D01*
X-29432Y258839D01*
X-30337Y257934D01*
X-53200D01*
X-54476Y257680D01*
X-55557Y256957D01*
X-62415Y250100D01*
X-63695D01*
X-65532Y249339D01*
X-66939Y247932D01*
X-67700Y246095D01*
Y244105D01*
X-66939Y242268D01*
X-65532Y240861D01*
X-63695Y240100D01*
X-61705D01*
X-61190Y239881D01*
X-56009Y226797D01*
X-40668Y232871D01*
X-42201Y236744D01*
X19402Y261135D01*
X20661Y260613D01*
X22650D01*
X24488Y261374D01*
X25894Y262781D01*
X26656Y264618D01*
Y266608D01*
X25894Y268445D01*
X24488Y269852D01*
X22650Y270613D01*
D02*
G37*
G36*
X42635Y265152D02*
X40646D01*
X38808Y264391D01*
X37401Y262984D01*
X36640Y261147D01*
Y260640D01*
X-29086Y212887D01*
X-31535Y216258D01*
X-44883Y206559D01*
X-36067Y194424D01*
X-22718Y204123D01*
X-25166Y207493D01*
X40509Y255209D01*
X40646Y255152D01*
X42635D01*
X44473Y255913D01*
X45879Y257320D01*
X46640Y259157D01*
Y261147D01*
X45879Y262984D01*
X44473Y264391D01*
X42635Y265152D01*
D02*
G37*
G36*
X245741Y307009D02*
X243751D01*
X241914Y306248D01*
X240507Y304841D01*
X239746Y303003D01*
Y301014D01*
X240507Y299177D01*
X241914Y297770D01*
X242402Y297568D01*
X242543Y296134D01*
X241917Y295716D01*
X240867Y294144D01*
X240498Y292291D01*
Y286791D01*
X240867Y284938D01*
X241606Y283831D01*
X238015Y255402D01*
X237023Y254514D01*
X236205Y252811D01*
X234838Y247483D01*
X234734Y245597D01*
X235175Y244340D01*
X224627Y217698D01*
X223445Y217084D01*
X222229Y215638D01*
X219579Y210818D01*
X219010Y209016D01*
X219125Y207690D01*
X202282Y184508D01*
X200985Y184207D01*
X199447Y183109D01*
X195682Y179100D01*
X194682Y177496D01*
X194464Y176182D01*
X172386Y157918D01*
X171054Y157949D01*
X169292Y157267D01*
X164648Y154320D01*
X163281Y153016D01*
X162517Y151288D01*
X162472Y149398D01*
X163154Y147636D01*
X166905Y141726D01*
X168209Y140358D01*
X169937Y139594D01*
X171826Y139550D01*
X173589Y140232D01*
X178233Y143179D01*
X179600Y144483D01*
X180364Y146211D01*
X180408Y148101D01*
X179727Y149863D01*
X177449Y153452D01*
X197901Y170372D01*
X201000Y167462D01*
X202604Y166462D01*
X204468Y166152D01*
X206309Y166578D01*
X207846Y167677D01*
X211611Y171686D01*
X212611Y173290D01*
X212921Y175154D01*
X212495Y176995D01*
X211396Y178532D01*
X208297Y181442D01*
X223899Y202917D01*
X227624Y200869D01*
X229426Y200299D01*
X231309Y200462D01*
X232986Y201333D01*
X234202Y202780D01*
X236851Y207599D01*
X237421Y209401D01*
X237258Y211284D01*
X236387Y212960D01*
X234940Y214177D01*
X231215Y216224D01*
X240986Y240905D01*
X245104Y239847D01*
X246991Y239743D01*
X248774Y240369D01*
X250182Y241630D01*
X251000Y243334D01*
X252367Y248661D01*
X252471Y250548D01*
X251845Y252331D01*
X250584Y253738D01*
X248881Y254556D01*
X244763Y255613D01*
X248090Y281948D01*
X252341D01*
X254195Y282317D01*
X255766Y283367D01*
X256816Y284938D01*
X257184Y286791D01*
Y292291D01*
X256816Y294144D01*
X255766Y295716D01*
X254195Y296766D01*
X252341Y297134D01*
X252001D01*
Y298084D01*
X251747Y299359D01*
X251024Y300441D01*
X249746Y301719D01*
Y303003D01*
X248985Y304841D01*
X247578Y306248D01*
X245741Y307009D01*
D02*
G37*
G36*
X12969Y209785D02*
X10980D01*
X9142Y209023D01*
X7736Y207617D01*
X6975Y205779D01*
Y203971D01*
X-6530Y187647D01*
X-9740Y190303D01*
X-20257Y177589D01*
X-8700Y168028D01*
X1818Y180741D01*
X-1392Y183397D01*
X12165Y199785D01*
X12969D01*
X14807Y200546D01*
X16213Y201952D01*
X16975Y203790D01*
Y205779D01*
X16213Y207617D01*
X14807Y209023D01*
X12969Y209785D01*
D02*
G37*
G36*
X42637Y208583D02*
X40648D01*
X38810Y207821D01*
X37403Y206415D01*
X36642Y204577D01*
Y202588D01*
X37039Y201631D01*
X21594Y168809D01*
X17825Y170583D01*
X10799Y155653D01*
X24372Y149267D01*
X31397Y164196D01*
X27628Y165970D01*
X43056Y198756D01*
X44474Y199344D01*
X45881Y200750D01*
X46642Y202588D01*
Y204577D01*
X45881Y206415D01*
X44474Y207821D01*
X42637Y208583D01*
D02*
G37*
G36*
X100645Y240933D02*
X98655D01*
X96818Y240172D01*
X95411Y238765D01*
X94650Y236927D01*
Y234938D01*
X95411Y233100D01*
X96818Y231694D01*
X98655Y230933D01*
X99692D01*
X108316Y222308D01*
Y168010D01*
X108570Y166734D01*
X109292Y165653D01*
X116946Y157999D01*
X121774Y143139D01*
X136040Y147774D01*
X130941Y163466D01*
X123369Y161006D01*
X114984Y169391D01*
Y223689D01*
X114730Y224965D01*
X114008Y226047D01*
X104650Y235404D01*
Y236927D01*
X103889Y238765D01*
X102482Y240172D01*
X100645Y240933D01*
D02*
G37*
G36*
X108973Y106462D02*
X105814D01*
X102762Y105644D01*
X100025Y104064D01*
X97791Y101830D01*
X96211Y99094D01*
X95393Y96042D01*
Y92882D01*
X96211Y89830D01*
X97791Y87094D01*
X100025Y84860D01*
X102762Y83280D01*
X102805Y83268D01*
Y71744D01*
X94749Y63688D01*
X92844D01*
X92832Y63732D01*
X91252Y66468D01*
X89018Y68702D01*
X86282Y70282D01*
X83230Y71100D01*
X80070D01*
X77018Y70282D01*
X74282Y68702D01*
X72048Y66468D01*
X70468Y63732D01*
X69650Y60680D01*
Y57520D01*
X70468Y54468D01*
X72048Y51732D01*
X74282Y49498D01*
X77018Y47918D01*
X80070Y47100D01*
X83230D01*
X86282Y47918D01*
X89018Y49498D01*
X91252Y51732D01*
X92832Y54468D01*
X92844Y54512D01*
X96650D01*
X98406Y54861D01*
X99894Y55856D01*
X110638Y66599D01*
X111632Y68088D01*
X111982Y69844D01*
Y83268D01*
X112025Y83280D01*
X114762Y84860D01*
X116996Y87094D01*
X118576Y89830D01*
X119394Y92882D01*
Y96042D01*
X118576Y99094D01*
X116996Y101830D01*
X114762Y104064D01*
X112025Y105644D01*
X108973Y106462D01*
D02*
G37*
G36*
X133230Y71100D02*
X130070D01*
X127018Y70282D01*
X124282Y68702D01*
X122048Y66468D01*
X120468Y63732D01*
X119650Y60680D01*
Y57520D01*
X120468Y54468D01*
X122048Y51732D01*
X124282Y49498D01*
X127018Y47918D01*
X130070Y47100D01*
X133230D01*
X136282Y47918D01*
X139018Y49498D01*
X141252Y51732D01*
X142832Y54468D01*
X143650Y57520D01*
Y60680D01*
X142832Y63732D01*
X141252Y66468D01*
X139018Y68702D01*
X136282Y70282D01*
X133230Y71100D01*
D02*
G37*
%LPD*%
D13*
X144631Y458151D02*
G03*
X143789Y458419I-1180J-2249D01*
G01*
X178439Y440230D02*
G03*
X178018Y440509I-1607J-1967D01*
G01*
X212439Y412116D02*
G03*
X211984Y412605I-2070J-1472D01*
G01*
X236355Y378120D02*
G03*
X236075Y378632I-2355J-953D01*
G01*
X70300Y419900D02*
Y442497D01*
X79800Y412300D02*
Y444600D01*
X55296Y430222D02*
X61391Y398270D01*
X64393Y383011D01*
X-23231Y340442D02*
X-12846Y330056D01*
X-24883Y290676D02*
X-20541Y295018D01*
X-19605D01*
X-57428Y290676D02*
X-24883D01*
X-53200Y254600D02*
X-26600D01*
X-62700Y245100D02*
X-53200Y254600D01*
X-85809Y247200D02*
X-81702Y243093D01*
X-80766D01*
X-123754Y247200D02*
X-85809D01*
X-131000Y251000D02*
X-127554D01*
X-123754Y247200D01*
X-113434Y273437D02*
X-111438Y275433D01*
X-101633D01*
X-131000Y271000D02*
X-128563Y273437D01*
X-113434D01*
X-101633Y275433D02*
X-86460Y290606D01*
X258550Y249014D02*
Y271292D01*
X258678Y271420D01*
X244746Y302004D02*
X248666Y298084D01*
X244746Y302004D02*
Y302009D01*
X259541Y250005D02*
X269300D01*
X258550Y238936D02*
Y249014D01*
X259541Y250005D01*
X255650Y236036D02*
X258550Y238936D01*
X255650Y235100D02*
Y236036D01*
X63152Y105602D02*
X71650Y114100D01*
X63152Y4858D02*
Y105602D01*
X43550Y26000D02*
X56650Y39100D01*
Y74100D01*
X31650Y99100D02*
X56650Y74100D01*
X-79527Y312730D02*
X-70707Y347081D01*
X31650Y99100D02*
Y119100D01*
X90958Y146701D02*
X91356Y147099D01*
Y222806D01*
X91650Y223100D01*
X71650Y159100D02*
X83707Y171157D01*
Y178510D01*
X75755Y175205D02*
Y227166D01*
X69650Y169100D02*
X75755Y175205D01*
Y227166D02*
X121275Y272687D01*
X71650Y144100D02*
Y159100D01*
X43550Y-50D02*
Y26000D01*
X176127Y320447D02*
X176789Y319785D01*
X179016D02*
X197650Y301151D01*
X176789Y319785D02*
X179016D01*
X197650Y279505D02*
Y301151D01*
X-29645Y344982D02*
X-29072Y344982D01*
X-30162Y345228D02*
X-29645Y344982D01*
X-67460Y362952D02*
X-30162Y345228D01*
X-29072Y344982D02*
X-19811D01*
X-11216Y336387D02*
X-10510Y335889D01*
X-19811Y344982D02*
X-11216Y336387D01*
X-10510Y335889D02*
X42552Y310672D01*
X-46469Y340442D02*
X-23231D01*
X-11316Y307495D02*
X-6921Y303100D01*
X-60029Y307495D02*
X-11316D01*
X-6921Y303100D02*
X-6080D01*
X180387Y258505D02*
X186463D01*
X154248Y296388D02*
Y312388D01*
Y280388D02*
Y296388D01*
X191245Y253505D02*
X191650Y253100D01*
X180362Y253505D02*
X191245D01*
X125815Y197144D02*
Y239265D01*
Y197144D02*
X152970Y141799D01*
X55249Y148829D02*
X67101Y210958D01*
X111650Y168010D02*
X126358Y153302D01*
X99650Y235689D02*
X111650Y223689D01*
Y168010D02*
Y223689D01*
X134710Y197493D02*
Y236434D01*
X99650Y235689D02*
Y235933D01*
X134710Y236434D02*
X140189Y241914D01*
X134710Y197493D02*
X142321Y189881D01*
X115620Y321108D02*
X121275Y315452D01*
X115504Y321108D02*
X115620D01*
X121275Y272687D02*
Y315452D01*
X130248Y312388D02*
X139248D01*
X134663Y133794D02*
X152970Y141799D01*
X158848Y168591D02*
Y173137D01*
X142321Y189665D02*
Y189881D01*
Y189665D02*
X158848Y173137D01*
X132248Y245698D02*
Y280388D01*
X125815Y239265D02*
X132248Y245698D01*
X179820Y233523D02*
X180482Y232861D01*
X174052Y236972D02*
Y241787D01*
X177501Y233523D02*
X179820D01*
X174052Y236972D02*
X177501Y233523D01*
X215337Y231309D02*
X221939D01*
X222147Y231101D01*
X203448Y243197D02*
X215337Y231309D01*
X203448Y243197D02*
Y260882D01*
X187650Y337100D02*
X197081Y327669D01*
X218338D01*
X226473Y213305D02*
X239529Y246279D01*
X226473Y213305D02*
X228215Y209209D01*
X248666Y289716D02*
Y298084D01*
Y289716D02*
X248841Y289541D01*
X44014Y310672D02*
X62067Y328725D01*
X129517Y324100D02*
X160536D01*
X62067Y328725D02*
X124892D01*
X129517Y324100D01*
X191650Y273505D02*
X197650Y279505D01*
X213650Y281100D02*
Y293100D01*
Y281100D02*
X220841Y273909D01*
X175926Y330824D02*
X213650Y293100D01*
X132248Y330824D02*
X175926D01*
X220841Y253916D02*
Y273909D01*
X180463Y273505D02*
X191650D01*
X215411Y239339D02*
X222482D01*
X209055Y245695D02*
X215411Y239339D01*
X-83344Y268642D02*
X-79650Y272336D01*
X-83344Y309600D02*
X-79625Y305881D01*
X-79650Y274752D02*
X-79625Y274777D01*
Y305881D01*
X-83344Y309600D02*
Y310441D01*
X-79650Y272336D02*
Y274752D01*
X-83344Y310441D02*
X-79527Y312730D01*
X-83344Y268642D02*
X-79527Y266352D01*
X186392Y248505D02*
X191983Y242914D01*
Y239902D02*
Y242914D01*
Y239902D02*
X192645Y239240D01*
X164499Y220640D02*
Y241390D01*
X164052Y241838D02*
X164499Y241390D01*
Y220640D02*
X207512D01*
X180438Y268505D02*
X204314D01*
X209055Y245695D02*
Y263764D01*
X204314Y268505D02*
X209055Y263764D01*
X180336Y248505D02*
X186392D01*
X180425Y263492D02*
X200838D01*
X203448Y260882D01*
X240542Y248799D02*
X240816Y248442D01*
X240542Y248799D02*
X245341Y286791D01*
X240816Y248442D02*
X243602Y248072D01*
X239529Y246279D02*
X243602Y248072D01*
X245341Y286790D02*
X245341Y286791D01*
X248841Y289541D01*
X146418Y223393D02*
X146513D01*
X154052Y230932D01*
X148248Y202388D02*
Y216355D01*
X159052Y227160D02*
Y241863D01*
X148248Y216355D02*
X159052Y227160D01*
X-72949Y350926D02*
X-70332Y355718D01*
X-67474Y362937D02*
X-67460Y362952D01*
X-70332Y355718D02*
X-67474Y362937D01*
X42552Y310672D02*
X44014D01*
X240464Y318066D02*
Y327872D01*
X234171Y311773D02*
X240464Y318066D01*
Y327872D02*
X243603Y331010D01*
X154052Y230932D02*
Y241888D01*
X140189Y241914D02*
X149052D01*
X169248Y285388D02*
X176535Y292675D01*
Y304236D01*
X170417Y292977D02*
Y314219D01*
X164248Y286808D02*
X170417Y292977D01*
X160536Y324100D02*
X170417Y314219D01*
X174247Y280286D02*
X179788D01*
X186248Y286746D02*
Y294388D01*
X179788Y280286D02*
X186248Y286746D01*
X133620Y130953D02*
X134663Y133794D01*
X41640Y318930D02*
X41662Y318915D01*
X-33800Y373741D02*
X41640Y318930D01*
X177038Y337094D02*
X223407Y290725D01*
X97542Y337094D02*
X177038D01*
X108090Y463215D02*
X143789Y458419D01*
X97492Y461485D02*
X108090Y463215D01*
X92562Y455962D02*
X97492Y461485D01*
X144631Y458151D02*
X144637Y458148D01*
X178439Y440230D02*
X178446Y440224D01*
X212439Y412116D02*
X212445Y412109D01*
X236355Y378120D02*
X236359Y378111D01*
X144637Y458148D02*
X178018Y440509D01*
X178446Y440224D02*
X211984Y412605D01*
X212445Y412109D02*
X236075Y378632D01*
X236359Y378111D02*
X248248Y348388D01*
X-72949Y350926D02*
X-69905Y347882D01*
X-72949Y350926D02*
X-72949D01*
X248248Y348388D02*
Y349324D01*
X223782Y291100D02*
X225341Y289541D01*
X218338Y327669D02*
X220841Y325166D01*
X182428Y344702D02*
X207622Y358552D01*
X162248Y344388D02*
X181205D01*
X181857Y344388D01*
X182428Y344702D01*
X97542Y337094D02*
X126358Y425780D01*
X139248Y296388D02*
Y312388D01*
X163708Y306388D02*
X164248Y305848D01*
Y293763D02*
Y305848D01*
X169248Y280312D02*
Y285388D01*
X164248Y280337D02*
Y286808D01*
X159248Y288763D02*
X164248Y293763D01*
X159248Y280362D02*
Y288763D01*
X140248Y280388D02*
X149222D01*
X149248Y280413D01*
X169052Y231583D02*
X172248Y228388D01*
X169052Y231583D02*
Y241812D01*
X186516Y191480D02*
X186516D01*
X148248Y202388D02*
X175608D01*
X186516Y191480D01*
X207512Y220640D02*
X207622Y220530D01*
X2722Y279514D02*
X3002Y279550D01*
X-60029Y271587D02*
X2722Y279514D01*
X21098Y419158D02*
X48029Y361927D01*
X48121Y361731D01*
X21098Y159925D02*
X41642Y203582D01*
X140409Y344305D02*
X186516Y387603D01*
X-33800Y205341D02*
X41640Y260152D01*
X-9220Y179165D02*
X-6045Y183002D01*
X11975Y204785D01*
X156180Y406286D02*
X158848Y410491D01*
X116920Y344423D02*
X156180Y406286D01*
X90773Y427538D02*
X91086Y432508D01*
X88998Y399324D02*
X90773Y427538D01*
X-6046Y396080D02*
X40659Y339625D01*
X-9220Y399917D02*
X-6046Y396080D01*
X-51099Y236807D02*
X-46469Y238641D01*
X21656Y265613D01*
X-48365Y387722D02*
X-24087Y413575D01*
X-52812Y387554D02*
X-48365Y387722D01*
X-24199Y418024D02*
X-24087Y413575D01*
X-24199Y418024D02*
X-19849Y417080D01*
X10094Y436083D02*
X11092Y440421D01*
X-19849Y417080D02*
X10094Y436083D01*
X11092Y440421D02*
X15071Y438425D01*
X48800Y449384D02*
X50845Y453338D01*
X15071Y438425D02*
X48800Y449384D01*
X50845Y453338D02*
X54202Y450415D01*
X89597Y452642D02*
X92562Y455962D01*
X54202Y450415D02*
X89597Y452642D01*
X133620Y448130D02*
X135154Y443951D01*
X167243Y428851D02*
X171440Y430333D01*
X135154Y443951D02*
X167243Y428851D01*
X171887Y425904D02*
X199213Y403298D01*
X171440Y430333D02*
X171887Y425904D01*
X199213Y403298D02*
X203647Y403689D01*
X223823Y370597D02*
X228215Y369874D01*
X202978Y399289D02*
X223823Y370597D01*
X202978Y399289D02*
X203647Y403689D01*
X226473Y365778D02*
X239529Y332803D01*
X226473Y365778D02*
X228215Y369874D01*
X239529Y332803D02*
X243603Y331010D01*
X202978Y179793D02*
X203647Y175393D01*
X202978Y179793D02*
X223824Y208485D01*
X228215Y209209D01*
X171887Y153178D02*
X199213Y175784D01*
X171440Y148750D02*
X171887Y153178D01*
X199213Y175784D02*
X203647Y175393D01*
X95086Y126786D02*
X129923Y133431D01*
X133620Y130953D01*
X92561Y123120D02*
X95086Y126786D01*
X54202Y128667D02*
X89597Y126441D01*
X50845Y125744D02*
X54202Y128667D01*
X89597Y126441D02*
X92561Y123120D01*
X15071Y140658D02*
X48800Y129698D01*
X11092Y138661D02*
X15071Y140658D01*
X48800Y129698D02*
X50845Y125744D01*
X-19849Y162002D02*
X10094Y142999D01*
X11092Y138661D01*
X-24199Y161058D02*
X-19849Y162002D01*
X-72949Y228156D02*
X-68683Y226888D01*
X-51597Y195810D01*
X-52812Y191528D02*
X-51597Y195810D01*
X-79527Y266352D02*
X-70707Y232002D01*
X-72949Y228156D02*
X-70707Y232002D01*
D16*
X91086Y146574D02*
D03*
D17*
X92562Y123120D02*
D03*
D18*
X220841Y253916D02*
D03*
D19*
X243602Y248072D02*
D03*
D20*
X-60029Y307495D02*
D03*
D21*
X-83344Y310441D02*
D03*
D22*
X243602Y331010D02*
D03*
D23*
X220841Y325166D02*
D03*
D24*
X228215Y369874D02*
D03*
D25*
X207622Y358552D02*
D03*
D26*
X203647Y403689D02*
D03*
D27*
X186516Y387603D02*
D03*
D28*
X171440Y430333D02*
D03*
D29*
X158848Y410491D02*
D03*
D30*
X133620Y448130D02*
D03*
D31*
X126358Y425780D02*
D03*
D32*
X92562Y455962D02*
D03*
D33*
X91086Y432509D02*
D03*
D34*
X50845Y453338D02*
D03*
D35*
X55249Y430254D02*
D03*
D36*
X11092Y440421D02*
D03*
D37*
X21098Y419158D02*
D03*
D38*
X-24199Y418024D02*
D03*
D39*
X-9220Y399917D02*
D03*
D40*
X-52812Y387554D02*
D03*
D41*
X-33800Y373741D02*
D03*
D42*
X-72949Y350926D02*
D03*
D43*
X-51099Y342275D02*
D03*
D44*
X-83344Y268642D02*
D03*
D45*
X-60029Y271587D02*
D03*
D46*
X-72949Y228156D02*
D03*
D47*
X-51099Y236807D02*
D03*
D48*
X-52812Y191528D02*
D03*
D49*
X-33800Y205341D02*
D03*
D50*
X-24199Y161058D02*
D03*
D51*
X-9220Y179165D02*
D03*
D52*
X11092Y138661D02*
D03*
D53*
X21098Y159925D02*
D03*
D54*
X50845Y125745D02*
D03*
D55*
X55249Y148828D02*
D03*
D56*
X133620Y130953D02*
D03*
D57*
X126358Y153302D02*
D03*
D58*
X171440Y148750D02*
D03*
D59*
X158848Y168591D02*
D03*
D60*
X203647Y175393D02*
D03*
D61*
X186516Y191480D02*
D03*
D62*
X228215Y209209D02*
D03*
D63*
X207622Y220530D02*
D03*
D64*
X248841Y289541D02*
D03*
D65*
X225341D02*
D03*
D66*
X154248Y296388D02*
D03*
X139248D02*
D03*
X154248Y312388D02*
D03*
X139248D02*
D03*
D67*
X161650Y261100D02*
D03*
D68*
X174247Y280286D02*
D03*
X169248Y280312D02*
D03*
X164248Y280337D02*
D03*
X164052Y241838D02*
D03*
X169052Y241812D02*
D03*
X174052Y241787D02*
D03*
X154248Y280388D02*
D03*
X149248Y280413D02*
D03*
X149052Y241914D02*
D03*
X154052Y241888D02*
D03*
X159248Y280362D02*
D03*
X159052Y241863D02*
D03*
D69*
X180438Y268505D02*
D03*
X180463Y273505D02*
D03*
X142964Y273695D02*
D03*
X142938Y268695D02*
D03*
X180336Y248505D02*
D03*
X180362Y253505D02*
D03*
X180387Y258505D02*
D03*
X142887Y258695D02*
D03*
X142862Y253695D02*
D03*
X142837Y248695D02*
D03*
X180412Y263505D02*
D03*
X142913Y263695D02*
D03*
D127*
X96650Y59100D02*
X107394Y69844D01*
Y94462D01*
X81650Y59100D02*
X96650D01*
D128*
X149750Y487100D02*
D03*
X13550D02*
D03*
X-116000Y221000D02*
D03*
Y357200D02*
D03*
X13550Y14950D02*
D03*
X149750D02*
D03*
X279300Y221000D02*
D03*
Y357200D02*
D03*
X107394Y94462D02*
D03*
X31650Y59100D02*
D03*
X81650D02*
D03*
X131650D02*
D03*
D129*
X43550Y502100D02*
D03*
X83550D02*
D03*
X119750D02*
D03*
X63550D02*
D03*
X-131000Y271000D02*
D03*
Y327200D02*
D03*
Y291000D02*
D03*
Y251000D02*
D03*
X63550Y-50D02*
D03*
X119750D02*
D03*
X83550D02*
D03*
X43550D02*
D03*
X294300Y271000D02*
D03*
Y327200D02*
D03*
Y291000D02*
D03*
Y251000D02*
D03*
D130*
X70300Y442497D02*
D03*
Y419900D02*
D03*
X79800Y444600D02*
D03*
Y412300D02*
D03*
X-12846Y330056D02*
D03*
X-19605Y295018D02*
D03*
X-26600Y254600D02*
D03*
X-62700Y245100D02*
D03*
X-80766Y243093D02*
D03*
X258678Y271420D02*
D03*
X244746Y302009D02*
D03*
X-57428Y290676D02*
D03*
X-86460Y290606D02*
D03*
X83707Y178510D02*
D03*
X71650Y144100D02*
D03*
Y114100D02*
D03*
X31650Y119100D02*
D03*
X-105845Y374777D02*
D03*
X176127Y320447D02*
D03*
X-6080Y303100D02*
D03*
X255650Y235100D02*
D03*
X191650Y253100D02*
D03*
X91650Y223100D02*
D03*
X67101Y210958D02*
D03*
X148248Y202388D02*
D03*
X99650Y235933D02*
D03*
X115504Y321108D02*
D03*
X130248Y312388D02*
D03*
X180482Y232861D02*
D03*
X222147Y231101D02*
D03*
X187650Y337100D02*
D03*
X69650Y169100D02*
D03*
X222482Y239339D02*
D03*
X192645Y239240D02*
D03*
X164499Y220640D02*
D03*
X146418Y223393D02*
D03*
X176686Y304388D02*
D03*
X142321Y189881D02*
D03*
X41640Y318930D02*
D03*
X132248Y330824D02*
D03*
X248248Y348388D02*
D03*
X186248Y294388D02*
D03*
X162248Y344388D02*
D03*
X234171Y311773D02*
D03*
X163708Y306388D02*
D03*
X140248Y280388D02*
D03*
X132248D02*
D03*
X172248Y228388D02*
D03*
X2722Y279515D02*
D03*
X21656Y265613D02*
D03*
X41640Y260152D02*
D03*
X11975Y204785D02*
D03*
X41642Y203583D02*
D03*
X140409Y344305D02*
D03*
X116920Y344422D02*
D03*
X97542Y337094D02*
D03*
X88998Y399324D02*
D03*
X64290Y382858D02*
D03*
X48029Y361927D02*
D03*
X40659Y339624D02*
D03*
X167178Y266572D02*
D03*
X156178Y266628D02*
D03*
X156122Y255628D02*
D03*
X167122Y255572D02*
D03*
M02*
